<?xml version="1.0" encoding="iso-8859-1"?><!-- Generator: Adobe Illustrator 19.2.1, SVG Export Plug-In . SVG Version: 6.00 Build 0)  --><svg xmlns="http://www.w3.org/2000/svg" xmlns:xlink="http://www.w3.org/1999/xlink" version="1.1" id="Layer_1" x="0px" y="0px" viewBox="0 0 80 80" style="enable-background:new 0 0 80 80;" xml:space="preserve" width="80" height="80">
<g>
	<path style="fill:#FFEEA3;" d="M60,35.5c-8.547,0-15.5-6.953-15.5-15.5S51.453,4.5,60,4.5S75.5,11.453,75.5,20S68.547,35.5,60,35.5   z"/>
	<g>
		<path style="fill:#BA9B48;" d="M60,5c8.271,0,15,6.729,15,15s-6.729,15-15,15s-15-6.729-15-15S51.729,5,60,5 M60,4    c-8.837,0-16,7.163-16,16s7.163,16,16,16s16-7.163,16-16S68.837,4,60,4L60,4z"/>
	</g>
</g>
<g>
	<path style="fill:#F78F8F;" d="M20,35.5c-8.547,0-15.5-6.953-15.5-15.5S11.453,4.5,20,4.5S35.5,11.453,35.5,20S28.547,35.5,20,35.5   z"/>
	<g>
		<path style="fill:#C74343;" d="M20,5c8.271,0,15,6.729,15,15s-6.729,15-15,15S5,28.271,5,20S11.729,5,20,5 M20,4    C11.163,4,4,11.163,4,20s7.163,16,16,16s16-7.163,16-16S28.837,4,20,4L20,4z"/>
	</g>
</g>
<g>
	<path style="fill:#BAE0BD;" d="M60,75.5c-8.547,0-15.5-6.953-15.5-15.5S51.453,44.5,60,44.5S75.5,51.453,75.5,60   S68.547,75.5,60,75.5z"/>
	<g>
		<path style="fill:#5E9C76;" d="M60,45c8.271,0,15,6.729,15,15s-6.729,15-15,15s-15-6.729-15-15S51.729,45,60,45 M60,44    c-8.837,0-16,7.163-16,16s7.163,16,16,16s16-7.163,16-16S68.837,44,60,44L60,44z"/>
	</g>
</g>
<g>
	<path style="fill:#8BB7F0;" d="M20,75.5c-8.547,0-15.5-6.953-15.5-15.5S11.453,44.5,20,44.5S35.5,51.453,35.5,60   S28.547,75.5,20,75.5z"/>
	<path style="fill:#4E7AB5;" d="M20,45c8.271,0,15,6.729,15,15s-6.729,15-15,15S5,68.271,5,60S11.729,45,20,45 M20,44   c-8.837,0-16,7.163-16,16s7.163,16,16,16s16-7.163,16-16S28.837,44,20,44L20,44z"/>
</g>
</svg>