<?xml version="1.0" encoding="iso-8859-1"?><!-- Generator: Adobe Illustrator 19.2.1, SVG Export Plug-In . SVG Version: 6.00 Build 0)  --><svg xmlns="http://www.w3.org/2000/svg" xmlns:xlink="http://www.w3.org/1999/xlink" version="1.1" id="Layer_1" x="0px" y="0px" viewBox="0 0 80 80" style="enable-background:new 0 0 80 80;" xml:space="preserve" width="80" height="80">
<g>
	<path style="fill:#BAE0BD;" d="M65.5,31.5v-19H73c0.827,0,1.5,0.673,1.5,1.5v16c0,0.827-0.673,1.5-1.5,1.5H65.5z"/>
	<g>
		<path style="fill:#5E9C76;" d="M73,13c0.551,0,1,0.449,1,1v16c0,0.551-0.449,1-1,1h-7V13H73 M73,12h-8v20h8c1.105,0,2-0.895,2-2    V14C75,12.895,74.105,12,73,12L73,12z"/>
	</g>
</g>
<g>
	<path style="fill:#8BB7F0;" d="M65.5,49.5v-19H73c0.827,0,1.5,0.673,1.5,1.5v16c0,0.827-0.673,1.5-1.5,1.5H65.5z"/>
	<g>
		<path style="fill:#4E7AB5;" d="M73,31c0.551,0,1,0.449,1,1v16c0,0.551-0.449,1-1,1h-7V31H73 M73,30h-8v20h8c1.105,0,2-0.895,2-2    V32C75,30.895,74.105,30,73,30L73,30z"/>
	</g>
</g>
<g>
	<path style="fill:#DCD5F2;" d="M65.5,67.5v-19H73c0.827,0,1.5,0.673,1.5,1.5v16c0,0.827-0.673,1.5-1.5,1.5H65.5z"/>
	<g>
		<path style="fill:#8B75A1;" d="M73,49c0.551,0,1,0.449,1,1v16c0,0.551-0.449,1-1,1h-7V49H73 M73,48h-8v20h8c1.105,0,2-0.895,2-2    V50C75,48.895,74.105,48,73,48L73,48z"/>
	</g>
</g>
<g>
	<path style="fill:#FFC49C;" d="M9.5,75.5v-71H67c0.827,0,1.5,0.673,1.5,1.5v68c0,0.827-0.673,1.5-1.5,1.5H9.5z"/>
	<path style="fill:#A16A4A;" d="M67,5c0.551,0,1,0.449,1,1v68c0,0.551-0.449,1-1,1H10V5H67 M67,4H9v72h58c1.105,0,2-0.895,2-2V6   C69,4.895,68.105,4,67,4L67,4z"/>
</g>
<g>
	<path style="fill:#A16A4A;" d="M15,76H7c-1.105,0-2-0.895-2-2V6c0-1.105,0.895-2,2-2h8V76z"/>
</g>
<g>
	<path style="fill:#A16A4A;" d="M44.262,46.602h-0.097c-0.932,2.783-2.757,4.175-5.476,4.175c-1.735,0-3.133-0.65-4.194-1.951   c-1.061-1.301-1.592-3.051-1.592-5.252c0-2.913,0.728-5.333,2.184-7.262s3.376-2.893,5.757-2.893c0.906,0,1.716,0.25,2.427,0.748   c0.712,0.498,1.172,1.097,1.379,1.796h0.058c0.039-0.362,0.136-1.107,0.291-2.233h3.223c-0.609,6.835-0.913,10.317-0.913,10.447   c0,2.563,0.667,3.845,2,3.845c1.217,0,2.226-0.716,3.029-2.146c0.803-1.43,1.204-3.284,1.204-5.563   c0-3.366-1.084-6.114-3.252-8.243c-2.168-2.129-5.175-3.194-9.019-3.194c-3.689,0-6.745,1.288-9.165,3.864   c-2.42,2.576-3.631,5.799-3.631,9.67c0,3.818,1.165,6.9,3.495,9.243c2.33,2.343,5.469,3.515,9.417,3.515   c3.107,0,5.767-0.531,7.981-1.592v2.99C47.104,57.521,44.275,58,40.883,58c-4.764,0-8.602-1.424-11.515-4.272   C26.456,50.881,25,47.152,25,42.544c0-4.738,1.541-8.667,4.621-11.786c3.081-3.119,7.017-4.68,11.806-4.68   c4.492,0,8.211,1.308,11.155,3.922S57,36.026,57,40.233c0,3.081-0.799,5.609-2.398,7.583c-1.599,1.974-3.55,2.961-5.854,2.961   C45.77,50.777,44.275,49.385,44.262,46.602z M41.175,36.175c-1.424,0-2.573,0.699-3.447,2.097   c-0.874,1.398-1.311,3.139-1.311,5.223c0,1.398,0.294,2.502,0.883,3.311s1.376,1.214,2.359,1.214c1.424,0,2.55-0.735,3.379-2.204   c0.828-1.469,1.243-3.415,1.243-5.835C44.282,37.444,43.246,36.175,41.175,36.175z"/>
</g>
</svg>