<?xml version="1.0" encoding="iso-8859-1"?><!-- Generator: Adobe Illustrator 19.2.1, SVG Export Plug-In . SVG Version: 6.00 Build 0)  --><svg xmlns="http://www.w3.org/2000/svg" xmlns:xlink="http://www.w3.org/1999/xlink" version="1.1" id="Layer_1" x="0px" y="0px" viewBox="0 0 16 16" style="enable-background:new 0 0 16 16;" xml:space="preserve" width="16" height="16">
<g>
	<path style="fill:#C2E8FF;" d="M0.527,15.5c0.375-3.367,4.5-3.999,4.543-4.005L9,11.5c0.108,0.021,4.107,0.659,4.473,4H0.527z"/>
	<g>
		<path style="fill:#7496C4;" d="M8.918,12c0.484,0.087,3.304,0.686,3.95,3H1.131c0.646-2.328,3.477-2.917,3.949-3H8.918 M9,11H5    c0,0-5,0.717-5,5h14C14,11.732,9,11,9,11L9,11z"/>
	</g>
</g>
<g>
	<path style="fill:#E8D47B;" d="M7,12.5c-0.744,0-1.277-0.409-1.499-0.615L5.53,8.5H8.5v3.397C8.28,12.101,7.753,12.5,7,12.5z"/>
	<path style="fill:#BA9B48;" d="M8,9v2.661C7.789,11.815,7.443,12,7,12c-0.442,0-0.787-0.188-0.996-0.344L6.026,9H8 M9,8H5.034   L5,12.085C5,12.085,5.744,13,7,13s2-0.901,2-0.901V8L9,8z"/>
</g>
<g>
	<g>
		<path style="fill:#FFEEA3;" d="M7,10.5c-0.241,0-0.402-0.145-0.477-0.231l-0.095-0.11l-0.14-0.042    C5.381,9.846,4.713,9.104,4.546,8.181L4.481,7.823L4.12,7.774C3.909,7.746,3.6,7.37,3.518,6.928L3.5,6.834V5.061L4.134,2.5h5.6    L10.5,5.073v1.795l-0.018,0.06C10.4,7.37,10.091,7.746,9.88,7.774L9.519,7.823L9.454,8.181c-0.167,0.923-0.835,1.665-1.743,1.937    l-0.14,0.042l-0.095,0.11C7.402,10.355,7.241,10.5,7,10.5z"/>
	</g>
	<g>
		<path style="fill:#BA9B48;" d="M9.361,3L10,5.146v1.642L9.991,6.836c-0.038,0.206-0.163,0.39-0.233,0.45l-0.667,0.09L8.962,8.092    C8.829,8.829,8.295,9.421,7.568,9.639L7.289,9.722l-0.191,0.22C7.065,9.981,7.032,10,7,10S6.935,9.981,6.902,9.942l-0.191-0.22    L6.432,9.639c-0.727-0.217-1.261-0.81-1.394-1.546L4.909,7.376l-0.667-0.09c-0.07-0.06-0.194-0.244-0.233-0.45L4,6.799V5.122    L4.525,3H9.361 M10.106,2H3.743L3,5v2l0.026,0.019C3.13,7.578,3.546,8.202,4.054,8.27c0.202,1.117,1.021,2.007,2.092,2.327    C6.355,10.839,6.655,11,7,11s0.645-0.161,0.854-0.403c1.071-0.32,1.89-1.21,2.092-2.327c0.508-0.069,0.924-0.693,1.028-1.251L11,7    V5L10.106,2L10.106,2z"/>
	</g>
</g>
<g>
	<path style="fill:#FFC49C;" d="M10.5,5.848c0-1.526-1.837-2.5-2.046-2.606L8.115,3.07L7.858,3.351C7.847,3.362,6.786,4.5,5.187,4.5   C4.028,4.5,3.5,5.375,3.5,6.187V3.452C3.5,2.025,4.419,0.5,7,0.5c1.06,0,1.559,0.74,1.58,0.771l0.148,0.225L9,1.5   c0.737,0,1.5,0.632,1.5,1.689V6.5V5.848z"/>
	<g>
		<path style="fill:#A16A4A;" d="M7,1c0.761,0,1.126,0.495,1.155,0.535L8.449,2H9c0.492,0,1,0.445,1,1.189v0.562    C9.429,3.19,8.803,2.858,8.679,2.796L7.997,2.45L7.485,3.017C7.476,3.027,6.56,4,5.187,4C4.717,4,4.321,4.118,4,4.314V3.452    C4,2.877,4.216,1,7,1 M7,0C4.15,0,3,1.766,3,3.452C3,4.668,3,7,3,7h1c0,0,0-0.382,0-0.813C4,5.723,4.245,5,5.187,5    c1.855,0,3.04-1.312,3.04-1.312S10,4.585,10,5.848C10,6.322,10,7,10,7h1c0,0,0-1.82,0-3.811C11,1.872,10.032,1,9,1    C9,1,8.367,0,7,0L7,0z"/>
	</g>
</g>
<rect x="14" y="4" style="fill:#36404D;" width="1" height="5"/>
<circle style="fill:#36404D;" cx="14.5" cy="2.5" r="0.857"/>
<rect x="13" y="8" style="fill:#36404D;" width="3" height="1"/>
<rect x="13" y="4" style="fill:#36404D;" width="2" height="1"/>
</svg>