<?xml version="1.0" encoding="iso-8859-1"?><!-- Generator: Adobe Illustrator 19.2.1, SVG Export Plug-In . SVG Version: 6.00 Build 0)  --><svg xmlns="http://www.w3.org/2000/svg" xmlns:xlink="http://www.w3.org/1999/xlink" version="1.1" id="Layer_1" x="0px" y="0px" viewBox="0 0 30 30" style="enable-background:new 0 0 30 30;" xml:space="preserve" width="30" height="30">
<rect x="26" y="7" style="fill:#36404D;" width="2" height="9"/>
<circle style="fill:#36404D;" cx="27" cy="4" r="1.5"/>
<rect x="25" y="7" style="fill:#36404D;" width="3" height="1"/>
<rect x="25" y="15" style="fill:#36404D;" width="4" height="1"/>
<g>
	<path style="fill:#C2E8FF;" d="M1.515,28.5c0.26-4.455,3.966-8,8.485-8h6c4.519,0,8.226,3.545,8.485,8H1.515z"/>
	<g>
		<path style="fill:#7496C4;" d="M16,21c4.073,0,7.444,3.059,7.938,7L2.062,28c0.494-3.941,3.865-7,7.938-7H16 M16,20h-6    c-4.971,0-9,4.029-9,9v0h24v0C25,24.029,20.971,20,16,20L16,20z"/>
	</g>
</g>
<g>
	<path style="fill:#E8D47B;" d="M13,22.5c-2.124,0-3.222-1.275-3.5-1.654V15.5h7v5.347C16.221,21.229,15.132,22.5,13,22.5z"/>
	<path style="fill:#BA9B48;" d="M16,16v4.674C15.655,21.089,14.704,22,13,22c-1.708,0-2.66-0.916-3-1.325V16H16 M17,15H9v6   c0,0,1.208,2,4,2c2.792,0,4-2,4-2V15L17,15z"/>
</g>
<g>
	<path style="fill:#E8D47B;" d="M18,14.5c-0.827,0-1.5-0.673-1.5-1.5s0.673-1.5,1.5-1.5c1.385,0,1.5,0.394,1.5,0.833   C19.5,13.24,18.744,14.5,18,14.5z"/>
	<g>
		<path style="fill:#BA9B48;" d="M18,12c0.825,0,0.974,0.155,0.975,0.156C18.981,12.166,19,12.221,19,12.333    C19,13.053,18.371,14,18,14c-0.551,0-1-0.449-1-1S17.449,12,18,12 M18,11c-1.105,0-2,0.895-2,2s0.895,2,2,2s2-1.562,2-2.667    S19.105,11,18,11L18,11z"/>
	</g>
</g>
<g>
	<path style="fill:#E8D47B;" d="M8,14.5c-0.744,0-1.5-1.26-1.5-2.167C6.5,11.894,6.615,11.5,8,11.5c0.827,0,1.5,0.673,1.5,1.5   S8.827,14.5,8,14.5z"/>
	<g>
		<path style="fill:#BA9B48;" d="M8,12c0.551,0,1,0.449,1,1s-0.449,1-1,1c-0.371,0-1-0.947-1-1.667c0-0.112,0.019-0.167,0.024-0.177    C7.026,12.155,7.175,12,8,12 M8,11c-1.105,0-2,0.229-2,1.333S6.895,15,8,15s2-0.895,2-2S9.105,11,8,11L8,11z"/>
	</g>
</g>
<g>
	<g>
		<path style="fill:#FFEEA3;" d="M13,19.5c-0.429,0-0.841-0.192-1.129-0.526l-0.102-0.118l-0.151-0.039    C9.193,18.189,7.5,16.002,7.5,13.5V6.526c0-1.301,1.059-2.36,2.359-2.36h6.281c1.301,0,2.359,1.059,2.359,2.36V13.5    c0,2.502-1.693,4.689-4.118,5.317l-0.151,0.039l-0.102,0.118C13.841,19.309,13.429,19.5,13,19.5z"/>
	</g>
	<g>
		<path style="fill:#BA9B48;" d="M16.141,4.667c1.025,0,1.859,0.834,1.859,1.86V13.5c0,2.274-1.539,4.262-3.743,4.833l-0.302,0.078    l-0.204,0.236C13.637,18.779,13.388,19,13,19c-0.388,0-0.637-0.221-0.751-0.353l-0.204-0.236l-0.302-0.078    C9.539,17.762,8,15.774,8,13.5V6.526c0-1.025,0.834-1.86,1.86-1.86H16.141 M16.141,3.667H9.86C8.28,3.667,7,4.947,7,6.526V13.5    c0,2.792,1.91,5.132,4.492,5.801C11.859,19.726,12.395,20,13,20c0.605,0,1.141-0.274,1.508-0.699C17.09,18.632,19,16.292,19,13.5    V6.526C19,4.947,17.72,3.667,16.141,3.667L16.141,3.667z"/>
	</g>
</g>
<g>
	<path style="fill:#FFC49C;" d="M18.5,12.5v-1.777c0-2.818-2.228-3.698-2.322-3.734l-0.295-0.112l-0.229,0.218   C15.642,7.106,14.114,8.5,10.9,8.5c-2.065,0-3.4,1.322-3.4,3.367V12.5H7.377C7.126,11.596,6.5,9.131,6.5,7.125   C6.5,4.398,8.778,1.5,13,1.5c2.007,0,2.854,1.438,2.863,1.452l0.144,0.251h0.29c1.108,0,3.204,0.857,3.204,4.103   c0,1.827-0.627,4.286-0.877,5.193H18.5z"/>
	<g>
		<path style="fill:#A16A4A;" d="M13,2c1.68,0,2.405,1.162,2.429,1.2l0.288,0.503h0.579C17.232,3.703,19,4.457,19,7.306    c0,0.624-0.077,1.328-0.187,2.016c-0.588-2.065-2.367-2.768-2.457-2.802L15.772,6.31l-0.455,0.415C15.26,6.777,13.886,8,10.9,8    c-1.692,0-2.981,0.817-3.562,2.149C7.154,9.191,7,8.099,7,7.125C7,4.641,9.103,2,13,2 M13,1C8.705,1,6,3.94,6,7.125    C6,9.726,7,13,7,13h1c0,0,0-0.417,0-1.133C8,9.901,9.334,9,10.9,9C14.385,9,16,7.455,16,7.455s2,0.761,2,3.267    C18,11.51,18,13,18,13h1c0,0,1-3.323,1-5.694c0-3.329-2.139-4.603-3.703-4.603C16.297,2.703,15.32,1,13,1L13,1z"/>
	</g>
</g>
</svg>