<?xml version="1.0" encoding="iso-8859-1"?><!-- Generator: Adobe Illustrator 19.2.1, SVG Export Plug-In . SVG Version: 6.00 Build 0)  --><svg xmlns="http://www.w3.org/2000/svg" xmlns:xlink="http://www.w3.org/1999/xlink" version="1.1" id="Layer_1" x="0px" y="0px" viewBox="0 0 30 30" style="enable-background:new 0 0 30 30;" xml:space="preserve" width="30" height="30">
<polyline style="fill:none;stroke:#788B9C;stroke-miterlimit:10;" points="3,26 7,15 11,26 "/>
<polyline style="fill:none;stroke:#788B9C;stroke-miterlimit:10;" points="19,26 23,15 27,26 "/>
<polyline style="fill:none;stroke:#788B9C;stroke-miterlimit:10;" points="7,15 15,4 23,15 "/>
<g>
	<circle style="fill:#8BB7F0;" cx="15" cy="4" r="2.5"/>
	<path style="fill:#4E7AB5;" d="M15,2c1.103,0,2,0.897,2,2s-0.897,2-2,2s-2-0.897-2-2S13.897,2,15,2 M15,1c-1.657,0-3,1.343-3,3   s1.343,3,3,3s3-1.343,3-3S16.657,1,15,1L15,1z"/>
</g>
<g>
	<circle style="fill:#8BB7F0;" cx="27" cy="26" r="2.5"/>
	<path style="fill:#4E7AB5;" d="M27,24c1.103,0,2,0.897,2,2s-0.897,2-2,2s-2-0.897-2-2S25.897,24,27,24 M27,23c-1.657,0-3,1.343-3,3   s1.343,3,3,3s3-1.343,3-3S28.657,23,27,23L27,23z"/>
</g>
<g>
	<circle style="fill:#8BB7F0;" cx="19" cy="26" r="2.5"/>
	<path style="fill:#4E7AB5;" d="M19,24c1.103,0,2,0.897,2,2s-0.897,2-2,2s-2-0.897-2-2S17.897,24,19,24 M19,23c-1.657,0-3,1.343-3,3   s1.343,3,3,3s3-1.343,3-3S20.657,23,19,23L19,23z"/>
</g>
<g>
	<circle style="fill:#8BB7F0;" cx="23" cy="15" r="2.5"/>
	<path style="fill:#4E7AB5;" d="M23,13c1.103,0,2,0.897,2,2s-0.897,2-2,2s-2-0.897-2-2S21.897,13,23,13 M23,12c-1.657,0-3,1.343-3,3   s1.343,3,3,3s3-1.343,3-3S24.657,12,23,12L23,12z"/>
</g>
<g>
	<circle style="fill:#8BB7F0;" cx="7" cy="15" r="2.5"/>
	<path style="fill:#4E7AB5;" d="M7,13c1.103,0,2,0.897,2,2s-0.897,2-2,2s-2-0.897-2-2S5.897,13,7,13 M7,12c-1.657,0-3,1.343-3,3   s1.343,3,3,3s3-1.343,3-3S8.657,12,7,12L7,12z"/>
</g>
<g>
	<circle style="fill:#8BB7F0;" cx="11" cy="26" r="2.5"/>
	<path style="fill:#4E7AB5;" d="M11,24c1.103,0,2,0.897,2,2s-0.897,2-2,2s-2-0.897-2-2S9.897,24,11,24 M11,23c-1.657,0-3,1.343-3,3   s1.343,3,3,3s3-1.343,3-3S12.657,23,11,23L11,23z"/>
</g>
<g>
	<circle style="fill:#8BB7F0;" cx="3" cy="26" r="2.5"/>
	<path style="fill:#4E7AB5;" d="M3,24c1.103,0,2,0.897,2,2s-0.897,2-2,2s-2-0.897-2-2S1.897,24,3,24 M3,23c-1.657,0-3,1.343-3,3   s1.343,3,3,3s3-1.343,3-3S4.657,23,3,23L3,23z"/>
</g>
</svg>