<?xml version="1.0" encoding="iso-8859-1"?><!-- Generator: Adobe Illustrator 19.2.1, SVG Export Plug-In . SVG Version: 6.00 Build 0)  --><svg xmlns="http://www.w3.org/2000/svg" xmlns:xlink="http://www.w3.org/1999/xlink" version="1.1" x="0px" y="0px" viewBox="0 0 40 40" style="enable-background:new 0 0 40 40;" xml:space="preserve" width="40" height="40">
<g id="Layer_1">
</g>
<g id="Layer_2">
	<polyline style="fill:none;stroke:#788B9C;stroke-miterlimit:10;" points="4,35 9,20 14,35  "/>
	<polyline style="fill:none;stroke:#788B9C;stroke-miterlimit:10;" points="26,35 31,20 36,35  "/>
	<polyline style="fill:none;stroke:#788B9C;stroke-miterlimit:10;" points="9,20 20,5 31,20  "/>
	<g>
		<circle style="fill:#8BB7F0;" cx="20" cy="5" r="3.5"/>
		<path style="fill:#4E7AB5;" d="M20,2c1.654,0,3,1.346,3,3s-1.346,3-3,3s-3-1.346-3-3S18.346,2,20,2 M20,1c-2.209,0-4,1.791-4,4    s1.791,4,4,4s4-1.791,4-4S22.209,1,20,1L20,1z"/>
	</g>
	<g>
		<circle style="fill:#8BB7F0;" cx="36" cy="35" r="3.5"/>
		<path style="fill:#4E7AB5;" d="M36,32c1.654,0,3,1.346,3,3s-1.346,3-3,3s-3-1.346-3-3S34.346,32,36,32 M36,31    c-2.209,0-4,1.791-4,4s1.791,4,4,4s4-1.791,4-4S38.209,31,36,31L36,31z"/>
	</g>
	<g>
		<circle style="fill:#8BB7F0;" cx="26" cy="35" r="3.5"/>
		<path style="fill:#4E7AB5;" d="M26,32c1.654,0,3,1.346,3,3s-1.346,3-3,3s-3-1.346-3-3S24.346,32,26,32 M26,31    c-2.209,0-4,1.791-4,4s1.791,4,4,4s4-1.791,4-4S28.209,31,26,31L26,31z"/>
	</g>
	<g>
		<circle style="fill:#8BB7F0;" cx="31" cy="20" r="3.5"/>
		<path style="fill:#4E7AB5;" d="M31,17c1.654,0,3,1.346,3,3s-1.346,3-3,3s-3-1.346-3-3S29.346,17,31,17 M31,16    c-2.209,0-4,1.791-4,4s1.791,4,4,4s4-1.791,4-4S33.209,16,31,16L31,16z"/>
	</g>
	<g>
		<circle style="fill:#8BB7F0;" cx="9" cy="20" r="3.5"/>
		<path style="fill:#4E7AB5;" d="M9,17c1.654,0,3,1.346,3,3s-1.346,3-3,3s-3-1.346-3-3S7.346,17,9,17 M9,16c-2.209,0-4,1.791-4,4    s1.791,4,4,4s4-1.791,4-4S11.209,16,9,16L9,16z"/>
	</g>
	<g>
		<circle style="fill:#8BB7F0;" cx="14" cy="35" r="3.5"/>
		<path style="fill:#4E7AB5;" d="M14,32c1.654,0,3,1.346,3,3s-1.346,3-3,3s-3-1.346-3-3S12.346,32,14,32 M14,31    c-2.209,0-4,1.791-4,4s1.791,4,4,4s4-1.791,4-4S16.209,31,14,31L14,31z"/>
	</g>
	<g>
		<circle style="fill:#8BB7F0;" cx="4" cy="35" r="3.5"/>
		<path style="fill:#4E7AB5;" d="M4,32c1.654,0,3,1.346,3,3s-1.346,3-3,3s-3-1.346-3-3S2.346,32,4,32 M4,31c-2.209,0-4,1.791-4,4    s1.791,4,4,4s4-1.791,4-4S6.209,31,4,31L4,31z"/>
	</g>
</g>
</svg>