<?xml version="1.0" encoding="iso-8859-1"?><!-- Generator: Adobe Illustrator 19.2.1, SVG Export Plug-In . SVG Version: 6.00 Build 0)  --><svg xmlns="http://www.w3.org/2000/svg" xmlns:xlink="http://www.w3.org/1999/xlink" version="1.1" id="Layer_1" x="0px" y="0px" viewBox="0 0 80 80" style="enable-background:new 0 0 80 80;" xml:space="preserve" width="80" height="80">
<polyline style="fill:none;stroke:#788B9C;stroke-width:2;stroke-miterlimit:10;" points="8,70 18,40 28,70 "/>
<polyline style="fill:none;stroke:#788B9C;stroke-width:2;stroke-miterlimit:10;" points="52,70 62,40 72,70 "/>
<polyline style="fill:none;stroke:#788B9C;stroke-width:2;stroke-miterlimit:10;" points="18,40 40,10 62,40 "/>
<g>
	<circle style="fill:#8BB7F0;" cx="40" cy="10" r="7.5"/>
	<path style="fill:#4E7AB5;" d="M40,3c3.86,0,7,3.14,7,7s-3.14,7-7,7s-7-3.14-7-7S36.14,3,40,3 M40,2c-4.418,0-8,3.582-8,8   s3.582,8,8,8s8-3.582,8-8S44.418,2,40,2L40,2z"/>
</g>
<g>
	<circle style="fill:#8BB7F0;" cx="72" cy="70" r="7.5"/>
	<path style="fill:#4E7AB5;" d="M72,63c3.86,0,7,3.14,7,7s-3.14,7-7,7s-7-3.14-7-7S68.14,63,72,63 M72,62c-4.418,0-8,3.582-8,8   s3.582,8,8,8s8-3.582,8-8S76.418,62,72,62L72,62z"/>
</g>
<g>
	<circle style="fill:#8BB7F0;" cx="52" cy="70" r="7.5"/>
	<path style="fill:#4E7AB5;" d="M52,63c3.86,0,7,3.14,7,7s-3.14,7-7,7s-7-3.14-7-7S48.14,63,52,63 M52,62c-4.418,0-8,3.582-8,8   s3.582,8,8,8s8-3.582,8-8S56.418,62,52,62L52,62z"/>
</g>
<g>
	<circle style="fill:#8BB7F0;" cx="62" cy="40" r="7.5"/>
	<path style="fill:#4E7AB5;" d="M62,33c3.86,0,7,3.14,7,7s-3.14,7-7,7s-7-3.14-7-7S58.14,33,62,33 M62,32c-4.418,0-8,3.582-8,8   s3.582,8,8,8s8-3.582,8-8S66.418,32,62,32L62,32z"/>
</g>
<g>
	<circle style="fill:#8BB7F0;" cx="18" cy="40" r="7.5"/>
	<path style="fill:#4E7AB5;" d="M18,33c3.86,0,7,3.14,7,7s-3.14,7-7,7s-7-3.14-7-7S14.14,33,18,33 M18,32c-4.418,0-8,3.582-8,8   s3.582,8,8,8s8-3.582,8-8S22.418,32,18,32L18,32z"/>
</g>
<g>
	<circle style="fill:#8BB7F0;" cx="28" cy="70" r="7.5"/>
	<path style="fill:#4E7AB5;" d="M28,63c3.86,0,7,3.14,7,7s-3.14,7-7,7s-7-3.14-7-7S24.14,63,28,63 M28,62c-4.418,0-8,3.582-8,8   s3.582,8,8,8s8-3.582,8-8S32.418,62,28,62L28,62z"/>
</g>
<g>
	<circle style="fill:#8BB7F0;" cx="8" cy="70" r="7.5"/>
	<path style="fill:#4E7AB5;" d="M8,63c3.86,0,7,3.14,7,7s-3.14,7-7,7s-7-3.14-7-7S4.14,63,8,63 M8,62c-4.418,0-8,3.582-8,8   s3.582,8,8,8s8-3.582,8-8S12.418,62,8,62L8,62z"/>
</g>
</svg>