<?xml version="1.0" encoding="iso-8859-1"?><!-- Generator: Adobe Illustrator 19.2.1, SVG Export Plug-In . SVG Version: 6.00 Build 0)  --><svg xmlns="http://www.w3.org/2000/svg" xmlns:xlink="http://www.w3.org/1999/xlink" version="1.1" id="Layer_1" x="0px" y="0px" viewBox="0 0 16 16" style="enable-background:new 0 0 16 16;" xml:space="preserve" width="16" height="16">
<polyline style="fill:none;stroke:#788B9C;stroke-miterlimit:10;" points="3.5,7.5 8,1.6 12.5,7.5 "/>
<polyline style="fill:none;stroke:#788B9C;stroke-miterlimit:10;" points="10.5,13.5 12.5,7.5 14.5,13.5 "/>
<polyline style="fill:none;stroke:#788B9C;stroke-miterlimit:10;" points="1.5,13.5 3.5,7.5 5.5,13.5 "/>
<g>
	<circle style="fill:#8BB7F0;" cx="8" cy="2" r="1.5"/>
	<path style="fill:#4E7AB5;" d="M8,1c0.551,0,1,0.449,1,1S8.551,3,8,3S7,2.551,7,2S7.449,1,8,1 M8,0C6.895,0,6,0.895,6,2   s0.895,2,2,2s2-0.895,2-2S9.105,0,8,0L8,0z"/>
</g>
<g>
	<circle style="fill:#8BB7F0;" cx="14.5" cy="13.5" r="1"/>
	<path style="fill:#4E7AB5;" d="M14.5,13c0.276,0,0.5,0.224,0.5,0.5S14.776,14,14.5,14S14,13.776,14,13.5S14.224,13,14.5,13    M14.5,12c-0.828,0-1.5,0.672-1.5,1.5s0.672,1.5,1.5,1.5s1.5-0.672,1.5-1.5S15.328,12,14.5,12L14.5,12z"/>
</g>
<g>
	<circle style="fill:#8BB7F0;" cx="10.5" cy="13.5" r="1"/>
	<path style="fill:#4E7AB5;" d="M10.5,13c0.276,0,0.5,0.224,0.5,0.5S10.776,14,10.5,14S10,13.776,10,13.5S10.224,13,10.5,13    M10.5,12C9.672,12,9,12.672,9,13.5S9.672,15,10.5,15s1.5-0.672,1.5-1.5S11.328,12,10.5,12L10.5,12z"/>
</g>
<g>
	<circle style="fill:#8BB7F0;" cx="5.5" cy="13.5" r="1"/>
	<path style="fill:#4E7AB5;" d="M5.5,13C5.776,13,6,13.224,6,13.5S5.776,14,5.5,14S5,13.776,5,13.5S5.224,13,5.5,13 M5.5,12   C4.672,12,4,12.672,4,13.5S4.672,15,5.5,15S7,14.328,7,13.5S6.328,12,5.5,12L5.5,12z"/>
</g>
<g>
	<circle style="fill:#8BB7F0;" cx="1.5" cy="13.5" r="1"/>
	<path style="fill:#4E7AB5;" d="M1.5,13C1.776,13,2,13.224,2,13.5S1.776,14,1.5,14S1,13.776,1,13.5S1.224,13,1.5,13 M1.5,12   C0.672,12,0,12.672,0,13.5S0.672,15,1.5,15S3,14.328,3,13.5S2.328,12,1.5,12L1.5,12z"/>
</g>
<g>
	<circle style="fill:#8BB7F0;" cx="12.5" cy="7.5" r="1"/>
	<path style="fill:#4E7AB5;" d="M12.5,7C12.776,7,13,7.224,13,7.5S12.776,8,12.5,8S12,7.776,12,7.5S12.224,7,12.5,7 M12.5,6   C11.672,6,11,6.672,11,7.5S11.672,9,12.5,9S14,8.328,14,7.5S13.328,6,12.5,6L12.5,6z"/>
</g>
<g>
	<circle style="fill:#8BB7F0;" cx="3.5" cy="7.5" r="1"/>
	<path style="fill:#4E7AB5;" d="M3.5,7C3.776,7,4,7.224,4,7.5S3.776,8,3.5,8S3,7.776,3,7.5S3.224,7,3.5,7 M3.5,6   C2.672,6,2,6.672,2,7.5S2.672,9,3.5,9S5,8.328,5,7.5S4.328,6,3.5,6L3.5,6z"/>
</g>
</svg>