<?xml version="1.0" encoding="iso-8859-1"?><!-- Generator: Adobe Illustrator 19.2.1, SVG Export Plug-In . SVG Version: 6.00 Build 0)  --><svg xmlns="http://www.w3.org/2000/svg" xmlns:xlink="http://www.w3.org/1999/xlink" version="1.1" id="Layer_1" x="0px" y="0px" viewBox="0 0 40 40" style="enable-background:new 0 0 40 40;" xml:space="preserve" width="40" height="40">
<g>
	<polygon style="fill:#FFEEA3;" points="20,32.004 8.3,38.112 10.493,25.097 1.068,15.857 14.124,13.922 20,2.102 25.876,13.922    38.932,15.857 29.507,25.097 31.7,38.112  "/>
	<path style="fill:#BA9B48;" d="M20,3.225l5.311,10.685l0.232,0.468l0.516,0.077l11.803,1.749l-8.521,8.353l-0.373,0.365   l0.087,0.515l1.984,11.766l-10.577-5.522L20,31.44l-0.463,0.242L8.96,37.204l1.984-11.766l0.087-0.515l-0.373-0.365l-8.521-8.353   l11.803-1.749l0.516-0.077l0.232-0.468L20,3.225 M20,0.979l-6.207,12.486L0,15.51l9.957,9.761l-2.318,13.75L20,32.568l12.361,6.453   l-2.318-13.75L40,15.51l-13.793-2.044L20,0.979L20,0.979z"/>
</g>
<line style="fill:none;stroke:#5E9C76;stroke-width:2;stroke-miterlimit:10;" x1="14" y1="22" x2="26" y2="22"/>
<line style="fill:none;stroke:#5E9C76;stroke-width:2;stroke-miterlimit:10;" x1="20" y1="16" x2="20" y2="28"/>
</svg>