<?xml version="1.0" encoding="iso-8859-1"?><!-- Generator: Adobe Illustrator 19.2.1, SVG Export Plug-In . SVG Version: 6.00 Build 0)  --><svg xmlns="http://www.w3.org/2000/svg" xmlns:xlink="http://www.w3.org/1999/xlink" version="1.1" x="0px" y="0px" viewBox="0 0 16 16" style="enable-background:new 0 0 16 16;" xml:space="preserve" width="16" height="16">
<g id="Layer_1">
	<g>
		<polygon style="fill:#FFEEA3;" points="8,12.476 3.791,13.794 3.743,9.383 1.188,5.787 5.369,4.379 8,0.838 10.631,4.379     14.812,5.787 12.257,9.383 12.209,13.794   "/>
		<path style="fill:#BA9B48;" d="M8,1.677l2.136,2.875l0.187,0.251l0.297,0.1l3.394,1.143l-2.074,2.92l-0.181,0.255l-0.003,0.313    l-0.039,3.581l-3.418-1.07L8,11.952l-0.299,0.094l-3.418,1.07L4.245,9.534L4.241,9.221L4.06,8.966l-2.074-2.92L5.38,4.903    l0.297-0.1l0.187-0.251L8,1.677 M8,0L5.061,3.955l-4.67,1.573l2.853,4.017l0.053,4.927L8,13l4.702,1.472l0.053-4.927l2.853-4.017    l-4.67-1.573L8,0L8,0z"/>
	</g>
	<line style="fill:none;stroke:#5E9C76;stroke-width:2;stroke-miterlimit:10;" x1="5.5" y1="8" x2="10.5" y2="8"/>
	<line style="fill:none;stroke:#5E9C76;stroke-width:2;stroke-miterlimit:10;" x1="8" y1="5.5" x2="8" y2="10.5"/>
</g>
<g id="Layer_2">
</g>
</svg>