<?xml version="1.0" encoding="iso-8859-1"?><!-- Generator: Adobe Illustrator 19.2.1, SVG Export Plug-In . SVG Version: 6.00 Build 0)  --><svg xmlns="http://www.w3.org/2000/svg" xmlns:xlink="http://www.w3.org/1999/xlink" version="1.1" id="Layer_1" x="0px" y="0px" viewBox="0 0 80 80" style="enable-background:new 0 0 80 80;" xml:space="preserve" width="80" height="80">
<g>
	<polygon style="fill:#FFEEA3;" points="40,64.437 15.671,77.087 20.539,49.823 1.093,31.349 28.335,27.457 40,3.155 51.665,27.457    78.907,31.349 59.461,49.823 64.329,77.087  "/>
	<path style="fill:#BA9B48;" d="M40,4.311l11.098,23.122l0.231,0.482l0.529,0.076l25.955,3.708L59.311,49.275l-0.39,0.371   l0.095,0.53l4.643,25.999L40.461,64.113L40,63.873l-0.461,0.24L16.342,76.175l4.643-25.999l0.095-0.53l-0.39-0.371L2.186,31.698   l25.955-3.708l0.529-0.076l0.231-0.482L40,4.311 M40,2L28,27L0,31l20,19l-5,28l25-13l25,13l-5-28l20-19l-28-4L40,2L40,2z"/>
</g>
<line style="fill:none;stroke:#5E9C76;stroke-width:4;stroke-miterlimit:10;" x1="28" y1="43.958" x2="52" y2="43.958"/>
<line style="fill:none;stroke:#5E9C76;stroke-width:4;stroke-miterlimit:10;" x1="40" y1="31.958" x2="40" y2="55.958"/>
</svg>