<?xml version="1.0" encoding="iso-8859-1"?><!-- Generator: Adobe Illustrator 19.2.1, SVG Export Plug-In . SVG Version: 6.00 Build 0)  --><svg xmlns="http://www.w3.org/2000/svg" xmlns:xlink="http://www.w3.org/1999/xlink" version="1.1" id="Layer_1" x="0px" y="0px" viewBox="0 0 30 30" style="enable-background:new 0 0 30 30;" xml:space="preserve" width="30" height="30">
<g>
	<polygon style="fill:#FFEEA3;" points="15,23.862 6.39,28.357 8.004,18.779 1.068,11.979 10.676,10.556 15,1.857 19.324,10.556    28.932,11.979 21.996,18.779 23.61,28.357  "/>
	<path style="fill:#BA9B48;" d="M15,2.981l3.76,7.563l0.232,0.468l0.516,0.077l8.355,1.238l-6.031,5.913l-0.373,0.365l0.087,0.515   l1.404,8.329l-7.487-3.909L15,23.298l-0.463,0.242L7.05,27.448l1.404-8.329l0.087-0.515l-0.373-0.365l-6.031-5.913l8.355-1.238   l0.516-0.077l0.232-0.468L15,2.981 M15,0.734l-4.655,9.365L0,11.632l7.468,7.321L5.729,29.266L15,24.426l9.271,4.84l-1.738-10.312   L30,11.632l-10.345-1.533L15,0.734L15,0.734z"/>
</g>
<line style="fill:none;stroke:#5E9C76;stroke-width:2;stroke-miterlimit:10;" x1="11" y1="16" x2="19" y2="16"/>
<line style="fill:none;stroke:#5E9C76;stroke-width:2;stroke-miterlimit:10;" x1="15" y1="12" x2="15" y2="20"/>
</svg>