<?xml version="1.0" encoding="iso-8859-1"?><!-- Generator: Adobe Illustrator 19.2.1, SVG Export Plug-In . SVG Version: 6.00 Build 0)  --><svg xmlns="http://www.w3.org/2000/svg" xmlns:xlink="http://www.w3.org/1999/xlink" version="1.1" id="Layer_1" x="0px" y="0px" viewBox="0 0 30 30" style="enable-background:new 0 0 30 30;" xml:space="preserve" width="30" height="30">
<g>
	<path style="fill:#7FCC85;" d="M26,12h-3V4h3c0.552,0,1,0.448,1,1v6C27,11.552,26.552,12,26,12z"/>
</g>
<g>
	<path style="fill:#66B0FF;" d="M26,19h-3v-8h3c0.552,0,1,0.448,1,1v6C27,18.552,26.552,19,26,19z"/>
</g>
<g>
	<path style="fill:#BC7BE0;" d="M26,26h-3v-8h3c0.552,0,1,0.448,1,1v6C27,25.552,26.552,26,26,26z"/>
</g>
<g>
	<path style="fill:#FFC49C;" d="M5.5,27.5v-25H24c0.276,0,0.5,0.224,0.5,0.5v24c0,0.276-0.224,0.5-0.5,0.5H5.5z"/>
	<path style="fill:#A16A4A;" d="M24,3v24H6V3H24 M24,2H5v26h19c0.552,0,1-0.448,1-1V3C25,2.448,24.552,2,24,2L24,2z"/>
</g>
<g>
	<path style="fill:#A16A4A;" d="M6,28H4c-0.552,0-1-0.448-1-1V3c0-0.552,0.448-1,1-1h2V28z"/>
</g>
<g>
	<path style="fill:#A16A4A;" d="M16.017,16.855h-0.043c-0.332,0.905-0.934,1.358-1.806,1.358c-0.654,0-1.181-0.237-1.582-0.711   c-0.4-0.474-0.601-1.13-0.601-1.969c0-1.085,0.277-1.968,0.832-2.648s1.223-1.02,2.005-1.02c0.706,0,1.149,0.277,1.329,0.832h0.028   l0.071-0.704h1.6c-0.213,2.019-0.32,3.339-0.32,3.96c0,0.664,0.18,0.995,0.54,0.995c0.379,0,0.692-0.251,0.938-0.754   c0.246-0.502,0.37-1.159,0.37-1.969c0-1.109-0.353-2.018-1.059-2.726c-0.706-0.709-1.692-1.063-2.957-1.063   c-1.355,0-2.482,0.473-3.38,1.418c-0.898,0.945-1.347,2.098-1.347,3.459c0,1.318,0.397,2.355,1.191,3.114   c0.794,0.758,1.89,1.137,3.288,1.137c1.066,0,2.043-0.204,2.929-0.611v1.358c-0.81,0.346-1.853,0.519-3.128,0.519   c-1.749,0-3.172-0.501-4.269-1.504C9.549,18.323,9,16.976,9,15.284c0-1.725,0.585-3.175,1.756-4.351s2.678-1.763,4.521-1.763   c1.706,0,3.086,0.456,4.141,1.368S21,12.654,21,14.147c0,1.227-0.322,2.212-0.967,2.954c-0.645,0.742-1.443,1.113-2.396,1.113   c-0.469,0-0.851-0.126-1.145-0.377S16.04,17.258,16.017,16.855z M15.071,13.102c-0.427,0-0.774,0.243-1.041,0.729   c-0.268,0.486-0.402,1.049-0.402,1.688c0,0.455,0.091,0.809,0.274,1.063c0.182,0.254,0.418,0.38,0.707,0.38   c0.445,0,0.796-0.239,1.052-0.718c0.256-0.479,0.384-1.118,0.384-1.919c0-0.379-0.089-0.678-0.267-0.896   C15.601,13.211,15.365,13.102,15.071,13.102z"/>
</g>
</svg>