<?xml version="1.0" encoding="iso-8859-1"?><!-- Generator: Adobe Illustrator 19.2.1, SVG Export Plug-In . SVG Version: 6.00 Build 0)  --><svg xmlns="http://www.w3.org/2000/svg" xmlns:xlink="http://www.w3.org/1999/xlink" version="1.1" id="Layer_1" x="0px" y="0px" viewBox="0 0 16 16" style="enable-background:new 0 0 16 16;" xml:space="preserve" width="16" height="16">
<g>
	<rect x="13" y="1.231" style="fill:#7FCC85;" width="2" height="4"/>
</g>
<g>
	<rect x="13" y="5.231" style="fill:#66B0FF;" width="2" height="4"/>
</g>
<g>
	<rect x="13" y="9.231" style="fill:#BC7BE0;" width="2" height="4"/>
</g>
<g>
	<path style="fill:#FFC49C;" d="M2.5,14.5v-14H13c0.276,0,0.5,0.224,0.5,0.5v13c0,0.276-0.224,0.5-0.5,0.5H2.5z"/>
	<g>
		<path style="fill:#A16A4A;" d="M13,1v13H3V1H13 M13,0H2v15h11c0.552,0,1-0.448,1-1V1C14,0.448,13.552,0,13,0L13,0z"/>
	</g>
</g>
<g>
	<path style="fill:#A16A4A;" d="M3,15H2c-0.552,0-1-0.448-1-1V1c0-0.552,0.448-1,1-1h1V15z"/>
</g>
<g>
	<path style="fill:#A16A4A;" d="M8.611,8.955H8.589C8.418,9.421,8.109,9.654,7.66,9.654c-0.337,0-0.608-0.122-0.814-0.366   C6.64,9.044,6.537,8.706,6.537,8.274c0-0.559,0.143-1.013,0.428-1.363c0.285-0.35,0.629-0.525,1.032-0.525   c0.363,0,0.591,0.143,0.684,0.428h0.015l0.037-0.362h0.823C9.445,7.491,9.39,8.171,9.39,8.49c0,0.341,0.093,0.512,0.278,0.512   c0.195,0,0.356-0.129,0.483-0.388c0.127-0.259,0.19-0.596,0.19-1.013c0-0.571-0.182-1.038-0.545-1.403   C9.433,5.834,8.926,5.651,8.274,5.651c-0.698,0-1.277,0.243-1.74,0.73c-0.462,0.487-0.693,1.08-0.693,1.78   c0,0.678,0.204,1.212,0.613,1.602c0.409,0.39,0.973,0.585,1.692,0.585c0.549,0,1.051-0.105,1.507-0.315v0.699   C9.237,10.911,8.7,11,8.044,11c-0.9,0-1.632-0.258-2.197-0.774C5.282,9.71,5,9.017,5,8.146c0-0.888,0.301-1.634,0.904-2.239   S7.282,5,8.23,5c0.878,0,1.588,0.235,2.131,0.704c0.543,0.47,0.814,1.088,0.814,1.857c0,0.632-0.166,1.138-0.498,1.52   c-0.332,0.382-0.743,0.573-1.233,0.573c-0.241,0-0.438-0.065-0.589-0.194C8.705,9.33,8.623,9.162,8.611,8.955z M8.124,7.023   c-0.22,0-0.398,0.125-0.536,0.375s-0.207,0.54-0.207,0.869c0,0.234,0.047,0.416,0.141,0.547C7.616,8.945,7.738,9.01,7.887,9.01   c0.229,0,0.41-0.123,0.541-0.37C8.56,8.394,8.626,8.065,8.626,7.652c0-0.195-0.046-0.349-0.137-0.461S8.276,7.023,8.124,7.023z"/>
</g>
</svg>