<?xml version="1.0" encoding="iso-8859-1"?><!-- Generator: Adobe Illustrator 19.2.1, SVG Export Plug-In . SVG Version: 6.00 Build 0)  --><svg xmlns="http://www.w3.org/2000/svg" xmlns:xlink="http://www.w3.org/1999/xlink" version="1.1" id="Layer_1" x="0px" y="0px" viewBox="0 0 80 80" style="enable-background:new 0 0 80 80;" xml:space="preserve" width="80" height="80">
<g>
	<path style="fill:#F78F8F;" d="M23.133,58.5V45.929h9.339l1.984,9.923c0.13,0.653-0.037,1.323-0.459,1.838S32.951,58.5,32.285,58.5   H23.133z"/>
	<g>
		<path style="fill:#C74343;" d="M32.062,46.429l1.904,9.521c0.101,0.506-0.028,1.024-0.355,1.423C33.284,57.771,32.8,58,32.285,58    h-8.652V46.429H32.062 M32.881,45.429H22.633V59h9.652c1.713,0,2.997-1.567,2.662-3.247L32.881,45.429L32.881,45.429z"/>
	</g>
</g>
<g>
	<path style="fill:#8BB7F0;" d="M67.5,40.5v-11H73c3.033,0,5.5,2.467,5.5,5.5s-2.467,5.5-5.5,5.5H67.5z"/>
	<path style="fill:#4E7AB5;" d="M73,30c2.757,0,5,2.243,5,5c0,2.757-2.243,5-5,5h-5V30H73 M73,29h-6v12h6c3.314,0,6-2.686,6-6v0   C79,31.686,76.314,29,73,29L73,29z"/>
</g>
<g>
	<path style="fill:#8BB7F0;" d="M25.229,75.5c-2.581,0-4.737-2.03-4.909-4.621c-0.757-11.407-3.187-19.551-7.226-24.236h15.978   c0.054,11.062,1.894,14.383,3.521,17.318c0.651,1.175,1.266,2.285,1.713,3.825c0.735,2.533-0.664,5.175-3.184,6.016l-4.327,1.442   C26.285,75.414,25.757,75.5,25.229,75.5z"/>
	<path style="fill:#4E7AB5;" d="M28.576,47.143c0.107,10.794,1.949,14.118,3.579,17.06c0.637,1.15,1.239,2.235,1.67,3.722   c0.66,2.274-0.597,4.647-2.861,5.401l-4.327,1.442C26.178,74.922,25.704,75,25.229,75c-2.318,0-4.256-1.824-4.41-4.153   c-0.722-10.877-2.965-18.833-6.677-23.704H28.576 M29.571,46.143H11.949c5.523,5.523,7.3,16.158,7.872,24.77   C20.017,73.863,22.469,76,25.229,76c0.568,0,1.148-0.09,1.725-0.283l4.327-1.442c2.756-0.919,4.315-3.839,3.505-6.629   C33.184,62.127,29.571,62.08,29.571,46.143L29.571,46.143z"/>
</g>
<g>
	<path style="fill:#C2E8FF;" d="M69.249,64.5c-7.617-10.023-19.653-16-32.249-16h-7.5v-27H37c12.596,0,24.632-5.977,32.249-16H72.5   v59H69.249z"/>
	<path style="fill:#7496C4;" d="M72,6v58l-2.504,0C61.778,53.972,49.669,48,37,48h-7V22h7c12.669,0,24.778-5.972,32.496-16H72 M73,5   h-4l0,0c-7.554,10.072-19.41,16-32,16h-8v28h8c12.59,0,24.446,5.928,32,16l0,0h4V5L73,5z"/>
</g>
<g>
	<path style="fill:#8BB7F0;" d="M17,48.5C9.556,48.5,3.5,42.444,3.5,35S9.556,21.5,17,21.5h15.5v27H17z"/>
	<path style="fill:#4E7AB5;" d="M32,22v26H17C9.832,48,4,42.168,4,35c0-7.168,5.832-13,13-13H32 M33,21H17C9.268,21,3,27.268,3,35v0   c0,7.732,6.268,14,14,14h16V21L33,21z"/>
</g>
</svg>