<?xml version="1.0" encoding="iso-8859-1"?><!-- Generator: Adobe Illustrator 19.2.1, SVG Export Plug-In . SVG Version: 6.00 Build 0)  --><svg xmlns="http://www.w3.org/2000/svg" xmlns:xlink="http://www.w3.org/1999/xlink" version="1.1" id="Layer_1" x="0px" y="0px" viewBox="0 0 30 30" style="enable-background:new 0 0 30 30;" xml:space="preserve" width="30" height="30">
<g>
	<path style="fill:#F78F8F;" d="M9.944,21.5v-4h2.866l0.681,3.402c0.029,0.147-0.008,0.299-0.104,0.415   C13.291,21.433,13.15,21.5,13,21.5H9.944z"/>
	<g>
		<path style="fill:#C74343;" d="M12.4,18l0.6,3h-2.556v-3H12.4 M13.219,17H9.444v5H13c0.631,0,1.104-0.577,0.981-1.196L13.219,17    L13.219,17z"/>
	</g>
</g>
<g>
	<path style="fill:#8BB7F0;" d="M25.5,14.5v-3H27c0.827,0,1.5,0.673,1.5,1.5s-0.673,1.5-1.5,1.5H25.5z"/>
	<path style="fill:#4E7AB5;" d="M27,12c0.551,0,1,0.449,1,1s-0.449,1-1,1h-1v-2H27 M27,11h-2v4h2c1.105,0,2-0.895,2-2   S28.105,11,27,11L27,11z"/>
</g>
<g>
	<path style="fill:#8BB7F0;" d="M9.4,27.5c-0.785,0-1.441-0.618-1.494-1.407c-0.257-3.88-1.041-6.762-2.332-8.593h4.928   c0.053,3.907,0.732,5.132,1.333,6.218c0.241,0.435,0.449,0.811,0.604,1.344c0.223,0.77-0.203,1.573-0.97,1.829l-1.594,0.531   C9.722,27.474,9.561,27.5,9.4,27.5z"/>
	<path style="fill:#4E7AB5;" d="M10.014,18c0.104,3.647,0.782,4.87,1.386,5.96c0.226,0.409,0.422,0.762,0.561,1.241   c0.148,0.511-0.136,1.044-0.647,1.215L9.72,26.947C9.614,26.982,9.507,27,9.4,27c-0.458,0-0.956-0.352-0.995-0.94   c-0.23-3.459-0.877-6.158-1.931-8.06H10.014 M11,17H4.508c2.035,2.035,2.69,5.953,2.9,9.126C7.48,27.213,8.383,28,9.4,28   c0.209,0,0.423-0.033,0.636-0.104l1.594-0.531c1.015-0.338,1.59-1.414,1.291-2.442C12.331,22.889,11,22.872,11,17L11,17z"/>
</g>
<g>
	<path style="fill:#C2E8FF;" d="M25.265,23.5c-2.613-3.762-6.883-6-11.476-6H10.5v-9h3.289c4.593,0,8.862-2.238,11.476-6H26.5v21   H25.265z"/>
	<path style="fill:#7496C4;" d="M26,3v20l-0.477,0c-2.718-3.767-7.065-6-11.734-6H11V9h2.789c4.669,0,9.016-2.233,11.734-6H26 M27,2   h-2l0,0c-2.499,3.748-6.706,6-11.211,6H10v10h3.789c4.505,0,8.712,2.252,11.211,6l0,0h2V2L27,2z"/>
</g>
<g>
	<path style="fill:#8BB7F0;" d="M6,17.5c-2.481,0-4.5-2.019-4.5-4.5S3.519,8.5,6,8.5h5.5v9H6z"/>
	<path style="fill:#4E7AB5;" d="M11,9v8H6c-2.206,0-4-1.794-4-4s1.794-4,4-4H11 M12,8H6c-2.761,0-5,2.239-5,5s2.239,5,5,5h6V8L12,8z   "/>
</g>
</svg>