<?xml version="1.0" encoding="iso-8859-1"?><!-- Generator: Adobe Illustrator 19.2.1, SVG Export Plug-In . SVG Version: 6.00 Build 0)  --><svg xmlns="http://www.w3.org/2000/svg" xmlns:xlink="http://www.w3.org/1999/xlink" version="1.1" id="Layer_1" x="0px" y="0px" viewBox="0 0 16 16" style="enable-background:new 0 0 16 16;" xml:space="preserve" width="16" height="16">
<g>
	<rect x="5" y="9" style="fill:#C74343;" width="2" height="3"/>
</g>
<g>
	<path style="fill:#8BB7F0;" d="M4.709,15.5c-0.404,0-0.742-0.319-0.769-0.726c-0.154-2.309-0.6-4.077-1.33-5.274h2.622   c0.052,2.391,0.484,3.17,0.868,3.863c0.148,0.268,0.276,0.498,0.369,0.818c0.115,0.396-0.105,0.809-0.5,0.94l-1.014,0.338   C4.875,15.486,4.792,15.5,4.709,15.5z"/>
	<path style="fill:#4E7AB5;" d="M4.75,10c0.105,2.146,0.548,2.946,0.913,3.605c0.139,0.251,0.249,0.449,0.326,0.715   c0.04,0.137-0.038,0.28-0.178,0.327l-1.014,0.338C4.768,14.995,4.738,15,4.709,15c-0.124,0-0.259-0.097-0.27-0.259   C4.308,12.769,3.979,11.199,3.441,10H4.75 M5.727,9H1.596c1.295,1.295,1.712,3.788,1.846,5.807C3.487,15.499,4.062,16,4.709,16   c0.133,0,0.269-0.021,0.404-0.066l1.014-0.338c0.646-0.215,1.012-0.9,0.822-1.554C6.574,12.747,5.727,12.737,5.727,9L5.727,9z"/>
</g>
<g>
	<path style="fill:#4E7AB5;" d="M14,9h-2V5h2c1.105,0,2,0.895,2,2v0C16,8.105,15.105,9,14,9z"/>
</g>
<g>
	<path style="fill:#C2E8FF;" d="M13.262,12.5c-1.359-1.883-3.533-3-5.867-3H5.5v-5h1.895c2.334,0,4.508-1.117,5.867-3H14.5v11   H13.262z"/>
	<path style="fill:#7496C4;" d="M14,2v10h-0.488c-1.46-1.888-3.709-3-6.118-3H6V5h1.394c2.409,0,4.657-1.112,6.118-3H14 M15,1h-2   c-1.249,1.874-3.353,3-5.606,3H5v6h2.394c2.253,0,4.356,1.126,5.606,3h2V1L15,1z"/>
</g>
<g>
	<path style="fill:#8BB7F0;" d="M3,9.5C1.622,9.5,0.5,8.378,0.5,7S1.622,4.5,3,4.5h2.5v5H3z"/>
	<path style="fill:#4E7AB5;" d="M5,5v4H3C1.897,9,1,8.103,1,7s0.897-2,2-2H5 M6,4H3C1.343,4,0,5.343,0,7s1.343,3,3,3h3V4L6,4z"/>
</g>
</svg>