<?xml version="1.0" encoding="iso-8859-1"?><!-- Generator: Adobe Illustrator 19.2.1, SVG Export Plug-In . SVG Version: 6.00 Build 0)  --><svg xmlns="http://www.w3.org/2000/svg" xmlns:xlink="http://www.w3.org/1999/xlink" version="1.1" id="Layer_1" x="0px" y="0px" viewBox="0 0 30 30" style="enable-background:new 0 0 30 30;" xml:space="preserve" width="30" height="30">
<g>
	<circle style="fill:#E8D47B;" cx="15" cy="26" r="2.5"/>
	<path style="fill:#BA9B48;" d="M15,24c1.103,0,2,0.897,2,2s-0.897,2-2,2s-2-0.897-2-2S13.897,24,15,24 M15,23c-1.657,0-3,1.343-3,3   s1.343,3,3,3s3-1.343,3-3S16.657,23,15,23L15,23z"/>
</g>
<g>
	<path style="fill:#FFEEA3;" d="M4.5,25.5v-2.036c1.694-0.243,3-1.704,3-3.464v-9c0-3.417,2.313-6.4,5.625-7.253L13.5,3.649V3   c0-0.827,0.673-1.5,1.5-1.5s1.5,0.673,1.5,1.5v0.649l0.375,0.097C20.187,4.6,22.5,7.583,22.5,11v9c0,1.76,1.306,3.221,3,3.464V25.5   H4.5z"/>
	<path style="fill:#BA9B48;" d="M15,2c0.551,0,1,0.449,1,1v0.262v0.775l0.75,0.193C19.841,5.028,22,7.811,22,11v9   c0,1.86,1.277,3.428,3,3.873V25H5v-1.127C6.723,23.428,8,21.86,8,20v-9c0-3.189,2.159-5.972,5.25-6.769L14,4.037V3.262V3   C14,2.449,14.449,2,15,2 M15,1c-1.105,0-2,0.895-2,2c0,0.052,0,0.151,0,0.262C9.551,4.152,7,7.274,7,11v9c0,1.657-1.343,3-3,3v3h22   v-3c-1.657,0-3-1.343-3-3v-9c0-3.726-2.551-6.848-6-7.738c0-0.112,0-0.21,0-0.262C17,1.895,16.105,1,15,1L15,1z"/>
</g>
</svg>