<?xml version="1.0" encoding="iso-8859-1"?><!-- Generator: Adobe Illustrator 19.2.1, SVG Export Plug-In . SVG Version: 6.00 Build 0)  --><svg xmlns="http://www.w3.org/2000/svg" xmlns:xlink="http://www.w3.org/1999/xlink" version="1.1" id="Layer_1" x="0px" y="0px" viewBox="0 0 16 16" style="enable-background:new 0 0 16 16;" xml:space="preserve" width="16" height="16">
<g>
	<circle style="fill:#E8D47B;" cx="8" cy="14" r="1.5"/>
	<path style="fill:#BA9B48;" d="M8,13c0.551,0,1,0.449,1,1s-0.449,1-1,1s-1-0.449-1-1S7.449,13,8,13 M8,12c-1.105,0-2,0.895-2,2   s0.895,2,2,2s2-0.895,2-2S9.105,12,8,12L8,12z"/>
</g>
<g>
	<path style="fill:#FFEEA3;" d="M1.5,13.5v-1.05c1.14-0.232,2-1.242,2-2.45V6c0-2.144,1.526-3.999,3.628-4.412l0.404-0.08V0.984   C7.532,0.717,7.75,0.5,8.016,0.5S8.5,0.717,8.5,0.984v0.525l0.4,0.082C10.986,2.014,12.5,3.869,12.5,6v4c0,1.208,0.86,2.217,2,2.45   v1.05H1.5z"/>
	<g>
		<path style="fill:#BA9B48;" d="M8.021,1.922l0.78,0.158C10.655,2.457,12,4.105,12,6v4c0,1.304,0.836,2.416,2,2.829V13H2v-0.171    C3.164,12.416,4,11.304,4,10V6c0-1.905,1.356-3.554,3.225-3.921L8.021,1.922 M8.016,0C7.473,0,7.032,0.44,7.032,0.984v0.114    C4.735,1.549,3,3.57,3,6v4c0,1.105-0.895,2-2,2v2h14v-2c-1.105,0-2-0.895-2-2V6c0-2.419-1.718-4.436-4-4.899V0.984    C9,0.44,8.56,0,8.016,0L8.016,0z"/>
	</g>
</g>
</svg>