<?xml version="1.0" encoding="iso-8859-1"?><!-- Generator: Adobe Illustrator 19.2.1, SVG Export Plug-In . SVG Version: 6.00 Build 0)  --><svg xmlns="http://www.w3.org/2000/svg" xmlns:xlink="http://www.w3.org/1999/xlink" version="1.1" id="Layer_1" x="0px" y="0px" viewBox="0 0 80 80" style="enable-background:new 0 0 80 80;" xml:space="preserve" width="80" height="80">
<g>
	<circle style="fill:#E8D47B;" cx="40" cy="70" r="7.5"/>
	<path style="fill:#BA9B48;" d="M40,63c3.86,0,7,3.14,7,7s-3.14,7-7,7s-7-3.14-7-7S36.14,63,40,63 M40,62c-4.418,0-8,3.582-8,8   s3.582,8,8,8s8-3.582,8-8S44.418,62,40,62L40,62z"/>
</g>
<g>
	<path style="fill:#FFEEA3;" d="M10.5,69.5v-7.015c4.455-0.26,8-3.966,8-8.485V30c0-9.562,6.43-18.062,15.636-20.669L34.5,9.228V8   c0-3.033,2.467-5.5,5.5-5.5s5.5,2.467,5.5,5.5v1.228l0.364,0.103C55.07,11.938,61.5,20.438,61.5,30v24c0,4.519,3.545,8.226,8,8.485   V69.5H10.5z"/>
	<path style="fill:#BA9B48;" d="M40,3c2.757,0,5,2.243,5,5v0.85v0.756l0.727,0.206C54.72,12.359,61,20.661,61,30v24   c0,4.625,3.506,8.446,8,8.945V69H11v-6.055c4.494-0.499,8-4.32,8-8.945V30c0-9.339,6.28-17.641,15.273-20.188L35,9.606V8.85V8   C35,5.243,37.243,3,40,3 M40,2c-3.314,0-6,2.686-6,6c0,0.199,0,0.506,0,0.85C24.77,11.464,18,19.933,18,30v24c0,4.418-3.582,8-8,8   v8h60v-8c-4.418,0-8-3.582-8-8V30c0-10.067-6.77-18.536-16-21.15c0-0.344,0-0.651,0-0.85C46,4.686,43.314,2,40,2L40,2z"/>
</g>
</svg>