<?xml version="1.0" encoding="iso-8859-1"?><!-- Generator: Adobe Illustrator 19.2.1, SVG Export Plug-In . SVG Version: 6.00 Build 0)  --><svg xmlns="http://www.w3.org/2000/svg" xmlns:xlink="http://www.w3.org/1999/xlink" version="1.1" id="Layer_1" x="0px" y="0px" viewBox="0 0 40 40" style="enable-background:new 0 0 40 40;" xml:space="preserve" width="40" height="40">
<g>
	<path style="fill:#FFEEA3;" d="M20,38.5c-5.519,0-10.385-6.875-12.761-13.688l-0.107-0.309l-0.325-0.025   C5.513,24.377,4.5,23.289,4.5,22c0-0.845,0.425-1.626,1.137-2.091l0.271-0.177l-0.05-0.32c-0.19-1.2-0.286-2.336-0.286-3.376   c0-7.976,6.489-14.464,14.465-14.464S34.5,8.06,34.5,16.036c0,1.058-0.099,2.207-0.293,3.417l-0.05,0.312l0.26,0.179   C35.095,20.412,35.5,21.181,35.5,22c0,1.279-0.967,2.342-2.249,2.472l-0.316,0.032l-0.104,0.3C30.443,31.622,25.551,38.5,20,38.5z"/>
	<path style="fill:#BA9B48;" d="M20.036,2.071C27.736,2.071,34,8.336,34,16.036c0,1.03-0.096,2.153-0.286,3.339l-0.1,0.622   l0.519,0.358C34.676,20.73,35,21.345,35,22c0,1.022-0.773,1.871-1.799,1.975l-0.633,0.064l-0.21,0.6C30.029,31.29,25.305,38,20,38   c-5.273,0-9.971-6.706-12.288-13.353L7.497,24.03L6.845,23.98C5.811,23.899,5,23.029,5,22c0-0.675,0.34-1.3,0.911-1.673   l0.542-0.354l-0.101-0.639c-0.186-1.174-0.28-2.284-0.28-3.298C6.071,8.336,12.336,2.071,20.036,2.071 M20.036,1.071   c-8.265,0-14.964,6.7-14.964,14.964c0,1.086,0.102,2.249,0.292,3.454C4.544,20.026,4,20.948,4,22c0,1.577,1.221,2.856,2.767,2.977   C9.266,32.142,14.266,39,20,39c5.744,0,10.787-6.847,13.302-14.03C34.815,24.816,36,23.554,36,22c0-1.024-0.515-1.926-1.298-2.468   C34.896,18.315,35,17.137,35,16.036C35,7.771,28.3,1.071,20.036,1.071L20.036,1.071z"/>
</g>
<polyline style="fill:none;stroke:#5E9C76;stroke-width:3;stroke-miterlimit:10;" points="13.214,20.887 18.225,25.898 29.5,14.624   "/>
</svg>