<?xml version="1.0" encoding="iso-8859-1"?><!-- Generator: Adobe Illustrator 19.2.1, SVG Export Plug-In . SVG Version: 6.00 Build 0)  --><svg xmlns="http://www.w3.org/2000/svg" xmlns:xlink="http://www.w3.org/1999/xlink" version="1.1" id="Layer_1" x="0px" y="0px" viewBox="0 0 16 16" style="enable-background:new 0 0 16 16;" xml:space="preserve" width="16" height="16">
<g>
	<g>
		<path style="fill:#E8D47B;" d="M12.9,10.7c-0.883,0-1.601-0.718-1.601-1.6s0.718-1.6,1.601-1.6c1.478,0,1.6,0.426,1.6,0.9    C14.5,9.362,13.694,10.7,12.9,10.7z M3.1,10.7c-0.794,0-1.6-1.338-1.6-2.3c0-0.474,0.122-0.9,1.6-0.9C3.982,7.5,4.7,8.218,4.7,9.1    S3.982,10.7,3.1,10.7z"/>
	</g>
	<g>
		<path style="fill:#BA9B48;" d="M12.9,8C14,8,14,8.194,14,8.4c0,0.794-0.682,1.8-1.1,1.8c-0.607,0-1.1-0.493-1.1-1.1    C11.8,8.493,12.293,8,12.9,8 M3.1,8c0.607,0,1.1,0.493,1.1,1.1c0,0.607-0.493,1.1-1.1,1.1C2.682,10.2,2,9.194,2,8.4    C2,8.194,2,8,3.1,8 M12.9,7c-1.16,0-2.1,0.94-2.1,2.1s0.94,2.1,2.1,2.1c1.16,0,2.1-1.64,2.1-2.8S14.06,7,12.9,7L12.9,7z M3.1,7    C1.94,7,1,7.24,1,8.4s0.94,2.8,2.1,2.8c1.16,0,2.1-0.94,2.1-2.1S4.26,7,3.1,7L3.1,7z"/>
	</g>
</g>
<g>
	<g>
		<path style="fill:#FFEEA3;" d="M8,15.5c-0.657,0-1.28-0.298-1.711-0.818l-0.078-0.095l-0.114-0.047    c-1.67-0.696-2.83-2.238-3.027-4.024L2.624,6.507c-0.17-1.527,0.32-3.06,1.345-4.205C4.993,1.157,6.463,0.5,8,0.5    s3.007,0.657,4.031,1.802c1.024,1.145,1.515,2.677,1.345,4.205l-0.445,4.008c-0.197,1.786-1.357,3.328-3.027,4.024l-0.114,0.047    l-0.078,0.095C9.28,15.202,8.657,15.5,8,15.5z"/>
	</g>
	<g>
		<path style="fill:#BA9B48;" d="M8,1c1.395,0,2.728,0.596,3.658,1.635c0.93,1.039,1.375,2.43,1.221,3.816l-0.445,4.008    c-0.178,1.605-1.222,2.991-2.724,3.618l-0.228,0.095l-0.158,0.191C8.99,14.768,8.507,15,8,15s-0.99-0.232-1.325-0.637    l-0.158-0.191L6.29,14.078c-1.502-0.626-2.545-2.012-2.724-3.618L3.12,6.452C2.966,5.066,3.412,3.675,4.342,2.635    C5.272,1.596,6.605,1,8,1 M8,0C4.478,0,1.738,3.062,2.127,6.562l0.445,4.008C2.797,12.599,4.12,14.256,5.905,15    C6.405,15.606,7.153,16,8,16s1.595-0.394,2.095-1c1.785-0.744,3.107-2.402,3.333-4.43l0.445-4.008C14.262,3.062,11.522,0,8,0L8,0z    "/>
	</g>
</g>
<polyline style="fill:none;stroke:#5E9C76;stroke-miterlimit:10;" points="5.143,8.374 7.253,10.484 11,6.736 "/>
</svg>