<?xml version="1.0" encoding="iso-8859-1"?><!-- Generator: Adobe Illustrator 19.2.1, SVG Export Plug-In . SVG Version: 6.00 Build 0)  --><svg xmlns="http://www.w3.org/2000/svg" xmlns:xlink="http://www.w3.org/1999/xlink" version="1.1" id="Layer_1" x="0px" y="0px" viewBox="0 0 30 30" style="enable-background:new 0 0 30 30;" xml:space="preserve" width="30" height="30">
<g>
	<polygon style="fill:#BAE0BD;" points="11.885,26.625 8.289,26.625 6.49,23.509 3.376,21.711 3.376,18.115 1.577,15 3.376,11.885    3.376,8.289 6.49,6.491 8.289,3.375 11.885,3.375 15,1.577 18.115,3.375 21.711,3.375 23.51,6.491 26.624,8.289 26.624,11.885    28.423,15 26.624,18.115 26.624,21.711 23.51,23.509 21.711,26.625 18.115,26.625 15,28.423  "/>
	<g>
		<path style="fill:#5E9C76;" d="M15,2.155l2.749,1.587l0.232,0.134h0.268h3.174l1.587,2.749l0.134,0.232l0.232,0.134l2.749,1.587    v3.174v0.268l0.134,0.232L27.845,15l-1.587,2.749l-0.134,0.232v0.268v3.174l-2.749,1.587l-0.232,0.134l-0.134,0.232l-1.587,2.749    h-3.174h-0.268l-0.232,0.134L15,27.845l-2.749-1.587l-0.232-0.134h-0.268H8.577L6.99,23.376l-0.134-0.232L6.624,23.01    l-2.749-1.587v-3.174v-0.268l-0.134-0.232L2.155,15l1.587-2.749l0.134-0.232v-0.268V8.577L6.624,6.99l0.232-0.134L6.99,6.624    l1.587-2.749h3.174h0.268l0.232-0.134L15,2.155 M15,1l-3.249,1.876H8L6.124,6.124L2.876,8v3.751L1,15l1.876,3.249V22l3.249,1.876    L8,27.124h3.751L15,29l3.249-1.876H22l1.876-3.249L27.124,22v-3.751L29,15l-1.876-3.249V8l-3.249-1.876L22,2.876h-3.751L15,1L15,1    z"/>
	</g>
</g>
<polyline style="fill:none;stroke:#FFFFFF;stroke-width:2;stroke-miterlimit:10;" points="8.5,15.038 12.808,19.346 22.5,9.654 "/>
</svg>