<?xml version="1.0" encoding="iso-8859-1"?><!-- Generator: Adobe Illustrator 19.2.1, SVG Export Plug-In . SVG Version: 6.00 Build 0)  --><svg xmlns="http://www.w3.org/2000/svg" xmlns:xlink="http://www.w3.org/1999/xlink" version="1.1" id="Layer_1" x="0px" y="0px" viewBox="0 0 80 80" style="enable-background:new 0 0 80 80;" xml:space="preserve" width="80" height="80">
<g>
	<g>
		<path style="fill:#FFEEA3;" d="M40,77.5c-7.276,0-17.71-6.752-25.17-25.702l-0.132-0.335l-0.485,0.027    C14.142,51.495,14.071,51.5,14,51.5c-3.584,0-6.5-2.916-6.5-6.5c0-2.371,1.293-4.555,3.375-5.699l0.312-0.171l-0.06-0.351    C10.711,36.332,10.5,34.05,10.5,32C10.5,15.734,23.733,2.5,40,2.5S69.5,15.734,69.5,32c0,2.05-0.211,4.332-0.627,6.78l-0.06,0.351    l0.312,0.171C71.207,40.445,72.5,42.629,72.5,45c0,3.584-2.916,6.5-6.5,6.5c-0.071,0-0.142-0.005-0.213-0.01l-0.485-0.027    l-0.132,0.335C57.71,70.748,47.276,77.5,40,77.5z"/>
	</g>
	<g>
		<path style="fill:#BA9B48;" d="M40,3c15.991,0,29,13.009,29,29c0,2.021-0.208,4.274-0.619,6.696l-0.119,0.701l0.623,0.343    C70.806,40.796,72,42.812,72,45c0,3.308-2.692,6-6,6c-0.06,0-0.12-0.005-0.179-0.009l-0.134-0.008l-0.719-0.037l-0.264,0.67    C60.095,63.325,50.859,77,40,77S19.905,63.325,15.296,51.615l-0.264-0.67l-0.719,0.037l-0.134,0.008C14.12,50.995,14.06,51,14,51    c-3.308,0-6-2.692-6-6c0-2.188,1.194-4.204,3.115-5.261l0.623-0.343l-0.119-0.701C11.208,36.274,11,34.021,11,32    C11,16.009,24.009,3,40,3 M40,2C23.431,2,10,15.431,10,32c0,2.108,0.22,4.426,0.633,6.863C8.468,40.053,7,42.355,7,45    c0,3.866,3.134,7,7,7c0.123,0,0.243-0.012,0.365-0.018C19.631,65.359,29.141,78,40,78s20.369-12.641,25.635-26.018    C65.757,51.988,65.877,52,66,52c3.866,0,7-3.134,7-7c0-2.645-1.468-4.947-3.633-6.137C69.78,36.426,70,34.108,70,32    C70,15.431,56.569,2,40,2L40,2z"/>
	</g>
</g>
<polyline style="fill:none;stroke:#5E9C76;stroke-width:6;stroke-miterlimit:10;" points="26.429,41.703 36.451,51.725 59,29.176   "/>
</svg>