<?xml version="1.0" encoding="iso-8859-1"?><!-- Generator: Adobe Illustrator 19.2.1, SVG Export Plug-In . SVG Version: 6.00 Build 0)  --><svg xmlns="http://www.w3.org/2000/svg" xmlns:xlink="http://www.w3.org/1999/xlink" version="1.1" id="Layer_1" x="0px" y="0px" viewBox="0 0 80 80" style="enable-background:new 0 0 80 80;" xml:space="preserve" width="80" height="80">
<g>
	<polygon style="fill:#BAE0BD;" points="31.084,73.275 20.789,73.275 15.642,64.359 6.725,59.211 6.725,48.916 1.577,40    6.725,31.084 6.725,20.789 15.642,15.641 20.789,6.725 31.084,6.725 40,1.577 48.916,6.725 59.211,6.725 64.358,15.641    73.275,20.789 73.275,31.084 78.423,40 73.275,48.916 73.275,59.211 64.358,64.359 59.211,73.275 48.916,73.275 40,78.423  "/>
	<g>
		<path style="fill:#5E9C76;" d="M40,2.155l8.55,4.936l0.232,0.134h0.268h9.873l4.936,8.55l0.134,0.232l0.232,0.134l8.55,4.936    v9.873v0.268l0.134,0.232L77.845,40l-4.936,8.55l-0.134,0.232v0.268v9.873l-8.55,4.936l-0.232,0.134l-0.134,0.232l-4.936,8.55    H49.05h-0.268l-0.232,0.134L40,77.845l-8.55-4.936l-0.232-0.134H30.95h-9.873l-4.936-8.55l-0.134-0.232l-0.232-0.134l-8.55-4.936    V49.05v-0.268L7.091,48.55L2.155,40l4.936-8.55l0.134-0.232V30.95v-9.873l8.55-4.936l0.232-0.134l0.134-0.232l4.936-8.55h9.873    h0.268l0.232-0.134L40,2.155 M40,1l-9.05,5.225H20.5l-5.225,9.05L6.225,20.5v10.45L1,40l5.225,9.05V59.5l9.05,5.225l5.225,9.05    h10.45L40,79l9.05-5.225H59.5l5.225-9.05l9.05-5.225V49.05L79,40l-5.225-9.05V20.5l-9.05-5.225L59.5,6.225H49.05L40,1L40,1z"/>
	</g>
</g>
<polyline style="fill:none;stroke:#FFFFFF;stroke-width:6;stroke-miterlimit:10;" points="22.357,40.104 34.049,51.797   60.357,25.489 "/>
</svg>