<?xml version="1.0" encoding="iso-8859-1"?><!-- Generator: Adobe Illustrator 19.2.1, SVG Export Plug-In . SVG Version: 6.00 Build 0)  --><svg xmlns="http://www.w3.org/2000/svg" xmlns:xlink="http://www.w3.org/1999/xlink" version="1.1" id="Layer_1" x="0px" y="0px" viewBox="0 0 16 16" style="enable-background:new 0 0 16 16;" xml:space="preserve" width="16" height="16">
<g>
	<polygon style="fill:#BAE0BD;" points="6.277,14.428 4.289,14.428 3.294,12.706 1.572,11.711 1.572,9.723 0.577,8 1.572,6.277    1.572,4.289 3.294,3.294 4.289,1.572 6.277,1.572 8,0.577 9.723,1.572 11.711,1.572 12.706,3.294 14.428,4.289 14.428,6.277    15.423,8 14.428,9.723 14.428,11.711 12.706,12.706 11.711,14.428 9.723,14.428 8,15.423  "/>
	<g>
		<path style="fill:#5E9C76;" d="M8,1.155l1.356,0.783l0.232,0.134h0.268h1.566l0.783,1.356L12.34,3.66l0.232,0.134l1.356,0.783    v1.566v0.268l0.134,0.232L14.845,8l-0.783,1.356l-0.134,0.232v0.268v1.566l-1.356,0.783L12.34,12.34l-0.134,0.232l-0.783,1.356    H9.856H9.588l-0.232,0.134L8,14.845l-1.356-0.783l-0.232-0.134H6.144H4.577l-0.783-1.356L3.66,12.34l-0.232-0.134l-1.356-0.783    V9.856V9.588L1.938,9.356L1.155,8l0.783-1.356l0.134-0.232V6.144V4.577l1.356-0.783L3.66,3.66l0.134-0.232l0.783-1.356h1.566    h0.268l0.232-0.134L8,1.155 M8,0L6.144,1.072H4L2.928,2.928L1.072,4v2.144L0,8l1.072,1.856V12l1.856,1.072L4,14.928h2.144L8,16    l1.856-1.072H12l1.072-1.856L14.928,12V9.856L16,8l-1.072-1.856V4l-1.856-1.072L12,1.072H9.856L8,0L8,0z"/>
	</g>
</g>
<polyline style="fill:none;stroke:#5E9C76;stroke-miterlimit:10;" points="4.286,8.022 6.747,10.484 12.286,4.945 "/>
</svg>