<?xml version="1.0" encoding="iso-8859-1"?><!-- Generator: Adobe Illustrator 19.2.1, SVG Export Plug-In . SVG Version: 6.00 Build 0)  --><svg xmlns="http://www.w3.org/2000/svg" xmlns:xlink="http://www.w3.org/1999/xlink" version="1.1" id="Layer_1" x="0px" y="0px" viewBox="0 0 30 30" style="enable-background:new 0 0 30 30;" xml:space="preserve" width="30" height="30">
<g>
	<path style="fill:#FFEEA3;" d="M15,28.5c-4.565,0-7.843-5.212-9.262-9.676l-0.1-0.314L5.31,18.478c-1.031-0.1-1.81-0.95-1.81-1.979   c0-0.702,0.364-1.34,0.976-1.707l0.282-0.17l-0.045-0.327C4.573,13.283,4.5,11.871,4.5,11c0-6.921,6.44-9.5,10.5-9.5   c3.661,0,10.5,2.787,10.5,9.5c0,0.871-0.073,2.283-0.213,3.295l-0.045,0.327l0.282,0.17c0.61,0.368,0.976,1.006,0.976,1.708   c0,1.028-0.777,1.878-1.809,1.979l-0.329,0.032l-0.1,0.314C22.844,23.288,19.566,28.5,15,28.5z"/>
	<path style="fill:#BA9B48;" d="M15,2c3.487,0,10,2.64,10,9c0,0.854-0.072,2.236-0.208,3.227l-0.09,0.653l0.565,0.34   C25.726,15.497,26,15.975,26,16.5c0,0.769-0.583,1.406-1.357,1.481l-0.657,0.063l-0.2,0.629C22.418,22.975,19.297,28,15,28   c-4.296,0-7.417-5.025-8.786-9.328l-0.2-0.629L5.357,17.98C4.583,17.906,4,17.269,4,16.5c0-0.525,0.274-1.003,0.733-1.279   l0.565-0.34l-0.09-0.654C5.072,13.236,5,11.853,5,11C5,4.443,11.134,2,15,2 M15,1C10.716,1,4,3.755,4,11   c0,0.859,0.071,2.304,0.218,3.364C3.491,14.801,3,15.59,3,16.5c0,1.299,0.994,2.354,2.261,2.476C6.734,23.607,10.134,29,15,29   s8.267-5.392,9.739-10.025C26.006,18.853,27,17.798,27,16.5c0-0.91-0.491-1.698-1.218-2.136C25.929,13.304,26,11.859,26,11   C26,4.254,19.284,1,15,1L15,1z"/>
</g>
<polyline style="fill:none;stroke:#5E9C76;stroke-width:2;stroke-miterlimit:10;" points="10,15.654 13.692,19.346 22,11.038 "/>
</svg>