<?xml version="1.0" encoding="iso-8859-1"?><!-- Generator: Adobe Illustrator 19.2.1, SVG Export Plug-In . SVG Version: 6.00 Build 0)  --><svg xmlns="http://www.w3.org/2000/svg" xmlns:xlink="http://www.w3.org/1999/xlink" version="1.1" id="Layer_1" x="0px" y="0px" viewBox="0 0 16 16" style="enable-background:new 0 0 16 16;" xml:space="preserve" width="16" height="16">
<g>
	<polygon style="fill:#8BB7F0;" points="1.5,10.731 1.5,7.175 5.159,2.602 10.045,4.556 14.5,1.883 14.5,10.731  "/>
	<g>
		<path style="fill:#4E7AB5;" d="M14,2.766v7.465H2v-2.88l3.317-4.147l4.311,1.724l0.461,0.184l0.425-0.255L14,2.766 M15,1l-5,3L5,2    L1,7v4.231h14V1L15,1z"/>
	</g>
</g>
<g>
	<polygon style="fill:#BAE0BD;" points="1.5,14.5 1.5,10.283 6.045,7.556 11.022,9.548 14.5,7.809 14.5,14.5  "/>
	<path style="fill:#5E9C76;" d="M6.089,8.113l4.539,1.816l0.417,0.167l0.402-0.201L14,8.618V14H2v-3.434L6.089,8.113 M15,7l-4,2L6,7   l-5,3v5h14V7L15,7z"/>
</g>
</svg>