<?xml version="1.0" encoding="iso-8859-1"?><!-- Generator: Adobe Illustrator 19.2.1, SVG Export Plug-In . SVG Version: 6.00 Build 0)  --><svg xmlns="http://www.w3.org/2000/svg" xmlns:xlink="http://www.w3.org/1999/xlink" version="1.1" id="Layer_1" x="0px" y="0px" viewBox="0 0 80 80" style="enable-background:new 0 0 80 80;" xml:space="preserve" width="80" height="80">
<g>
	<polygon style="fill:#8BB7F0;" points="4.5,56.115 4.5,37.408 26.181,10.572 54.079,18.542 75.5,4.911 75.5,56.115  "/>
	<g>
		<path style="fill:#4E7AB5;" d="M75,5.822v49.794H5V37.584l21.362-26.441l27.363,7.818l0.432,0.124l0.379-0.241L75,5.822 M76,4    L54,18l-28-8L4,37.231v19.385h72V4L76,4z"/>
	</g>
</g>
<g>
	<polygon style="fill:#BAE0BD;" points="4.5,75.5 4.5,51.341 26.089,36.545 54.035,44.53 75.5,35.223 75.5,75.5  "/>
	<path style="fill:#5E9C76;" d="M75,35.985V75H5V51.604l21.177-14.513l27.548,7.871l0.344,0.098l0.328-0.142L75,35.985 M76,34.462   L54,44l-28-8L4,51.077V76h72V34.462L76,34.462z"/>
</g>
</svg>