<?xml version="1.0" encoding="iso-8859-1"?><!-- Generator: Adobe Illustrator 19.2.1, SVG Export Plug-In . SVG Version: 6.00 Build 0)  --><svg xmlns="http://www.w3.org/2000/svg" xmlns:xlink="http://www.w3.org/1999/xlink" version="1.1" id="Layer_1" x="0px" y="0px" viewBox="0 0 30 30" style="enable-background:new 0 0 30 30;" xml:space="preserve" width="30" height="30">
<g>
	<polygon style="fill:#8BB7F0;" points="2.5,20.5 2.5,14.175 10.18,4.576 20.073,7.544 27.5,2.902 27.5,20.5  "/>
	<g>
		<path style="fill:#4E7AB5;" d="M27,3.804V20H3v-5.649l7.359-9.199l9.353,2.806l0.434,0.13l0.384-0.24L27,3.804 M28,2l-8,5L10,4    L2,14v7h26V2L28,2z"/>
	</g>
</g>
<g>
	<polygon style="fill:#BAE0BD;" points="2.5,27.5 2.5,19.277 10.097,14.529 20.042,16.518 27.5,13.722 27.5,27.5  "/>
	<path style="fill:#5E9C76;" d="M27,14.443V27H3v-7.446l7.193-4.496l9.611,1.922l0.28,0.056l0.267-0.1L27,14.443 M28,13l-8,3l-10-2   l-8,5v9h26V13L28,13z"/>
</g>
</svg>