<?xml version="1.0" encoding="iso-8859-1"?><!-- Generator: Adobe Illustrator 19.2.1, SVG Export Plug-In . SVG Version: 6.00 Build 0)  --><svg xmlns="http://www.w3.org/2000/svg" xmlns:xlink="http://www.w3.org/1999/xlink" version="1.1" id="Layer_1" x="0px" y="0px" viewBox="0 0 16 16" style="enable-background:new 0 0 16 16;" xml:space="preserve" width="16" height="16">
<g>
	<circle style="fill:#FFEEA3;" cx="7.5" cy="7.5" r="7"/>
	<g>
		<path style="fill:#BA9B48;" d="M7.5,1C11.084,1,14,3.916,14,7.5S11.084,14,7.5,14S1,11.084,1,7.5S3.916,1,7.5,1 M7.5,0    C3.358,0,0,3.358,0,7.5S3.358,15,7.5,15S15,11.642,15,7.5S11.642,0,7.5,0L7.5,0z"/>
	</g>
</g>
<circle style="fill:#36404D;" cx="7.5" cy="4.5" r="0.67"/>
<polygon style="fill:#36404D;" points="8,10 8,6 6.329,6 6.329,7 7,7 7,10 6,10 6,11 9,11 9,10 "/>
</svg>