<?xml version="1.0" encoding="iso-8859-1"?><!-- Generator: Adobe Illustrator 19.2.1, SVG Export Plug-In . SVG Version: 6.00 Build 0)  --><svg xmlns="http://www.w3.org/2000/svg" xmlns:xlink="http://www.w3.org/1999/xlink" version="1.1" id="Layer_1" x="0px" y="0px" viewBox="0 0 16 16" style="enable-background:new 0 0 16 16;" xml:space="preserve" width="16" height="16">
<path style="fill:none;stroke:#967A44;stroke-linecap:round;stroke-miterlimit:10;" d="M8,12.224C8,14.006,8.5,15.5,8.5,15.5"/>
<g>
	<g>
		<polygon style="fill:#F5CE85;" points="8,12.473 5.626,13.264 6.044,10.694 2.495,11.377 2.646,10.252 0.894,8.71 2.992,7.685     3.143,6.56 5.723,7.83 4.641,3.5 6.268,3.5 8,0.901 9.732,3.5 11.359,3.5 10.277,7.83 12.857,6.56 13.008,7.685 15.106,8.71     13.354,10.252 13.505,11.377 9.956,10.694 10.374,13.264   "/>
	</g>
	<g>
		<path style="fill:#967A44;" d="M8,1.803l1.168,1.752L9.465,4H10h0.719l-0.666,2.663L9.53,8.756l1.935-0.953l0.989-0.487    l0.023,0.171l0.071,0.53l0.481,0.235l1.184,0.578L13.224,9.7l-0.402,0.354l0.071,0.53l0.023,0.171l-2.163-0.417l-1.406-0.271    l0.23,1.413l0.17,1.048l-1.431-0.477L8,11.946l-0.316,0.105l-1.431,0.477l0.17-1.048l0.23-1.413l-1.406,0.271l-2.163,0.417    l0.023-0.171l0.071-0.53L2.776,9.7L1.787,8.83l1.184-0.578l0.481-0.235l0.071-0.53l0.023-0.171l0.989,0.487L6.47,8.756    L5.947,6.663L5.281,4H6h0.535l0.297-0.445L8,1.803 M8,0L6,3H4l0.976,3.905L2.74,5.804L2.532,7.353L0,8.59l2.115,1.861L1.907,12    l3.529-0.68L5,14l3-1l3,1l-0.436-2.68L14.093,12l-0.208-1.549L16,8.59l-2.532-1.237L13.26,5.804l-2.236,1.101L12,3h-2L8,0L8,0z"/>
	</g>
</g>
<rect x="0" y="0" transform="matrix(-1 -4.484958e-11 4.484958e-11 -1 16 16)" style="fill:none;" width="16" height="16"/>
</svg>