<?xml version="1.0" encoding="iso-8859-1"?><!-- Generator: Adobe Illustrator 19.2.1, SVG Export Plug-In . SVG Version: 6.00 Build 0)  --><svg xmlns="http://www.w3.org/2000/svg" xmlns:xlink="http://www.w3.org/1999/xlink" version="1.1" id="Layer_1" x="0px" y="0px" viewBox="0 0 80 80" style="enable-background:new 0 0 80 80;" xml:space="preserve" width="80" height="80">
<line style="fill:none;stroke:#967A44;stroke-width:4;stroke-miterlimit:10;" x1="40" y1="61.714" x2="40" y2="78"/>
<g>
	<g>
		<path style="fill:#F5CE85;" d="M40,63.461l-14.158,5.69l2.724-9.261L6.79,55.427c2.38-3.532,2.321-8.2-0.163-11.673l-3.739-5.227    l6.367-0.878c4.23-0.583,7.661-3.75,8.59-7.906l11.799,8.259l-4.935-23.82c0.701,0.137,1.416,0.206,2.127,0.206    c3.863,0,7.505-2.055,9.503-5.364L40,2.967l3.66,6.057c1.999,3.308,5.64,5.363,9.503,5.363c0.712,0,1.427-0.069,2.127-0.206    l-4.935,23.82l11.799-8.259c0.929,4.156,4.359,7.323,8.59,7.906l6.367,0.878l-3.739,5.227c-2.484,3.474-2.543,8.142-0.163,11.673    l-21.776,4.463l2.724,9.261L40,63.461z"/>
	</g>
	<g>
		<path style="fill:#967A44;" d="M40,3.934l3.231,5.348c2.089,3.457,5.895,5.605,9.932,5.605c0.497,0,0.995-0.032,1.49-0.096    l-4.531,21.876l-0.511,2.466l2.064-1.444l10.178-7.124c1.19,4.005,4.633,7.001,8.825,7.579l5.547,0.765l-3.257,4.554    c-2.462,3.442-2.652,8.002-0.562,11.619l-20.538,4.21l-1.065,0.218l0.307,1.043l2.279,7.749l-13.014-5.231L40,62.922l-0.373,0.15    l-13.014,5.231l2.279-7.749l0.307-1.043l-1.065-0.218l-20.538-4.21c2.091-3.617,1.9-8.177-0.562-11.619l-3.257-4.554l5.547-0.765    c4.192-0.578,7.635-3.574,8.824-7.579l10.178,7.124l2.064,1.444l-0.511-2.466l-4.531-21.876c0.495,0.064,0.993,0.096,1.49,0.096    c4.038,0,7.843-2.148,9.932-5.605L40,3.934 M40,2l-4.087,6.765c-1.946,3.221-5.415,5.122-9.076,5.122    c-0.713,0-1.433-0.072-2.151-0.221l-0.62-0.128l4.833,23.331L17.51,28.898l-0.117,0.569c-0.83,4.043-4.118,7.123-8.206,7.687    L2,38.144l4.22,5.901c2.401,3.357,2.424,7.862,0.059,11.244l-0.333,0.476l21.987,4.507L25.071,70L40,64l14.929,6l-2.861-9.728    l21.987-4.507l-0.333-0.476c-2.366-3.382-2.342-7.887,0.059-11.244L78,38.144l-7.187-0.991c-4.088-0.564-7.377-3.644-8.206-7.687    l-0.117-0.569l-11.389,7.972l4.833-23.331l-0.62,0.128c-0.718,0.148-1.438,0.221-2.151,0.221c-3.661,0-7.13-1.901-9.076-5.122    L40,2L40,2z"/>
	</g>
</g>
</svg>