<?xml version="1.0" encoding="iso-8859-1"?><!-- Generator: Adobe Illustrator 19.2.1, SVG Export Plug-In . SVG Version: 6.00 Build 0)  --><svg xmlns="http://www.w3.org/2000/svg" xmlns:xlink="http://www.w3.org/1999/xlink" version="1.1" id="Layer_1" x="0px" y="0px" viewBox="0 0 30 30" style="enable-background:new 0 0 30 30;" xml:space="preserve" width="30" height="30">
<line style="fill:none;stroke:#967A44;stroke-miterlimit:10;" x1="15.5" y1="23" x2="15.5" y2="29"/>
<g>
	<g>
		<path style="fill:#F5CE85;" d="M15.5,23.953l-4.766,1.325l0.836-2.843l-8.162-1.673c0.729-1.386,0.628-3.09-0.3-4.387    l-1.117-1.562l1.903-0.263c1.58-0.217,2.887-1.315,3.393-2.798l5.008,3.505l-1.957-9.445c0.124,0.01,0.248,0.016,0.371,0.016    c1.517,0,2.947-0.807,3.732-2.106l1.06-1.754l1.06,1.754c0.785,1.299,2.214,2.106,3.731,2.105c0.124,0,0.248-0.005,0.371-0.016    l-1.957,9.445l5.008-3.505c0.506,1.483,1.813,2.581,3.392,2.798l1.903,0.263l-1.117,1.562c-0.928,1.297-1.029,3.001-0.3,4.387    l-8.162,1.673l0.836,2.843L15.5,23.953z"/>
	</g>
	<g>
		<path style="fill:#967A44;" d="M15.5,2.934l0.632,1.046c0.832,1.378,2.316,2.259,3.915,2.341l-1.575,7.601l-0.511,2.466    l2.064-1.444l3.47-2.429c0.684,1.349,1.997,2.316,3.543,2.53l1.083,0.149l-0.636,0.889c-0.908,1.27-1.109,2.888-0.599,4.312    l-7.024,1.44l-1.065,0.218l0.307,1.043l0.429,1.457l-3.765-1.046L15.5,23.434l-0.268,0.074l-3.765,1.046l0.429-1.457l0.307-1.043    l-1.065-0.218l-7.024-1.44c0.51-1.424,0.31-3.042-0.599-4.312l-0.636-0.889l1.083-0.149c1.547-0.213,2.86-1.18,3.543-2.53    l3.47,2.429l2.064,1.444l-0.511-2.466l-1.575-7.601c1.599-0.082,3.082-0.963,3.915-2.341L15.5,2.934 M15.5,1l-1.488,2.462    c-0.708,1.172-1.971,1.864-3.304,1.864c-0.26,0-0.522-0.026-0.783-0.08L9.7,5.2l1.849,8.925l-4.57-3.199l-0.044,0.216    c-0.314,1.532-1.56,2.699-3.109,2.912l-2.723,0.375l1.599,2.236c0.91,1.272,0.919,2.979,0.022,4.26l-0.126,0.18l8.339,1.709L10,26    l5.5-1.528L21,26l-0.937-3.185l8.339-1.709l-0.126-0.18c-0.896-1.281-0.887-2.988,0.022-4.26l1.599-2.236l-2.723-0.375    c-1.549-0.214-2.795-1.381-3.109-2.912l-0.044-0.216l-4.57,3.199L21.3,5.2l-0.226,0.047c-0.261,0.054-0.523,0.08-0.783,0.08    c-1.333,0-2.595-0.692-3.304-1.864L15.5,1L15.5,1z"/>
	</g>
</g>
</svg>