<?xml version="1.0" encoding="iso-8859-1"?><!-- Generator: Adobe Illustrator 19.2.1, SVG Export Plug-In . SVG Version: 6.00 Build 0)  --><svg xmlns="http://www.w3.org/2000/svg" xmlns:xlink="http://www.w3.org/1999/xlink" version="1.1" x="0px" y="0px" viewBox="0 0 16 16" style="enable-background:new 0 0 16 16;" xml:space="preserve" width="16" height="16">
<g id="Layer_1">
	<g>
		<path style="fill:#B0C1D4;" d="M2,13.5c-0.827,0-1.5-0.673-1.5-1.5V5c0-0.827,0.673-1.5,1.5-1.5h12c0.827,0,1.5,0.673,1.5,1.5v7    c0,0.827-0.673,1.5-1.5,1.5H2z"/>
		<g>
			<path style="fill:#66798F;" d="M14,4c0.551,0,1,0.449,1,1v7c0,0.551-0.449,1-1,1H2c-0.551,0-1-0.449-1-1V5c0-0.551,0.449-1,1-1     H14 M14,3H2C0.895,3,0,3.895,0,5v7c0,1.105,0.895,2,2,2h12c1.105,0,2-0.895,2-2V5C16,3.895,15.105,3,14,3L14,3z"/>
		</g>
	</g>
	<path style="fill:#D8E2ED;" d="M14,12H2c-0.552,0-1-0.448-1-1V5c0-0.552,0.448-1,1-1h12c0.552,0,1,0.448,1,1v6   C15,11.552,14.552,12,14,12z"/>
	<g>
		<polygon style="fill:#36404D;" points="5.714,8.714 13.143,8.714 13.143,7.571 5.714,7.571 5.714,5.286 2.857,8.143 5.714,11       "/>
	</g>
</g>
<g id="Layer_2">
</g>
</svg>