<?xml version="1.0" encoding="iso-8859-1"?><!-- Generator: Adobe Illustrator 19.2.1, SVG Export Plug-In . SVG Version: 6.00 Build 0)  --><svg xmlns="http://www.w3.org/2000/svg" xmlns:xlink="http://www.w3.org/1999/xlink" version="1.1" id="Layer_1" x="0px" y="0px" viewBox="0 0 30 30" style="enable-background:new 0 0 30 30;" xml:space="preserve" width="30" height="30">
<g>
	<path style="fill:#B0C1D4;" d="M4,24.5c-1.378,0-2.5-1.122-2.5-2.5V9c0-1.378,1.122-2.5,2.5-2.5h22c1.378,0,2.5,1.122,2.5,2.5v13   c0,1.378-1.122,2.5-2.5,2.5H4z"/>
	<g>
		<path style="fill:#66798F;" d="M26,7c1.103,0,2,0.897,2,2v13c0,1.103-0.897,2-2,2H4c-1.103,0-2-0.897-2-2V9c0-1.103,0.897-2,2-2    H26 M26,6H4C2.343,6,1,7.343,1,9v13c0,1.657,1.343,3,3,3h22c1.657,0,3-1.343,3-3V9C29,7.343,27.657,6,26,6L26,6z"/>
	</g>
</g>
<path style="fill:#D8E2ED;" d="M28,21c0,1.103-0.897,2-2,2H4c-1.103,0-2-0.897-2-2V9c0-1.103,0.897-2,2-2h22c1.103,0,2,0.897,2,2V21  z"/>
<g>
	<polygon style="fill:#36404D;" points="11,16 24,16 24,14 11,14 11,10 6,15 11,20  "/>
</g>
</svg>