<?xml version="1.0" encoding="iso-8859-1"?><!-- Generator: Adobe Illustrator 19.2.1, SVG Export Plug-In . SVG Version: 6.00 Build 0)  --><svg xmlns="http://www.w3.org/2000/svg" xmlns:xlink="http://www.w3.org/1999/xlink" version="1.1" id="Layer_1" x="0px" y="0px" viewBox="0 0 80 80" style="enable-background:new 0 0 80 80;" xml:space="preserve" width="80" height="80">
<g>
	<path style="fill:#B0C1D4;" d="M6,65.5c-1.93,0-3.5-1.57-3.5-3.5V18c0-1.93,1.57-3.5,3.5-3.5h68c1.93,0,3.5,1.57,3.5,3.5v44   c0,1.93-1.57,3.5-3.5,3.5H6z"/>
	<path style="fill:#66798F;" d="M74,15c1.654,0,3,1.346,3,3v44c0,1.654-1.346,3-3,3H6c-1.654,0-3-1.346-3-3V18c0-1.654,1.346-3,3-3   H74 M74,14H6c-2.2,0-4,1.8-4,4v44c0,2.2,1.8,4,4,4h68c2.2,0,4-1.8,4-4V18C78,15.8,76.2,14,74,14L74,14z"/>
</g>
<g>
	<path style="fill:#D8E2ED;" d="M74,61H6c-1.65,0-3-1.35-3-3V18c0-1.65,1.35-3,3-3h68c1.65,0,3,1.35,3,3v40C77,59.65,75.65,61,74,61   z"/>
</g>
<g>
	<polygon style="fill:#36404D;" points="29,41 64,41 64,36 29,36 29,25 15.5,38.5 29,52  "/>
</g>
</svg>