<?xml version="1.0" encoding="iso-8859-1"?><!-- Generator: Adobe Illustrator 19.2.1, SVG Export Plug-In . SVG Version: 6.00 Build 0)  --><svg xmlns="http://www.w3.org/2000/svg" xmlns:xlink="http://www.w3.org/1999/xlink" version="1.1" id="Layer_1" x="0px" y="0px" viewBox="0 0 16 16" style="enable-background:new 0 0 16 16;" xml:space="preserve" width="16" height="16">
<line style="fill:none;stroke:#36404D;stroke-linecap:round;stroke-miterlimit:10;" x1="0.5" y1="15.5" x2="2.5" y2="13.5"/>
<path style="fill:none;stroke:#8B75A1;stroke-miterlimit:10;" d="M11.692,1.231L11.321,0.86c-0.451-0.451-1.198-0.395-1.576,0.119  c-1.01,1.371-2.758,3.591-3.241,4.135C5.604,6.124,4.63,5.294,4.63,5.294"/>
<g>
	<path style="fill:#DCD5F2;" d="M1.036,14.329c0.139-0.694,0.705-2.845,2.649-4.789l0.758-0.758l2.774,2.774l-0.759,0.758   c-2.088,2.088-4.131,2.56-4.777,2.661L1.036,14.329z"/>
	<g>
		<path style="fill:#8B75A1;" d="M4.444,9.489l2.067,2.067l-0.405,0.405c-1.792,1.792-3.497,2.324-4.252,2.478l-0.273-0.273    c0.195-0.813,0.79-2.605,2.458-4.273L4.444,9.489 M4.444,8.075L3.332,9.187C0.822,11.696,0.5,14.5,0.5,14.5l1,1    c0,0,2.614-0.133,5.313-2.832l1.112-1.112L4.444,8.075L4.444,8.075z"/>
	</g>
</g>
<g>
	<path style="fill:#DCD5F2;" d="M10.854,2.377l1.188-1.188C12.498,0.732,12.962,0.5,13.418,0.5c0.322,0,0.826,0.12,1.397,0.689   c0.919,0.921,0.919,1.854,0,2.774l-1.188,1.188L10.854,2.377z"/>
	<g>
		<path style="fill:#8B75A1;" d="M13.419,1c0.228,0,0.594,0.094,1.043,0.543c0.916,0.916,0.481,1.586,0,2.067l-0.834,0.834    L11.56,2.377l0.834-0.834C12.755,1.183,13.099,1,13.419,1 M13.418,0c-0.513,0-1.105,0.21-1.731,0.836l-1.541,1.541l3.481,3.481    l1.541-1.541c1.73-1.73,0.265-3.216,0-3.481C14.999,0.666,14.333,0,13.418,0L13.418,0z"/>
	</g>
</g>
<g>
	
		<rect x="3.881" y="4.88" transform="matrix(0.7073 -0.7069 0.7069 0.7073 -2.1553 8.478)" style="fill:#F78F8F;" width="10.56" height="3.923"/>
	<g>
		<path style="fill:#C74343;" d="M11.508,2.43l2.067,2.067l-6.761,6.758L4.746,9.187L11.508,2.43 M11.508,1.016L3.332,9.187    l3.481,3.481l8.176-8.171L11.508,1.016L11.508,1.016z"/>
	</g>
</g>
<circle style="fill:#8B75A1;" cx="5" cy="5" r="1"/>
</svg>