<?xml version="1.0" encoding="iso-8859-1"?><!-- Generator: Adobe Illustrator 19.2.1, SVG Export Plug-In . SVG Version: 6.00 Build 0)  --><svg xmlns="http://www.w3.org/2000/svg" xmlns:xlink="http://www.w3.org/1999/xlink" version="1.1" id="Layer_1" x="0px" y="0px" viewBox="0 0 80 80" style="enable-background:new 0 0 80 80;" xml:space="preserve" width="80" height="80">
<path style="fill:none;stroke:#8B75A1;stroke-miterlimit:10;" d="M60.14,8.531l-1.367-1.367c-1.662-1.662-4.41-1.456-5.804,0.436  c-3.717,5.047-10.247,13.816-12.088,15.657c-3.458,3.458-7.883,0.663-7.883,0.663"/>
<path style="fill:#36404D;" d="M10.545,71.495l-2.041-2.041l-4.082,4.082c-0.564,0.564-0.564,1.477,0,2.041h0  c0.564,0.564,1.477,0.564,2.041,0L10.545,71.495z"/>
<g>
	<path style="fill:#DCD5F2;" d="M6.787,70.345c0.18-1.543,1.581-10.823,9.834-19.075l1.248-1.249l12.11,12.11l-1.249,1.249   c-8.897,8.898-17.636,9.764-19.062,9.847L6.787,70.345z"/>
	<g>
		<path style="fill:#8B75A1;" d="M17.869,50.728l11.403,11.403l-0.895,0.895c-4.962,4.962-9.839,7.337-13.057,8.456    c-2.654,0.923-4.647,1.166-5.459,1.23l-2.549-2.549c0.27-2.032,1.846-10.725,9.661-18.54L17.869,50.728 M17.869,49.314    l-1.602,1.602C7.028,60.155,6.266,70.53,6.266,70.53l3.204,3.204c0,0,9.677-0.065,19.614-10.001l1.602-1.602L17.869,49.314    L17.869,49.314z"/>
	</g>
</g>
<g>
	<path style="fill:#DCD5F2;" d="M58.16,11.168l3.737-3.737c1.719-1.718,3.506-2.59,5.312-2.59c1.271,0,3.235,0.45,5.376,2.59   c1.163,1.163,1.944,2.403,2.323,3.687c0.707,2.396-0.074,4.752-2.323,7.001l-3.737,3.738L58.16,11.168z"/>
	<g>
		<path style="fill:#8B75A1;" d="M67.21,5.341L67.21,5.341c1.176,0,3.002,0.424,5.021,2.443c1.103,1.103,1.843,2.273,2.197,3.475    c0.651,2.208-0.088,4.396-2.197,6.506l-3.384,3.384l-9.981-9.981l3.384-3.384C63.872,6.164,65.541,5.342,67.21,5.341     M67.209,4.341c-1.68,0-3.617,0.688-5.665,2.736l-4.091,4.091l11.395,11.395l4.091-4.091c5.664-5.664,0.868-10.527,0-11.395    C72.383,6.521,70.202,4.341,67.209,4.341L67.209,4.341z"/>
	</g>
</g>
<g>
	<path style="fill:#F78F8F;" d="M16.975,50.916L59.062,8.845c0.283-0.283,0.659-0.439,1.061-0.439c0.4,0,0.777,0.156,1.061,0.439   l9.988,9.989c0.585,0.585,0.585,1.537,0,2.122L29.084,63.026L16.975,50.916z"/>
	<g>
		<path style="fill:#C74343;" d="M60.122,8.906c0.267,0,0.518,0.104,0.707,0.293l9.988,9.989c0.189,0.189,0.293,0.44,0.293,0.707    c0,0.267-0.104,0.518-0.293,0.707L29.084,62.319L17.682,50.916L59.415,9.198C59.603,9.01,59.855,8.906,60.122,8.906 M60.122,7.906    c-0.512,0-1.023,0.195-1.414,0.586l-42.44,42.425l12.817,12.817l42.44-42.424c0.781-0.781,0.781-2.048,0-2.829l-9.988-9.989    C61.145,8.101,60.633,7.906,60.122,7.906L60.122,7.906z"/>
	</g>
</g>
<circle style="fill:#8B75A1;" cx="34" cy="23" r="2"/>
</svg>