<?xml version="1.0" encoding="iso-8859-1"?><!-- Generator: Adobe Illustrator 19.2.1, SVG Export Plug-In . SVG Version: 6.00 Build 0)  --><svg xmlns="http://www.w3.org/2000/svg" xmlns:xlink="http://www.w3.org/1999/xlink" version="1.1" id="Layer_1" x="0px" y="0px" viewBox="0 0 40 40" style="enable-background:new 0 0 40 40;" xml:space="preserve" width="40" height="40">
<path style="fill:none;stroke:#8B75A1;stroke-miterlimit:10;" d="M28.308,4.769l-0.835-0.835c-1.016-1.016-2.695-0.89-3.547,0.267  c-2.272,3.084-6.262,8.443-7.387,9.568c-2.113,2.113-4.817,0.405-4.817,0.405"/>
<path style="fill:#36404D;" d="M6,35.247L4.753,34l-2.494,2.494c-0.344,0.344-0.344,0.903,0,1.247l0,0  c0.344,0.344,0.903,0.344,1.247,0L6,35.247z"/>
<g>
	<path style="fill:#DCD5F2;" d="M3.908,34.474c0.148-1.152,1.087-6.594,5.942-11.449l0.625-0.625l7.126,7.125l-0.626,0.625   c-5.224,5.224-10.37,5.875-11.437,5.955L3.908,34.474z"/>
	<g>
		<path style="fill:#8B75A1;" d="M10.476,23.106l6.418,6.418l-0.272,0.272c-4.806,4.806-9.53,5.645-10.895,5.789l-1.291-1.291    c0.222-1.474,1.277-6.426,5.767-10.917L10.476,23.106 M10.476,21.692l-0.979,0.979C3.85,28.317,3.385,34.657,3.385,34.657    l1.958,1.958c0,0,5.914-0.04,11.986-6.112l0.979-0.979L10.476,21.692L10.476,21.692z"/>
	</g>
</g>
<g>
	<path style="fill:#DCD5F2;" d="M28.024,4.86l0.626-0.625c1.15-1.151,2.342-1.734,3.54-1.734c0.845,0,2.151,0.301,3.585,1.734   c0.781,0.781,1.305,1.611,1.558,2.468c0.469,1.588-0.056,3.155-1.558,4.658l-0.625,0.625L28.024,4.86z"/>
	<g>
		<path style="fill:#8B75A1;" d="M32.192,3L32.192,3c0.749,0,1.918,0.276,3.231,1.588c0.721,0.721,1.203,1.48,1.432,2.256    c0.419,1.419-0.05,2.78-1.432,4.162l-0.272,0.272L28.732,4.86l0.272-0.272C30.057,3.534,31.13,3,32.192,3 M32.191,2    c-1.155,0-2.486,0.473-3.894,1.881L27.318,4.86l7.833,7.833l0.979-0.979c3.893-3.893,0.597-7.236,0-7.833    C35.747,3.499,34.248,2,32.191,2L32.191,2z"/>
	</g>
</g>
<g>
	
		<rect x="10.023" y="12.154" transform="matrix(0.7073 -0.7069 0.7069 0.7073 -5.476 21.159)" style="fill:#F78F8F;" width="25.58" height="10.077"/>
	<g>
		<path style="fill:#C74343;" d="M28.297,5.295l6.418,6.418L17.329,29.089l-6.418-6.418L28.297,5.295 M28.297,3.881l-18.8,18.79    l7.833,7.833l18.8-18.79L28.297,3.881L28.297,3.881z"/>
	</g>
</g>
<circle style="fill:#8B75A1;" cx="12.5" cy="13.5" r="1.5"/>
</svg>