<?xml version="1.0" encoding="iso-8859-1"?><!-- Generator: Adobe Illustrator 19.2.1, SVG Export Plug-In . SVG Version: 6.00 Build 0)  --><svg xmlns="http://www.w3.org/2000/svg" xmlns:xlink="http://www.w3.org/1999/xlink" version="1.1" id="Layer_1" x="0px" y="0px" viewBox="0 0 30 30" style="enable-background:new 0 0 30 30;" xml:space="preserve" width="30" height="30">
<path style="fill:none;stroke:#8B75A1;stroke-miterlimit:10;" d="M21,4l-0.603-0.603c-0.734-0.734-1.947-0.643-2.562,0.193  C16.195,5.817,13.313,9.687,12.5,10.5c-1.526,1.526-3.5,0-3.5,0"/>
<path style="fill:#36404D;" d="M6.536,24.879l-1.414-1.414l-2.828,2.828c-0.391,0.391-0.391,1.024,0,1.414l0,0  c0.391,0.391,1.024,0.391,1.414,0L6.536,24.879z"/>
<g>
	<path style="fill:#DCD5F2;" d="M3.524,25.403c0.131-0.94,0.852-4.73,4.243-8.121l0.354-0.354l4.95,4.95l-0.354,0.354   c-3.665,3.666-7.24,4.184-8.108,4.256L3.524,25.403z"/>
	<g>
		<path style="fill:#8B75A1;" d="M8.121,17.636L8.121,17.636l4.243,4.243c-3.274,3.274-6.485,3.949-7.57,4.086l-0.736-0.736    C4.259,24.052,5.078,20.679,8.121,17.636 M8.121,16.222l-0.707,0.707C3.336,21.007,3,25.586,3,25.586L4.414,27    c0,0,4.271-0.029,8.657-4.414l0.707-0.707L8.121,16.222L8.121,16.222z"/>
	</g>
</g>
<g>
	<path style="fill:#DCD5F2;" d="M20.992,4.065l0.354-0.354C22.15,2.908,22.978,2.5,23.805,2.5c0.584,0,1.489,0.21,2.49,1.212   C27.083,4.498,27.5,5.361,27.5,6.207c0,0.829-0.405,1.655-1.205,2.455l-0.354,0.354L20.992,4.065z"/>
	<g>
		<path style="fill:#8B75A1;" d="M23.805,3L23.805,3c0.489,0,1.256,0.185,2.137,1.065c0.488,0.488,0.812,0.996,0.964,1.511    c0.271,0.918-0.044,1.812-0.964,2.731l-4.243-4.243C22.406,3.359,23.115,3,23.805,3 M23.805,2c-0.834,0-1.796,0.341-2.813,1.358    l-0.707,0.707l5.657,5.657l0.707-0.707c2.812-2.812,0.431-5.226,0-5.657C26.373,3.082,25.29,2,23.805,2L23.805,2z"/>
	</g>
</g>
<g>
	
		<rect x="7.933" y="9.472" transform="matrix(0.7073 -0.7069 0.7069 0.7073 -4.1851 15.8361)" style="fill:#F78F8F;" width="18.197" height="7"/>
	<g>
		<path style="fill:#C74343;" d="M20.992,4.772l4.243,4.243L13.071,21.172l-4.243-4.243L20.992,4.772 M20.992,3.358L7.414,16.929    l5.657,5.657L26.649,9.015L20.992,3.358L20.992,3.358z"/>
	</g>
</g>
<circle style="fill:#8B75A1;" cx="9" cy="10" r="1"/>
</svg>