<?xml version="1.0" encoding="iso-8859-1"?><!-- Generator: Adobe Illustrator 19.2.1, SVG Export Plug-In . SVG Version: 6.00 Build 0)  --><svg xmlns="http://www.w3.org/2000/svg" xmlns:xlink="http://www.w3.org/1999/xlink" version="1.1" id="Layer_1" x="0px" y="0px" viewBox="0 0 80 80" style="enable-background:new 0 0 80 80;" xml:space="preserve" width="80" height="80">
<g>
	<path style="fill:#B0C1D4;" d="M32.5,27.711c1.114-0.308,4.647-1.211,7.742-1.211c3.065,0,6.235,0.887,7.258,1.199v9.615   c-1.274-0.384-4.19-1.148-7.258-1.148c-3.128,0-6.385,0.795-7.742,1.168V27.711z"/>
	<path style="fill:#66798F;" d="M40.242,27c2.705,0,5.504,0.709,6.758,1.072v8.579c-1.498-0.411-4.071-0.984-6.758-0.984   c-2.769,0-5.633,0.61-7.242,1.019v-8.592C34.37,27.732,37.485,27,40.242,27 M40.242,26C36.409,26,32,27.333,32,27.333   S32,33.995,32,38c0,0,4.27-1.333,8.242-1.333S48,38,48,38c0-4.005,0-10.667,0-10.667S44.076,26,40.242,26L40.242,26z"/>
</g>
<g>
	<path style="fill:#B0C1D4;" d="M32.5,35.711c1.114-0.308,4.647-1.211,7.742-1.211c3.065,0,6.235,0.887,7.258,1.199v9.615   c-1.274-0.384-4.19-1.148-7.258-1.148c-3.128,0-6.385,0.795-7.742,1.168V35.711z"/>
	<path style="fill:#66798F;" d="M40.242,35c2.705,0,5.504,0.709,6.758,1.072v8.579c-1.498-0.411-4.071-0.984-6.758-0.984   c-2.769,0-5.633,0.61-7.242,1.019v-8.592C34.37,35.732,37.485,35,40.242,35 M40.242,34C36.409,34,32,35.333,32,35.333   S32,41.995,32,46c0,0,4.27-1.333,8.242-1.333S48,46,48,46c0-4.005,0-10.667,0-10.667S44.076,34,40.242,34L40.242,34z"/>
</g>
<g>
	<path style="fill:#B0C1D4;" d="M16.5,26.167V16c0-4.136,3.364-7.5,7.5-7.5s7.5,3.364,7.5,7.5v10.167H16.5z"/>
	<path style="fill:#66798F;" d="M24,9c3.86,0,7,3.14,7,7v9.667H17V16C17,12.14,20.14,9,24,9 M24,8c-4.418,0-8,3.582-8,8   c0,0.457,0,10.21,0,10.667h16c0-0.457,0-10.21,0-10.667C32,11.582,28.418,8,24,8L24,8z"/>
</g>
<g>
	<path style="fill:#B0C1D4;" d="M0.51,53.423c0.356-9.628,10.623-31.183,10.729-31.404c0.006-0.002,3.64-5.519,11.168-5.519   c8.382,0,11.094,6.19,11.094,9.188v27.735H0.51z"/>
	<path style="fill:#66798F;" d="M22.406,17c3.576,0,6.48,1.166,8.399,3.372C32.425,22.234,33,24.399,33,25.688v27.235H1.037   c0.661-9.486,10.024-29.364,10.623-30.627C12.042,21.732,15.453,17,22.406,17 M22.406,16c-7.912,0-11.619,5.803-11.619,5.803   S0,44.342,0,53.923h34c0-17.472,0-25.774,0-28.235C34,22.679,31.357,16,22.406,16L22.406,16z"/>
</g>
<g>
	<path style="fill:#DCD5F2;" d="M17,71.5C7.902,71.5,0.5,64.098,0.5,55S7.902,38.5,17,38.5S33.5,45.902,33.5,55S26.098,71.5,17,71.5   z"/>
	<g>
		<path style="fill:#8B75A1;" d="M17,39c8.822,0,16,7.178,16,16s-7.178,16-16,16S1,63.822,1,55S8.178,39,17,39 M17,38    C7.611,38,0,45.611,0,55s7.611,17,17,17s17-7.611,17-17S26.389,38,17,38L17,38z"/>
	</g>
</g>
<path style="fill:none;stroke:#FFFFFF;stroke-miterlimit:10;" d="M9,55c0-4.418,3.582-8,8-8"/>
<g>
	<path style="fill:#B0C1D4;" d="M48.5,26.167V16c0-4.136,3.364-7.5,7.5-7.5s7.5,3.364,7.5,7.5v10.167H48.5z"/>
	<path style="fill:#66798F;" d="M56,9c3.86,0,7,3.14,7,7v9.667H49V16C49,12.14,52.14,9,56,9 M56,8c-4.418,0-8,3.582-8,8   c0,0.457,0,10.21,0,10.667h16c0-0.457,0-10.21,0-10.667C64,11.582,60.418,8,56,8L56,8z"/>
</g>
<g>
	<path style="fill:#B0C1D4;" d="M46.5,53.423V25.688c0-2.998,2.712-9.188,11.094-9.188c7.528,0,11.162,5.517,11.198,5.573   c0.076,0.168,10.342,21.722,10.698,31.35H46.5z"/>
	<path style="fill:#66798F;" d="M57.594,17c6.961,0,10.372,4.742,10.746,5.296c0.598,1.26,9.962,21.14,10.623,30.627H47V25.688   c0-1.288,0.575-3.453,2.195-5.316C51.113,18.166,54.018,17,57.594,17 M57.594,16C48.643,16,46,22.679,46,25.688   c0,2.461,0,10.763,0,28.235h34c0-9.581-10.787-32.12-10.787-32.12S65.505,16,57.594,16L57.594,16z"/>
</g>
<g>
	<path style="fill:#DCD5F2;" d="M63,71.5c-9.098,0-16.5-7.402-16.5-16.5S53.902,38.5,63,38.5S79.5,45.902,79.5,55   S72.098,71.5,63,71.5z"/>
	<g>
		<path style="fill:#8B75A1;" d="M63,39c8.822,0,16,7.178,16,16s-7.178,16-16,16s-16-7.178-16-16S54.178,39,63,39 M63,38    c-9.389,0-17,7.611-17,17s7.611,17,17,17s17-7.611,17-17S72.389,38,63,38L63,38z"/>
	</g>
</g>
<path style="fill:none;stroke:#FFFFFF;stroke-miterlimit:10;" d="M55,55c0-4.418,3.582-8,8-8"/>
</svg>