<?xml version="1.0" encoding="iso-8859-1"?><!-- Generator: Adobe Illustrator 19.2.1, SVG Export Plug-In . SVG Version: 6.00 Build 0)  --><svg xmlns="http://www.w3.org/2000/svg" xmlns:xlink="http://www.w3.org/1999/xlink" version="1.1" id="Layer_1" x="0px" y="0px" viewBox="0 0 30 30" style="enable-background:new 0 0 30 30;" xml:space="preserve" width="30" height="30">
<g>
	<path style="fill:#B0C1D4;" d="M12.5,10.882c0.547-0.14,1.631-0.382,2.591-0.382c0.938,0,1.911,0.232,2.409,0.372v2.96   c-0.582-0.15-1.478-0.332-2.409-0.332c-0.966,0-1.962,0.195-2.591,0.348V10.882z"/>
	<path style="fill:#66798F;" d="M15.091,11c0.691,0,1.406,0.136,1.909,0.258v1.947C16.45,13.094,15.78,13,15.091,13   c-0.735,0-1.484,0.107-2.091,0.227v-1.952C13.592,11.141,14.398,11,15.091,11 M15.091,10C13.653,10,12,10.5,12,10.5s0,2.498,0,4   c0,0,1.601-0.5,3.091-0.5C16.58,14,18,14.5,18,14.5c0-1.502,0-4,0-4S16.528,10,15.091,10L15.091,10z"/>
</g>
<g>
	<path style="fill:#B0C1D4;" d="M18.5,9.5V6c0-1.378,1.121-2.5,2.5-2.5s2.5,1.122,2.5,2.5v3.5H18.5z"/>
	<path style="fill:#66798F;" d="M21,4c1.103,0,2,0.897,2,2v3h-4V6C19,4.897,19.897,4,21,4 M21,3c-1.657,0-3,1.343-3,3   c0,0.171,0,3.829,0,4h6c0-0.171,0-3.829,0-4C24,4.343,22.657,3,21,3L21,3z"/>
</g>
<g>
	<path style="fill:#B0C1D4;" d="M17.5,20V9.704c0-1.045,0.961-3.204,3.933-3.204c2.72,0,4.008,1.968,4.021,1.988   C25.464,8.519,29.146,16.25,29.477,20H17.5z"/>
	<path style="fill:#66798F;" d="M21.433,7c2.235,0,3.384,1.457,3.573,1.719c1.022,2.147,3.412,7.648,3.904,10.781H18V9.704   C18,9.677,18.148,7,21.433,7 M21.433,6C18.01,6,17,8.554,17,9.704c0,0.941,0,4.115,0,10.796h13c0-3.663-4.125-12.281-4.125-12.281   S24.458,6,21.433,6L21.433,6z"/>
</g>
<g>
	<path style="fill:#B0C1D4;" d="M12.5,13.882c0.547-0.14,1.631-0.382,2.591-0.382c0.938,0,1.911,0.232,2.409,0.372v2.96   c-0.582-0.15-1.478-0.332-2.409-0.332c-0.966,0-1.962,0.195-2.591,0.348V13.882z"/>
	<path style="fill:#66798F;" d="M15.091,14c0.691,0,1.406,0.136,1.909,0.258v1.947C16.45,16.094,15.78,16,15.091,16   c-0.735,0-1.484,0.107-2.091,0.227v-1.952C13.592,14.141,14.398,14,15.091,14 M15.091,13C13.653,13,12,13.5,12,13.5s0,2.498,0,4   c0,0,1.601-0.5,3.091-0.5C16.58,17,18,17.5,18,17.5c0-1.502,0-4,0-4S16.528,13,15.091,13L15.091,13z"/>
</g>
<g>
	<circle style="fill:#DCD5F2;" cx="23.5" cy="20.5" r="6"/>
	<g>
		<path style="fill:#8B75A1;" d="M23.5,15c3.033,0,5.5,2.467,5.5,5.5S26.533,26,23.5,26S18,23.533,18,20.5S20.467,15,23.5,15     M23.5,14c-3.59,0-6.5,2.91-6.5,6.5s2.91,6.5,6.5,6.5s6.5-2.91,6.5-6.5S27.09,14,23.5,14L23.5,14z"/>
	</g>
</g>
<path style="fill:none;stroke:#FFFFFF;stroke-miterlimit:10;" d="M21,20.5c0-1.381,1.119-2.5,2.5-2.5"/>
<g>
	<path style="fill:#B0C1D4;" d="M6.5,9.5V6c0-1.378,1.121-2.5,2.5-2.5s2.5,1.122,2.5,2.5v3.5H6.5z"/>
	<path style="fill:#66798F;" d="M9,4c1.103,0,2,0.897,2,2v3H7V6C7,4.897,7.897,4,9,4 M9,3C7.343,3,6,4.343,6,6c0,0.171,0,3.829,0,4   h6c0-0.171,0-3.829,0-4C12,4.343,10.657,3,9,3L9,3z"/>
</g>
<g>
	<path style="fill:#B0C1D4;" d="M0.523,20c0.33-3.751,4.014-11.484,4.053-11.565C4.598,8.408,5.869,6.5,8.567,6.5   c2.972,0,3.933,2.159,3.933,3.204V20H0.523z"/>
	<path style="fill:#66798F;" d="M8.567,7C11.852,7,12,9.677,12,9.704V19.5H1.09c0.493-3.134,2.883-8.636,3.905-10.782   C5.181,8.458,6.325,7,8.567,7 M8.567,6C5.542,6,4.125,8.219,4.125,8.219S0,16.837,0,20.5h13c0-6.681,0-9.855,0-10.796   C13,8.554,11.99,6,8.567,6L8.567,6z"/>
</g>
<g>
	<circle style="fill:#DCD5F2;" cx="6.5" cy="20.5" r="6"/>
	<g>
		<path style="fill:#8B75A1;" d="M6.5,15c3.033,0,5.5,2.467,5.5,5.5S9.533,26,6.5,26S1,23.533,1,20.5S3.467,15,6.5,15 M6.5,14    C2.91,14,0,16.91,0,20.5S2.91,27,6.5,27s6.5-2.91,6.5-6.5S10.09,14,6.5,14L6.5,14z"/>
	</g>
</g>
<path style="fill:none;stroke:#FFFFFF;stroke-miterlimit:10;" d="M4,20.5C4,19.119,5.119,18,6.5,18"/>
</svg>