<?xml version="1.0" encoding="iso-8859-1"?><!-- Generator: Adobe Illustrator 19.2.1, SVG Export Plug-In . SVG Version: 6.00 Build 0)  --><svg xmlns="http://www.w3.org/2000/svg" xmlns:xlink="http://www.w3.org/1999/xlink" version="1.1" id="Layer_1" x="0px" y="0px" viewBox="0 0 16 16" style="enable-background:new 0 0 16 16;" xml:space="preserve" width="16" height="16">
<g>
	<path style="fill:#B0C1D4;" d="M9.5,4.5V2c0-0.827,0.673-1.5,1.5-1.5s1.5,0.673,1.5,1.5v2.5H9.5z"/>
	<path style="fill:#66798F;" d="M11,1c0.551,0,1,0.449,1,1v2h-2V2C10,1.449,10.449,1,11,1 M11,0C9.895,0,9,0.895,9,2v3h4V2   C13,0.895,12.105,0,11,0L11,0z"/>
</g>
<g>
	<path style="fill:#B0C1D4;" d="M9.5,12V3.687c0-0.558,0.245-1.495,1.887-1.495c1.156,0,1.782,0.713,1.936,0.916   c0.697,2.404,1.925,6.961,2.144,8.892H9.5z"/>
	<path style="fill:#66798F;" d="M11.387,2.692c0.828,0,1.315,0.459,1.483,0.651c0.72,2.493,1.697,6.191,2.021,8.157H10V3.687   C10,3.26,10.144,2.692,11.387,2.692 M11.387,1.692C9.544,1.692,9,2.762,9,3.687C9,4.194,9,8.903,9,12.5h7   c0-1.973-2.221-9.613-2.221-9.613S13.016,1.692,11.387,1.692L11.387,1.692z"/>
</g>
<g>
	<path style="fill:#B0C1D4;" d="M9.5,8.781C9.098,8.708,8.55,8.633,8,8.633S6.902,8.708,6.5,8.781V4.668   C6.869,4.595,7.455,4.5,8,4.5s1.131,0.095,1.5,0.168V8.781z"/>
	<path style="fill:#66798F;" d="M8,5c0.339,0,0.696,0.04,1,0.087V8.2C8.689,8.161,8.345,8.133,8,8.133S7.311,8.161,7,8.2V5.088   C7.304,5.04,7.663,5,8,5 M8,4C7.042,4,6,4.267,6,4.267S6,8.599,6,9.4c0,0,1.007-0.267,2-0.267S10,9.4,10,9.4   c0-0.801,0-5.133,0-5.133S8.958,4,8,4L8,4z"/>
</g>
<g>
	<circle style="fill:#DCD5F2;" cx="12.5" cy="12.5" r="3"/>
	<g>
		<path style="fill:#8B75A1;" d="M12.5,10c1.378,0,2.5,1.122,2.5,2.5S13.878,15,12.5,15S10,13.878,10,12.5S11.122,10,12.5,10     M12.5,9C10.567,9,9,10.567,9,12.5s1.567,3.5,3.5,3.5s3.5-1.567,3.5-3.5S14.433,9,12.5,9L12.5,9z"/>
	</g>
</g>
<g>
	<path style="fill:#B0C1D4;" d="M3.5,4.5V2c0-0.827,0.673-1.5,1.5-1.5S6.5,1.173,6.5,2v2.5H3.5z"/>
	<path style="fill:#66798F;" d="M5,1c0.551,0,1,0.449,1,1v2H4V2C4,1.449,4.449,1,5,1 M5,0C3.895,0,3,0.895,3,2v3h4V2   C7,0.895,6.105,0,5,0L5,0z"/>
</g>
<g>
	<path style="fill:#B0C1D4;" d="M0.533,12C0.792,9.704,2.46,3.862,2.678,3.107c0.151-0.199,0.776-0.915,1.936-0.915   c1.642,0,1.887,0.937,1.887,1.495V12H0.533z"/>
	<path style="fill:#66798F;" d="M4.613,2.692C5.856,2.692,6,3.26,6,3.687V11.5H1.109c0.324-1.965,1.3-5.662,2.02-8.155   C3.305,3.145,3.791,2.692,4.613,2.692 M4.613,1.692c-1.629,0-2.392,1.195-2.392,1.195S0,10.527,0,12.5h7c0-3.597,0-8.306,0-8.813   C7,2.762,6.456,1.692,4.613,1.692L4.613,1.692z"/>
</g>
<path style="fill:none;stroke:#FFFFFF;stroke-miterlimit:10;" d="M11.5,12.5c0-0.552,0.448-1,1-1"/>
<g>
	<circle style="fill:#DCD5F2;" cx="3.5" cy="12.5" r="3"/>
	<g>
		<path style="fill:#8B75A1;" d="M3.5,10C4.878,10,6,11.122,6,12.5S4.878,15,3.5,15S1,13.878,1,12.5S2.122,10,3.5,10 M3.5,9    C1.567,9,0,10.567,0,12.5S1.567,16,3.5,16S7,14.433,7,12.5S5.433,9,3.5,9L3.5,9z"/>
	</g>
</g>
<path style="fill:none;stroke:#FFFFFF;stroke-miterlimit:10;" d="M2.5,12.5c0-0.552,0.448-1,1-1"/>
</svg>