<?xml version="1.0" encoding="iso-8859-1"?><!-- Generator: Adobe Illustrator 19.2.1, SVG Export Plug-In . SVG Version: 6.00 Build 0)  --><svg xmlns="http://www.w3.org/2000/svg" xmlns:xlink="http://www.w3.org/1999/xlink" version="1.1" id="Layer_1" x="0px" y="0px" viewBox="0 0 40 40" style="enable-background:new 0 0 40 40;" xml:space="preserve" width="40" height="40">
<g>
	<path style="fill:#B0C1D4;" d="M16.5,14.047c0.686-0.181,2.245-0.547,3.621-0.547c1.353,0,2.752,0.354,3.379,0.536v4.29   c-0.749-0.206-2.035-0.492-3.379-0.492c-1.385,0-2.816,0.305-3.621,0.509V14.047z"/>
	<path style="fill:#66798F;" d="M20.121,14c1.076,0,2.19,0.238,2.879,0.417v3.268c-0.776-0.178-1.81-0.352-2.879-0.352   c-1.124,0-2.275,0.193-3.121,0.378v-3.275C17.761,14.252,19.008,14,20.121,14 M20.121,13C18.204,13,16,13.667,16,13.667   s0,3.331,0,5.333c0,0,2.135-0.667,4.121-0.667S24,19,24,19c0-2.002,0-5.333,0-5.333S22.038,13,20.121,13L20.121,13z"/>
</g>
<g>
	<path style="fill:#B0C1D4;" d="M24.5,12.833V8c0-1.93,1.57-3.5,3.5-3.5s3.5,1.57,3.5,3.5v4.833H24.5z"/>
	<path style="fill:#66798F;" d="M28,5c1.654,0,3,1.346,3,3v4.333h-6V8C25,6.346,26.346,5,28,5 M28,4c-2.209,0-4,1.791-4,4   c0,0.228,0,5.105,0,5.333h8c0-0.228,0-5.105,0-5.333C32,5.791,30.209,4,28,4L28,4z"/>
</g>
<g>
	<path style="fill:#B0C1D4;" d="M23.5,26.461V12.844c0-1.417,1.295-4.344,5.297-4.344c3.64,0,5.371,2.644,5.389,2.67   c0.022,0.057,4.956,10.417,5.296,15.291H23.5z"/>
	<path style="fill:#66798F;" d="M28.797,9c3.125,0,4.706,2.068,4.939,2.399c0.405,0.857,4.605,9.827,5.196,14.563H24V12.844   C24,11.847,24.881,9,28.797,9 M28.797,8C24.321,8,23,11.34,23,12.844c0,1.231,0,5.381,0,14.118h17c0-4.791-5.394-16.06-5.394-16.06   S32.753,8,28.797,8L28.797,8z"/>
</g>
<g>
	<path style="fill:#B0C1D4;" d="M16.5,18.047c0.686-0.181,2.245-0.547,3.621-0.547c1.353,0,2.752,0.354,3.379,0.536v4.29   c-0.749-0.206-2.035-0.492-3.379-0.492c-1.385,0-2.816,0.305-3.621,0.509V18.047z"/>
	<path style="fill:#66798F;" d="M20.121,18c1.076,0,2.19,0.238,2.879,0.417v3.268c-0.776-0.178-1.81-0.352-2.879-0.352   c-1.124,0-2.275,0.193-3.121,0.378v-3.275C17.761,18.252,19.008,18,20.121,18 M20.121,17C18.204,17,16,17.667,16,17.667   s0,3.331,0,5.333c0,0,2.135-0.667,4.121-0.667S24,23,24,23c0-2.002,0-5.333,0-5.333S22.038,17,20.121,17L20.121,17z"/>
</g>
<g>
	<circle style="fill:#DCD5F2;" cx="31.5" cy="27.5" r="8"/>
	<g>
		<path style="fill:#8B75A1;" d="M31.5,20c4.135,0,7.5,3.364,7.5,7.5S35.635,35,31.5,35S24,31.636,24,27.5S27.365,20,31.5,20     M31.5,19c-4.694,0-8.5,3.806-8.5,8.5s3.806,8.5,8.5,8.5s8.5-3.806,8.5-8.5S36.194,19,31.5,19L31.5,19z"/>
	</g>
</g>
<path style="fill:none;stroke:#FFFFFF;stroke-miterlimit:10;" d="M27.5,27.5c0-2.209,1.791-4,4-4"/>
<g>
	<path style="fill:#B0C1D4;" d="M8.5,12.833V8c0-1.93,1.57-3.5,3.5-3.5s3.5,1.57,3.5,3.5v4.833H8.5z"/>
	<path style="fill:#66798F;" d="M12,5c1.654,0,3,1.346,3,3v4.333H9V8C9,6.346,10.346,5,12,5 M12,4C9.791,4,8,5.791,8,8   c0,0.228,0,5.105,0,5.333h8c0-0.228,0-5.105,0-5.333C16,5.791,14.209,4,12,4L12,4z"/>
</g>
<g>
	<path style="fill:#B0C1D4;" d="M0.519,26.461c0.34-4.875,5.274-15.236,5.326-15.344c0.04-0.055,1.74-2.617,5.358-2.617   c4.002,0,5.297,2.926,5.297,4.344v13.618H0.519z"/>
	<path style="fill:#66798F;" d="M11.203,9C15.119,9,16,11.847,16,12.844v13.118H1.069c0.59-4.736,4.791-13.706,5.196-14.563   C6.491,11.077,8.079,9,11.203,9 M11.203,8c-3.956,0-5.81,2.902-5.81,2.902S0,22.171,0,26.962h17c0-8.736,0-12.887,0-14.118   C17,11.34,15.679,8,11.203,8L11.203,8z"/>
</g>
<g>
	<circle style="fill:#DCD5F2;" cx="8.5" cy="27.5" r="8"/>
	<g>
		<path style="fill:#8B75A1;" d="M8.5,20c4.135,0,7.5,3.364,7.5,7.5S12.635,35,8.5,35S1,31.636,1,27.5S4.365,20,8.5,20 M8.5,19    C3.806,19,0,22.806,0,27.5S3.806,36,8.5,36s8.5-3.806,8.5-8.5S13.194,19,8.5,19L8.5,19z"/>
	</g>
</g>
<path style="fill:none;stroke:#FFFFFF;stroke-miterlimit:10;" d="M4.5,27.5c0-2.209,1.791-4,4-4"/>
</svg>