<?xml version="1.0" encoding="iso-8859-1"?><!-- Generator: Adobe Illustrator 19.2.1, SVG Export Plug-In . SVG Version: 6.00 Build 0)  --><svg xmlns="http://www.w3.org/2000/svg" xmlns:xlink="http://www.w3.org/1999/xlink" version="1.1" id="Layer_1" x="0px" y="0px" viewBox="0 0 40 40" style="enable-background:new 0 0 40 40;" xml:space="preserve" width="40" height="40">
<g>
	<path style="fill:#8BB7F0;" d="M17.5,21.5V13c0-0.827,0.673-1.5,1.5-1.5h2c0.827,0,1.5,0.673,1.5,1.5v8.5H17.5z"/>
	<g>
		<path style="fill:#4E7AB5;" d="M21,12c0.551,0,1,0.449,1,1v8h-4v-8c0-0.551,0.449-1,1-1H21 M21,11h-2c-1.105,0-2,0.895-2,2v9h6v-9    C23,11.895,22.105,11,21,11L21,11z"/>
	</g>
</g>
<g>
	<rect x="4.5" y="25.5" style="fill:#FFC49C;" width="31" height="9"/>
	<g>
		<path style="fill:#A16A4A;" d="M35,26v8H5v-8H35 M36,25H4v10h32V25L36,25z"/>
	</g>
</g>
<g>
	<g>
		<path style="fill:#C2E8FF;" d="M5,38.5c-1.93,0-3.5-1.57-3.5-3.5v-0.5h37V35c0,1.93-1.57,3.5-3.5,3.5H5z"/>
		<path style="fill:#7496C4;" d="M38,35c0,1.654-1.346,3-3,3H5c-1.654,0-3-1.346-3-3H38 M39,34H1v1c0,2.209,1.791,4,4,4h30    c2.209,0,4-1.791,4-4V34L39,34z"/>
	</g>
</g>
<g>
	<g>
		<path style="fill:#F78F8F;" d="M20,9.5c-1.378,0-2.5-1.122-2.5-2.5c0-0.963,1.398-3.419,2.5-5.103c1.102,1.684,2.5,4.14,2.5,5.103    C22.5,8.378,21.378,9.5,20,9.5z"/>
		<path style="fill:#C74343;" d="M20,2.823C21.067,4.528,22,6.34,22,7c0,1.103-0.897,2-2,2s-2-0.897-2-2    C18,6.341,18.933,4.529,20,2.823 M20,1c0,0-3,4.35-3,6s1.35,3,3,3s3-1.35,3-3S20,1,20,1L20,1z"/>
	</g>
</g>
<g>
	<path style="fill:#8BB7F0;" d="M26.5,21.5V13c0-0.827,0.673-1.5,1.5-1.5h2c0.827,0,1.5,0.673,1.5,1.5v8.5H26.5z"/>
	<g>
		<path style="fill:#4E7AB5;" d="M30,12c0.551,0,1,0.449,1,1v8h-4v-8c0-0.551,0.449-1,1-1H30 M30,11h-2c-1.105,0-2,0.895-2,2v9h6v-9    C32,11.895,31.105,11,30,11L30,11z"/>
	</g>
</g>
<g>
	<g>
		<path style="fill:#F78F8F;" d="M29,9.5c-1.378,0-2.5-1.122-2.5-2.5c0-0.963,1.398-3.419,2.5-5.103c1.102,1.684,2.5,4.14,2.5,5.103    C31.5,8.378,30.378,9.5,29,9.5z"/>
		<path style="fill:#C74343;" d="M29,2.823C30.067,4.528,31,6.34,31,7c0,1.103-0.897,2-2,2s-2-0.897-2-2    C27,6.341,27.933,4.529,29,2.823 M29,1c0,0-3,4.35-3,6s1.35,3,3,3s3-1.35,3-3S29,1,29,1L29,1z"/>
	</g>
</g>
<g>
	<path style="fill:#8BB7F0;" d="M8.5,21.5V13c0-0.827,0.673-1.5,1.5-1.5h2c0.827,0,1.5,0.673,1.5,1.5v8.5H8.5z"/>
	<g>
		<path style="fill:#4E7AB5;" d="M12,12c0.551,0,1,0.449,1,1v8H9v-8c0-0.551,0.449-1,1-1H12 M12,11h-2c-1.105,0-2,0.895-2,2v9h6v-9    C14,11.895,13.105,11,12,11L12,11z"/>
	</g>
</g>
<g>
	<g>
		<path style="fill:#F78F8F;" d="M11,9.5C9.622,9.5,8.5,8.378,8.5,7c0-0.963,1.398-3.419,2.5-5.103c1.102,1.684,2.5,4.14,2.5,5.103    C13.5,8.378,12.378,9.5,11,9.5z"/>
		<path style="fill:#C74343;" d="M11,2.823C12.067,4.528,13,6.34,13,7c0,1.103-0.897,2-2,2S9,8.103,9,7    C9,6.341,9.933,4.529,11,2.823 M11,1c0,0-3,4.35-3,6s1.35,3,3,3s3-1.35,3-3S11,1,11,1L11,1z"/>
	</g>
</g>
<g>
	<g>
		<path style="fill:#FFEEA3;" d="M30,29.5c-2.152,0-3.7-1.295-4.618-2.382L25,26.667l-0.382,0.452C23.7,28.205,22.152,29.5,20,29.5    s-3.7-1.295-4.618-2.382L15,26.667l-0.382,0.452C13.7,28.205,12.152,29.5,10,29.5c-3.274,0-5.164-3.037-5.5-3.628V25    c0-1.93,1.57-3.5,3.5-3.5h24c1.93,0,3.5,1.57,3.5,3.5v0.872C35.164,26.463,33.274,29.5,30,29.5z"/>
	</g>
	<g>
		<path style="fill:#BA9B48;" d="M32,22c1.654,0,3,1.346,3,3v0.739C34.569,26.465,32.858,29,30,29c-1.961,0-3.386-1.199-4.236-2.205    L25,25.892l-0.764,0.903C23.386,27.801,21.961,29,20,29s-3.386-1.199-4.236-2.205L15,25.892l-0.764,0.903    C13.386,27.801,11.961,29,10,29c-2.838,0-4.566-2.54-5-3.263V25c0-1.654,1.346-3,3-3H32 M32,21H8c-2.209,0-4,1.791-4,4v1    c0,0,2.029,4,6,4c2.362,0,4.03-1.412,5-2.559C15.97,28.588,17.638,30,20,30s4.03-1.412,5-2.559C25.97,28.588,27.638,30,30,30    c3.971,0,6-4,6-4v-1C36,22.791,34.209,21,32,21L32,21z"/>
	</g>
</g>
</svg>