<?xml version="1.0" encoding="iso-8859-1"?><!-- Generator: Adobe Illustrator 19.2.1, SVG Export Plug-In . SVG Version: 6.00 Build 0)  --><svg xmlns="http://www.w3.org/2000/svg" xmlns:xlink="http://www.w3.org/1999/xlink" version="1.1" id="Layer_1" x="0px" y="0px" viewBox="0 0 80 80" style="enable-background:new 0 0 80 80;" xml:space="preserve" width="80" height="80">
<g>
	<path style="fill:#8BB7F0;" d="M34.5,43.5V26c0-1.93,1.57-3.5,3.5-3.5h4c1.93,0,3.5,1.57,3.5,3.5v17.5H34.5z"/>
	<g>
		<path style="fill:#4E7AB5;" d="M42,23c1.654,0,3,1.346,3,3v17H35V26c0-1.654,1.346-3,3-3H42 M42,22h-4c-2.209,0-4,1.791-4,4v18h12    V26C46,23.791,44.209,22,42,22L42,22z"/>
	</g>
</g>
<g>
	<rect x="8.5" y="51.5" style="fill:#FFC49C;" width="63" height="18"/>
	<g>
		<path style="fill:#A16A4A;" d="M71,52v17H9V52H71 M72,51H8v19h64V51L72,51z"/>
	</g>
</g>
<g>
	<g>
		<path style="fill:#C2E8FF;" d="M10,77.5c-4.136,0-7.5-3.364-7.5-7.5v-1.5h75V70c0,4.136-3.364,7.5-7.5,7.5H10z"/>
		<path style="fill:#7496C4;" d="M77,69v1c0,3.86-3.14,7-7,7H10c-3.86,0-7-3.14-7-7v-1H77 M78,68H2v2c0,4.418,3.582,8,8,8h60    c4.418,0,8-3.582,8-8V68L78,68z"/>
	</g>
</g>
<g>
	<g>
		<path style="fill:#F78F8F;" d="M40,19.5c-3.033,0-5.5-2.467-5.5-5.5c0-2.386,3.651-8.342,5.5-11.109    c1.849,2.768,5.5,8.724,5.5,11.109C45.5,17.033,43.033,19.5,40,19.5z"/>
		<path style="fill:#C74343;" d="M40,3.795c2.204,3.367,5,8.279,5,10.205c0,2.757-2.243,5-5,5s-5-2.243-5-5    C35,12.075,37.796,7.163,40,3.795 M40,2c0,0-6,8.7-6,12s2.7,6,6,6s6-2.7,6-6S40,2,40,2L40,2z"/>
	</g>
</g>
<g>
	<g>
		<path style="fill:#FFCFCF;" d="M42.5,16.5c0-1.375-2.5-5-2.5-5s-2.5,3.625-2.5,5S38.625,19,40,19S42.5,17.875,42.5,16.5z"/>
	</g>
</g>
<g>
	<path style="fill:#8BB7F0;" d="M52.5,43.5V26c0-1.93,1.57-3.5,3.5-3.5h4c1.93,0,3.5,1.57,3.5,3.5v17.5H52.5z"/>
	<g>
		<path style="fill:#4E7AB5;" d="M60,23c1.654,0,3,1.346,3,3v17H53V26c0-1.654,1.346-3,3-3H60 M60,22h-4c-2.209,0-4,1.791-4,4v18h12    V26C64,23.791,62.209,22,60,22L60,22z"/>
	</g>
</g>
<g>
	<g>
		<path style="fill:#F78F8F;" d="M58,19.5c-3.033,0-5.5-2.467-5.5-5.5c0-2.386,3.651-8.342,5.5-11.109    c1.849,2.768,5.5,8.724,5.5,11.109C63.5,17.033,61.033,19.5,58,19.5z"/>
		<path style="fill:#C74343;" d="M58,3.795c2.204,3.367,5,8.279,5,10.205c0,2.757-2.243,5-5,5s-5-2.243-5-5    C53,12.075,55.796,7.163,58,3.795 M58,2c0,0-6,8.7-6,12s2.7,6,6,6s6-2.7,6-6S58,2,58,2L58,2z"/>
	</g>
</g>
<g>
	<path style="fill:#8BB7F0;" d="M16.5,43.5V26c0-1.93,1.57-3.5,3.5-3.5h4c1.93,0,3.5,1.57,3.5,3.5v17.5H16.5z"/>
	<g>
		<path style="fill:#4E7AB5;" d="M24,23c1.654,0,3,1.346,3,3v17H17V26c0-1.654,1.346-3,3-3H24 M24,22h-4c-2.209,0-4,1.791-4,4v18h12    V26C28,23.791,26.209,22,24,22L24,22z"/>
	</g>
</g>
<g>
	<g>
		<path style="fill:#F78F8F;" d="M22,19.5c-3.033,0-5.5-2.467-5.5-5.5c0-2.386,3.651-8.342,5.5-11.109    c1.849,2.768,5.5,8.724,5.5,11.109C27.5,17.033,25.033,19.5,22,19.5z"/>
		<path style="fill:#C74343;" d="M22,3.795c2.204,3.367,5,8.279,5,10.205c0,2.757-2.243,5-5,5s-5-2.243-5-5    C17,12.075,19.796,7.163,22,3.795 M22,2c0,0-6,8.7-6,12s2.7,6,6,6s6-2.7,6-6S22,2,22,2L22,2z"/>
	</g>
</g>
<g>
	<g>
		<path style="fill:#FFEEA3;" d="M40,60.5c-5.787,0-9.887-3.228-12.308-5.936l-0.37-0.415l-0.373,0.412    C24.584,57.175,21.91,58.5,19,58.5c-6.451,0-10.055-6.731-10.5-7.616V49c0-3.033,2.467-5.5,5.5-5.5h52c3.033,0,5.5,2.467,5.5,5.5    v1.884C71.055,51.769,67.451,58.5,61,58.5c-2.91,0-5.584-1.325-7.949-3.938l-0.373-0.412l-0.37,0.415    C49.887,57.272,45.787,60.5,40,60.5z"/>
	</g>
	<g>
		<path style="fill:#BA9B48;" d="M66,44c2.757,0,5,2.243,5,5v1.764C70.401,51.916,66.953,58,61,58c-2.763,0-5.313-1.269-7.578-3.773    l-0.746-0.825l-0.741,0.829C49.582,56.863,45.602,60,40,60s-9.582-3.137-11.935-5.769l-0.741-0.829l-0.746,0.825    C24.313,56.731,21.763,58,19,58c-5.955,0-9.403-6.087-10-7.236V49c0-2.757,2.243-5,5-5H66 M66,43H14c-3.314,0-6,2.686-6,6v2    c0,0,3.719,8,11,8c3.703,0,6.479-2.069,8.319-4.102C29.713,57.576,33.949,61,40,61s10.287-3.424,12.681-6.102    C54.521,56.931,57.297,59,61,59c7.281,0,11-8,11-8v-2C72,45.686,69.314,43,66,43L66,43z"/>
	</g>
</g>
<g>
	<g>
		<path style="fill:#FFCFCF;" d="M60.5,16.5c0-1.375-2.5-5-2.5-5s-2.5,3.625-2.5,5S56.625,19,58,19S60.5,17.875,60.5,16.5z"/>
	</g>
</g>
<g>
	<g>
		<path style="fill:#FFCFCF;" d="M24.5,16.5c0-1.375-2.5-5-2.5-5s-2.5,3.625-2.5,5S20.625,19,22,19S24.5,17.875,24.5,16.5z"/>
	</g>
</g>
</svg>