<?xml version="1.0" encoding="iso-8859-1"?><!-- Generator: Adobe Illustrator 19.2.1, SVG Export Plug-In . SVG Version: 6.00 Build 0)  --><svg xmlns="http://www.w3.org/2000/svg" xmlns:xlink="http://www.w3.org/1999/xlink" version="1.1" id="Layer_1" x="0px" y="0px" viewBox="0 0 30 30" style="enable-background:new 0 0 30 30;" xml:space="preserve" width="30" height="30">
<g>
	<path style="fill:#8BB7F0;" d="M13.5,16.5V9c0-0.276,0.224-0.5,0.5-0.5h2c0.276,0,0.5,0.224,0.5,0.5v7.5H13.5z"/>
	<g>
		<path style="fill:#4E7AB5;" d="M16,9v7h-2V9H16 M16,8h-2c-0.552,0-1,0.448-1,1v8h4V9C17,8.448,16.552,8,16,8L16,8z"/>
	</g>
</g>
<g>
	<rect x="3.5" y="19.5" style="fill:#FFC49C;" width="23" height="6"/>
	<g>
		<path style="fill:#A16A4A;" d="M26,20v5H4v-5H26 M27,19H3v7h24V19L27,19z"/>
	</g>
</g>
<g>
	<g>
		<path style="fill:#C2E8FF;" d="M4,28.5c-1.378,0-2.5-1.122-2.5-2.5v-0.5h27V26c0,1.378-1.122,2.5-2.5,2.5H4z"/>
		<path style="fill:#7496C4;" d="M28,26c0,1.103-0.897,2-2,2H4c-1.103,0-2-0.897-2-2H28 M29,25H1v1c0,1.657,1.343,3,3,3h22    c1.657,0,3-1.343,3-3V25L29,25z"/>
	</g>
</g>
<g>
	<g>
		<path style="fill:#F78F8F;" d="M15,6.5c-0.827,0-1.5-0.673-1.5-1.5c0-0.543,0.78-1.969,1.5-3.095C15.72,3.031,16.5,4.457,16.5,5    C16.5,5.827,15.827,6.5,15,6.5z"/>
		<path style="fill:#C74343;" d="M15,2.855c0.575,0.97,0.991,1.84,1,2.145c0,0.551-0.449,1-1,1s-1-0.449-1-0.999    C14.009,4.696,14.425,3.825,15,2.855 M15,1c0,0-2,2.9-2,4s0.9,2,2,2s2-0.9,2-2S15,1,15,1L15,1z"/>
	</g>
</g>
<g>
	<path style="fill:#8BB7F0;" d="M20.5,16.5V9c0-0.276,0.224-0.5,0.5-0.5h2c0.276,0,0.5,0.224,0.5,0.5v7.5H20.5z"/>
	<g>
		<path style="fill:#4E7AB5;" d="M23,9v7h-2V9H23 M23,8h-2c-0.552,0-1,0.448-1,1v8h4V9C24,8.448,23.552,8,23,8L23,8z"/>
	</g>
</g>
<g>
	<g>
		<path style="fill:#F78F8F;" d="M22,6.5c-0.827,0-1.5-0.673-1.5-1.5c0-0.543,0.78-1.969,1.5-3.095C22.72,3.031,23.5,4.457,23.5,5    C23.5,5.827,22.827,6.5,22,6.5z"/>
		<path style="fill:#C74343;" d="M22,2.855c0.575,0.97,0.991,1.84,1,2.145c0,0.551-0.449,1-1,1s-1-0.449-1-0.999    C21.009,4.696,21.425,3.825,22,2.855 M22,1c0,0-2,2.9-2,4s0.9,2,2,2s2-0.9,2-2S22,1,22,1L22,1z"/>
	</g>
</g>
<g>
	<path style="fill:#8BB7F0;" d="M6.5,16.5V9c0-0.276,0.224-0.5,0.5-0.5h2c0.276,0,0.5,0.224,0.5,0.5v7.5H6.5z"/>
	<g>
		<path style="fill:#4E7AB5;" d="M9,9v7H7V9H9 M9,8H7C6.448,8,6,8.448,6,9v8h4V9C10,8.448,9.552,8,9,8L9,8z"/>
	</g>
</g>
<g>
	<g>
		<path style="fill:#F78F8F;" d="M8,6.5C7.173,6.5,6.5,5.827,6.5,5c0-0.543,0.78-1.969,1.5-3.095C8.72,3.031,9.5,4.457,9.5,5    C9.5,5.827,8.827,6.5,8,6.5z"/>
		<path style="fill:#C74343;" d="M8,2.855C8.575,3.825,8.991,4.695,9,5c0,0.551-0.449,1-1,1S7,5.551,7,5.001    C7.009,4.696,7.425,3.825,8,2.855 M8,1c0,0-2,2.9-2,4s0.9,2,2,2s2-0.9,2-2S8,1,8,1L8,1z"/>
	</g>
</g>
<g>
	<g>
		<path style="fill:#FFEEA3;" d="M23,22.5c-1.489,0-2.518-1.069-3.119-1.966l-0.383-0.571l-0.426,0.541    C18.356,21.414,17.067,22.5,15,22.5s-3.356-1.086-4.073-1.997l-0.426-0.541l-0.383,0.571C9.518,21.431,8.489,22.5,7,22.5    c-2.078,0-3.267-2.148-3.5-2.613V19c0-1.378,1.122-2.5,2.5-2.5h18c1.378,0,2.5,1.122,2.5,2.5v0.887    C26.267,20.352,25.078,22.5,23,22.5z"/>
	</g>
	<g>
		<path style="fill:#BA9B48;" d="M24,17c1.103,0,2,0.897,2,2v0.765C25.708,20.309,24.666,22,23,22c-1.268,0-2.17-0.949-2.704-1.745    l-0.766-1.143l-0.851,1.081C18.031,21.018,16.867,22,15,22s-3.031-0.982-3.68-1.806l-0.851-1.081l-0.766,1.143    C9.17,21.051,8.268,22,7,22c-1.673,0-2.709-1.689-3-2.234V19c0-1.103,0.897-2,2-2H24 M24,16H6c-1.657,0-3,1.343-3,3v1    c0,0,1.316,3,4,3c1.768,0,2.939-1.299,3.534-2.188C11.234,21.701,12.653,23,15,23s3.766-1.299,4.466-2.188    C20.061,21.701,21.232,23,23,23c2.684,0,4-3,4-3v-1C27,17.343,25.657,16,24,16L24,16z"/>
	</g>
</g>
</svg>