<?xml version="1.0" encoding="iso-8859-1"?><!-- Generator: Adobe Illustrator 19.2.1, SVG Export Plug-In . SVG Version: 6.00 Build 0)  --><svg xmlns="http://www.w3.org/2000/svg" xmlns:xlink="http://www.w3.org/1999/xlink" version="1.1" id="Layer_1" x="0px" y="0px" viewBox="0 0 16 16" style="enable-background:new 0 0 16 16;" xml:space="preserve" width="16" height="16">
<g>
	<path style="fill:#4E7AB5;" d="M9,9H7V4.5C7,4.224,7.224,4,7.5,4h1C8.776,4,9,4.224,9,4.5V9z"/>
</g>
<g>
	<rect x="1.5" y="10.5" style="fill:#FFC49C;" width="13" height="4"/>
	<g>
		<path style="fill:#A16A4A;" d="M14,11v3H2v-3H14 M15,10H1v5h14V10L15,10z"/>
	</g>
</g>
<g>
	<g>
		<path style="fill:#7496C4;" d="M16,14H0v0c0,1.105,0.895,2,2,2h12C15.105,16,16,15.105,16,14L16,14L16,14z"/>
	</g>
</g>
<g>
	<g>
		<path style="fill:#C74343;" d="M9.5,2.5C9.5,1.675,8,0,8,0S6.5,1.675,6.5,2.5S7.175,4,8,4S9.5,3.325,9.5,2.5z"/>
	</g>
</g>
<g>
	<path style="fill:#4E7AB5;" d="M13,9h-2V4.5C11,4.224,11.224,4,11.5,4h1C12.776,4,13,4.224,13,4.5V9z"/>
</g>
<g>
	<g>
		<path style="fill:#C74343;" d="M13.5,2.5C13.5,1.675,12,0,12,0s-1.5,1.675-1.5,2.5S11.175,4,12,4S13.5,3.325,13.5,2.5z"/>
	</g>
</g>
<g>
	<path style="fill:#4E7AB5;" d="M5,9H3V4.5C3,4.224,3.224,4,3.5,4h1C4.776,4,5,4.224,5,4.5V9z"/>
</g>
<g>
	<g>
		<path style="fill:#C74343;" d="M5.5,2.5C5.5,1.675,4,0,4,0S2.5,1.675,2.5,2.5S3.175,4,4,4S5.5,3.325,5.5,2.5z"/>
	</g>
</g>
<g>
	<g>
		<path style="fill:#FFEEA3;" d="M12,11.5c-0.603,0-1.152-0.198-1.633-0.588l-0.309-0.25l-0.314,0.244C9.23,11.306,8.66,11.5,8,11.5    s-1.23-0.194-1.745-0.595l-0.314-0.244l-0.309,0.25C5.152,11.302,4.603,11.5,4,11.5c-1.557,0-2.313-1.285-2.491-1.636    C1.572,9.097,2.21,8.5,3,8.5h10c0.787,0,1.423,0.592,1.49,1.366C14.312,10.218,13.555,11.5,12,11.5z"/>
	</g>
	<g>
		<path style="fill:#BA9B48;" d="M13,9c0.476,0,0.87,0.327,0.971,0.774C13.74,10.168,13.121,11,12,11    c-0.492,0-0.923-0.156-1.318-0.476l-0.617-0.502l-0.628,0.489C9.015,10.84,8.544,11,8,11s-1.015-0.16-1.437-0.489l-0.628-0.489    l-0.617,0.502C4.923,10.844,4.492,11,4,11c-1.121,0-1.74-0.832-1.971-1.226C2.13,9.327,2.524,9,3,9H13 M13,8H3    C1.911,8,1.029,8.872,1.005,9.955c0,0-0.005,0.003-0.005,0.003s0.003,0.007,0.003,0.007C1.003,9.977,1,9.988,1,10h0.02    c0.098,0.215,0.97,2,2.98,2c0.84,0,1.477-0.317,1.948-0.7C6.428,11.673,7.093,12,8,12s1.572-0.327,2.052-0.7    C10.523,11.683,11.16,12,12,12c2.01,0,2.883-1.785,2.98-2H15c0-0.012-0.003-0.023-0.003-0.034c0,0,0.003-0.007,0.003-0.007    s-0.004-0.003-0.005-0.003C14.971,8.872,14.089,8,13,8L13,8z"/>
	</g>
</g>
</svg>