<?xml version="1.0" encoding="iso-8859-1"?><!-- Generator: Adobe Illustrator 19.2.1, SVG Export Plug-In . SVG Version: 6.00 Build 0)  --><svg xmlns="http://www.w3.org/2000/svg" xmlns:xlink="http://www.w3.org/1999/xlink" version="1.1" id="Layer_1" x="0px" y="0px" viewBox="0 0 30 30" style="enable-background:new 0 0 30 30;" xml:space="preserve" width="30" height="30">
<g>
	<rect x="3.5" y="7.5" style="fill:#FFC49C;" width="23" height="19"/>
	<path style="fill:#A16A4A;" d="M26,8v18H4V8H26 M27,7H3v20h24V7L27,7z"/>
</g>
<g>
	<rect x="2.5" y="3.5" style="fill:#FFC49C;" width="25" height="4"/>
	<path style="fill:#A16A4A;" d="M27,4v3H3V4H27 M28,3H2v5h26V3L28,3z"/>
</g>
<path style="fill:#A16A4A;" d="M19,12h-8c-0.552,0-1-0.448-1-1v0c0-0.552,0.448-1,1-1h8c0.552,0,1,0.448,1,1v0  C20,11.552,19.552,12,19,12z"/>
</svg>