<?xml version="1.0" encoding="iso-8859-1"?><!-- Generator: Adobe Illustrator 19.2.1, SVG Export Plug-In . SVG Version: 6.00 Build 0)  --><svg xmlns="http://www.w3.org/2000/svg" xmlns:xlink="http://www.w3.org/1999/xlink" version="1.1" id="Layer_1" x="0px" y="0px" viewBox="0 0 80 80" style="enable-background:new 0 0 80 80;" xml:space="preserve" width="80" height="80">
<g>
	<rect x="6.5" y="14.5" style="fill:#FFC49C;" width="67" height="59"/>
	<path style="fill:#A16A4A;" d="M73,15v58H7V15H73 M74,14H6v60h68V14L74,14z"/>
</g>
<g>
	<rect x="4.5" y="6.5" style="fill:#FFC49C;" width="71" height="9"/>
	<path style="fill:#A16A4A;" d="M75,7v8H5V7H75 M76,6H4v10h72V6L76,6z"/>
</g>
<path style="fill:#A16A4A;" d="M49.5,27h-19c-1.381,0-2.5-1.119-2.5-2.5v0c0-1.381,1.119-2.5,2.5-2.5h19c1.381,0,2.5,1.119,2.5,2.5  v0C52,25.881,50.881,27,49.5,27z"/>
</svg>