<?xml version="1.0" encoding="iso-8859-1"?><!-- Generator: Adobe Illustrator 19.2.1, SVG Export Plug-In . SVG Version: 6.00 Build 0)  --><svg xmlns="http://www.w3.org/2000/svg" xmlns:xlink="http://www.w3.org/1999/xlink" version="1.1" id="Layer_1" x="0px" y="0px" viewBox="0 0 30 30" style="enable-background:new 0 0 30 30;" xml:space="preserve" width="30" height="30">
<g>
	<path style="fill:#967A44;" d="M19,2c0.551,0,1,0.449,1,1v2H10V3c0-0.551,0.449-1,1-1H19 M19,1h-8C9.895,1,9,1.895,9,3v3h12V3   C21,1.895,20.105,1,19,1L19,1z"/>
</g>
<g>
	<rect x="1.5" y="10.5" style="fill:#F5CE85;" width="27" height="15"/>
	<path style="fill:#967A44;" d="M28,11v14H2V11H28 M29,10H1v16h28V10L29,10z"/>
</g>
<g>
	<path style="fill:#F5CE85;" d="M5,16.5c-1.93,0-3.5-1.57-3.5-3.5V4.5h27V13c0,1.93-1.57,3.5-3.5,3.5H5z"/>
	<g>
		<path style="fill:#967A44;" d="M28,5v8c0,1.654-1.346,3-3,3H5c-1.654,0-3-1.346-3-3V5H28 M29,4H1v9c0,2.209,1.791,4,4,4h20    c2.209,0,4-1.791,4-4V4L29,4z"/>
	</g>
</g>
<circle style="fill:#967A44;" cx="15" cy="13" r="1"/>
<path style="fill:#967A44;" d="M22,5h-3V4.5C19,3.672,19.672,3,20.5,3h0C21.328,3,22,3.672,22,4.5V5z"/>
<path style="fill:#967A44;" d="M11,5H8V4.5C8,3.672,8.672,3,9.5,3h0C10.328,3,11,3.672,11,4.5V5z"/>
</svg>