<?xml version="1.0" encoding="iso-8859-1"?><!-- Generator: Adobe Illustrator 19.2.1, SVG Export Plug-In . SVG Version: 6.00 Build 0)  --><svg xmlns="http://www.w3.org/2000/svg" xmlns:xlink="http://www.w3.org/1999/xlink" version="1.1" id="Layer_1" x="0px" y="0px" viewBox="0 0 40 40" style="enable-background:new 0 0 40 40;" xml:space="preserve" width="40" height="40">
<g>
	<path style="fill:#967A44;" d="M25,2c0.551,0,1,0.449,1,1v3H14V3c0-0.551,0.449-1,1-1H25 M25,1H15c-1.105,0-2,0.895-2,2v4h14V3   C27,1.895,26.105,1,25,1L25,1z"/>
</g>
<g>
	<rect x="1.5" y="15.5" style="fill:#F5CE85;" width="37" height="20"/>
	<path style="fill:#967A44;" d="M38,16v19H2V16H38 M39,15H1v21h38V15L39,15z"/>
</g>
<g>
	<path style="fill:#F5CE85;" d="M5,21.5c-1.93,0-3.5-1.57-3.5-3.5V4.5h37V18c0,1.93-1.57,3.5-3.5,3.5H5z"/>
	<g>
		<path style="fill:#967A44;" d="M38,5v13c0,1.654-1.346,3-3,3H5c-1.654,0-3-1.346-3-3V5H38 M39,4H1v14c0,2.209,1.791,4,4,4h30    c2.209,0,4-1.791,4-4V4L39,4z"/>
	</g>
</g>
<circle style="fill:#967A44;" cx="20" cy="17" r="2"/>
<path style="fill:#967A44;" d="M28,5h-3V4.5C25,3.672,25.672,3,26.5,3h0C27.328,3,28,3.672,28,4.5V5z"/>
<path style="fill:#967A44;" d="M15,5h-3V4.5C12,3.672,12.672,3,13.5,3h0C14.328,3,15,3.672,15,4.5V5z"/>
</svg>