<?xml version="1.0" encoding="iso-8859-1"?><!-- Generator: Adobe Illustrator 19.2.1, SVG Export Plug-In . SVG Version: 6.00 Build 0)  --><svg xmlns="http://www.w3.org/2000/svg" xmlns:xlink="http://www.w3.org/1999/xlink" version="1.1" id="Layer_1" x="0px" y="0px" viewBox="0 0 80 80" style="enable-background:new 0 0 80 80;" xml:space="preserve" width="80" height="80">
<g>
	<path style="fill:#967A44;" d="M50,3c1.654,0,3,1.346,3,3v7H27V6c0-1.654,1.346-3,3-3H50 M50,2H30c-2.209,0-4,1.791-4,4v8h28V6   C54,3.791,52.209,2,50,2L50,2z"/>
</g>
<path style="fill:#967A44;" d="M56,9.333h-5V8.5C51,7.119,52.119,6,53.5,6h0C54.881,6,56,7.119,56,8.5V9.333z"/>
<path style="fill:#967A44;" d="M29,9.333h-5V8.5C24,7.119,25.119,6,26.5,6h0C27.881,6,29,7.119,29,8.5V9.333z"/>
<g>
	<rect x="2.5" y="30.5" style="fill:#F5CE85;" width="75" height="41"/>
	<path style="fill:#967A44;" d="M77,31v40H3V31H77 M78,30H2v42h76V30L78,30z"/>
</g>
<g>
	<path style="fill:#F5CE85;" d="M10,43.5c-4.136,0-7.5-3.364-7.5-7.5V8.5h75V36c0,4.136-3.364,7.5-7.5,7.5H10z"/>
	<g>
		<path style="fill:#967A44;" d="M77,9v27c0,3.86-3.14,7-7,7H10c-3.86,0-7-3.14-7-7V9H77 M78,8H2v28c0,4.418,3.582,8,8,8h60    c4.418,0,8-3.582,8-8V8L78,8z"/>
	</g>
</g>
<circle style="fill:#967A44;" cx="40" cy="34" r="3"/>
</svg>