<?xml version="1.0" encoding="iso-8859-1"?><!-- Generator: Adobe Illustrator 19.2.1, SVG Export Plug-In . SVG Version: 6.00 Build 0)  --><svg xmlns="http://www.w3.org/2000/svg" xmlns:xlink="http://www.w3.org/1999/xlink" version="1.1" id="Layer_1" x="0px" y="0px" viewBox="0 0 40 40" style="enable-background:new 0 0 40 40;" xml:space="preserve" width="40" height="40">
<g>
	<path style="fill:#F5CE85;" d="M1.61,38.39c0.453-2.582,2.178-11.642,4.465-13.93c1.264-1.264,2.944-1.96,4.732-1.96   s3.468,0.696,4.732,1.96c2.609,2.609,2.609,6.855,0,9.464C13.251,36.212,4.192,37.937,1.61,38.39z"/>
	<path style="fill:#967A44;" d="M10.808,23c1.654,0,3.209,0.644,4.379,1.814c2.414,2.414,2.414,6.343,0,8.757   c-1.864,1.864-9.045,3.49-12.962,4.205c0.714-3.916,2.34-11.097,4.205-12.962C7.599,23.644,9.154,23,10.808,23 M10.808,22   c-1.841,0-3.681,0.702-5.086,2.107C2.913,26.915,1,39,1,39s12.085-1.913,14.893-4.722c2.809-2.809,2.809-7.363,0-10.171   C14.489,22.702,12.648,22,10.808,22L10.808,22z"/>
</g>
<g>
	<polygon style="fill:#FFC49C;" points="25.422,9.235 32.61,1.715 38.285,7.39 30.765,14.578  "/>
	<g>
		<path style="fill:#A16A4A;" d="M32.618,2.43l4.951,4.952l-6.796,6.496l-4.651-4.651L32.618,2.43 M32.602,1l-7.879,8.243    l6.034,6.034L39,7.399L32.602,1L32.602,1z"/>
	</g>
</g>
<g>
	<polygon style="fill:#DCD5F2;" points="12.694,22.636 25.64,8.72 31.28,14.36 17.363,27.306  "/>
	<g>
		<path style="fill:#8B75A1;" d="M25.652,9.44l4.907,4.907L17.375,26.611l-3.986-3.987L25.652,9.44 M25.626,7.999L12,22.649    L17.35,28L32,14.373L25.626,7.999L25.626,7.999z"/>
	</g>
</g>
</svg>