<?xml version="1.0" encoding="iso-8859-1"?><!-- Generator: Adobe Illustrator 19.2.1, SVG Export Plug-In . SVG Version: 6.00 Build 0)  --><svg xmlns="http://www.w3.org/2000/svg" xmlns:xlink="http://www.w3.org/1999/xlink" version="1.1" id="Layer_1" x="0px" y="0px" viewBox="0 0 30 30" style="enable-background:new 0 0 30 30;" xml:space="preserve" width="30" height="30">
<g>
	<path style="fill:#F5CE85;" d="M1.609,28.391c0.512-2.915,1.822-8.893,3.355-10.427C5.909,17.02,7.165,16.5,8.5,16.5   s2.591,0.52,3.536,1.464c1.95,1.95,1.95,5.122,0,7.071C10.502,26.569,4.523,27.879,1.609,28.391z"/>
	<path style="fill:#967A44;" d="M8.5,17c1.202,0,2.332,0.468,3.182,1.318C12.532,19.168,13,20.298,13,21.5   c0,1.202-0.468,2.332-1.318,3.182c-1.223,1.223-5.976,2.44-9.454,3.09c0.65-3.478,1.866-8.23,3.09-9.454   C6.168,17.468,7.298,17,8.5,17 M8.5,16c-1.408,0-2.815,0.537-3.889,1.611C2.463,19.759,1,29,1,29s9.241-1.463,11.389-3.611   c2.148-2.148,2.148-5.63,0-7.778C11.315,16.537,9.908,16,8.5,16L8.5,16z"/>
</g>
<g>
	<polygon style="fill:#FFC49C;" points="19.373,6.523 23.929,1.717 28.283,6.072 23.477,10.627  "/>
	<g>
		<path style="fill:#A16A4A;" d="M23.938,2.433l3.629,3.629l-4.08,3.867L20.07,6.514L23.938,2.433 M23.919,1l-5.244,5.533    l4.792,4.792L29,6.082L23.919,1L23.919,1z"/>
	</g>
</g>
<g>
	<polygon style="fill:#DCD5F2;" points="9.694,16.922 19.366,6.524 23.476,10.633 13.078,20.306  "/>
	<g>
		<path style="fill:#8B75A1;" d="M19.379,7.244l3.376,3.376l-9.666,8.991l-2.701-2.702L19.379,7.244 M19.353,5.804L9,16.935    L13.065,21l11.131-10.354L19.353,5.804L19.353,5.804z"/>
	</g>
</g>
</svg>