<?xml version="1.0" encoding="iso-8859-1"?><!-- Generator: Adobe Illustrator 19.2.1, SVG Export Plug-In . SVG Version: 6.00 Build 0)  --><svg xmlns="http://www.w3.org/2000/svg" xmlns:xlink="http://www.w3.org/1999/xlink" version="1.1" id="Layer_1" x="0px" y="0px" viewBox="0 0 16 16" style="enable-background:new 0 0 16 16;" xml:space="preserve" width="16" height="16">
<g>
	<path style="fill:#F5CE85;" d="M0.613,15.387c0.339-1.849,1.097-5.177,1.963-6.042C3.121,8.8,3.845,8.5,4.616,8.5   c0.771,0,1.495,0.3,2.04,0.845c1.125,1.125,1.125,2.955,0,4.08C5.79,14.29,2.461,15.048,0.613,15.387z"/>
	<path style="fill:#967A44;" d="M4.615,9c0.637,0,1.236,0.248,1.686,0.698c0.93,0.93,0.93,2.443,0,3.372   c-0.607,0.607-2.991,1.269-5.06,1.688c0.419-2.069,1.081-4.453,1.688-5.06C3.38,9.248,3.978,9,4.615,9 M4.615,8   C3.749,8,2.883,8.33,2.222,8.991C0.9,10.313,0,16,0,16s5.687-0.9,7.009-2.222c1.322-1.322,1.322-3.465,0-4.787   C6.348,8.33,5.482,8,4.615,8L4.615,8z"/>
</g>
<g>
	<polygon style="fill:#FFC49C;" points="9.62,4.032 12.677,0.722 15.279,3.324 11.976,6.387  "/>
	<g>
		<path style="fill:#A16A4A;" d="M12.691,1.443l1.867,1.867l-2.57,2.383l-1.675-1.675L12.691,1.443 M12.663,0L8.927,4.045    l3.035,3.035L16,3.338L12.663,0L12.663,0z"/>
	</g>
</g>
<g>
	<polygon style="fill:#DCD5F2;" points="5.663,8.339 9.683,3.881 12.119,6.317 7.661,10.337  "/>
	<g>
		<path style="fill:#8B75A1;" d="M9.702,4.607l1.691,1.691l-3.714,3.35L6.352,8.321L9.702,4.607 M9.664,3.155L4.974,8.356l2.67,2.67    l5.201-4.691L9.664,3.155L9.664,3.155z"/>
	</g>
</g>
</svg>