<?xml version="1.0" encoding="iso-8859-1"?><!-- Generator: Adobe Illustrator 19.2.1, SVG Export Plug-In . SVG Version: 6.00 Build 0)  --><svg xmlns="http://www.w3.org/2000/svg" xmlns:xlink="http://www.w3.org/1999/xlink" version="1.1" id="Layer_1" x="0px" y="0px" viewBox="0 0 80 80" style="enable-background:new 0 0 80 80;" xml:space="preserve" width="80" height="80">
<g>
	<path style="fill:#F5CE85;" d="M2.608,77.392c0.675-3.966,4.273-23.91,9.189-28.825c2.623-2.623,6.109-4.067,9.818-4.067   c3.709,0,7.195,1.444,9.818,4.067s4.067,6.109,4.067,9.818c0,3.708-1.444,7.195-4.067,9.818   C26.518,73.119,6.574,76.717,2.608,77.392z"/>
	<path style="fill:#967A44;" d="M21.615,45c3.575,0,6.936,1.392,9.464,3.92c5.219,5.219,5.219,13.71,0,18.929   c-4.575,4.575-22.697,8.025-27.859,8.93c0.378-2.162,1.202-6.598,2.369-11.34c2.126-8.64,4.395-14.352,6.561-16.519   C14.679,46.392,18.04,45,21.615,45 M21.615,44c-3.681,0-7.363,1.404-10.171,4.213C5.826,53.831,2,78,2,78   s24.169-3.826,29.787-9.444c5.618-5.618,5.618-14.725,0-20.343C28.978,45.404,25.297,44,21.615,44L21.615,44z"/>
</g>
<g>
	<polygon style="fill:#FFC49C;" points="50.146,18.478 65.212,2.715 77.285,14.789 61.522,29.855  "/>
	<g>
		<path style="fill:#A16A4A;" d="M65.221,3.43l11.349,11.35L61.531,29.156L50.845,18.47L65.221,3.43 M65.205,2L49.447,18.486    l12.068,12.068L78,14.797L65.205,2L65.205,2z"/>
	</g>
</g>
<g>
	<polygon style="fill:#DCD5F2;" points="25.197,44.917 51.426,16.719 63.28,28.573 35.081,54.803  "/>
	<g>
		<path style="fill:#8B75A1;" d="M51.439,17.439L62.56,28.56L35.093,54.108l-9.202-9.203L51.439,17.439 M51.413,15.999L24.503,44.93    l10.566,10.567L64,28.586L51.413,15.999L51.413,15.999z"/>
	</g>
</g>
</svg>