<?xml version="1.0" encoding="iso-8859-1"?><!-- Generator: Adobe Illustrator 19.2.1, SVG Export Plug-In . SVG Version: 6.00 Build 0)  --><svg xmlns="http://www.w3.org/2000/svg" xmlns:xlink="http://www.w3.org/1999/xlink" version="1.1" id="Layer_1" x="0px" y="0px" viewBox="0 0 30 30" style="enable-background:new 0 0 30 30;" xml:space="preserve" width="30" height="30">
<rect x="9" y="6" style="fill:#36404D;" width="20" height="1"/>
<rect x="9" y="24" style="fill:#36404D;" width="20" height="1"/>
<rect x="9" y="15" style="fill:#36404D;" width="20" height="1"/>
<g>
	<circle style="fill:#8BB7F0;" cx="3.5" cy="6.5" r="2"/>
	<path style="fill:#4E7AB5;" d="M3.5,5C4.327,5,5,5.673,5,6.5S4.327,8,3.5,8S2,7.327,2,6.5S2.673,5,3.5,5 M3.5,4   C2.119,4,1,5.119,1,6.5S2.119,9,3.5,9S6,7.881,6,6.5S4.881,4,3.5,4L3.5,4z"/>
</g>
<g>
	<circle style="fill:#8BB7F0;" cx="3.5" cy="15.5" r="2"/>
	<path style="fill:#4E7AB5;" d="M3.5,14C4.327,14,5,14.673,5,15.5S4.327,17,3.5,17S2,16.327,2,15.5S2.673,14,3.5,14 M3.5,13   C2.119,13,1,14.119,1,15.5S2.119,18,3.5,18S6,16.881,6,15.5S4.881,13,3.5,13L3.5,13z"/>
</g>
<g>
	<circle style="fill:#8BB7F0;" cx="3.5" cy="24.5" r="2"/>
	<path style="fill:#4E7AB5;" d="M3.5,23C4.327,23,5,23.673,5,24.5S4.327,26,3.5,26S2,25.327,2,24.5S2.673,23,3.5,23 M3.5,22   C2.119,22,1,23.119,1,24.5S2.119,27,3.5,27S6,25.881,6,24.5S4.881,22,3.5,22L3.5,22z"/>
</g>
</svg>