<?xml version="1.0" encoding="iso-8859-1"?><!-- Generator: Adobe Illustrator 19.2.1, SVG Export Plug-In . SVG Version: 6.00 Build 0)  --><svg xmlns="http://www.w3.org/2000/svg" xmlns:xlink="http://www.w3.org/1999/xlink" version="1.1" id="Layer_1" x="0px" y="0px" viewBox="0 0 40 40" style="enable-background:new 0 0 40 40;" xml:space="preserve" width="40" height="40">
<rect x="12" y="8" style="fill:#36404D;" width="27" height="1"/>
<g>
	<circle style="fill:#8BB7F0;" cx="4.5" cy="8.5" r="3"/>
	<path style="fill:#4E7AB5;" d="M4.5,6C5.879,6,7,7.121,7,8.5S5.879,11,4.5,11S2,9.879,2,8.5S3.121,6,4.5,6 M4.5,5   C2.567,5,1,6.567,1,8.5S2.567,12,4.5,12C6.433,12,8,10.433,8,8.5S6.433,5,4.5,5L4.5,5z"/>
</g>
<rect x="12" y="20" style="fill:#36404D;" width="27" height="1"/>
<g>
	<circle style="fill:#8BB7F0;" cx="4.5" cy="20.5" r="3"/>
	<path style="fill:#4E7AB5;" d="M4.5,18C5.879,18,7,19.121,7,20.5S5.879,23,4.5,23S2,21.879,2,20.5S3.121,18,4.5,18 M4.5,17   C2.567,17,1,18.567,1,20.5S2.567,24,4.5,24C6.433,24,8,22.433,8,20.5S6.433,17,4.5,17L4.5,17z"/>
</g>
<rect x="12" y="32" style="fill:#36404D;" width="27" height="1"/>
<g>
	<circle style="fill:#8BB7F0;" cx="4.5" cy="32.5" r="3"/>
	<path style="fill:#4E7AB5;" d="M4.5,30C5.879,30,7,31.121,7,32.5S5.879,35,4.5,35S2,33.879,2,32.5S3.121,30,4.5,30 M4.5,29   C2.567,29,1,30.567,1,32.5S2.567,36,4.5,36C6.433,36,8,34.433,8,32.5S6.433,29,4.5,29L4.5,29z"/>
</g>
</svg>