<?xml version="1.0" encoding="iso-8859-1"?><!-- Generator: Adobe Illustrator 19.2.1, SVG Export Plug-In . SVG Version: 6.00 Build 0)  --><svg xmlns="http://www.w3.org/2000/svg" xmlns:xlink="http://www.w3.org/1999/xlink" version="1.1" id="Layer_1" x="0px" y="0px" viewBox="0 0 30 30" style="enable-background:new 0 0 30 30;" xml:space="preserve" width="30" height="30">
<g>
	<g>
		<path style="fill:#8BB7F0;" d="M3.512,28.5c0.328-6.742,7.266-7.957,7.568-8.006L19,20.5c0.222,0.044,7.159,1.281,7.488,8H3.512z"/>
		<path style="fill:#4E7AB5;" d="M18.912,21c0.761,0.143,6.427,1.394,7.035,7H4.053c0.61-5.606,6.289-6.859,7.035-7H18.912 M19,20    h-8c0,0-8,1.291-8,9h24C27,21.318,19,20,19,20L19,20z"/>
	</g>
</g>
<g>
	<path style="fill:#E8D47B;" d="M15,24.5c-2.252,0-3.305-2.072-3.5-2.505V16.5h7v5.496C18.302,22.441,17.267,24.5,15,24.5z"/>
	<path style="fill:#BA9B48;" d="M18,17v4.885C17.751,22.4,16.831,24,15,24c-1.834,0-2.754-1.605-3-2.114V17H18 M19,16h-8v6.097   c0,0,1.126,2.903,4,2.903s4-2.903,4-2.903V16L19,16z"/>
</g>
<g>
	<g>
		<path style="fill:#FFEEA3;" d="M15,20.5c-0.429,0-0.841-0.192-1.129-0.526l-0.102-0.118l-0.151-0.039    C11.193,19.189,9.5,17.002,9.5,14.5V7.526c0-1.301,1.059-2.36,2.359-2.36h6.281c1.301,0,2.359,1.059,2.359,2.36V14.5    c0,2.502-1.693,4.689-4.118,5.317l-0.151,0.039l-0.102,0.118C15.841,20.309,15.429,20.5,15,20.5z"/>
	</g>
	<g>
		<path style="fill:#BA9B48;" d="M18.14,5.667c1.025,0,1.86,0.834,1.86,1.86V14.5c0,2.274-1.539,4.262-3.743,4.833l-0.302,0.078    l-0.204,0.236C15.637,19.779,15.388,20,15,20s-0.637-0.221-0.751-0.353l-0.204-0.236l-0.302-0.078    C11.539,18.762,10,16.774,10,14.5V7.526c0-1.025,0.834-1.86,1.859-1.86H18.14 M18.14,4.667h-6.281C10.28,4.667,9,5.947,9,7.526    V14.5c0,2.792,1.91,5.132,4.492,5.801C13.859,20.726,14.395,21,15,21s1.141-0.274,1.508-0.699C19.09,19.632,21,17.292,21,14.5    V7.526C21,5.947,19.72,4.667,18.14,4.667L18.14,4.667z"/>
	</g>
</g>
<g>
	<path style="fill:#FFC49C;" d="M20.63,19.5c-1.075,0-1.961-0.279-2.533-0.524c0.937-0.712,2.403-2.21,2.403-4.605v-3.58   c0-1.961-2.363-3.152-2.463-3.202l-0.428-0.212l-0.231,0.418c-0.047,0.083-1.225,2.101-4.557,2.562   c-2.017,0.278-3.32,1.735-3.32,3.712v0.302c0,2.395,1.412,3.867,2.352,4.581C11.22,19.206,10.297,19.5,9.408,19.5   c-1.275,0-2.622-0.589-3.378-0.982c0.691-0.637,1.729-1.858,1.729-3.443c0-0.723-0.16-1.462-0.329-2.246   c-0.184-0.854-0.375-1.737-0.375-2.674c0-5.417,3.682-8.654,7.241-8.654c2.613,0,3.748,1.794,3.795,1.871l0.146,0.238l0.281,0.002   c2.132,0,4.426,1.607,4.426,5.136c0,1.137-0.195,2.347-0.383,3.518c-0.165,1.027-0.321,1.998-0.321,2.81   c0,1.471,1.065,2.433,1.779,2.912C23.351,18.561,22.042,19.5,20.63,19.5z"/>
	<g>
		<path style="fill:#A16A4A;" d="M14.296,2c2.314,0,3.329,1.569,3.366,1.627l0.292,0.484h0.565c1.891,0,3.926,1.451,3.926,4.636    c0,1.098-0.191,2.288-0.376,3.438c-0.168,1.048-0.327,2.037-0.327,2.889c0,1.343,0.756,2.308,1.468,2.919    C22.552,18.475,21.61,19,20.63,19c-0.588,0-1.115-0.091-1.555-0.211C19.997,17.891,21,16.439,21,14.371v-3.58    c0-2.23-2.461-3.511-2.742-3.65l-0.844-0.405l-0.47,0.809c-0.045,0.077-1.133,1.894-4.193,2.317C10.508,10.172,9,11.862,9,14.069    v0.159v0.143c0,2.065,0.966,3.5,1.876,4.393C10.418,18.898,9.905,19,9.408,19c-0.888,0-1.825-0.317-2.537-0.631    c0.673-0.759,1.388-1.895,1.388-3.295c0-0.776-0.165-1.541-0.34-2.351c-0.179-0.828-0.364-1.685-0.364-2.569    C7.555,5.051,10.983,2,14.296,2 M14.296,1c-4.008,0-7.741,3.617-7.741,9.154c0,1.859,0.704,3.488,0.704,4.92    c0,2.089-2.111,3.519-2.111,3.519S7.327,20,9.408,20c1.713,0,3.479-0.976,3.479-0.976S10,17.611,10,14.371    c0-0.107,0-0.143,0-0.143v0.136c0,0,0-0.067,0-0.295c0-1.907,1.329-3.001,2.889-3.217c3.649-0.504,4.926-2.815,4.926-2.815    S20,9.118,20,10.791c0,0.792,0,2.28,0,3.58c0,3.178-2.889,4.654-2.889,4.654S18.527,20,20.63,20c2.277,0,4.222-2.111,4.222-2.111    s-2.111-0.947-2.111-2.815c0-1.66,0.704-4.127,0.704-6.327c0-3.731-2.475-5.636-4.926-5.636C18.519,3.111,17.246,1,14.296,1    L14.296,1z"/>
	</g>
</g>
</svg>