<?xml version="1.0" encoding="iso-8859-1"?><!-- Generator: Adobe Illustrator 19.2.1, SVG Export Plug-In . SVG Version: 6.00 Build 0)  --><svg xmlns="http://www.w3.org/2000/svg" xmlns:xlink="http://www.w3.org/1999/xlink" version="1.1" id="Layer_1" x="0px" y="0px" viewBox="0 0 16 16" style="enable-background:new 0 0 16 16;" xml:space="preserve" width="16" height="16">
<g>
	<path style="fill:#8BB7F0;" d="M1.527,15.5c0.375-3.367,4.5-3.999,4.544-4.005L10,11.5c0.108,0.021,4.107,0.659,4.474,4H1.527z"/>
	<g>
		<path style="fill:#4E7AB5;" d="M9.918,12c0.484,0.087,3.304,0.686,3.95,3H2.131c0.646-2.328,3.477-2.917,3.949-3H9.918 M10,11H6    c0,0-5,0.717-5,5h14C15,11.732,10,11,10,11L10,11z"/>
	</g>
</g>
<g>
	<polygon style="fill:#E8D47B;" points="6.502,11.838 6.53,8.5 9.5,8.5 9.5,11.852 8.016,12.988  "/>
	<path style="fill:#BA9B48;" d="M9,9v2.605L8.015,12.36l-1.01-0.768L7.026,9H9 M10,8H6.034L6,12.085l2.017,1.532L10,12.099V8L10,8z"/>
</g>
<g>
	<g>
		<path style="fill:#FFEEA3;" d="M8,10.5c-0.24,0-0.402-0.145-0.477-0.231l-0.096-0.11l-0.139-0.042    C6.381,9.846,5.713,9.104,5.546,8.181L5.48,7.823L5.12,7.774C4.909,7.746,4.6,7.37,4.518,6.928L4.5,6.831v-1.77L5.135,2.5h5.599    L11.5,5.073v1.793l-0.018,0.062C11.4,7.37,11.091,7.746,10.88,7.774l-0.36,0.049l-0.065,0.358    c-0.167,0.923-0.835,1.665-1.743,1.937l-0.139,0.042l-0.096,0.11C8.402,10.355,8.24,10.5,8,10.5z"/>
	</g>
	<g>
		<path style="fill:#BA9B48;" d="M10.361,3L11,5.146v1.642l-0.009,0.049c-0.038,0.206-0.163,0.39-0.233,0.45l-0.667,0.09    L9.962,8.092C9.829,8.829,9.295,9.421,8.568,9.639L8.289,9.722l-0.191,0.22C8.065,9.981,8.032,10,8,10S7.935,9.981,7.902,9.942    l-0.191-0.22L7.432,9.639c-0.727-0.217-1.261-0.81-1.394-1.546L5.909,7.376l-0.667-0.09c-0.07-0.06-0.194-0.244-0.233-0.45    L5,6.799V5.122L5.525,3H10.361 M11.106,2H4.743L4,5v2l0.026,0.019C4.13,7.578,4.546,8.202,5.054,8.27    c0.202,1.117,1.021,2.007,2.092,2.327C7.355,10.839,7.655,11,8,11s0.645-0.161,0.854-0.403c1.071-0.32,1.89-1.21,2.092-2.327    c0.508-0.069,0.924-0.693,1.028-1.251L12,7V5L11.106,2L11.106,2z"/>
	</g>
</g>
<g>
	<path style="fill:#B0C1D4;" d="M11.5,5.848c0-1.526-1.837-2.5-2.047-2.606L9.115,3.07L8.857,3.351C8.848,3.362,7.785,4.5,6.188,4.5   C5.028,4.5,4.5,5.375,4.5,6.187V3.452C4.5,2.025,5.42,0.5,8,0.5c1.06,0,1.56,0.74,1.58,0.771l0.148,0.225L10,1.5   c0.737,0,1.5,0.632,1.5,1.689V6.5V5.848z"/>
	<g>
		<path style="fill:#66798F;" d="M8,1c0.761,0,1.126,0.495,1.155,0.535L9.449,2H10c0.492,0,1,0.445,1,1.189v0.562    C10.429,3.19,9.803,2.858,9.679,2.796L9.003,2.462L8.49,3.012C8.481,3.022,7.553,4,6.187,4C5.717,4,5.321,4.118,5,4.314V3.452    C5,2.877,5.216,1,8,1 M8,0C5.15,0,4,1.766,4,3.452C4,4.668,4,7,4,7h1c0,0,0-0.382,0-0.813C5,5.723,5.245,5,6.187,5    c1.855,0,3.04-1.312,3.04-1.312S11,4.585,11,5.848C11,6.322,11,7,11,7h1c0,0,0-1.82,0-3.811C12,1.872,11.032,1,10,1    C10,1,9.367,0,8,0L8,0z"/>
	</g>
</g>
<polygon style="fill:#FFFFFF;" points="8,15 6,12.075 6,11 8,12 10,11 10,12.075 "/>
<polygon style="fill:#C74343;" points="7.65,13.169 7.417,14.152 8,15 8.583,14.152 8.35,13.169 9,12.688 8,12 7,12.688 "/>
</svg>