<?xml version="1.0" encoding="iso-8859-1"?><!-- Generator: Adobe Illustrator 19.2.1, SVG Export Plug-In . SVG Version: 6.00 Build 0)  --><svg xmlns="http://www.w3.org/2000/svg" xmlns:xlink="http://www.w3.org/1999/xlink" version="1.1" id="Layer_1" x="0px" y="0px" viewBox="0 0 16 16" style="enable-background:new 0 0 16 16;" xml:space="preserve" width="16" height="16">
<g>
	<g>
		<path style="fill:#8BB7F0;" d="M1.527,15.5c0.375-3.367,4.5-3.999,4.543-4.005L10,11.5c0.108,0.021,4.107,0.659,4.473,4H1.527z"/>
		<path style="fill:#4E7AB5;" d="M9.918,12c0.484,0.087,3.304,0.686,3.95,3H2.131c0.646-2.328,3.477-2.917,3.949-3H9.918 M10,11H6    c0,0-5,0.717-5,5h14C15,11.732,10,11,10,11L10,11z"/>
	</g>
</g>
<g>
	<path style="fill:#E8D47B;" d="M8,13.5c-0.917,0-1.377-0.804-1.5-1.057V10h3v2.443C9.377,12.698,8.917,13.5,8,13.5z"/>
	<path style="fill:#BA9B48;" d="M9,10.5v1.819C8.866,12.555,8.541,13,8,13c-0.544,0-0.869-0.449-1-0.68V10.5H9 M10,9.5H6v3.048   C6,12.548,6.563,14,8,14s2-1.452,2-1.452V9.5L10,9.5z"/>
</g>
<g>
	<g>
		<path style="fill:#FFEEA3;" d="M8,11.5c-0.173,0-0.337-0.071-0.46-0.201l-0.108-0.113l-0.153-0.031    c-2.282-0.469-2.767-3.126-2.786-3.239L4.5,6.062L5.134,3.5h5.6L11.5,6.073V8c-0.012,0.029-0.497,2.687-2.779,3.155l-0.153,0.031    L8.46,11.299C8.337,11.429,8.173,11.5,8,11.5z"/>
	</g>
	<g>
		<path style="fill:#BA9B48;" d="M10.361,4L11,6.146v1.757c-0.09,0.415-0.607,2.399-2.38,2.763l-0.305,0.063L8.1,10.953    C8.07,10.984,8.036,11,8,11c-0.036,0-0.07-0.016-0.1-0.047l-0.216-0.225L7.38,10.666C5.603,10.301,5.087,8.309,5,7.903V6.122    L5.525,4H10.361 M11.106,3H4.743L4,6v2c0,0,0.521,3.099,3.178,3.645C7.386,11.862,7.676,12,8,12s0.614-0.138,0.822-0.355    C11.479,11.099,12,8,12,8V6L11.106,3L11.106,3z"/>
	</g>
</g>
<g>
	<path style="fill:#FFC49C;" d="M11.667,10.5c-0.646,0-1.268-0.172-1.678-0.317c0.235-0.53,0.511-1.452,0.511-2.85   c0-1.831-0.606-2.503-0.676-2.574L9.463,4.39L9.105,4.763C9.102,4.767,8.503,5.367,7.64,5.367c-1.01,0-2.14,1.033-2.14,2.416   c0,1.079,0.259,1.887,0.48,2.382C5.531,10.316,4.871,10.5,4.333,10.5c-0.534,0-1.015-0.163-1.359-0.324   C3.428,9.703,4,8.935,4,8.067c0-0.473-0.128-0.99-0.252-1.489C3.626,6.086,3.5,5.577,3.5,5.134C3.5,2.362,5.056,0.5,7.372,0.5   c2.046,0,2.73,1.16,2.758,1.209l0.133,0.234l0.271,0.022C11.838,2.051,12.5,3.117,12.5,5.134c0,0.632-0.131,1.096-0.257,1.545   C12.123,7.102,12,7.539,12,8.067c0,0.855,0.591,1.641,1.047,2.12C12.722,10.342,12.248,10.5,11.667,10.5z"/>
	<g>
		<path style="fill:#A16A4A;" d="M7.371,1c1.725,0,2.303,0.923,2.316,0.942L9.95,2.429l0.551,0.036C10.872,2.489,12,2.563,12,5.134    c0,0.563-0.116,0.974-0.239,1.41C11.639,6.977,11.5,7.469,11.5,8.067c0,0.71,0.328,1.365,0.701,1.88    C12.039,9.98,11.86,10,11.667,10c-0.363,0-0.719-0.062-1.026-0.14C10.834,9.263,11,8.429,11,7.334    c0-1.937-0.626-2.728-0.818-2.924L9.468,3.701L8.753,4.409C8.748,4.413,8.282,4.867,7.639,4.867C6.394,4.867,5,6.114,5,7.783    c0,0.843,0.145,1.534,0.319,2.059C4.984,9.931,4.626,10,4.333,10c-0.18,0-0.355-0.023-0.517-0.059    C4.182,9.432,4.5,8.784,4.5,8.067c0-0.534-0.136-1.081-0.267-1.61C4.119,5.995,4,5.516,4,5.134C4,2.623,5.323,1,7.371,1 M7.371,0    C4.985,0,3,1.836,3,5.134C3,6.11,3.5,7.214,3.5,8.067c0,1.152-1.367,2.2-1.367,2.2S3.094,11,4.333,11    c1.02,0,2.361-0.567,2.361-0.567S6,9.487,6,7.783c0-1.136,0.949-1.916,1.639-1.916c1.102,0,1.827-0.759,1.827-0.759    S10,5.654,10,7.334c0,2.183-0.719,3.1-0.719,3.1S10.415,11,11.667,11c1.356,0,2.2-0.733,2.2-0.733S12.5,9.179,12.5,8.067    c0-0.988,0.5-1.623,0.5-2.933c0-2.672-1.129-3.581-2.433-3.667C10.567,1.467,9.774,0,7.371,0L7.371,0z"/>
	</g>
</g>
</svg>