<?xml version="1.0" encoding="iso-8859-1"?><!-- Generator: Adobe Illustrator 19.2.1, SVG Export Plug-In . SVG Version: 6.00 Build 0)  --><svg xmlns="http://www.w3.org/2000/svg" xmlns:xlink="http://www.w3.org/1999/xlink" version="1.1" id="Layer_1" x="0px" y="0px" viewBox="0 0 80 80" style="enable-background:new 0 0 80 80;" xml:space="preserve" width="80" height="80">
<g>
	<g>
		<path style="fill:#8BB7F0;" d="M8.505,77.5C8.88,59.736,29.2,56.525,29.407,56.495l21.26,0.005    c0.133,0.026,20.451,3.315,20.828,21H8.505z"/>
		<path style="fill:#4E7AB5;" d="M50.585,57c0.632,0.108,5.503,1.005,10.291,3.85c6.411,3.809,9.806,9.239,10.103,16.15H9.021    c0.295-6.937,3.69-12.376,10.101-16.175c4.79-2.838,9.664-3.721,10.291-3.825H50.585 M50.667,56H29.333C29.333,56,8,59.155,8,78    h64C72,59.222,50.667,56,50.667,56L50.667,56z"/>
	</g>
</g>
<g>
	<path style="fill:#E8D47B;" d="M40,67.5c-6.348,0-9.165-6.078-9.5-6.858V46h19v14.642C49.165,61.422,46.348,67.5,40,67.5z"/>
	<path style="fill:#BA9B48;" d="M49,46.5v14.042C48.546,61.585,45.905,67,40,67c-5.908,0-8.549-5.42-9-6.458V46.5H49 M50,45.5H30   v15.242c0,0,2.815,7.258,10,7.258s10-7.258,10-7.258V45.5L50,45.5z"/>
</g>
<g>
	<g>
		<path style="fill:#FFEEA3;" d="M40,56.5c-1.343,0-2.639-0.495-3.648-1.393l-0.091-0.081l-0.118-0.03    C29.288,53.237,24.5,47.071,24.5,40V21.403c0-3.929,3.196-7.125,7.125-7.125h16.749c3.929,0,7.125,3.196,7.125,7.125V40    c0,7.071-4.788,13.237-11.643,14.996l-0.118,0.03l-0.091,0.081C42.639,56.005,41.343,56.5,40,56.5z"/>
	</g>
	<g>
		<path style="fill:#BA9B48;" d="M48.375,14.778c3.653,0,6.625,2.972,6.625,6.625V40c0,6.842-4.633,12.81-11.268,14.512l-0.235,0.06    l-0.181,0.161C42.398,55.55,41.22,56,40,56c-1.22,0-2.398-0.45-3.316-1.267l-0.181-0.161l-0.235-0.06    C29.633,52.81,25,46.842,25,40V21.403c0-3.653,2.972-6.625,6.625-6.625H48.375 M48.375,13.778H31.625    c-4.211,0-7.625,3.414-7.625,7.625V40c0,7.46,5.112,13.708,12.019,15.48C37.079,56.423,38.47,57,40,57s2.921-0.577,3.981-1.52    C50.888,53.708,56,47.46,56,40V21.403C56,17.192,52.586,13.778,48.375,13.778L48.375,13.778z"/>
	</g>
</g>
<g>
	<path style="fill:#FFC49C;" d="M56.757,54.5c-4.249,0-8.148-1.153-9.831-1.729c2.101-1.59,7.574-6.442,7.574-13.834v-9.89   c0-5.287-5.839-8.715-6.088-8.858l-0.445-0.256l-0.245,0.452c-0.038,0.07-3.902,6.999-13.595,8.338   c-4.637,0.64-9.627,3.849-9.627,9.382v0.833c0,7.487,6.084,12.511,8.487,14.203c-1.847,0.471-5.778,1.36-9.177,1.36   c-5.806,0-8.635-2.867-9.393-3.788c1.018-1.288,4.726-6.228,4.726-9.832c0-1.898-0.442-4.102-0.91-6.434   c-0.533-2.66-1.085-5.41-1.085-8.096c0-14.93,10.645-23.851,20.936-23.851c7.772,0,11.047,5.427,11.08,5.482l0.145,0.247h0.286   c8.147,0,13.825,8.795,13.825,16.689c0,3.194-0.697,6.137-1.372,8.983c-0.583,2.463-1.135,4.789-1.135,6.979   c0,4.526,4.798,8.563,6.467,9.83C65.939,51.751,61.67,54.5,56.757,54.5z"/>
	<g>
		<path style="fill:#A16A4A;" d="M38.084,3c7.438,0,10.523,5.025,10.648,5.235l0.29,0.494h0.573c3.106,0,6.456,1.646,8.961,4.402    c2.814,3.096,4.364,7.282,4.364,11.787c0,3.136-0.691,6.05-1.358,8.868c-0.59,2.492-1.148,4.846-1.148,7.094    c0,4.316,4.091,8.161,6.126,9.806C64.786,51.862,61.012,54,56.757,54c-3.558,0-6.87-0.824-8.793-1.418    C50.449,50.512,55,45.786,55,38.936v-9.89c0-5.572-6.079-9.142-6.338-9.291l-0.891-0.514l-0.488,0.906    c-0.036,0.068-3.753,6.771-13.223,8.079C27.148,29.18,24,34.015,24,38.103v0.085v0.748c0,6.921,5.021,11.787,7.835,13.971    C29.807,53.381,26.622,54,23.811,54c-5.13,0-7.783-2.24-8.751-3.299c1.293-1.685,4.583-6.317,4.583-9.82    c0-1.948-0.447-4.175-0.919-6.532c-0.529-2.636-1.075-5.361-1.075-7.997C17.648,11.734,28.039,3,38.084,3 M38.084,2    c-10.649,0-21.436,9.269-21.436,24.351c0,5.137,1.995,10.574,1.995,14.53s-4.86,9.822-4.86,9.822S16.541,55,23.811,55    c4.732,0,10.379-1.667,10.379-1.667S25,47.887,25,38.936c0-0.636,0-0.748,0-0.748v0.033c0,0,0-0.025,0-0.118    c0-5.268,4.886-8.292,9.196-8.887c10.082-1.392,13.967-8.595,13.967-8.595S54,23.988,54,29.046c0,2.187,0,6.299,0,9.89    c0,8.781-8.14,13.977-8.14,13.977S50.948,55,56.757,55c6.291,0,11.46-4.297,11.46-4.297s-6.804-4.662-6.804-9.822    c0-4.585,2.506-9.884,2.506-15.962c0-10.308-7.555-17.189-14.325-17.189C49.595,7.729,46.232,2,38.084,2L38.084,2z"/>
	</g>
</g>
</svg>