<?xml version="1.0" encoding="iso-8859-1"?><!-- Generator: Adobe Illustrator 19.2.1, SVG Export Plug-In . SVG Version: 6.00 Build 0)  --><svg xmlns="http://www.w3.org/2000/svg" xmlns:xlink="http://www.w3.org/1999/xlink" version="1.1" id="Layer_1" x="0px" y="0px" viewBox="0 0 80 80" style="enable-background:new 0 0 80 80;" xml:space="preserve" width="80" height="80">
<g>
	<path style="fill:#8BB7F0;" d="M8.505,77.5c0.267-12.729,10.704-23,23.495-23h16c12.791,0,23.229,10.271,23.495,23H8.505z"/>
	<g>
		<path style="fill:#4E7AB5;" d="M48,55c12.347,0,22.453,9.78,22.979,22L9.021,77C9.547,64.78,19.653,55,32,55H48 M48,54H32    C18.745,54,8,64.745,8,78v0h64v0C72,64.745,61.255,54,48,54L48,54z"/>
	</g>
</g>
<g>
	<polygon style="fill:#E8D47B;" points="30.5,56.881 30.5,44.5 49.5,44.5 49.5,56.881 40,64.364  "/>
	<path style="fill:#BA9B48;" d="M49,45v11.638l-9,7.089l-9-7.089V45H49 M50,44H30v13.124L40,65l10-7.876V44L50,44z"/>
</g>
<g>
	<g>
		<path style="fill:#E8D47B;" d="M54.286,38.929c-2.875,0-5.215-2.339-5.215-5.214s2.34-5.214,5.215-5.214    c3.703,0,5.214,0.959,5.214,3.31C59.5,34.621,57.164,38.929,54.286,38.929z M25.714,38.929c-2.878,0-5.214-4.308-5.214-7.119    c0-2.351,1.511-3.31,5.214-3.31c2.875,0,5.215,2.339,5.215,5.214S28.589,38.929,25.714,38.929z"/>
	</g>
	<g>
		<path style="fill:#BA9B48;" d="M54.286,29C58.211,29,59,30.075,59,31.81c0,2.829-2.331,6.619-4.714,6.619    c-2.599,0-4.714-2.115-4.714-4.714C49.571,31.115,51.686,29,54.286,29 M25.714,29c2.599,0,4.714,2.115,4.714,4.714    c0,2.599-2.115,4.714-4.714,4.714c-2.384,0-4.714-3.79-4.714-6.619C21,30.075,21.789,29,25.714,29 M54.286,28    c-3.156,0-5.714,2.558-5.714,5.714c0,3.156,2.558,5.714,5.714,5.714c3.156,0,5.714-4.463,5.714-7.619S57.442,28,54.286,28    L54.286,28z M25.714,28C22.558,28,20,28.654,20,31.81s2.558,7.619,5.714,7.619c3.156,0,5.714-2.558,5.714-5.714    C31.429,30.558,28.87,28,25.714,28L25.714,28z"/>
	</g>
</g>
<g>
	<g>
		<path style="fill:#FFEEA3;" d="M40,53.5c-1.343,0-2.638-0.495-3.648-1.393l-0.091-0.081l-0.117-0.03    C29.288,50.237,24.5,44.071,24.5,37V18.403c0-3.929,3.196-7.125,7.125-7.125h16.75c3.929,0,7.125,3.196,7.125,7.125V37    c0,7.071-4.788,13.237-11.643,14.996l-0.117,0.03l-0.091,0.081C42.639,53.005,41.342,53.5,40,53.5z"/>
	</g>
	<g>
		<path style="fill:#BA9B48;" d="M48.375,11.778c3.653,0,6.625,2.972,6.625,6.625V37c0,6.842-4.633,12.81-11.268,14.512l-0.235,0.06    l-0.181,0.161C42.398,52.55,41.22,53,40,53c-1.22,0-2.398-0.45-3.316-1.267l-0.181-0.161l-0.235-0.06    C29.633,49.81,25,43.842,25,37V18.403c0-3.653,2.972-6.625,6.625-6.625H48.375 M48.375,10.778H31.625    c-4.211,0-7.625,3.414-7.625,7.625V37c0,7.46,5.112,13.708,12.019,15.48C37.079,53.423,38.47,54,40,54s2.921-0.577,3.981-1.52    C50.888,50.708,56,44.46,56,37V18.403C56,14.192,52.586,10.778,48.375,10.778L48.375,10.778z"/>
	</g>
</g>
<g>
	<path style="fill:#B0C1D4;" d="M55.5,35.5V28c0-7.02-6.83-10.764-7.121-10.92l-0.388-0.208l-0.257,0.359   c-0.042,0.06-4.364,5.983-13.435,5.983c-6.503,0-9.8,2.283-9.8,6.786v5.5h-0.181c-0.686-1.507-3.819-8.734-3.819-14.877   C20.5,9.783,27.935,2.5,39,2.5c8.037,0,10.44,5.461,10.539,5.694l0.129,0.305L50,8.5c3.528,0,9.5,2.428,9.5,11.53   c0,5.623-3.162,13.793-3.836,15.47H55.5z"/>
	<g>
		<path style="fill:#66798F;" d="M39,3c7.678,0,9.985,5.17,10.077,5.385L49.334,9H50c0.921,0,9,0.31,9,11.03    c0,4.238-1.84,9.983-3,13.181V28c0-7.316-7.083-11.199-7.384-11.361l-0.776-0.413l-0.512,0.714    c-0.169,0.236-4.238,5.773-13.029,5.773C29.601,22.714,24,23.978,24,30v3.477c-1.152-2.863-3-8.183-3-12.855    C21,10.082,28.234,3,39,3 M39,2C27.362,2,20,9.962,20,20.623C20,27.684,24,36,24,36h1c0,0,0-4.057,0-6    c0-5.336,5.048-6.286,9.3-6.286c9.46,0,13.843-6.193,13.843-6.193S55,21.198,55,28c0,2.137,0,8,0,8h1c0,0,4-9.535,4-15.97    C60,10.995,54.247,8,50,8C50,8,47.494,2,39,2L39,2z"/>
	</g>
</g>
<polygon style="fill:#FFFFFF;" points="40,76.987 30,57.004 30,54.149 40,58.356 50,54.149 50,57.004 "/>
<polygon style="fill:#C74343;" points="38.1,64.693 36.833,70.663 40,77.003 43.167,70.663 41.9,64.693 45.429,62.08 40,58.347   34.571,62.08 "/>
</svg>