<?xml version="1.0" encoding="iso-8859-1"?><!-- Generator: Adobe Illustrator 19.2.1, SVG Export Plug-In . SVG Version: 6.00 Build 0)  --><svg xmlns="http://www.w3.org/2000/svg" xmlns:xlink="http://www.w3.org/1999/xlink" version="1.1" id="Layer_1" x="0px" y="0px" viewBox="0 0 16 16" style="enable-background:new 0 0 16 16;" xml:space="preserve" width="16" height="16">
<g>
	<rect x="0.5" y="1.5" style="fill:#FFFFFF;" width="15" height="13"/>
	<g>
		<path style="fill:#788B9C;" d="M15,2v12H1V2H15 M16,1H0v14h16V1L16,1z"/>
	</g>
</g>
<g>
	<rect x="0.5" y="1.5" style="fill:#F78F8F;" width="15" height="3"/>
	<g>
		<path style="fill:#C74343;" d="M15,2v2H1V2H15 M16,1H0v4h16V1L16,1z"/>
	</g>
</g>
<rect x="5" y="7" style="fill:#C5D4DE;" width="1" height="1"/>
<rect x="7" y="7" style="fill:#C5D4DE;" width="1" height="1"/>
<rect x="9" y="7" style="fill:#C5D4DE;" width="1" height="1"/>
<rect x="11" y="7" style="fill:#C5D4DE;" width="1" height="1"/>
<rect x="3" y="9" style="fill:#C5D4DE;" width="1" height="1"/>
<rect x="5" y="9" style="fill:#C5D4DE;" width="1" height="1"/>
<rect x="7" y="9" style="fill:#C5D4DE;" width="1" height="1"/>
<rect x="9" y="9" style="fill:#C5D4DE;" width="1" height="1"/>
<rect x="11" y="9" style="fill:#C5D4DE;" width="1" height="1"/>
<rect x="3" y="11" style="fill:#C5D4DE;" width="1" height="1"/>
<rect x="5" y="11" style="fill:#C5D4DE;" width="1" height="1"/>
<rect x="7" y="11" style="fill:#C5D4DE;" width="1" height="1"/>
<rect x="9" y="11" style="fill:#C5D4DE;" width="1" height="1"/>
</svg>