<?xml version="1.0" encoding="iso-8859-1"?><!-- Generator: Adobe Illustrator 19.2.1, SVG Export Plug-In . SVG Version: 6.00 Build 0)  --><svg xmlns="http://www.w3.org/2000/svg" xmlns:xlink="http://www.w3.org/1999/xlink" version="1.1" id="Layer_1" x="0px" y="0px" viewBox="0 0 40 40" style="enable-background:new 0 0 40 40;" xml:space="preserve" width="40" height="40">
<g>
	<rect x="2.5" y="2.5" style="fill:#FFFFFF;" width="35" height="35"/>
	<g>
		<path style="fill:#788B9C;" d="M37,3v34H3V3H37 M38,2H2v36h36V2L38,2z"/>
	</g>
</g>
<g>
	<rect x="2.5" y="2.5" style="fill:#F78F8F;" width="35" height="5"/>
	<g>
		<path style="fill:#C74343;" d="M37,3v4H3V3H37 M38,2H2v6h36V2L38,2z"/>
	</g>
</g>
<rect x="13" y="14" style="fill:#C5D4DE;" width="2" height="2"/>
<rect x="21" y="14" style="fill:#C5D4DE;" width="2" height="2"/>
<rect x="25" y="14" style="fill:#C5D4DE;" width="2" height="2"/>
<rect x="29" y="14" style="fill:#C5D4DE;" width="2" height="2"/>
<rect x="9" y="18" style="fill:#C5D4DE;" width="2" height="2"/>
<rect x="13" y="18" style="fill:#C5D4DE;" width="2" height="2"/>
<rect x="21" y="18" style="fill:#C5D4DE;" width="2" height="2"/>
<rect x="25" y="18" style="fill:#C5D4DE;" width="2" height="2"/>
<rect x="29" y="18" style="fill:#C5D4DE;" width="2" height="2"/>
<rect x="9" y="26" style="fill:#C5D4DE;" width="2" height="2"/>
<rect x="13" y="26" style="fill:#C5D4DE;" width="2" height="2"/>
<rect x="21" y="26" style="fill:#C5D4DE;" width="2" height="2"/>
<rect x="17" y="14" style="fill:#C5D4DE;" width="2" height="2"/>
<rect x="17" y="18" style="fill:#C5D4DE;" width="2" height="2"/>
<rect x="9" y="22" style="fill:#C5D4DE;" width="2" height="2"/>
<rect x="13" y="22" style="fill:#C5D4DE;" width="2" height="2"/>
<rect x="21" y="22" style="fill:#C5D4DE;" width="2" height="2"/>
<rect x="25" y="22" style="fill:#C5D4DE;" width="2" height="2"/>
<rect x="29" y="22" style="fill:#C5D4DE;" width="2" height="2"/>
<rect x="17" y="22" style="fill:#C5D4DE;" width="2" height="2"/>
<rect x="17" y="26" style="fill:#C5D4DE;" width="2" height="2"/>
<rect x="25" y="26" style="fill:#C5D4DE;" width="2" height="2"/>
<rect x="3" y="34" style="fill:#E1EBF2;" width="34" height="3"/>
</svg>