<?xml version="1.0" encoding="iso-8859-1"?><!-- Generator: Adobe Illustrator 19.2.1, SVG Export Plug-In . SVG Version: 6.00 Build 0)  --><svg xmlns="http://www.w3.org/2000/svg" xmlns:xlink="http://www.w3.org/1999/xlink" version="1.1" id="Layer_1" x="0px" y="0px" viewBox="0 0 30 30" style="enable-background:new 0 0 30 30;" xml:space="preserve" width="30" height="30">
<g>
	<rect x="2.5" y="2.5" style="fill:#FFFFFF;" width="25" height="25"/>
	<g>
		<path style="fill:#788B9C;" d="M27,3v24H3V3H27 M28,2H2v26h26V2L28,2z"/>
	</g>
</g>
<g>
	<rect x="2.5" y="2.5" style="fill:#F78F8F;" width="25" height="5"/>
	<g>
		<path style="fill:#C74343;" d="M27,3v4H3V3H27 M28,2H2v6h26V2L28,2z"/>
	</g>
</g>
<rect x="10" y="11" style="fill:#C5D4DE;" width="2" height="2"/>
<rect x="14" y="11" style="fill:#C5D4DE;" width="2" height="2"/>
<rect x="18" y="11" style="fill:#C5D4DE;" width="2" height="2"/>
<rect x="22" y="11" style="fill:#C5D4DE;" width="2" height="2"/>
<rect x="6" y="15" style="fill:#C5D4DE;" width="2" height="2"/>
<rect x="10" y="15" style="fill:#C5D4DE;" width="2" height="2"/>
<rect x="14" y="15" style="fill:#C5D4DE;" width="2" height="2"/>
<rect x="18" y="15" style="fill:#C5D4DE;" width="2" height="2"/>
<rect x="22" y="15" style="fill:#C5D4DE;" width="2" height="2"/>
<rect x="6" y="19" style="fill:#C5D4DE;" width="2" height="2"/>
<rect x="10" y="19" style="fill:#C5D4DE;" width="2" height="2"/>
<rect x="14" y="19" style="fill:#C5D4DE;" width="2" height="2"/>
<rect x="18" y="19" style="fill:#C5D4DE;" width="2" height="2"/>
<rect x="3" y="25" style="fill:#E1EBF2;" width="24" height="2"/>
</svg>