<?xml version="1.0" encoding="iso-8859-1"?><!-- Generator: Adobe Illustrator 19.2.1, SVG Export Plug-In . SVG Version: 6.00 Build 0)  --><svg xmlns="http://www.w3.org/2000/svg" xmlns:xlink="http://www.w3.org/1999/xlink" version="1.1" id="Layer_1" x="0px" y="0px" viewBox="0 0 80 80" style="enable-background:new 0 0 80 80;" xml:space="preserve" width="80" height="80">
<g>
	<rect x="4.5" y="4.5" style="fill:#FFFFFF;" width="71" height="71"/>
	<g>
		<path style="fill:#788B9C;" d="M75,5v70H5V5H75 M76,4H4v72h72V4L76,4z"/>
	</g>
</g>
<g>
	<rect x="4.5" y="4.5" style="fill:#F78F8F;" width="71" height="11"/>
	<g>
		<path style="fill:#C74343;" d="M75,5v10H5V5H75 M76,4H4v12h72V4L76,4z"/>
	</g>
</g>
<rect x="26" y="28" style="fill:#C5D4DE;" width="4" height="4"/>
<rect x="42" y="28" style="fill:#C5D4DE;" width="4" height="4"/>
<rect x="50" y="28" style="fill:#C5D4DE;" width="4" height="4"/>
<rect x="58" y="28" style="fill:#C5D4DE;" width="4" height="4"/>
<rect x="18" y="36" style="fill:#C5D4DE;" width="4" height="4"/>
<rect x="26" y="36" style="fill:#C5D4DE;" width="4" height="4"/>
<rect x="42" y="36" style="fill:#C5D4DE;" width="4" height="4"/>
<rect x="50" y="36" style="fill:#C5D4DE;" width="4" height="4"/>
<rect x="58" y="36" style="fill:#C5D4DE;" width="4" height="4"/>
<rect x="18" y="52" style="fill:#C5D4DE;" width="4" height="4"/>
<rect x="26" y="52" style="fill:#C5D4DE;" width="4" height="4"/>
<rect x="42" y="52" style="fill:#C5D4DE;" width="4" height="4"/>
<rect x="34" y="28" style="fill:#C5D4DE;" width="4" height="4"/>
<rect x="34" y="36" style="fill:#C5D4DE;" width="4" height="4"/>
<rect x="18" y="44" style="fill:#C5D4DE;" width="4" height="4"/>
<rect x="26" y="44" style="fill:#C5D4DE;" width="4" height="4"/>
<rect x="42" y="44" style="fill:#C5D4DE;" width="4" height="4"/>
<rect x="50" y="44" style="fill:#C5D4DE;" width="4" height="4"/>
<rect x="58" y="44" style="fill:#C5D4DE;" width="4" height="4"/>
<rect x="34" y="44" style="fill:#C5D4DE;" width="4" height="4"/>
<rect x="34" y="52" style="fill:#C5D4DE;" width="4" height="4"/>
<rect x="50" y="52" style="fill:#C5D4DE;" width="4" height="4"/>
<rect x="5" y="70" style="fill:#E1EBF2;" width="70" height="5"/>
</svg>