<?xml version="1.0" encoding="iso-8859-1"?><!-- Generator: Adobe Illustrator 19.2.1, SVG Export Plug-In . SVG Version: 6.00 Build 0)  --><svg xmlns="http://www.w3.org/2000/svg" xmlns:xlink="http://www.w3.org/1999/xlink" version="1.1" id="Layer_1" x="0px" y="0px" viewBox="0 0 30 30" style="enable-background:new 0 0 30 30;" xml:space="preserve" width="30" height="30">
<g>
	<path style="fill:#C2E8FF;" d="M2.517,26.5c0.258-3.903,3.516-7,7.483-7h6c3.968,0,7.226,3.097,7.483,7H2.517z"/>
	<g>
		<path style="fill:#7496C4;" d="M16,20c3.52,0,6.442,2.612,6.929,6L3.071,26C3.558,22.612,6.48,20,10,20H16 M16,19h-6    c-4.418,0-8,3.582-8,8v0h22v0C24,22.582,20.418,19,16,19L16,19z"/>
	</g>
</g>
<g>
	<path style="fill:#E8D47B;" d="M13,21.5c-2.282,0-3.054-1.279-3.214-1.605v-3.824h6.428v3.824C16.058,20.215,15.288,21.5,13,21.5z"/>
	<path style="fill:#BA9B48;" d="M15.714,16.571v3.201C15.519,20.102,14.818,21,13,21c-1.815,0-2.518-0.9-2.714-1.229v-3.199H15.714    M16.714,15.571H9.286V20c0,0,0.742,2,3.714,2s3.714-2,3.714-2V15.571L16.714,15.571z"/>
</g>
<g>
	<g>
		<path style="fill:#E8D47B;" d="M18,13.5c-0.827,0-1.5-0.609-1.5-1.357s0.673-1.357,1.5-1.357c1.5,0,1.5,0.444,1.5,0.738    C19.5,12.35,18.744,13.5,18,13.5z M8,13.5c-0.744,0-1.5-1.15-1.5-1.977c0-0.294,0-0.738,1.5-0.738c0.827,0,1.5,0.609,1.5,1.357    S8.827,13.5,8,13.5z"/>
	</g>
	<g>
		<path style="fill:#BA9B48;" d="M18,11.285c0.787,0,0.978,0.131,0.988,0.131l0,0C18.99,11.421,19,11.451,19,11.523    C19,12.131,18.411,13,18,13c-0.551,0-1-0.385-1-0.857S17.449,11.285,18,11.285 M8,11.285c0.551,0,1,0.385,1,0.857S8.551,13,8,13    c-0.411,0-1-0.869-1-1.476c0-0.056,0.006-0.087,0.004-0.093C7.042,11.404,7.251,11.285,8,11.285 M18,10.285    c-1.105,0-2,0.831-2,1.857S16.895,14,18,14s2-1.451,2-2.476C20,10.498,19.105,10.285,18,10.285L18,10.285z M8,10.285    c-1.105,0-2,0.212-2,1.238C6,12.549,6.895,14,8,14s2-0.831,2-1.857S9.105,10.285,8,10.285L8,10.285z"/>
	</g>
</g>
<g>
	<g>
		<path style="fill:#FFEEA3;" d="M13,18.5c-0.383,0-0.739-0.16-1.002-0.451l-0.11-0.122l-0.161-0.033    C9.277,17.398,7.5,15.221,7.5,12.718V6.553c0-1.244,1.012-2.255,2.256-2.255h6.488c1.244,0,2.256,1.012,2.256,2.255v6.166    c0,2.503-1.777,4.68-4.227,5.176l-0.161,0.033l-0.11,0.122C13.739,18.34,13.383,18.5,13,18.5z"/>
	</g>
	<g>
		<path style="fill:#BA9B48;" d="M16.245,4.797C17.212,4.797,18,5.585,18,6.553v6.165c0,2.266-1.609,4.237-3.826,4.686l-0.322,0.065    l-0.221,0.244C13.534,17.82,13.323,18,13,18s-0.534-0.18-0.631-0.287l-0.221-0.244l-0.322-0.065C9.609,16.955,8,14.984,8,12.718    V6.553c0-0.968,0.788-1.755,1.755-1.755H16.245 M16.245,3.797H9.755C8.234,3.797,7,5.031,7,6.553v6.165    c0,2.798,1.987,5.131,4.627,5.666C11.967,18.76,12.454,19,13,19s1.033-0.24,1.373-0.616C17.013,17.849,19,15.516,19,12.718V6.553    C19,5.031,17.766,3.797,16.245,3.797L16.245,3.797z"/>
	</g>
</g>
<g>
	<path style="fill:#FFC49C;" d="M18.5,12.5v-1.777c0-2.701-2.081-4.564-2.17-4.642l-0.344-0.304l-0.332,0.317   C15.642,6.106,14.113,7.5,10.9,7.5c-2.065,0-3.4,1.322-3.4,3.367V12.5H7.391C7.145,11.5,6.5,8.771,6.5,7.606   C6.5,3.897,9.052,1.5,13,1.5c1.714,0,2.89,1.494,2.901,1.509l0.15,0.194h0.245c1.107,0,3.203,0.857,3.203,4.103   c0,1.827-0.627,4.286-0.878,5.193H18.5z"/>
	<g>
		<path style="fill:#A16A4A;" d="M13,2c1.449,0,2.498,1.306,2.505,1.315l0.3,0.388h0.491C17.232,3.703,19,4.456,19,7.306    c0,0.612-0.074,1.302-0.181,1.978c-0.535-2.127-2.079-3.51-2.158-3.579l-0.689-0.607l-0.663,0.635C15.296,5.745,13.9,7,10.9,7    C9.093,7,7.746,7.932,7.23,9.427C7.096,8.697,7,8.026,7,7.606C7,4.201,9.355,2,13,2 M13,1C8.705,1,6,3.714,6,7.606    C6,9.12,7,13,7,13h1c0,0,0-1.417,0-2.133C8,8.901,9.334,8,10.9,8C14.385,8,16,6.455,16,6.455s2,1.761,2,4.267    C18,11.51,18,13,18,13h1c0,0,1-3.323,1-5.694c0-3.329-2.139-4.603-3.703-4.603C16.297,2.703,14.98,1,13,1L13,1z"/>
	</g>
</g>
<g>
	<circle style="fill:#BAE0BD;" cx="23" cy="23" r="6.5"/>
	<g>
		<path style="fill:#5E9C76;" d="M23,17c3.308,0,6,2.692,6,6s-2.692,6-6,6s-6-2.692-6-6S19.692,17,23,17 M23,16    c-3.866,0-7,3.134-7,7s3.134,7,7,7s7-3.134,7-7S26.866,16,23,16L23,16z"/>
	</g>
</g>
<polyline style="fill:none;stroke:#FFFFFF;stroke-width:2;stroke-miterlimit:10;" points="19.75,23.019 21.904,25.173 26.75,20.327   "/>
</svg>