<?xml version="1.0" encoding="iso-8859-1"?><!-- Generator: Adobe Illustrator 19.2.1, SVG Export Plug-In . SVG Version: 6.00 Build 0)  --><svg xmlns="http://www.w3.org/2000/svg" xmlns:xlink="http://www.w3.org/1999/xlink" version="1.1" x="0px" y="0px" viewBox="0 0 16 16" style="enable-background:new 0 0 16 16;" xml:space="preserve" width="16" height="16">
<g id="Layer_1">
	<g>
		<path style="fill:#C2E8FF;" d="M2.077,14.5c-0.318,0-0.577-0.259-0.577-0.577V2.077C1.5,1.759,1.759,1.5,2.077,1.5h11.846    c0.318,0,0.577,0.259,0.577,0.577v11.846c0,0.318-0.259,0.577-0.577,0.577H2.077z"/>
		<g>
			<path style="fill:#7496C4;" d="M13.923,2C13.965,2,14,2.035,14,2.077v11.846C14,13.965,13.965,14,13.923,14H2.077     C2.035,14,2,13.965,2,13.923V2.077C2,2.035,2.035,2,2.077,2H13.923 M13.923,1H2.077C1.482,1,1,1.482,1,2.077v11.846     C1,14.518,1.482,15,2.077,15h11.846C14.518,15,15,14.518,15,13.923V2.077C15,1.482,14.518,1,13.923,1L13.923,1z"/>
		</g>
	</g>
	<polyline style="fill:none;stroke:#7496C4;stroke-miterlimit:10;" points="4.5,8.021 6.82,10.34 12.038,5.121  "/>
</g>
<g id="Layer_2">
</g>
</svg>