<?xml version="1.0" encoding="iso-8859-1"?><!-- Generator: Adobe Illustrator 19.2.1, SVG Export Plug-In . SVG Version: 6.00 Build 0)  --><svg xmlns="http://www.w3.org/2000/svg" xmlns:xlink="http://www.w3.org/1999/xlink" version="1.1" id="Layer_1" x="0px" y="0px" viewBox="0 0 40 40" style="enable-background:new 0 0 40 40;" xml:space="preserve" width="40" height="40">
<g>
	<path style="fill:#C2E8FF;" d="M4.769,37.5c-1.251,0-2.269-1.018-2.269-2.269V4.769C2.5,3.518,3.518,2.5,4.769,2.5h30.462   c1.251,0,2.269,1.018,2.269,2.269v30.462c0,1.251-1.018,2.269-2.269,2.269H4.769z"/>
	<g>
		<path style="fill:#7496C4;" d="M35.231,3C36.206,3,37,3.794,37,4.769v30.462C37,36.206,36.206,37,35.231,37H4.769    C3.794,37,3,36.206,3,35.231V4.769C3,3.794,3.794,3,4.769,3H35.231 M35.231,2H4.769C3.24,2,2,3.24,2,4.769v30.462    C2,36.76,3.24,38,4.769,38h30.462C36.76,38,38,36.76,38,35.231V4.769C38,3.24,36.76,2,35.231,2L35.231,2z"/>
	</g>
</g>
<polyline style="fill:none;stroke:#7496C4;stroke-width:3;stroke-miterlimit:10;" points="11,20.053 16.964,26.018 30.385,12.598   "/>
</svg>