<?xml version="1.0" encoding="iso-8859-1"?><!-- Generator: Adobe Illustrator 19.2.1, SVG Export Plug-In . SVG Version: 6.00 Build 0)  --><svg xmlns="http://www.w3.org/2000/svg" xmlns:xlink="http://www.w3.org/1999/xlink" version="1.1" id="Layer_1" x="0px" y="0px" viewBox="0 0 16 16" style="enable-background:new 0 0 16 16;" xml:space="preserve" width="16" height="16">
<g>
	<path style="fill:#C2E8FF;" d="M0.521,14.5c0.286-3.361,3.428-3.982,3.569-4.008L8,10.5c0.053,0.019,3.192,0.651,3.479,4H0.521z"/>
	<g>
		<path style="fill:#7496C4;" d="M7.898,11c0.44,0.101,2.525,0.697,3.004,3H1.097c0.471-2.295,2.519-2.89,3.005-3H7.898 M8,10H4    c0,0-4,0.717-4,5h12C12,10.732,8,10,8,10L8,10z"/>
	</g>
</g>
<g>
	<path style="fill:#E8D47B;" d="M6,11.5c-1.02,0-1.519-0.523-1.682-0.74V8.682h3.363v2.079C7.521,10.974,7.022,11.5,6,11.5z"/>
	<path style="fill:#BA9B48;" d="M7.182,9.182v1.397C7.013,10.745,6.648,11,6,11c-0.648,0-1.012-0.255-1.182-0.422V9.182H7.182    M8.182,8.182H3.818v2.727C3.818,10.909,4.4,12,6,12s2.182-1.091,2.182-1.091V8.182L8.182,8.182z"/>
</g>
<g>
	<g>
		<path style="fill:#FFEEA3;" d="M6,9.5c-0.24,0-0.402-0.145-0.477-0.231l-0.096-0.11L5.289,9.118    C4.381,8.846,3.713,8.104,3.546,7.181L3.48,6.823L3.12,6.774C2.909,6.746,2.6,6.37,2.518,5.928L2.5,5.831V4.09L3.091,2.5h5.691    L9.5,4.106v1.76L9.482,5.928C9.4,6.37,9.091,6.746,8.88,6.774L8.52,6.823L8.454,7.181C8.287,8.104,7.619,8.846,6.711,9.118    L6.572,9.159l-0.096,0.11C6.402,9.355,6.24,9.5,6,9.5z"/>
	</g>
	<g>
		<path style="fill:#BA9B48;" d="M8.458,3L9,4.213v1.574L8.991,5.836c-0.038,0.206-0.163,0.39-0.233,0.45l-0.667,0.09L7.962,7.092    C7.829,7.829,7.295,8.421,6.568,8.639L6.289,8.722l-0.191,0.22C6.065,8.981,6.032,9,6,9S5.935,8.981,5.902,8.942l-0.191-0.22    L5.432,8.639c-0.727-0.217-1.261-0.81-1.394-1.546L3.909,6.376l-0.667-0.09c-0.07-0.06-0.194-0.244-0.233-0.45L3,5.799V4.18    L3.438,3H8.458 M9.106,2H2.743L2,4v2l0.026,0.019C2.13,6.578,2.546,7.202,3.054,7.27c0.202,1.117,1.021,2.007,2.092,2.327    C5.355,9.839,5.655,10,6,10s0.645-0.161,0.854-0.403c1.071-0.32,1.89-1.21,2.092-2.327C9.454,7.202,9.87,6.578,9.974,6.019L10,6V4    L9.106,2L9.106,2z"/>
	</g>
</g>
<g>
	<path style="fill:#FFC49C;" d="M9.468,5.5C9.223,4.175,7.646,3.339,7.453,3.242L7.115,3.07L6.857,3.351   C6.848,3.362,5.785,4.5,4.187,4.5c-1.147,0-1.524,0.55-1.64,1H2.5V3.452C2.5,2.025,3.42,0.5,6,0.5c1.06,0,1.56,0.74,1.58,0.771   l0.148,0.225L8,1.5c0.737,0,1.5,0.632,1.5,1.689V5.5H9.468z"/>
	<g>
		<path style="fill:#A16A4A;" d="M6,1c0.761,0,1.126,0.495,1.155,0.535L7.449,2H8c0.492,0,1,0.445,1,1.189v0.562    C8.429,3.19,7.803,2.858,7.679,2.796L6.997,2.45L6.485,3.017C6.476,3.027,5.56,4,4.187,4C3.701,4,3.31,4.088,3,4.237V3.452    C3,2.877,3.216,1,6,1 M6,0C3.15,0,2,1.766,2,3.452C2,4.668,2,6,2,6h1V5.886C3,5.423,3.245,5,4.187,5    c1.855,0,3.04-1.312,3.04-1.312S9,4.585,9,5.848c0,0.201,0,0.259,0,0.259V6h1c0,0,0-0.82,0-2.811C10,1.872,9.032,1,8,1    C8,1,7.367,0,6,0L6,0z"/>
	</g>
</g>
<g>
	<circle style="fill:#5E9C76;" cx="11.5" cy="11.5" r="4.5"/>
</g>
<polyline style="fill:none;stroke:#FFFFFF;stroke-miterlimit:10;" points="9.411,11.512 10.795,12.897 13.911,9.782 "/>
</svg>