<?xml version="1.0" encoding="iso-8859-1"?><!-- Generator: Adobe Illustrator 19.2.1, SVG Export Plug-In . SVG Version: 6.00 Build 0)  --><svg xmlns="http://www.w3.org/2000/svg" xmlns:xlink="http://www.w3.org/1999/xlink" version="1.1" id="Layer_1" x="0px" y="0px" viewBox="0 0 80 80" style="enable-background:new 0 0 80 80;" xml:space="preserve" width="80" height="80">
<g>
	<polygon style="fill:#BAE0BD;" points="2.916,70.96 17.597,56.278 25.38,64.062 14.439,75.001  "/>
	<g>
		<path style="fill:#5E9C76;" d="M17.597,56.986l7.076,7.076L14.309,74.425L3.832,70.751L17.597,56.986 M17.597,55.571L2,71.168    l12.571,4.409l11.516-11.516L17.597,55.571L17.597,55.571z"/>
	</g>
</g>
<g>
	<g>
		<path style="fill:#F2FAFF;" d="M8.585,61.763l3.938-9.968l-0.569-0.571c-1.936-1.935-1.936-5.083,0-7.019L50.206,5.954    C51.143,5.016,52.389,4.5,53.715,4.5s2.572,0.516,3.509,1.454l18.822,18.822c1.935,1.935,1.935,5.083,0,7.019L37.794,70.046    c-0.938,0.938-2.184,1.454-3.509,1.454s-2.572-0.516-3.509-1.454l-0.571-0.571l-9.968,3.939L8.585,61.763z"/>
	</g>
	<g>
		<path style="fill:#788B9C;" d="M53.715,5c1.192,0,2.313,0.464,3.156,1.307l18.822,18.822C76.536,25.972,77,27.093,77,28.285    s-0.464,2.313-1.307,3.156L37.441,69.693C36.598,70.536,35.477,71,34.285,71s-2.313-0.464-3.156-1.307l-0.339-0.339l-0.464-0.464    l-0.61,0.241l-9.358,3.698L9.171,61.642l3.697-9.359l0.241-0.61l-0.464-0.464l-0.338-0.338c-1.74-1.74-1.74-4.571,0-6.311    L50.559,6.307C51.402,5.464,52.523,5,53.715,5 M53.715,4c-1.398,0-2.796,0.533-3.863,1.6L11.6,43.852    c-2.133,2.133-2.133,5.592,0,7.726l0.338,0.338L8,61.885L20.115,74l9.968-3.939l0.339,0.339c1.067,1.067,2.465,1.6,3.863,1.6    s2.796-0.533,3.863-1.6L76.4,32.148c2.133-2.133,2.133-5.592,0-7.726L57.578,5.6C56.511,4.533,55.113,4,53.715,4L53.715,4z"/>
	</g>
</g>
<g>
	
		<rect x="27.636" y="30.06" transform="matrix(0.7071 -0.7071 0.7071 0.7071 -24.3148 37.963)" style="fill:#BAE0BD;" width="12.064" height="36.544"/>
	<g>
		<path style="fill:#5E9C76;" d="M25.013,31.854l25.134,25.134l-7.823,7.823L17.189,39.677L25.013,31.854 M25.013,30.44    l-9.237,9.237l26.548,26.548l9.237-9.237L25.013,30.44L25.013,30.44z"/>
	</g>
</g>
</svg>