<?xml version="1.0" encoding="iso-8859-1"?><!-- Generator: Adobe Illustrator 19.2.1, SVG Export Plug-In . SVG Version: 6.00 Build 0)  --><svg xmlns="http://www.w3.org/2000/svg" xmlns:xlink="http://www.w3.org/1999/xlink" version="1.1" id="Layer_1" x="0px" y="0px" viewBox="0 0 16 16" style="enable-background:new 0 0 16 16;" xml:space="preserve" width="16" height="16">
<g>
	<polygon style="fill:#5E9C76;" points="1.796,15.92 0,14.141 3.284,10.857 5.071,12.644  "/>
</g>
<g>
	<g>
		<path style="fill:#F2FAFF;" d="M1.94,12.053l0.814-2.061L2.404,9.642c-0.252-0.252-0.252-0.664,0-0.916l8.036-8.036    c0.123-0.122,0.285-0.19,0.458-0.19s0.335,0.068,0.458,0.19l3.955,3.955c0.122,0.123,0.19,0.285,0.19,0.458    s-0.068,0.335-0.19,0.458l-8.036,8.036c-0.123,0.123-0.285,0.19-0.458,0.19s-0.335-0.067-0.458-0.19l-0.333-0.333l-2.061,0.814    L1.94,12.053z"/>
	</g>
	<g>
		<path style="fill:#788B9C;" d="M10.898,1c0.028,0,0.069,0.007,0.104,0.043l3.954,3.954c0.058,0.058,0.058,0.151,0,0.209    l-8.036,8.036c-0.036,0.036-0.077,0.043-0.104,0.043c-0.028,0-0.069-0.007-0.104-0.043l-0.1-0.1l-0.464-0.464l-0.61,0.241    l-1.45,0.573l-1.561-1.561l0.573-1.45l0.241-0.61L2.876,9.407L2.758,9.288C2.7,9.231,2.7,9.137,2.758,9.079l8.036-8.036    C10.829,1.007,10.87,1,10.898,1 M10.898,0c-0.294,0-0.587,0.112-0.812,0.336L2.05,8.372c-0.448,0.448-0.448,1.175,0,1.623    l0.118,0.118l-0.814,2.06l2.489,2.489l2.06-0.814l0.1,0.1c0.224,0.224,0.518,0.336,0.812,0.336s0.587-0.112,0.812-0.336    l8.036-8.036c0.448-0.448,0.448-1.175,0-1.623L11.71,0.336C11.486,0.112,11.192,0,10.898,0L10.898,0z"/>
	</g>
</g>
<g>
	
		<rect x="6.081" y="5.276" transform="matrix(0.707 -0.7072 0.7072 0.707 -4.0339 7.7034)" style="fill:#BAE0BD;" width="2.397" height="6.888"/>
	<g>
		<path style="fill:#5E9C76;" d="M5.692,6.145l4.163,4.163l-0.988,0.988L4.704,7.133L5.692,6.145 M5.692,4.73L3.29,7.133    l5.577,5.577l2.402-2.402L5.692,4.73L5.692,4.73z"/>
	</g>
</g>
</svg>