<?xml version="1.0" encoding="iso-8859-1"?><!-- Generator: Adobe Illustrator 19.2.1, SVG Export Plug-In . SVG Version: 6.00 Build 0)  --><svg xmlns="http://www.w3.org/2000/svg" xmlns:xlink="http://www.w3.org/1999/xlink" version="1.1" id="Layer_1" x="0px" y="0px" viewBox="0 0 30 30" style="enable-background:new 0 0 30 30;" xml:space="preserve" width="30" height="30">
<g>
	<polygon style="fill:#BAE0BD;" points="1.916,25.538 6.746,20.707 9.167,23.128 5.5,26.795  "/>
	<g>
		<path style="fill:#5E9C76;" d="M6.746,21.414l1.714,1.714l-3.091,3.091l-2.537-0.89L6.746,21.414 M6.746,20L1,25.746l4.631,1.624    l4.243-4.243L6.746,20L6.746,20z"/>
	</g>
</g>
<g>
	<g>
		<path style="fill:#F2FAFF;" d="M3.956,22.183l1.425-3.606l-0.439-0.439C4.657,17.853,4.5,17.475,4.5,17.072    c0-0.403,0.157-0.782,0.442-1.067L19.005,1.942C19.29,1.657,19.668,1.5,20.071,1.5c0.403,0,0.782,0.157,1.067,0.442l6.92,6.92    C28.343,9.147,28.5,9.525,28.5,9.928s-0.157,0.782-0.442,1.067L13.995,25.058c-0.285,0.285-0.664,0.442-1.066,0.442    c-0.403,0-0.782-0.157-1.067-0.442l-0.408-0.407l-3.605,1.425L3.956,22.183z"/>
	</g>
	<g>
		<path style="fill:#788B9C;" d="M20.072,2c0.269,0,0.523,0.105,0.713,0.295l6.92,6.92c0.393,0.393,0.393,1.033,0,1.426    L13.641,24.705C13.451,24.895,13.198,25,12.928,25c-0.269,0-0.523-0.105-0.713-0.295l-0.176-0.176l-0.464-0.464l-0.61,0.241    L7.97,25.49l-3.428-3.428l1.183-2.995l0.241-0.61l-0.464-0.464l-0.207-0.207C5.105,17.594,5,17.341,5,17.072    c0-0.269,0.105-0.523,0.295-0.713L19.359,2.295C19.549,2.105,19.802,2,20.072,2 M20.072,1c-0.514,0-1.028,0.196-1.42,0.588    L4.588,15.651c-0.784,0.784-0.784,2.056,0,2.84l0.207,0.207l-1.424,3.606l4.356,4.356l3.605-1.425l0.176,0.176    C11.9,25.804,12.414,26,12.928,26s1.028-0.196,1.42-0.588l14.063-14.063c0.784-0.784,0.784-2.056,0-2.84l-6.92-6.92    C21.1,1.196,20.586,1,20.072,1L20.072,1z"/>
	</g>
</g>
<g>
	
		<rect x="10.8" y="10.897" transform="matrix(0.7071 -0.7071 0.7071 0.7071 -8.5118 14.0479)" style="fill:#BAE0BD;" width="3.803" height="12.803"/>
	<g>
		<path style="fill:#5E9C76;" d="M9.519,12.135l8.346,8.346l-1.982,1.982l-8.346-8.346L9.519,12.135 M9.519,10.72l-3.396,3.396    l9.76,9.76l3.396-3.396L9.519,10.72L9.519,10.72z"/>
	</g>
</g>
</svg>