<?xml version="1.0" encoding="iso-8859-1"?><!-- Generator: Adobe Illustrator 19.2.1, SVG Export Plug-In . SVG Version: 6.00 Build 0)  --><svg xmlns="http://www.w3.org/2000/svg" xmlns:xlink="http://www.w3.org/1999/xlink" version="1.1" id="Layer_1" x="0px" y="0px" viewBox="0 0 40 40" style="enable-background:new 0 0 40 40;" xml:space="preserve" width="40" height="40">
<g>
	<polygon style="fill:#BAE0BD;" points="1.916,35.375 8.798,28.493 12.336,32.031 7.154,37.213  "/>
	<g>
		<path style="fill:#5E9C76;" d="M8.798,29.2l2.831,2.831l-4.606,4.606l-4.191-1.47L8.798,29.2 M8.798,27.786L1,35.584l6.285,2.204    l5.758-5.758L8.798,27.786L8.798,27.786z"/>
	</g>
</g>
<g>
	<g>
		<path style="fill:#F2FAFF;" d="M4.585,30.821l1.97-4.985l-0.402-0.401c-0.869-0.87-0.869-2.286,0-3.156L25.279,3.153    C25.701,2.732,26.261,2.5,26.857,2.5s1.157,0.232,1.578,0.653l9.411,9.411c0.87,0.87,0.87,2.286,0,3.156L18.721,34.847    c-0.421,0.421-0.982,0.653-1.578,0.653s-1.157-0.232-1.578-0.653l-0.401-0.402l-4.984,1.97L4.585,30.821z"/>
	</g>
	<g>
		<path style="fill:#788B9C;" d="M26.857,3c0.462,0,0.897,0.18,1.224,0.507l9.411,9.411c0.675,0.675,0.675,1.774,0,2.449    L18.367,34.493C18.04,34.82,17.605,35,17.143,35c-0.462,0-0.897-0.18-1.224-0.507l-0.17-0.17l-0.464-0.464l-0.61,0.241    l-4.374,1.728l-5.129-5.129l1.728-4.374l0.241-0.61l-0.464-0.464l-0.169-0.169c-0.675-0.675-0.675-1.773,0-2.449L25.633,3.507    C25.96,3.18,26.395,3,26.857,3 M26.857,2c-0.699,0-1.398,0.267-1.931,0.8L5.8,21.926c-1.067,1.067-1.067,2.796,0,3.863    l0.169,0.169L4,30.942L10.058,37l4.984-1.97l0.17,0.17c0.533,0.533,1.232,0.8,1.931,0.8c0.699,0,1.398-0.267,1.931-0.8    L38.2,16.074c1.067-1.067,1.067-2.796,0-3.863L28.789,2.8C28.255,2.267,27.556,2,26.857,2L26.857,2z"/>
	</g>
</g>
<g>
	
		<rect x="14.068" y="15.28" transform="matrix(0.7071 -0.7071 0.7071 0.7071 -12.1574 18.9815)" style="fill:#BAE0BD;" width="5.532" height="17.772"/>
	<g>
		<path style="fill:#5E9C76;" d="M12.506,16.634l11.86,11.86l-3.204,3.204l-11.86-11.86L12.506,16.634 M12.506,15.22l-4.619,4.619    l13.274,13.274l4.619-4.619L12.506,15.22L12.506,15.22z"/>
	</g>
</g>
</svg>