<?xml version="1.0" encoding="iso-8859-1"?><!-- Generator: Adobe Illustrator 19.2.1, SVG Export Plug-In . SVG Version: 6.00 Build 0)  --><svg xmlns="http://www.w3.org/2000/svg" xmlns:xlink="http://www.w3.org/1999/xlink" version="1.1" id="Layer_1" x="0px" y="0px" viewBox="0 0 80 80" style="enable-background:new 0 0 80 80;" xml:space="preserve" width="80" height="80">
<g>
	<path style="fill:#F5C276;" d="M11.728,75.5c-1.229,0-2.228-1.018-2.228-2.27V6.769c0-1.251,0.999-2.269,2.228-2.269h20.965   C32.563,5.011,32.5,5.506,32.5,6c0,3.584,2.916,6.5,6.5,6.5s6.5-2.916,6.5-6.5c0-0.494-0.063-0.989-0.192-1.5h20.965   c1.229,0,2.228,1.018,2.228,2.269V73.23c0,1.251-0.999,2.27-2.228,2.27H11.728z"/>
	<path style="fill:#C29653;" d="M66.273,5C67.225,5,68,5.794,68,6.769v66.462C68,74.206,67.225,75,66.273,75H11.727   C10.775,75,10,74.206,10,73.231V6.769C10,5.794,10.775,5,11.727,5h20.352C32.026,5.335,32,5.667,32,6c0,3.86,3.14,7,7,7s7-3.14,7-7   c0-0.333-0.026-0.665-0.079-1H66.273 M66.273,4h-21.64C44.856,4.628,45,5.295,45,6c0,3.314-2.686,6-6,6s-6-2.686-6-6   c0-0.705,0.144-1.372,0.367-2h-21.64C10.221,4,9,5.24,9,6.769v66.462C9,74.76,10.221,76,11.727,76h54.545   C67.779,76,69,74.76,69,73.231V6.769C69,5.24,67.779,4,66.273,4L66.273,4z"/>
</g>
<g>
	<path style="fill:#66798F;" d="M39,1c2.206,0,4,1.794,4,4s-1.794,4-4,4s-4-1.794-4-4S36.794,1,39,1 M39,0c-2.761,0-5,2.239-5,5   s2.239,5,5,5s5-2.239,5-5S41.761,0,39,0L39,0z"/>
</g>
<path style="fill:#66798F;" d="M43.38,4c0.073,0.323,0.12,0.655,0.12,1c0,2.485-2.015,4.5-4.5,4.5S34.5,7.485,34.5,5  c0-0.345,0.047-0.677,0.12-1H25v8c0,2.209,1.791,4,4,4h20c2.209,0,4-1.791,4-4V4H43.38z"/>
</svg>