<?xml version="1.0" encoding="iso-8859-1"?><!-- Generator: Adobe Illustrator 19.2.1, SVG Export Plug-In . SVG Version: 6.00 Build 0)  --><svg xmlns="http://www.w3.org/2000/svg" xmlns:xlink="http://www.w3.org/1999/xlink" version="1.1" id="Layer_1" x="0px" y="0px" viewBox="0 0 40 40" style="enable-background:new 0 0 40 40;" xml:space="preserve" width="40" height="40">
<g>
	<path style="fill:#F5C276;" d="M7.363,37.5c-0.476,0-0.863-0.397-0.863-0.885V3.385C6.5,2.897,6.888,2.5,7.363,2.5H17.54   C17.513,2.668,17.5,2.834,17.5,3c0,1.93,1.57,3.5,3.5,3.5s3.5-1.57,3.5-3.5c0-0.166-0.013-0.332-0.04-0.5h10.177   c0.476,0,0.863,0.397,0.863,0.885v33.23c0,0.488-0.388,0.885-0.863,0.885H7.363z"/>
	<path style="fill:#C29653;" d="M34.636,3C34.837,3,35,3.173,35,3.385v33.231C35,36.827,34.837,37,34.636,37H7.364   C7.163,37,7,36.827,7,36.615V3.385C7,3.173,7.163,3,7.364,3H17c0,2.206,1.794,4,4,4s4-1.794,4-4H34.636 M34.636,2h-10.82   C23.928,2.314,24,2.647,24,3c0,1.657-1.343,3-3,3s-3-1.343-3-3c0-0.353,0.072-0.686,0.184-1H7.364C6.611,2,6,2.62,6,3.385v33.231   C6,37.38,6.611,38,7.364,38h27.273C35.389,38,36,37.38,36,36.615V3.385C36,2.62,35.389,2,34.636,2L34.636,2z"/>
</g>
<path style="fill:#66798F;" d="M23.289,2c0.225,0.515,0.289,1.116,0.099,1.747c-0.247,0.819-0.937,1.479-1.769,1.679  C19.97,5.821,18.5,4.582,18.5,3c0-0.356,0.077-0.693,0.211-1H14v4c0,1.105,0.895,2,2,2h10c1.105,0,2-0.895,2-2V2H23.289z"/>
<g>
	<path style="fill:#66798F;" d="M21,1c1.103,0,2,0.897,2,2s-0.897,2-2,2s-2-0.897-2-2S19.897,1,21,1 M21,0c-1.657,0-3,1.343-3,3   s1.343,3,3,3s3-1.343,3-3S22.657,0,21,0L21,0z"/>
</g>
</svg>