<?xml version="1.0" encoding="iso-8859-1"?><!-- Generator: Adobe Illustrator 19.2.1, SVG Export Plug-In . SVG Version: 6.00 Build 0)  --><svg xmlns="http://www.w3.org/2000/svg" xmlns:xlink="http://www.w3.org/1999/xlink" version="1.1" id="Layer_1" x="0px" y="0px" viewBox="0 0 30 30" style="enable-background:new 0 0 30 30;" xml:space="preserve" width="30" height="30">
<g>
	<g>
		<path style="fill:#C2E8FF;" d="M5,24.5c-2.481,0-4.5-2.019-4.5-4.5c0-1.806,1.074-3.431,2.736-4.14l0.331-0.141l-0.029-0.358    c-0.005-0.062-0.013-0.123-0.021-0.183C3.51,15.119,3.5,15.061,3.5,15c0-2.481,2.019-4.5,4.5-4.5c0.311,0,0.626,0.036,0.965,0.11    l0.523,0.114l0.078-0.53C9.96,7.518,12.297,5.5,15,5.5c1.979,0,3.813,1.073,4.789,2.802l0.166,0.292l0.333-0.042    C20.522,8.521,20.758,8.5,21,8.5c2.982,0,5.394,2.336,5.49,5.319l0.009,0.278l0.241,0.139c1.702,0.982,2.76,2.807,2.76,4.764    c0,3.033-2.468,5.5-5.5,5.5H5z"/>
	</g>
	<g>
		<path style="fill:#7496C4;" d="M15,6c1.798,0,3.466,0.976,4.354,2.548l0.331,0.586l0.668-0.086C20.603,9.015,20.809,9,21,9    c2.71,0,4.902,2.124,4.991,4.836l0.018,0.556l0.482,0.278C28.038,15.562,29,17.222,29,19c0,2.757-2.243,5-5,5H5    c-2.206,0-4-1.794-4-4c0-1.605,0.955-3.05,2.433-3.68l0.662-0.282L4.037,15.32c-0.006-0.071-0.015-0.141-0.024-0.21    C4.008,15.073,4.001,15.037,4,15c0-2.206,1.794-4,4-4c0.275,0,0.556,0.032,0.858,0.098l1.047,0.229l0.156-1.06    C10.419,7.834,12.542,6,15,6 M15,5c-3.014,0-5.502,2.225-5.929,5.121C8.726,10.046,8.369,10,8,10c-2.761,0-5,2.239-5,5    c0,0.137,0.03,0.266,0.04,0.4C1.253,16.163,0,17.934,0,20c0,2.761,2.239,5,5,5h19c3.314,0,6-2.686,6-6    c0-2.224-1.213-4.16-3.01-5.197C26.885,10.581,24.247,8,21,8c-0.263,0-0.521,0.023-0.775,0.056C19.195,6.233,17.243,5,15,5L15,5z"/>
	</g>
</g>
</svg>