<?xml version="1.0" encoding="iso-8859-1"?><!-- Generator: Adobe Illustrator 19.2.1, SVG Export Plug-In . SVG Version: 6.00 Build 0)  --><svg xmlns="http://www.w3.org/2000/svg" xmlns:xlink="http://www.w3.org/1999/xlink" version="1.1" id="Layer_1" x="0px" y="0px" viewBox="0 0 16 16" style="enable-background:new 0 0 16 16;" xml:space="preserve" width="16" height="16">
<g>
	<g>
		<path style="fill:#C2E8FF;" d="M3,12.5c-1.379,0-2.5-1.122-2.5-2.5c0-1.055,0.676-1.999,1.682-2.35l0.354-0.123l-0.02-0.396    L2.504,7.031C2.5,5.622,3.621,4.5,5,4.5c0.058,0,0.112,0.009,0.168,0.017L5.635,4.57l0.15-0.326C6.277,3.185,7.343,2.5,8.5,2.5    c1.149,0,2.212,0.679,2.707,1.729l0.128,0.273l0.302,0.014C13.242,4.589,14.5,5.9,14.5,7.5l-0.024,0.218l-0.021,0.25l0.188,0.166    C15.195,8.619,15.5,9.282,15.5,10c0,1.378-1.121,2.5-2.5,2.5H3z"/>
	</g>
	<g>
		<path style="fill:#7496C4;" d="M8.5,3c0.972,0,1.835,0.553,2.254,1.442l0.257,0.545l0.602,0.028    C12.952,5.076,14,6.168,13.995,7.518c-0.008,0.055-0.014,0.11-0.019,0.166L13.94,8.179l0.373,0.329C14.756,8.898,15,9.428,15,10    c0,1.103-0.897,2-2,2H3c-1.103,0-2-0.897-2-2c0-0.842,0.541-1.597,1.347-1.878l0.714-0.249L3.016,7.118    C3.013,7.072,3.008,7.026,3,6.967C3.018,5.88,3.908,5,4.999,5c0.034,0.001,0.067,0.007,0.1,0.012l0.122,0.015l0.715,0.08    l0.303-0.653C6.649,3.571,7.536,3,8.5,3 M8.5,2C7.093,2,5.887,2.836,5.332,4.033C5.221,4.021,5.114,4,5,4C3.343,4,2,5.343,2,7    c0,0.061,0.014,0.118,0.018,0.178C0.846,7.586,0,8.689,0,10c0,1.657,1.343,3,3,3h10c1.657,0,3-1.343,3-3    c0-0.897-0.402-1.693-1.026-2.243C14.98,7.671,15,7.588,15,7.5c0-1.879-1.483-3.399-3.341-3.484C11.099,2.828,9.9,2,8.5,2L8.5,2z"/>
	</g>
</g>
</svg>