<?xml version="1.0" encoding="iso-8859-1"?><!-- Generator: Adobe Illustrator 19.2.1, SVG Export Plug-In . SVG Version: 6.00 Build 0)  --><svg xmlns="http://www.w3.org/2000/svg" xmlns:xlink="http://www.w3.org/1999/xlink" version="1.1" id="Layer_1" x="0px" y="0px" viewBox="0 0 80 80" style="enable-background:new 0 0 80 80;" xml:space="preserve" width="80" height="80">
<g>
	<path style="fill:#BAE0BD;" d="M64.679,31.357H42.714c-2.717,0-4.928-2.211-4.928-4.928V12.857c0-2.717,2.211-4.928,4.928-4.928   h29.857c2.718,0,4.929,2.211,4.929,4.928v13.572c0,2.717-2.211,4.928-4.929,4.928h-0.5v9.857L64.679,31.357z"/>
	<g>
		<path style="fill:#5E9C76;" d="M72.571,8.429c2.442,0,4.429,1.987,4.429,4.429v13.571c0,2.442-1.987,4.429-4.429,4.429h-1v1    l0,7.857l-6.343-8.457l-0.3-0.4h-0.5H42.714c-2.442,0-4.429-1.987-4.429-4.429V12.857c0-2.442,1.987-4.429,4.429-4.429H72.571     M72.571,7.429H42.714c-2.998,0-5.429,2.43-5.429,5.429v13.571c0,2.998,2.43,5.429,5.429,5.429h21.714l8.143,10.857l0-10.857h0    c2.998,0,5.429-2.43,5.429-5.429V12.857C78,9.859,75.57,7.429,72.571,7.429L72.571,7.429z"/>
	</g>
</g>
<g>
	<path style="fill:#FFEEA3;" d="M20,59.5c-5.238,0-9.5-4.262-9.5-9.5s4.262-9.5,9.5-9.5s9.5,4.262,9.5,9.5S25.238,59.5,20,59.5z"/>
	<path style="fill:#BA9B48;" d="M20,41c4.963,0,9,4.037,9,9s-4.037,9-9,9s-9-4.037-9-9S15.037,41,20,41 M20,40   c-5.523,0-10,4.477-10,10s4.477,10,10,10s10-4.477,10-10S25.523,40,20,40L20,40z"/>
</g>
<g>
	<path style="fill:#B0C1D4;" d="M4.508,77.5c0.266-8.316,7.113-15,15.492-15s15.227,6.684,15.492,15H4.508z"/>
	<g>
		<path style="fill:#66798F;" d="M20,63c7.935,0,14.45,6.194,14.967,14H5.033C5.55,69.194,12.065,63,20,63 M20,62    c-8.837,0-16,7.163-16,16h32C36,69.163,28.837,62,20,62L20,62z"/>
	</g>
</g>
<g>
	<path style="fill:#FFEEA3;" d="M60,59.5c-5.238,0-9.5-4.262-9.5-9.5s4.262-9.5,9.5-9.5s9.5,4.262,9.5,9.5S65.238,59.5,60,59.5z"/>
	<path style="fill:#BA9B48;" d="M60,41c4.963,0,9,4.037,9,9s-4.037,9-9,9s-9-4.037-9-9S55.037,41,60,41 M60,40   c-5.523,0-10,4.477-10,10s4.477,10,10,10s10-4.477,10-10S65.523,40,60,40L60,40z"/>
</g>
<g>
	<path style="fill:#B0C1D4;" d="M44.508,77.5c0.266-8.316,7.113-15,15.492-15s15.227,6.684,15.492,15H44.508z"/>
	<g>
		<path style="fill:#66798F;" d="M60,63c7.935,0,14.45,6.194,14.967,14H45.033C45.55,69.194,52.065,63,60,63 M60,62    c-8.837,0-16,7.163-16,16h32C76,69.163,68.837,62,60,62L60,62z"/>
	</g>
</g>
<g>
	<path style="fill:#C2E8FF;" d="M10.5,27.5H6c-1.93,0-3.5-1.57-3.5-3.5V6c0-1.93,1.57-3.5,3.5-3.5h36c1.93,0,3.5,1.57,3.5,3.5v18   c0,1.93-1.57,3.5-3.5,3.5H17.76l-7.26,9.075V27.5z"/>
	<g>
		<path style="fill:#7496C4;" d="M42,3c1.654,0,3,1.346,3,3v18c0,1.654-1.346,3-3,3H18h-0.481l-0.3,0.375L11,35.149V28v-1h-1H6    c-1.654,0-3-1.346-3-3V6c0-1.654,1.346-3,3-3H42 M42,2H6C3.791,2,2,3.791,2,6v18c0,2.209,1.791,4,4,4h4v10l8-10h24    c2.209,0,4-1.791,4-4V6C46,3.791,44.209,2,42,2L42,2z"/>
	</g>
</g>
</svg>