<?xml version="1.0" encoding="iso-8859-1"?><!-- Generator: Adobe Illustrator 19.2.1, SVG Export Plug-In . SVG Version: 6.00 Build 0)  --><svg xmlns="http://www.w3.org/2000/svg" xmlns:xlink="http://www.w3.org/1999/xlink" version="1.1" id="Layer_1" x="0px" y="0px" viewBox="0 0 30 30" style="enable-background:new 0 0 30 30;" xml:space="preserve" width="30" height="30">
<g>
	<path style="fill:#BAE0BD;" d="M24.25,11.5H16c-0.827,0-1.5-0.673-1.5-1.5V5c0-0.827,0.673-1.5,1.5-1.5h11   c0.827,0,1.5,0.673,1.5,1.5v5c0,0.827-0.673,1.5-1.5,1.5h-0.5v3L24.25,11.5z"/>
	<g>
		<path style="fill:#5E9C76;" d="M27,4c0.551,0,1,0.449,1,1v5c0,0.551-0.449,1-1,1h-1v1v1l-1.2-1.6L24.5,11H24h-8    c-0.551,0-1-0.449-1-1V5c0-0.551,0.449-1,1-1H27 M27,3H16c-1.105,0-2,0.895-2,2v5c0,1.105,0.895,2,2,2h8l3,4v-4h0    c1.105,0,2-0.895,2-2V5C29,3.895,28.105,3,27,3L27,3z"/>
	</g>
</g>
<g>
	<circle style="fill:#FFEEA3;" cx="8" cy="18" r="3.5"/>
	<path style="fill:#BA9B48;" d="M8,15c1.654,0,3,1.346,3,3s-1.346,3-3,3s-3-1.346-3-3S6.346,15,8,15 M8,14c-2.209,0-4,1.791-4,4   s1.791,4,4,4s4-1.791,4-4S10.209,14,8,14L8,14z"/>
</g>
<g>
	<path style="fill:#B0C1D4;" d="M2.522,28.5c0.253-2.799,2.613-5,5.478-5s5.225,2.201,5.478,5H2.522z"/>
	<g>
		<path style="fill:#66798F;" d="M8,24c2.415,0,4.435,1.721,4.9,4H3.1C3.565,25.721,5.585,24,8,24 M8,23c-3.314,0-6,2.686-6,6h12    C14,25.686,11.314,23,8,23L8,23z"/>
	</g>
</g>
<g>
	<circle style="fill:#FFEEA3;" cx="22" cy="18" r="3.5"/>
	<path style="fill:#BA9B48;" d="M22,15c1.654,0,3,1.346,3,3s-1.346,3-3,3s-3-1.346-3-3S20.346,15,22,15 M22,14c-2.209,0-4,1.791-4,4   s1.791,4,4,4s4-1.791,4-4S24.209,14,22,14L22,14z"/>
</g>
<g>
	<path style="fill:#B0C1D4;" d="M16.522,28.5c0.253-2.799,2.613-5,5.478-5s5.225,2.201,5.478,5H16.522z"/>
	<g>
		<path style="fill:#66798F;" d="M22,24c2.415,0,4.435,1.721,4.9,4H17.1C17.565,25.721,19.585,24,22,24 M22,23c-3.314,0-6,2.686-6,6    h12C28,25.686,25.314,23,22,23L22,23z"/>
	</g>
</g>
<g>
	<path style="fill:#C2E8FF;" d="M4.5,9.5H3C2.173,9.5,1.5,8.827,1.5,8V3c0-0.827,0.673-1.5,1.5-1.5h12c0.827,0,1.5,0.673,1.5,1.5v5   c0,0.827-0.673,1.5-1.5,1.5H6.75l-2.25,3V9.5z"/>
	<g>
		<path style="fill:#7496C4;" d="M15,2c0.551,0,1,0.449,1,1v5c0,0.551-0.449,1-1,1H7H6.5L6.2,9.4L5,11v-1V9H4H3C2.449,9,2,8.551,2,8    V3c0-0.551,0.449-1,1-1H15 M15,1H3C1.895,1,1,1.895,1,3v5c0,1.105,0.895,2,2,2h1v4l3-4h8c1.105,0,2-0.895,2-2V3    C17,1.895,16.105,1,15,1L15,1z"/>
	</g>
</g>
</svg>