<?xml version="1.0" encoding="iso-8859-1"?><!-- Generator: Adobe Illustrator 19.2.1, SVG Export Plug-In . SVG Version: 6.00 Build 0)  --><svg xmlns="http://www.w3.org/2000/svg" xmlns:xlink="http://www.w3.org/1999/xlink" version="1.1" id="Layer_1" x="0px" y="0px" viewBox="0 0 40 40" style="enable-background:new 0 0 40 40;" xml:space="preserve" width="40" height="40">
<g>
	<path style="fill:#BAE0BD;" d="M32.464,15.429H21.357c-1.222,0-2.215-0.993-2.215-2.214V6.429c0-1.221,0.993-2.214,2.215-2.214   h14.929c1.221,0,2.214,0.993,2.214,2.214v6.786c0,1.221-0.993,2.214-2.214,2.214h-0.5l-0.001,4.429L32.464,15.429z"/>
	<g>
		<path style="fill:#5E9C76;" d="M36.286,4.714C37.231,4.714,38,5.483,38,6.429v6.786c0,0.945-0.769,1.714-1.714,1.714h-1v1v2.429    l-2.271-3.029l-0.3-0.4h-0.5H21.357c-0.945,0-1.714-0.769-1.714-1.714V6.429c0-0.945,0.769-1.714,1.714-1.714H36.286     M36.286,3.714H21.357c-1.499,0-2.714,1.215-2.714,2.714v6.786c0,1.499,1.215,2.714,2.714,2.714h10.857l4.071,5.429l0-5.429h0    c1.499,0,2.714-1.215,2.714-2.714V6.429C39,4.93,37.785,3.714,36.286,3.714L36.286,3.714z"/>
	</g>
</g>
<g>
	<circle style="fill:#FFEEA3;" cx="10" cy="25" r="4.5"/>
	<path style="fill:#BA9B48;" d="M10,21c2.206,0,4,1.794,4,4s-1.794,4-4,4s-4-1.794-4-4S7.794,21,10,21 M10,20c-2.761,0-5,2.239-5,5   s2.239,5,5,5s5-2.239,5-5S12.761,20,10,20L10,20z"/>
</g>
<g>
	<path style="fill:#B0C1D4;" d="M2.517,38.5c0.258-3.903,3.516-7,7.483-7s7.226,3.097,7.483,7H2.517z"/>
	<g>
		<path style="fill:#66798F;" d="M10,32c3.52,0,6.442,2.612,6.929,6H3.071C3.558,34.612,6.48,32,10,32 M10,31c-4.418,0-8,3.582-8,8    h16C18,34.582,14.418,31,10,31L10,31z"/>
	</g>
</g>
<g>
	<circle style="fill:#FFEEA3;" cx="30" cy="25" r="4.5"/>
	<path style="fill:#BA9B48;" d="M30,21c2.206,0,4,1.794,4,4s-1.794,4-4,4s-4-1.794-4-4S27.794,21,30,21 M30,20c-2.761,0-5,2.239-5,5   s2.239,5,5,5s5-2.239,5-5S32.761,20,30,20L30,20z"/>
</g>
<g>
	<path style="fill:#B0C1D4;" d="M22.517,38.5c0.258-3.903,3.516-7,7.483-7s7.226,3.097,7.483,7H22.517z"/>
	<g>
		<path style="fill:#66798F;" d="M30,32c3.52,0,6.442,2.612,6.929,6H23.071C23.558,34.612,26.48,32,30,32 M30,31    c-4.418,0-8,3.582-8,8h16C38,34.582,34.418,31,30,31L30,31z"/>
	</g>
</g>
<g>
	<path style="fill:#C2E8FF;" d="M5.5,13.5H3c-0.827,0-1.5-0.673-1.5-1.5V3c0-0.827,0.673-1.5,1.5-1.5h18c0.827,0,1.5,0.673,1.5,1.5   v9c0,0.827-0.673,1.5-1.5,1.5H8.76L5.5,17.575V13.5z"/>
	<g>
		<path style="fill:#7496C4;" d="M21,2c0.551,0,1,0.449,1,1v9c0,0.551-0.449,1-1,1H9H8.519l-0.3,0.375L6,16.149V14v-1H5H3    c-0.551,0-1-0.449-1-1V3c0-0.551,0.449-1,1-1H21 M21,1H3C1.895,1,1,1.895,1,3v9c0,1.105,0.895,2,2,2h2v5l4-5h12    c1.105,0,2-0.895,2-2V3C23,1.895,22.105,1,21,1L21,1z"/>
	</g>
</g>
</svg>