<?xml version="1.0" encoding="iso-8859-1"?><!-- Generator: Adobe Illustrator 19.2.1, SVG Export Plug-In . SVG Version: 6.00 Build 0)  --><svg xmlns="http://www.w3.org/2000/svg" xmlns:xlink="http://www.w3.org/1999/xlink" version="1.1" id="Layer_1" x="0px" y="0px" viewBox="0 0 16 16" style="enable-background:new 0 0 16 16;" xml:space="preserve" width="16" height="16">
<g>
	<polygon style="fill:#BAE0BD;" points="12.207,5.5 7.5,5.5 7.5,2.5 14.5,2.5 14.5,5.5 13.5,5.5 13.5,6.793  "/>
	<g>
		<path style="fill:#5E9C76;" d="M14,3v2h-1v0.586l-0.293-0.293L12.414,5H12H8V3H14 M15,2H7v4h5l2,2V6h1V2L15,2z"/>
	</g>
</g>
<g>
	<circle style="fill:#FFEEA3;" cx="5" cy="9" r="1.5"/>
	<path style="fill:#BA9B48;" d="M5,8c0.551,0,1,0.449,1,1s-0.449,1-1,1S4,9.551,4,9S4.449,8,5,8 M5,7C3.895,7,3,7.895,3,9   s0.895,2,2,2s2-0.895,2-2S6.105,7,5,7L5,7z"/>
</g>
<g>
	<path style="fill:#B0C1D4;" d="M2.55,14.5c0.232-1.14,1.243-2,2.45-2s2.218,0.86,2.45,2H2.55z"/>
	<g>
		<path style="fill:#66798F;" d="M5,13c0.739,0,1.385,0.403,1.732,1H3.268C3.615,13.403,4.261,13,5,13 M5,12c-1.657,0-3,1.343-3,3h6    C8,13.343,6.657,12,5,12L5,12z"/>
	</g>
</g>
<g>
	<circle style="fill:#FFEEA3;" cx="11" cy="9" r="1.5"/>
	<path style="fill:#BA9B48;" d="M11,8c0.551,0,1,0.449,1,1s-0.449,1-1,1s-1-0.449-1-1S10.449,8,11,8 M11,7C9.895,7,9,7.895,9,9   s0.895,2,2,2s2-0.895,2-2S12.105,7,11,7L11,7z"/>
</g>
<g>
	<path style="fill:#B0C1D4;" d="M8.55,14.5c0.232-1.14,1.243-2,2.45-2s2.218,0.86,2.45,2H8.55z"/>
	<g>
		<path style="fill:#66798F;" d="M11,13c0.739,0,1.385,0.403,1.732,1H9.268C9.615,13.403,10.261,13,11,13 M11,12    c-1.657,0-3,1.343-3,3h6C14,13.343,12.657,12,11,12L11,12z"/>
	</g>
</g>
<g>
	<polygon style="fill:#C2E8FF;" points="2.5,4.5 1.5,4.5 1.5,1.5 8.5,1.5 8.5,4.5 3.793,4.5 2.5,5.793  "/>
	<g>
		<path style="fill:#7496C4;" d="M8,2v2H4H3.586L3.293,4.293L3,4.586V4H2V2H8 M9,1H1v4h1v2l2-2h5V1L9,1z"/>
	</g>
</g>
</svg>