<?xml version="1.0" encoding="iso-8859-1"?><!-- Generator: Adobe Illustrator 19.2.1, SVG Export Plug-In . SVG Version: 6.00 Build 0)  --><svg xmlns="http://www.w3.org/2000/svg" xmlns:xlink="http://www.w3.org/1999/xlink" version="1.1" id="Layer_1" x="0px" y="0px" viewBox="0 0 40 40" style="enable-background:new 0 0 40 40;" xml:space="preserve" width="40" height="40">
<g>
	<path style="fill:#F5C276;" d="M23.598,10.095l7.289-7.289C31.729,1.964,32.849,1.5,34.04,1.5s2.312,0.464,3.153,1.306   C38.036,3.648,38.5,4.769,38.5,5.96c0,1.191-0.464,2.311-1.307,3.153l-7.288,7.289L23.598,10.095z"/>
	<g>
		<path style="fill:#C29653;" d="M34.04,2c1.058,0,2.052,0.412,2.8,1.16c1.544,1.544,1.544,4.056,0,5.6l-6.935,6.935l-5.6-5.6    L31.24,3.16C31.988,2.412,32.983,2,34.04,2 M34.04,1c-1.269,0-2.539,0.484-3.507,1.453l-7.642,7.642l7.014,7.014l7.642-7.642    c1.937-1.937,1.937-5.077,0-7.014C36.579,1.484,35.31,1,34.04,1L34.04,1z"/>
	</g>
</g>
<g>
	<path style="fill:#C2E8FF;" d="M1.707,36.11l1.792-1.791l-0.528-1.586c-0.27-0.804-0.063-1.676,0.536-2.276l18.019-18.019   l6.036,6.035L9.543,36.493c-0.421,0.42-0.979,0.651-1.574,0.651l0,0c-0.238,0-0.475-0.038-0.702-0.114l-1.585-0.529L3.89,38.293   L1.707,36.11z"/>
	<path style="fill:#7496C4;" d="M21.526,13.146l5.328,5.328L9.189,36.139c-0.326,0.326-0.759,0.505-1.22,0.505   c-0.185,0-0.369-0.03-0.545-0.089l-1.292-0.431L5.546,35.93l-0.437,0.437L3.89,37.586L2.414,36.11l1.219-1.219l0.437-0.437   l-0.195-0.586l-0.431-1.292c-0.208-0.624-0.048-1.3,0.417-1.765L21.526,13.146 M21.526,11.732L3.154,30.104   c-0.73,0.73-0.984,1.809-0.658,2.788l0.431,1.292L1,36.11L3.89,39l1.926-1.926l1.292,0.431c0.282,0.094,0.573,0.14,0.861,0.14   c0.711,0,1.407-0.279,1.927-0.798l18.372-18.372L21.526,11.732L21.526,11.732z"/>
</g>
<g>
	<path style="fill:#F5C276;" d="M29.521,20.5c-0.225,0-0.436-0.087-0.595-0.246l-9.181-9.18c-0.327-0.328-0.327-0.861,0-1.189   l2.139-2.139c0.159-0.159,0.37-0.246,0.595-0.246c0.224,0,0.435,0.087,0.594,0.246l9.181,9.18c0.327,0.328,0.327,0.861,0,1.189   l-2.139,2.139C29.956,20.413,29.745,20.5,29.521,20.5z"/>
	<g>
		<path style="fill:#C29653;" d="M22.479,8c0.053,0,0.154,0.013,0.241,0.1l9.18,9.18c0.133,0.133,0.133,0.349,0,0.481L29.761,19.9    c-0.087,0.087-0.188,0.1-0.241,0.1s-0.154-0.013-0.241-0.1l-9.18-9.18c-0.133-0.133-0.133-0.349,0-0.481L22.239,8.1    C22.325,8.013,22.427,8,22.479,8 M22.479,7c-0.343,0-0.686,0.131-0.948,0.393l-2.139,2.139c-0.523,0.523-0.523,1.372,0,1.896    l9.18,9.18C28.835,20.869,29.178,21,29.521,21c0.343,0,0.686-0.131,0.948-0.393l2.139-2.139c0.523-0.523,0.523-1.372,0-1.896    l-9.18-9.18C23.165,7.131,22.822,7,22.479,7L22.479,7z"/>
	</g>
</g>
</svg>