<?xml version="1.0" encoding="iso-8859-1"?><!-- Generator: Adobe Illustrator 19.2.1, SVG Export Plug-In . SVG Version: 6.00 Build 0)  --><svg xmlns="http://www.w3.org/2000/svg" xmlns:xlink="http://www.w3.org/1999/xlink" version="1.1" id="Layer_1" x="0px" y="0px" viewBox="0 0 80 80" style="enable-background:new 0 0 80 80;" xml:space="preserve" width="80" height="80">
<g>
	<path style="fill:#F5C276;" d="M46.489,20.19L61.42,5.259C63.199,3.48,65.564,2.5,68.081,2.5c2.516,0,4.881,0.98,6.66,2.759   S77.5,9.403,77.5,11.919c0,2.516-0.979,4.881-2.759,6.66L59.811,33.511L46.489,20.19z"/>
	<g>
		<path style="fill:#C29653;" d="M68.081,3c2.382,0,4.622,0.928,6.307,2.612c3.478,3.478,3.478,9.136,0,12.614L59.81,32.804    L47.196,20.19L61.774,5.612C63.458,3.928,65.698,3,68.081,3 M68.081,2c-2.539,0-5.077,0.968-7.014,2.905L45.782,20.19    L59.81,34.218l15.284-15.284c3.874-3.874,3.874-10.154,0-14.028l0,0C73.158,2.968,70.619,2,68.081,2L68.081,2z"/>
	</g>
</g>
<g>
	<path style="fill:#C2E8FF;" d="M2.707,72.221l3.718-3.717l-0.959-2.878c-0.597-1.79-0.139-3.73,1.195-5.064l36.391-36.391   l12.777,12.777L19.438,73.339c-0.935,0.935-2.178,1.45-3.499,1.45c-0.001,0-0.001,0-0.001,0c-0.532,0-1.058-0.085-1.563-0.254   l-2.878-0.959l-3.718,3.718L2.707,72.221z"/>
	<path style="fill:#7496C4;" d="M43.052,24.878l12.07,12.07L19.085,72.985c-0.84,0.84-1.958,1.303-3.146,1.303   c-0.478,0-0.951-0.077-1.406-0.228l-2.584-0.862l-0.586-0.195l-0.437,0.437l-3.146,3.146l-4.365-4.365l3.146-3.146l0.437-0.437   l-0.195-0.586L5.94,65.467c-0.536-1.609-0.125-3.353,1.075-4.552L43.052,24.878 M43.052,23.464L6.307,60.208   c-1.459,1.459-1.969,3.618-1.316,5.576l0.861,2.585L2,72.221L7.779,78l3.853-3.853l2.584,0.862c0.565,0.188,1.146,0.28,1.722,0.28   c1.422,0,2.815-0.557,3.853-1.596l36.744-36.744L43.052,23.464L43.052,23.464z"/>
</g>
<g>
	<path style="fill:#F5C276;" d="M60.041,40.5c-0.582,0-1.13-0.227-1.542-0.639L40.139,21.5c-0.412-0.412-0.639-0.959-0.639-1.542   s0.227-1.13,0.639-1.542l3.277-3.278c0.412-0.412,0.96-0.639,1.543-0.639c0.582,0,1.13,0.227,1.542,0.639L64.861,33.5   c0.412,0.412,0.639,0.959,0.639,1.542s-0.227,1.13-0.639,1.542l-3.277,3.278C61.172,40.273,60.624,40.5,60.041,40.5z"/>
	<g>
		<path style="fill:#C29653;" d="M44.959,15c0.449,0,0.871,0.175,1.189,0.492l18.361,18.361C64.825,34.17,65,34.592,65,35.041    c0,0.449-0.175,0.871-0.492,1.189l-3.278,3.278C60.912,39.825,60.49,40,60.041,40c-0.449,0-0.871-0.175-1.189-0.492L40.492,21.147    C40.175,20.83,40,20.408,40,19.959c0-0.449,0.175-0.871,0.492-1.189l3.278-3.278C44.088,15.175,44.51,15,44.959,15 M44.959,14    c-0.686,0-1.372,0.262-1.896,0.785l-3.278,3.278c-1.047,1.047-1.047,2.744,0,3.791l18.361,18.361    C58.669,40.738,59.355,41,60.041,41s1.372-0.262,1.896-0.785l3.278-3.278c1.047-1.047,1.047-2.744,0-3.791L46.854,14.785    C46.331,14.262,45.645,14,44.959,14L44.959,14z"/>
	</g>
</g>
</svg>