<?xml version="1.0" encoding="iso-8859-1"?><!-- Generator: Adobe Illustrator 19.2.1, SVG Export Plug-In . SVG Version: 6.00 Build 0)  --><svg xmlns="http://www.w3.org/2000/svg" xmlns:xlink="http://www.w3.org/1999/xlink" version="1.1" id="Layer_1" x="0px" y="0px" viewBox="0 0 30 30" style="enable-background:new 0 0 30 30;" xml:space="preserve" width="30" height="30">
<g>
	<path style="fill:#F5C276;" d="M18.462,6.987l4.544-4.544C23.613,1.835,24.422,1.5,25.282,1.5c0.859,0,1.668,0.335,2.275,0.942   C28.165,3.05,28.5,3.858,28.5,4.718c0,0.86-0.335,1.668-0.942,2.276l-4.545,4.544L18.462,6.987z"/>
	<g>
		<path style="fill:#C29653;" d="M25.282,2c0.726,0,1.409,0.283,1.922,0.796C27.717,3.31,28,3.992,28,4.718    c0,0.726-0.283,1.409-0.796,1.922l-4.191,4.191l-3.844-3.844l4.191-4.191C23.873,2.283,24.556,2,25.282,2 M25.282,1    c-0.952,0-1.903,0.363-2.629,1.089l-4.898,4.898l5.258,5.258l4.898-4.898c1.452-1.452,1.452-3.806,0-5.258v0    C27.185,1.363,26.233,1,25.282,1L25.282,1z"/>
	</g>
</g>
<g>
	<path style="fill:#C2E8FF;" d="M1.707,26.747l1.367-1.368l-0.434-1.301c-0.195-0.587-0.045-1.225,0.393-1.663L16.019,9.43   l4.552,4.551L7.584,26.967c-0.307,0.307-0.715,0.476-1.148,0.476l0,0c-0.175,0-0.348-0.028-0.514-0.083l-1.301-0.434l-1.367,1.368   L1.707,26.747z"/>
	<path style="fill:#7496C4;" d="M16.019,10.137l3.844,3.844L7.231,26.613c-0.212,0.212-0.495,0.329-0.796,0.329   c-0.121,0-0.24-0.019-0.355-0.058l-1.008-0.336l-0.586-0.195l-0.437,0.437l-0.795,0.795l-0.839-0.839l0.795-0.795l0.437-0.437   l-0.195-0.586L3.115,23.92c-0.136-0.407-0.031-0.848,0.272-1.151L16.019,10.137 M16.019,8.723L2.68,22.062   c-0.569,0.569-0.768,1.411-0.513,2.174l0.336,1.008L1,26.746L3.254,29l1.502-1.502l1.008,0.336c0.22,0.073,0.447,0.109,0.672,0.109   c0.555,0,1.098-0.217,1.503-0.622l13.339-13.339L16.019,8.723L16.019,8.723z"/>
</g>
<g>
	<path style="fill:#F5C276;" d="M21.511,15.838c-0.134,0-0.259-0.052-0.354-0.146l-6.849-6.849c-0.095-0.095-0.146-0.22-0.146-0.354   s0.052-0.259,0.146-0.354l2.342-2.342c0.095-0.094,0.22-0.146,0.354-0.146s0.259,0.052,0.354,0.146l6.849,6.849   c0.195,0.195,0.195,0.512,0,0.708l-2.342,2.341C21.77,15.786,21.645,15.838,21.511,15.838z"/>
	<g>
		<path style="fill:#C29653;" d="M17.004,6.148L17.004,6.148l6.849,6.849l-2.342,2.342l-6.849-6.849L17.004,6.148    C17.003,6.148,17.003,6.148,17.004,6.148 M17.004,5.148c-0.256,0-0.512,0.098-0.707,0.293l-2.342,2.342    c-0.391,0.391-0.391,1.024,0,1.414l6.849,6.849c0.195,0.195,0.451,0.293,0.707,0.293s0.512-0.098,0.707-0.293l2.342-2.342    c0.391-0.391,0.391-1.024,0-1.414L17.711,5.44C17.515,5.245,17.26,5.148,17.004,5.148L17.004,5.148z"/>
	</g>
</g>
</svg>