<?xml version="1.0" encoding="iso-8859-1"?><!-- Generator: Adobe Illustrator 19.2.1, SVG Export Plug-In . SVG Version: 6.00 Build 0)  --><svg xmlns="http://www.w3.org/2000/svg" xmlns:xlink="http://www.w3.org/1999/xlink" version="1.1" id="Layer_1" x="0px" y="0px" viewBox="0 0 30 30" style="enable-background:new 0 0 30 30;" xml:space="preserve" width="30" height="30">
<g>
	<g>
		<path style="fill:#8BB7F0;" d="M3.897,27.46c0.613-1.058,1.31-2.312,1.947-3.504l0.195-0.364l-0.321-0.26    C2.998,21.132,1.5,18.173,1.5,15C1.5,8.659,7.556,3.5,15,3.5S28.5,8.659,28.5,15S22.444,26.5,15,26.5    c-1.491,0-2.981-0.218-4.429-0.647l-0.165-0.049l-0.161,0.063C8.068,26.727,5.727,27.308,3.897,27.46z"/>
	</g>
	<g>
		<path style="fill:#4E7AB5;" d="M15,4c7.168,0,13,4.935,13,11s-5.832,11-13,11c-1.443,0-2.885-0.211-4.287-0.626l-0.33-0.098    l-0.321,0.126c-1.767,0.697-3.638,1.207-5.239,1.446C5.304,26,5.811,25.08,6.285,24.192l0.39-0.729l-0.643-0.52    C3.432,20.84,2,18.019,2,15C2,8.935,7.832,4,15,4 M15,3C7.268,3,1,8.373,1,15c0,3.44,1.698,6.533,4.403,8.721    C4.563,25.292,3.665,26.885,3,28c2.046,0,4.915-0.676,7.429-1.667C11.863,26.758,13.397,27,15,27c7.732,0,14-5.373,14-12    C29,8.373,22.732,3,15,3L15,3z"/>
	</g>
</g>
</svg>