<?xml version="1.0" encoding="iso-8859-1"?><!-- Generator: Adobe Illustrator 19.2.1, SVG Export Plug-In . SVG Version: 6.00 Build 0)  --><svg xmlns="http://www.w3.org/2000/svg" xmlns:xlink="http://www.w3.org/1999/xlink" version="1.1" id="Layer_1" x="0px" y="0px" viewBox="0 0 80 80" style="enable-background:new 0 0 80 80;" xml:space="preserve" width="80" height="80">
<g>
	<g>
		<path style="fill:#8BB7F0;" d="M8.887,72.485c1.665-2.825,3.707-6.459,5.566-9.911l0.199-0.37l-0.329-0.26    C6.699,55.921,2.5,47.772,2.5,39C2.5,21.631,19.322,7.5,40,7.5S77.5,21.631,77.5,39S60.678,70.5,40,70.5    c-4.49,0-8.886-0.663-13.068-1.969l-0.163-0.051l-0.16,0.06C20.306,70.875,13.769,72.324,8.887,72.485z"/>
	</g>
	<g>
		<path style="fill:#4E7AB5;" d="M40,8c20.402,0,37,13.907,37,31S60.402,70,40,70c-4.439,0-8.785-0.655-12.919-1.947l-0.326-0.102    l-0.32,0.119c-5.869,2.175-11.935,3.575-16.651,3.871c1.574-2.699,3.417-5.991,5.109-9.131l0.398-0.739l-0.658-0.52    C7.131,55.625,3,47.616,3,39C3,21.907,19.598,8,40,8 M40,7C19.013,7,2,21.327,2,39c0,9.206,4.623,17.498,12.013,23.336    C11.886,66.285,9.671,70.199,8,73c5.18,0,12.309-1.593,18.783-3.992C30.9,70.294,35.352,71,40,71c20.987,0,38-14.327,38-32    C78,21.327,60.987,7,40,7L40,7z"/>
	</g>
</g>
</svg>