<?xml version="1.0" encoding="iso-8859-1"?><!-- Generator: Adobe Illustrator 19.2.1, SVG Export Plug-In . SVG Version: 6.00 Build 0)  --><svg xmlns="http://www.w3.org/2000/svg" xmlns:xlink="http://www.w3.org/1999/xlink" version="1.1" x="0px" y="0px" viewBox="0 0 40 40" style="enable-background:new 0 0 40 40;" xml:space="preserve" width="40" height="40">
<g id="Layer_1">
</g>
<g id="Layer_2">
	<g>
		<path style="fill:#E1EBF2;" d="M4,27.5c-1.379,0-2.5-1.122-2.5-2.5V4c0-1.378,1.121-2.5,2.5-2.5h32c1.379,0,2.5,1.122,2.5,2.5v21    c0,1.378-1.121,2.5-2.5,2.5H4z"/>
		<g>
			<path style="fill:#66798F;" d="M36,2c1.103,0,2,0.897,2,2v21c0,1.103-0.897,2-2,2H4c-1.103,0-2-0.897-2-2V4c0-1.103,0.897-2,2-2     H36 M36,1H4C2.343,1,1,2.343,1,4v21c0,1.657,1.343,3,3,3h32c1.657,0,3-1.343,3-3V4C39,2.343,37.657,1,36,1L36,1z"/>
		</g>
	</g>
	<g>
		<path style="fill:#E1EBF2;" d="M4,38.5c-1.379,0-2.5-1.122-2.5-2.5v-6c0-1.378,1.121-2.5,2.5-2.5h32c1.379,0,2.5,1.122,2.5,2.5v6    c0,1.378-1.121,2.5-2.5,2.5H4z"/>
		<g>
			<path style="fill:#66798F;" d="M36,28c1.103,0,2,0.897,2,2v6c0,1.103-0.897,2-2,2H4c-1.103,0-2-0.897-2-2v-6c0-1.103,0.897-2,2-2     H36 M36,27H4c-1.657,0-3,1.343-3,3v6c0,1.657,1.343,3,3,3h32c1.657,0,3-1.343,3-3v-6C39,28.343,37.657,27,36,27L36,27z"/>
		</g>
	</g>
	<g>
		<rect x="5.5" y="5.5" style="fill:#8BB7F0;" width="29" height="18"/>
		<g>
			<path style="fill:#4E7AB5;" d="M34,6v17H6V6H34 M35,5H5v19h30V5L35,5z"/>
		</g>
	</g>
	<rect x="5" y="32" style="fill:#66798F;" width="16" height="1"/>
	<path style="fill:#66798F;" d="M15,32.667c0,0-0.63,1.333-2.5,1.333S10,32.667,10,32.667L12.442,32L15,32.667z"/>
	<g>
		<circle style="fill:#BAE0BD;" cx="33" cy="33" r="1.5"/>
		<g>
			<path style="fill:#5E9C76;" d="M33,32c0.551,0,1,0.449,1,1s-0.449,1-1,1s-1-0.449-1-1S32.449,32,33,32 M33,31     c-1.105,0-2,0.895-2,2c0,1.105,0.895,2,2,2c1.105,0,2-0.895,2-2C35,31.895,34.105,31,33,31L33,31z"/>
		</g>
	</g>
</g>
</svg>