<?xml version="1.0" encoding="iso-8859-1"?><!-- Generator: Adobe Illustrator 19.2.1, SVG Export Plug-In . SVG Version: 6.00 Build 0)  --><svg xmlns="http://www.w3.org/2000/svg" xmlns:xlink="http://www.w3.org/1999/xlink" version="1.1" id="Layer_1" x="0px" y="0px" viewBox="0 0 80 80" style="enable-background:new 0 0 80 80;" xml:space="preserve" width="80" height="80">
<g>
	<path style="fill:#E1EBF2;" d="M8,55.5c-3.032,0-5.5-2.467-5.5-5.5V8c0-3.033,2.468-5.5,5.5-5.5h64c3.032,0,5.5,2.467,5.5,5.5v42   c0,3.033-2.468,5.5-5.5,5.5H8z"/>
	<g>
		<path style="fill:#66798F;" d="M72,3c2.757,0,5,2.243,5,5v42c0,2.757-2.243,5-5,5H8c-2.757,0-5-2.243-5-5V8c0-2.757,2.243-5,5-5    H72 M72,2H8C4.686,2,2,4.686,2,8v42c0,3.314,2.686,6,6,6h64c3.314,0,6-2.686,6-6V8C78,4.686,75.314,2,72,2L72,2z"/>
	</g>
</g>
<g>
	<path style="fill:#E1EBF2;" d="M8,77.5c-3.032,0-5.5-2.467-5.5-5.5V61c0-3.033,2.468-5.5,5.5-5.5h64c3.032,0,5.5,2.467,5.5,5.5v11   c0,3.033-2.468,5.5-5.5,5.5H8z"/>
	<g>
		<path style="fill:#66798F;" d="M72,56c2.757,0,5,2.243,5,5v11c0,2.757-2.243,5-5,5H8c-2.757,0-5-2.243-5-5V61c0-2.757,2.243-5,5-5    H72 M72,55H8c-3.314,0-6,2.686-6,6v11c0,3.314,2.686,6,6,6h64c3.314,0,6-2.686,6-6V61C78,57.686,75.314,55,72,55L72,55z"/>
	</g>
</g>
<g>
	<rect x="10.5" y="10.5" style="fill:#8BB7F0;" width="59" height="37"/>
	<g>
		<path style="fill:#4E7AB5;" d="M69,11v36H11V11H69 M70,10H10v38h60V10L70,10z"/>
	</g>
</g>
<rect x="10" y="65" style="fill:#66798F;" width="32" height="2"/>
<path style="fill:#66798F;" d="M30,66.333c0,0-1.259,2.667-5,2.667s-5-2.667-5-2.667L24.884,65L30,66.333z"/>
<g>
	<circle style="fill:#BAE0BD;" cx="66" cy="67" r="3.5"/>
	<g>
		<path style="fill:#5E9C76;" d="M66,64c1.654,0,3,1.346,3,3s-1.346,3-3,3s-3-1.346-3-3S64.346,64,66,64 M66,63    c-2.209,0-4,1.791-4,4s1.791,4,4,4s4-1.791,4-4S68.209,63,66,63L66,63z"/>
	</g>
</g>
</svg>