<?xml version="1.0" encoding="iso-8859-1"?><!-- Generator: Adobe Illustrator 19.2.1, SVG Export Plug-In . SVG Version: 6.00 Build 0)  --><svg xmlns="http://www.w3.org/2000/svg" xmlns:xlink="http://www.w3.org/1999/xlink" version="1.1" id="Layer_1" x="0px" y="0px" viewBox="0 0 30 30" style="enable-background:new 0 0 30 30;" xml:space="preserve" width="30" height="30">
<g>
	<path style="fill:#E1EBF2;" d="M3,20.5c-0.827,0-1.5-0.673-1.5-1.5V3c0-0.827,0.673-1.5,1.5-1.5h24c0.827,0,1.5,0.673,1.5,1.5v16   c0,0.827-0.673,1.5-1.5,1.5H3z"/>
	<g>
		<path style="fill:#66798F;" d="M27,2c0.551,0,1,0.449,1,1v16c0,0.551-0.449,1-1,1H3c-0.551,0-1-0.449-1-1V3c0-0.551,0.449-1,1-1    H27 M27,1H3C1.895,1,1,1.895,1,3v16c0,1.105,0.895,2,2,2h24c1.105,0,2-0.895,2-2V3C29,1.895,28.105,1,27,1L27,1z"/>
	</g>
</g>
<g>
	<rect x="4.5" y="4.5" style="fill:#8BB7F0;" width="21" height="13"/>
	<g>
		<path style="fill:#4E7AB5;" d="M25,5v12H5V5H25 M26,4H4v14h22V4L26,4z"/>
	</g>
</g>
<g>
	<path style="fill:#E1EBF2;" d="M3,28.5c-0.827,0-1.5-0.673-1.5-1.5v-5c0-0.827,0.673-1.5,1.5-1.5h24c0.827,0,1.5,0.673,1.5,1.5v5   c0,0.827-0.673,1.5-1.5,1.5H3z"/>
	<path style="fill:#66798F;" d="M27,21c0.551,0,1,0.449,1,1v5c0,0.551-0.449,1-1,1H3c-0.551,0-1-0.449-1-1v-5c0-0.551,0.449-1,1-1   H27 M27,20H3c-1.105,0-2,0.895-2,2v5c0,1.105,0.895,2,2,2h24c1.105,0,2-0.895,2-2v-5C29,20.895,28.105,20,27,20L27,20z"/>
</g>
<rect x="4" y="24" style="fill:#66798F;" width="12" height="1"/>
<path style="fill:#66798F;" d="M12,25c0,0-0.504,1-2,1s-2-1-2-1l1.954-0.5L12,25z"/>
<g>
	<circle style="fill:#BAE0BD;" cx="24.5" cy="24.5" r="1"/>
	<g>
		<path style="fill:#5E9C76;" d="M24.5,24c0.276,0,0.5,0.224,0.5,0.5S24.776,25,24.5,25S24,24.776,24,24.5S24.224,24,24.5,24     M24.5,23c-0.828,0-1.5,0.672-1.5,1.5s0.672,1.5,1.5,1.5s1.5-0.672,1.5-1.5S25.328,23,24.5,23L24.5,23z"/>
	</g>
</g>
</svg>