<?xml version="1.0" encoding="iso-8859-1"?><!-- Generator: Adobe Illustrator 19.2.1, SVG Export Plug-In . SVG Version: 6.00 Build 0)  --><svg xmlns="http://www.w3.org/2000/svg" xmlns:xlink="http://www.w3.org/1999/xlink" version="1.1" x="0px" y="0px" viewBox="0 0 16 16" style="enable-background:new 0 0 16 16;" xml:space="preserve" width="16" height="16">
<g id="Layer_1">
	<g>
		<rect x="0.5" y="0.5" style="fill:#FFC49C;" width="5" height="5"/>
		<g>
			<path style="fill:#A16A4A;" d="M5,1v4H1V1H5 M6,0H0v6h6V0L6,0z"/>
		</g>
	</g>
	<polygon style="fill:#A16A4A;" points="3.745,2.973 3,3.664 4.025,4.8 4.8,4.8 4.8,3.955  "/>
	<polygon style="fill:#E09367;" points="4.247,4.8 1.2,4.8 1.2,3.9 2.4,2.7  "/>
	<rect x="8" y="3" style="fill:#788B9C;" width="8" height="1"/>
	<rect x="8" y="8" style="fill:#788B9C;" width="8" height="1"/>
	<rect x="8" y="13" style="fill:#788B9C;" width="8" height="1"/>
	<g>
		<rect x="0.5" y="5.5" style="fill:#BAE0BD;" width="5" height="5"/>
		<g>
			<path style="fill:#5E9C76;" d="M5,6v4H1V6H5 M6,5H0v6h6V5L6,5z"/>
		</g>
	</g>
	<path style="fill:#FFFFFF;" d="M3,8L2.476,7.126C2.231,6.719,2.525,6.2,3,6.2h0c0.475,0,0.769,0.519,0.524,0.926L3,8z"/>
	<path style="fill:#FFFFFF;" d="M3,8l0.524,0.874C3.769,9.281,3.475,9.8,3,9.8h0c-0.475,0-0.769-0.519-0.524-0.926L3,8z"/>
	<path style="fill:#FFFFFF;" d="M3,8L1.981,8.017C1.506,8.025,1.204,7.512,1.441,7.1l0,0c0.238-0.412,0.833-0.407,1.064,0.009L3,8z"/>
	<path style="fill:#FFFFFF;" d="M3,8l1.019-0.017C4.494,7.975,4.796,8.488,4.559,8.9l0,0C4.321,9.312,3.725,9.307,3.495,8.891L3,8z"/>
	<path style="fill:#FFFFFF;" d="M3,8L2.505,8.891C2.275,9.307,1.679,9.312,1.441,8.9l0,0c-0.238-0.412,0.065-0.925,0.54-0.917L3,8z"/>
	<path style="fill:#FFFFFF;" d="M3,8l0.495-0.891C3.725,6.693,4.321,6.688,4.559,7.1l0,0c0.238,0.412-0.065,0.925-0.54,0.917L3,8z"/>
	<circle style="fill:#FFEEA3;" cx="3" cy="8" r="0.72"/>
	<g>
		<rect x="0.5" y="10.5" style="fill:#8BB7F0;" width="5" height="5"/>
		<g>
			<path style="fill:#4E7AB5;" d="M5,11v4H1v-4H5 M6,10H0v6h6V10L6,10z"/>
		</g>
	</g>
	<g>
		
			<rect x="1.821" y="11.821" transform="matrix(0.7071 -0.7071 0.7071 0.7071 -8.3137 5.9289)" style="fill:#FFEEA3;" width="2.357" height="2.357"/>
	</g>
	<g>
		<rect x="1.821" y="11.821" style="fill:#FFEEA3;" width="2.357" height="2.357"/>
	</g>
	<circle style="fill:#FFFFFF;" cx="3" cy="13" r="0.667"/>
</g>
<g id="Layer_2">
</g>
</svg>