<?xml version="1.0" encoding="iso-8859-1"?><!-- Generator: Adobe Illustrator 19.2.1, SVG Export Plug-In . SVG Version: 6.00 Build 0)  --><svg xmlns="http://www.w3.org/2000/svg" xmlns:xlink="http://www.w3.org/1999/xlink" version="1.1" id="Layer_1" x="0px" y="0px" viewBox="0 0 30 30" style="enable-background:new 0 0 30 30;" xml:space="preserve" width="30" height="30">
<g>
	<path style="fill:#F5C276;" d="M5,25.5c-0.276,0-0.5-0.224-0.5-0.5V3c0-0.276,0.224-0.5,0.5-0.5h7.55c0.232,1.14,1.242,2,2.45,2   s2.217-0.86,2.45-2H25c0.276,0,0.5,0.224,0.5,0.5v22c0,0.276-0.224,0.5-0.5,0.5H5z"/>
	<path style="fill:#C29653;" d="M25,3v22H5V3h7.171C12.584,4.164,13.696,5,15,5c1.304,0,2.416-0.836,2.829-2H25 M25,2h-8   c0,1.105-0.895,2-2,2c-1.105,0-2-0.895-2-2H5C4.448,2,4,2.448,4,3v22c0,0.552,0.448,1,1,1h20c0.552,0,1-0.448,1-1V3   C26,2.448,25.552,2,25,2L25,2z"/>
</g>
<rect x="24" y="11" style="fill:#F5C276;" width="2" height="3"/>
<rect x="11.5" y="23.5" transform="matrix(4.502005e-11 -1 1 4.502005e-11 -12.5 37.5)" style="fill:#F5C276;" width="2" height="3"/>
<g>
	<path style="fill:#66798F;" d="M15,1c0.551,0,1,0.449,1,1s-0.449,1-1,1s-1-0.449-1-1S14.449,1,15,1 M15,0c-1.105,0-2,0.895-2,2   s0.895,2,2,2s2-0.895,2-2S16.105,0,15,0L15,0z"/>
</g>
<path style="fill:#66798F;" d="M16.495,2c0,1.105-0.39,1.387-1.495,1.387S13.559,3.105,13.559,2H10v3c0,0.552,0.448,1,1,1h8  c0.552,0,1-0.448,1-1V2H16.495z"/>
<g>
	<rect x="13.5" y="13.5" style="fill:#F2FAFF;" width="15" height="15"/>
	<g>
		<path style="fill:#788B9C;" d="M28,14v14H14V14H28 M29,13H13v16h16V13L29,13z"/>
	</g>
</g>
<rect x="24" y="13" style="fill:#F2FAFF;" width="2" height="2"/>
<rect x="20" y="13" style="fill:#F2FAFF;" width="2" height="2"/>
<rect x="16" y="13" style="fill:#F2FAFF;" width="2" height="2"/>
<rect x="24" y="27" style="fill:#F2FAFF;" width="2" height="2"/>
<rect x="20" y="27" style="fill:#F2FAFF;" width="2" height="2"/>
<rect x="16" y="27" style="fill:#F2FAFF;" width="2" height="2"/>
<rect x="27" y="16" style="fill:#F2FAFF;" width="2" height="2"/>
<rect x="27" y="20" style="fill:#F2FAFF;" width="2" height="2"/>
<rect x="27" y="24" style="fill:#F2FAFF;" width="2" height="2"/>
<rect x="13" y="16" style="fill:#F2FAFF;" width="2" height="2"/>
<rect x="13" y="20" style="fill:#F2FAFF;" width="2" height="2"/>
<rect x="13" y="24" style="fill:#F2FAFF;" width="2" height="2"/>
</svg>