<?xml version="1.0" encoding="iso-8859-1"?><!-- Generator: Adobe Illustrator 19.2.1, SVG Export Plug-In . SVG Version: 6.00 Build 0)  --><svg xmlns="http://www.w3.org/2000/svg" xmlns:xlink="http://www.w3.org/1999/xlink" version="1.1" id="Layer_1" x="0px" y="0px" viewBox="0 0 16 16" style="enable-background:new 0 0 16 16;" xml:space="preserve" width="16" height="16">
<g>
	<rect x="1.5" y="1.5" style="fill:#F5C276;" width="13" height="13"/>
	<g>
		<path style="fill:#C29653;" d="M14,2v12H2V2H14 M15,1H1v14h14V1L15,1z"/>
	</g>
</g>
<path style="fill:#66798F;" d="M5,1v2c0,0.552,0.448,1,1,1h4c0.552,0,1-0.448,1-1V1H5z"/>
<g>
	<circle style="fill:#66798F;" cx="8" cy="1" r="1"/>
</g>
<g>
	<rect x="7.5" y="7.5" style="fill:#F2FAFF;" width="8" height="8"/>
	<g>
		<path style="fill:#788B9C;" d="M15,8v7H8V8H15 M16,7H7v9h9V7L16,7z"/>
	</g>
</g>
<rect x="13" y="7" style="fill:#F2FAFF;" width="1" height="9"/>
<rect x="9" y="7" style="fill:#F2FAFF;" width="1" height="9"/>
<rect x="11" y="9" transform="matrix(-1.836970e-16 1 -1 -1.836970e-16 25 2)" style="fill:#F2FAFF;" width="1" height="9"/>
<rect x="11" y="5" transform="matrix(-1.836970e-16 1 -1 -1.836970e-16 21 -2)" style="fill:#F2FAFF;" width="1" height="9"/>
</svg>