<?xml version="1.0" encoding="iso-8859-1"?><!-- Generator: Adobe Illustrator 19.2.1, SVG Export Plug-In . SVG Version: 6.00 Build 0)  --><svg xmlns="http://www.w3.org/2000/svg" xmlns:xlink="http://www.w3.org/1999/xlink" version="1.1" id="Layer_1" x="0px" y="0px" viewBox="0 0 16 16" style="enable-background:new 0 0 16 16;" xml:space="preserve" width="16" height="16">
<g>
	<rect x="0.5" y="3.5" style="fill:#F2FAFF;" width="12" height="12"/>
	<g>
		<path style="fill:#788B9C;" d="M12,4v11H1V4H12 M13,3H0v13h13V3L13,3z"/>
	</g>
</g>
<polygon style="fill:#F2FAFF;" points="13,4 11,4 11,10 13,8 "/>
<polygon style="fill:#F2FAFF;" points="12,3 12,5 6,5 8,3 "/>
<g>
	<polygon style="fill:#F5CE85;" points="6.19,8.16 7.093,7.257 8.863,8.799 7.852,9.811 4.952,11.049  "/>
	<path style="fill:#967A44;" d="M7.116,7.94l1.015,0.884L7.566,9.389l-1.663,0.71l0.709-1.654L7.116,7.94 M7.069,6.573L5.769,7.874   l-1.767,4.125l4.136-1.766l1.459-1.459L7.069,6.573L7.069,6.573z"/>
</g>
<g>
	<polygon style="fill:#36404D;" points="5.004,9.662 4.003,12 6.347,10.999  "/>
</g>
<g>
	<path style="fill:#F78F8F;" d="M12.035,2.309L13.5,0.843C13.722,0.622,14.016,0.5,14.329,0.5c0.313,0,0.607,0.122,0.829,0.343   c0.457,0.457,0.457,1.2,0,1.657l-1.466,1.465L12.035,2.309z"/>
	<g>
		<path style="fill:#C74343;" d="M14.329,1c0.179,0,0.348,0.07,0.475,0.197C14.93,1.323,15,1.492,15,1.671    c0,0.179-0.07,0.348-0.197,0.475l-1.112,1.112l-0.949-0.949l1.112-1.112C13.981,1.07,14.15,1,14.329,1 M14.329,0    c-0.428,0-0.855,0.163-1.182,0.489l-1.819,1.819l2.363,2.363l1.819-1.819c0.653-0.653,0.653-1.711,0-2.363    C15.184,0.163,14.757,0,14.329,0L14.329,0z"/>
	</g>
</g>
<g>
	<path style="fill:#FFEEA3;" d="M8.326,9.335C8.218,9.227,8.058,9.115,7.828,9.05C7.685,8.592,7.324,8.327,6.965,8.207   C6.901,7.997,6.79,7.828,6.65,7.699l5.012-5.017l1.656,1.656L8.326,9.335z"/>
	<g>
		<path style="fill:#BA9B48;" d="M11.662,3.39l0.949,0.949L8.269,8.685C8.248,8.675,8.226,8.665,8.204,8.655    c-0.187-0.379-0.496-0.658-0.851-0.83C7.34,7.797,7.326,7.77,7.312,7.744L11.662,3.39 M11.662,1.975L5.769,7.874    c0,0,0.003,0,0.009,0c0.086,0,0.747,0.024,0.747,0.754c0,0,0.868,0.027,0.868,0.866c0.863,0,0.745,0.739,0.745,0.739l5.888-5.894    L11.662,1.975L11.662,1.975z"/>
	</g>
</g>
<g>
	
		<rect x="12.065" y="1.786" transform="matrix(0.7071 -0.7071 0.7071 0.7071 1.7293 10.0889)" style="fill:#D9E7F5;" width="1.956" height="2.342"/>
	<g>
		<path style="fill:#788B9C;" d="M12.906,2.145l0.949,0.949L13.18,3.77L12.23,2.82L12.906,2.145 M12.906,0.731l-2.09,2.09    l2.363,2.363l2.09-2.09L12.906,0.731L12.906,0.731z"/>
	</g>
</g>
</svg>