<?xml version="1.0" encoding="iso-8859-1"?><!-- Generator: Adobe Illustrator 19.2.1, SVG Export Plug-In . SVG Version: 6.00 Build 0)  --><svg xmlns="http://www.w3.org/2000/svg" xmlns:xlink="http://www.w3.org/1999/xlink" version="1.1" id="Layer_1" x="0px" y="0px" viewBox="0 0 40 40" style="enable-background:new 0 0 40 40;" xml:space="preserve" width="40" height="40">
<g>
	<rect x="1.5" y="7.5" style="fill:#F2FAFF;" width="31" height="31"/>
	<g>
		<path style="fill:#788B9C;" d="M32,8v30H2V8H32 M33,7H1v32h32V7L33,7z"/>
	</g>
</g>
<polygon style="fill:#F2FAFF;" points="33,9.667 30.333,9.667 30.333,19 33,16.333 "/>
<polygon style="fill:#F2FAFF;" points="30.333,7 30.333,9.667 21,9.667 23.667,7 "/>
<g>
	<polygon style="fill:#F5CE85;" points="14.189,21.64 16.472,19.356 20.944,23.251 18.383,25.813 11.832,28.169  "/>
	<path style="fill:#967A44;" d="M16.496,20.04l3.717,3.237l-2.104,2.104l-5.446,1.959l1.959-5.425L16.496,20.04 M16.449,18.673   l-2.692,2.692L11,29l7.658-2.754l3.019-3.019L16.449,18.673L16.449,18.673z"/>
</g>
<g>
	<polygon style="fill:#36404D;" points="11,29 15.507,27.379 12.624,24.501  "/>
</g>
<g>
	<path style="fill:#F78F8F;" d="M31.468,4.348l1.981-1.981C34.008,1.808,34.751,1.5,35.542,1.5s1.533,0.308,2.092,0.867   S38.5,3.668,38.5,4.458s-0.308,1.533-0.867,2.092l-1.981,1.981L31.468,4.348z"/>
	<g>
		<path style="fill:#C74343;" d="M35.541,2c0.657,0,1.274,0.256,1.738,0.72c0.959,0.959,0.959,2.518,0,3.477l-1.627,1.627    l-3.477-3.477l1.627-1.627C34.267,2.256,34.885,2,35.541,2 M35.541,1c-0.885,0-1.77,0.338-2.446,1.013l-2.334,2.334l4.891,4.891    l2.334-2.334c1.351-1.351,1.351-3.54,0-4.891h0C37.312,1.338,36.427,1,35.541,1L35.541,1z"/>
	</g>
</g>
<g>
	<path style="fill:#FFEEA3;" d="M18.984,25.211c-0.058-0.12-0.133-0.241-0.231-0.355c-0.281-0.329-0.675-0.532-1.175-0.607   c-0.194-1.125-1.083-1.613-1.792-1.768c-0.124-0.745-0.562-1.173-1.04-1.4L30.021,5.794l4.184,4.184L18.984,25.211z"/>
	<g>
		<path style="fill:#BA9B48;" d="M30.022,6.502l3.477,3.477l-14.45,14.46c-0.224-0.232-0.562-0.476-1.059-0.612    c-0.291-0.953-1.042-1.502-1.786-1.747c-0.133-0.449-0.373-0.806-0.674-1.075L30.022,6.502 M30.022,5.087L13.756,21.365    c0,0,0.007,0,0.019,0c0.178,0,1.545,0.049,1.545,1.559c0,0,1.796,0.056,1.796,1.793c1.786,0,1.541,1.529,1.541,1.529L34.913,9.978    L30.022,5.087L30.022,5.087z"/>
	</g>
</g>
<g>
	
		<rect x="31.649" y="3.551" transform="matrix(0.7072 -0.707 0.707 0.7072 5.2043 25.5852)" style="fill:#D9E7F5;" width="3.683" height="5.917"/>
	<g>
		<path style="fill:#788B9C;" d="M32.7,3.823L36.177,7.3L34.28,9.197L30.803,5.72L32.7,3.823 M32.7,2.408L29.389,5.72l4.891,4.891    L37.592,7.3L32.7,2.408L32.7,2.408z"/>
	</g>
</g>
</svg>