<?xml version="1.0" encoding="iso-8859-1"?><!-- Generator: Adobe Illustrator 19.2.1, SVG Export Plug-In . SVG Version: 6.00 Build 0)  --><svg xmlns="http://www.w3.org/2000/svg" xmlns:xlink="http://www.w3.org/1999/xlink" version="1.1" id="Layer_1" x="0px" y="0px" viewBox="0 0 40 40" style="enable-background:new 0 0 40 40;" xml:space="preserve" width="40" height="40">
<g>
	<g>
		<line style="fill:none;stroke:#788B9C;stroke-miterlimit:10;" x1="7.468" y1="32.532" x2="8.175" y2="31.825"/>
		
			<line style="fill:none;stroke:#788B9C;stroke-miterlimit:10;stroke-dasharray:1.9369,1.9369;" x1="9.544" y1="30.456" x2="36.251" y2="3.749"/>
		<line style="fill:none;stroke:#788B9C;stroke-miterlimit:10;" x1="36.936" y1="3.064" x2="37.643" y2="2.357"/>
	</g>
</g>
<g>
	<polygon style="fill:#8BB7F0;" points="26.5,38.5 26.5,13.5 1.5,13.5 1.5,7.5 32.5,7.5 32.5,38.5  "/>
	<g>
		<path style="fill:#4E7AB5;" d="M32,8v30h-5V14v-1h-1H2V8H32 M33,7H1v7h25v25h7V7L33,7z"/>
	</g>
</g>
<g>
	<polygon style="fill:#C2E8FF;" points="6.5,33.5 6.5,2.5 12.5,2.5 12.5,27.5 37.5,27.5 37.5,33.5  "/>
	<g>
		<path style="fill:#7496C4;" d="M12,3v24v1h1h24v5H7V3H12 M13,2H6v32h32v-7H13V2L13,2z"/>
	</g>
</g>
</svg>