<?xml version="1.0" encoding="iso-8859-1"?><!-- Generator: Adobe Illustrator 19.2.1, SVG Export Plug-In . SVG Version: 6.00 Build 0)  --><svg xmlns="http://www.w3.org/2000/svg" xmlns:xlink="http://www.w3.org/1999/xlink" version="1.1" id="Layer_1" x="0px" y="0px" viewBox="0 0 16 16" style="enable-background:new 0 0 16 16;" xml:space="preserve" width="16" height="16">
<g>
	<g>
		<line style="fill:none;stroke:#788B9C;stroke-miterlimit:10;" x1="2.723" y1="13.277" x2="3.43" y2="12.57"/>
		
			<line style="fill:none;stroke:#788B9C;stroke-miterlimit:10;stroke-dasharray:1.7742,1.7742;" x1="4.685" y1="11.315" x2="14.094" y2="1.906"/>
		<line style="fill:none;stroke:#788B9C;stroke-miterlimit:10;" x1="14.721" y1="1.279" x2="15.429" y2="0.571"/>
	</g>
</g>
<g>
	<polygon style="fill:#8BB7F0;" points="11.5,15.5 11.5,4.5 0.5,4.5 0.5,2.5 13.5,2.5 13.5,15.5  "/>
	<g>
		<path style="fill:#4E7AB5;" d="M13,3v12h-1V5V4h-1H1V3H13 M14,2H0v3h11v11h3V2L14,2z"/>
	</g>
</g>
<g>
	<polygon style="fill:#C2E8FF;" points="2.5,13.5 2.5,0.5 4.5,0.5 4.5,11.5 15.5,11.5 15.5,13.5  "/>
	<g>
		<path style="fill:#7496C4;" d="M4,1v10v1h1h10v1H3V1H4 M5,0H2v14h14v-3H5V0L5,0z"/>
	</g>
</g>
</svg>