<?xml version="1.0" encoding="iso-8859-1"?><!-- Generator: Adobe Illustrator 19.2.1, SVG Export Plug-In . SVG Version: 6.00 Build 0)  --><svg xmlns="http://www.w3.org/2000/svg" xmlns:xlink="http://www.w3.org/1999/xlink" version="1.1" id="Layer_1" x="0px" y="0px" viewBox="0 0 30 30" style="enable-background:new 0 0 30 30;" xml:space="preserve" width="30" height="30">
<g>
	<g>
		<line style="fill:none;stroke:#788B9C;stroke-miterlimit:10;" x1="5.766" y1="24.234" x2="6.473" y2="23.527"/>
		
			<line style="fill:none;stroke:#788B9C;stroke-miterlimit:10;stroke-dasharray:1.963,1.963;" x1="7.861" y1="22.139" x2="26.599" y2="3.401"/>
		<line style="fill:none;stroke:#788B9C;stroke-miterlimit:10;" x1="27.293" y1="2.707" x2="28" y2="2"/>
	</g>
</g>
<g>
	<polygon style="fill:#8BB7F0;" points="20.5,28.5 20.5,9.5 1.5,9.5 1.5,5.5 24.5,5.5 24.5,28.5  "/>
	<path style="fill:#4E7AB5;" d="M24,6v22h-3V10V9h-1H2V6H24 M25,5H1v5h19v19h5V5L25,5z"/>
</g>
<g>
	<polygon style="fill:#C2E8FF;" points="5.5,24.5 5.5,1.5 9.5,1.5 9.5,20.5 28.5,20.5 28.5,24.5  "/>
	<g>
		<path style="fill:#7496C4;" d="M9,2v18v1h1h18v3H6V2H9 M10,1H5v24h24v-5H10V1L10,1z"/>
	</g>
</g>
</svg>