<?xml version="1.0" encoding="iso-8859-1"?><!-- Generator: Adobe Illustrator 19.2.1, SVG Export Plug-In . SVG Version: 6.00 Build 0)  --><svg xmlns="http://www.w3.org/2000/svg" xmlns:xlink="http://www.w3.org/1999/xlink" version="1.1" id="Layer_1" x="0px" y="0px" viewBox="0 0 80 80" style="enable-background:new 0 0 80 80;" xml:space="preserve" width="80" height="80">
<g>
	<g>
		<line style="fill:none;stroke:#788B9C;stroke-miterlimit:10;" x1="15.935" y1="64.065" x2="16.642" y2="63.358"/>
		
			<line style="fill:none;stroke:#788B9C;stroke-miterlimit:10;stroke-dasharray:2.0329,2.0329;" x1="18.08" y1="61.92" x2="74.86" y2="5.14"/>
		<line style="fill:none;stroke:#788B9C;stroke-miterlimit:10;" x1="75.579" y1="4.421" x2="76.286" y2="3.714"/>
	</g>
</g>
<g>
	<polygon style="fill:#8BB7F0;" points="53.5,76.5 53.5,26.5 3.5,26.5 3.5,13.5 66.5,13.5 66.5,76.5  "/>
	<g>
		<path style="fill:#4E7AB5;" d="M66,14v62H54V27v-1h-1H4V14H66 M67,13H3v14h50v50h14V13L67,13z"/>
	</g>
</g>
<g>
	<polygon style="fill:#C2E8FF;" points="13.5,66.5 13.5,3.5 26.5,3.5 26.5,53.5 76.5,53.5 76.5,66.5  "/>
	<g>
		<path style="fill:#7496C4;" d="M26,4v49v1h1h49v12H14V4H26 M27,3H13v64h64V53H27V3L27,3z"/>
	</g>
</g>
</svg>