<?xml version="1.0" encoding="iso-8859-1"?><!-- Generator: Adobe Illustrator 19.2.1, SVG Export Plug-In . SVG Version: 6.00 Build 0)  --><svg xmlns="http://www.w3.org/2000/svg" xmlns:xlink="http://www.w3.org/1999/xlink" version="1.1" id="Layer_1" x="0px" y="0px" viewBox="0 0 80 80" style="enable-background:new 0 0 80 80;" xml:space="preserve" width="80" height="80">
<g>
	<path style="fill:#DCD5F2;" d="M63.157,69.5c-3.071,0-5.959-1.196-8.132-3.368L19.662,30.769l9.106-9.106L76.606,69.5H63.157z"/>
	<g>
		<path style="fill:#8B75A1;" d="M28.768,22.369L75.399,69H63.157c-2.938,0-5.701-1.144-7.778-3.222l-35.01-35.01L28.768,22.369     M28.768,20.955l-9.813,9.813l35.717,35.717c2.25,2.25,5.303,3.515,8.485,3.515h14.656L28.768,20.955L28.768,20.955z"/>
	</g>
</g>
<g>
	
		<rect x="34.422" y="38.574" transform="matrix(0.7071 -0.7071 0.7071 0.7071 -18.3967 41.4534)" style="fill:#8B75A1;" width="12.837" height="8.719"/>
</g>
<g>
	<g>
		<path style="fill:#F78F8F;" d="M19.83,30.936l-0.279,0.076C18.361,31.336,17.167,31.5,16,31.5C8.556,31.5,2.5,25.444,2.5,18    S8.556,4.5,16,4.5S29.5,10.556,29.5,18c0,1.167-0.164,2.361-0.488,3.55l-0.076,0.28l4.631,4.631l-9.274,8.937L19.83,30.936z     M16,9.5c-4.687,0-8.5,3.813-8.5,8.5s3.813,8.5,8.5,8.5s8.5-3.813,8.5-8.5S20.687,9.5,16,9.5z"/>
	</g>
	<g>
		<path style="fill:#C74343;" d="M16,5c7.168,0,13,5.832,13,13c0,1.122-0.158,2.272-0.47,3.419l-0.152,0.56l0.41,0.41l4.065,4.065    l-8.555,8.243l-3.909-3.909l-0.41-0.41l-0.56,0.152C18.272,30.842,17.122,31,16,31C8.832,31,3,25.168,3,18C3,10.832,8.832,5,16,5     M16,27c4.963,0,9-4.037,9-9s-4.037-9-9-9c-4.963,0-9,4.037-9,9S11.037,27,16,27 M16,4C8.268,4,2,10.268,2,18    c0,7.732,6.268,14,14,14c1.276,0,2.506-0.186,3.681-0.505l4.603,4.603l9.995-9.631l-4.785-4.785C29.814,20.507,30,19.276,30,18    C30,10.268,23.732,4,16,4L16,4z M16,26c-4.418,0-8-3.582-8-8c0-4.418,3.582-8,8-8s8,3.582,8,8C24,22.418,20.418,26,16,26L16,26z"/>
	</g>
</g>
<g>
	<path style="fill:#DCD5F2;" d="M19.662,49.231l35.363-35.363c2.173-2.172,5.061-3.368,8.132-3.368h13.449L28.769,58.338   L19.662,49.231z"/>
	<g>
		<path style="fill:#8B75A1;" d="M75.399,11L28.768,57.631l-8.399-8.399l35.01-35.01C57.457,12.144,60.219,11,63.157,11H75.399     M77.813,10H63.157c-3.183,0-6.235,1.264-8.485,3.515L18.955,49.231l9.813,9.813L77.813,10L77.813,10z"/>
	</g>
</g>
<g>
	<g>
		<path style="fill:#F78F8F;" d="M16,75.5C8.556,75.5,2.5,69.444,2.5,62S8.556,48.5,16,48.5c1.167,0,2.361,0.164,3.551,0.488    l0.279,0.076l4.462-4.461l9.274,8.937l-4.631,4.631l0.076,0.28C29.336,59.639,29.5,60.833,29.5,62    C29.5,69.444,23.444,75.5,16,75.5z M16,53.5c-4.687,0-8.5,3.813-8.5,8.5s3.813,8.5,8.5,8.5s8.5-3.813,8.5-8.5S20.687,53.5,16,53.5    z"/>
	</g>
	<g>
		<path style="fill:#C74343;" d="M24.298,45.303l8.555,8.243l-4.065,4.065l-0.41,0.41l0.152,0.56C28.842,59.728,29,60.878,29,62    c0,7.168-5.832,13-13,13S3,69.168,3,62c0-7.168,5.832-13,13-13c1.122,0,2.272,0.158,3.419,0.47l0.56,0.152l0.41-0.41    L24.298,45.303 M16,71c4.963,0,9-4.037,9-9s-4.037-9-9-9c-4.963,0-9,4.037-9,9S11.037,71,16,71 M24.285,43.902l-4.603,4.603    C18.506,48.186,17.276,48,16,48C8.268,48,2,54.268,2,62c0,7.732,6.268,14,14,14s14-6.268,14-14c0-1.276-0.186-2.506-0.505-3.681    l4.785-4.785L24.285,43.902L24.285,43.902z M16,70c-4.418,0-8-3.582-8-8c0-4.418,3.582-8,8-8s8,3.582,8,8    C24,66.418,20.418,70,16,70L16,70z"/>
	</g>
</g>
<circle style="fill:#8B75A1;" cx="38" cy="40" r="3"/>
</svg>