<?xml version="1.0" encoding="iso-8859-1"?><!-- Generator: Adobe Illustrator 19.2.1, SVG Export Plug-In . SVG Version: 6.00 Build 0)  --><svg xmlns="http://www.w3.org/2000/svg" xmlns:xlink="http://www.w3.org/1999/xlink" version="1.1" id="Layer_1" x="0px" y="0px" viewBox="0 0 30 30" style="enable-background:new 0 0 30 30;" xml:space="preserve" width="30" height="30">
<g>
	<path style="fill:#DCD5F2;" d="M23.941,25.5c-1.447,0-2.865-0.587-3.889-1.611L7.057,10.893l2.837-2.836L27.337,25.5H23.941z"/>
	<g>
		<path style="fill:#8B75A1;" d="M9.893,8.764L26.129,25h-2.188c-1.336,0-2.591-0.52-3.536-1.464L7.764,10.893L9.893,8.764     M9.893,7.349l-3.544,3.544l13.349,13.349C20.824,25.368,22.35,26,23.942,26h4.602L9.893,7.349L9.893,7.349z"/>
	</g>
</g>
<g>
	
		<rect x="12.478" y="13.824" transform="matrix(0.7071 -0.7071 0.7071 0.7071 -6.9135 15.2765)" style="fill:#8B75A1;" width="5.012" height="4.32"/>
</g>
<g>
	<path style="fill:#DCD5F2;" d="M7.057,19.107L20.053,6.111C21.076,5.087,22.494,4.5,23.941,4.5h3.396L9.894,21.943L7.057,19.107z"/>
	<g>
		<path style="fill:#8B75A1;" d="M26.129,5L9.893,21.236l-2.129-2.129L20.406,6.464C21.35,5.52,22.606,5,23.942,5H26.129 M28.544,4    h-4.602c-1.591,0-3.117,0.632-4.243,1.757L6.349,19.107l3.544,3.544L28.544,4L28.544,4z"/>
	</g>
</g>
<g>
	<g>
		<path style="fill:#F78F8F;" d="M6,27.5c-2.481,0-4.5-2.019-4.5-4.5s2.019-4.5,4.5-4.5c0.35,0,0.714,0.053,1.145,0.167l0.278,0.074    l1.58-1.58l2.889,2.784l-1.632,1.632l0.073,0.277C10.447,22.289,10.5,22.652,10.5,23C10.5,25.481,8.481,27.5,6,27.5z M6,20.5    c-1.379,0-2.5,1.122-2.5,2.5s1.121,2.5,2.5,2.5s2.5-1.122,2.5-2.5S7.379,20.5,6,20.5z M7.423,11.259l-0.278,0.074    C6.714,11.447,6.35,11.5,6,11.5c-2.481,0-4.5-2.019-4.5-4.5S3.519,2.5,6,2.5s4.5,2.019,4.5,4.5c0,0.348-0.053,0.711-0.167,1.146    L10.26,8.423l1.632,1.632l-2.889,2.784L7.423,11.259z M6,4.5C4.621,4.5,3.5,5.622,3.5,7S4.621,9.5,6,9.5S8.5,8.378,8.5,7    S7.379,4.5,6,4.5z"/>
	</g>
	<g>
		<path style="fill:#C74343;" d="M6,3c2.206,0,4,1.794,4,4c0,0.305-0.048,0.628-0.151,1.017L9.703,8.573l0.407,0.407l1.069,1.069    l-2.169,2.09l-1.03-1.03l-0.407-0.407l-0.556,0.147C6.628,10.952,6.305,11,6,11c-2.206,0-4-1.794-4-4S3.794,3,6,3 M6,10    c1.654,0,3-1.346,3-3S7.654,4,6,4C4.346,4,3,5.346,3,7S4.346,10,6,10 M9.009,17.861l2.169,2.09l-1.069,1.069l-0.407,0.407    l0.147,0.556C9.952,22.372,10,22.695,10,23c0,2.206-1.794,4-4,4c-2.206,0-4-1.794-4-4s1.794-4,4-4    c0.305,0,0.628,0.048,1.017,0.151l0.556,0.147l0.407-0.407L9.009,17.861 M6,26c1.654,0,3-1.346,3-3s-1.346-3-3-3    c-1.654,0-3,1.346-3,3S4.346,26,6,26 M6,2C3.239,2,1,4.239,1,7s2.239,5,5,5c0.443,0,0.864-0.076,1.273-0.184l1.724,1.724    l3.609-3.478l-1.789-1.789C10.924,7.864,11,7.443,11,7C11,4.239,8.761,2,6,2L6,2z M6,9C4.895,9,4,8.105,4,7c0-1.105,0.895-2,2-2    s2,0.895,2,2C8,8.105,7.105,9,6,9L6,9z M8.996,16.46l-1.724,1.724C6.864,18.076,6.443,18,6,18c-2.761,0-5,2.239-5,5s2.239,5,5,5    s5-2.239,5-5c0-0.443-0.076-0.864-0.184-1.273l1.789-1.789L8.996,16.46L8.996,16.46z M6,25c-1.105,0-2-0.895-2-2    c0-1.105,0.895-2,2-2s2,0.895,2,2C8,24.105,7.105,25,6,25L6,25z"/>
	</g>
</g>
<circle style="fill:#8B75A1;" cx="13.85" cy="15.15" r="0.938"/>
</svg>