<?xml version="1.0" encoding="iso-8859-1"?><!-- Generator: Adobe Illustrator 19.2.1, SVG Export Plug-In . SVG Version: 6.00 Build 0)  --><svg xmlns="http://www.w3.org/2000/svg" xmlns:xlink="http://www.w3.org/1999/xlink" version="1.1" id="Layer_1" x="0px" y="0px" viewBox="0 0 40 40" style="enable-background:new 0 0 40 40;" xml:space="preserve" width="40" height="40">
<g>
	<g>
		<path style="fill:#E8D47B;" d="M31.2,27.1c-2.371,0-4.3-1.929-4.3-4.3s1.929-4.3,4.3-4.3c3.054,0,4.3,0.782,4.3,2.7    C35.5,23.53,33.574,27.1,31.2,27.1z M8.8,27.1c-2.374,0-4.3-3.57-4.3-5.9c0-1.918,1.246-2.7,4.3-2.7c2.371,0,4.3,1.929,4.3,4.3    S11.171,27.1,8.8,27.1z"/>
	</g>
	<g>
		<path style="fill:#BA9B48;" d="M31.2,19c3.507,0,3.8,1.087,3.8,2.2c0,2.308-1.879,5.4-3.8,5.4c-2.095,0-3.8-1.705-3.8-3.8    S29.105,19,31.2,19 M8.8,19c2.095,0,3.8,1.705,3.8,3.8s-1.705,3.8-3.8,3.8c-1.921,0-3.8-3.092-3.8-5.4C5,20.087,5.293,19,8.8,19     M31.2,18c-2.651,0-4.8,2.149-4.8,4.8s2.149,4.8,4.8,4.8c2.651,0,4.8-3.749,4.8-6.4C36,18.549,33.851,18,31.2,18L31.2,18z M8.8,18    C6.149,18,4,18.549,4,21.2c0,2.651,2.149,6.4,4.8,6.4c2.651,0,4.8-2.149,4.8-4.8S11.451,18,8.8,18L8.8,18z"/>
	</g>
</g>
<g>
	<g>
		<path style="fill:#FFEEA3;" d="M20,38.5c-1.799,0-3.486-0.799-4.628-2.192l-0.079-0.096l-0.114-0.048    c-4.173-1.753-7.075-5.629-7.573-10.115L6.548,16.53C6.123,12.708,7.35,8.873,9.915,6.008C12.479,3.143,16.155,1.5,20,1.5    s7.521,1.643,10.085,4.508c2.564,2.865,3.792,6.7,3.367,10.521l-1.058,9.519c-0.498,4.486-3.4,8.361-7.573,10.115l-0.114,0.048    l-0.079,0.096C23.486,37.701,21.799,38.5,20,38.5z"/>
	</g>
	<g>
		<path style="fill:#BA9B48;" d="M20,2c3.703,0,7.243,1.583,9.713,4.342c2.47,2.759,3.651,6.453,3.243,10.133l-1.058,9.519    c-0.478,4.305-3.264,8.026-7.27,9.709l-0.229,0.096l-0.157,0.192C23.194,37.267,21.648,38,20,38s-3.194-0.733-4.242-2.01    l-0.157-0.192l-0.229-0.096c-4.006-1.683-6.792-5.403-7.27-9.709l-1.058-9.519c-0.409-3.68,0.773-7.374,3.243-10.133    C12.757,3.583,16.297,2,20,2 M20,1C11.635,1,5.127,8.271,6.051,16.585l1.058,9.519c0.534,4.806,3.655,8.746,7.877,10.52    C16.174,38.074,17.979,39,20,39s3.826-0.926,5.015-2.376c4.222-1.774,7.343-5.714,7.877-10.52l1.058-9.519    C34.873,8.271,28.365,1,20,1L20,1z"/>
	</g>
</g>
<g>
	<path style="fill:#4E7AB5;" d="M18.548,23.841c-0.073-0.203-0.28-0.922-0.28-1.756c0-2.916,4.013-4.213,4.013-6.565   c0-2.044-2.383-2.154-2.757-2.154c-1.212,0-2.366,0.541-3.463,1.622v-2.817C17.393,11.39,18.775,11,20.206,11   c3.955,0,4.817,2.557,4.817,3.988c0,3.792-4.305,4.749-4.305,7.183c0,0.762,0.313,1.476,0.402,1.671H18.548z M19.938,29   c-0.79,0-1.744-0.566-1.744-1.622c0-1.163,1.125-1.634,1.744-1.634c1.168,0,1.732,0.953,1.732,1.634   C21.67,28.424,20.654,29,19.938,29z"/>
</g>
</svg>