<?xml version="1.0" encoding="iso-8859-1"?><!-- Generator: Adobe Illustrator 19.2.1, SVG Export Plug-In . SVG Version: 6.00 Build 0)  --><svg xmlns="http://www.w3.org/2000/svg" xmlns:xlink="http://www.w3.org/1999/xlink" version="1.1" id="Layer_1" x="0px" y="0px" viewBox="0 0 30 30" style="enable-background:new 0 0 30 30;" xml:space="preserve" width="30" height="30">
<g>
	<g>
		<path style="fill:#E8D47B;" d="M23.36,19.945c-1.7,0-3.083-1.383-3.083-3.083c0-1.7,1.383-3.083,3.083-3.083    c2.559,0,3.083,0.755,3.083,1.888C26.443,17.536,24.948,19.945,23.36,19.945z M6.64,19.945c-1.588,0-3.083-2.41-3.083-4.277    c0-1.133,0.524-1.888,3.083-1.888c1.7,0,3.083,1.383,3.083,3.083C9.723,18.562,8.34,19.945,6.64,19.945z"/>
	</g>
	<g>
		<path style="fill:#BA9B48;" d="M23.36,14.28c2.583,0,2.583,0.77,2.583,1.389c0,1.58-1.302,3.777-2.583,3.777    c-1.424,0-2.583-1.159-2.583-2.583S21.936,14.28,23.36,14.28 M6.64,14.28c1.424,0,2.583,1.159,2.583,2.583    s-1.159,2.583-2.583,2.583c-1.281,0-2.583-2.198-2.583-3.777C4.057,15.05,4.057,14.28,6.64,14.28 M23.36,13.28    c-1.979,0-3.583,1.604-3.583,3.583s1.604,3.583,3.583,3.583c1.979,0,3.583-2.798,3.583-4.777    C26.943,13.689,25.339,13.28,23.36,13.28L23.36,13.28z M6.64,13.28c-1.979,0-3.583,0.41-3.583,2.389    c0,1.979,1.604,4.777,3.583,4.777c1.979,0,3.583-1.604,3.583-3.583S8.619,13.28,6.64,13.28L6.64,13.28z"/>
	</g>
</g>
<g>
	<g>
		<path style="fill:#FFEEA3;" d="M15,28.5c-1.253,0-2.445-0.565-3.268-1.552l-0.079-0.095l-0.114-0.047    c-3.054-1.265-5.178-4.087-5.542-7.364l-0.779-7.014C4.91,9.65,5.802,6.861,7.667,4.778C9.531,2.695,12.204,1.5,15,1.5    s5.469,1.195,7.333,3.278c1.865,2.083,2.757,4.872,2.448,7.651l-0.779,7.014c-0.364,3.277-2.487,6.099-5.542,7.364l-0.114,0.047    l-0.079,0.095C17.445,27.935,16.254,28.5,15,28.5z"/>
	</g>
	<g>
		<path style="fill:#BA9B48;" d="M15,2c2.654,0,5.191,1.134,6.961,3.112c1.77,1.977,2.617,4.624,2.324,7.262l-0.779,7.014    c-0.344,3.096-2.35,5.762-5.236,6.957l-0.227,0.094l-0.158,0.189C17.156,27.5,16.105,28,15,28c-1.105,0-2.156-0.5-2.884-1.372    l-0.158-0.189l-0.227-0.094c-2.886-1.196-4.892-3.862-5.236-6.957l-0.779-7.014C5.422,9.736,6.269,7.089,8.039,5.112    C9.809,3.134,12.346,2,15,2 M15,1C8.836,1,4.041,6.358,4.721,12.484l0.779,7.014c0.395,3.558,2.714,6.473,5.847,7.771    C12.224,28.318,13.526,29,15,29s2.776-0.682,3.652-1.731c3.133-1.298,5.452-4.213,5.847-7.771l0.779-7.014    C25.959,6.358,21.164,1,15,1L15,1z"/>
	</g>
</g>
<g>
	<path style="fill:#4E7AB5;" d="M13.802,18.345c-0.059-0.163-0.225-0.738-0.225-1.406c0-2.335,3.213-3.374,3.213-5.257   c0-1.637-1.908-1.725-2.207-1.725c-0.97,0-1.895,0.433-2.773,1.299V9c1.068-0.625,2.174-0.938,3.32-0.938   c3.167,0,3.857,2.048,3.857,3.193c0,3.037-3.447,3.803-3.447,5.752c0,0.61,0.25,1.182,0.322,1.338H13.802z M14.916,22.476   c-0.632,0-1.396-0.453-1.396-1.299c0-0.931,0.901-1.309,1.396-1.309c0.935,0,1.387,0.763,1.387,1.309   C16.302,22.015,15.489,22.476,14.916,22.476z"/>
</g>
</svg>