<?xml version="1.0" encoding="iso-8859-1"?><!-- Generator: Adobe Illustrator 19.2.1, SVG Export Plug-In . SVG Version: 6.00 Build 0)  --><svg xmlns="http://www.w3.org/2000/svg" xmlns:xlink="http://www.w3.org/1999/xlink" version="1.1" id="Layer_1" x="0px" y="0px" viewBox="0 0 80 80" style="enable-background:new 0 0 80 80;" xml:space="preserve" width="80" height="80">
<g>
	<g>
		<path style="fill:#E8D47B;" d="M61.7,54.1c-4.853,0-8.8-3.948-8.8-8.8c0-4.852,3.948-8.8,8.8-8.8c6.168,0,8.8,1.705,8.8,5.7    C70.5,46.899,66.558,54.1,61.7,54.1z M18.3,54.1c-4.857,0-8.8-7.201-8.8-11.9c0-3.996,2.632-5.7,8.8-5.7    c4.853,0,8.8,3.948,8.8,8.8C27.1,50.152,23.152,54.1,18.3,54.1z"/>
	</g>
	<g>
		<path style="fill:#BA9B48;" d="M61.7,37c5.895,0,8.3,1.507,8.3,5.2c0,4.502-3.718,11.4-8.3,11.4c-4.577,0-8.3-3.723-8.3-8.3    S57.123,37,61.7,37 M18.3,37c4.577,0,8.3,3.723,8.3,8.3s-3.723,8.3-8.3,8.3c-4.582,0-8.3-6.898-8.3-11.4    C10,38.507,12.405,37,18.3,37 M61.7,36c-5.136,0-9.3,4.164-9.3,9.3s4.164,9.3,9.3,9.3S71,47.336,71,42.2    C71,37.064,66.836,36,61.7,36L61.7,36z M18.3,36C13.164,36,9,37.064,9,42.2c0,5.136,4.164,12.4,9.3,12.4s9.3-4.164,9.3-9.3    S23.436,36,18.3,36L18.3,36z"/>
	</g>
</g>
<g>
	<g>
		<path style="fill:#FFEEA3;" d="M40,77.5c-3.737,0-7.246-1.656-9.626-4.544l-0.079-0.096l-0.114-0.047    c-8.522-3.57-14.449-11.486-15.468-20.659l-2.115-19.038c-0.865-7.784,1.635-15.596,6.858-21.432C24.68,5.847,32.167,2.5,40,2.5    s15.32,3.347,20.544,9.183c5.223,5.836,7.723,13.648,6.858,21.432l-2.115,19.038c-1.02,9.173-6.946,17.089-15.468,20.659    l-0.114,0.047l-0.079,0.096C47.246,75.844,43.737,77.5,40,77.5z"/>
	</g>
	<g>
		<path style="fill:#BA9B48;" d="M40,3c7.69,0,15.042,3.286,20.171,9.017s7.583,13.4,6.734,21.043L64.79,52.098    c-0.999,8.993-6.81,16.753-15.164,20.253l-0.228,0.096l-0.157,0.191C46.955,75.41,43.588,77,40,77s-6.955-1.59-9.24-4.363    l-0.157-0.191l-0.228-0.096c-8.354-3.5-14.165-11.26-15.164-20.253L13.095,33.06c-0.849-7.643,1.605-15.313,6.734-21.043    C24.958,6.286,32.31,3,40,3 M40,2L40,2C23.27,2,10.254,16.542,12.101,33.17l2.115,19.038c1.069,9.622,7.314,17.522,15.772,21.065    C32.367,76.16,35.968,78,40,78s7.633-1.84,10.012-4.727c8.457-3.543,14.703-11.443,15.772-21.065l2.115-19.038    C69.746,16.542,56.73,2,40,2L40,2z"/>
	</g>
</g>
<g>
	<path style="fill:#4E7AB5;" d="M37.049,47.683c-0.146-0.406-0.561-1.844-0.561-3.512c0-5.832,8.025-8.427,8.025-13.131   c0-4.088-4.765-4.308-5.513-4.308c-2.423,0-4.732,1.082-6.927,3.244v-5.634C34.74,22.78,37.504,22,40.366,22   C48.276,22,50,27.114,50,29.976c0,7.585-8.61,9.499-8.61,14.366c0,1.524,0.626,2.951,0.805,3.341H37.049z M39.829,58   c-1.579,0-3.488-1.132-3.488-3.244c0-2.326,2.25-3.268,3.488-3.268c2.336,0,3.463,1.907,3.463,3.268   C43.293,56.848,41.262,58,39.829,58z"/>
</g>
</svg>