<?xml version="1.0" encoding="iso-8859-1"?><!-- Generator: Adobe Illustrator 19.2.1, SVG Export Plug-In . SVG Version: 6.00 Build 0)  --><svg xmlns="http://www.w3.org/2000/svg" xmlns:xlink="http://www.w3.org/1999/xlink" version="1.1" id="Layer_1" x="0px" y="0px" viewBox="0 0 16 16" style="enable-background:new 0 0 16 16;" xml:space="preserve" width="16" height="16">
<g>
	<g>
		<path style="fill:#E8D47B;" d="M12.9,10.7c-0.882,0-1.6-0.718-1.6-1.6s0.718-1.6,1.6-1.6c1.478,0,1.6,0.426,1.6,0.9    C14.5,9.362,13.694,10.7,12.9,10.7z M3.1,10.7c-0.794,0-1.6-1.338-1.6-2.3c0-0.474,0.123-0.9,1.6-0.9c0.882,0,1.6,0.718,1.6,1.6    S3.982,10.7,3.1,10.7z"/>
	</g>
	<g>
		<path style="fill:#BA9B48;" d="M12.9,8C14,8,14,8.194,14,8.4c0,0.794-0.682,1.8-1.1,1.8c-0.607,0-1.1-0.493-1.1-1.1    C11.8,8.493,12.293,8,12.9,8 M3.1,8c0.607,0,1.1,0.493,1.1,1.1c0,0.607-0.493,1.1-1.1,1.1C2.682,10.2,2,9.194,2,8.4    C2,8.194,2,8,3.1,8 M12.9,7c-1.16,0-2.1,0.94-2.1,2.1s0.94,2.1,2.1,2.1c1.16,0,2.1-1.64,2.1-2.8S14.06,7,12.9,7L12.9,7z M3.1,7    C1.94,7,1,7.24,1,8.4s0.94,2.8,2.1,2.8c1.16,0,2.1-0.94,2.1-2.1S4.26,7,3.1,7L3.1,7z"/>
	</g>
</g>
<g>
	<g>
		<path style="fill:#FFEEA3;" d="M8,15.5c-0.657,0-1.28-0.298-1.71-0.818l-0.079-0.096l-0.114-0.047    c-1.669-0.696-2.83-2.238-3.028-4.024L2.624,6.507c-0.17-1.527,0.321-3.06,1.346-4.205S6.463,0.5,8,0.5s3.006,0.657,4.031,1.802    s1.516,2.678,1.346,4.205l-0.445,4.008c-0.198,1.786-1.359,3.328-3.028,4.024l-0.114,0.047L9.71,14.682    C9.28,15.202,8.657,15.5,8,15.5z"/>
	</g>
	<g>
		<path style="fill:#BA9B48;" d="M8,1c1.395,0,2.728,0.596,3.658,1.635c0.93,1.039,1.375,2.43,1.221,3.816l-0.445,4.008    c-0.178,1.605-1.222,2.992-2.724,3.618l-0.228,0.095l-0.158,0.191C8.99,14.768,8.507,15,8,15s-0.99-0.232-1.325-0.637    l-0.158-0.191L6.29,14.078c-1.502-0.626-2.545-2.012-2.724-3.618L3.12,6.452C2.966,5.066,3.412,3.675,4.342,2.635    C5.272,1.596,6.605,1,8,1 M8,0C4.478,0,1.738,3.062,2.127,6.562l0.445,4.008C2.797,12.599,4.12,14.256,5.905,15    C6.405,15.606,7.153,16,8,16s1.595-0.394,2.095-1c1.785-0.744,3.107-2.402,3.333-4.43l0.445-4.008C14.262,3.062,11.522,0,8,0L8,0z    "/>
	</g>
</g>
<g>
	<path style="fill:#4E7AB5;" d="M7.173,9.912C7.139,9.819,7.044,9.49,7.044,9.108c0-1.334,1.836-1.928,1.836-3.004   c0-0.935-1.09-0.986-1.261-0.986c-0.554,0-1.083,0.247-1.585,0.742V4.571c0.61-0.357,1.242-0.536,1.897-0.536   c1.81,0,2.204,1.17,2.204,1.825c0,1.735-1.97,2.173-1.97,3.287c0,0.349,0.143,0.675,0.184,0.765H7.173z M7.809,12.272   c-0.361,0-0.798-0.259-0.798-0.742c0-0.532,0.515-0.748,0.798-0.748c0.534,0,0.792,0.436,0.792,0.748   C8.601,12.009,8.137,12.272,7.809,12.272z"/>
</g>
</svg>