<?xml version="1.0" encoding="iso-8859-1"?><!-- Generator: Adobe Illustrator 19.2.1, SVG Export Plug-In . SVG Version: 6.00 Build 0)  --><svg xmlns="http://www.w3.org/2000/svg" xmlns:xlink="http://www.w3.org/1999/xlink" version="1.1" id="Layer_1" x="0px" y="0px" viewBox="0 0 30 30" style="enable-background:new 0 0 30 30;" xml:space="preserve" width="30" height="30">
<g>
	<rect x="21.5" y="13.5" style="fill:#B0C1D4;" width="8" height="2"/>
	<path style="fill:#66798F;" d="M29,14v1h-7v-1H29 M30,13h-9v3h9V13L30,13z"/>
</g>
<g>
	<g>
		<path style="fill:#B0C1D4;" d="M15.627,25.5l-1.428-5H5.8l-1.427,5H0.695l7.042-21h4.691l6.881,21H15.627z M6.655,17.5h6.688    L10.468,7.428H9.531L6.655,17.5z"/>
	</g>
	<g>
		<path style="fill:#66798F;" d="M12.067,5l6.553,20h-2.616l-1.22-4.275L14.577,20h-0.754H6.177H5.423l-0.207,0.726L3.995,25H1.39    L8.097,5H12.067 M5.993,18h1.325h5.362h1.325l-0.364-1.274l-2.59-9.073l-0.207-0.726h-0.754H9.908H9.154L8.947,7.653l-2.589,9.073    L5.993,18 M12.792,4H7.378L0,26h4.75l1.427-5h7.646l1.427,5H20L12.792,4L12.792,4z M7.319,17l2.589-9.073h0.183L12.681,17H7.319    L7.319,17z"/>
	</g>
</g>
</svg>