<?xml version="1.0" encoding="iso-8859-1"?><!-- Generator: Adobe Illustrator 19.2.1, SVG Export Plug-In . SVG Version: 6.00 Build 0)  --><svg xmlns="http://www.w3.org/2000/svg" xmlns:xlink="http://www.w3.org/1999/xlink" version="1.1" id="Layer_1" x="0px" y="0px" viewBox="0 0 40 40" style="enable-background:new 0 0 40 40;" xml:space="preserve" width="40" height="40">
<g>
	
		<rect x="15.209" y="-1.079" transform="matrix(0.7071 -0.7071 0.7071 0.7071 -8.2843 20.001)" style="fill:#8BB7F0;" width="9.582" height="42.158"/>
	<path style="fill:#4E7AB5;" d="M8.483,2.414l29.103,29.103l-6.069,6.069L2.414,8.483L8.483,2.414 M8.483,1L1,8.483L31.517,39   L39,31.517L8.483,1L8.483,1z"/>
</g>
<g>
	<polygon style="fill:#F5CE85;" points="6.838,28.451 9.428,25.861 14.475,30.257 11.571,33.161 3.309,36.69  "/>
	<path style="fill:#967A44;" d="M9.451,26.545l4.291,3.737l-2.457,2.457L4.259,35.74l3.001-7.004L9.451,26.545 M9.404,25.178   l-2.988,2.988L2.357,37.64l9.499-4.057l3.351-3.351L9.404,25.178L9.404,25.178z"/>
</g>
<g>
	<polygon style="fill:#36404D;" points="4.661,32.273 2.36,37.643 7.744,35.343  "/>
</g>
<g>
	<path style="fill:#F78F8F;" d="M29.206,6.072l2.237-2.237c0.631-0.63,1.469-0.978,2.361-0.978c0.892,0,1.729,0.347,2.36,0.978   s0.978,1.469,0.978,2.361s-0.347,1.73-0.978,2.361l-2.237,2.237L29.206,6.072z"/>
	<g>
		<path style="fill:#C74343;" d="M33.804,3.357c0.758,0,1.471,0.295,2.007,0.831c1.107,1.107,1.107,2.908,0,4.014l-1.884,1.884    l-4.014-4.014l1.884-1.884C32.333,3.652,33.046,3.357,33.804,3.357 M33.804,2.357c-0.982,0-1.965,0.375-2.714,1.124l-2.591,2.591    l5.429,5.429l2.591-2.591c1.499-1.499,1.499-3.93,0-5.429C35.769,2.732,34.787,2.357,33.804,2.357L33.804,2.357z"/>
	</g>
</g>
<g>
	<path style="fill:#FFEEA3;" d="M12.202,32.53c-0.066-0.153-0.157-0.308-0.282-0.454c-0.31-0.363-0.749-0.584-1.31-0.661   c-0.201-1.267-1.206-1.804-1.99-1.965c-0.132-0.864-0.649-1.342-1.201-1.582L29.035,6.241l4.722,4.721L12.202,32.53z"/>
	<g>
		<path style="fill:#BA9B48;" d="M29.035,6.948l4.014,4.014L12.287,31.737c-0.242-0.278-0.638-0.59-1.261-0.748    c-0.306-1.078-1.155-1.685-1.984-1.943c-0.151-0.546-0.447-0.968-0.821-1.272L29.035,6.948 M29.035,5.534L6.416,28.166    c0,0,0.007,0,0.021,0c0.197,0,1.715,0.054,1.715,1.731c0,0,1.993,0.062,1.993,1.99c1.982,0,1.71,1.697,1.71,1.697l22.607-22.621    L29.035,5.534L29.035,5.534z"/>
	</g>
</g>
<g>
	
		<rect x="28.831" y="5.381" transform="matrix(0.7071 -0.7071 0.7071 0.7071 2.9957 24.6725)" style="fill:#D9E7F5;" width="4.898" height="6.677"/>
	<g>
		<path style="fill:#788B9C;" d="M30.651,5.335l4.014,4.014l-2.757,2.757l-4.014-4.014L30.651,5.335 M30.651,3.92L26.48,8.091    l5.429,5.429l4.171-4.171L30.651,3.92L30.651,3.92z"/>
	</g>
</g>
<line style="fill:none;stroke:#4E7AB5;stroke-miterlimit:10;" x1="11.011" y1="4.561" x2="8.296" y2="7.275"/>
<line style="fill:none;stroke:#4E7AB5;stroke-miterlimit:10;" x1="13.725" y1="7.275" x2="12.199" y2="8.801"/>
<line style="fill:none;stroke:#4E7AB5;stroke-miterlimit:10;" x1="16.439" y1="9.989" x2="13.725" y2="12.704"/>
<line style="fill:none;stroke:#4E7AB5;stroke-miterlimit:10;" x1="19.153" y1="12.704" x2="17.627" y2="14.23"/>
<line style="fill:none;stroke:#4E7AB5;stroke-miterlimit:10;" x1="27.296" y1="20.847" x2="25.77" y2="22.373"/>
<line style="fill:none;stroke:#4E7AB5;stroke-miterlimit:10;" x1="30.011" y1="23.561" x2="27.296" y2="26.275"/>
<line style="fill:none;stroke:#4E7AB5;stroke-miterlimit:10;" x1="32.725" y1="26.275" x2="31.199" y2="27.801"/>
<line style="fill:none;stroke:#4E7AB5;stroke-miterlimit:10;" x1="35.439" y1="28.989" x2="32.725" y2="31.704"/>
</svg>