<?xml version="1.0" encoding="iso-8859-1"?><!-- Generator: Adobe Illustrator 19.2.1, SVG Export Plug-In . SVG Version: 6.00 Build 0)  --><svg xmlns="http://www.w3.org/2000/svg" xmlns:xlink="http://www.w3.org/1999/xlink" version="1.1" id="Layer_1" x="0px" y="0px" viewBox="0 0 16 16" style="enable-background:new 0 0 16 16;" xml:space="preserve" width="16" height="16">
<g>
	
		<rect x="6.272" y="-0.586" transform="matrix(0.707 -0.7072 0.7072 0.707 -3.3137 8.0011)" style="fill:#8BB7F0;" width="3.456" height="17.172"/>
	<path style="fill:#4E7AB5;" d="M3.151,1.414l11.435,11.435l-1.736,1.736L1.414,3.151L3.151,1.414 M3.151,0L0,3.151L12.849,16   L16,12.849L3.151,0L3.151,0z"/>
</g>
<g>
	<polygon style="fill:#F5CE85;" points="2.71,11.61 3.628,10.691 5.43,12.26 4.4,13.29 1.451,14.549  "/>
	<path style="fill:#967A44;" d="M3.652,11.375l1.045,0.91l-0.582,0.582l-1.713,0.732l0.73-1.704L3.652,11.375 M3.605,10.008   l-1.316,1.316L0.5,15.499l4.185-1.787l1.477-1.477L3.605,10.008L3.605,10.008z"/>
</g>
<g>
	<polygon style="fill:#36404D;" points="1.515,13.134 0.501,15.5 2.873,14.487  "/>
</g>
<g>
	<path style="fill:#F78F8F;" d="M11.25,3.065l1.217-1.216C12.691,1.624,12.99,1.5,13.309,1.5s0.617,0.124,0.843,0.349   c0.464,0.464,0.464,1.22,0,1.685L12.935,4.75L11.25,3.065z"/>
	<g>
		<path style="fill:#C74343;" d="M13.309,2c0.185,0,0.358,0.072,0.489,0.202c0.27,0.27,0.27,0.708,0,0.978l-0.863,0.863    l-0.978-0.978l0.863-0.863C12.951,2.072,13.124,2,13.309,2 M13.309,1c-0.433,0-0.866,0.165-1.196,0.495l-1.57,1.57l2.392,2.392    l1.57-1.57c0.66-0.66,0.66-1.731,0-2.392v0C14.174,1.165,13.742,1,13.309,1L13.309,1z"/>
	</g>
</g>
<g>
	<path style="fill:#FFEEA3;" d="M4.877,12.812c-0.109-0.111-0.272-0.227-0.509-0.293c-0.145-0.464-0.51-0.732-0.873-0.854   c-0.065-0.215-0.18-0.387-0.323-0.518l8.035-8.041l1.686,1.685L4.877,12.812z"/>
	<g>
		<path style="fill:#BA9B48;" d="M11.208,3.814l0.978,0.978L4.821,12.16c-0.025-0.013-0.051-0.025-0.077-0.037    c-0.188-0.384-0.502-0.667-0.861-0.84c-0.015-0.032-0.031-0.062-0.048-0.093L11.208,3.814 M11.207,2.399l-8.919,8.925    c0,0,0.003,0,0.009,0c0.087,0,0.756,0.024,0.756,0.763c0,0,0.878,0.027,0.878,0.877c0.873,0,0.754,0.748,0.754,0.748l8.914-8.92    L11.207,2.399L11.207,2.399z"/>
	</g>
</g>
<g>
	
		<rect x="10.871" y="2.981" transform="matrix(0.707 -0.7072 0.7072 0.707 0.5145 9.5873)" style="fill:#D9E7F5;" width="1.913" height="2.383"/>
	<g>
		<path style="fill:#788B9C;" d="M11.661,3.361l0.978,0.978l-0.645,0.645l-0.978-0.978L11.661,3.361 M11.661,1.947l-2.06,2.06    l2.392,2.392l2.06-2.06L11.661,1.947L11.661,1.947z"/>
	</g>
</g>
<line style="fill:none;stroke:#4E7AB5;stroke-miterlimit:10;" x1="4.667" y1="2.333" x2="3.641" y2="3.359"/>
<line style="fill:none;stroke:#4E7AB5;stroke-miterlimit:10;" x1="6.667" y1="4.333" x2="5.641" y2="5.359"/>
<line style="fill:none;stroke:#4E7AB5;stroke-miterlimit:10;" x1="11.679" y1="9.295" x2="10.654" y2="10.321"/>
<line style="fill:none;stroke:#4E7AB5;stroke-miterlimit:10;" x1="13.679" y1="11.295" x2="12.654" y2="12.321"/>
</svg>