<?xml version="1.0" encoding="iso-8859-1"?><!-- Generator: Adobe Illustrator 19.2.1, SVG Export Plug-In . SVG Version: 6.00 Build 0)  --><svg xmlns="http://www.w3.org/2000/svg" xmlns:xlink="http://www.w3.org/1999/xlink" version="1.1" id="Layer_1" x="0px" y="0px" viewBox="0 0 80 80" style="enable-background:new 0 0 80 80;" xml:space="preserve" width="80" height="80">
<g>
	
		<rect x="29.918" y="-2.658" transform="matrix(0.7071 -0.7071 0.7071 0.7071 -16.5685 40)" style="fill:#8BB7F0;" width="20.165" height="85.315"/>
	<path style="fill:#4E7AB5;" d="M16.966,3.414l59.62,59.62L63.034,76.586l-59.62-59.62L16.966,3.414 M16.966,2L2,16.966L63.034,78   L78,63.034L16.966,2L16.966,2z"/>
</g>
<g>
	<polygon style="fill:#F5CE85;" points="13.255,56.617 18.832,51.039 29.683,60.489 23.427,66.744 5.665,74.33  "/>
	<path style="fill:#967A44;" d="M18.856,51.722l10.094,8.792l-5.808,5.808L6.616,73.38l7.06-16.478L18.856,51.722 M18.809,50.355   l-5.976,5.976L4.714,75.28l18.998-8.114l6.702-6.702L18.809,50.355L18.809,50.355z"/>
</g>
<g>
	<polygon style="fill:#36404D;" points="9.322,64.545 4.72,75.286 15.488,70.687  "/>
</g>
<g>
	<path style="fill:#F78F8F;" d="M57.705,12.145l4.828-4.829c1.355-1.355,3.158-2.102,5.075-2.102s3.72,0.747,5.075,2.102   c2.798,2.798,2.798,7.352,0,10.15l-4.828,4.829L57.705,12.145z"/>
	<g>
		<path style="fill:#C74343;" d="M67.609,5.714c1.784,0,3.46,0.695,4.721,1.956c2.603,2.603,2.603,6.839,0,9.443l-4.475,4.475    l-9.443-9.443l4.475-4.475C64.148,6.409,65.825,5.714,67.609,5.714 M67.609,4.714c-1.965,0-3.93,0.75-5.429,2.249l-5.182,5.182    l10.857,10.857l5.182-5.182c2.998-2.998,2.998-7.859,0-10.857v0C71.538,5.464,69.573,4.714,67.609,4.714L67.609,4.714z"/>
	</g>
</g>
<g>
	<path style="fill:#FFEEA3;" d="M24.167,66.004c-0.092-0.484-0.292-1.039-0.707-1.526c-0.604-0.707-1.506-1.106-2.689-1.189   c-0.235-2.745-2.469-3.751-3.984-3.957c-0.179-2.132-1.599-3.062-2.874-3.373L58.07,11.774l10.149,10.15L24.167,66.004z"/>
	<g>
		<path style="fill:#BA9B48;" d="M58.07,12.482l9.443,9.443L24.403,65.06c-0.132-0.307-0.314-0.616-0.563-0.907    c-0.62-0.727-1.498-1.169-2.62-1.322c-0.401-2.534-2.412-3.607-3.98-3.929c-0.264-1.727-1.298-2.684-2.402-3.163L58.07,12.482     M58.07,11.067L12.833,56.331c0,0,0.015-0.001,0.042-0.001c0.395,0,3.43,0.109,3.43,3.462c0,0,3.986,0.124,3.986,3.98    c3.965,0,3.421,3.394,3.421,3.394l45.215-45.242L58.07,11.067L58.07,11.067z"/>
	</g>
</g>
<g>
	
		<rect x="57.161" y="10.263" transform="matrix(0.7071 -0.7071 0.7071 0.7071 5.9924 49.3464)" style="fill:#D9E7F5;" width="10.797" height="14.354"/>
	<g>
		<path style="fill:#788B9C;" d="M61.302,9.255l9.443,9.443l-6.927,6.927l-9.443-9.443L61.302,9.255 M61.302,7.841l-8.341,8.341    l10.857,10.857l8.341-8.341L61.302,7.841L61.302,7.841z"/>
	</g>
</g>
<line style="fill:none;stroke:#4E7AB5;stroke-miterlimit:10;" x1="22.021" y1="9.122" x2="16.592" y2="14.55"/>
<line style="fill:none;stroke:#4E7AB5;stroke-miterlimit:10;" x1="27.45" y1="14.55" x2="24.398" y2="17.602"/>
<line style="fill:none;stroke:#4E7AB5;stroke-miterlimit:10;" x1="32.878" y1="19.979" x2="27.45" y2="25.408"/>
<line style="fill:none;stroke:#4E7AB5;stroke-miterlimit:10;" x1="38.307" y1="25.408" x2="35.255" y2="28.459"/>
<line style="fill:none;stroke:#4E7AB5;stroke-miterlimit:10;" x1="54.592" y1="41.693" x2="51.541" y2="44.745"/>
<line style="fill:none;stroke:#4E7AB5;stroke-miterlimit:10;" x1="60.021" y1="47.122" x2="54.592" y2="52.55"/>
<line style="fill:none;stroke:#4E7AB5;stroke-miterlimit:10;" x1="65.45" y1="52.55" x2="62.398" y2="55.602"/>
<line style="fill:none;stroke:#4E7AB5;stroke-miterlimit:10;" x1="70.878" y1="57.979" x2="65.45" y2="63.408"/>
</svg>