<?xml version="1.0" encoding="iso-8859-1"?><!-- Generator: Adobe Illustrator 19.2.1, SVG Export Plug-In . SVG Version: 6.00 Build 0)  --><svg xmlns="http://www.w3.org/2000/svg" xmlns:xlink="http://www.w3.org/1999/xlink" version="1.1" id="Layer_1" x="0px" y="0px" viewBox="0 0 30 30" style="enable-background:new 0 0 30 30;" xml:space="preserve" width="30" height="30">
<g>
	
		<rect x="11.601" y="-0.4" transform="matrix(0.7071 -0.7071 0.7071 0.7071 -6.2132 15)" style="fill:#8BB7F0;" width="6.798" height="30.801"/>
	<path style="fill:#4E7AB5;" d="M6.514,2.414l21.072,21.072l-4.099,4.099L2.414,6.514L6.514,2.414 M6.514,1L1,6.514L23.486,29   L29,23.486L6.514,1L6.514,1z"/>
</g>
<g>
	<polygon style="fill:#F5CE85;" points="5.413,21.302 7.216,19.499 10.736,22.564 8.714,24.586 2.951,27.048  "/>
	<path style="fill:#967A44;" d="M7.24,20.182l2.764,2.407l-1.575,1.575l-4.527,1.933l1.933-4.511L7.24,20.182 M7.193,18.815   l-2.202,2.202L2,27.998l6.999-2.989l2.469-2.469L7.193,18.815L7.193,18.815z"/>
</g>
<g>
	<polygon style="fill:#36404D;" points="3.698,24.043 2.002,28 5.969,26.306  "/>
</g>
<g>
	<path style="fill:#F78F8F;" d="M21.97,4.737l1.556-1.556C23.965,2.742,24.55,2.5,25.172,2.5s1.207,0.242,1.646,0.682   c0.907,0.908,0.907,2.385,0,3.293L25.263,8.03L21.97,4.737z"/>
	<g>
		<path style="fill:#C74343;" d="M25.172,3c0.488,0,0.948,0.19,1.293,0.536C26.81,3.881,27,4.34,27,4.828    c0,0.488-0.19,0.948-0.536,1.293l-1.202,1.202l-2.586-2.586l1.202-1.202C24.224,3.19,24.683,3,25.172,3 M25.172,2    c-0.724,0-1.448,0.276-2,0.828l-1.909,1.909l4,4l1.909-1.909c1.105-1.105,1.105-2.895,0-4C26.619,2.276,25.895,2,25.172,2    L25.172,2z"/>
	</g>
</g>
<g>
	<path style="fill:#FFEEA3;" d="M9.288,24.012c-0.04-0.067-0.087-0.134-0.142-0.199c-0.232-0.272-0.552-0.445-0.954-0.517   c-0.18-0.846-0.85-1.288-1.465-1.441c-0.107-0.516-0.405-0.876-0.776-1.091L21.657,5.047L24.95,8.34L9.288,24.012z"/>
	<g>
		<path style="fill:#BA9B48;" d="M21.658,5.755l2.586,2.586L9.316,23.277c-0.177-0.151-0.411-0.296-0.717-0.394    c-0.262-0.75-0.855-1.201-1.457-1.423c-0.099-0.293-0.251-0.54-0.438-0.742L21.658,5.755 M21.657,4.341L4.991,21.017    c0,0,0.005,0,0.016,0c0.145,0,1.264,0.04,1.264,1.275c0,0,1.469,0.046,1.469,1.466c1.461,0,1.26,1.25,1.26,1.25L25.657,8.341    L21.657,4.341L21.657,4.341z"/>
	</g>
</g>
<g>
	
		<rect x="21.639" y="4.36" transform="matrix(0.707 -0.7073 0.7073 0.707 2.1007 18.4472)" style="fill:#D9E7F5;" width="3.346" height="4.657"/>
	<g>
		<path style="fill:#788B9C;" d="M22.848,4.566l2.586,2.586l-1.659,1.659l-2.586-2.586L22.848,4.566 M22.848,3.152l-3.073,3.073l4,4    l3.073-3.073L22.848,3.152L22.848,3.152z"/>
	</g>
</g>
<line style="fill:none;stroke:#4E7AB5;stroke-miterlimit:10;" x1="8.376" y1="3.624" x2="6.376" y2="5.624"/>
<line style="fill:none;stroke:#4E7AB5;stroke-miterlimit:10;" x1="10.376" y1="5.624" x2="9.252" y2="6.748"/>
<line style="fill:none;stroke:#4E7AB5;stroke-miterlimit:10;" x1="12.376" y1="7.624" x2="10.376" y2="9.624"/>
<line style="fill:none;stroke:#4E7AB5;stroke-miterlimit:10;" x1="14.376" y1="9.624" x2="13.252" y2="10.748"/>
<line style="fill:none;stroke:#4E7AB5;stroke-miterlimit:10;" x1="20.376" y1="15.624" x2="19.252" y2="16.748"/>
<line style="fill:none;stroke:#4E7AB5;stroke-miterlimit:10;" x1="22.376" y1="17.624" x2="20.376" y2="19.624"/>
<line style="fill:none;stroke:#4E7AB5;stroke-miterlimit:10;" x1="24.376" y1="19.624" x2="23.252" y2="20.748"/>
<line style="fill:none;stroke:#4E7AB5;stroke-miterlimit:10;" x1="26.376" y1="21.624" x2="24.376" y2="23.624"/>
</svg>