<?xml version="1.0" encoding="iso-8859-1"?><!-- Generator: Adobe Illustrator 19.2.1, SVG Export Plug-In . SVG Version: 6.00 Build 0)  --><svg xmlns="http://www.w3.org/2000/svg" xmlns:xlink="http://www.w3.org/1999/xlink" version="1.1" x="0px" y="0px" viewBox="0 0 16 16" style="enable-background:new 0 0 16 16;" xml:space="preserve" width="16" height="16">
<g id="Layer_1">
	<g>
		<rect x="0.5" y="0.5" style="fill:#FFC49C;" width="5" height="5"/>
		<g>
			<path style="fill:#A16A4A;" d="M5,1v4H1V1H5 M6,0H0v6h6V0L6,0z"/>
		</g>
	</g>
	<polygon style="fill:#A16A4A;" points="3.828,2.97 3,3.738 4.139,5 5,5 5,4.061  "/>
	<polygon style="fill:#E09367;" points="4.385,5 1,5 1,4 2.333,2.667  "/>
	<rect x="13" y="3" style="fill:#788B9C;" width="3" height="1"/>
	<rect x="8" y="3" style="fill:#788B9C;" width="3" height="1"/>
	<rect x="13" y="8" style="fill:#788B9C;" width="3" height="1"/>
	<rect x="8" y="8" style="fill:#788B9C;" width="3" height="1"/>
	<rect x="13" y="13" style="fill:#788B9C;" width="3" height="1"/>
	<rect x="8" y="13" style="fill:#788B9C;" width="3" height="1"/>
	<g>
		<rect x="0.5" y="5.5" style="fill:#BAE0BD;" width="5" height="5"/>
		<g>
			<path style="fill:#5E9C76;" d="M5,6v4H1V6H5 M6,5H0v6h6V5L6,5z"/>
		</g>
	</g>
	<path style="fill:#FFFFFF;" d="M3,8L2.417,7.029C2.146,6.576,2.472,6,3,6h0c0.528,0,0.854,0.576,0.583,1.029L3,8z"/>
	<path style="fill:#FFFFFF;" d="M3,8l0.583,0.971C3.854,9.424,3.528,10,3,10h0c-0.528,0-0.854-0.576-0.583-1.029L3,8z"/>
	<path style="fill:#FFFFFF;" d="M3,8L1.868,8.019C1.34,8.028,1.004,7.457,1.268,7l0,0C1.532,6.543,2.194,6.548,2.45,7.01L3,8z"/>
	<path style="fill:#FFFFFF;" d="M3,8l1.132-0.019C4.66,7.972,4.996,8.543,4.732,9l0,0C4.468,9.457,3.806,9.452,3.55,8.99L3,8z"/>
	<path style="fill:#FFFFFF;" d="M3,8L2.45,8.99C2.194,9.452,1.532,9.457,1.268,9l0,0c-0.264-0.457,0.072-1.028,0.6-1.019L3,8z"/>
	<path style="fill:#FFFFFF;" d="M3,8l0.55-0.99C3.806,6.548,4.468,6.543,4.732,7l0,0c0.264,0.457-0.072,1.028-0.6,1.019L3,8z"/>
	<circle style="fill:#FFEEA3;" cx="3" cy="8" r="0.8"/>
	<g>
		<rect x="0.5" y="10.5" style="fill:#8BB7F0;" width="5" height="5"/>
		<g>
			<path style="fill:#4E7AB5;" d="M5,11v4H1v-4H5 M6,10H0v6h6V10L6,10z"/>
		</g>
	</g>
	<g>
		
			<rect x="1.821" y="11.821" transform="matrix(0.7071 -0.7071 0.7071 0.7071 -8.3137 5.9289)" style="fill:#FFEEA3;" width="2.357" height="2.357"/>
	</g>
	<g>
		<rect x="1.821" y="11.821" style="fill:#FFEEA3;" width="2.357" height="2.357"/>
	</g>
	<circle style="fill:#FFFFFF;" cx="3" cy="13" r="0.667"/>
</g>
<g id="Layer_2">
</g>
</svg>