<?xml version="1.0" encoding="iso-8859-1"?><!-- Generator: Adobe Illustrator 19.2.1, SVG Export Plug-In . SVG Version: 6.00 Build 0)  --><svg xmlns="http://www.w3.org/2000/svg" xmlns:xlink="http://www.w3.org/1999/xlink" version="1.1" id="Layer_1" x="0px" y="0px" viewBox="0 0 40 40" style="enable-background:new 0 0 40 40;" xml:space="preserve" width="40" height="40">
<g>
	<rect x="1.5" y="1.5" style="fill:#FFC49C;" width="11" height="11"/>
	<g>
		<path style="fill:#A16A4A;" d="M12,2v10H2V2H12 M13,1H1v12h12V1L13,1z"/>
	</g>
</g>
<g>
	<rect x="1.5" y="14.5" style="fill:#BAE0BD;" width="11" height="11"/>
	<g>
		<path style="fill:#5E9C76;" d="M12,15v10H2V15H12 M13,14H1v12h12V14L13,14z"/>
	</g>
</g>
<g>
	<rect x="1.5" y="27.5" style="fill:#8BB7F0;" width="11" height="11"/>
	<g>
		<path style="fill:#4E7AB5;" d="M12,28v10H2V28H12 M13,27H1v12h12V27L13,27z"/>
	</g>
</g>
<g>
	
		<rect x="4.172" y="30.172" transform="matrix(0.7071 -0.7071 0.7071 0.7071 -21.2843 14.6152)" style="fill:#FFEEA3;" width="5.657" height="5.657"/>
</g>
<g>
	<rect x="4" y="30" style="fill:#FFEEA3;" width="6" height="6"/>
</g>
<rect x="17" y="6" style="fill:#788B9C;" width="9" height="1"/>
<rect x="17" y="19" style="fill:#788B9C;" width="9" height="1"/>
<rect x="17" y="32" style="fill:#788B9C;" width="9" height="1"/>
<rect x="30" y="6" style="fill:#788B9C;" width="9" height="1"/>
<rect x="30" y="19" style="fill:#788B9C;" width="9" height="1"/>
<rect x="30" y="32" style="fill:#788B9C;" width="9" height="1"/>
<polygon style="fill:#A16A4A;" points="9.069,6.924 7,8.846 9.846,12 12,12 12,9.652 "/>
<circle style="fill:#FFFFFF;" cx="10" cy="4" r="1"/>
<polygon style="fill:#E09367;" points="10.463,12 2,12 2,9.5 5.333,6.167 "/>
<path style="fill:#FFFFFF;" d="M7,20l-1.165-1.942C5.291,17.152,5.944,16,7,16h0c1.056,0,1.709,1.152,1.165,2.058L7,20z"/>
<path style="fill:#FFFFFF;" d="M7,20l1.165,1.942C8.709,22.848,8.056,24,7,24h0c-1.056,0-1.709-1.152-1.165-2.058L7,20z"/>
<path style="fill:#FFFFFF;" d="M7,20l-2.264,0.038c-1.056,0.018-1.728-1.123-1.2-2.038l0,0c0.528-0.915,1.852-0.904,2.365,0.02L7,20  z"/>
<path style="fill:#FFFFFF;" d="M7,20l2.264-0.038c1.056-0.018,1.728,1.123,1.2,2.038l0,0c-0.528,0.915-1.852,0.904-2.365-0.02L7,20z  "/>
<path style="fill:#FFFFFF;" d="M7,20l-1.099,1.98C5.388,22.904,4.064,22.915,3.536,22l0,0c-0.528-0.915,0.144-2.056,1.2-2.038L7,20z  "/>
<path style="fill:#FFFFFF;" d="M7,20l1.099-1.98c0.513-0.923,1.837-0.935,2.365-0.02l0,0c0.528,0.915-0.144,2.056-1.2,2.038L7,20z"/>
<circle style="fill:#FFEEA3;" cx="7" cy="20" r="1.5"/>
<circle style="fill:#FFFFFF;" cx="7" cy="33" r="1.5"/>
</svg>