<?xml version="1.0" encoding="iso-8859-1"?><!-- Generator: Adobe Illustrator 19.2.1, SVG Export Plug-In . SVG Version: 6.00 Build 0)  --><svg xmlns="http://www.w3.org/2000/svg" xmlns:xlink="http://www.w3.org/1999/xlink" version="1.1" id="Layer_1" x="0px" y="0px" viewBox="0 0 30 30" style="enable-background:new 0 0 30 30;" xml:space="preserve" width="30" height="30">
<g>
	<rect x="1.5" y="1.5" style="fill:#FFC49C;" width="8" height="8"/>
	<g>
		<path style="fill:#A16A4A;" d="M9,2v7H2V2H9 M10,1H1v9h9V1L10,1z"/>
	</g>
</g>
<g>
	<rect x="1.5" y="11.5" style="fill:#BAE0BD;" width="8" height="8"/>
	<g>
		<path style="fill:#5E9C76;" d="M9,12v7H2v-7H9 M10,11H1v9h9V11L10,11z"/>
	</g>
</g>
<g>
	<rect x="1.5" y="21.5" style="fill:#8BB7F0;" width="8" height="8"/>
	<g>
		<path style="fill:#4E7AB5;" d="M9,22v7H2v-7H9 M10,21H1v9h9V21L10,21z"/>
	</g>
</g>
<g>
	
		<rect x="3.732" y="23.732" transform="matrix(0.7071 -0.7071 0.7071 0.7071 -16.4203 11.3579)" style="fill:#FFEEA3;" width="3.536" height="3.536"/>
</g>
<g>
	<rect x="3.732" y="23.732" style="fill:#FFEEA3;" width="3.536" height="3.536"/>
</g>
<rect x="13" y="5" style="fill:#788B9C;" width="7" height="1"/>
<rect x="13" y="15" style="fill:#788B9C;" width="7" height="1"/>
<rect x="13" y="25" style="fill:#788B9C;" width="7" height="1"/>
<rect x="22" y="5" style="fill:#788B9C;" width="7" height="1"/>
<rect x="22" y="15" style="fill:#788B9C;" width="7" height="1"/>
<rect x="22" y="25" style="fill:#788B9C;" width="7" height="1"/>
<polygon style="fill:#A16A4A;" points="6.949,5.447 5.5,6.792 7.492,9 9,9 9,7.356 "/>
<circle style="fill:#FFFFFF;" cx="7.5" cy="3.5" r="0.5"/>
<polygon style="fill:#E09367;" points="7.924,9 2,9 2,7.25 4.333,4.917 "/>
<path style="fill:#FFFFFF;" d="M5.5,15.5l-0.728-1.214C4.432,13.72,4.84,13,5.5,13h0c0.66,0,1.068,0.72,0.728,1.286L5.5,15.5z"/>
<path style="fill:#FFFFFF;" d="M5.5,15.5l0.728,1.214C6.568,17.28,6.16,18,5.5,18h0c-0.66,0-1.068-0.72-0.728-1.286L5.5,15.5z"/>
<path style="fill:#FFFFFF;" d="M5.5,15.5l-1.415,0.024c-0.66,0.011-1.08-0.702-0.75-1.274l0,0c0.33-0.572,1.158-0.565,1.478,0.012  L5.5,15.5z"/>
<path style="fill:#FFFFFF;" d="M5.5,15.5l1.415-0.024c0.66-0.011,1.08,0.702,0.75,1.274l0,0c-0.33,0.572-1.158,0.565-1.478-0.012  L5.5,15.5z"/>
<path style="fill:#FFFFFF;" d="M5.5,15.5l-0.687,1.238c-0.32,0.577-1.148,0.584-1.478,0.012l0,0c-0.33-0.572,0.09-1.285,0.75-1.274  L5.5,15.5z"/>
<path style="fill:#FFFFFF;" d="M5.5,15.5l0.687-1.238c0.32-0.577,1.148-0.584,1.478-0.012l0,0c0.33,0.572-0.09,1.285-0.75,1.274  L5.5,15.5z"/>
<circle style="fill:#FFEEA3;" cx="5.5" cy="15.5" r="1"/>
<circle style="fill:#FFFFFF;" cx="5.5" cy="25.5" r="1"/>
</svg>