<?xml version="1.0" encoding="iso-8859-1"?><!-- Generator: Adobe Illustrator 19.2.1, SVG Export Plug-In . SVG Version: 6.00 Build 0)  --><svg xmlns="http://www.w3.org/2000/svg" xmlns:xlink="http://www.w3.org/1999/xlink" version="1.1" id="Layer_1" x="0px" y="0px" viewBox="0 0 80 80" style="enable-background:new 0 0 80 80;" xml:space="preserve" width="80" height="80">
<g>
	<path style="fill:#BAE0BD;" d="M18,33.5C9.453,33.5,2.5,26.547,2.5,18S9.453,2.5,18,2.5S33.5,9.453,33.5,18S26.547,33.5,18,33.5z"/>
	<g>
		<path style="fill:#5E9C76;" d="M18,3c8.271,0,15,6.729,15,15s-6.729,15-15,15S3,26.271,3,18S9.729,3,18,3 M18,2    C9.163,2,2,9.163,2,18s7.163,16,16,16s16-7.163,16-16S26.837,2,18,2L18,2z"/>
	</g>
</g>
<g>
	<path style="fill:#BAE0BD;" d="M18,77.5C9.453,77.5,2.5,70.547,2.5,62S9.453,46.5,18,46.5S33.5,53.453,33.5,62S26.547,77.5,18,77.5   z"/>
	<g>
		<path style="fill:#5E9C76;" d="M18,47c8.271,0,15,6.729,15,15s-6.729,15-15,15S3,70.271,3,62S9.729,47,18,47 M18,46    C9.163,46,2,53.163,2,62c0,8.837,7.163,16,16,16s16-7.163,16-16C34,53.163,26.837,46,18,46L18,46z"/>
	</g>
</g>
<g>
	<path style="fill:#BAE0BD;" d="M62,77.5c-8.547,0-15.5-6.953-15.5-15.5S53.453,46.5,62,46.5S77.5,53.453,77.5,62   S70.547,77.5,62,77.5z"/>
	<g>
		<path style="fill:#5E9C76;" d="M62,47c8.271,0,15,6.729,15,15s-6.729,15-15,15s-15-6.729-15-15S53.729,47,62,47 M62,46    c-8.837,0-16,7.163-16,16c0,8.837,7.163,16,16,16s16-7.163,16-16C78,53.163,70.837,46,62,46L62,46z"/>
	</g>
</g>
<g>
	<rect x="48.5" y="4.5" style="fill:#8BB7F0;" width="27" height="27"/>
	<path style="fill:#4E7AB5;" d="M75,5v26H49V5H75 M76,4H48v28h28V4L76,4z"/>
</g>
</svg>