<?xml version="1.0" encoding="iso-8859-1"?><!-- Generator: Adobe Illustrator 19.2.1, SVG Export Plug-In . SVG Version: 6.00 Build 0)  --><svg xmlns="http://www.w3.org/2000/svg" xmlns:xlink="http://www.w3.org/1999/xlink" version="1.1" id="Layer_1" x="0px" y="0px" viewBox="0 0 30 30" style="enable-background:new 0 0 30 30;" xml:space="preserve" width="30" height="30">
<g>
	<circle style="fill:#BAE0BD;" cx="7" cy="7" r="5.5"/>
	<g>
		<path style="fill:#5E9C76;" d="M7,2c2.757,0,5,2.243,5,5s-2.243,5-5,5S2,9.757,2,7S4.243,2,7,2 M7,1C3.686,1,1,3.686,1,7    s2.686,6,6,6s6-2.686,6-6S10.314,1,7,1L7,1z"/>
	</g>
</g>
<g>
	<circle style="fill:#BAE0BD;" cx="7" cy="23" r="5.5"/>
	<g>
		<path style="fill:#5E9C76;" d="M7,18c2.757,0,5,2.243,5,5s-2.243,5-5,5s-5-2.243-5-5S4.243,18,7,18 M7,17c-3.314,0-6,2.686-6,6    s2.686,6,6,6s6-2.686,6-6S10.314,17,7,17L7,17z"/>
	</g>
</g>
<g>
	<circle style="fill:#BAE0BD;" cx="23" cy="23" r="5.5"/>
	<g>
		<path style="fill:#5E9C76;" d="M23,18c2.757,0,5,2.243,5,5s-2.243,5-5,5s-5-2.243-5-5S20.243,18,23,18 M23,17    c-3.314,0-6,2.686-6,6s2.686,6,6,6s6-2.686,6-6S26.314,17,23,17L23,17z"/>
	</g>
</g>
<g>
	<rect x="18.5" y="2.5" style="fill:#8BB7F0;" width="9" height="9"/>
	<path style="fill:#4E7AB5;" d="M27,3v8h-8V3H27 M28,2H18v10h10V2L28,2z"/>
</g>
</svg>