<?xml version="1.0" encoding="iso-8859-1"?><!-- Generator: Adobe Illustrator 19.2.1, SVG Export Plug-In . SVG Version: 6.00 Build 0)  --><svg xmlns="http://www.w3.org/2000/svg" xmlns:xlink="http://www.w3.org/1999/xlink" version="1.1" id="Layer_1" x="0px" y="0px" viewBox="0 0 40 40" style="enable-background:new 0 0 40 40;" xml:space="preserve" width="40" height="40">
<g>
	<circle style="fill:#BAE0BD;" cx="9" cy="9" r="7.5"/>
	<g>
		<path style="fill:#5E9C76;" d="M9,2c3.86,0,7,3.14,7,7c0,3.86-3.14,7-7,7s-7-3.14-7-7C2,5.14,5.14,2,9,2 M9,1C4.582,1,1,4.582,1,9    c0,4.418,3.582,8,8,8s8-3.582,8-8C17,4.582,13.418,1,9,1L9,1z"/>
	</g>
</g>
<g>
	<circle style="fill:#BAE0BD;" cx="9" cy="31" r="7.5"/>
	<g>
		<path style="fill:#5E9C76;" d="M9,24c3.86,0,7,3.14,7,7s-3.14,7-7,7s-7-3.14-7-7S5.14,24,9,24 M9,23c-4.418,0-8,3.582-8,8    s3.582,8,8,8s8-3.582,8-8S13.418,23,9,23L9,23z"/>
	</g>
</g>
<g>
	<circle style="fill:#BAE0BD;" cx="31" cy="31" r="7.5"/>
	<g>
		<path style="fill:#5E9C76;" d="M31,24c3.86,0,7,3.14,7,7s-3.14,7-7,7s-7-3.14-7-7S27.14,24,31,24 M31,23c-4.418,0-8,3.582-8,8    s3.582,8,8,8s8-3.582,8-8S35.418,23,31,23L31,23z"/>
	</g>
</g>
<g>
	<rect x="24.5" y="2.5" style="fill:#8BB7F0;" width="13" height="13"/>
	<path style="fill:#4E7AB5;" d="M37,3v12H25V3H37 M38,2H24v14h14V2L38,2z"/>
</g>
</svg>