<?xml version="1.0" encoding="iso-8859-1"?><!-- Generator: Adobe Illustrator 19.2.1, SVG Export Plug-In . SVG Version: 6.00 Build 0)  --><svg xmlns="http://www.w3.org/2000/svg" xmlns:xlink="http://www.w3.org/1999/xlink" version="1.1" id="Layer_1" x="0px" y="0px" viewBox="0 0 30 30" style="enable-background:new 0 0 30 30;" xml:space="preserve" width="30" height="30">
<g>
	<g>
		<path style="fill:#BAE0BD;" d="M2.5,27.5v-25h25v25H2.5z M3.841,15l5.484,9.5h10.971l5.483-9.5l-5.483-9.5H9.325L3.841,15z"/>
	</g>
	<g>
		<path style="fill:#5E9C76;" d="M27,3v24H3V3H27 M9.037,25h0.577h10.392h0.577l0.289-0.5l5.196-9l0.289-0.5l-0.289-0.5l-5.196-9    L20.584,5h-0.577H9.614H9.037L8.748,5.5l-5.196,9L3.263,15l0.289,0.5l5.196,9L9.037,25 M28,2H2v26h26V2L28,2z M9.614,24l-5.196-9    l5.196-9h10.392l5.196,9l-5.196,9H9.614L9.614,24z"/>
	</g>
</g>
<g>
	<polygon style="fill:#8BB7F0;" points="10.814,20.5 8.228,12.539 15,7.618 21.772,12.539 19.186,20.5  "/>
	<path style="fill:#4E7AB5;" d="M15,8.236l6.185,4.493L18.822,20h-7.645l-2.362-7.271L15,8.236 M15,7l-7.36,5.348L10.451,21h9.098   l2.811-8.652L15,7L15,7z"/>
</g>
</svg>