<?xml version="1.0" encoding="iso-8859-1"?><!-- Generator: Adobe Illustrator 19.2.1, SVG Export Plug-In . SVG Version: 6.00 Build 0)  --><svg xmlns="http://www.w3.org/2000/svg" xmlns:xlink="http://www.w3.org/1999/xlink" version="1.1" id="Layer_1" x="0px" y="0px" viewBox="0 0 30 30" style="enable-background:new 0 0 30 30;" xml:space="preserve" width="30" height="30">
<g>
	<path style="fill:#FFEEA3;" d="M15,28.5c-2.07,0-3.865-0.83-5.646-2.611l-6.121-6.122C2.76,19.295,2.5,18.667,2.5,18   s0.26-1.295,0.732-1.768C3.704,15.76,4.332,15.5,5,15.5s1.296,0.26,1.768,0.732L9.5,18.964V12.5h16V23c0,3.033-2.468,5.5-5.5,5.5   H15z"/>
	<path style="fill:#BA9B48;" d="M25,13v10c0,2.757-2.243,5-5,5h-5c-1.214,0-3.084-0.255-5.293-2.464l-6.121-6.121   c-0.78-0.78-0.78-2.049,0-2.828C3.964,16.208,4.466,16,5,16c0.534,0,1.036,0.208,1.414,0.586l1.879,1.879L10,20.172v-2.414V13H25    M26,12H9v5.757l-1.879-1.879C6.536,15.293,5.768,15,5,15s-1.536,0.293-2.121,0.879c-1.172,1.172-1.172,3.071,0,4.243   c0,0,3.904,3.904,6.121,6.121S13.244,29,15,29c0.974,0,5,0,5,0c3.314,0,6-2.686,6-6V12L26,12z"/>
</g>
<g>
	<path style="fill:#FFEEA3;" d="M13.5,15.5v-12c0-1.103,0.897-2,2-2s2,0.897,2,2v12H13.5z"/>
	<path style="fill:#BA9B48;" d="M15.5,2C16.327,2,17,2.673,17,3.5V15h-3V3.5C14,2.673,14.673,2,15.5,2 M15.5,1   C14.119,1,13,2.119,13,3.5V16h5V3.5C18,2.119,16.881,1,15.5,1L15.5,1z"/>
</g>
<g>
	<path style="fill:#FFEEA3;" d="M9.5,15.5v-10c0-1.103,0.897-2,2-2s2,0.897,2,2v10H9.5z"/>
	<path style="fill:#BA9B48;" d="M11.5,4C12.327,4,13,4.673,13,5.5V15h-3V5.5C10,4.673,10.673,4,11.5,4 M11.5,3   C10.119,3,9,4.119,9,5.5V16h5V5.5C14,4.119,12.881,3,11.5,3L11.5,3z"/>
</g>
<g>
	<path style="fill:#FFEEA3;" d="M17.5,15.5v-11c0-1.103,0.897-2,2-2s2,0.897,2,2v11H17.5z"/>
	<path style="fill:#BA9B48;" d="M19.5,3C20.327,3,21,3.673,21,4.5V15h-3V4.5C18,3.673,18.673,3,19.5,3 M19.5,2   C18.119,2,17,3.119,17,4.5V16h5V4.5C22,3.119,20.881,2,19.5,2L19.5,2z"/>
</g>
<g>
	<path style="fill:#FFEEA3;" d="M21.5,15.5v-7c0-1.103,0.897-2,2-2s2,0.897,2,2v7H21.5z"/>
	<path style="fill:#BA9B48;" d="M23.5,7C24.327,7,25,7.673,25,8.5V15h-3V8.5C22,7.673,22.673,7,23.5,7 M23.5,6   C22.119,6,21,7.119,21,8.5V16h5V8.5C26,7.119,24.881,6,23.5,6L23.5,6z"/>
</g>
<rect x="10" y="14" style="fill:#FFEEA3;" width="15" height="4"/>
<line style="fill:none;stroke:#C74343;stroke-width:2;stroke-miterlimit:10;" x1="13.5" y1="17" x2="20.5" y2="24"/>
<line style="fill:none;stroke:#C74343;stroke-width:2;stroke-miterlimit:10;" x1="20.5" y1="17" x2="13.5" y2="24"/>
</svg>