<?xml version="1.0" encoding="iso-8859-1"?><!-- Generator: Adobe Illustrator 19.2.1, SVG Export Plug-In . SVG Version: 6.00 Build 0)  --><svg xmlns="http://www.w3.org/2000/svg" xmlns:xlink="http://www.w3.org/1999/xlink" version="1.1" id="Layer_1" x="0px" y="0px" viewBox="0 0 40 40" style="enable-background:new 0 0 40 40;" xml:space="preserve" width="40" height="40">
<g>
	<g>
		<path style="fill:#BAE0BD;" d="M2.5,37.5v-35h35v35H2.5z M5.304,20l7.217,12.5h14.434L34.171,20L26.954,7.5H12.521L5.304,20z"/>
	</g>
	<g>
		<path style="fill:#5E9C76;" d="M37,3v34H3V3H37 M12.232,33h0.577h13.856h0.577l0.289-0.5l6.928-12l0.289-0.5l-0.289-0.5l-6.928-12    L27.243,7h-0.577H12.809h-0.577l-0.289,0.5l-6.928,12L4.726,20l0.289,0.5l6.928,12L12.232,33 M38,2H2v36h36V2L38,2z M12.809,32    L5.881,20l6.928-12h13.856l6.928,12l-6.928,12H12.809L12.809,32z"/>
	</g>
</g>
<g>
	<polygon style="fill:#8BB7F0;" points="14.189,28.5 10.599,17.448 20,10.618 29.401,17.448 25.811,28.5  "/>
	<path style="fill:#4E7AB5;" d="M20,11.236l8.813,6.403L25.447,28H14.553l-3.366-10.361L20,11.236 M20,10l-9.989,7.257L13.827,29   h12.347l3.815-11.743L20,10L20,10z"/>
</g>
</svg>