<?xml version="1.0" encoding="iso-8859-1"?><!-- Generator: Adobe Illustrator 19.2.1, SVG Export Plug-In . SVG Version: 6.00 Build 0)  --><svg xmlns="http://www.w3.org/2000/svg" xmlns:xlink="http://www.w3.org/1999/xlink" version="1.1" id="Layer_1" x="0px" y="0px" viewBox="0 0 16 16" style="enable-background:new 0 0 16 16;" xml:space="preserve" width="16" height="16">
<g>
	<path style="fill:#FFEEA3;" d="M7.714,15.5c-0.706,0-1.794-0.148-3.074-1.429l-3.498-3.498C0.89,10.321,0.761,9.972,0.79,9.616   C0.818,9.255,1,8.937,1.3,8.721c0.188-0.135,0.416-0.207,0.659-0.207c0.354,0,0.706,0.148,0.965,0.406L4.5,10.498V6.5h8V12   c0,1.93-1.57,3.5-3.5,3.5H7.714z"/>
	<path style="fill:#BA9B48;" d="M12,7v5c0,1.654-1.346,3-3,3H7.714c-0.67,0-1.584-0.146-2.721-1.283l-3.498-3.498   c-0.148-0.148-0.224-0.354-0.207-0.563c0.01-0.123,0.063-0.355,0.304-0.529c0.104-0.075,0.227-0.112,0.366-0.112   c0.22,0,0.448,0.097,0.611,0.26l0.723,0.723L5,11.704V9.29V7H12 M13,6H4v3.29L3.277,8.567C2.922,8.211,2.438,8.014,1.959,8.014   c-0.334,0-0.666,0.096-0.951,0.301c-0.883,0.636-0.956,1.875-0.22,2.611c0,0,2.231,2.231,3.498,3.498   C5.553,15.691,6.711,16,7.714,16H9c2.209,0,4-1.791,4-4V6L13,6z"/>
</g>
<g>
	<path style="fill:#FFEEA3;" d="M10.5,8.5v-4c0-0.551,0.448-1,1-1s1,0.449,1,1v4H10.5z"/>
	<path style="fill:#BA9B48;" d="M11.5,4C11.776,4,12,4.224,12,4.5V8h-1V4.5C11,4.224,11.224,4,11.5,4 M11.5,3   C10.672,3,10,3.672,10,4.5V9h3V4.5C13,3.672,12.328,3,11.5,3L11.5,3z"/>
</g>
<g>
	<path style="fill:#FFEEA3;" d="M8.5,8.5v-6c0-0.551,0.448-1,1-1s1,0.449,1,1v6H8.5z"/>
	<path style="fill:#BA9B48;" d="M9.5,2C9.776,2,10,2.224,10,2.5V8H9V2.5C9,2.224,9.224,2,9.5,2 M9.5,1C8.672,1,8,1.672,8,2.5V9h3   V2.5C11,1.672,10.328,1,9.5,1L9.5,1z"/>
</g>
<g>
	<path style="fill:#FFEEA3;" d="M6.5,8.5v-7c0-0.551,0.448-1,1-1s1,0.449,1,1v7H6.5z"/>
	<path style="fill:#BA9B48;" d="M7.5,1C7.776,1,8,1.224,8,1.5V8H7V1.5C7,1.224,7.224,1,7.5,1 M7.5,0C6.672,0,6,0.672,6,1.5V9h3V1.5   C9,0.672,8.328,0,7.5,0L7.5,0z"/>
</g>
<g>
	<path style="fill:#FFEEA3;" d="M4.5,9.5v-7c0-0.551,0.448-1,1-1s1,0.449,1,1v7H4.5z"/>
	<path style="fill:#BA9B48;" d="M5.5,2C5.776,2,6,2.224,6,2.5V9H5V2.5C5,2.224,5.224,2,5.5,2 M5.5,1C4.672,1,4,1.672,4,2.5V10h3V2.5   C7,1.672,6.328,1,5.5,1L5.5,1z"/>
</g>
<rect x="5" y="7" style="fill:#FFEEA3;" width="7" height="4"/>
<line style="fill:none;stroke:#C74343;stroke-miterlimit:10;" x1="6.5" y1="8.5" x2="10.5" y2="12.5"/>
<line style="fill:none;stroke:#C74343;stroke-miterlimit:10;" x1="10.5" y1="8.5" x2="6.5" y2="12.5"/>
</svg>