<?xml version="1.0" encoding="iso-8859-1"?><!-- Generator: Adobe Illustrator 19.2.1, SVG Export Plug-In . SVG Version: 6.00 Build 0)  --><svg xmlns="http://www.w3.org/2000/svg" xmlns:xlink="http://www.w3.org/1999/xlink" version="1.1" x="0px" y="0px" viewBox="0 0 16 16" style="enable-background:new 0 0 16 16;" xml:space="preserve" width="16" height="16">
<g id="Layer_1">
	<g>
		<g>
			<path style="fill:#BAE0BD;" d="M1.5,14.5v-13h13v13H1.5z M1.649,8l3.175,5.5h6.352L14.351,8l-3.175-5.5H4.824L1.649,8z"/>
		</g>
		<g>
			<path style="fill:#5E9C76;" d="M14,2v4.392L11.753,2.5L11.464,2H14 M4.536,2L4.247,2.5L2,6.392V2H4.536 M2,9.608L4.247,13.5     L4.536,14h0.577h5.774h0.577l0.289-0.5L14,9.608V14H2V9.608 M15,1H1v14h14V1L15,1z M5.113,13L2.227,8l2.887-5h5.774l2.887,5     l-2.887,5H5.113L5.113,13z"/>
		</g>
	</g>
	<g>
		<polygon style="fill:#8BB7F0;" points="6.414,10.5 5.434,7.483 8,5.618 10.566,7.483 9.586,10.5   "/>
		<path style="fill:#4E7AB5;" d="M8,6.236l1.979,1.438L9.223,10H6.777L6.021,7.674L8,6.236 M8,5L4.846,7.292L6.05,11H9.95    l1.205-3.708L8,5L8,5z"/>
	</g>
</g>
<g id="Layer_2">
</g>
</svg>