<?xml version="1.0" encoding="iso-8859-1"?><!-- Generator: Adobe Illustrator 19.2.1, SVG Export Plug-In . SVG Version: 6.00 Build 0)  --><svg xmlns="http://www.w3.org/2000/svg" xmlns:xlink="http://www.w3.org/1999/xlink" version="1.1" id="Layer_1" x="0px" y="0px" viewBox="0 0 80 80" style="enable-background:new 0 0 80 80;" xml:space="preserve" width="80" height="80">
<g>
	<g>
		<path style="fill:#BAE0BD;" d="M4.5,75.5v-71h71v71H4.5z M11.432,40l13.271,24.5h29.596L67.568,40L54.298,15.5H24.702L11.432,40z"/>
	</g>
	<g>
		<path style="fill:#5E9C76;" d="M75,5v70H5V5H75 M24.404,65H25h29h0.596l0.284-0.524l13-24L68.137,40l-0.258-0.476l-13-24    L54.596,15H54H25h-0.596l-0.284,0.524l-13,24L10.863,40l0.258,0.476l13,24L24.404,65 M76,4H4v72h72V4L76,4z M25,64L12,40l13-24h29    l13,24L54,64H25L25,64z"/>
	</g>
</g>
<g>
	<polygon style="fill:#8BB7F0;" points="28.355,57.5 20.592,35.181 40,20.625 59.408,35.181 51.645,57.5  "/>
	<path style="fill:#4E7AB5;" d="M40,21.25l18.815,14.112L51.289,57H28.711l-7.526-21.638L40,21.25 M40,20L20,35l8,23h24l8-23L40,20   L40,20z"/>
</g>
</svg>