<?xml version="1.0" encoding="iso-8859-1"?><!-- Generator: Adobe Illustrator 19.2.1, SVG Export Plug-In . SVG Version: 6.00 Build 0)  --><svg xmlns="http://www.w3.org/2000/svg" xmlns:xlink="http://www.w3.org/1999/xlink" version="1.1" id="Layer_1" x="0px" y="0px" viewBox="0 0 80 80" style="enable-background:new 0 0 80 80;" xml:space="preserve" width="80" height="80">
<polygon style="fill:#BA9B48;" points="15.492,35.629 24.759,53.649 42.008,46.57 49.988,23.529 23.086,24.945 "/>
<g>
	<g>
		<path style="fill:#ECE8F7;" d="M20,77.5c-8.547,0-15.5-6.953-15.5-15.5S11.453,46.5,20,46.5S35.5,53.453,35.5,62    S28.547,77.5,20,77.5z"/>
	</g>
	<g>
		<path style="fill:#8B75A1;" d="M20,47c8.271,0,15,6.729,15,15s-6.729,15-15,15S5,70.271,5,62S11.729,47,20,47 M20,46    c-8.837,0-16,7.163-16,16c0,8.836,7.163,16,16,16s16-7.164,16-16C36,53.163,28.837,46,20,46L20,46z"/>
	</g>
</g>
<rect x="19" y="54.002" style="fill:#8B75A1;" width="2" height="15.999"/>
<g>
	<path style="fill:#FFEEA3;" d="M24.806,63.615c-3.488,0-5.918-1.502-7.221-4.463c-2.278-5.178,1.763-9.578,3.493-10.596   l3.461-2.042l-0.508-0.861l-1.691,0.998c-0.763-0.124-1.557-0.188-2.363-0.188c-2.152,0-6.226,0.484-9.901,3.632l-3.317-5.339   c-2.781-4.524-2.571-10.233,0.537-14.544l8.828-12.242c2.157-2.991,5.299-5.196,8.846-6.21L57.118,2.58l17.949,26.568   c-2.541,2.694-3.765,6.107-4.95,9.413c-1.816,5.064-3.694,10.303-10.399,13.152c-6.058,2.574-26.861,10.018-29.656,10.958   C28.782,63.103,26.831,63.615,24.806,63.615L24.806,63.615z M30.574,30.604c-1.83,5.374-7.611,7.637-7.67,7.659l-0.509,0.194   l3.51,7.249l14.222-8.419l-0.012-6.616l-0.57,0.081c-0.015,0.002-1.499,0.21-3.376,0.21c-2,0-3.667-0.226-4.958-0.67l-0.475-0.163   L30.574,30.604z"/>
	<path style="fill:#BA9B48;" d="M56.907,3.161l17.524,25.94c-2.427,2.717-3.624,6.056-4.785,9.291   c-1.862,5.193-3.62,10.097-10.124,12.861c-6.052,2.572-26.829,10.005-29.62,10.944c-1.245,0.419-3.14,0.918-5.097,0.918   c-3.272,0-5.547-1.401-6.763-4.165c-2.319-5.27,2.286-9.374,3.288-9.964l1.613-0.951l0.261-0.154l3.422-2.02l0.791-0.469l0-0.001   c5.669-3.353,12.717-7.528,12.717-7.528l0.491-0.291l-0.001-0.571l-0.01-5.755l-0.003-1.15l-1.138,0.162   c-0.014,0.002-1.469,0.205-3.306,0.205c-1.916,0-3.575-0.223-4.795-0.644l-0.949-0.327l-0.324,0.95   c-1.751,5.142-7.319,7.332-7.374,7.353l-1.021,0.388l0.476,0.983l2.635,5.441l-2.577,1.523c-0.734-0.11-1.494-0.166-2.264-0.166   c-3.587,0-7.014,1.193-9.776,3.383l-3.013-4.85c-2.676-4.354-2.474-9.846,0.515-13.991l8.828-12.242   c2.092-2.901,5.138-5.04,8.578-6.022L56.907,3.161 M57.33,2l-32.498,9.28c-3.671,1.048-6.881,3.302-9.114,6.399L6.889,29.921   c-3.216,4.46-3.435,10.416-0.556,15.1l3.631,5.843c3.152-2.92,6.888-3.9,10.011-3.9c0.878,0,1.707,0.077,2.461,0.211   c1.028-0.607,2.299-1.358,3.682-2.176l-3.036-6.269c0,0,6.034-2.293,7.965-7.965c1.591,0.549,3.506,0.698,5.121,0.698   c1.939,0,3.447-0.215,3.447-0.215l0.01,5.756c0,0-7.728,4.578-13.508,7.996l0.001,0.002l-3.683,2.174   c-0.644,0.38-1.192,0.703-1.612,0.95c-1.654,0.973-6.175,5.595-3.697,11.228c1.625,3.693,4.695,4.762,7.678,4.762   c1.998,0,3.957-0.479,5.416-0.97c3.016-1.015,23.754-8.448,29.692-10.972c11.485-4.881,9.126-16.301,15.795-22.969L57.33,2L57.33,2   z"/>
</g>
<path style="fill:#E8D47B;" d="M29.201,59.962L24.845,49.91c-0.682,0.296-1.878,0.939-1.878,0.939  c-2.776,1.203-4.051,4.428-2.848,7.204c1.203,2.776,4.428,4.051,7.204,2.848C27.324,60.901,28.519,60.257,29.201,59.962z"/>
</svg>