<?xml version="1.0" encoding="iso-8859-1"?><!-- Generator: Adobe Illustrator 19.2.1, SVG Export Plug-In . SVG Version: 6.00 Build 0)  --><svg xmlns="http://www.w3.org/2000/svg" xmlns:xlink="http://www.w3.org/1999/xlink" version="1.1" id="Layer_1" x="0px" y="0px" viewBox="0 0 16 16" style="enable-background:new 0 0 16 16;" xml:space="preserve" width="16" height="16">
<polygon style="fill:#BA9B48;" points="2.634,7.08 4.585,10.873 8.216,9.383 9.896,4.532 4.233,4.831 "/>
<g>
	<g>
		<circle style="fill:#ECE8F7;" cx="3.5" cy="12.5" r="3"/>
	</g>
	<g>
		<path style="fill:#8B75A1;" d="M3.5,10C4.878,10,6,11.122,6,12.5S4.878,15,3.5,15S1,13.878,1,12.5S2.122,10,3.5,10 M3.5,9    C1.567,9,0,10.567,0,12.5C0,14.433,1.567,16,3.5,16S7,14.433,7,12.5C7,10.567,5.433,9,3.5,9L3.5,9z"/>
	</g>
</g>
<rect x="3" y="11" style="fill:#8B75A1;" width="1" height="3"/>
<g>
	<path style="fill:#FFEEA3;" d="M4.595,12.577c-0.579,0-0.948-0.224-1.159-0.704c-0.303-0.689,0.083-1.254,0.341-1.529l0.16-0.171   l0.011,0.013l4.267-2.532L8.211,5.582l-0.569,0.08c-0.013,0.002-0.295,0.04-0.655,0.04c-0.372,0-0.688-0.041-0.915-0.119   L5.597,5.42L5.436,5.895C5.113,6.84,4.065,7.261,4.054,7.265l-0.51,0.194L4.22,8.855L3.412,9.332L3.316,9.41l0.074,0.091   L3.349,9.507c-0.357,0.045-0.974,0.246-1.471,0.521l-0.745-1.23C0.629,7.979,0.667,6.948,1.229,6.17l1.858-2.577   c0.403-0.558,0.989-0.969,1.65-1.158l7.472-1.861l3.167,5.097c-0.429,0.513-0.746,1.102-1.054,1.675   c-0.603,1.121-1.173,2.18-2.531,2.758c-1.262,0.536-5.627,2.099-6.215,2.297C5.334,12.48,4.968,12.577,4.595,12.577z"/>
	<path style="fill:#BA9B48;" d="M11.977,1.146l2.79,4.49c-0.347,0.471-0.619,0.977-0.885,1.471   c-0.584,1.087-1.089,2.026-2.287,2.535c-1.18,0.502-5.485,2.049-6.179,2.282c-0.291,0.098-0.583,0.152-0.821,0.152   c-0.435,0-0.591-0.155-0.701-0.405c-0.161-0.367,0-0.693,0.189-0.919l0.071-0.076c0.032-0.034,0.088-0.085,0.109-0.104l0.928-0.548   L5.38,9.913L8.224,8.23l0.491-0.291L8.715,7.367L8.712,6.156L8.708,5.01L7.573,5.167c-0.003,0-0.261,0.036-0.586,0.036   c-0.421,0-0.652-0.058-0.752-0.092L5.285,4.783l-0.324,0.95c-0.245,0.72-1.085,1.064-1.085,1.064L2.856,7.186l0.476,0.983   l0.237,0.49l-0.374,0.22L3.146,8.908L3.1,8.943C3.07,8.965,3.035,8.994,3.027,9.001C2.994,9.027,2.962,9.053,2.93,9.08   C2.671,9.145,2.368,9.247,2.069,9.378L1.558,8.533c-0.396-0.644-0.366-1.457,0.076-2.07l1.859-2.577   C3.83,3.418,4.32,3.074,4.842,2.924L11.977,1.146 M12.442,0L4.6,1.954C3.827,2.174,3.151,2.649,2.681,3.301L0.823,5.878   C0.146,6.817,0.1,8.071,0.706,9.057l1.018,1.681c0.398-0.361,1.274-0.683,1.688-0.735c0.081-0.087,0.161-0.159,0.23-0.213   c0.023-0.019,0.043-0.036,0.061-0.049l0.98-0.577C4.744,9.128,4.807,9.09,4.871,9.053l-0.639-1.32c0,0,1.27-0.483,1.677-1.677   c0.335,0.115,0.738,0.147,1.078,0.147c0.408,0,0.726-0.045,0.726-0.045l0.002,1.212c0,0-1.627,0.964-2.844,1.683l0,0L4.682,9.164   c-0.393,0.232-0.728,0.43-0.926,0.547C3.723,9.73,3.684,9.757,3.642,9.79c-0.078,0.066-0.177,0.158-0.226,0.212   c-0.001,0-0.003,0-0.004,0.001c-0.389,0.416-0.824,1.185-0.433,2.072c0.342,0.778,0.989,1.003,1.617,1.003   c0.421,0,0.833-0.101,1.14-0.204c0.635-0.214,5.001-1.779,6.251-2.31c2.418-1.028,2.61-3.432,4.014-4.836L12.442,0L12.442,0z"/>
</g>
</svg>