<?xml version="1.0" encoding="iso-8859-1"?><!-- Generator: Adobe Illustrator 19.2.1, SVG Export Plug-In . SVG Version: 6.00 Build 0)  --><svg xmlns="http://www.w3.org/2000/svg" xmlns:xlink="http://www.w3.org/1999/xlink" version="1.1" id="Layer_1" x="0px" y="0px" viewBox="0 0 30 30" style="enable-background:new 0 0 30 30;" xml:space="preserve" width="30" height="30">
<polygon style="fill:#BA9B48;" points="6.126,13.389 9.54,20.029 15.895,17.42 18.835,8.932 8.924,9.453 "/>
<g>
	<g>
		<circle style="fill:#ECE8F7;" cx="8" cy="23" r="5.5"/>
	</g>
	<g>
		<path style="fill:#8B75A1;" d="M8,17.999c2.757,0,5,2.243,5,5s-2.243,5-5,5s-5-2.243-5-5S5.243,17.999,8,17.999 M8,16.999    c-3.314,0-6,2.686-6,6c0,3.314,2.686,6,6,6s6-2.687,6-6C14,19.686,11.314,16.999,8,16.999L8,16.999z"/>
	</g>
</g>
<rect x="7.441" y="20" style="fill:#8B75A1;" width="1.118" height="6"/>
<g>
	<path style="fill:#FFEEA3;" d="M9.558,23.385c-1.165,0-1.94-0.477-2.372-1.456c-0.814-1.851,0.806-3.297,1.158-3.505l7.174-4.243   l-0.005-2.98l-0.569,0.08c-0.005,0.001-0.533,0.074-1.2,0.074c-0.691,0-1.288-0.079-1.724-0.229l-0.475-0.164l-0.162,0.476   c-0.628,1.846-2.619,2.621-2.639,2.628l-0.51,0.194l1.214,2.508l-0.068-0.115l-1.512,0.89C7.833,17.54,7.797,17.54,7.762,17.54   c-1.382,0-2.526,0.642-3.26,1.201l-1.324-2.153c-0.958-1.559-0.886-3.524,0.185-5.009l3.252-4.511   c0.753-1.044,1.851-1.814,3.09-2.169L21.329,1.58l6.346,9.394c-0.866,1.005-1.3,2.215-1.721,3.39   c-0.676,1.885-1.314,3.666-3.658,4.662c-2.216,0.941-9.872,3.681-10.903,4.028C10.944,23.205,10.261,23.385,9.558,23.385   L9.558,23.385z"/>
	<path style="fill:#BA9B48;" d="M21.117,2.161l5.936,8.786c-0.764,1.002-1.173,2.14-1.57,3.248c-0.666,1.857-1.241,3.46-3.382,4.37   c-2.165,0.92-9.874,3.681-10.867,4.015c-0.414,0.139-1.041,0.305-1.677,0.305c-1.259,0-1.695-0.66-1.914-1.157   c-0.722-1.641,0.936-2.862,0.954-2.872l1.622-0.957l0.331-0.196l4.977-2.946l0.491-0.291l-0.001-0.571l-0.004-2.12l-0.003-1.148   l-1.137,0.16c-0.005,0.001-0.503,0.069-1.13,0.069c-0.637,0-1.176-0.07-1.561-0.203l-0.949-0.327l-0.324,0.95   c-0.546,1.603-2.329,2.317-2.343,2.322l-1.021,0.388l0.476,0.983l0.717,1.481L7.735,17.04c-1.247,0.007-2.309,0.482-3.086,0.987   l-1.045-1.7c-0.852-1.386-0.788-3.135,0.164-4.454l3.253-4.51c0.688-0.954,1.69-1.658,2.821-1.981L21.117,2.161 M21.54,1   L9.567,4.419C8.215,4.805,7.032,5.636,6.209,6.776l-3.253,4.51c-1.185,1.643-1.266,3.837-0.205,5.563l1.626,2.645   c0.852-0.773,2.052-1.455,3.384-1.455c0.078,0,0.156,0.002,0.235,0.007l1.714-1.009c0.108-0.064,0.218-0.129,0.331-0.196   l-1.118-2.31c0,0,2.223-0.845,2.934-2.934c0.586,0.202,1.292,0.257,1.887,0.257c0.714,0,1.27-0.079,1.27-0.079l0.004,2.12   c0,0-2.847,1.687-4.977,2.946l0,0.001L9.71,17.038c-0.688,0.407-1.273,0.752-1.62,0.956c-0.609,0.358-2.275,2.061-1.362,4.137   c0.599,1.361,1.73,1.754,2.829,1.754c0.736,0,1.458-0.177,1.995-0.357c1.111-0.374,8.752-3.112,10.939-4.042   c4.231-1.798,3.362-6.005,5.819-8.462L21.54,1L21.54,1z"/>
</g>
<path style="fill:#E8D47B;" d="M10.931,21.804l-1.145-2.642c-0.179,0.078-0.494,0.247-0.494,0.247  c-0.73,0.316-1.065,1.164-0.749,1.894c0.316,0.73,1.164,1.065,1.894,0.749C10.438,22.051,10.752,21.882,10.931,21.804z"/>
</svg>