<?xml version="1.0" encoding="iso-8859-1"?><!-- Generator: Adobe Illustrator 19.2.1, SVG Export Plug-In . SVG Version: 6.00 Build 0)  --><svg xmlns="http://www.w3.org/2000/svg" xmlns:xlink="http://www.w3.org/1999/xlink" version="1.1" id="Layer_1" x="0px" y="0px" viewBox="0 0 16 16" style="enable-background:new 0 0 16 16;" xml:space="preserve" width="16" height="16">
<g>
	<path style="fill:#BAE0BD;" d="M7.5,14.5c-3.86,0-7-3.141-7-7s3.14-7,7-7s7,3.141,7,7S11.36,14.5,7.5,14.5z M7.5,4.5   c-1.654,0-3,1.346-3,3s1.346,3,3,3s3-1.346,3-3S9.154,4.5,7.5,4.5z"/>
	<path style="fill:#5E9C76;" d="M7.5,1C11.084,1,14,3.916,14,7.5S11.084,14,7.5,14S1,11.084,1,7.5S3.916,1,7.5,1 M7.5,11   C9.43,11,11,9.43,11,7.5S9.43,4,7.5,4S4,5.57,4,7.5S5.57,11,7.5,11 M7.5,0C3.358,0,0,3.358,0,7.5S3.358,15,7.5,15S15,11.642,15,7.5   S11.642,0,7.5,0L7.5,0z M7.5,10C6.119,10,5,8.881,5,7.5C5,6.119,6.119,5,7.5,5S10,6.119,10,7.5C10,8.881,8.881,10,7.5,10L7.5,10z"/>
</g>
<g>
	<path style="fill:#BAE0BD;" d="M7.5,14.5c-3.86,0-7-3.141-7-7s3.14-7,7-7s7,3.141,7,7S11.36,14.5,7.5,14.5z M7.5,4.5   c-1.654,0-3,1.346-3,3s1.346,3,3,3s3-1.346,3-3S9.154,4.5,7.5,4.5z"/>
	<path style="fill:#5E9C76;" d="M7.5,1C11.084,1,14,3.916,14,7.5S11.084,14,7.5,14S1,11.084,1,7.5S3.916,1,7.5,1 M7.5,11   C9.43,11,11,9.43,11,7.5S9.43,4,7.5,4S4,5.57,4,7.5S5.57,11,7.5,11 M7.5,0C3.358,0,0,3.358,0,7.5S3.358,15,7.5,15S15,11.642,15,7.5   S11.642,0,7.5,0L7.5,0z M7.5,10C6.119,10,5,8.881,5,7.5C5,6.119,6.119,5,7.5,5S10,6.119,10,7.5C10,8.881,8.881,10,7.5,10L7.5,10z"/>
</g>
<g>
	<path style="fill:#8BB7F0;" d="M9.946,9.238C10.306,8.734,10.5,8.132,10.5,7.5c0-0.167-0.015-0.335-0.044-0.502l3.933-0.703   c0.009,0.056,0.064,0.414,0.064,0.414C14.481,6.97,14.5,7.232,14.5,7.5c0,0.242-0.012,0.481-0.036,0.717   c-0.094,0.923-0.366,1.805-0.809,2.62c-0.242,0.445-0.531,0.863-0.865,1.247L9.946,9.238z"/>
	<g>
		<path style="fill:#4E7AB5;" d="M13.967,6.878C13.989,7.1,14,7.305,14,7.5c0,0.222-0.011,0.446-0.034,0.666    c-0.087,0.857-0.34,1.676-0.75,2.432c-0.139,0.256-0.295,0.502-0.467,0.737L10.58,9.166C10.854,8.66,11,8.091,11,7.5    c0-0.03,0-0.061-0.001-0.091L13.967,6.878 M14.778,5.717L9.827,6.603C9.935,6.882,10,7.183,10,7.5c0,0.69-0.28,1.315-0.732,1.768    l3.536,3.536c0.509-0.509,0.945-1.091,1.292-1.728c0.462-0.85,0.764-1.8,0.867-2.808C14.987,8.015,15,7.759,15,7.5    c0-0.286-0.019-0.568-0.051-0.845c-0.01-0.089-0.027-0.176-0.04-0.264c-0.028-0.188-0.06-0.374-0.101-0.557    C14.799,5.795,14.787,5.756,14.778,5.717L14.778,5.717z"/>
	</g>
</g>
<g>
	<path style="fill:#FFC49C;" d="M10.458,7C10.247,5.746,9.254,4.753,8,4.542V0.518C11.462,0.764,14.237,3.538,14.482,7H10.458z"/>
	<g>
		<path style="fill:#A16A4A;" d="M8.5,1.077c2.785,0.432,4.991,2.638,5.423,5.423h-3.069C10.518,5.373,9.627,4.482,8.5,4.146V1.077     M7.5,0v5C8.881,5,10,6.119,10,7.5h5C15,3.358,11.642,0,7.5,0L7.5,0z"/>
	</g>
</g>
</svg>