<?xml version="1.0" encoding="iso-8859-1"?><!-- Generator: Adobe Illustrator 19.2.1, SVG Export Plug-In . SVG Version: 6.00 Build 0)  --><svg xmlns="http://www.w3.org/2000/svg" xmlns:xlink="http://www.w3.org/1999/xlink" version="1.1" id="Layer_1" x="0px" y="0px" viewBox="0 0 30 30" style="enable-background:new 0 0 30 30;" xml:space="preserve" width="30" height="30">
<g>
	<path style="fill:#BAE0BD;" d="M15,28.5C7.556,28.5,1.5,22.444,1.5,15S7.556,1.5,15,1.5S28.5,7.556,28.5,15S22.444,28.5,15,28.5z    M15,10.5c-2.481,0-4.5,2.019-4.5,4.5s2.019,4.5,4.5,4.5s4.5-2.019,4.5-4.5S17.481,10.5,15,10.5z"/>
	<path style="fill:#5E9C76;" d="M15,2c7.168,0,13,5.832,13,13s-5.832,13-13,13S2,22.168,2,15S7.832,2,15,2 M15,20   c2.757,0,5-2.243,5-5s-2.243-5-5-5s-5,2.243-5,5S12.243,20,15,20 M15,1C7.268,1,1,7.268,1,15s6.268,14,14,14s14-6.268,14-14   S22.732,1,15,1L15,1z M15,19c-2.209,0-4-1.791-4-4c0-2.209,1.791-4,4-4c2.209,0,4,1.791,4,4C19,17.209,17.209,19,15,19L15,19z"/>
</g>
<g>
	<path style="fill:#8BB7F0;" d="M18.517,17.809C19.154,17.014,19.5,16.033,19.5,15c0-0.398-0.051-0.789-0.153-1.167l8.872-1.588   C28.406,13.148,28.5,14.072,28.5,15c0,3.439-1.277,6.682-3.607,9.186L18.517,17.809z"/>
	<g>
		<path style="fill:#4E7AB5;" d="M27.819,12.825C27.939,13.541,28,14.269,28,15c0,3.137-1.104,6.104-3.127,8.459l-5.701-5.701    C19.711,16.947,20,15.996,20,15c0-0.258-0.019-0.514-0.058-0.766L27.819,12.825 M28.601,11.669l-9.916,1.774    C18.888,13.922,19,14.448,19,15c0,1.105-0.448,2.105-1.172,2.828l7.071,7.071C27.433,22.366,29,18.866,29,15    C29,13.852,28.862,12.737,28.601,11.669L28.601,11.669z"/>
	</g>
</g>
<g>
	<path style="fill:#FFC49C;" d="M19.472,14.5c-0.231-2.083-1.89-3.741-3.972-3.973V1.509C22.548,1.767,28.233,7.452,28.491,14.5   H19.472z"/>
	<g>
		<path style="fill:#A16A4A;" d="M16,2.038C22.373,2.525,27.475,7.627,27.962,14H19.9c-0.399-1.956-1.943-3.501-3.9-3.9V2.038 M15,1    v10c2.209,0,4,1.791,4,4h10C29,7.268,22.732,1,15,1L15,1z"/>
	</g>
</g>
</svg>