<?xml version="1.0" encoding="iso-8859-1"?><!-- Generator: Adobe Illustrator 19.2.1, SVG Export Plug-In . SVG Version: 6.00 Build 0)  --><svg xmlns="http://www.w3.org/2000/svg" xmlns:xlink="http://www.w3.org/1999/xlink" version="1.1" id="Layer_1" x="0px" y="0px" viewBox="0 0 80 80" style="enable-background:new 0 0 80 80;" xml:space="preserve" width="80" height="80">
<g>
	<path style="fill:#BAE0BD;" d="M40,77.5C19.322,77.5,2.5,60.678,2.5,40S19.322,2.5,40,2.5S77.5,19.322,77.5,40S60.678,77.5,40,77.5   z M40,28.643c-6.262,0-11.357,5.095-11.357,11.357S33.738,51.357,40,51.357S51.357,46.263,51.357,40S46.262,28.643,40,28.643z"/>
	<path style="fill:#5E9C76;" d="M40,3c20.402,0,37,16.598,37,37S60.402,77,40,77S3,60.402,3,40S19.598,3,40,3 M40,51.857   c6.538,0,11.857-5.319,11.857-11.857S46.538,28.143,40,28.143S28.143,33.462,28.143,40S33.462,51.857,40,51.857 M40,2   C19.013,2,2,19.013,2,40s17.013,38,38,38s38-17.013,38-38S60.987,2,40,2L40,2z M40,50.857c-5.996,0-10.857-4.861-10.857-10.857   c0-5.996,4.861-10.857,10.857-10.857S50.857,34.004,50.857,40C50.857,45.996,45.996,50.857,40,50.857L40,50.857z"/>
</g>
<g>
	<path style="fill:#BAE0BD;" d="M40,77.5C19.322,77.5,2.5,60.678,2.5,40S19.322,2.5,40,2.5S77.5,19.322,77.5,40S60.678,77.5,40,77.5   z M40,29.5c-5.79,0-10.5,4.71-10.5,10.5S34.21,50.5,40,50.5S50.5,45.79,50.5,40S45.79,29.5,40,29.5z"/>
	<path style="fill:#5E9C76;" d="M40,3c20.402,0,37,16.598,37,37S60.402,77,40,77S3,60.402,3,40S19.598,3,40,3 M40,51   c6.065,0,11-4.935,11-11s-4.935-11-11-11s-11,4.935-11,11S33.935,51,40,51 M40,2C19.013,2,2,19.013,2,40s17.013,38,38,38   s38-17.013,38-38S60.987,2,40,2L40,2z M40,50c-5.523,0-10-4.477-10-10c0-5.523,4.477-10,10-10s10,4.477,10,10   C50,45.523,45.523,50,40,50L40,50z"/>
</g>
<g>
	<path style="fill:#8BB7F0;" d="M47.77,47.063c1.764-1.937,2.73-4.426,2.73-7.063c0-1.264-0.233-2.51-0.695-3.714l26.704-4.746   c0.05,0.181,0.099,0.362,0.139,0.548l0.131,0.617c0.211,1.072,0.377,2.157,0.492,3.225l0.054,0.604   C77.443,37.821,77.5,38.955,77.5,40c0,1.28-0.065,2.57-0.194,3.834c-0.85,8.37-4.551,16.279-10.438,22.326L47.77,47.063z"/>
	<g>
		<path style="fill:#4E7AB5;" d="M76.14,32.113c0.006,0.026,0.012,0.052,0.018,0.079l0.039,0.18    c0.031,0.143,0.062,0.286,0.091,0.429c0.208,1.056,0.372,2.127,0.486,3.183c0.013,0.122,0.024,0.245,0.034,0.369l0.02,0.227    C76.943,37.848,77,38.967,77,40c0,1.263-0.064,2.536-0.191,3.784c-0.822,8.091-4.344,15.744-9.949,21.662L48.454,47.04    C50.102,45.067,51,42.602,51,40c0-1.127-0.177-2.241-0.528-3.324L76.14,32.113 M76.875,30.967l-27.771,4.936    C49.668,37.156,50,38.536,50,40c0,2.761-1.119,5.261-2.929,7.071L66.87,66.87c6.017-6.017,10.026-14.043,10.934-22.985    C77.934,42.608,78,41.312,78,40c0-1.186-0.071-2.354-0.177-3.512c-0.019-0.204-0.033-0.409-0.055-0.611    c-0.119-1.105-0.287-2.195-0.499-3.269c-0.041-0.209-0.088-0.417-0.133-0.625C77.062,31.639,76.958,31.307,76.875,30.967    L76.875,30.967z"/>
	</g>
</g>
<g>
	<path style="fill:#FFC49C;" d="M50.488,39.5c-0.254-5.393-4.595-9.734-9.988-9.988V2.503C60.782,2.77,77.231,19.218,77.497,39.5   H50.488z"/>
	<g>
		<path style="fill:#A16A4A;" d="M41,3.013C60.608,3.537,76.463,19.392,76.987,39H50.955c-0.477-5.27-4.685-9.478-9.955-9.955V3.013     M40,2v28c5.523,0,10,4.477,10,10h28C78,19.013,60.987,2,40,2L40,2z"/>
	</g>
</g>
</svg>