<?xml version="1.0" encoding="iso-8859-1"?><!-- Generator: Adobe Illustrator 19.2.1, SVG Export Plug-In . SVG Version: 6.00 Build 0)  --><svg xmlns="http://www.w3.org/2000/svg" xmlns:xlink="http://www.w3.org/1999/xlink" version="1.1" id="Layer_1" x="0px" y="0px" viewBox="0 0 30 30" style="enable-background:new 0 0 30 30;" xml:space="preserve" width="30" height="30">
<g>
	<polygon style="fill:#8BB7F0;" points="8.207,15.5 13.5,15.5 13.5,1.5 16.5,1.5 16.5,15.5 21.793,15.5 15,22.293  "/>
	<g>
		<path style="fill:#4E7AB5;" d="M16,2v13v1h1h3.586L15,21.586L9.414,16H13h1v-1V2H16 M17,1h-4v14H7l8,8l8-8h-6V1L17,1z"/>
	</g>
</g>
<g>
	<rect x="1.5" y="25.5" style="fill:#8BB7F0;" width="27" height="3"/>
	<path style="fill:#4E7AB5;" d="M28,26v2H2v-2H28 M29,25H1v4h28V25L29,25z"/>
</g>
</svg>