<?xml version="1.0" encoding="iso-8859-1"?><!-- Generator: Adobe Illustrator 19.2.1, SVG Export Plug-In . SVG Version: 6.00 Build 0)  --><svg xmlns="http://www.w3.org/2000/svg" xmlns:xlink="http://www.w3.org/1999/xlink" version="1.1" id="Layer_1" x="0px" y="0px" viewBox="0 0 80 80" style="enable-background:new 0 0 80 80;" xml:space="preserve" width="80" height="80">
<g>
	<polygon style="fill:#8BB7F0;" points="19.278,40.5 34.5,40.5 34.5,2.5 45.5,2.5 45.5,40.5 60.722,40.5 40,61.292  "/>
	<g>
		<path style="fill:#4E7AB5;" d="M45,3v37v1h1h13.517L40,60.583L20.483,41H34h1v-1V3H45 M46,2H34v38H18.074L40,62l21.926-22H46V2    L46,2z"/>
	</g>
</g>
<g>
	<rect x="2.5" y="68.5" style="fill:#8BB7F0;" width="75" height="9"/>
	<path style="fill:#4E7AB5;" d="M77,69v8H3v-8H77 M78,68H2v10h76V68L78,68z"/>
</g>
</svg>