<?xml version="1.0" encoding="iso-8859-1"?><!-- Generator: Adobe Illustrator 19.2.1, SVG Export Plug-In . SVG Version: 6.00 Build 0)  --><svg xmlns="http://www.w3.org/2000/svg" xmlns:xlink="http://www.w3.org/1999/xlink" version="1.1" id="Layer_1" x="0px" y="0px" viewBox="0 0 40 40" style="enable-background:new 0 0 40 40;" xml:space="preserve" width="40" height="40">
<g>
	<polygon style="fill:#8BB7F0;" points="10.241,20.5 17.5,20.5 17.5,1.5 22.5,1.5 22.5,20.5 29.759,20.5 20,30.292  "/>
	<g>
		<path style="fill:#4E7AB5;" d="M22,2v18v1h1h5.554L20,29.583L11.446,21H17h1v-1V2H22 M23,1h-6v19H9.037L20,31l10.963-11H23V1L23,1    z"/>
	</g>
</g>
<g>
	<rect x="1.5" y="34.5" style="fill:#8BB7F0;" width="37" height="4"/>
	<path style="fill:#4E7AB5;" d="M38,35v3H2v-3H38 M39,34H1v5h38V34L39,34z"/>
</g>
</svg>