<?xml version="1.0" encoding="iso-8859-1"?><!-- Generator: Adobe Illustrator 19.2.1, SVG Export Plug-In . SVG Version: 6.00 Build 0)  --><svg xmlns="http://www.w3.org/2000/svg" xmlns:xlink="http://www.w3.org/1999/xlink" version="1.1" id="Layer_1" x="0px" y="0px" viewBox="0 0 16 16" style="enable-background:new 0 0 16 16;" xml:space="preserve" width="16" height="16">
<g>
	<circle style="fill:#FFB5D2;" cx="7.5" cy="7.5" r="7"/>
	<g>
		<path style="fill:#EA4C89;" d="M7.5,1C11.084,1,14,3.916,14,7.5S11.084,14,7.5,14S1,11.084,1,7.5S3.916,1,7.5,1 M7.5,0    C3.358,0,0,3.358,0,7.5S3.358,15,7.5,15S15,11.642,15,7.5S11.642,0,7.5,0L7.5,0z"/>
	</g>
</g>
<path style="fill:none;stroke:#EA4C89;stroke-miterlimit:10;" d="M10.797,14.177c0,0-1.197-8.324-6.17-13.536"/>
<path style="fill:none;stroke:#EA4C89;stroke-miterlimit:10;" d="M0.106,6.651c0,0,9.552,0.836,12.661-4.382"/>
<path style="fill:none;stroke:#EA4C89;stroke-miterlimit:10;" d="M2.686,13.086c0,0,3.404-7.819,12.26-4.813"/>
</svg>