<?xml version="1.0" encoding="iso-8859-1"?><!-- Generator: Adobe Illustrator 19.2.1, SVG Export Plug-In . SVG Version: 6.00 Build 0)  --><svg xmlns="http://www.w3.org/2000/svg" xmlns:xlink="http://www.w3.org/1999/xlink" version="1.1" id="Layer_1" x="0px" y="0px" viewBox="0 0 80 80" style="enable-background:new 0 0 80 80;" xml:space="preserve" width="80" height="80">
<g>
	<path style="fill:#FFB5D2;" d="M40,77.5C19.322,77.5,2.5,60.678,2.5,40S19.322,2.5,40,2.5S77.5,19.322,77.5,40S60.678,77.5,40,77.5   z"/>
	<g>
		<path style="fill:#EA4C89;" d="M40,3c20.402,0,37,16.598,37,37S60.402,77,40,77S3,60.402,3,40S19.598,3,40,3 M40,2    C19.013,2,2,19.013,2,40s17.013,38,38,38s38-17.013,38-38S60.987,2,40,2L40,2z"/>
	</g>
</g>
<path style="fill:none;stroke:#EA4C89;stroke-miterlimit:10;" d="M56.705,73.828c0,0-6.063-42.174-31.26-68.584"/>
<path style="fill:none;stroke:#EA4C89;stroke-miterlimit:10;" d="M2.538,35.696c0,0,48.399,4.234,64.151-22.204"/>
<path style="fill:none;stroke:#EA4C89;stroke-miterlimit:10;" d="M15.608,68.304c0,0,17.247-39.614,62.116-24.388"/>
</svg>