<?xml version="1.0" encoding="iso-8859-1"?><!-- Generator: Adobe Illustrator 19.2.1, SVG Export Plug-In . SVG Version: 6.00 Build 0)  --><svg xmlns="http://www.w3.org/2000/svg" xmlns:xlink="http://www.w3.org/1999/xlink" version="1.1" id="Layer_1" x="0px" y="0px" viewBox="0 0 16 16" style="enable-background:new 0 0 16 16;" xml:space="preserve" width="16" height="16">
<g>
	<path style="fill:#C2E8FF;" d="M0.521,14.5c0.286-3.361,3.429-3.982,3.569-4.008L7.998,10.5c-0.022,0.004,1.575,0.336,2.609,1.665   L8.82,14.5H0.521z"/>
	<g>
		<path style="fill:#7496C4;" d="M7.889,11c0.28,0.07,1.289,0.369,2.074,1.184L8.574,14H1.097c0.471-2.295,2.519-2.89,3.005-3H7.889     M8,10H4c0,0-4,0.717-4,5h9.068l2.161-2.824C10.066,10.378,8,10,8,10L8,10z"/>
	</g>
</g>
<g>
	<path style="fill:#E8D47B;" d="M6,11.5c-1.02,0-1.519-0.523-1.682-0.74V8.682h3.363v2.079C7.521,10.974,7.022,11.5,6,11.5z"/>
	<path style="fill:#BA9B48;" d="M7.182,9.182v1.397C7.013,10.745,6.648,11,6,11c-0.648,0-1.012-0.255-1.182-0.422V9.182H7.182    M8.182,8.182H3.818v2.727C3.818,10.909,4.4,12,6,12s2.182-1.091,2.182-1.091V8.182L8.182,8.182z"/>
</g>
<g>
	<g>
		<path style="fill:#FFEEA3;" d="M6,9.5c-0.24,0-0.402-0.145-0.477-0.231l-0.096-0.11L5.289,9.118    C4.381,8.846,3.713,8.104,3.546,7.181L3.48,6.823L3.12,6.774C2.909,6.746,2.6,6.37,2.518,5.928L2.5,5.831V4.09L3.091,2.5h5.691    L9.5,4.106v1.76L9.482,5.928C9.4,6.37,9.091,6.746,8.88,6.774L8.52,6.823L8.454,7.181C8.287,8.104,7.619,8.846,6.711,9.118    L6.572,9.159l-0.096,0.11C6.402,9.355,6.24,9.5,6,9.5z"/>
	</g>
	<g>
		<path style="fill:#BA9B48;" d="M8.458,3L9,4.213v1.574L8.991,5.836c-0.038,0.206-0.163,0.39-0.233,0.45l-0.667,0.09L7.962,7.092    C7.829,7.829,7.295,8.421,6.568,8.639L6.289,8.722l-0.191,0.22C6.065,8.981,6.032,9,6,9S5.935,8.981,5.902,8.942l-0.191-0.22    L5.432,8.639c-0.727-0.217-1.261-0.81-1.394-1.546L3.909,6.376l-0.667-0.09c-0.07-0.06-0.194-0.244-0.233-0.45L3,5.799V4.18    L3.438,3H8.458 M9.106,2H2.743L2,4v2l0.026,0.019C2.13,6.578,2.546,7.202,3.054,7.27c0.202,1.117,1.021,2.007,2.092,2.327    C5.355,9.839,5.655,10,6,10s0.645-0.161,0.854-0.403c1.071-0.32,1.89-1.21,2.092-2.327C9.454,7.202,9.87,6.578,9.974,6.019L10,6V4    L9.106,2L9.106,2z"/>
	</g>
</g>
<g>
	<path style="fill:#FFC49C;" d="M9.468,5.5C9.223,4.175,7.646,3.339,7.453,3.242L7.115,3.07L6.857,3.351   C6.848,3.362,5.785,4.5,4.187,4.5c-1.147,0-1.523,0.55-1.64,1H2.5V3.452C2.5,2.025,3.42,0.5,6,0.5c1.06,0,1.56,0.74,1.58,0.771   l0.148,0.225L8,1.5c0.737,0,1.5,0.632,1.5,1.689V5.5H9.468z"/>
	<g>
		<path style="fill:#A16A4A;" d="M6,1c0.761,0,1.126,0.495,1.155,0.535L7.449,2H8c0.492,0,1,0.445,1,1.189v0.562    C8.429,3.19,7.803,2.858,7.679,2.796L7.003,2.462L6.49,3.012C6.481,3.022,5.553,4,4.187,4C3.701,4,3.31,4.088,3,4.237V3.452    C3,2.877,3.216,1,6,1 M6,0C3.15,0,2,1.766,2,3.452C2,4.668,2,6,2,6h1V5.886C3,5.423,3.245,5,4.187,5    c1.855,0,3.04-1.312,3.04-1.312S9,4.585,9,5.848c0,0.201,0,0.259,0,0.259V6h1c0,0,0-0.82,0-2.811C10,1.872,9.032,1,8,1    C8,1,7.367,0,6,0L6,0z"/>
	</g>
</g>
<g>
	<polygon style="fill:#F5CE85;" points="8.451,13.355 9.088,12.717 10.369,13.833 9.653,14.549 7.812,15.188  "/>
	<path style="fill:#967A44;" d="M9.112,13.401l0.525,0.457l-0.256,0.256l-0.756,0.263l0.261-0.749L9.112,13.401 M9.065,12.034   l-1.049,1.049L7,15.999l2.925-1.015l1.176-1.176L9.065,12.034L9.065,12.034z"/>
</g>
<g>
	<polygon style="fill:#36404D;" points="7.485,14.608 7.001,16 8.395,15.515  "/>
</g>
<g>
	<path style="fill:#FFEEA3;" d="M10.078,14.301c-0.087-0.093-0.222-0.193-0.424-0.247c-0.111-0.374-0.406-0.588-0.696-0.682   c-0.052-0.181-0.149-0.323-0.271-0.429l4.633-4.638l1.375,1.375L10.078,14.301z"/>
	<g>
		<path style="fill:#BA9B48;" d="M13.32,8.835l0.845,0.845l-4.122,4.126c-0.033-0.018-0.068-0.035-0.105-0.051    c-0.147-0.309-0.399-0.535-0.687-0.67c-0.018-0.04-0.039-0.079-0.061-0.116L13.32,8.835 M13.319,7.774l-5.303,5.308    c0,0,0.003,0,0.007,0c0.069,0,0.602,0.019,0.602,0.607c0,0,0.7,0.022,0.7,0.698c0.696,0,0.6,0.596,0.6,0.596l5.299-5.304    L13.319,7.774L13.319,7.774z"/>
	</g>
</g>
<g>
	<path style="fill:#F78F8F;" d="M13.154,8.646l0.899-0.899c0.16-0.16,0.373-0.248,0.6-0.248c0.226,0,0.438,0.088,0.599,0.248   c0.16,0.16,0.248,0.373,0.248,0.599c0,0.226-0.088,0.439-0.248,0.599l-0.899,0.899L13.154,8.646z"/>
	<g>
		<path style="fill:#C74343;" d="M14.653,7.999c0.054,0,0.157,0.013,0.245,0.102c0.135,0.135,0.135,0.356,0,0.491l-0.546,0.546    l-0.491-0.491l0.546-0.546C14.496,8.012,14.599,7.999,14.653,7.999 M14.653,6.999c-0.345,0-0.69,0.132-0.953,0.395l-1.253,1.253    l1.905,1.905l1.253-1.253c0.526-0.526,0.526-1.379,0-1.905C15.342,7.131,14.998,6.999,14.653,6.999L14.653,6.999z"/>
	</g>
</g>
</svg>