<?xml version="1.0" encoding="iso-8859-1"?><!-- Generator: Adobe Illustrator 19.2.1, SVG Export Plug-In . SVG Version: 6.00 Build 0)  --><svg xmlns="http://www.w3.org/2000/svg" xmlns:xlink="http://www.w3.org/1999/xlink" version="1.1" x="0px" y="0px" viewBox="0 0 16 16" style="enable-background:new 0 0 16 16;" xml:space="preserve" width="16" height="16">
<g id="Layer_1">
	<g>
		<g>
			<path style="fill:#4E7AB5;" d="M9.793,10.076H9.744c-0.474,1.546-1.407,2.319-2.797,2.319c-0.89,0-1.606-0.328-2.149-0.984     c-0.542-0.656-0.814-1.54-0.814-2.65c0-1.468,0.375-2.688,1.125-3.659c0.75-0.971,1.736-1.457,2.957-1.457     c0.468,0,0.885,0.12,1.252,0.361c0.367,0.24,0.603,0.543,0.706,0.906h0.039c0.013-0.182,0.045-0.555,0.097-1.121h1.218     c-0.306,3.58-0.458,5.402-0.458,5.467c0,1.345,0.386,2.017,1.16,2.017c0.702,0,1.285-0.38,1.749-1.14     c0.464-0.76,0.697-1.744,0.697-2.952c0-1.786-0.565-3.245-1.695-4.375s-2.696-1.695-4.697-1.695     c-1.929,0-3.524,0.676-4.784,2.027c-1.26,1.351-1.89,3.04-1.89,5.067c0,1.994,0.599,3.604,1.798,4.828s2.815,1.837,4.848,1.837     c1.604,0,2.975-0.267,4.112-0.799v1.208C11.095,15.76,9.692,16,8.01,16c-2.364,0-4.269-0.713-5.715-2.139     s-2.168-3.292-2.168-5.598c0-2.378,0.759-4.349,2.275-5.915C3.919,0.783,5.856,0,8.214,0c2.208,0,4.038,0.656,5.486,1.968     c1.448,1.312,2.173,3.024,2.173,5.135c0,1.546-0.381,2.815-1.145,3.805c-0.764,0.991-1.694,1.486-2.792,1.486     C10.514,12.395,9.799,11.622,9.793,10.076z M8.049,4.775c-0.805,0-1.457,0.384-1.954,1.15C5.598,6.691,5.35,7.643,5.35,8.78     c0,0.767,0.167,1.371,0.502,1.812c0.335,0.442,0.781,0.663,1.34,0.663c0.805,0,1.444-0.401,1.915-1.203     C9.577,9.249,9.812,8.185,9.812,6.86C9.812,5.47,9.224,4.775,8.049,4.775z"/>
		</g>
	</g>
</g>
<g id="Layer_2">
</g>
</svg>