<?xml version="1.0" encoding="iso-8859-1"?><!-- Generator: Adobe Illustrator 19.2.1, SVG Export Plug-In . SVG Version: 6.00 Build 0)  --><svg xmlns="http://www.w3.org/2000/svg" xmlns:xlink="http://www.w3.org/1999/xlink" version="1.1" id="Layer_1" x="0px" y="0px" viewBox="0 0 40 40" style="enable-background:new 0 0 40 40;" xml:space="preserve" width="40" height="40">
<g>
	<g>
		<path style="fill:#C2E8FF;" d="M20.022,38.5c-5.515,0-10.027-1.667-13.414-4.954C3.219,30.256,1.5,25.898,1.5,20.592    c0-5.459,1.799-10.055,5.346-13.659C10.395,3.328,14.985,1.5,20.49,1.5c5.152,0,9.484,1.533,12.875,4.556    c3.407,3.038,5.135,7.051,5.135,11.927c0,3.578-0.916,6.562-2.724,8.87c-1.837,2.346-4.117,3.536-6.776,3.536    c-2.882,0-4.656-1.327-5.213-3.863c-1.28,2.565-3.356,3.863-6.193,3.863c-2.18,0-3.962-0.805-5.295-2.394    c-1.312-1.562-1.977-3.676-1.977-6.285c0-3.402,0.901-6.275,2.679-8.541C14.81,10.867,17.217,9.7,20.156,9.7    c1.161,0,2.215,0.3,3.133,0.891c0.421,0.271,0.775,0.577,1.063,0.916c0.028-0.303,0.06-0.645,0.095-1.024    c0.024-0.257,0.24-0.453,0.498-0.453h2.785c0.14,0,0.273,0.059,0.368,0.162c0.095,0.103,0.142,0.242,0.13,0.381    c-0.955,11.005-1.041,12.171-1.045,12.267c0,4.028,1.618,4.028,2.15,4.028c1.433,0,2.602-0.762,3.574-2.329    c1.007-1.622,1.518-3.769,1.518-6.379c0-3.862-1.254-7.054-3.727-9.487C28.225,6.235,24.729,5,20.312,5    c-4.246,0-7.804,1.482-10.574,4.404c-2.777,2.93-4.186,6.65-4.186,11.057c0,4.33,1.334,7.866,3.965,10.511    c2.631,2.644,6.24,3.985,10.729,3.985c3.578,0,6.671-0.589,9.192-1.751c0.066-0.031,0.138-0.046,0.209-0.046    c0.094,0,0.188,0.026,0.27,0.079c0.144,0.092,0.23,0.25,0.23,0.421v2.718c0,0.201-0.121,0.383-0.306,0.461    C27.22,37.941,23.917,38.5,20.022,38.5z M20.111,13.243c-1.677,0-3.001,0.772-4.05,2.362c-1.075,1.634-1.621,3.703-1.621,6.148    c0,1.605,0.352,2.875,1.044,3.773c0.671,0.872,1.544,1.296,2.667,1.296c1.667,0,2.959-0.806,3.947-2.464    c1.025-1.717,1.545-4.047,1.545-6.924C23.644,14.575,22.521,13.243,20.111,13.243z"/>
		<path style="fill:#4E7AB5;" d="M20.49,2c5.049,0,9.231,1.477,12.542,4.429C36.344,9.382,38,13.233,38,17.983    c0,3.479-0.872,6.333-2.618,8.562c-1.746,2.229-3.873,3.343-6.382,3.343c-3.253,0-4.887-1.739-4.901-5.218h-0.111    c-1.084,3.479-3.216,5.218-6.394,5.218c-2.035,0-3.673-0.738-4.912-2.214c-1.24-1.476-1.86-3.464-1.86-5.963    c0-3.303,0.858-6.047,2.573-8.233c1.715-2.185,3.969-3.278,6.761-3.278c1.069,0,2.024,0.271,2.863,0.811    c0.839,0.541,1.378,1.221,1.615,2.039h0.089c0.03-0.409,0.103-1.25,0.223-2.521h2.785c-0.699,8.054-1.047,12.154-1.047,12.3    c0,3.026,0.883,4.538,2.651,4.538c1.604,0,2.937-0.855,3.999-2.565c1.061-1.71,1.593-3.924,1.593-6.643    c0-4.019-1.292-7.301-3.876-9.844s-6.163-3.815-10.738-3.815c-4.411,0-8.056,1.521-10.938,4.56C6.492,12.1,5.052,15.9,5.052,20.46    c0,4.487,1.37,8.109,4.11,10.864c2.74,2.755,6.435,4.133,11.083,4.133c3.668,0,6.802-0.6,9.401-1.798v2.719    C27.076,37.459,23.868,38,20.022,38c-5.405,0-9.761-1.604-13.066-4.812S2,25.781,2,20.592c0-5.35,1.734-9.785,5.202-13.308    C10.669,3.762,15.099,2,20.49,2 M18.151,27.323c1.841,0,3.3-0.902,4.377-2.708c1.077-1.805,1.615-4.199,1.615-7.18    c0-3.127-1.345-4.692-4.032-4.692c-1.841,0-3.33,0.863-4.467,2.587c-1.136,1.725-1.704,3.867-1.704,6.424    c0,1.725,0.382,3.084,1.147,4.078C15.853,26.826,16.873,27.323,18.151,27.323 M27.73,10.529h0.005 M20.49,1    C14.846,1,10.136,2.878,6.489,6.582C2.847,10.283,1,14.996,1,20.592c0,5.446,1.77,9.925,5.26,13.313    C9.743,37.286,14.373,39,20.022,39c3.961,0,7.33-0.572,10.012-1.701c0.371-0.156,0.612-0.519,0.612-0.922v-2.719    c0-0.341-0.174-0.658-0.461-0.842c-0.163-0.105-0.351-0.158-0.539-0.158c-0.142,0-0.285,0.03-0.419,0.092    c-2.455,1.132-5.477,1.706-8.982,1.706c-4.35,0-7.841-1.291-10.374-3.838c-2.534-2.548-3.819-5.965-3.819-10.158    c0-4.275,1.362-7.879,4.048-10.713c2.71-2.859,6.05-4.248,10.212-4.248c4.281,0,7.658,1.187,10.036,3.528    c2.407,2.369,3.578,5.356,3.578,9.131c0,2.516-0.485,4.574-1.442,6.116c-0.874,1.408-1.904,2.092-3.149,2.092    c-0.408,0-1.651,0-1.651-3.538c0.008-0.144,0.154-1.962,1.037-12.142c0.008-0.051,0.012-0.104,0.012-0.158    c0-0.552-0.445-1-0.997-1H27.73h-2.785c-0.516,0-0.947,0.393-0.996,0.907c0,0.003-0.001,0.005-0.001,0.008    c-0.123-0.094-0.253-0.185-0.388-0.273c-1-0.644-2.146-0.971-3.405-0.971c-3.101,0-5.641,1.231-7.548,3.66    c-1.849,2.356-2.786,5.333-2.786,8.85c0,2.729,0.705,4.952,2.094,6.607c1.432,1.706,3.342,2.571,5.678,2.571    c1.938,0,4.353-0.612,6.056-3.14c0.854,2.046,2.682,3.14,5.35,3.14c2.821,0,5.233-1.254,7.17-3.727    c1.878-2.398,2.83-5.486,2.83-9.178c0-5.025-1.784-9.163-5.302-12.301C30.212,2.575,25.769,1,20.49,1L20.49,1z M18.151,26.323    c-0.971,0-1.693-0.35-2.271-1.101c-0.624-0.81-0.94-1.976-0.94-3.468c0-2.347,0.518-4.323,1.539-5.874    c0.948-1.438,2.135-2.137,3.631-2.137c1.499,0,3.032,0.439,3.032,3.692c0,2.786-0.496,5.029-1.474,6.668    C20.778,25.597,19.627,26.323,18.151,26.323L18.151,26.323z"/>
	</g>
</g>
</svg>