<?xml version="1.0" encoding="iso-8859-1"?><!-- Generator: Adobe Illustrator 19.2.1, SVG Export Plug-In . SVG Version: 6.00 Build 0)  --><svg xmlns="http://www.w3.org/2000/svg" xmlns:xlink="http://www.w3.org/1999/xlink" version="1.1" id="Layer_1" x="0px" y="0px" viewBox="0 0 80 80" style="enable-background:new 0 0 80 80;" xml:space="preserve" width="80" height="80">
<g>
	<g>
		<path style="fill:#C2E8FF;" d="M40,77.5c-11.165,0-20.623-3.508-27.352-10.144C5.915,60.714,2.5,51.847,2.5,41    c0-11.516,3.223-20.206,10.141-27.348C19.811,6.252,29.016,2.5,40,2.5c10.636,0,19.742,3.157,26.336,9.129    C73.64,18.248,77.5,26.675,77.5,36c0,6.404-1.939,11.902-6.104,17.305C67.718,58.079,63.21,60.5,58,60.5    c-6.433,0-9.778-2.712-10.395-8.496C45.289,57.861,41.335,60.5,35,60.5c-4.794,0-7.997-1.29-10.386-4.182    C22.038,53.201,20.5,48.222,20.5,43c0-7.199,1.67-12.86,5.104-17.306C29.242,20.988,34.22,18.5,40,18.5    c2.557,0,4.822,1.132,6.273,2.082c1.327,0.87,2.049,2.302,2.53,3.671c0.235-1.153,0.553-2.72,0.698-4.298    C49.526,19.697,49.741,19.5,50,19.5h5c0.14,0,0.273,0.059,0.368,0.162c0.095,0.104,0.142,0.241,0.13,0.381    c-1.389,16.273-1.991,25.518-1.998,25.96c0,6.035,1.304,8.498,4.5,8.498c3.023,0,6.469-2.315,8.573-5.761    C68.612,45.4,70.5,41.545,70.5,36c0-7.263-2.896-13.689-8.854-19.646C56.436,11.142,49.152,8.5,40,8.5    c-9.132,0-16.007,2.809-21.635,8.841C12.565,23.559,9.5,31.74,9.5,41c0,9.295,2.497,16.175,7.857,21.65    C22.944,68.357,30.985,71.5,40,71.5c6.867,0,13.188-1.33,18.788-3.953C58.855,67.516,58.928,67.5,59,67.5    c0.094,0,0.187,0.026,0.269,0.078C59.413,67.67,59.5,67.829,59.5,68v6c0,0.2-0.119,0.381-0.304,0.46    C54.213,76.591,48.472,77.5,40,77.5z M40,25.5c-3.742,0-6.469,1.517-8.58,4.772C28.745,34.397,27.5,38.441,27.5,43    c0,3.595,1.497,6.85,2.898,8.698C31.867,53.636,33.595,54.5,36,54.5c3.396,0,6.359-1.989,8.568-5.753    C46.65,45.202,47.5,41.219,47.5,35C47.5,28.607,45.047,25.5,40,25.5z"/>
		<path style="fill:#4E7AB5;" d="M40,3c10.24,0,19.284,2.916,26,9c6.716,6.085,11,14.211,11,24c0,7.17-2.46,12.407-6,17    c-3.54,4.594-7.91,7-13,7c-6.597,0-9.971-2.83-10-10h-0.226C45.576,57.17,41.445,60,35,60c-4.128,0-7.486-0.957-10-4    c-2.514-3.042-4-7.849-4-13c0-6.807,1.521-12.496,5-17c3.479-4.502,8.336-7,14-7c2.169,0,4.299,0.887,6,2    c1.701,1.115,2.338,3.314,2.819,5H49c0.061-0.842,0.758-3.379,1-6h5c-1.417,16.598-2,25.7-2,26c0,6.235,1.414,9,5,9    c3.253,0,6.847-2.476,9-6s4-7.397,4-13c0-8.283-3.759-14.759-9-20S49.279,8,40,8c-8.946,0-16.155,2.736-22,9    c-5.845,6.266-9,14.602-9,24c0,9.248,2.442,16.323,8,22s13.573,9,23,9c7.439,0,13.73-1.531,19-4v6c-5.212,2.229-11.199,3-19,3    c-10.963,0-20.297-3.389-27-10S3,51.694,3,41c0-11.025,2.968-19.74,10-27C20.032,6.742,29.066,3,40,3 M36,55    c3.734,0,6.815-2.279,9-6c2.185-3.72,3-7.855,3-14c0-6.445-2.549-10-8-10c-3.734,0-6.696,1.447-9,5c-2.304,3.555-4,7.73-4,13    c0,3.555,1.448,6.952,3,9C31.552,54.049,33.408,55,36,55 M55,20h0.005 M40,2C28.875,2,19.549,5.803,12.282,13.304    C5.267,20.546,2,29.346,2,41c0,10.985,3.465,19.973,10.298,26.712C19.122,74.442,28.701,78,40,78    c8.543,0,14.343-0.921,19.393-3.081C59.761,74.762,60,74.4,60,74v-6c0-0.342-0.175-0.66-0.463-0.844    C59.374,67.053,59.187,67,59,67c-0.144,0-0.289,0.031-0.424,0.094C53.044,69.686,46.794,71,40,71c-8.879,0-16.793-3.09-22.285-8.7    C12.451,56.924,10,50.156,10,41c0-9.131,3.019-17.194,8.731-23.318C24.258,11.759,31.016,9,40,9    c9.015,0,16.179,2.593,21.293,7.707C67.152,22.566,70,28.877,70,36c0,5.121-1.54,8.692-3.853,12.479    C64.129,51.781,60.856,54,58,54c-1.935,0-4-0.618-4-8c0.014-0.525,0.616-9.739,1.99-25.844c0.008-0.051,0.012-0.103,0.012-0.156    c0-0.552-0.445-1-0.997-1H55h-5c-0.517,0-0.948,0.394-0.996,0.908c-0.084,0.912-0.228,1.824-0.379,2.653    c-0.482-0.922-1.136-1.78-2.077-2.397C45.04,19.176,42.68,18,40,18c-5.941,0-11.056,2.555-14.791,7.389    C21.704,29.926,20,35.687,20,43c0,5.415,1.542,10.385,4.229,13.637C26.722,59.654,30.044,61,35,61    c5.902,0,9.909-2.333,12.383-7.282C48.489,58.609,51.991,61,58,61c5.373,0,10.013-2.486,13.792-7.39    C76.027,48.116,78,42.521,78,36c0-9.471-3.917-18.026-11.329-24.741C59.984,5.202,50.762,2,40,2L40,2z M36,54    c-2.264,0-3.82-0.779-5.203-2.604C29.445,49.612,28,46.47,28,43c0-4.457,1.22-8.415,3.839-12.456C33.849,27.444,36.443,26,40,26    c4.71,0,7,2.944,7,9c0,6.123-0.829,10.033-2.862,13.493C42.663,51.006,40.054,54,36,54L36,54z"/>
	</g>
</g>
</svg>