<?xml version="1.0" encoding="iso-8859-1"?><!-- Generator: Adobe Illustrator 19.2.1, SVG Export Plug-In . SVG Version: 6.00 Build 0)  --><svg xmlns="http://www.w3.org/2000/svg" xmlns:xlink="http://www.w3.org/1999/xlink" version="1.1" id="Layer_1" x="0px" y="0px" viewBox="0 0 30 30" style="enable-background:new 0 0 30 30;" xml:space="preserve" width="30" height="30">
<g>
	<g>
		<path style="fill:#C2E8FF;" d="M15.016,28.918c-4.021,0-7.313-1.237-9.787-3.676c-2.474-2.44-3.729-5.67-3.729-9.599    C1.5,11.603,2.812,8.2,5.397,5.53c2.591-2.674,5.94-4.03,9.956-4.03c3.758,0,6.919,1.137,9.395,3.379    c2.489,2.256,3.752,5.233,3.752,8.85c0,2.655-0.671,4.871-1.995,6.588c-1.354,1.757-3.038,2.648-5.005,2.648    c-1.485,0-3.204-0.492-3.813-2.578c-0.958,1.712-2.44,2.578-4.425,2.578c-1.619,0-2.942-0.608-3.934-1.807    c-0.968-1.17-1.458-2.75-1.458-4.695c0-2.526,0.66-4.662,1.963-6.347c1.333-1.725,3.109-2.6,5.278-2.6    c0.867,0,1.655,0.228,2.341,0.677c0.217,0.142,0.41,0.296,0.58,0.462c0.013-0.139,0.026-0.288,0.041-0.444    c0.024-0.257,0.24-0.454,0.498-0.454h2.011c0.14,0,0.273,0.059,0.368,0.162c0.095,0.104,0.142,0.241,0.13,0.381    c-0.687,8.044-0.751,8.919-0.754,8.996c0,2.818,1.064,2.818,1.414,2.818c0.981,0,1.786-0.537,2.461-1.643    c0.715-1.171,1.077-2.723,1.077-4.615c0-2.799-0.893-5.11-2.652-6.871c-1.76-1.761-4.25-2.653-7.401-2.653    c-3.026,0-5.562,1.073-7.535,3.188c-1.981,2.125-2.986,4.825-2.986,8.025c0,3.143,0.951,5.708,2.826,7.623    c1.872,1.913,4.444,2.882,7.646,2.882c2.562,0,4.776-0.428,6.578-1.271c0.067-0.032,0.14-0.047,0.212-0.047    c0.094,0,0.187,0.026,0.269,0.078c0.145,0.092,0.231,0.251,0.231,0.422v1.995c0,0.2-0.119,0.381-0.304,0.459    C20.253,28.504,17.849,28.918,15.016,28.918z M15.08,10.384c-1.159,0-2.077,0.546-2.806,1.67c-0.764,1.177-1.15,2.672-1.15,4.442    c0,1.149,0.244,2.055,0.727,2.69c0.457,0.604,1.05,0.896,1.814,0.896c1.149,0,2.042-0.569,2.73-1.741    c0.728-1.238,1.097-2.926,1.097-5.016C17.492,10.689,16.115,10.384,15.08,10.384z"/>
		<path style="fill:#4E7AB5;" d="M15.354,2C19,2,22.021,3.084,24.412,5.25C26.804,7.417,28,10.243,28,13.729    c0,2.553-0.63,4.647-1.89,6.283c-1.261,1.636-2.797,2.454-4.61,2.454c-2.349,0-3.529-1.276-3.54-3.829h-0.08    c-0.783,2.553-2.323,3.829-4.618,3.829c-1.47,0-2.652-0.541-3.548-1.625c-0.895-1.083-1.343-2.542-1.343-4.376    c0-2.424,0.619-4.438,1.858-6.041c1.239-1.603,2.866-2.405,4.883-2.405c0.772,0,1.462,0.199,2.067,0.595    c0.606,0.397,0.995,0.896,1.166,1.496h0.064c0.022-0.3,0.075-0.917,0.161-1.85h2.011c-0.505,5.91-0.756,8.919-0.756,9.026    c0,2.22,0.638,3.33,1.915,3.33c1.158,0,2.121-0.627,2.888-1.882c0.767-1.255,1.15-2.88,1.15-4.875    c0-2.949-0.933-5.358-2.799-7.224s-4.451-2.8-7.755-2.8c-3.186,0-5.819,1.116-7.9,3.347c-2.081,2.231-3.121,5.02-3.121,8.366    c0,3.293,0.99,5.951,2.968,7.972c1.979,2.021,4.647,3.033,8.004,3.033c2.649,0,4.913-0.44,6.79-1.319v1.995    c-1.856,0.794-4.173,1.191-6.951,1.191c-3.904,0-7.049-1.177-9.436-3.532C3.193,22.533,2,19.452,2,15.644    c0-3.926,1.253-7.181,3.757-9.766C8.261,3.293,11.46,2,15.354,2 M13.665,20.583c1.33,0,2.383-0.662,3.161-1.987    c0.778-1.324,1.166-3.081,1.166-5.269c0-2.295-0.971-3.443-2.912-3.443c-1.33,0-2.405,0.633-3.226,1.899    c-0.821,1.266-1.231,2.837-1.231,4.714c0,1.266,0.276,2.263,0.829,2.993C12.005,20.219,12.742,20.583,13.665,20.583 M20.583,8.259    h0.005 M15.354,1C11.198,1,7.727,2.407,5.039,5.182C2.359,7.948,1,11.468,1,15.644c0,4.068,1.305,7.417,3.878,9.955    c2.57,2.534,5.981,3.82,10.138,3.82c2.9,0,5.371-0.428,7.344-1.271c0.368-0.157,0.607-0.519,0.607-0.919v-1.995    c0-0.342-0.175-0.66-0.463-0.844c-0.163-0.104-0.349-0.156-0.537-0.156c-0.144,0-0.289,0.031-0.424,0.094    c-1.735,0.813-3.877,1.225-6.365,1.225c-3.105,0-5.49-0.894-7.29-2.732c-1.805-1.844-2.683-4.223-2.683-7.273    c0-3.113,0.933-5.626,2.853-7.684c1.901-2.038,4.246-3.029,7.168-3.029c3.056,0,5.361,0.82,7.048,2.507    c1.687,1.687,2.507,3.818,2.507,6.517c0,1.799-0.338,3.263-1.004,4.354c-0.769,1.258-1.529,1.404-2.035,1.404    c-0.607,0-0.915-0.784-0.915-2.33c0.007-0.105,0.113-1.452,0.746-8.87c0.008-0.051,0.012-0.103,0.012-0.156    c0-0.552-0.445-1-0.997-1h-0.005h-2.011c-0.369,0-0.694,0.2-0.867,0.502c-0.764-0.493-1.635-0.743-2.592-0.743    c-2.333,0-4.242,0.94-5.674,2.794c-1.372,1.776-2.067,4.014-2.067,6.653c0,2.064,0.529,3.751,1.573,5.013    c1.09,1.319,2.543,1.988,4.318,1.988c1.37,0,3.054-0.406,4.32-2.023c0.721,1.321,2.052,2.023,3.918,2.023    c2.13,0,3.948-0.957,5.402-2.843C28.294,18.816,29,16.497,29,13.729c0-3.763-1.318-6.865-3.916-9.22    C22.513,2.181,19.24,1,15.354,1L15.354,1z M13.665,19.583c-0.613,0-1.05-0.215-1.415-0.698c-0.415-0.548-0.626-1.351-0.626-2.389    c0-1.672,0.36-3.075,1.07-4.17c0.638-0.984,1.397-1.442,2.387-1.442c0.993,0,1.912,0.296,1.912,2.443    c0,1.998-0.346,3.601-1.029,4.763C15.366,19.108,14.635,19.583,13.665,19.583L13.665,19.583z"/>
	</g>
</g>
</svg>