<?xml version="1.0" encoding="iso-8859-1"?><!-- Generator: Adobe Illustrator 19.2.1, SVG Export Plug-In . SVG Version: 6.00 Build 0)  --><svg xmlns="http://www.w3.org/2000/svg" xmlns:xlink="http://www.w3.org/1999/xlink" version="1.1" id="Layer_1" x="0px" y="0px" viewBox="0 0 80 80" style="enable-background:new 0 0 80 80;" xml:space="preserve" width="80" height="80">
<g>
	<path style="fill:#F2FAFF;" d="M28.682,77.5c-1.407,0-2.73-0.548-3.727-1.543L4.044,55.045C3.048,54.049,2.5,52.726,2.5,51.318   s0.548-2.731,1.544-3.727L47.592,4.043C48.587,3.048,49.91,2.5,51.318,2.5c1.407,0,2.73,0.548,3.727,1.543l20.911,20.912   c0.996,0.995,1.544,2.318,1.544,3.726s-0.548,2.731-1.544,3.727L32.408,75.957C31.413,76.952,30.09,77.5,28.682,77.5z"/>
	<g>
		<path style="fill:#788B9C;" d="M51.318,3c1.274,0,2.472,0.496,3.373,1.397l20.912,20.912C76.504,26.21,77,27.408,77,28.682    s-0.496,2.472-1.397,3.373L32.055,75.603C31.154,76.504,29.956,77,28.682,77s-2.472-0.496-3.373-1.397L4.397,54.691    C3.496,53.79,3,52.592,3,51.318s0.496-2.472,1.397-3.373L47.945,4.397C48.846,3.496,50.044,3,51.318,3 M51.318,2    c-1.477,0-2.953,0.563-4.08,1.69L3.69,47.238c-2.253,2.253-2.253,5.907,0,8.16L24.602,76.31c1.127,1.127,2.603,1.69,4.08,1.69    c1.477,0,2.953-0.563,4.08-1.69L76.31,32.762c2.253-2.253,2.253-5.907,0-8.16L55.398,3.69C54.272,2.563,52.795,2,51.318,2    L51.318,2z"/>
	</g>
</g>
<g>
	<path style="fill:#B0C1D4;" d="M25.364,26.271L47.592,4.043C48.587,3.048,49.91,2.5,51.318,2.5c1.407,0,2.73,0.548,3.727,1.543   l20.911,20.912c0.996,0.995,1.544,2.318,1.544,3.726s-0.548,2.731-1.544,3.727L53.729,54.636L25.364,26.271z"/>
	<g>
		<path style="fill:#66798F;" d="M51.318,3c1.274,0,2.472,0.496,3.373,1.397l20.912,20.912C76.504,26.21,77,27.408,77,28.682    s-0.496,2.472-1.397,3.373L53.729,53.929L26.071,26.271L47.945,4.397C48.846,3.496,50.044,3,51.318,3 M51.318,2    c-1.477,0-2.953,0.563-4.08,1.69L24.657,26.271l29.072,29.072L76.31,32.762c2.253-2.253,2.253-5.907,0-8.16L55.398,3.69    C54.272,2.563,52.795,2,51.318,2L51.318,2z"/>
	</g>
</g>
<path style="fill:#CAD5E3;" d="M46.321,6.021l1.461-1.461c1.953-1.953,5.118-1.953,7.071,0L75.44,25.146  c1.953,1.953,1.953,5.118,0,7.071l-1.461,1.461L46.321,6.021z"/>
</svg>