<?xml version="1.0" encoding="iso-8859-1"?><!-- Generator: Adobe Illustrator 19.2.1, SVG Export Plug-In . SVG Version: 6.00 Build 0)  --><svg xmlns="http://www.w3.org/2000/svg" xmlns:xlink="http://www.w3.org/1999/xlink" version="1.1" id="Layer_1" x="0px" y="0px" viewBox="0 0 30 30" style="enable-background:new 0 0 30 30;" xml:space="preserve" width="30" height="30">
<g>
	<path style="fill:#F2FAFF;" d="M10.83,28.5c-0.435,0-0.843-0.169-1.149-0.476l-7.704-7.705C1.669,20.012,1.5,19.604,1.5,19.17   s0.169-0.842,0.477-1.15L18.021,1.976C18.327,1.669,18.735,1.5,19.17,1.5s0.843,0.169,1.149,0.476l7.704,7.705   c0.308,0.307,0.477,0.715,0.477,1.149s-0.169,0.842-0.477,1.15L11.979,28.024C11.673,28.331,11.265,28.5,10.83,28.5z"/>
	<g>
		<path style="fill:#788B9C;" d="M19.17,2c0.301,0,0.583,0.117,0.796,0.33l7.704,7.704c0.439,0.439,0.439,1.153,0,1.592    L11.626,27.67C11.414,27.883,11.131,28,10.83,28s-0.583-0.117-0.796-0.33L2.33,19.966c-0.439-0.439-0.439-1.153,0-1.592    L18.374,2.33C18.586,2.117,18.869,2,19.17,2 M19.17,1c-0.544,0-1.088,0.208-1.503,0.623L1.623,17.667    c-0.83,0.83-0.83,2.176,0,3.006l7.704,7.704C9.742,28.792,10.286,29,10.83,29s1.088-0.208,1.503-0.623l16.044-16.044    c0.83-0.83,0.83-2.176,0-3.006l-7.704-7.704C20.258,1.208,19.714,1,19.17,1L19.17,1z"/>
	</g>
</g>
<g>
	<path style="fill:#B0C1D4;" d="M10.055,9.942l7.966-7.966C18.327,1.669,18.735,1.5,19.17,1.5s0.843,0.169,1.149,0.476l7.704,7.705   c0.308,0.307,0.477,0.715,0.477,1.149s-0.169,0.842-0.477,1.15l-7.966,7.966L10.055,9.942z"/>
	<g>
		<path style="fill:#66798F;" d="M19.17,2c0.301,0,0.583,0.117,0.796,0.33l7.704,7.704c0.439,0.439,0.439,1.153,0,1.592    l-7.612,7.612l-9.296-9.296l7.612-7.612C18.586,2.117,18.869,2,19.17,2 M19.17,1c-0.544,0-1.088,0.208-1.503,0.623L9.347,9.942    l10.711,10.711l8.319-8.319c0.83-0.83,0.83-2.176,0-3.006l-7.704-7.704C20.258,1.208,19.714,1,19.17,1L19.17,1z"/>
	</g>
</g>
<path style="fill:#CAD5E3;" d="M17.084,3.619l1.379-1.379c0.391-0.391,1.024-0.391,1.414,0l7.882,7.882  c0.391,0.391,0.391,1.024,0,1.414l-1.379,1.379L17.084,3.619z"/>
</svg>