<?xml version="1.0" encoding="iso-8859-1"?><!-- Generator: Adobe Illustrator 19.2.1, SVG Export Plug-In . SVG Version: 6.00 Build 0)  --><svg xmlns="http://www.w3.org/2000/svg" xmlns:xlink="http://www.w3.org/1999/xlink" version="1.1" id="Layer_1" x="0px" y="0px" viewBox="0 0 16 16" style="enable-background:new 0 0 16 16;" xml:space="preserve" width="16" height="16">
<g>
	<path style="fill:#F2FAFF;" d="M5.516,15.5c-0.423,0-0.82-0.165-1.12-0.464l-3.432-3.431c-0.617-0.618-0.617-1.624,0-2.241   l8.399-8.399c0.3-0.299,0.697-0.464,1.121-0.464c0.423,0,0.82,0.165,1.12,0.464l3.432,3.431c0.617,0.618,0.617,1.624,0,2.241   l-8.399,8.399C6.337,15.335,5.939,15.5,5.516,15.5z"/>
	<g>
		<path style="fill:#788B9C;" d="M10.484,1c0.29,0,0.562,0.113,0.767,0.318l3.431,3.431c0.423,0.423,0.423,1.111,0,1.534    l-8.399,8.399C6.078,14.887,5.806,15,5.516,15s-0.562-0.113-0.767-0.318l-3.431-3.431c-0.423-0.423-0.423-1.111,0-1.534    l8.399-8.399C9.922,1.113,10.194,1,10.484,1 M10.484,0C9.95,0,9.417,0.204,9.01,0.611L0.611,9.01    c-0.814,0.814-0.814,2.134,0,2.948l3.431,3.431C4.449,15.797,4.983,16,5.516,16c0.533,0,1.067-0.204,1.474-0.611l8.399-8.399    c0.814-0.814,0.814-2.134,0-2.948l-3.431-3.431C11.551,0.204,11.017,0,10.484,0L10.484,0z"/>
	</g>
</g>
<g>
	<path style="fill:#B0C1D4;" d="M5.34,4.987l4.023-4.023c0.3-0.299,0.697-0.464,1.121-0.464c0.423,0,0.82,0.165,1.12,0.464   l3.432,3.431c0.617,0.618,0.617,1.624,0,2.241l-4.023,4.023L5.34,4.987z"/>
	<g>
		<path style="fill:#66798F;" d="M10.484,1c0.29,0,0.562,0.113,0.767,0.318l3.431,3.431c0.423,0.423,0.423,1.111,0,1.534l-3.67,3.67    L6.047,4.987l3.669-3.669C9.922,1.113,10.194,1,10.484,1 M10.484,0C9.95,0,9.417,0.204,9.01,0.611L4.633,4.987l6.38,6.38    l4.377-4.377c0.814-0.814,0.814-2.134,0-2.948l-3.431-3.431C11.551,0.204,11.017,0,10.484,0L10.484,0z"/>
	</g>
</g>
<path style="fill:#CAD5E3;" d="M14.683,6.283l-0.431,0.431L9.287,1.748l0.431-0.431C9.922,1.113,10.195,1,10.484,1  s0.562,0.113,0.767,0.318l3.431,3.431C15.106,5.172,15.106,5.86,14.683,6.283z"/>
</svg>