<?xml version="1.0" encoding="iso-8859-1"?><!-- Generator: Adobe Illustrator 19.2.1, SVG Export Plug-In . SVG Version: 6.00 Build 0)  --><svg xmlns="http://www.w3.org/2000/svg" xmlns:xlink="http://www.w3.org/1999/xlink" version="1.1" x="0px" y="0px" viewBox="0 0 16 16" style="enable-background:new 0 0 16 16;" xml:space="preserve" width="16" height="16">
<g id="Layer_1">
	<g>
		<path style="fill:#FFEEA3;" d="M0.93,14.5c-0.223,0-0.334-0.15-0.371-0.214s-0.112-0.235,0-0.429l7.07-12.246    C7.741,1.418,7.926,1.397,8,1.397s0.259,0.021,0.371,0.214l7.07,12.246c0.112,0.193,0.037,0.364,0,0.429S15.293,14.5,15.07,14.5    H0.93z"/>
		<path style="fill:#BA9B48;" d="M8,1.968L14.946,14H1.054L8,1.968 M8,0.897c-0.313,0-0.626,0.155-0.804,0.464l-7.07,12.245    C-0.232,14.226,0.215,15,0.93,15h14.14c0.715,0,1.162-0.774,0.804-1.393L8.804,1.362C8.626,1.052,8.313,0.897,8,0.897L8,0.897z"/>
	</g>
	<circle style="fill:#36404D;" cx="8" cy="12" r="1"/>
	<rect x="7" y="5" style="fill:#36404D;" width="2" height="5"/>
</g>
<g id="Layer_2">
</g>
</svg>