<?xml version="1.0" encoding="iso-8859-1"?><!-- Generator: Adobe Illustrator 19.2.1, SVG Export Plug-In . SVG Version: 6.00 Build 0)  --><svg xmlns="http://www.w3.org/2000/svg" xmlns:xlink="http://www.w3.org/1999/xlink" version="1.1" id="Layer_1" x="0px" y="0px" viewBox="0 0 30 30" style="enable-background:new 0 0 30 30;" xml:space="preserve" width="30" height="30">
<g>
	<path style="fill:#FFEEA3;" d="M2.628,25.5c-0.407,0-0.771-0.21-0.975-0.562c-0.204-0.353-0.204-0.773,0-1.125L14.025,2.383   C14.229,2.031,14.593,1.82,15,1.82s0.771,0.21,0.975,0.562l12.372,21.429c0.204,0.353,0.204,0.773,0,1.125   c-0.203,0.352-0.568,0.562-0.975,0.562H2.628z"/>
	<path style="fill:#BA9B48;" d="M15,2.32c0.109,0,0.379,0.03,0.542,0.313l12.372,21.429c0.163,0.282,0.054,0.531,0,0.625   C27.86,24.781,27.698,25,27.372,25H2.628c-0.326,0-0.487-0.219-0.542-0.313c-0.054-0.094-0.163-0.343,0-0.625L14.458,2.633   C14.621,2.35,14.891,2.32,15,2.32 M15,1.32c-0.547,0-1.095,0.271-1.408,0.813L1.22,23.562C0.595,24.646,1.377,26,2.628,26h24.745   c1.251,0,2.033-1.354,1.408-2.438L16.408,2.133C16.095,1.591,15.547,1.32,15,1.32L15,1.32z"/>
</g>
<circle style="fill:#36404D;" cx="15" cy="21" r="1.25"/>
<rect x="14" y="9" style="fill:#36404D;" width="2" height="9"/>
</svg>