<?xml version="1.0" encoding="iso-8859-1"?><!-- Generator: Adobe Illustrator 19.2.1, SVG Export Plug-In . SVG Version: 6.00 Build 0)  --><svg xmlns="http://www.w3.org/2000/svg" xmlns:xlink="http://www.w3.org/1999/xlink" version="1.1" id="Layer_1" x="0px" y="0px" viewBox="0 0 30 30" style="enable-background:new 0 0 30 30;" xml:space="preserve" width="30" height="30">
<g>
	<rect x="6.5" y="1.5" style="fill:#C2E8FF;" width="19" height="27"/>
	<g>
		<path style="fill:#7496C4;" d="M25,2v26H7V2H25 M26,1H6v28h20V1L26,1z"/>
	</g>
</g>
<polygon style="fill:#C2E8FF;" points="23,6.171 23,23.829 26,20.829 26,9.171 "/>
<g>
	<polygon style="fill:#8BB7F0;" points="21.5,16.5 9.5,16.5 9.5,13.5 21.5,13.5 21.5,8.207 28.293,15 21.5,21.793  "/>
	<g>
		<path style="fill:#4E7AB5;" d="M22,9.414L27.586,15L22,20.586V17v-1h-1H10v-2h11h1v-1V9.414 M21,7v6H9v4h12v6l8-8L21,7L21,7z"/>
	</g>
</g>
</svg>