<?xml version="1.0" encoding="iso-8859-1"?><!-- Generator: Adobe Illustrator 19.2.1, SVG Export Plug-In . SVG Version: 6.00 Build 0)  --><svg xmlns="http://www.w3.org/2000/svg" xmlns:xlink="http://www.w3.org/1999/xlink" version="1.1" id="Layer_1" x="0px" y="0px" viewBox="0 0 40 40" style="enable-background:new 0 0 40 40;" xml:space="preserve" width="40" height="40">
<g>
	<rect x="6.5" y="1.5" style="fill:#C2E8FF;" width="27" height="37"/>
	<g>
		<path style="fill:#7496C4;" d="M33,2v36H7V2H33 M34,1H6v38h28V1L34,1z"/>
	</g>
</g>
<polygon style="fill:#C2E8FF;" points="29.8,8.018 29.8,31.982 34,27.91 34,12.09 "/>
<g>
	<polygon style="fill:#8BB7F0;" points="26.5,22.5 10.5,22.5 10.5,17.5 26.5,17.5 26.5,10.241 36.292,20 26.5,29.759  "/>
	<g>
		<path style="fill:#4E7AB5;" d="M27,11.445L35.583,20L27,28.554V23v-1h-1H11v-4h15h1v-1V11.445 M26,9.037V17H10v6h16v7.963L37,20    L26,9.037L26,9.037z"/>
	</g>
</g>
</svg>