<?xml version="1.0" encoding="iso-8859-1"?><!-- Generator: Adobe Illustrator 19.2.1, SVG Export Plug-In . SVG Version: 6.00 Build 0)  --><svg xmlns="http://www.w3.org/2000/svg" xmlns:xlink="http://www.w3.org/1999/xlink" version="1.1" id="Layer_1" x="0px" y="0px" viewBox="0 0 80 80" style="enable-background:new 0 0 80 80;" xml:space="preserve" width="80" height="80">
<g>
	<rect x="9.5" y="2.5" style="fill:#C2E8FF;" width="55" height="75"/>
	<g>
		<path style="fill:#7496C4;" d="M64,3v74H10V3H64 M65,2H9v76h56V2L65,2z"/>
	</g>
</g>
<polygon style="fill:#C2E8FF;" points="57,16 57,64 65,56 65,24 "/>
<g>
	<polygon style="fill:#8BB7F0;" points="49.5,45.5 17.5,45.5 17.5,34.5 49.5,34.5 49.5,19.278 70.292,40 49.5,60.722  "/>
	<g>
		<path style="fill:#4E7AB5;" d="M50,20.483L69.583,40L50,59.517V46v-1h-1H18V35h31h1v-1V20.483 M49,18.074V34H17v12h32v15.926    L71,40L49,18.074L49,18.074z"/>
	</g>
</g>
</svg>