<?xml version="1.0" encoding="iso-8859-1"?><!-- Generator: Adobe Illustrator 19.2.1, SVG Export Plug-In . SVG Version: 6.00 Build 0)  --><svg xmlns="http://www.w3.org/2000/svg" xmlns:xlink="http://www.w3.org/1999/xlink" version="1.1" x="0px" y="0px" viewBox="0 0 16 16" style="enable-background:new 0 0 16 16;" xml:space="preserve" width="16" height="16">
<g id="Layer_1">
	<g>
		<path style="fill:#B6C9D6;" d="M1.448,15.5c-0.253,0-0.491-0.099-0.67-0.278S0.5,14.805,0.5,14.552    c0-0.253,0.099-0.491,0.277-0.67L8.28,6.858l0.865,0.866l-7.039,7.509C1.939,15.401,1.701,15.5,1.448,15.5z"/>
		<path style="fill:#788B9C;" d="M8.269,7.554L8.45,7.736l-6.685,7.133C1.65,14.983,1.517,15,1.448,15    c-0.069,0-0.203-0.017-0.317-0.131c-0.175-0.175-0.175-0.459-0.024-0.61L8.269,7.554 M8.292,6.163l-7.868,7.366    c-0.565,0.565-0.565,1.482,0,2.048l0,0C0.707,15.859,1.077,16,1.448,16c0.371,0,0.741-0.141,1.024-0.424l7.369-7.862L8.292,6.163    L8.292,6.163z"/>
	</g>
	<g>
		<circle style="fill:#D1EDFF;" cx="10.286" cy="5.714" r="5.214"/>
		<g>
			<path style="fill:#4E7AB5;" d="M10.286,1C12.885,1,15,3.115,15,5.714s-2.115,4.714-4.714,4.714S5.571,8.314,5.571,5.714     S7.686,1,10.286,1 M10.286,0C7.13,0,4.571,2.558,4.571,5.714s2.558,5.714,5.714,5.714S16,8.87,16,5.714S13.442,0,10.286,0     L10.286,0z"/>
		</g>
	</g>
	<g>
		<path style="fill:#D1EDFF;" d="M15.986,6h-3.152v3.165h1.999C15.508,8.277,15.927,7.187,15.986,6z"/>
		<path style="fill:#D1EDFF;" d="M4.571,5.714c0,0.096,0.01,0.19,0.014,0.286h4.128V2.714H5.429    C4.889,3.587,4.571,4.612,4.571,5.714z"/>
	</g>
	<g>
		<polygon style="fill:#8BB7F0;" points="12.778,8.5 14.5,8.5 14.5,10.222   "/>
		<path style="fill:#4E7AB5;" d="M14,9v0.014L13.986,9H14 M15,8h-3.429L15,11.429V8L15,8z"/>
	</g>
	<g>
		<polygon style="fill:#8BB7F0;" points="5.5,3.5 5.5,1.778 7.222,3.5   "/>
		<path style="fill:#4E7AB5;" d="M6,2.986L6.014,3H6V2.986 M5,0.571V4h3.429L5,0.571L5,0.571z"/>
	</g>
</g>
<g id="Layer_2">
</g>
</svg>