<?xml version="1.0" encoding="iso-8859-1"?><!-- Generator: Adobe Illustrator 19.2.1, SVG Export Plug-In . SVG Version: 6.00 Build 0)  --><svg xmlns="http://www.w3.org/2000/svg" xmlns:xlink="http://www.w3.org/1999/xlink" version="1.1" id="Layer_1" x="0px" y="0px" viewBox="0 0 40 40" style="enable-background:new 0 0 40 40;" xml:space="preserve" width="40" height="40">
<g>
	<path style="fill:#B6C9D6;" d="M3.621,38.5c-0.566,0-1.099-0.221-1.5-0.621c-0.827-0.827-0.827-2.172,0-2.999l19.138-18.245   l2.113,2.115L5.112,37.888C4.72,38.279,4.187,38.5,3.621,38.5z"/>
	<path style="fill:#788B9C;" d="M21.251,17.334l1.423,1.425L4.766,37.525C4.46,37.831,4.053,38,3.62,38   c-0.433,0-0.84-0.169-1.146-0.475c-0.632-0.632-0.632-1.66-0.017-2.275L21.251,17.334 M21.268,15.936L1.767,34.527   c-1.023,1.023-1.023,2.683,0,3.706C2.279,38.744,2.95,39,3.62,39c0.671,0,1.341-0.256,1.853-0.768l18.598-19.49L21.268,15.936   L21.268,15.936z"/>
</g>
<g>
	<path style="fill:#D1EDFF;" d="M25.5,27.5c-7.168,0-13-5.832-13-13s5.832-13,13-13s13,5.832,13,13S32.668,27.5,25.5,27.5z"/>
	<g>
		<path style="fill:#4E7AB5;" d="M25.5,2C32.393,2,38,7.607,38,14.5S32.393,27,25.5,27S13,21.393,13,14.5S18.607,2,25.5,2 M25.5,1    C18.044,1,12,7.044,12,14.5S18.044,28,25.5,28S39,21.956,39,14.5S32.956,1,25.5,1L25.5,1z"/>
	</g>
</g>
<g>
	<path style="fill:#D1EDFF;" d="M12.785,10h10.287V4.571h-6.696C14.77,6.047,13.527,7.902,12.785,10z"/>
	<path style="fill:#D1EDFF;" d="M31.48,20v5.143h2.305c1.733-1.352,3.127-3.112,4.035-5.143H31.48z"/>
</g>
<g>
	<polygon style="fill:#8BB7F0;" points="14.5,7.5 14.5,1.207 20.793,7.5  "/>
	<path style="fill:#4E7AB5;" d="M15,2.414L19.586,7H15V2.414 M14,0v8h8L14,0L14,0z"/>
</g>
<g>
	<polygon style="fill:#8BB7F0;" points="29.207,22.5 35.5,22.5 35.5,28.793  "/>
	<path style="fill:#4E7AB5;" d="M35,23v4.586L30.414,23H35 M36,22h-8l8,8V22L36,22z"/>
</g>
</svg>