<?xml version="1.0" encoding="iso-8859-1"?><!-- Generator: Adobe Illustrator 19.2.1, SVG Export Plug-In . SVG Version: 6.00 Build 0)  --><svg xmlns="http://www.w3.org/2000/svg" xmlns:xlink="http://www.w3.org/1999/xlink" version="1.1" id="Layer_1" x="0px" y="0px" viewBox="0 0 30 30" style="enable-background:new 0 0 30 30;" xml:space="preserve" width="30" height="30">
<g>
	<path style="fill:#B6C9D6;" d="M2.931,28.5c-0.382,0-0.742-0.149-1.012-0.419c-0.558-0.558-0.558-1.466,0-2.024l14.007-13.353   l1.375,1.377L3.935,28.089C3.673,28.351,3.313,28.5,2.931,28.5z"/>
	<path style="fill:#788B9C;" d="M15.917,13.403l0.685,0.686L3.589,27.727C3.413,27.903,3.18,28,2.931,28s-0.482-0.097-0.658-0.273   c-0.363-0.363-0.363-0.953-0.017-1.3L15.917,13.403 M15.934,12.005L1.565,25.704c-0.754,0.754-0.754,1.977,0,2.731   C1.943,28.811,2.437,29,2.931,29c0.494,0,0.988-0.189,1.365-0.566L18,14.073L15.934,12.005L15.934,12.005z"/>
</g>
<g>
	<path style="fill:#D1EDFF;" d="M19,20.5c-5.238,0-9.5-4.262-9.5-9.5s4.262-9.5,9.5-9.5s9.5,4.262,9.5,9.5S24.238,20.5,19,20.5z"/>
	<g>
		<path style="fill:#4E7AB5;" d="M19,2c4.963,0,9,4.037,9,9s-4.037,9-9,9s-9-4.037-9-9S14.037,2,19,2 M19,1C13.477,1,9,5.477,9,11    s4.477,10,10,10s10-4.477,10-10S24.523,1,19,1L19,1z"/>
	</g>
</g>
<path style="fill:#D1EDFF;" d="M28.541,14H23v3.789h3.327C27.322,16.716,28.091,15.431,28.541,14z"/>
<g>
	<polygon style="fill:#8BB7F0;" points="22.207,16.5 26.5,16.5 26.5,20.793  "/>
	<path style="fill:#4E7AB5;" d="M26,17v2.586L23.414,17H26 M27,16h-6l6,6V16L27,16z"/>
</g>
<path style="fill:#D1EDFF;" d="M11.015,5c-0.879,1.162-1.514,2.518-1.814,4H18V5H11.015z"/>
<g>
	<polygon style="fill:#8BB7F0;" points="10.5,6.5 10.5,2.207 14.793,6.5  "/>
	<path style="fill:#4E7AB5;" d="M11,3.414L13.586,6H11V3.414 M10,1v6h6L10,1L10,1z"/>
</g>
</svg>