<?xml version="1.0" encoding="iso-8859-1"?><!-- Generator: Adobe Illustrator 19.2.1, SVG Export Plug-In . SVG Version: 6.00 Build 0)  --><svg xmlns="http://www.w3.org/2000/svg" xmlns:xlink="http://www.w3.org/1999/xlink" version="1.1" id="Layer_1" x="0px" y="0px" viewBox="0 0 80 80" style="enable-background:new 0 0 80 80;" xml:space="preserve" width="80" height="80">
<g>
	<path style="fill:#B6C9D6;" d="M6.998,77.5c-1.202,0-2.331-0.468-3.181-1.317c-1.753-1.753-1.753-4.607,0-6.36l36.828-35.11   l4.656,4.661L10.17,76.191C9.329,77.032,8.199,77.5,6.998,77.5z"/>
	<path style="fill:#788B9C;" d="M40.636,35.411l3.966,3.97L9.825,75.829C9.069,76.584,8.066,77,6.998,77   c-1.068,0-2.072-0.416-2.827-1.171c-1.559-1.559-1.559-4.095-0.017-5.637L40.636,35.411 M40.654,34.013L3.464,69.469   c-1.952,1.952-1.951,5.116,0,7.068C4.44,77.512,5.719,78,6.998,78c1.279,0,2.558-0.488,3.534-1.464L46,39.366L40.654,34.013   L40.654,34.013z"/>
</g>
<g>
	<path style="fill:#D1EDFF;" d="M51.5,52.5c-13.785,0-25-11.215-25-25s11.215-25,25-25s25,11.215,25,25S65.285,52.5,51.5,52.5z"/>
	<g>
		<path style="fill:#4E7AB5;" d="M51.5,3C65.009,3,76,13.991,76,27.5S65.009,52,51.5,52S27,41.009,27,27.5S37.991,3,51.5,3 M51.5,2    C37.417,2,26,13.417,26,27.5S37.417,53,51.5,53S77,41.583,77,27.5S65.583,2,51.5,2L51.5,2z"/>
	</g>
</g>
<path style="fill:#D1EDFF;" d="M27.457,19H46V9H33.96C31.066,11.746,28.814,15.16,27.457,19z"/>
<path style="fill:#D1EDFF;" d="M60,38v9h7.925c2.893-2.439,5.232-5.51,6.812-9H60z"/>
<g>
	<polygon style="fill:#8BB7F0;" points="30.5,14.5 30.5,1.207 43.793,14.5  "/>
	<path style="fill:#4E7AB5;" d="M31,2.414L42.586,14H31V2.414 M30,0v15h15L30,0L30,0z"/>
</g>
<g>
	<polygon style="fill:#8BB7F0;" points="58.207,42.5 71.5,42.5 71.5,55.793  "/>
	<path style="fill:#4E7AB5;" d="M71,43v11.586L59.414,43H71 M72,42H57l15,15V42L72,42z"/>
</g>
</svg>