<?xml version="1.0" encoding="iso-8859-1"?><!-- Generator: Adobe Illustrator 19.2.1, SVG Export Plug-In . SVG Version: 6.00 Build 0)  --><svg xmlns="http://www.w3.org/2000/svg" xmlns:xlink="http://www.w3.org/1999/xlink" version="1.1" id="Layer_1" x="0px" y="0px" viewBox="0 0 80 80" style="enable-background:new 0 0 80 80;" xml:space="preserve" width="80" height="80">
<g>
	<g>
		<path style="fill:#8BB7F0;" d="M40,77.5C19.322,77.5,2.5,60.678,2.5,40S19.322,2.5,40,2.5S77.5,19.322,77.5,40    S60.678,77.5,40,77.5z M40,9.5C23.183,9.5,9.5,23.182,9.5,40S23.183,70.5,40,70.5S70.5,56.818,70.5,40S56.817,9.5,40,9.5z"/>
	</g>
	<g>
		<path style="fill:#4E7AB5;" d="M40,3c20.402,0,37,16.598,37,37S60.402,77,40,77S3,60.402,3,40S19.598,3,40,3 M40,71    c17.093,0,31-13.907,31-31S57.093,9,40,9S9,22.907,9,40S22.907,71,40,71 M40,2C19.013,2,2,19.013,2,40s17.013,38,38,38    s38-17.013,38-38S60.987,2,40,2L40,2z M40,70c-16.569,0-30-13.432-30-30c0-16.569,13.431-30,30-30s30,13.431,30,30    C70,56.568,56.569,70,40,70L40,70z"/>
	</g>
</g>
<path style="fill:#FFFFFF;" d="M76.626,30c-0.974-3.573-2.451-6.929-4.359-10h-9.951C56.823,13.876,48.874,10,40,10  c-16.569,0-30,13.431-30,30c0,16.568,13.431,30,30,30s30-13.432,30-30c0-3.512-0.635-6.868-1.744-10H76.626z"/>
<polyline style="fill:none;stroke:#66798F;stroke-width:2;stroke-linecap:round;stroke-miterlimit:10;" points="26.011,19.33 40,40   28.308,51.692 "/>
<g>
	<circle style="fill:#66798F;" cx="40" cy="40" r="3"/>
</g>
<g>
	<circle style="fill:#C5D4DE;" cx="40" cy="13" r="1"/>
</g>
<g>
	<circle style="fill:#C5D4DE;" cx="40" cy="67" r="1"/>
</g>
<g>
	<circle style="fill:#C5D4DE;" cx="67" cy="40" r="1"/>
</g>
<g>
	<circle style="fill:#C5D4DE;" cx="13" cy="40" r="1"/>
</g>
<g>
	<polygon style="fill:#8BB7F0;" points="55.207,25.5 72.5,8.207 72.5,25.5  "/>
	<g>
		<path style="fill:#4E7AB5;" d="M72,9.414V25H56.414L72,9.414 M73,7L54,26h19V7L73,7z"/>
	</g>
</g>
<path style="fill:none;stroke:#8BB7F0;stroke-width:6;stroke-miterlimit:10;" d="M60.991,13.252  c1.927,1.514,3.686,3.232,5.245,5.121"/>
</svg>