<?xml version="1.0" encoding="iso-8859-1"?><!-- Generator: Adobe Illustrator 19.2.1, SVG Export Plug-In . SVG Version: 6.00 Build 0)  --><svg xmlns="http://www.w3.org/2000/svg" xmlns:xlink="http://www.w3.org/1999/xlink" version="1.1" id="Layer_1" x="0px" y="0px" viewBox="0 0 30 30" style="enable-background:new 0 0 30 30;" xml:space="preserve" width="30" height="30">
<g>
	<g>
		<path style="fill:#8BB7F0;" d="M15,28.5C7.556,28.5,1.5,22.444,1.5,15S7.556,1.5,15,1.5S28.5,7.556,28.5,15S22.444,28.5,15,28.5z     M15,3.5C8.659,3.5,3.5,8.659,3.5,15S8.659,26.5,15,26.5S26.5,21.341,26.5,15S21.341,3.5,15,3.5z"/>
	</g>
	<g>
		<path style="fill:#4E7AB5;" d="M15,2c7.168,0,13,5.832,13,13s-5.832,13-13,13S2,22.168,2,15S7.832,2,15,2 M15,27    c6.617,0,12-5.383,12-12S21.617,3,15,3S3,8.383,3,15S8.383,27,15,27 M15,1C7.268,1,1,7.268,1,15s6.268,14,14,14s14-6.268,14-14    S22.732,1,15,1L15,1z M15,26C8.925,26,4,21.075,4,15S8.925,4,15,4s11,4.925,11,11S21.075,26,15,26L15,26z"/>
	</g>
</g>
<g>
	<path style="fill:#FFFFFF;" d="M28.413,11c-0.482-1.618-1.247-3.113-2.238-4.428l-2.032,2.313C22.169,5.94,18.812,4,15,4   C8.925,4,4,8.925,4,15s4.925,11,11,11s11-4.925,11-11c0-1.413-0.276-2.759-0.761-4H28.413z"/>
</g>
<polyline style="fill:none;stroke:#66798F;stroke-linecap:round;stroke-miterlimit:10;" points="10,7 15,15 12,20 "/>
<g>
	<circle style="fill:#66798F;" cx="15" cy="15" r="1.5"/>
</g>
<g>
	<circle style="fill:#C5D4DE;" cx="15" cy="6" r="1"/>
</g>
<g>
	<circle style="fill:#C5D4DE;" cx="15" cy="24" r="1"/>
</g>
<g>
	<circle style="fill:#C5D4DE;" cx="24" cy="15" r="1"/>
</g>
<g>
	<circle style="fill:#C5D4DE;" cx="6" cy="15" r="1"/>
</g>
<g>
	<polygon style="fill:#8BB7F0;" points="21.207,8.5 26.5,3.207 26.5,8.5  "/>
	<g>
		<path style="fill:#4E7AB5;" d="M26,4.414V8h-3.586L26,4.414 M27,2l-7,7h7V2L27,2z"/>
	</g>
</g>
<path style="fill:none;stroke:#8BB7F0;stroke-miterlimit:10;" d="M24.846,7.297c-0.641-0.819-1.382-1.555-2.205-2.191"/>
</svg>