<?xml version="1.0" encoding="iso-8859-1"?><!-- Generator: Adobe Illustrator 19.2.1, SVG Export Plug-In . SVG Version: 6.00 Build 0)  --><svg xmlns="http://www.w3.org/2000/svg" xmlns:xlink="http://www.w3.org/1999/xlink" version="1.1" id="Layer_1" x="0px" y="0px" viewBox="0 0 16 16" style="enable-background:new 0 0 16 16;" xml:space="preserve" width="16" height="16">
<g>
	<circle style="fill:#FFFFFF;" cx="7.5" cy="7.5" r="7"/>
	<g>
		<path style="fill:#4E7AB5;" d="M7.5,1C11.084,1,14,3.916,14,7.5S11.084,14,7.5,14S1,11.084,1,7.5S3.916,1,7.5,1 M7.5,0    C3.358,0,0,3.358,0,7.5S3.358,15,7.5,15S15,11.642,15,7.5S11.642,0,7.5,0L7.5,0z"/>
	</g>
</g>
<circle style="fill:#66798F;" cx="7.5" cy="7.5" r="1"/>
<polyline style="fill:none;stroke:#66798F;stroke-miterlimit:10;" points="5.118,10.452 7.5,7.5 5.649,2.508 "/>
<path style="fill:#FFFFFF;" d="M14.131,4H12v3h2.975C14.904,5.922,14.61,4.906,14.131,4z"/>
<polygon style="fill:#4E7AB5;" points="15,5 11,5 15,1 "/>
</svg>