<?xml version="1.0" encoding="iso-8859-1"?><!-- Generator: Adobe Illustrator 19.2.1, SVG Export Plug-In . SVG Version: 6.00 Build 0)  --><svg xmlns="http://www.w3.org/2000/svg" xmlns:xlink="http://www.w3.org/1999/xlink" version="1.1" x="0px" y="0px" viewBox="0 0 16 16" style="enable-background:new 0 0 16 16;" xml:space="preserve" width="16" height="16">
<g id="Layer_1">
	<g>
		<circle style="fill:#FFEEA3;" cx="8" cy="5" r="3.5"/>
		<path style="fill:#BA9B48;" d="M8,2c1.654,0,3,1.346,3,3S9.654,8,8,8S5,6.654,5,5S6.346,2,8,2 M8,1C5.791,1,4,2.791,4,5    s1.791,4,4,4s4-1.791,4-4S10.209,1,8,1L8,1z"/>
	</g>
	<g>
		<path style="fill:#C2E8FF;" d="M1.5,15.5v-0.7c0-3.128,3.924-4.183,4.403-4.3h4.192c0.48,0.119,4.404,1.183,4.404,4.3v0.7H1.5z"/>
		<g>
			<path style="fill:#7496C4;" d="M10.034,11C10.639,11.158,14,12.153,14,14.8V15H2v-0.2c0-2.65,3.366-3.644,3.966-3.8H10.034      M10.154,10H5.846C5.846,10,1,11.043,1,14.8c0,0,0,0.516,0,1.2h14c0-0.684,0-1.2,0-1.2C15,11.043,10.154,10,10.154,10L10.154,10z     "/>
		</g>
	</g>
</g>
<g id="Layer_2">
</g>
</svg>