<?xml version="1.0" encoding="iso-8859-1"?><!-- Generator: Adobe Illustrator 19.2.1, SVG Export Plug-In . SVG Version: 6.00 Build 0)  --><svg xmlns="http://www.w3.org/2000/svg" xmlns:xlink="http://www.w3.org/1999/xlink" version="1.1" id="Layer_1" x="0px" y="0px" viewBox="0 0 30 30" style="enable-background:new 0 0 30 30;" xml:space="preserve" width="30" height="30">
<g>
	<circle style="fill:#FFEEA3;" cx="15" cy="8" r="6.5"/>
	<path style="fill:#BA9B48;" d="M15,2c3.308,0,6,2.692,6,6s-2.692,6-6,6s-6-2.692-6-6S11.692,2,15,2 M15,1c-3.866,0-7,3.134-7,7   s3.134,7,7,7s7-3.134,7-7S18.866,1,15,1L15,1z"/>
</g>
<g>
	<path style="fill:#C2E8FF;" d="M2.5,28.5V27c0-5.285,7.846-7.326,8.559-7.5h7.883c0.713,0.174,8.559,2.215,8.559,7.5v1.5H2.5z"/>
	<g>
		<path style="fill:#7496C4;" d="M18.88,20C19.82,20.237,27,22.205,27,27v1H3v-1c0-4.795,7.18-6.763,8.12-7H18.88 M19,19h-8    c0,0-9,2.019-9,8c0,0,0,0.86,0,2h26c0-1.139,0-2,0-2C28,21.019,19,19,19,19L19,19z"/>
	</g>
</g>
</svg>