<?xml version="1.0" encoding="iso-8859-1"?><!-- Generator: Adobe Illustrator 19.2.1, SVG Export Plug-In . SVG Version: 6.00 Build 0)  --><svg xmlns="http://www.w3.org/2000/svg" xmlns:xlink="http://www.w3.org/1999/xlink" version="1.1" id="Layer_1" x="0px" y="0px" viewBox="0 0 40 40" style="enable-background:new 0 0 40 40;" xml:space="preserve" width="40" height="40">
<g>
	<path style="fill:#FFEEA3;" d="M20,20.5c-5.238,0-9.5-4.262-9.5-9.5s4.262-9.5,9.5-9.5s9.5,4.262,9.5,9.5S25.238,20.5,20,20.5z"/>
	<path style="fill:#BA9B48;" d="M20,2c4.963,0,9,4.037,9,9s-4.037,9-9,9s-9-4.037-9-9S15.037,2,20,2 M20,1c-5.523,0-10,4.477-10,10   c0,5.523,4.477,10,10,10s10-4.477,10-10C30,5.477,25.523,1,20,1L20,1z"/>
</g>
<g>
	<path style="fill:#C2E8FF;" d="M2.5,38.5v-2.299c0-7.608,11.157-10.49,12.021-10.701h10.959C26.343,25.711,37.5,28.592,37.5,36.201   V38.5H2.5z"/>
	<g>
		<path style="fill:#7496C4;" d="M25.419,26C26.572,26.289,37,29.106,37,36.201V38H3v-1.799C3,29.106,13.428,26.289,14.581,26    H25.419 M25.538,25H14.462C14.462,25,2,27.827,2,36.201c0,0,0,1.204,0,2.799h36c0-1.595,0-2.799,0-2.799    C38,27.827,25.538,25,25.538,25L25.538,25z"/>
	</g>
</g>
</svg>