<?xml version="1.0" encoding="iso-8859-1"?><!-- Generator: Adobe Illustrator 19.2.1, SVG Export Plug-In . SVG Version: 6.00 Build 0)  --><svg xmlns="http://www.w3.org/2000/svg" xmlns:xlink="http://www.w3.org/1999/xlink" version="1.1" id="Layer_1" x="0px" y="0px" viewBox="0 0 30 30" style="enable-background:new 0 0 30 30;" xml:space="preserve" width="30" height="30">
<g>
	<rect x="2.5" y="2.5" style="fill:#F78F8F;" width="25" height="25"/>
	<g>
		<path style="fill:#C74343;" d="M27,3v24H3V3H27 M28,2H2v26h26V2L28,2z"/>
	</g>
</g>
<path style="fill:#FFFFFF;" d="M15.36,19.084C14.329,20.355,12.862,21,11.002,21C7.692,21,5,18.308,5,15s2.692-6,6.002-6  c1.348,0,2.645,0.449,3.697,1.274l-1.212,1.212c-0.725-0.513-1.594-0.792-2.485-0.792c-2.376,0-4.307,1.932-4.307,4.306  s1.932,4.306,4.307,4.306c1.87,0,3.368-1.094,3.91-2.856l0.171-0.555H11.43v-1.599l5.27,0.008  C16.877,15.663,16.545,17.623,15.36,19.084z"/>
<rect x="21" y="12" style="fill:#FFFFFF;" width="2" height="6"/>
<rect x="21" y="12" transform="matrix(-1.836970e-16 1 -1 -1.836970e-16 37 -7)" style="fill:#FFFFFF;" width="2" height="6"/>
</svg>