<?xml version="1.0" encoding="iso-8859-1"?><!-- Generator: Adobe Illustrator 19.2.1, SVG Export Plug-In . SVG Version: 6.00 Build 0)  --><svg xmlns="http://www.w3.org/2000/svg" xmlns:xlink="http://www.w3.org/1999/xlink" version="1.1" id="Layer_1" x="0px" y="0px" viewBox="0 0 80 80" style="enable-background:new 0 0 80 80;" xml:space="preserve" width="80" height="80">
<g>
	<rect x="4.5" y="4.5" style="fill:#F78F8F;" width="71" height="71"/>
	<g>
		<path style="fill:#C74343;" d="M75,5v70H5V5H75 M76,4H4v72h72V4L76,4z"/>
	</g>
</g>
<path style="fill:#FFFFFF;" d="M40.998,51.308c-2.856,3.522-6.917,5.307-12.07,5.307c-9.165,0-16.62-7.454-16.62-16.615  s7.455-16.615,16.62-16.615c3.732,0,7.325,1.245,10.239,3.528l-3.356,3.356c-2.007-1.421-4.413-2.194-6.882-2.194  c-6.578,0-11.928,5.35-11.928,11.925s5.35,11.925,11.928,11.925c5.178,0,9.328-3.031,10.827-7.909l0.473-1.536H30.115v-4.427  l14.594,0.022C45.198,41.835,44.28,47.265,40.998,51.308z"/>
<rect x="58" y="30" style="fill:#FFFFFF;" width="4" height="20"/>
<rect x="58" y="30" transform="matrix(-1.836970e-16 1 -1 -1.836970e-16 100 -20)" style="fill:#FFFFFF;" width="4" height="20"/>
</svg>