<?xml version="1.0" encoding="iso-8859-1"?><!-- Generator: Adobe Illustrator 19.2.1, SVG Export Plug-In . SVG Version: 6.00 Build 0)  --><svg xmlns="http://www.w3.org/2000/svg" xmlns:xlink="http://www.w3.org/1999/xlink" version="1.1" id="Layer_1" x="0px" y="0px" viewBox="0 0 16 16" style="enable-background:new 0 0 16 16;" xml:space="preserve" width="16" height="16">
<g>
	<rect x="1.5" y="1.5" style="fill:#F78F8F;" width="13" height="13"/>
	<g>
		<path style="fill:#C74343;" d="M14,2v12H2V2H14 M15,1H1v14h14V1L15,1z"/>
	</g>
</g>
<path style="fill:#FFFFFF;" d="M8.194,10.199c-0.555,0.685-1.345,1.032-2.347,1.032c-1.782,0-3.232-1.449-3.232-3.231  s1.45-3.231,3.232-3.231c0.726,0,1.424,0.242,1.991,0.686L7.185,6.108c-0.39-0.276-0.858-0.427-1.338-0.427  c-1.279,0-2.319,1.04-2.319,2.319s1.04,2.319,2.319,2.319c1.007,0,1.814-0.589,2.105-1.538l0.092-0.299H6.078V7.621l2.838,0.004  C9.011,8.357,8.832,9.413,8.194,10.199z"/>
<rect x="11.231" y="6.385" style="fill:#FFFFFF;" width="1.077" height="3.231"/>
<rect x="11.231" y="6.385" transform="matrix(-1.836970e-16 1 -1 -1.836970e-16 19.7692 -3.7692)" style="fill:#FFFFFF;" width="1.077" height="3.231"/>
</svg>