<?xml version="1.0" encoding="iso-8859-1"?><!-- Generator: Adobe Illustrator 19.2.1, SVG Export Plug-In . SVG Version: 6.00 Build 0)  --><svg xmlns="http://www.w3.org/2000/svg" xmlns:xlink="http://www.w3.org/1999/xlink" version="1.1" id="Layer_1" x="0px" y="0px" viewBox="0 0 30 30" style="enable-background:new 0 0 30 30;" xml:space="preserve" width="30" height="30">
<g>
	<path style="fill:#8BB7F0;" d="M15,28.5C7.556,28.5,1.5,22.444,1.5,15S7.556,1.5,15,1.5S28.5,7.556,28.5,15S22.444,28.5,15,28.5z"/>
	<g>
		<path style="fill:#4E7AB5;" d="M15,2c7.168,0,13,5.832,13,13s-5.832,13-13,13S2,22.168,2,15S7.832,2,15,2 M15,1    C7.268,1,1,7.268,1,15s6.268,14,14,14s14-6.268,14-14S22.732,1,15,1L15,1z"/>
	</g>
</g>
<circle style="fill:#FFFFFF;" cx="15" cy="22" r="1.25"/>
<path style="fill:none;stroke:#FFFFFF;stroke-width:2;stroke-miterlimit:10;" d="M12,12v-1c0-1.657,1.343-3,3-3h0  c1.657,0,3,1.328,3,3c0,3.129-3,3.195-3,6v1"/>
</svg>