<?xml version="1.0" encoding="iso-8859-1"?><!-- Generator: Adobe Illustrator 19.2.1, SVG Export Plug-In . SVG Version: 6.00 Build 0)  --><svg xmlns="http://www.w3.org/2000/svg" xmlns:xlink="http://www.w3.org/1999/xlink" version="1.1" x="0px" y="0px" viewBox="0 0 16 16" style="enable-background:new 0 0 16 16;" xml:space="preserve" width="16" height="16">
<g id="Layer_1">
	<g>
		<circle style="fill:#8BB7F0;" cx="7.5" cy="7.5" r="7"/>
		<g>
			<path style="fill:#4E7AB5;" d="M7.5,1C11.084,1,14,3.916,14,7.5S11.084,14,7.5,14S1,11.084,1,7.5S3.916,1,7.5,1 M7.5,0     C3.358,0,0,3.358,0,7.5S3.358,15,7.5,15S15,11.642,15,7.5S11.642,0,7.5,0L7.5,0z"/>
		</g>
	</g>
	<circle style="fill:#FFFFFF;" cx="7.5" cy="11.5" r="0.67"/>
	<path style="fill:none;stroke:#FFFFFF;stroke-miterlimit:10;" d="M5.5,6V5.5c0-1.105,0.895-2,2-2h0c1.105,0,2,0.885,2,2   c0,2.086-2,2.284-2,3.284V10"/>
</g>
<g id="Layer_2">
</g>
</svg>