<?xml version="1.0" encoding="iso-8859-1"?><!-- Generator: Adobe Illustrator 19.2.1, SVG Export Plug-In . SVG Version: 6.00 Build 0)  --><svg xmlns="http://www.w3.org/2000/svg" xmlns:xlink="http://www.w3.org/1999/xlink" version="1.1" id="Layer_1" x="0px" y="0px" viewBox="0 0 16 16" style="enable-background:new 0 0 16 16;" xml:space="preserve" width="16" height="16">
<g>
	<rect x="0.5" y="11.5" style="fill:#BAE0BD;" width="2" height="3"/>
	<g>
		<path style="fill:#5E9C76;" d="M2,12v2H1v-2H2 M3,11H0v4h3V11L3,11z"/>
	</g>
</g>
<g>
	<rect x="4.5" y="8.5" style="fill:#BAE0BD;" width="2" height="6"/>
	<g>
		<path style="fill:#5E9C76;" d="M6,9v5H5V9H6 M7,8H4v7h3V8L7,8z"/>
	</g>
</g>
<g>
	<rect x="8.5" y="4.5" style="fill:#BAE0BD;" width="2" height="10"/>
	<g>
		<path style="fill:#5E9C76;" d="M10,5v9H9V5H10 M11,4H8v11h3V4L11,4z"/>
	</g>
</g>
<g>
	<rect x="12.5" y="1.5" style="fill:#BAE0BD;" width="2" height="13"/>
	<g>
		<path style="fill:#5E9C76;" d="M14,2v12h-1V2H14 M15,1h-3v14h3V1L15,1z"/>
	</g>
</g>
</svg>