<?xml version="1.0" encoding="iso-8859-1"?><!-- Generator: Adobe Illustrator 19.2.1, SVG Export Plug-In . SVG Version: 6.00 Build 0)  --><svg xmlns="http://www.w3.org/2000/svg" xmlns:xlink="http://www.w3.org/1999/xlink" version="1.1" id="Layer_1" x="0px" y="0px" viewBox="0 0 80 80" style="enable-background:new 0 0 80 80;" xml:space="preserve" width="80" height="80">
<g>
	<polygon style="fill:#DBF2FF;" points="6.5,77.5 6.5,26.286 39.996,6.58 73.5,26.286 73.5,77.5  "/>
	<g>
		<path style="fill:#7496C4;" d="M39.996,7.16L73,26.572V77H7V26.572L39.996,7.16 M39.996,6L6,26v52h68V26L39.996,6L39.996,6z"/>
	</g>
</g>
<rect x="7" y="71" style="fill:#B5DDF5;" width="66" height="6"/>
<g>
	<polygon style="fill:#F78F8F;" points="39.995,9.875 2.5,32.801 2.5,25.511 39.995,2.586 77.5,25.511 77.5,32.801  "/>
	<g>
		<path style="fill:#C74343;" d="M39.995,3.172L77,25.792v6.117L40.517,9.608l-0.522-0.319l-0.522,0.319L3,31.909v-6.117    L39.995,3.172 M39.995,2L2,25.231v8.462l37.995-23.231L78,33.692v-8.462L39.995,2L39.995,2z"/>
	</g>
</g>
<g>
	<rect x="28.5" y="42.5" style="fill:#FFC49C;" width="23" height="35"/>
	<path style="fill:#A16A4A;" d="M51,43v34H29V43H51 M52,42H28v36h24V42L52,42z"/>
</g>
<circle style="fill:#A16A4A;" cx="46.5" cy="61.5" r="1.5"/>
</svg>