<?xml version="1.0" encoding="iso-8859-1"?><!-- Generator: Adobe Illustrator 19.2.1, SVG Export Plug-In . SVG Version: 6.00 Build 0)  --><svg xmlns="http://www.w3.org/2000/svg" xmlns:xlink="http://www.w3.org/1999/xlink" version="1.1" id="Layer_1" x="0px" y="0px" viewBox="0 0 40 40" style="enable-background:new 0 0 40 40;" xml:space="preserve" width="40" height="40">
<g>
	<polygon style="fill:#DBF2FF;" points="3.5,38.5 3.5,13.286 19.998,3.58 36.5,13.286 36.5,38.5  "/>
	<g>
		<path style="fill:#7496C4;" d="M19.998,4.16L36,13.572V38H4V13.572L19.998,4.16 M19.998,3L3,13v26h34V13L19.998,3L19.998,3z"/>
	</g>
</g>
<rect x="4" y="34" style="fill:#B5DDF5;" width="32" height="4"/>
<g>
	<polygon style="fill:#F78F8F;" points="19.998,4.645 1.5,15.955 1.5,12.896 19.998,1.586 38.5,12.896 38.5,15.955  "/>
	<g>
		<path style="fill:#C74343;" d="M19.998,2.172L38,13.176v1.887L20.519,4.378l-0.522-0.319l-0.522,0.319L2,15.063v-1.887    L19.998,2.172 M19.998,1L1,12.615v4.231L19.998,5.231L39,16.846v-4.231L19.998,1L19.998,1z"/>
	</g>
</g>
<g>
	<rect x="14.5" y="21.5" style="fill:#FFC49C;" width="11" height="17"/>
	<path style="fill:#A16A4A;" d="M25,22v16H15V22H25 M26,21H14v18h12V21L26,21z"/>
</g>
<circle style="fill:#A16A4A;" cx="23" cy="31" r="1"/>
</svg>