<?xml version="1.0" encoding="iso-8859-1"?><!-- Generator: Adobe Illustrator 19.2.1, SVG Export Plug-In . SVG Version: 6.00 Build 0)  --><svg xmlns="http://www.w3.org/2000/svg" xmlns:xlink="http://www.w3.org/1999/xlink" version="1.1" id="Layer_1" x="0px" y="0px" viewBox="0 0 30 30" style="enable-background:new 0 0 30 30;" xml:space="preserve" width="30" height="30">
<g>
	<polygon style="fill:#DBF2FF;" points="2.5,28.5 2.5,11.279 14.998,3.587 27.5,11.279 27.5,28.5  "/>
	<g>
		<path style="fill:#7496C4;" d="M14.998,4.174L27,11.559V28H3V11.559L14.998,4.174 M14.998,3L2,11v18h26V11L14.998,3L14.998,3z"/>
	</g>
</g>
<rect x="3" y="25" style="fill:#B5DDF5;" width="24" height="3"/>
<g>
	<polygon style="fill:#F78F8F;" points="14.998,4.644 1.5,12.951 1.5,9.895 14.998,1.587 28.5,9.895 28.5,12.952  "/>
	<g>
		<path style="fill:#C74343;" d="M14.998,2.174l13.002,8v1.883L15.522,4.379l-0.524-0.322l-0.524,0.323L2,12.056v-1.882    L14.998,2.174 M14.998,1L1,9.615v4.231l13.998-8.615L29,13.846V9.615L14.998,1L14.998,1z"/>
	</g>
</g>
<g>
	<rect x="11.5" y="16.5" style="fill:#FFC49C;" width="7" height="12"/>
	<path style="fill:#A16A4A;" d="M18,17v11h-6V17H18 M19,16h-8v13h8V16L19,16z"/>
</g>
<circle style="fill:#A16A4A;" cx="16.5" cy="22.5" r="0.5"/>
</svg>