<?xml version="1.0" encoding="iso-8859-1"?><!-- Generator: Adobe Illustrator 19.2.1, SVG Export Plug-In . SVG Version: 6.00 Build 0)  --><svg xmlns="http://www.w3.org/2000/svg" xmlns:xlink="http://www.w3.org/1999/xlink" version="1.1" id="Layer_1" x="0px" y="0px" viewBox="0 0 80 80" style="enable-background:new 0 0 80 80;" xml:space="preserve" width="80" height="80">
<g>
	<g>
		<path style="fill:#F2FAFF;" d="M18.5,69.5V60c0-8.376,4.925-16.048,12.546-19.545L32.035,40l-0.989-0.455    C23.425,36.048,18.5,28.376,18.5,20v-9.5h43V20c0,8.376-4.925,16.048-12.546,19.545L47.965,40l0.989,0.455    C56.575,43.952,61.5,51.624,61.5,60v9.5H18.5z"/>
	</g>
	<g>
		<path style="fill:#788B9C;" d="M61,11v9c0,8.181-4.81,15.675-12.254,19.091L46.766,40l1.98,0.909C56.19,44.325,61,51.819,61,60v9    H19v-9c0-8.181,4.81-15.675,12.254-19.091L33.234,40l-1.98-0.909C23.81,35.675,19,28.181,19,20v-9H61 M62,10H18v10    c0,8.879,5.263,16.524,12.837,20C23.263,43.476,18,51.121,18,60v10h44V60c0-8.879-5.263-16.524-12.837-20    C56.737,36.524,62,28.879,62,20V10L62,10z"/>
	</g>
</g>
<g>
	<g>
		<polygon style="fill:#8BB7F0;" points="18.5,13.5 18.5,9.5 12.5,9.5 12.5,2.5 67.5,2.5 67.5,9.5 61.5,9.5 61.5,13.5   "/>
	</g>
	<g>
		<path style="fill:#4E7AB5;" d="M67,3v6h-5h-1v1v3H19v-3V9h-1h-5V3H67 M68,2H12v8h6v4h44v-4h6V2L68,2z"/>
	</g>
</g>
<g>
	<path style="fill:#FFC49C;" d="M22,68h36c0-14.043-18-18-18-18S22,54.051,22,68z"/>
</g>
<g>
	<g>
		<polygon style="fill:#8BB7F0;" points="12.5,77.5 12.5,70.5 18.5,70.5 18.5,66.5 61.5,66.5 61.5,70.5 67.5,70.5 67.5,77.5   "/>
	</g>
	<g>
		<path style="fill:#4E7AB5;" d="M61,67v3v1h1h5v6H13v-6h5h1v-1v-3H61 M62,66H18v4h-6v8h56v-8h-6V66L62,66z"/>
	</g>
</g>
<rect x="32" y="9" style="fill:#4E7AB5;" width="30" height="1"/>
<rect x="18" y="9" style="fill:#4E7AB5;" width="9" height="1"/>
<rect x="32" y="70" style="fill:#4E7AB5;" width="30" height="1"/>
<rect x="18" y="70" style="fill:#4E7AB5;" width="9" height="1"/>
<g>
	<path style="fill:#FFC49C;" d="M24.692,30c3.052,5.294,8.758,8.86,15.308,8.86S52.256,35.294,55.308,30H24.692z"/>
</g>
</svg>