<?xml version="1.0" encoding="iso-8859-1"?><!-- Generator: Adobe Illustrator 19.2.1, SVG Export Plug-In . SVG Version: 6.00 Build 0)  --><svg xmlns="http://www.w3.org/2000/svg" xmlns:xlink="http://www.w3.org/1999/xlink" version="1.1" id="Layer_1" x="0px" y="0px" viewBox="0 0 30 30" style="enable-background:new 0 0 30 30;" xml:space="preserve" width="30" height="30">
<g>
	<g>
		<path style="fill:#F2FAFF;" d="M7.5,25.5V22c0-2.725,1.484-5.239,3.872-6.562L12.162,15l-0.79-0.438    C8.984,13.239,7.5,10.725,7.5,8V4.5h15V8c0,2.725-1.484,5.239-3.872,6.562L17.838,15l0.79,0.438    C21.016,16.761,22.5,19.275,22.5,22v3.5H7.5z"/>
	</g>
	<g>
		<path style="fill:#788B9C;" d="M22,5v3c0,2.543-1.385,4.89-3.615,6.125L16.807,15l1.579,0.875C20.615,17.11,22,19.457,22,22v3H8    v-3c0-2.543,1.385-4.89,3.615-6.125L13.193,15l-1.579-0.875C9.385,12.89,8,10.543,8,8V5H22 M23,4H7v4c0,3.014,1.668,5.636,4.13,7    C8.668,16.364,7,18.986,7,22v4h16v-4c0-3.014-1.668-5.636-4.13-7C21.332,13.636,23,11.014,23,8V4L23,4z"/>
	</g>
</g>
<g>
	<g>
		<polygon style="fill:#8BB7F0;" points="7.5,5.5 7.5,3.5 5.5,3.5 5.5,1.5 24.5,1.5 24.5,3.5 22.5,3.5 22.5,5.5   "/>
	</g>
	<g>
		<path style="fill:#4E7AB5;" d="M24,2v1h-1h-1v1v1H8V4V3H7H6V2H24 M25,1H5v3h2v2h16V4h2V1L25,1z"/>
	</g>
</g>
<g>
	<path style="fill:#FFC49C;" d="M9,25h12c0-3.011-6-5-6-5S9,21.989,9,25z"/>
</g>
<g>
	<g>
		<polygon style="fill:#8BB7F0;" points="5.5,28.5 5.5,26.5 7.5,26.5 7.5,24.5 22.5,24.5 22.5,26.5 24.5,26.5 24.5,28.5   "/>
	</g>
	<g>
		<path style="fill:#4E7AB5;" d="M22,25v1v1h1h1v1H6v-1h1h1v-1v-1H22 M23,24H7v2H5v3h20v-3h-2V24L23,24z"/>
	</g>
</g>
<g>
	<path style="fill:#FFC49C;" d="M9.809,11c1.038,1.792,2.971,3,5.191,3s4.153-1.208,5.191-3H9.809z"/>
</g>
</svg>