<?xml version="1.0" encoding="iso-8859-1"?><!-- Generator: Adobe Illustrator 19.2.1, SVG Export Plug-In . SVG Version: 6.00 Build 0)  --><svg xmlns="http://www.w3.org/2000/svg" xmlns:xlink="http://www.w3.org/1999/xlink" version="1.1" id="Layer_1" x="0px" y="0px" viewBox="0 0 16 16" style="enable-background:new 0 0 16 16;" xml:space="preserve" width="16" height="16">
<g>
	<g>
		<path style="fill:#F2FAFF;" d="M3.5,13.5V12c0-1.423,0.666-2.735,1.826-3.599L5.865,8L5.326,7.599C4.166,6.735,3.5,5.423,3.5,4    V2.5h9V4c0,1.423-0.666,2.735-1.826,3.599L10.135,8l0.539,0.401C11.834,9.265,12.5,10.577,12.5,12v1.5H3.5z"/>
	</g>
	<g>
		<path style="fill:#788B9C;" d="M12,3v1c0,1.263-0.592,2.429-1.625,3.198L9.298,8l1.077,0.802C11.408,9.571,12,10.737,12,12v1H4v-1    c0-1.263,0.592-2.429,1.625-3.198L6.702,8L5.625,7.198C4.592,6.429,4,5.263,4,4V3H12 M13,2H3v2c0,1.643,0.804,3.089,2.027,4    C3.804,8.911,3,10.357,3,12v2h10v-2c0-1.643-0.804-3.089-2.027-4C12.196,7.089,13,5.643,13,4V2L13,2z"/>
	</g>
</g>
<g>
	<g>
		<polygon style="fill:#8BB7F0;" points="3.5,2.5 3.5,1.5 2.5,1.5 2.5,0.5 13.5,0.5 13.5,1.5 12.5,1.5 12.5,2.5   "/>
	</g>
	<g>
		<path style="fill:#4E7AB5;" d="M12,1v1H4V1H12 M14,0H2v2h1v1h10V2h1V0L14,0z"/>
	</g>
</g>
<g>
	<path style="fill:#D98B57;" d="M4.5,14h7c0-2.994-3.5-4-3.5-4S4.5,11.027,4.5,14z"/>
</g>
<g>
	<g>
		<polygon style="fill:#8BB7F0;" points="2.5,15.5 2.5,14.5 3.5,14.5 3.5,13.5 12.5,13.5 12.5,14.5 13.5,14.5 13.5,15.5   "/>
	</g>
	<g>
		<path style="fill:#4E7AB5;" d="M12,14v1h1H4v-1H12 M13,13H3v1H2v2h12v-2h-1V13L13,13z"/>
	</g>
</g>
<g>
	<path style="fill:#D98B57;" d="M5.184,5C5.597,6.163,6.696,7,8,7s2.403-0.837,2.816-2H5.184z"/>
</g>
</svg>