<?xml version="1.0" encoding="iso-8859-1"?><!-- Generator: Adobe Illustrator 19.2.1, SVG Export Plug-In . SVG Version: 6.00 Build 0)  --><svg xmlns="http://www.w3.org/2000/svg" xmlns:xlink="http://www.w3.org/1999/xlink" version="1.1" id="Layer_1" x="0px" y="0px" viewBox="0 0 80 80" style="enable-background:new 0 0 80 80;" xml:space="preserve" width="80" height="80">
<g>
	<path style="fill:#BAE0BD;" d="M40,77.5C19.322,77.5,2.5,60.678,2.5,40S19.322,2.5,40,2.5S77.5,19.322,77.5,40S60.678,77.5,40,77.5   z"/>
	<g>
		<path style="fill:#5E9C76;" d="M40,3c20.402,0,37,16.598,37,37S60.402,77,40,77S3,60.402,3,40S19.598,3,40,3 M40,2    C19.013,2,2,19.013,2,40s17.013,38,38,38s38-17.013,38-38S60.987,2,40,2L40,2z"/>
	</g>
</g>
<g>
	<path style="fill:#FFFFFF;" d="M52,31c4.963,0,9,4.037,9,9s-4.037,9-9,9s-9-4.037-9-9S47.037,31,52,31 M52,25   c-8.284,0-15,6.716-15,15s6.716,15,15,15s15-6.716,15-15S60.284,25,52,25L52,25z"/>
</g>
<g>
	<path style="fill:#FFFFFF;" d="M28,31c4.963,0,9,4.037,9,9s-4.037,9-9,9s-9-4.037-9-9S23.037,31,28,31 M28,25   c-8.284,0-15,6.716-15,15s6.716,15,15,15s15-6.716,15-15S36.284,25,28,25L28,25z"/>
</g>
</svg>