<?xml version="1.0" encoding="iso-8859-1"?><!-- Generator: Adobe Illustrator 19.2.1, SVG Export Plug-In . SVG Version: 6.00 Build 0)  --><svg xmlns="http://www.w3.org/2000/svg" xmlns:xlink="http://www.w3.org/1999/xlink" version="1.1" id="Layer_1" x="0px" y="0px" viewBox="0 0 40 40" style="enable-background:new 0 0 40 40;" xml:space="preserve" width="40" height="40">
<g>
	<path style="fill:#BAE0BD;" d="M20,38.5C9.799,38.5,1.5,30.201,1.5,20S9.799,1.5,20,1.5S38.5,9.799,38.5,20S30.201,38.5,20,38.5z"/>
	<g>
		<path style="fill:#5E9C76;" d="M20,2c9.925,0,18,8.075,18,18s-8.075,18-18,18S2,29.925,2,20S10.075,2,20,2 M20,1    C9.507,1,1,9.507,1,20s8.507,19,19,19s19-8.507,19-19S30.493,1,20,1L20,1z"/>
	</g>
</g>
<g>
	<path style="fill:#FFFFFF;" d="M14,16c2.206,0,4,1.794,4,4s-1.794,4-4,4s-4-1.794-4-4S11.794,16,14,16 M14,13c-3.866,0-7,3.134-7,7   s3.134,7,7,7s7-3.134,7-7S17.866,13,14,13L14,13z"/>
</g>
<g>
	<path style="fill:#FFFFFF;" d="M26,16c2.206,0,4,1.794,4,4s-1.794,4-4,4s-4-1.794-4-4S23.794,16,26,16 M26,13c-3.866,0-7,3.134-7,7   s3.134,7,7,7s7-3.134,7-7S29.866,13,26,13L26,13z"/>
</g>
</svg>