<?xml version="1.0" encoding="iso-8859-1"?><!-- Generator: Adobe Illustrator 19.2.1, SVG Export Plug-In . SVG Version: 6.00 Build 0)  --><svg xmlns="http://www.w3.org/2000/svg" xmlns:xlink="http://www.w3.org/1999/xlink" version="1.1" id="Layer_1" x="0px" y="0px" viewBox="0 0 16 16" style="enable-background:new 0 0 16 16;" xml:space="preserve" width="16" height="16">
<g>
	<circle style="fill:#5E9C76;" cx="7.5" cy="7.5" r="7.5"/>
</g>
<g>
	<g>
		<path style="fill:#FFFFFF;" d="M5.5,6C6.327,6,7,6.673,7,7.5S6.327,9,5.5,9S4,8.327,4,7.5S4.673,6,5.5,6 M5.5,5    C4.119,5,3,6.119,3,7.5S4.119,10,5.5,10S8,8.881,8,7.5S6.881,5,5.5,5L5.5,5z"/>
	</g>
</g>
<g>
	<g>
		<path style="fill:#FFFFFF;" d="M9.5,6C10.327,6,11,6.673,11,7.5S10.327,9,9.5,9S8,8.327,8,7.5S8.673,6,9.5,6 M9.5,5    C8.119,5,7,6.119,7,7.5S8.119,10,9.5,10S12,8.881,12,7.5S10.881,5,9.5,5L9.5,5z"/>
	</g>
</g>
</svg>