<?xml version="1.0" encoding="iso-8859-1"?><!-- Generator: Adobe Illustrator 19.2.1, SVG Export Plug-In . SVG Version: 6.00 Build 0)  --><svg xmlns="http://www.w3.org/2000/svg" xmlns:xlink="http://www.w3.org/1999/xlink" version="1.1" id="Layer_1" x="0px" y="0px" viewBox="0 0 80 80" style="enable-background:new 0 0 80 80;" xml:space="preserve" width="80" height="80">
<path style="fill:none;stroke:#788B9C;stroke-miterlimit:10;" d="M9.286,37.5c-3.748,0-6.786-3.038-6.786-6.786  c0-1.689,0.617-3.234,1.638-4.421"/>
<g>
	<g>
		<path style="fill:#FFFFFF;" d="M58.215,71.5c-1.68,0-3.258-0.654-4.445-1.841L51.11,67l-0.305,0.118    C46.748,68.698,42.439,69.5,38,69.5c-3.901,0-7.723-0.625-11.36-1.856l-0.294-0.1l-2.115,2.115    c-1.188,1.187-2.766,1.841-4.445,1.841c-1.679,0-3.257-0.654-4.444-1.841c-2.252-2.253-2.462-5.835-0.489-8.333l0.286-0.362    l-0.339-0.314C8.803,55.099,5.5,47.766,5.5,40c0-16.267,14.579-29.5,32.5-29.5c6.625,0,13.004,1.803,18.444,5.215l0.274,0.172    l0.27-0.18c4.894-3.272,9.554-5.018,13.865-5.192c-0.772,2.164-3.15,9.036-4.401,14.963l-0.041,0.193l0.103,0.169    c1.195,1.978,2.142,4.1,2.812,6.306l0.107,0.354H73c1.93,0,3.5,1.57,3.5,3.5v12c0,1.93-1.57,3.5-3.5,3.5h-5.068l-0.136,0.283    c-1.382,2.875-3.252,5.521-5.559,7.863L61.89,60l0.77,0.77c2.45,2.451,2.45,6.438,0,8.89C61.472,70.846,59.894,71.5,58.215,71.5z"/>
	</g>
	<g>
		<path style="fill:#788B9C;" d="M38,11c6.531,0,12.818,1.777,18.179,5.139l0.549,0.344l0.538-0.36    c4.534-3.033,8.854-4.731,12.864-5.063c-0.953,2.72-3.026,8.906-4.167,14.315l-0.081,0.386l0.204,0.338    c1.175,1.945,2.104,4.028,2.761,6.192L69.063,33h0.741H73c1.654,0,3,1.346,3,3v12c0,1.654-1.346,3-3,3h-4.754h-0.629l-0.272,0.567    c-1.358,2.825-3.197,5.426-5.464,7.729l-0.696,0.707l0.702,0.702l0.419,0.419c2.256,2.256,2.256,5.926,0,8.182    C61.213,70.398,59.76,71,58.214,71s-2.998-0.602-4.091-1.695l-2.429-2.429l-0.462-0.462l-0.608,0.237    C46.626,68.21,42.379,69,38,69c-3.848,0-7.616-0.616-11.2-1.83l-0.589-0.199l-0.439,0.439l-1.895,1.895    C22.784,70.398,21.331,71,19.786,71s-2.998-0.602-4.091-1.695c-2.073-2.073-2.267-5.37-0.451-7.669l0.573-0.726l-0.679-0.628    C9.245,54.828,6,47.625,6,40C6,24.009,20.355,11,38,11 M71.571,10c-5.405,0-10.634,2.464-14.861,5.291    C51.392,11.957,44.949,10,38,10C19.775,10,5,23.431,5,40c0,8.187,3.611,15.603,9.459,21.016c-2.104,2.663-1.93,6.537,0.528,8.996    C16.312,71.337,18.049,72,19.786,72s3.473-0.663,4.798-1.987l1.895-1.895C30.066,69.332,33.947,70,38,70    c4.612,0,9.001-0.863,12.987-2.416l2.429,2.429C54.741,71.337,56.478,72,58.214,72s3.473-0.663,4.798-1.987    c2.65-2.65,2.65-6.946,0-9.596l-0.419-0.419c2.323-2.359,4.239-5.055,5.653-7.997H73c2.209,0,4-1.791,4-4V36c0-2.209-1.791-4-4-4    h-3.196c-0.685-2.257-1.648-4.409-2.862-6.419C68.451,18.429,71.571,10,71.571,10L71.571,10z"/>
	</g>
</g>
<g>
	<path style="fill:#FFEEA3;" d="M33.5,50.5v-3.1c0-2.204-1.2-3.719-2.472-5.323C29.375,39.99,27.5,37.624,27.5,33   c0-6.341,5.159-11.5,11.5-11.5S50.5,26.659,50.5,33c0,4.624-1.875,6.99-3.528,9.077C45.7,43.682,44.5,45.196,44.5,47.4v3.1H33.5z"/>
	<path style="fill:#BA9B48;" d="M39,22c6.065,0,11,4.935,11,11c0,4.45-1.817,6.743-3.42,8.767C45.253,43.441,44,45.022,44,47.4V50   H34v-2.6c0-2.378-1.253-3.959-2.58-5.633C29.817,39.743,28,37.45,28,33C28,26.935,32.935,22,39,22 M39,21c-6.627,0-12,5.373-12,12   c0,8.4,6,9.667,6,14.4V51h12v-3.6c0-4.733,6-6,6-14.4C51,26.373,45.627,21,39,21L39,21z"/>
</g>
<g>
	<path style="fill:#FFFFFF;" d="M40.975,32c0.292,0,0.567,0.114,0.774,0.321c0.427,0.427,0.427,1.122,0,1.549l-1.481,1.481   l-0.293,0.293v0.414V50h-1.95V36.058v-0.414l-0.293-0.293l-1.481-1.481c-0.427-0.427-0.427-1.122,0-1.549   C36.457,32.114,36.732,32,37.025,32c0.293,0,0.568,0.114,0.774,0.321l0.494,0.494L39,33.522l0.707-0.707l0.494-0.494   C40.408,32.114,40.683,32,40.975,32 M40.975,31c-0.536,0-1.072,0.205-1.481,0.614L39,32.107l-0.494-0.494   C38.097,31.205,37.561,31,37.025,31c-0.536,0-1.072,0.205-1.481,0.614c-0.818,0.818-0.818,2.145,0,2.963l1.481,1.481V51h3.95   V36.058l1.481-1.481c0.818-0.818,0.818-2.145,0-2.963C42.047,31.205,41.511,31,40.975,31L40.975,31z"/>
</g>
<circle style="fill:#8B75A1;" cx="39" cy="57" r="3"/>
<g>
	<path style="fill:#DCD5F2;" d="M36,57.5c-1.379,0-2.5-1.121-2.5-2.5v-5.5h11V55c0,1.379-1.121,2.5-2.5,2.5H36z"/>
	<g>
		<path style="fill:#8B75A1;" d="M44,50v5c0,1.103-0.897,2-2,2h-6c-1.103,0-2-0.897-2-2v-5H44 M45,49H33v6c0,1.657,1.343,3,3,3h6    c1.657,0,3-1.343,3-3V49L45,49z"/>
	</g>
</g>
<rect x="38" y="51" style="fill:#8B75A1;" width="7" height="1"/>
<rect x="38" y="53" style="fill:#8B75A1;" width="7" height="1"/>
<rect x="33" y="51" style="fill:#8B75A1;" width="3" height="1"/>
<rect x="33" y="53" style="fill:#8B75A1;" width="3" height="1"/>
<polygon style="fill:#8B75A1;" points="44,56 38,56 38,55 44.35,55 "/>
<polygon style="fill:#8B75A1;" points="36,56 34,56 33.416,55 36,55 "/>
</svg>