<?xml version="1.0" encoding="iso-8859-1"?><!-- Generator: Adobe Illustrator 19.2.1, SVG Export Plug-In . SVG Version: 6.00 Build 0)  --><svg xmlns="http://www.w3.org/2000/svg" xmlns:xlink="http://www.w3.org/1999/xlink" version="1.1" id="Layer_1" x="0px" y="0px" viewBox="0 0 16 16" style="enable-background:new 0 0 16 16;" xml:space="preserve" width="16" height="16">
<g>
	<path style="fill:#FFEEA3;" d="M6.5,12.5V11c0-1.045-0.671-1.751-1.319-2.433C4.354,7.698,3.5,6.799,3.5,5   c0-2.481,2.019-4.5,4.5-4.5s4.5,2.019,4.5,4.5c0,1.799-0.854,2.698-1.681,3.567C10.171,9.249,9.5,9.955,9.5,11v1.5H6.5z"/>
	<path style="fill:#BA9B48;" d="M8,1c2.206,0,4,1.794,4,4c0,1.6-0.749,2.388-1.543,3.222C9.774,8.941,9,9.755,9,11v1H7v-1   c0-1.245-0.774-2.059-1.457-2.778C4.749,7.388,4,6.6,4,5C4,2.794,5.794,1,8,1 M8,0C5.239,0,3,2.239,3,5c0,3.5,3,4.028,3,6v2h4v-2   c0-1.972,3-2.5,3-6C13,2.239,10.761,0,8,0L8,0z"/>
</g>
<g>
	<path style="fill:#FFFFFF;" d="M8.994,4c-0.27,0-0.54,0.103-0.746,0.309L8,4.558L7.751,4.309C7.545,4.103,7.276,4,7.006,4   c-0.27,0-0.54,0.103-0.746,0.309c-0.412,0.412-0.412,1.08,0,1.492l0.746,0.746v5.469h1.989V6.546L9.74,5.801   c0.412-0.412,0.412-1.08,0-1.492C9.534,4.103,9.264,4,8.994,4L8.994,4z"/>
</g>
<circle style="fill:#8B75A1;" cx="8" cy="13.393" r="1.607"/>
<g>
	<path style="fill:#DCD5F2;" d="M7,13.964c-0.276,0-0.5-0.224-0.5-0.5v-2.5h3v2.5c0,0.276-0.224,0.5-0.5,0.5H7z"/>
	<g>
		<path style="fill:#8B75A1;" d="M9,11.464v2H7v-2H9 M10,10.464H6v3c0,0.552,0.448,1,1,1h2c0.552,0,1-0.448,1-1V10.464L10,10.464z"/>
	</g>
</g>
</svg>