<?xml version="1.0" encoding="iso-8859-1"?><!-- Generator: Adobe Illustrator 19.2.1, SVG Export Plug-In . SVG Version: 6.00 Build 0)  --><svg xmlns="http://www.w3.org/2000/svg" xmlns:xlink="http://www.w3.org/1999/xlink" version="1.1" id="Layer_1" x="0px" y="0px" viewBox="0 0 16 16" style="enable-background:new 0 0 16 16;" xml:space="preserve" width="16" height="16">
<g>
	<g>
		<path style="fill:#FFFFFF;" d="M11.322,14.5c-0.314,0-0.61-0.122-0.833-0.345l-0.604-0.604l-0.274,0.067    c-0.566,0.14-1.135,0.211-1.688,0.211c-0.513,0-1.041-0.062-1.571-0.184l-0.271-0.062l-0.57,0.57    C5.288,14.378,4.992,14.5,4.678,14.5s-0.61-0.122-0.833-0.345c-0.352-0.352-0.44-0.892-0.221-1.344l0.167-0.345l-0.29-0.251    C2.211,11.098,1.5,9.595,1.5,7.984c0-3.224,2.881-5.847,6.423-5.847c1.284,0,2.524,0.345,3.587,0.998l0.27,0.166l0.266-0.174    c0.727-0.475,1.42-0.78,2.07-0.913c-0.212,0.633-0.507,1.575-0.706,2.465l-0.045,0.203l0.111,0.176    c0.228,0.355,0.413,0.729,0.55,1.11L14.145,6.5H15.5v4h-1.77l-0.146,0.246c-0.3,0.508-0.684,0.975-1.141,1.387L12.148,12.4    l0.194,0.348c0.258,0.46,0.181,1.039-0.188,1.407C11.933,14.378,11.637,14.5,11.322,14.5z"/>
	</g>
	<g>
		<path style="fill:#788B9C;" d="M7.923,2.638c1.192,0,2.342,0.319,3.325,0.924l0.54,0.332l0.531-0.347    c0.353-0.231,0.695-0.418,1.026-0.561c-0.15,0.497-0.304,1.05-0.423,1.586l-0.091,0.405l0.223,0.35    c0.208,0.327,0.377,0.667,0.5,1.011L13.793,7h0.703H15v3h-0.985h-0.571l-0.29,0.492c-0.274,0.464-0.626,0.892-1.045,1.27    l-0.593,0.535l0.391,0.696c0.149,0.265,0.105,0.597-0.106,0.808C11.673,13.929,11.503,14,11.322,14    c-0.181,0-0.351-0.071-0.479-0.199l-0.404-0.404l-0.399-0.399l-0.548,0.136c-0.527,0.131-1.054,0.197-1.568,0.197    c-0.473,0-0.964-0.058-1.46-0.172l-0.539-0.124l-0.391,0.391l-0.375,0.375C5.029,13.929,4.859,14,4.678,14    c-0.181,0-0.351-0.071-0.479-0.199c-0.201-0.201-0.251-0.511-0.124-0.772l0.334-0.69l-0.579-0.502C2.649,10.816,2,9.448,2,7.984    C2,5.036,4.657,2.638,7.923,2.638 M14.846,1.638c-1.114,0-2.191,0.494-3.074,1.072c-1.101-0.676-2.424-1.072-3.849-1.072    C4.1,1.638,1,4.479,1,7.984c0,1.818,0.838,3.452,2.174,4.609c-0.303,0.625-0.201,1.396,0.317,1.915    C3.819,14.836,4.249,15,4.678,15s0.859-0.164,1.186-0.491l0.375-0.375c0.54,0.124,1.102,0.197,1.684,0.197    c0.627,0,1.231-0.083,1.808-0.226l0.404,0.404C10.463,14.836,10.893,15,11.322,15s0.859-0.164,1.186-0.491    c0.544-0.544,0.629-1.365,0.271-2.004c0.489-0.441,0.907-0.947,1.236-1.504H16V6h-1.504c-0.153-0.426-0.356-0.83-0.598-1.211    C14.229,3.306,14.846,1.638,14.846,1.638L14.846,1.638z"/>
	</g>
</g>
<path style="fill:none;stroke:#788B9C;stroke-miterlimit:10;" d="M1.864,7.727C1.111,7.727,0.5,7.117,0.5,6.364  c0-0.339,0.124-0.65,0.329-0.889"/>
<g>
	<path style="fill:#FFEEA3;" d="M7.497,10.5C7.455,9.835,6.998,9.402,6.556,8.983C6.013,8.47,5.5,7.984,5.5,7   c0-1.379,1.121-2.5,2.5-2.5s2.5,1.121,2.5,2.5c0,0.984-0.513,1.47-1.056,1.983C9.002,9.402,8.545,9.835,8.503,10.5H7.497z"/>
	<g>
		<path style="fill:#BA9B48;" d="M8,5c1.103,0,2,0.897,2,2c0,0.732-0.342,1.093-0.9,1.621C8.724,8.977,8.278,9.399,8.09,10H7.91    C7.722,9.399,7.276,8.977,6.9,8.621C6.342,8.093,6,7.732,6,7C6,5.897,6.897,5,8,5 M8,4C6.343,4,5,5.343,5,7c0,2.1,2,2.417,2,3.6    V11h2v-0.4c0-1.183,2-1.5,2-3.6C11,5.343,9.657,4,8,4L8,4z"/>
	</g>
</g>
<g>
	<path style="fill:#FFFFFF;" d="M8.481,6.4C8.35,6.4,8.22,6.45,8.12,6.549L8,6.67l-0.12-0.12C7.78,6.45,7.65,6.4,7.519,6.4   c-0.131,0-0.261,0.05-0.361,0.149c-0.199,0.199-0.199,0.522,0,0.721l0.361,0.361v2.645h0.962V7.631l0.361-0.361   c0.199-0.199,0.199-0.522,0-0.721C8.742,6.45,8.611,6.4,8.481,6.4L8.481,6.4z"/>
</g>
<g>
	<rect x="7" y="11" style="fill:#DCD5F2;" width="2" height="1"/>
	<polygon style="fill:#8B75A1;" points="9,11 7,11 7,12 9,12 9,11  "/>
</g>
</svg>