<?xml version="1.0" encoding="iso-8859-1"?><!-- Generator: Adobe Illustrator 19.2.1, SVG Export Plug-In . SVG Version: 6.00 Build 0)  --><svg xmlns="http://www.w3.org/2000/svg" xmlns:xlink="http://www.w3.org/1999/xlink" version="1.1" id="Layer_1" x="0px" y="0px" viewBox="0 0 40 40" style="enable-background:new 0 0 40 40;" xml:space="preserve" width="40" height="40">
<path style="fill:none;stroke:#788B9C;stroke-miterlimit:10;" d="M4.893,18.5c-1.874,0-3.393-1.519-3.393-3.393  c0-0.845,0.309-1.617,0.819-2.211"/>
<g>
	<g>
		<path style="fill:#FFFFFF;" d="M29.607,35.5c-0.772,0-1.499-0.301-2.046-0.848l-1.446-1.445l-0.305,0.118    C23.81,34.104,21.686,34.5,19.5,34.5c-1.888,0-3.768-0.312-5.588-0.928l-0.294-0.1l-1.18,1.18    c-0.547,0.547-1.273,0.848-2.046,0.848s-1.499-0.301-2.045-0.848c-1.031-1.03-1.122-2.675-0.213-3.827l0.286-0.363l-0.34-0.313    C5.127,27.419,3.5,23.814,3.5,20c0-7.995,7.178-14.5,16-14.5c3.263,0,6.405,0.89,9.089,2.573l0.274,0.172l0.27-0.181    c2.269-1.518,4.429-2.368,6.433-2.534c-0.476,1.36-1.513,4.455-2.083,7.16l-0.041,0.193l0.103,0.169    c0.568,0.942,1.028,1.982,1.366,3.093l0.108,0.354H37c0.827,0,1.5,0.673,1.5,1.5v6c0,0.827-0.673,1.5-1.5,1.5h-2.696l-0.136,0.283    c-0.67,1.391-1.591,2.688-2.738,3.854l-0.347,0.353l0.568,0.571c0.548,0.548,0.849,1.274,0.849,2.047s-0.301,1.499-0.848,2.045    C31.106,35.199,30.38,35.5,29.607,35.5z"/>
	</g>
	<g>
		<path style="fill:#788B9C;" d="M19.5,6c3.168,0,6.219,0.863,8.823,2.497l0.549,0.344l0.539-0.36    c1.904-1.274,3.72-2.062,5.419-2.353c-0.531,1.566-1.345,4.127-1.837,6.461l-0.081,0.386l0.204,0.337    c0.549,0.909,0.991,1.911,1.316,2.98L34.647,17h0.741H37c0.551,0,1,0.449,1,1v6c0,0.551-0.449,1-1,1h-2.382h-0.629l-0.272,0.567    c-0.645,1.342-1.535,2.593-2.643,3.72l-0.696,0.707l0.702,0.702l0.22,0.22C31.751,31.367,32,31.968,32,32.607    s-0.249,1.24-0.701,1.692C30.847,34.751,30.246,35,29.607,35c-0.639,0-1.24-0.249-1.692-0.701L26.7,33.084l-0.462-0.462    l-0.608,0.237C23.686,33.616,21.624,34,19.5,34c-1.834,0-3.66-0.303-5.427-0.901l-0.588-0.199l-0.439,0.439l-0.96,0.96    C11.633,34.751,11.032,35,10.393,35c-0.639,0-1.24-0.249-1.692-0.701c-0.851-0.851-0.926-2.211-0.174-3.163L9.1,30.409    l-0.68-0.628C5.57,27.148,4,23.674,4,20C4,12.28,10.953,6,19.5,6 M36.286,5c-2.704,0-5.317,1.235-7.431,2.65    C26.195,5.982,22.975,5,19.5,5C10.387,5,3,11.716,3,20c0,4.098,1.812,7.809,4.742,10.516c-1.051,1.332-0.978,3.261,0.252,4.49h0    C8.656,35.669,9.525,36,10.393,36c0.868,0,1.737-0.331,2.399-0.994l0.96-0.96C15.545,34.652,17.475,35,19.5,35    c2.306,0,4.499-0.433,6.492-1.209l1.216,1.216C27.871,35.669,28.739,36,29.607,36c0.868,0,1.737-0.331,2.399-0.994h0    c1.325-1.325,1.325-3.473,0-4.798l-0.22-0.22c1.16-1.179,2.125-2.518,2.832-3.988H37c1.105,0,2-0.895,2-2v-6c0-1.105-0.895-2-2-2    h-1.612c-0.342-1.126-0.812-2.203-1.417-3.206C34.725,9.217,36.286,5,36.286,5L36.286,5z"/>
	</g>
</g>
<g>
	<path style="fill:#FFEEA3;" d="M17.786,26.214v-0.856c0-1.348-0.846-2.237-1.742-3.18c-1.092-1.148-2.33-2.45-2.33-4.964   c0-3.466,2.82-6.285,6.286-6.285s6.286,2.819,6.286,6.285c0,2.514-1.238,3.815-2.33,4.964c-0.896,0.942-1.742,1.832-1.742,3.18   v0.856H17.786z"/>
	<g>
		<path style="fill:#BA9B48;" d="M20,11.429c3.19,0,5.786,2.595,5.786,5.786c0,2.314-1.115,3.486-2.192,4.619    c-0.924,0.972-1.879,1.976-1.879,3.523v0.357h-3.429v-0.357c0-1.547-0.955-2.552-1.879-3.523    c-1.078-1.134-2.192-2.306-2.192-4.619C14.214,14.024,16.81,11.429,20,11.429 M20,10.429c-3.748,0-6.786,3.038-6.786,6.786    c0,4.75,4.071,5.466,4.071,8.143v1.357h5.429v-1.357c0-2.677,4.071-3.393,4.071-8.143C26.786,13.467,23.748,10.429,20,10.429    L20,10.429z"/>
	</g>
</g>
<g>
	<path style="fill:#FFFFFF;" d="M21.35,16.857c0.067,0,0.195,0.016,0.305,0.126c0.11,0.11,0.126,0.238,0.126,0.305   s-0.016,0.195-0.126,0.305l-1.012,1.012l-0.293,0.293v0.414v6.423H19.65v-6.423v-0.414l-0.293-0.293l-1.012-1.012   c-0.11-0.11-0.126-0.238-0.126-0.305s0.016-0.195,0.126-0.305c0.11-0.11,0.238-0.126,0.305-0.126s0.195,0.016,0.305,0.126   l0.337,0.337L20,18.028l0.707-0.707l0.337-0.337C21.154,16.874,21.283,16.857,21.35,16.857 M21.35,15.857   c-0.366,0-0.733,0.14-1.012,0.419L20,16.614l-0.337-0.337c-0.28-0.28-0.646-0.419-1.012-0.419s-0.733,0.14-1.012,0.419   c-0.559,0.559-0.559,1.465,0,2.024l1.012,1.012v7.423h2.699v-7.423l1.012-1.012c0.559-0.559,0.559-1.465,0-2.024   C22.082,15.997,21.716,15.857,21.35,15.857L21.35,15.857z"/>
</g>
<circle style="fill:#8B75A1;" cx="20" cy="28.605" r="2.181"/>
<g>
	<path style="fill:#DCD5F2;" d="M18.643,29.559c-0.473,0-0.856-0.385-0.856-0.857V25.13h4.428v3.571   c0,0.473-0.384,0.857-0.856,0.857H18.643z"/>
	<g>
		<path style="fill:#8B75A1;" d="M21.714,25.63v3.071c0,0.197-0.16,0.357-0.357,0.357h-2.714c-0.197,0-0.357-0.16-0.357-0.357V25.63    H21.714 M22.714,24.63h-5.429v4.071c0,0.75,0.608,1.357,1.357,1.357h2.714c0.75,0,1.357-0.608,1.357-1.357V24.63L22.714,24.63z"/>
	</g>
</g>
</svg>