<?xml version="1.0" encoding="iso-8859-1"?><!-- Generator: Adobe Illustrator 19.2.1, SVG Export Plug-In . SVG Version: 6.00 Build 0)  --><svg xmlns="http://www.w3.org/2000/svg" xmlns:xlink="http://www.w3.org/1999/xlink" version="1.1" id="Layer_1" x="0px" y="0px" viewBox="0 0 30 30" style="enable-background:new 0 0 30 30;" xml:space="preserve" width="30" height="30">
<g>
	<g>
		<path style="fill:#FFFFFF;" d="M22.5,26.5c-0.534,0-1.036-0.208-1.414-0.586l-1.344-1.344l-0.303,0.116    C18.028,25.227,16.534,25.5,15,25.5c-1.252,0-2.503-0.192-3.72-0.573l-0.289-0.09l-1.077,1.077C9.536,26.292,9.034,26.5,8.5,26.5    s-1.036-0.208-1.414-0.586C6.351,25.18,6.312,23.985,7,23.195l0.322-0.372l-0.367-0.329C4.728,20.501,3.5,17.84,3.5,15    C3.5,9.21,8.659,4.5,15,4.5c2.294,0,4.511,0.617,6.409,1.783l0.271,0.166l0.265-0.173c1.526-0.998,2.979-1.58,4.332-1.734    c-0.355,1.024-1,2.983-1.408,4.811l-0.045,0.203l0.111,0.175c0.486,0.763,0.864,1.575,1.124,2.417l0.108,0.353H27    c0.827,0,1.5,0.673,1.5,1.5v4c0,0.827-0.673,1.5-1.5,1.5h-1.614l-0.143,0.256c-0.451,0.809-1.023,1.567-1.702,2.256l-0.348,0.354    l0.721,0.721c0.779,0.779,0.779,2.049,0,2.828C23.536,26.292,23.034,26.5,22.5,26.5z"/>
	</g>
	<g>
		<path style="fill:#788B9C;" d="M15,5c2.202,0,4.327,0.591,6.148,1.709l0.54,0.332l0.531-0.347c1.16-0.758,2.269-1.264,3.314-1.514    c-0.361,1.092-0.829,2.617-1.152,4.063L24.29,9.649L24.513,10c0.462,0.724,0.821,1.496,1.068,2.295L25.799,13h0.738H27    c0.551,0,1,0.449,1,1v4c0,0.551-0.449,1-1,1h-1.32h-0.587l-0.286,0.513c-0.43,0.77-0.975,1.492-1.621,2.148l-0.697,0.707    l0.702,0.702l0.37,0.37c0.585,0.585,0.585,1.536,0,2.121C23.277,25.844,22.901,26,22.5,26s-0.777-0.156-1.061-0.439l-1.114-1.114    l-0.459-0.459l-0.606,0.232C17.907,24.737,16.473,25,15,25c-1.202,0-2.403-0.185-3.571-0.55l-0.578-0.18l-0.428,0.428    l-0.863,0.863C9.277,25.844,8.901,26,8.5,26s-0.777-0.156-1.061-0.439c-0.55-0.55-0.578-1.445-0.063-2.037l0.647-0.744    l-0.734-0.657C5.168,20.224,4,17.695,4,15C4,9.486,8.935,5,15,5 M27,4c-1.931,0-3.797,0.856-5.329,1.857    C19.763,4.685,17.469,4,15,4C8.373,4,3,8.925,3,15c0,3.085,1.39,5.87,3.622,7.867c-0.854,0.982-0.824,2.466,0.11,3.4    C7.22,26.756,7.86,27,8.5,27s1.28-0.244,1.768-0.732l0.863-0.863C12.346,25.784,13.644,26,15,26c1.637,0,3.196-0.303,4.618-0.847    l1.114,1.114C21.22,26.756,21.86,27,22.5,27s1.28-0.244,1.768-0.732c0.976-0.976,0.976-2.559,0-3.536l-0.37-0.37    c0.7-0.711,1.301-1.502,1.782-2.362H27c1.105,0,2-0.895,2-2v-4c0-1.105-0.895-2-2-2h-0.463c-0.278-0.899-0.677-1.749-1.18-2.538    C25.931,6.891,27,4,27,4L27,4z"/>
	</g>
</g>
<path style="fill:none;stroke:#788B9C;stroke-miterlimit:10;" d="M4,14.5c-1.381,0-2.5-1.119-2.5-2.5  c0-0.622,0.227-1.191,0.604-1.629"/>
<g>
	<path style="fill:#FFEEA3;" d="M13.5,19.5V19c0-1.046-0.671-1.751-1.319-2.434C11.354,15.698,10.5,14.8,10.5,13   c0-2.481,2.019-4.5,4.5-4.5s4.5,2.019,4.5,4.5c0,1.8-0.854,2.698-1.681,3.566C17.171,17.249,16.5,17.954,16.5,19v0.5H13.5z"/>
	<g>
		<path style="fill:#BA9B48;" d="M15,9c2.206,0,4,1.794,4,4c0,1.6-0.749,2.388-1.543,3.222C16.774,16.941,16,17.755,16,19h-2    c0-1.245-0.774-2.059-1.457-2.778C11.749,15.388,11,14.6,11,13C11,10.794,12.794,9,15,9 M15,8c-2.761,0-5,2.239-5,5    c0,3.5,3,4.028,3,6v1h4v-1c0-1.972,3-2.5,3-6C20,10.239,17.761,8,15,8L15,8z"/>
	</g>
</g>
<g>
	<path style="fill:#FFFFFF;" d="M15.994,13l0.039,0.016c0.018,0.018,0.018,0.059,0,0.077l-0.746,0.746L15,14.127l-0.287-0.287   l-0.746-0.746c-0.018-0.018-0.018-0.059,0-0.077l0.077,0l0.249,0.249L15,13.972l0.707-0.707l0.249-0.249   C15.96,13.012,15.972,13,15.994,13 M15.994,12c-0.27,0-0.54,0.103-0.746,0.309L15,12.558l-0.249-0.249   C14.545,12.103,14.276,12,14.006,12s-0.54,0.103-0.746,0.309c-0.412,0.412-0.412,1.08,0,1.492l0.746,0.746v5.469h1.989v-5.469   l0.746-0.746c0.412-0.412,0.412-1.08,0-1.492C16.534,12.103,16.264,12,15.994,12L15.994,12z"/>
</g>
<circle style="fill:#8B75A1;" cx="15" cy="21.393" r="1.607"/>
<g>
	<path style="fill:#DCD5F2;" d="M14,21.964c-0.275,0-0.5-0.225-0.5-0.5v-2.5h3v2.5c0,0.275-0.225,0.5-0.5,0.5H14z"/>
	<g>
		<path style="fill:#8B75A1;" d="M16,19.464v2h-2v-2H16 M17,18.464h-4v3c0,0.552,0.448,1,1,1h2c0.552,0,1-0.448,1-1V18.464    L17,18.464z"/>
	</g>
</g>
</svg>