<?xml version="1.0" encoding="iso-8859-1"?><!-- Generator: Adobe Illustrator 19.2.1, SVG Export Plug-In . SVG Version: 6.00 Build 0)  --><svg xmlns="http://www.w3.org/2000/svg" xmlns:xlink="http://www.w3.org/1999/xlink" version="1.1" id="Layer_1" x="0px" y="0px" viewBox="0 0 80 80" style="enable-background:new 0 0 80 80;" xml:space="preserve" width="80" height="80">
<g>
	<path style="fill:#FFEEA3;" d="M28.5,60.167V56c0-3.684-2.3-7.318-4.963-11.527C20.238,39.26,16.5,33.351,16.5,26   C16.5,13.042,27.042,2.5,40,2.5S63.5,13.042,63.5,26c0,7.351-3.738,13.26-7.037,18.473C53.8,48.682,51.5,52.316,51.5,56v4.167H28.5   z"/>
	<path style="fill:#BA9B48;" d="M40,3c12.682,0,23,10.318,23,23c0,7.207-3.697,13.05-6.959,18.205C53.336,48.48,51,52.172,51,56   v3.667H40H29V56c0-3.828-2.336-7.52-5.041-11.795C20.697,39.05,17,33.207,17,26C17,13.318,27.318,3,40,3 M40,2   C26.745,2,16,12.745,16,26c0,13.333,12,21.917,12,30v4.667h12h12V56c0-8.083,12-16.667,12-30C64,12.745,53.255,2,40,2L40,2z"/>
</g>
<g>
	<path style="fill:#FFFFFF;" d="M45.429,21.671c1.271,0,2.466,0.495,3.364,1.394c1.855,1.855,1.855,4.874,0,6.729l-3.5,3.5   L45,33.586V34v25H35V34v-0.414l-0.293-0.293l-3.5-3.5c-1.855-1.855-1.855-4.874,0-6.729c0.899-0.899,2.094-1.394,3.364-1.394   c1.271,0,2.466,0.495,3.364,1.394l1.357,1.357L40,25.128l0.707-0.707l1.357-1.357C42.963,22.166,44.158,21.671,45.429,21.671    M45.429,20.671c-1.474,0-2.947,0.562-4.071,1.686L40,23.714l-1.357-1.357c-1.124-1.124-2.598-1.686-4.071-1.686   c-1.474,0-2.947,0.562-4.071,1.686c-2.249,2.249-2.249,5.894,0,8.143L34,34v26h12V34l3.5-3.5c2.249-2.249,2.249-5.894,0-8.143   C48.376,21.233,46.902,20.671,45.429,20.671L45.429,20.671z"/>
</g>
<circle style="fill:#8B75A1;" cx="40" cy="71" r="7"/>
<g>
	<path style="fill:#DCD5F2;" d="M34,73.5c-3.033,0-5.5-2.467-5.5-5.5V56.5h23V68c0,3.033-2.467,5.5-5.5,5.5H34z"/>
	<g>
		<path style="fill:#8B75A1;" d="M51,57v11c0,2.757-2.243,5-5,5H34c-2.757,0-5-2.243-5-5V57H51 M52,56H28v12c0,3.314,2.686,6,6,6h12    c3.314,0,6-2.686,6-6V56L52,56z"/>
	</g>
</g>
<rect x="38" y="69" style="fill:#8B75A1;" width="13.372" height="1"/>
<rect x="28.495" y="69" style="fill:#8B75A1;" width="5.505" height="1"/>
<rect x="38" y="65" style="fill:#8B75A1;" width="14" height="1"/>
<rect x="28" y="65" style="fill:#8B75A1;" width="6" height="1"/>
<rect x="38" y="61" style="fill:#8B75A1;" width="14" height="1"/>
<rect x="28" y="61" style="fill:#8B75A1;" width="6" height="1"/>
</svg>