<?xml version="1.0" encoding="iso-8859-1"?><!-- Generator: Adobe Illustrator 19.2.1, SVG Export Plug-In . SVG Version: 6.00 Build 0)  --><svg xmlns="http://www.w3.org/2000/svg" xmlns:xlink="http://www.w3.org/1999/xlink" version="1.1" id="Layer_1" x="0px" y="0px" viewBox="0 0 30 30" style="enable-background:new 0 0 30 30;" xml:space="preserve" width="30" height="30">
<g>
	<rect x="2.5" y="2.5" style="fill:#8BB7F0;" width="11" height="25"/>
	<path style="fill:#4E7AB5;" d="M13,3v24H3V3H13 M14,2H2v26h12V2L14,2z"/>
</g>
<g>
	<path style="fill:#BAE0BD;" d="M19,23.5c-0.827,0-1.5-0.673-1.5-1.5V8c0-0.827,0.673-1.5,1.5-1.5h7c0.827,0,1.5,0.673,1.5,1.5v14   c0,0.827-0.673,1.5-1.5,1.5H19z"/>
	<g>
		<path style="fill:#5E9C76;" d="M26,7c0.551,0,1,0.449,1,1v14c0,0.551-0.449,1-1,1h-7c-0.551,0-1-0.449-1-1V8c0-0.551,0.449-1,1-1    H26 M26,6h-7c-1.105,0-2,0.895-2,2v14c0,1.105,0.895,2,2,2h7c1.105,0,2-0.895,2-2V8C28,6.895,27.105,6,26,6L26,6z"/>
	</g>
</g>
</svg>