<?xml version="1.0" encoding="iso-8859-1"?><!-- Generator: Adobe Illustrator 19.2.1, SVG Export Plug-In . SVG Version: 6.00 Build 0)  --><svg xmlns="http://www.w3.org/2000/svg" xmlns:xlink="http://www.w3.org/1999/xlink" version="1.1" id="Layer_1" x="0px" y="0px" viewBox="0 0 80 80" style="enable-background:new 0 0 80 80;" xml:space="preserve" width="80" height="80">
<g>
	<rect x="4.5" y="4.5" style="fill:#8BB7F0;" width="31" height="71"/>
	<path style="fill:#4E7AB5;" d="M35,5v70H5V5H35 M36,4H4v72h32V4L36,4z"/>
</g>
<g>
	<path style="fill:#BAE0BD;" d="M50,63.5c-3.033,0-5.5-2.468-5.5-5.5V22c0-3.032,2.467-5.5,5.5-5.5h20c3.033,0,5.5,2.468,5.5,5.5v36   c0,3.032-2.467,5.5-5.5,5.5H50z"/>
	<g>
		<path style="fill:#5E9C76;" d="M70,17c2.757,0,5,2.243,5,5v36c0,2.757-2.243,5-5,5H50c-2.757,0-5-2.243-5-5V22    c0-2.757,2.243-5,5-5H70 M70,16H50c-3.314,0-6,2.686-6,6v36c0,3.314,2.686,6,6,6h20c3.314,0,6-2.686,6-6V22    C76,18.686,73.314,16,70,16L70,16z"/>
	</g>
</g>
</svg>