<?xml version="1.0" encoding="iso-8859-1"?><!-- Generator: Adobe Illustrator 19.2.1, SVG Export Plug-In . SVG Version: 6.00 Build 0)  --><svg xmlns="http://www.w3.org/2000/svg" xmlns:xlink="http://www.w3.org/1999/xlink" version="1.1" id="Layer_1" x="0px" y="0px" viewBox="0 0 40 40" style="enable-background:new 0 0 40 40;" xml:space="preserve" width="40" height="40">
<g>
	<rect x="2.5" y="2.5" style="fill:#8BB7F0;" width="15" height="35"/>
	<path style="fill:#4E7AB5;" d="M17,3v34H3V3H17 M18,2H2v36h16V2L18,2z"/>
</g>
<g>
	<path style="fill:#BAE0BD;" d="M25,31.5c-1.378,0-2.5-1.121-2.5-2.5V11c0-1.379,1.122-2.5,2.5-2.5h10c1.378,0,2.5,1.121,2.5,2.5v18   c0,1.379-1.122,2.5-2.5,2.5H25z"/>
	<g>
		<path style="fill:#5E9C76;" d="M35,9c1.103,0,2,0.897,2,2v18c0,1.103-0.897,2-2,2H25c-1.103,0-2-0.897-2-2V11c0-1.103,0.897-2,2-2    H35 M35,8H25c-1.657,0-3,1.343-3,3v18c0,1.657,1.343,3,3,3h10c1.657,0,3-1.343,3-3V11C38,9.343,36.657,8,35,8L35,8z"/>
	</g>
</g>
</svg>