<?xml version="1.0" encoding="iso-8859-1"?><!-- Generator: Adobe Illustrator 19.2.1, SVG Export Plug-In . SVG Version: 6.00 Build 0)  --><svg xmlns="http://www.w3.org/2000/svg" xmlns:xlink="http://www.w3.org/1999/xlink" version="1.1" x="0px" y="0px" viewBox="0 0 16 16" style="enable-background:new 0 0 16 16;" xml:space="preserve" width="16" height="16">
<g id="Layer_1">
	<g>
		<rect x="0.5" y="0.5" style="fill:#8BB7F0;" width="7" height="15"/>
		<path style="fill:#4E7AB5;" d="M7,1v14H1V1H7 M8,0H0v16h8V0L8,0z"/>
	</g>
	<g>
		<path style="fill:#BAE0BD;" d="M10,12.5c-0.276,0-0.5-0.225-0.5-0.5V4c0-0.275,0.224-0.5,0.5-0.5h5c0.276,0,0.5,0.225,0.5,0.5v8    c0,0.275-0.224,0.5-0.5,0.5H10z"/>
		<g>
			<path style="fill:#5E9C76;" d="M15,4v8h-5V4H15 M15,3h-5C9.448,3,9,3.448,9,4v8c0,0.552,0.448,1,1,1h5c0.552,0,1-0.448,1-1V4     C16,3.448,15.552,3,15,3L15,3z"/>
		</g>
	</g>
</g>
<g id="Layer_2">
</g>
</svg>