<?xml version="1.0" encoding="iso-8859-1"?><!-- Generator: Adobe Illustrator 19.2.1, SVG Export Plug-In . SVG Version: 6.00 Build 0)  --><svg xmlns="http://www.w3.org/2000/svg" xmlns:xlink="http://www.w3.org/1999/xlink" version="1.1" id="Layer_1" x="0px" y="0px" viewBox="0 0 30 30" style="enable-background:new 0 0 30 30;" xml:space="preserve" width="30" height="30">
<g>
	<g>
		<polygon style="fill:#B0C1D4;" points="24.5,18.5 24.5,15.5 21.5,15.5 21.5,13.5 24.5,13.5 24.5,10.5 26.5,10.5 26.5,13.5     29.5,13.5 29.5,15.5 26.5,15.5 26.5,18.5   "/>
	</g>
	<g>
		<path style="fill:#66798F;" d="M26,11v2v1h1h2v1h-2h-1v1v2h-1v-2v-1h-1h-2v-1h2h1v-1v-2H26 M27,10h-3v3h-3v3h3v3h3v-3h3v-3h-3V10    L27,10z"/>
	</g>
</g>
<g>
	<g>
		<path style="fill:#B0C1D4;" d="M15.627,25.5l-1.427-5H5.8l-1.427,5H0.695l7.043-21h4.691l6.881,21H15.627z M6.656,17.5h6.687    L10.468,7.428H9.531L6.656,17.5z"/>
	</g>
	<g>
		<path style="fill:#66798F;" d="M12.067,5l6.553,20h-2.616l-1.22-4.275L14.577,20h-0.754H6.177H5.423l-0.207,0.726L3.995,25H1.39    L8.097,5H12.067 M5.993,18h1.325h5.362h1.325l-0.364-1.275l-2.59-9.073l-0.207-0.725h-0.754H9.908H9.154L8.947,7.653l-2.589,9.073    L5.993,18 M12.791,4H7.378L0,26h4.75l1.427-5h7.646l1.427,5H20L12.791,4L12.791,4z M7.319,17l2.589-9.073h0.183L12.681,17H7.319    L7.319,17z"/>
	</g>
</g>
</svg>