<?xml version="1.0" encoding="iso-8859-1"?><!-- Generator: Adobe Illustrator 19.2.1, SVG Export Plug-In . SVG Version: 6.00 Build 0)  --><svg xmlns="http://www.w3.org/2000/svg" xmlns:xlink="http://www.w3.org/1999/xlink" version="1.1" id="Layer_1" x="0px" y="0px" viewBox="0 0 80 80" style="enable-background:new 0 0 80 80;" xml:space="preserve" width="80" height="80">
<g>
	<path style="fill:#F5C276;" d="M12.728,75.5c-1.229,0-2.228-1.019-2.228-2.27V6.77c0-1.251,0.999-2.27,2.228-2.27h20.965   C33.563,5.011,33.5,5.506,33.5,6c0,3.584,2.916,6.5,6.5,6.5s6.5-2.916,6.5-6.5c0-0.494-0.063-0.989-0.192-1.5h20.965   c1.229,0,2.228,1.019,2.228,2.27V73.23c0,1.251-0.999,2.27-2.228,2.27H12.728z"/>
	<path style="fill:#C29653;" d="M67.273,5C68.225,5,69,5.794,69,6.769v66.462C69,74.206,68.225,75,67.273,75H12.727   C11.775,75,11,74.206,11,73.231V6.769C11,5.794,11.775,5,12.727,5h20.352C33.026,5.335,33,5.667,33,6c0,3.86,3.14,7,7,7s7-3.14,7-7   c0-0.333-0.026-0.665-0.079-1H67.273 M67.273,4h-21.64C45.856,4.628,46,5.295,46,6c0,3.314-2.686,6-6,6s-6-2.686-6-6   c0-0.705,0.144-1.372,0.367-2h-21.64C11.221,4,10,5.24,10,6.769v66.462C10,74.76,11.221,76,12.727,76h54.545   C68.779,76,70,74.76,70,73.231V6.769C70,5.24,68.779,4,67.273,4L67.273,4z"/>
</g>
<rect x="18" y="12" style="fill:#FFFFFF;" width="44" height="56"/>
<polyline style="fill:none;stroke:#5E9C76;stroke-width:6;stroke-miterlimit:10;" points="26,41.902 35.399,51.301 54,32.699 "/>
<path style="fill:#66798F;" d="M44.578,4c0.45,1.029,0.578,2.232,0.197,3.494c-0.494,1.639-1.873,2.958-3.538,3.358  C37.94,11.642,35,9.164,35,6c0-0.712,0.154-1.387,0.422-2H26v8c0,2.209,1.791,4,4,4h20c2.209,0,4-1.791,4-4V4H44.578z"/>
<g>
	<path style="fill:#66798F;" d="M40,2c2.206,0,4,1.794,4,4s-1.794,4-4,4s-4-1.794-4-4S37.794,2,40,2 M40,0c-3.314,0-6,2.686-6,6   s2.686,6,6,6s6-2.686,6-6S43.314,0,40,0L40,0z"/>
</g>
</svg>