<?xml version="1.0" encoding="iso-8859-1"?><!-- Generator: Adobe Illustrator 19.2.1, SVG Export Plug-In . SVG Version: 6.00 Build 0)  --><svg xmlns="http://www.w3.org/2000/svg" xmlns:xlink="http://www.w3.org/1999/xlink" version="1.1" id="Layer_1" x="0px" y="0px" viewBox="0 0 30 30" style="enable-background:new 0 0 30 30;" xml:space="preserve" width="30" height="30">
<g>
	<path style="fill:#FFF1E8;" d="M6,27.5c-1.93,0-3.5-1.57-3.5-3.5V6c0-1.93,1.57-3.5,3.5-3.5h18c1.93,0,3.5,1.57,3.5,3.5v18   c0,1.93-1.57,3.5-3.5,3.5H6z"/>
	<g>
		<path style="fill:#A16A4A;" d="M24,3c1.654,0,3,1.346,3,3v18c0,1.654-1.346,3-3,3H6c-1.654,0-3-1.346-3-3V6c0-1.654,1.346-3,3-3    H24 M24,2H6C3.791,2,2,3.791,2,6v18c0,2.209,1.791,4,4,4h18c2.209,0,4-1.791,4-4V6C28,3.791,26.209,2,24,2L24,2z"/>
	</g>
</g>
<g>
	<path style="fill:#A16A4A;" d="M28,9H2V8c0-3.314,2.686-6,6-6h14c3.314,0,6,2.686,6,6V9z"/>
</g>
<rect x="23" y="4" style="fill:#B0C1D4;" width="3" height="3"/>
<rect x="5" y="3" style="fill:#F78F8F;" width="2" height="6"/>
<rect x="7" y="3" style="fill:#FFEEA3;" width="2" height="6"/>
<rect x="9" y="3" style="fill:#BAE0BD;" width="2" height="6"/>
<rect x="11" y="3" style="fill:#8BB7F0;" width="2" height="6"/>
<circle style="fill:#FFF1E8;" cx="15" cy="16" r="8"/>
<g>
	<circle style="fill:#B0C1D4;" cx="15" cy="16" r="6.5"/>
	<path style="fill:#66798F;" d="M15,10c3.308,0,6,2.692,6,6s-2.692,6-6,6s-6-2.692-6-6S11.692,10,15,10 M15,9c-3.866,0-7,3.134-7,7   s3.134,7,7,7s7-3.134,7-7S18.866,9,15,9L15,9z"/>
</g>
<circle style="fill:#66798F;" cx="15" cy="16" r="2"/>
</svg>