<?xml version="1.0" encoding="iso-8859-1"?><!-- Generator: Adobe Illustrator 19.2.1, SVG Export Plug-In . SVG Version: 6.00 Build 0)  --><svg xmlns="http://www.w3.org/2000/svg" xmlns:xlink="http://www.w3.org/1999/xlink" version="1.1" id="Layer_1" x="0px" y="0px" viewBox="0 0 80 80" style="enable-background:new 0 0 80 80;" xml:space="preserve" width="80" height="80">
<g>
	<path style="fill:#FFF1E8;" d="M14,75.5c-5.238,0-9.5-4.262-9.5-9.5V14c0-5.238,4.262-9.5,9.5-9.5h52c5.238,0,9.5,4.262,9.5,9.5v52   c0,5.238-4.262,9.5-9.5,9.5H14z"/>
	<g>
		<path style="fill:#A16A4A;" d="M66,5c4.963,0,9,4.037,9,9v52c0,4.963-4.037,9-9,9H14c-4.963,0-9-4.037-9-9V14c0-4.963,4.037-9,9-9    H66 M66,4H14C8.477,4,4,8.477,4,14v52c0,5.523,4.477,10,10,10h52c5.523,0,10-4.477,10-10V14C76,8.477,71.523,4,66,4L66,4z"/>
	</g>
</g>
<g>
	<path style="fill:#A16A4A;" d="M76,23H4v-9C4,8.477,8.477,4,14,4h52c5.523,0,10,4.477,10,10V23z"/>
</g>
<path style="fill:#B0C1D4;" d="M64,18h4c1.105,0,2-0.895,2-2v-4c0-1.105-0.895-2-2-2h-4c-1.105,0-2,0.895-2,2v4  C62,17.105,62.895,18,64,18z"/>
<rect x="12" y="7" style="fill:#F78F8F;" width="4" height="16"/>
<rect x="16" y="7" style="fill:#FFEEA3;" width="4" height="16"/>
<rect x="20" y="7" style="fill:#BAE0BD;" width="4" height="16"/>
<rect x="24" y="7" style="fill:#8BB7F0;" width="4" height="16"/>
<circle style="fill:#FFF1E8;" cx="40" cy="42" r="24"/>
<g>
	<path style="fill:#B0C1D4;" d="M40,61.5c-10.752,0-19.5-8.748-19.5-19.5S29.248,22.5,40,22.5S59.5,31.248,59.5,42   S50.752,61.5,40,61.5z"/>
	<path style="fill:#66798F;" d="M40,23c10.477,0,19,8.523,19,19s-8.523,19-19,19s-19-8.523-19-19S29.523,23,40,23 M40,22   c-11.046,0-20,8.954-20,20s8.954,20,20,20s20-8.954,20-20S51.046,22,40,22L40,22z"/>
</g>
<circle style="fill:#66798F;" cx="40" cy="42" r="3"/>
</svg>