<?xml version="1.0" encoding="iso-8859-1"?><!-- Generator: Adobe Illustrator 19.2.1, SVG Export Plug-In . SVG Version: 6.00 Build 0)  --><svg xmlns="http://www.w3.org/2000/svg" xmlns:xlink="http://www.w3.org/1999/xlink" version="1.1" id="Layer_1" x="0px" y="0px" viewBox="0 0 40 40" style="enable-background:new 0 0 40 40;" xml:space="preserve" width="40" height="40">
<g>
	<path style="fill:#FFF1E8;" d="M7,37.5c-2.481,0-4.5-2.019-4.5-4.5V7c0-2.481,2.019-4.5,4.5-4.5h26c2.481,0,4.5,2.019,4.5,4.5v26   c0,2.481-2.019,4.5-4.5,4.5H7z"/>
	<g>
		<path style="fill:#A16A4A;" d="M33,3c2.206,0,4,1.794,4,4v26c0,2.206-1.794,4-4,4H7c-2.206,0-4-1.794-4-4V7c0-2.206,1.794-4,4-4    H33 M33,2H7C4.239,2,2,4.239,2,7v26c0,2.761,2.239,5,5,5h26c2.761,0,5-2.239,5-5V7C38,4.239,35.761,2,33,2L33,2z"/>
	</g>
</g>
<g>
	<path style="fill:#A16A4A;" d="M38,11.692H2V7c0-2.761,2.239-5,5-5h26c2.761,0,5,2.239,5,5V11.692z"/>
</g>
<path style="fill:#B0C1D4;" d="M32,9h2c0.552,0,1-0.448,1-1V6c0-0.552-0.448-1-1-1h-2c-0.552,0-1,0.448-1,1v2  C31,8.552,31.448,9,32,9z"/>
<rect x="6" y="2.692" style="fill:#F78F8F;" width="2" height="9"/>
<rect x="8" y="2.692" style="fill:#FFEEA3;" width="2" height="9"/>
<rect x="10" y="2.692" style="fill:#BAE0BD;" width="2" height="9"/>
<rect x="12" y="2.692" style="fill:#8BB7F0;" width="2" height="9"/>
<circle style="fill:#FFF1E8;" cx="20" cy="21" r="12"/>
<g>
	<path style="fill:#B0C1D4;" d="M20,30.5c-5.238,0-9.5-4.262-9.5-9.5s4.262-9.5,9.5-9.5s9.5,4.262,9.5,9.5S25.238,30.5,20,30.5z"/>
	<path style="fill:#66798F;" d="M20,12c4.963,0,9,4.037,9,9s-4.037,9-9,9s-9-4.037-9-9S15.037,12,20,12 M20,11   c-5.523,0-10,4.477-10,10s4.477,10,10,10s10-4.477,10-10S25.523,11,20,11L20,11z"/>
</g>
<circle style="fill:#66798F;" cx="20" cy="21" r="2"/>
</svg>