<?xml version="1.0" encoding="iso-8859-1"?><!-- Generator: Adobe Illustrator 19.2.1, SVG Export Plug-In . SVG Version: 6.00 Build 0)  --><svg xmlns="http://www.w3.org/2000/svg" xmlns:xlink="http://www.w3.org/1999/xlink" version="1.1" id="Layer_1" x="0px" y="0px" viewBox="0 0 16 16" style="enable-background:new 0 0 16 16;" xml:space="preserve" width="16" height="16">
<g>
	<path style="fill:#FFF1E8;" d="M3,14.5c-0.827,0-1.5-0.673-1.5-1.5V3c0-0.827,0.673-1.5,1.5-1.5h10c0.827,0,1.5,0.673,1.5,1.5v10   c0,0.827-0.673,1.5-1.5,1.5H3z"/>
	<g>
		<path style="fill:#A16A4A;" d="M13,2c0.551,0,1,0.449,1,1v10c0,0.551-0.449,1-1,1H3c-0.551,0-1-0.449-1-1V3c0-0.551,0.449-1,1-1    H13 M13,1H3C1.895,1,1,1.895,1,3v10c0,1.105,0.895,2,2,2h10c1.105,0,2-0.895,2-2V3C15,1.895,14.105,1,13,1L13,1z"/>
	</g>
</g>
<g>
	<path style="fill:#A16A4A;" d="M15,5H1V3c0-1.105,0.895-2,2-2h10c1.105,0,2,0.895,2,2V5z"/>
</g>
<rect x="12.5" y="2.5" style="fill:#B0C1D4;" width="1" height="1"/>
<rect x="3" y="1" style="fill:#F78F8F;" width="1" height="4"/>
<rect x="4" y="1" style="fill:#FFEEA3;" width="1" height="4"/>
<rect x="5" y="1" style="fill:#BAE0BD;" width="1" height="4"/>
<rect x="6" y="1" style="fill:#8BB7F0;" width="1" height="4"/>
<circle style="fill:#FFF1E8;" cx="8" cy="8" r="5"/>
<g>
	<circle style="fill:#B0C1D4;" cx="8" cy="8" r="3.5"/>
	<path style="fill:#66798F;" d="M8,5c1.654,0,3,1.346,3,3s-1.346,3-3,3S5,9.654,5,8S6.346,5,8,5 M8,4C5.791,4,4,5.791,4,8   s1.791,4,4,4s4-1.791,4-4S10.209,4,8,4L8,4z"/>
</g>
<circle style="fill:#66798F;" cx="8" cy="8" r="1"/>
</svg>