<?xml version="1.0" encoding="iso-8859-1"?><!-- Generator: Adobe Illustrator 19.2.1, SVG Export Plug-In . SVG Version: 6.00 Build 0)  --><svg xmlns="http://www.w3.org/2000/svg" xmlns:xlink="http://www.w3.org/1999/xlink" version="1.1" x="0px" y="0px" viewBox="0 0 16 16" style="enable-background:new 0 0 16 16;" xml:space="preserve" width="16" height="16">
<g id="Layer_1">
	<g>
		<path style="fill:#F78F8F;" d="M5.879,7.379c-0.401,0-0.777-0.156-1.061-0.439L2.696,4.818c-0.584-0.585-0.584-1.537,0-2.122    c0.283-0.283,0.66-0.438,1.062-0.438c0.4,0,0.777,0.155,1.061,0.438l2.121,2.122c0.283,0.283,0.439,0.659,0.439,1.061    c0,0.4-0.156,0.777-0.439,1.061S6.279,7.379,5.879,7.379z"/>
		<g>
			<path style="fill:#C74343;" d="M3.757,2.757c0.267,0,0.518,0.104,0.707,0.293l2.121,2.121c0.189,0.189,0.293,0.44,0.293,0.707     S6.775,6.397,6.586,6.586s-0.44,0.293-0.707,0.293c-0.267,0-0.518-0.104-0.707-0.293L3.05,4.464c-0.39-0.39-0.39-1.024,0-1.414     C3.239,2.861,3.49,2.757,3.757,2.757 M3.757,1.757c-0.512,0-1.024,0.195-1.414,0.586c-0.781,0.781-0.781,2.047,0,2.828     l2.121,2.121c0.391,0.391,0.902,0.586,1.414,0.586s1.024-0.195,1.414-0.586c0.781-0.781,0.781-2.047,0-2.828L5.172,2.343     C4.781,1.953,4.269,1.757,3.757,1.757L3.757,1.757z"/>
		</g>
	</g>
	<g>
		<path style="fill:#F2D5F2;" d="M2,9.5C1.173,9.5,0.5,8.827,0.5,8S1.173,6.5,2,6.5h3c0.827,0,1.5,0.673,1.5,1.5S5.827,9.5,5,9.5H2z    "/>
		<g>
			<path style="fill:#A175A0;" d="M5,7c0.551,0,1,0.449,1,1S5.551,9,5,9H2C1.449,9,1,8.551,1,8s0.449-1,1-1H5 M5,6H2     C0.895,6,0,6.895,0,8s0.895,2,2,2h3c1.105,0,2-0.895,2-2S6.105,6,5,6L5,6z"/>
		</g>
	</g>
	<g>
		<path style="fill:#F78FAE;" d="M5.875,7.377c-0.399,0-0.774-0.155-1.057-0.438L4.379,6.5H5c0.573,0,1.077,0.317,1.329,0.807    C6.183,7.353,6.03,7.377,5.875,7.377z"/>
		<path style="fill:#C7435B;" d="M5,6H3.172l1.293,1.293c0.39,0.39,0.9,0.584,1.41,0.584c0.374,0,0.748-0.104,1.075-0.312    C6.75,6.67,5.955,6,5,6L5,6z"/>
	</g>
	<g>
		<path style="fill:#DCD5F2;" d="M3.758,13.742c-0.401,0-0.778-0.155-1.062-0.438c-0.584-0.585-0.584-1.537,0-2.122l2.122-2.121    c0.283-0.283,0.659-0.439,1.061-0.439c0.4,0,0.777,0.156,1.061,0.439s0.439,0.66,0.439,1.061c0,0.401-0.156,0.777-0.439,1.061    l-2.121,2.122C4.535,13.587,4.158,13.742,3.758,13.742z"/>
		<g>
			<path style="fill:#8B75A1;" d="M5.879,9.121c0.267,0,0.518,0.104,0.707,0.293s0.293,0.44,0.293,0.707s-0.104,0.518-0.293,0.707     L4.464,12.95c-0.189,0.189-0.44,0.293-0.707,0.293S3.239,13.139,3.05,12.95c-0.39-0.39-0.39-1.024,0-1.414l2.121-2.121     C5.36,9.225,5.612,9.121,5.879,9.121 M5.879,8.121c-0.512,0-1.024,0.195-1.414,0.586l-2.121,2.121     c-0.781,0.781-0.781,2.047,0,2.828c0.391,0.391,0.902,0.586,1.414,0.586s1.024-0.195,1.414-0.586l2.121-2.121     c0.781-0.781,0.781-2.047,0-2.828C6.902,8.317,6.391,8.121,5.879,8.121L5.879,8.121z"/>
		</g>
	</g>
	<g>
		<path style="fill:#F2D5F2;" d="M4.379,9.5l0.439-0.439c0.282-0.282,0.657-0.438,1.057-0.438c0.155,0,0.308,0.024,0.454,0.07    C6.077,9.183,5.573,9.5,5,9.5H4.379z"/>
		<path style="fill:#9775A1;" d="M5.875,8.123c-0.51,0-1.021,0.194-1.41,0.584L3.172,10H5c0.955,0,1.75-0.67,1.949-1.565    C6.623,8.227,6.249,8.123,5.875,8.123L5.875,8.123z"/>
	</g>
	<g>
		<path style="fill:#8BB7F0;" d="M8,15.5c-0.827,0-1.5-0.673-1.5-1.5v-3c0-0.827,0.673-1.5,1.5-1.5s1.5,0.673,1.5,1.5v3    C9.5,14.827,8.827,15.5,8,15.5z"/>
		<g>
			<path style="fill:#4E7AB5;" d="M8,10c0.551,0,1,0.449,1,1v3c0,0.551-0.449,1-1,1s-1-0.449-1-1v-3C7,10.449,7.449,10,8,10 M8,9     c-1.105,0-2,0.895-2,2v3c0,1.105,0.895,2,2,2s2-0.895,2-2v-3C10,9.895,9.105,9,8,9L8,9z"/>
		</g>
	</g>
	<g>
		<path style="fill:#BDC9F2;" d="M6.5,11c0-0.573,0.317-1.077,0.807-1.328c0.163,0.521,0.031,1.111-0.367,1.51L6.5,11.621V11z"/>
		<path style="fill:#7575A1;" d="M7.565,9.051C6.67,9.25,6,10.045,6,11v1.828l1.293-1.293C7.968,10.86,8.057,9.824,7.565,9.051    L7.565,9.051z"/>
	</g>
	<g>
		<path style="fill:#C2E8FF;" d="M12.243,13.742c-0.401,0-0.778-0.155-1.062-0.438l-2.121-2.122    c-0.283-0.283-0.439-0.659-0.439-1.061c0-0.4,0.156-0.777,0.439-1.061s0.66-0.439,1.061-0.439c0.401,0,0.777,0.156,1.061,0.439    l2.122,2.121c0.584,0.585,0.584,1.537,0,2.122C13.021,13.587,12.644,13.742,12.243,13.742z"/>
		<g>
			<path style="fill:#7496C4;" d="M10.121,9.121c0.267,0,0.518,0.104,0.707,0.293l2.121,2.121c0.39,0.39,0.39,1.024,0,1.414     c-0.189,0.189-0.44,0.293-0.707,0.293s-0.518-0.104-0.707-0.293l-2.121-2.121c-0.189-0.189-0.293-0.44-0.293-0.707     s0.104-0.518,0.293-0.707S9.854,9.121,10.121,9.121 M10.121,8.121c-0.512,0-1.024,0.195-1.414,0.586     c-0.781,0.781-0.781,2.047,0,2.828l2.121,2.121c0.391,0.391,0.902,0.586,1.414,0.586s1.024-0.195,1.414-0.586     c0.781-0.781,0.781-2.047,0-2.828l-2.121-2.121C11.145,8.317,10.633,8.121,10.121,8.121L10.121,8.121z"/>
		</g>
	</g>
	<g>
		<path style="fill:#C2DEFF;" d="M9.061,11.182c-0.398-0.398-0.53-0.988-0.367-1.51C9.183,9.923,9.5,10.427,9.5,11v0.621    L9.061,11.182z"/>
		<path style="fill:#6388BA;" d="M8.435,9.051c-0.492,0.773-0.403,1.81,0.272,2.485L10,12.828V11C10,10.045,9.33,9.25,8.435,9.051    L8.435,9.051z"/>
	</g>
	<g>
		<path style="fill:#BAE0BD;" d="M11,9.5c-0.827,0-1.5-0.673-1.5-1.5s0.673-1.5,1.5-1.5h3c0.827,0,1.5,0.673,1.5,1.5    S14.827,9.5,14,9.5H11z"/>
		<g>
			<path style="fill:#5E9C76;" d="M14,7c0.551,0,1,0.449,1,1s-0.449,1-1,1h-3c-0.551,0-1-0.449-1-1s0.449-1,1-1H14 M14,6h-3     C9.895,6,9,6.895,9,8s0.895,2,2,2h3c1.105,0,2-0.895,2-2S15.105,6,14,6L14,6z"/>
		</g>
	</g>
	<g>
		<path style="fill:#C2FBFF;" d="M11,9.5c-0.573,0-1.077-0.317-1.329-0.807c0.146-0.046,0.299-0.07,0.454-0.07    c0.399,0,0.774,0.155,1.057,0.438L11.621,9.5H11z"/>
		<path style="fill:#689DBA;" d="M10.125,8.123c-0.374,0-0.748,0.104-1.075,0.312C9.25,9.33,10.045,10,11,10h1.828l-1.293-1.293    C11.146,8.317,10.636,8.123,10.125,8.123L10.125,8.123z"/>
	</g>
	<g>
		<path style="fill:#FFEEA3;" d="M10.121,7.379c-0.4,0-0.777-0.156-1.061-0.439s-0.439-0.66-0.439-1.061    c0-0.401,0.156-0.777,0.439-1.061l2.121-2.122c0.283-0.283,0.66-0.438,1.062-0.438c0.4,0,0.777,0.155,1.061,0.438    c0.584,0.585,0.584,1.537,0,2.122l-2.122,2.121C10.898,7.223,10.522,7.379,10.121,7.379z"/>
		<g>
			<path style="fill:#BA9B48;" d="M12.243,2.757c0.267,0,0.518,0.104,0.707,0.293c0.39,0.39,0.39,1.024,0,1.414l-2.121,2.121     c-0.189,0.189-0.44,0.293-0.707,0.293c-0.267,0-0.518-0.104-0.707-0.293c-0.189-0.189-0.293-0.44-0.293-0.707     S9.225,5.36,9.414,5.172l2.121-2.121C11.724,2.861,11.976,2.757,12.243,2.757 M12.243,1.757c-0.512,0-1.024,0.195-1.414,0.586     L8.707,4.464c-0.781,0.781-0.781,2.047,0,2.828c0.391,0.391,0.902,0.586,1.414,0.586s1.024-0.195,1.414-0.586l2.121-2.121     c0.781-0.781,0.781-2.047,0-2.828C13.266,1.953,12.754,1.757,12.243,1.757L12.243,1.757z"/>
		</g>
	</g>
	<g>
		<path style="fill:#D3E0BA;" d="M10.126,7.377c-0.156,0-0.309-0.024-0.455-0.07C9.923,6.817,10.427,6.5,11,6.5h0.621l-0.439,0.439    C10.899,7.222,10.524,7.377,10.126,7.377L10.126,7.377z"/>
		<path style="fill:#849C5E;" d="M12.828,6H11c-0.955,0-1.75,0.67-1.949,1.565c0.327,0.208,0.701,0.312,1.075,0.312    c0.51,0,1.021-0.194,1.41-0.584L12.828,6L12.828,6z"/>
	</g>
	<g>
		<path style="fill:#FFC49C;" d="M8,6.5C7.173,6.5,6.5,5.827,6.5,5V2c0-0.827,0.673-1.5,1.5-1.5S9.5,1.173,9.5,2v3    C9.5,5.827,8.827,6.5,8,6.5z"/>
		<g>
			<path style="fill:#A16A4A;" d="M8,1c0.551,0,1,0.449,1,1v3c0,0.551-0.449,1-1,1S7,5.551,7,5V2C7,1.449,7.449,1,8,1 M8,0     C6.895,0,6,0.895,6,2v3c0,1.105,0.895,2,2,2s2-0.895,2-2V2C10,0.895,9.105,0,8,0L8,0z"/>
		</g>
	</g>
	<g>
		<path style="fill:#F7B08F;" d="M7.307,6.328C6.817,6.077,6.5,5.573,6.5,5V4.379l0.439,0.439C7.338,5.217,7.47,5.807,7.307,6.328z"/>
		<path style="fill:#C75943;" d="M6,3.172V5c0,0.955,0.67,1.75,1.565,1.949c0.492-0.773,0.403-1.81-0.272-2.485L6,3.172L6,3.172z"/>
	</g>
	<g>
		<path style="fill:#FFDE9C;" d="M8.693,6.328C8.53,5.807,8.662,5.217,9.061,4.818L9.5,4.379V5C9.5,5.573,9.183,6.077,8.693,6.328z"/>
		<path style="fill:#A1884A;" d="M10,3.172L8.707,4.464C8.032,5.14,7.943,6.176,8.435,6.949C9.33,6.75,10,5.955,10,5V3.172L10,3.172    z"/>
	</g>
</g>
<g id="Layer_2">
</g>
</svg>