<?xml version="1.0" encoding="iso-8859-1"?><!-- Generator: Adobe Illustrator 19.2.1, SVG Export Plug-In . SVG Version: 6.00 Build 0)  --><svg xmlns="http://www.w3.org/2000/svg" xmlns:xlink="http://www.w3.org/1999/xlink" version="1.1" id="Layer_1" x="0px" y="0px" viewBox="0 0 30 30" style="enable-background:new 0 0 30 30;" xml:space="preserve" width="30" height="30">
<g>
	<path style="fill:#FFC49C;" d="M15,12.5c-1.93,0-3.5-1.57-3.5-3.5V5c0-1.93,1.57-3.5,3.5-3.5s3.5,1.57,3.5,3.5v4   C18.5,10.93,16.93,12.5,15,12.5z"/>
	<g>
		<path style="fill:#A16A4A;" d="M15,2c1.654,0,3,1.346,3,3v4c0,1.654-1.346,3-3,3s-3-1.346-3-3V5C12,3.346,13.346,2,15,2 M15,1    c-2.209,0-4,1.791-4,4v4c0,2.209,1.791,4,4,4s4-1.791,4-4V5C19,2.791,17.209,1,15,1L15,1z"/>
	</g>
</g>
<g>
	<path style="fill:#8BB7F0;" d="M15,28.5c-1.93,0-3.5-1.57-3.5-3.5v-4c0-1.93,1.57-3.5,3.5-3.5s3.5,1.57,3.5,3.5v4   C18.5,26.93,16.93,28.5,15,28.5z"/>
	<g>
		<path style="fill:#4E7AB5;" d="M15,18c1.654,0,3,1.346,3,3v4c0,1.654-1.346,3-3,3s-3-1.346-3-3v-4C12,19.346,13.346,18,15,18     M15,17c-2.209,0-4,1.791-4,4v4c0,2.209,1.791,4,4,4s4-1.791,4-4v-4C19,18.791,17.209,17,15,17L15,17z"/>
	</g>
</g>
<g>
	<path style="fill:#BAE0BD;" d="M21,18.5c-1.93,0-3.5-1.57-3.5-3.5s1.57-3.5,3.5-3.5h4c1.93,0,3.5,1.57,3.5,3.5s-1.57,3.5-3.5,3.5   H21z"/>
	<path style="fill:#5E9C76;" d="M25,12c1.654,0,3,1.346,3,3s-1.346,3-3,3h-4c-1.654,0-3-1.346-3-3s1.346-3,3-3H25 M25,11h-4   c-2.209,0-4,1.791-4,4s1.791,4,4,4h4c2.209,0,4-1.791,4-4S27.209,11,25,11L25,11z"/>
</g>
<g>
	<path style="fill:#F2D5F2;" d="M5,18.5c-1.93,0-3.5-1.57-3.5-3.5s1.57-3.5,3.5-3.5h4c1.93,0,3.5,1.57,3.5,3.5s-1.57,3.5-3.5,3.5H5z   "/>
	<g>
		<path style="fill:#A175A0;" d="M9,12c1.654,0,3,1.346,3,3s-1.346,3-3,3H5c-1.654,0-3-1.346-3-3s1.346-3,3-3H9 M9,11H5    c-2.209,0-4,1.791-4,4s1.791,4,4,4h4c2.209,0,4-1.791,4-4S11.209,11,9,11L9,11z"/>
	</g>
</g>
<g>
	<path style="fill:#FFEEA3;" d="M19.243,14.257c-0.936,0-1.814-0.363-2.476-1.024c-1.364-1.364-1.364-3.586,0-4.95l2.828-2.828   c0.661-0.661,1.54-1.025,2.476-1.025c0.935,0,1.813,0.364,2.475,1.025s1.025,1.54,1.025,2.476c0,0.935-0.364,1.813-1.025,2.475   l-2.828,2.828C21.057,13.894,20.178,14.257,19.243,14.257z"/>
	<g>
		<path style="fill:#BA9B48;" d="M22.071,4.929c0.801,0,1.555,0.312,2.121,0.879c1.17,1.17,1.17,3.073,0,4.243l-2.828,2.828    c-0.567,0.567-1.32,0.879-2.121,0.879s-1.555-0.312-2.121-0.879c-1.17-1.17-1.17-3.073,0-4.243l2.828-2.828    C20.516,5.241,21.27,4.929,22.071,4.929 M22.071,3.929c-1.024,0-2.047,0.391-2.828,1.172l-2.828,2.828    c-1.562,1.562-1.562,4.095,0,5.657c0.781,0.781,1.805,1.172,2.828,1.172s2.047-0.391,2.828-1.172l2.828-2.828    c1.562-1.562,1.562-4.095,0-5.657C24.118,4.319,23.095,3.929,22.071,3.929L22.071,3.929z"/>
	</g>
</g>
<g>
	<path style="fill:#D3E0BA;" d="M19.25,14.254c-0.546,0-1.079-0.126-1.563-0.366C18.159,12.484,19.499,11.5,21,11.5h2.45   l-1.732,1.732C21.059,13.891,20.183,14.254,19.25,14.254L19.25,14.254z"/>
	<g>
		<path style="fill:#849C5E;" d="M22.243,12l-0.879,0.879c-0.564,0.564-1.315,0.875-2.113,0.875c-0.309,0-0.614-0.047-0.905-0.139    C18.854,12.647,19.874,12,21,12H22.243 M24.657,11H21c-1.909,0-3.501,1.34-3.899,3.13c0.654,0.416,1.402,0.624,2.149,0.624    c1.021,0,2.041-0.389,2.821-1.168L24.657,11L24.657,11z"/>
	</g>
</g>
<g>
	<path style="fill:#FFDE9C;" d="M16.112,12.312c-0.672-1.339-0.424-2.95,0.655-4.03L18.5,6.55V9   C18.5,10.502,17.515,11.841,16.112,12.312z"/>
	<g>
		<path style="fill:#A1884A;" d="M18,7.757V9c0,1.126-0.647,2.146-1.614,2.654c-0.325-1.044-0.061-2.222,0.735-3.018L18,7.757     M19,5.343l-2.586,2.586c-1.35,1.35-1.528,3.423-0.544,4.97C17.66,12.501,19,10.909,19,9V5.343L19,5.343z"/>
	</g>
</g>
<g>
	<path style="fill:#DCD5F2;" d="M7.93,25.571c-0.936,0-1.814-0.364-2.476-1.025s-1.025-1.54-1.025-2.475   c0-0.936,0.364-1.814,1.025-2.476l2.828-2.828c0.661-0.661,1.54-1.024,2.475-1.024c0.936,0,1.814,0.363,2.476,1.024   c1.364,1.364,1.364,3.586,0,4.95l-2.828,2.828C9.743,25.207,8.864,25.571,7.93,25.571z"/>
	<g>
		<path style="fill:#8B75A1;" d="M10.757,16.243c0.801,0,1.555,0.312,2.121,0.879c1.17,1.17,1.17,3.073,0,4.243l-2.828,2.828    c-0.567,0.567-1.32,0.879-2.121,0.879s-1.555-0.312-2.121-0.879c-1.17-1.17-1.17-3.073,0-4.243l2.828-2.828    C9.203,16.555,9.956,16.243,10.757,16.243 M10.757,15.243c-1.024,0-2.047,0.391-2.828,1.172L5.1,19.243    c-1.562,1.562-1.562,4.095,0,5.657c0.781,0.781,1.805,1.172,2.828,1.172s2.047-0.391,2.828-1.172l2.828-2.828    c1.562-1.562,1.562-4.095,0-5.657C12.805,15.633,11.781,15.243,10.757,15.243L10.757,15.243z"/>
	</g>
</g>
<g>
	<path style="fill:#F2D5F2;" d="M6.55,18.5l1.732-1.732c0.659-0.658,1.535-1.021,2.468-1.021c0.546,0,1.079,0.126,1.562,0.366   C11.841,17.516,10.501,18.5,9,18.5H6.55z"/>
	<g>
		<path style="fill:#9775A1;" d="M10.75,16.246c0.309,0,0.614,0.047,0.905,0.139C11.146,17.353,10.126,18,9,18H7.757l0.879-0.879    C9.2,16.557,9.951,16.246,10.75,16.246 M10.75,15.246c-1.021,0-2.041,0.389-2.821,1.168L5.343,19H9c1.909,0,3.501-1.34,3.899-3.13    C12.245,15.455,11.497,15.246,10.75,15.246L10.75,15.246z"/>
	</g>
</g>
<g>
	<path style="fill:#BDC9F2;" d="M11.5,21c0-1.502,0.985-2.841,2.388-3.312c0.672,1.339,0.424,2.95-0.655,4.03L11.5,23.45V21z"/>
	<g>
		<path style="fill:#7575A1;" d="M13.614,18.346c0.325,1.044,0.061,2.222-0.735,3.018L12,22.243V21    C12,19.874,12.647,18.854,13.614,18.346 M14.13,17.101C12.34,17.499,11,19.091,11,21v3.657l2.586-2.586    C14.936,20.721,15.113,18.648,14.13,17.101L14.13,17.101z"/>
	</g>
</g>
<g>
	<path style="fill:#C2E8FF;" d="M22.071,25.571c-0.936,0-1.814-0.364-2.476-1.025l-2.828-2.828c-1.364-1.364-1.364-3.586,0-4.95   c0.661-0.661,1.54-1.024,2.476-1.024c0.935,0,1.813,0.363,2.475,1.024l2.828,2.828c0.661,0.661,1.025,1.54,1.025,2.476   c0,0.935-0.364,1.813-1.025,2.475S23.006,25.571,22.071,25.571z"/>
	<g>
		<path style="fill:#7496C4;" d="M19.243,16.243c0.801,0,1.555,0.312,2.121,0.879l2.828,2.828c1.17,1.17,1.17,3.073,0,4.243    c-0.567,0.567-1.32,0.879-2.121,0.879s-1.555-0.312-2.121-0.879l-2.828-2.828c-1.17-1.17-1.17-3.073,0-4.243    C17.688,16.555,18.441,16.243,19.243,16.243 M19.243,15.243c-1.024,0-2.047,0.391-2.828,1.172c-1.562,1.562-1.562,4.095,0,5.657    l2.828,2.828c0.781,0.781,1.805,1.172,2.828,1.172s2.047-0.391,2.828-1.172c1.562-1.562,1.562-4.095,0-5.657l-2.828-2.828    C21.29,15.633,20.266,15.243,19.243,15.243L19.243,15.243z"/>
	</g>
</g>
<g>
	<path style="fill:#C2DEFF;" d="M16.768,21.718c-1.079-1.08-1.327-2.691-0.655-4.03C17.515,18.159,18.5,19.498,18.5,21v2.45   L16.768,21.718z"/>
	<g>
		<path style="fill:#6388BA;" d="M16.386,18.346C17.353,18.854,18,19.874,18,21v1.243l-0.879-0.879    C16.325,20.568,16.061,19.39,16.386,18.346 M15.87,17.101c-0.984,1.547-0.806,3.62,0.544,4.97L19,24.657V21    C19,19.091,17.66,17.499,15.87,17.101L15.87,17.101z"/>
	</g>
</g>
<g>
	<path style="fill:#C2FBFF;" d="M21,18.5c-1.501,0-2.841-0.984-3.313-2.388c0.483-0.24,1.017-0.366,1.563-0.366   c0.933,0,1.809,0.363,2.468,1.021L23.45,18.5H21z"/>
	<g>
		<path style="fill:#689DBA;" d="M19.25,16.246c0.799,0,1.549,0.311,2.113,0.875L22.243,18H21c-1.126,0-2.146-0.647-2.655-1.615    C18.636,16.293,18.941,16.246,19.25,16.246 M19.25,15.246c-0.748,0-1.495,0.208-2.149,0.624C17.499,17.66,19.091,19,21,19h3.657    l-2.586-2.586C21.292,15.635,20.271,15.246,19.25,15.246L19.25,15.246z"/>
	</g>
</g>
<g>
	<path style="fill:#F78F8F;" d="M10.757,14.257c-0.935,0-1.813-0.363-2.475-1.024l-2.828-2.828C4.793,9.743,4.429,8.864,4.429,7.93   c0-0.936,0.364-1.814,1.025-2.476s1.54-1.025,2.476-1.025c0.935,0,1.813,0.364,2.475,1.025l2.828,2.828   c1.364,1.364,1.364,3.586,0,4.95C12.571,13.894,11.692,14.257,10.757,14.257z"/>
	<g>
		<path style="fill:#C74343;" d="M7.929,4.929c0.801,0,1.555,0.312,2.121,0.879l2.828,2.828c1.17,1.17,1.17,3.073,0,4.243    c-0.567,0.567-1.32,0.879-2.121,0.879s-1.555-0.312-2.121-0.879L5.808,10.05c-1.17-1.17-1.17-3.073,0-4.243    C6.374,5.241,7.128,4.929,7.929,4.929 M7.929,3.929c-1.024,0-2.047,0.391-2.828,1.172c-1.562,1.562-1.562,4.095,0,5.657    l2.828,2.828c0.781,0.781,1.805,1.172,2.828,1.172s2.047-0.391,2.828-1.172c1.562-1.562,1.562-4.095,0-5.657l-2.828-2.828    C9.976,4.319,8.953,3.929,7.929,3.929L7.929,3.929z"/>
	</g>
</g>
<g>
	<path style="fill:#F7B08F;" d="M13.888,12.312C12.485,11.841,11.5,10.502,11.5,9V6.55l1.732,1.732   C14.312,9.362,14.56,10.974,13.888,12.312z"/>
	<g>
		<path style="fill:#C75943;" d="M12,7.757l0.879,0.879c0.796,0.796,1.06,1.974,0.735,3.018C12.647,11.146,12,10.126,12,9V7.757     M11,5.343V9c0,1.909,1.34,3.501,3.13,3.899c0.984-1.547,0.806-3.62-0.544-4.97L11,5.343L11,5.343z"/>
	</g>
</g>
<g>
	<path style="fill:#F78FAE;" d="M10.75,14.254c-0.933,0-1.809-0.363-2.468-1.021L6.55,11.5H9c1.501,0,2.841,0.984,3.312,2.388   C11.829,14.128,11.296,14.254,10.75,14.254L10.75,14.254z"/>
	<g>
		<path style="fill:#C7435B;" d="M9,12c1.126,0,2.146,0.647,2.655,1.615c-0.291,0.091-0.595,0.139-0.905,0.139    c-0.799,0-1.549-0.311-2.113-0.875L7.757,12H9 M9,11H5.343l2.586,2.586c0.779,0.779,1.8,1.168,2.821,1.168    c0.748,0,1.495-0.208,2.149-0.624C12.501,12.34,10.909,11,9,11L9,11z"/>
	</g>
</g>
</svg>