<?xml version="1.0" encoding="iso-8859-1"?><!-- Generator: Adobe Illustrator 19.2.1, SVG Export Plug-In . SVG Version: 6.00 Build 0)  --><svg xmlns="http://www.w3.org/2000/svg" xmlns:xlink="http://www.w3.org/1999/xlink" version="1.1" id="Layer_1" x="0px" y="0px" viewBox="0 0 40 40" style="enable-background:new 0 0 40 40;" xml:space="preserve" width="40" height="40">
<g>
	<path style="fill:#FFC49C;" d="M20,16.5c-2.481,0-4.5-2.019-4.5-4.5V6c0-2.481,2.019-4.5,4.5-4.5s4.5,2.019,4.5,4.5v6   C24.5,14.481,22.481,16.5,20,16.5z"/>
	<g>
		<path style="fill:#A16A4A;" d="M20,2c2.206,0,4,1.794,4,4v6c0,2.206-1.794,4-4,4s-4-1.794-4-4V6C16,3.794,17.794,2,20,2 M20,1    c-2.761,0-5,2.239-5,5v6c0,2.761,2.239,5,5,5s5-2.239,5-5V6C25,3.239,22.761,1,20,1L20,1z"/>
	</g>
</g>
<g>
	<path style="fill:#8BB7F0;" d="M20,38.5c-2.481,0-4.5-2.019-4.5-4.5v-6c0-2.481,2.019-4.5,4.5-4.5s4.5,2.019,4.5,4.5v6   C24.5,36.481,22.481,38.5,20,38.5z"/>
	<g>
		<path style="fill:#4E7AB5;" d="M20,24c2.206,0,4,1.794,4,4v6c0,2.206-1.794,4-4,4s-4-1.794-4-4v-6C16,25.794,17.794,24,20,24     M20,23c-2.761,0-5,2.239-5,5v6c0,2.761,2.239,5,5,5s5-2.239,5-5v-6C25,25.239,22.761,23,20,23L20,23z"/>
	</g>
</g>
<g>
	<path style="fill:#BAE0BD;" d="M28,24.5c-2.481,0-4.5-2.019-4.5-4.5s2.019-4.5,4.5-4.5h6c2.481,0,4.5,2.019,4.5,4.5   s-2.019,4.5-4.5,4.5H28z"/>
	<g>
		<path style="fill:#5E9C76;" d="M34,16c2.206,0,4,1.794,4,4s-1.794,4-4,4h-6c-2.206,0-4-1.794-4-4s1.794-4,4-4H34 M34,15h-6    c-2.761,0-5,2.239-5,5s2.239,5,5,5h6c2.761,0,5-2.239,5-5S36.761,15,34,15L34,15z"/>
	</g>
</g>
<g>
	<path style="fill:#F2D5F2;" d="M6,24.5c-2.481,0-4.5-2.019-4.5-4.5s2.019-4.5,4.5-4.5h6c2.481,0,4.5,2.019,4.5,4.5   s-2.019,4.5-4.5,4.5H6z"/>
	<g>
		<path style="fill:#A175A0;" d="M12,16c2.206,0,4,1.794,4,4s-1.794,4-4,4H6c-2.206,0-4-1.794-4-4s1.794-4,4-4H12 M12,15H6    c-2.761,0-5,2.239-5,5s2.239,5,5,5h6c2.761,0,5-2.239,5-5S14.761,15,12,15L12,15z"/>
	</g>
</g>
<g>
	<path style="fill:#FFEEA3;" d="M25.657,18.843c-1.202,0-2.332-0.468-3.183-1.317c-1.754-1.755-1.754-4.61,0-6.364l4.243-4.242   c0.85-0.851,1.979-1.318,3.182-1.318s2.332,0.468,3.182,1.318c0.851,0.85,1.318,1.979,1.318,3.182s-0.468,2.332-1.318,3.182   l-4.242,4.243C27.989,18.375,26.859,18.843,25.657,18.843z"/>
	<g>
		<path style="fill:#BA9B48;" d="M29.899,6.1c1.068,0,2.073,0.416,2.828,1.172c1.56,1.56,1.56,4.097,0,5.657l-4.243,4.243    c-0.755,0.756-1.76,1.172-2.828,1.172s-2.073-0.416-2.828-1.172c-0.756-0.755-1.172-1.76-1.172-2.828    c0-1.068,0.416-2.073,1.172-2.828l4.243-4.243C27.827,6.517,28.831,6.1,29.899,6.1 M29.899,5.1c-1.28,0-2.559,0.488-3.536,1.464    l-4.243,4.243c-1.953,1.953-1.953,5.118,0,7.071l0,0c0.976,0.976,2.256,1.464,3.536,1.464s2.559-0.488,3.536-1.464l4.243-4.243    c1.953-1.953,1.953-5.118,0-7.071C32.459,5.589,31.179,5.1,29.899,5.1L29.899,5.1z"/>
	</g>
</g>
<g>
	<path style="fill:#D3E0BA;" d="M25.686,18.83c-0.648,0-1.29-0.14-1.878-0.407C24.46,16.684,26.131,15.5,28,15.5h2.864l-2.025,2.025   C27.997,18.366,26.878,18.83,25.686,18.83L25.686,18.83z"/>
	<g>
		<path style="fill:#849C5E;" d="M29.657,16l-1.172,1.172c-0.747,0.747-1.741,1.158-2.8,1.158c-0.41,0-0.818-0.063-1.207-0.185    C25.158,16.85,26.508,16,28,16H29.657 M32.071,15H28c-2.299,0-4.216,1.561-4.8,3.674c0.769,0.436,1.628,0.655,2.485,0.655    c1.27,0,2.537-0.481,3.507-1.451L32.071,15L32.071,15z"/>
	</g>
</g>
<g>
	<path style="fill:#FFDE9C;" d="M21.577,16.193c-0.769-1.692-0.424-3.71,0.897-5.032L24.5,9.136V12   C24.5,13.869,23.316,15.54,21.577,16.193z"/>
	<g>
		<path style="fill:#A1884A;" d="M24,10.343V12c0,1.492-0.85,2.842-2.145,3.522c-0.435-1.396-0.082-2.952,0.973-4.007L24,10.343     M25,7.929l-2.879,2.879c-1.626,1.626-1.877,4.085-0.796,5.992C23.439,16.216,25,14.299,25,12V7.929L25,7.929z"/>
	</g>
</g>
<g>
	<path style="fill:#DCD5F2;" d="M10.101,34.399c-1.202,0-2.332-0.468-3.182-1.318c-0.851-0.85-1.318-1.979-1.318-3.182   s0.468-2.332,1.318-3.182l4.242-4.243c0.85-0.85,1.979-1.317,3.182-1.317s2.332,0.468,3.183,1.317c1.754,1.755,1.754,4.61,0,6.364   l-4.243,4.242C12.433,33.932,11.303,34.399,10.101,34.399z"/>
	<g>
		<path style="fill:#8B75A1;" d="M14.343,21.657c1.068,0,2.073,0.416,2.828,1.172c0.756,0.755,1.172,1.76,1.172,2.828    c0,1.068-0.416,2.073-1.172,2.828l-4.243,4.243c-0.756,0.756-1.76,1.172-2.828,1.172c-1.068,0-2.073-0.416-2.828-1.172    c-1.56-1.56-1.56-4.097,0-5.657l4.243-4.243C12.27,22.073,13.275,21.657,14.343,21.657 M14.343,20.657    c-1.28,0-2.559,0.488-3.536,1.464l-4.243,4.243c-1.953,1.953-1.953,5.118,0,7.071c0.976,0.976,2.256,1.464,3.536,1.464    c1.28,0,2.559-0.488,3.536-1.464l4.243-4.243c1.953-1.953,1.953-5.118,0-7.071l0,0C16.902,21.145,15.623,20.657,14.343,20.657    L14.343,20.657z"/>
	</g>
</g>
<g>
	<path style="fill:#F2D5F2;" d="M9.136,24.5l2.025-2.025c0.842-0.841,1.961-1.305,3.153-1.305c0.648,0,1.29,0.14,1.878,0.407   C15.54,23.316,13.869,24.5,12,24.5H9.136z"/>
	<g>
		<path style="fill:#9775A1;" d="M14.315,21.67c0.41,0,0.818,0.063,1.207,0.185C14.842,23.15,13.493,24,12,24h-1.657l1.172-1.172    C12.262,22.081,13.256,21.67,14.315,21.67 M14.315,20.67c-1.27,0-2.537,0.481-3.507,1.451L7.929,25H12    c2.299,0,4.216-1.561,4.8-3.674C16.031,20.889,15.172,20.67,14.315,20.67L14.315,20.67z"/>
	</g>
</g>
<g>
	<path style="fill:#BDC9F2;" d="M15.5,28c0-1.869,1.184-3.54,2.923-4.193c0.769,1.692,0.424,3.71-0.897,5.032L15.5,30.864V28z"/>
	<g>
		<path style="fill:#7575A1;" d="M18.145,24.478c0.435,1.396,0.082,2.952-0.973,4.007L16,29.657V28    C16,26.508,16.85,25.158,18.145,24.478 M18.674,23.2C16.561,23.784,15,25.701,15,28v4.071l2.879-2.879    C19.505,27.567,19.756,25.108,18.674,23.2L18.674,23.2z"/>
	</g>
</g>
<g>
	<path style="fill:#C2E8FF;" d="M29.899,34.399c-1.202,0-2.332-0.468-3.182-1.318l-4.243-4.242c-1.754-1.754-1.754-4.609,0-6.364   c0.851-0.85,1.98-1.317,3.183-1.317s2.332,0.468,3.182,1.317l4.242,4.243c0.851,0.85,1.318,1.979,1.318,3.182   s-0.468,2.332-1.318,3.182C32.231,33.932,31.102,34.399,29.899,34.399z"/>
	<g>
		<path style="fill:#7496C4;" d="M25.657,21.657c1.068,0,2.073,0.416,2.828,1.172l4.243,4.243c1.56,1.56,1.56,4.097,0,5.657    c-0.755,0.756-1.76,1.172-2.828,1.172c-1.068,0-2.073-0.416-2.828-1.172l-4.243-4.243c-0.755-0.755-1.172-1.76-1.172-2.828    s0.416-2.073,1.172-2.828C23.584,22.073,24.588,21.657,25.657,21.657 M25.657,20.657c-1.28,0-2.559,0.488-3.536,1.464l0,0    c-1.953,1.953-1.953,5.118,0,7.071l4.243,4.243c0.976,0.976,2.256,1.464,3.536,1.464c1.28,0,2.559-0.488,3.536-1.464    c1.953-1.953,1.953-5.118,0-7.071l-4.243-4.243C28.216,21.145,26.936,20.657,25.657,20.657L25.657,20.657z"/>
	</g>
</g>
<g>
	<path style="fill:#C2DEFF;" d="M22.475,28.839c-1.321-1.322-1.666-3.34-0.897-5.032C23.316,24.46,24.5,26.131,24.5,28v2.864   L22.475,28.839z"/>
	<g>
		<path style="fill:#6388BA;" d="M21.855,24.478C23.15,25.158,24,26.508,24,28v1.657l-1.172-1.172    C21.773,27.43,21.42,25.874,21.855,24.478 M21.326,23.2c-1.082,1.907-0.83,4.366,0.796,5.992L25,32.071V28    C25,25.701,23.439,23.784,21.326,23.2L21.326,23.2z"/>
	</g>
</g>
<g>
	<path style="fill:#C2FBFF;" d="M28,24.5c-1.869,0-3.54-1.184-4.192-2.923c0.588-0.268,1.229-0.407,1.878-0.407   c1.192,0,2.312,0.464,3.153,1.305l2.025,2.025H28z"/>
	<g>
		<path style="fill:#689DBA;" d="M25.685,21.67c1.059,0,2.053,0.411,2.8,1.158L29.657,24H28c-1.493,0-2.842-0.85-3.522-2.145    C24.868,21.733,25.275,21.67,25.685,21.67 M25.685,20.67c-0.858,0-1.716,0.219-2.485,0.655C23.784,23.439,25.701,25,28,25h4.071    l-2.879-2.879C28.222,21.151,26.955,20.67,25.685,20.67L25.685,20.67z"/>
	</g>
</g>
<g>
	<path style="fill:#F78F8F;" d="M14.343,18.843c-1.202,0-2.332-0.468-3.182-1.317l-4.242-4.243c-0.851-0.85-1.318-1.979-1.318-3.182   s0.468-2.332,1.318-3.182c0.85-0.851,1.979-1.318,3.182-1.318s2.332,0.468,3.182,1.318l4.243,4.242   c1.754,1.754,1.754,4.609,0,6.364C16.675,18.375,15.545,18.843,14.343,18.843z"/>
	<g>
		<path style="fill:#C74343;" d="M10.101,6.1c1.068,0,2.073,0.416,2.828,1.172l4.243,4.243c0.755,0.755,1.172,1.76,1.172,2.828    s-0.416,2.073-1.172,2.828c-0.755,0.756-1.76,1.172-2.828,1.172s-2.073-0.416-2.828-1.172l-4.243-4.243    c-1.56-1.56-1.56-4.097,0-5.657C8.028,6.517,9.032,6.1,10.101,6.1 M10.101,5.1c-1.28,0-2.559,0.488-3.536,1.464    c-1.953,1.953-1.953,5.118,0,7.071l4.243,4.243c0.976,0.976,2.256,1.464,3.536,1.464s2.559-0.488,3.536-1.464l0,0    c1.953-1.953,1.953-5.118,0-7.071l-4.243-4.243C12.66,5.589,11.38,5.1,10.101,5.1L10.101,5.1z"/>
	</g>
</g>
<g>
	<path style="fill:#F7B08F;" d="M18.423,16.193C16.684,15.54,15.5,13.869,15.5,12V9.136l2.025,2.025   C18.847,12.483,19.191,14.501,18.423,16.193z"/>
	<g>
		<path style="fill:#C75943;" d="M16,10.343l1.172,1.172c1.055,1.055,1.409,2.611,0.973,4.007C16.85,14.842,16,13.492,16,12V10.343     M15,7.929V12c0,2.299,1.561,4.216,3.674,4.8c1.082-1.907,0.83-4.366-0.796-5.992L15,7.929L15,7.929z"/>
	</g>
</g>
<g>
	<path style="fill:#F78FAE;" d="M14.314,18.83c-1.192,0-2.312-0.464-3.153-1.305L9.136,15.5H12c1.869,0,3.54,1.184,4.192,2.923   C15.604,18.69,14.963,18.83,14.314,18.83L14.314,18.83z"/>
	<g>
		<path style="fill:#C7435B;" d="M12,16c1.492,0,2.842,0.85,3.522,2.145c-0.389,0.122-0.797,0.185-1.207,0.185    c-1.059,0-2.053-0.411-2.8-1.158L10.343,16H12 M12,15H7.929l2.879,2.879c0.97,0.97,2.238,1.451,3.507,1.451    c0.858,0,1.716-0.219,2.485-0.655C16.216,16.561,14.299,15,12,15L12,15z"/>
	</g>
</g>
</svg>