<?xml version="1.0" encoding="iso-8859-1"?><!-- Generator: Adobe Illustrator 19.2.1, SVG Export Plug-In . SVG Version: 6.00 Build 0)  --><svg xmlns="http://www.w3.org/2000/svg" xmlns:xlink="http://www.w3.org/1999/xlink" version="1.1" x="0px" y="0px" viewBox="0 0 40 40" style="enable-background:new 0 0 40 40;" xml:space="preserve" width="40" height="40">
<g id="Layer_1">
</g>
<g id="Layer_2">
	<g>
		<path style="fill:#F78F8F;" d="M20,38.225C17.771,35.562,6.5,21.755,6.5,15C6.5,7.556,12.556,1.5,20,1.5S33.5,7.556,33.5,15    C33.5,21.757,22.229,35.562,20,38.225z"/>
		<g>
			<path style="fill:#C74343;" d="M20,2c7.168,0,13,5.832,13,13c0,6.268-10.116,18.954-13,22.443C17.116,33.954,7,21.268,7,15     C7,7.832,12.832,2,20,2 M20,1C12.268,1,6,7.268,6,15s14,24,14,24s14-16.268,14-24S27.732,1,20,1L20,1z"/>
		</g>
	</g>
	<path style="fill:#FFFFFF;" d="M16.686,22h-2.354V11.547h2.354V22z"/>
	<path style="fill:#FFFFFF;" d="M21.715,18.399V22h-2.354V11.547h3.688c2.634,0,3.951,1.111,3.951,3.331   c0,1.05-0.378,1.899-1.133,2.548c-0.756,0.648-1.765,0.973-3.029,0.973H21.715z M21.715,13.355v3.258h0.926   c1.254,0,1.881-0.549,1.881-1.647c0-1.074-0.627-1.611-1.881-1.611H21.715z"/>
</g>
</svg>