<?xml version="1.0" encoding="iso-8859-1"?><!-- Generator: Adobe Illustrator 19.2.1, SVG Export Plug-In . SVG Version: 6.00 Build 0)  --><svg xmlns="http://www.w3.org/2000/svg" xmlns:xlink="http://www.w3.org/1999/xlink" version="1.1" id="Layer_1" x="0px" y="0px" viewBox="0 0 30 30" style="enable-background:new 0 0 30 30;" xml:space="preserve" width="30" height="30">
<g>
	<path style="fill:#F78F8F;" d="M15,28.19C13.166,25.828,5.5,15.676,5.5,11c0-5.238,4.262-9.5,9.5-9.5s9.5,4.262,9.5,9.5   C24.5,15.676,16.834,25.828,15,28.19z"/>
	<g>
		<path style="fill:#C74343;" d="M15,2c4.963,0,9,4.037,9,9c0,3.88-5.911,12.364-9,16.379C11.911,23.364,6,14.88,6,11    C6,6.037,10.037,2,15,2 M15,1C9.477,1,5,5.477,5,11s10,18,10,18s10-12.477,10-18S20.523,1,15,1L15,1z"/>
	</g>
</g>
<path style="fill:#FFFFFF;" d="M12.884,15.5h-1.735V7.798h1.735V15.5z"/>
<path style="fill:#FFFFFF;" d="M16.59,12.847V15.5h-1.735V7.798h2.718c1.941,0,2.911,0.818,2.911,2.455  c0,0.773-0.278,1.399-0.835,1.877c-0.557,0.478-1.301,0.717-2.232,0.717H16.59z M16.59,9.13v2.401h0.682  c0.924,0,1.386-0.405,1.386-1.214c0-0.792-0.462-1.187-1.386-1.187H16.59z"/>
</svg>