<?xml version="1.0" encoding="iso-8859-1"?><!-- Generator: Adobe Illustrator 19.2.1, SVG Export Plug-In . SVG Version: 6.00 Build 0)  --><svg xmlns="http://www.w3.org/2000/svg" xmlns:xlink="http://www.w3.org/1999/xlink" version="1.1" id="Layer_1" x="0px" y="0px" viewBox="0 0 80 80" style="enable-background:new 0 0 80 80;" xml:space="preserve" width="80" height="80">
<g>
	<path style="fill:#F78F8F;" d="M40,77.228C36.66,73.268,12.5,44.129,12.5,30C12.5,14.836,24.836,2.5,40,2.5S67.5,14.836,67.5,30   C67.5,44.131,43.34,73.268,40,77.228z"/>
	<g>
		<path style="fill:#C74343;" d="M40,3c14.888,0,27,12.112,27,27c0,13.51-22.542,41.123-27,46.45C35.542,71.123,13,43.513,13,30    C13,15.112,25.112,3,40,3 M40,2C24.536,2,12,14.536,12,30s28,48,28,48s28-32.536,28-48S55.464,2,40,2L40,2z"/>
	</g>
</g>
<path style="fill:#FFFFFF;" d="M35.236,45h-5V22h5V45z"/>
<path style="fill:#FFFFFF;" d="M44.236,36.139V45h-5V22h7.611C52.283,22,55,24.292,55,28.874c0,2.166-0.779,3.918-2.338,5.258  c-1.56,1.337-3.643,2.007-6.25,2.007H44.236z M44.236,25.73v6.724h1.769c2.587,0,3.881-1.134,3.881-3.399  c0-2.217-1.294-3.324-3.881-3.324H44.236z"/>
</svg>