<?xml version="1.0" encoding="iso-8859-1"?><!-- Generator: Adobe Illustrator 19.2.1, SVG Export Plug-In . SVG Version: 6.00 Build 0)  --><svg xmlns="http://www.w3.org/2000/svg" xmlns:xlink="http://www.w3.org/1999/xlink" version="1.1" id="Layer_1" x="0px" y="0px" viewBox="0 0 16 16" style="enable-background:new 0 0 16 16;" xml:space="preserve" width="16" height="16">
<g>
	<path style="fill:#F78F8F;" d="M8,15.191c-1.753-2.269-5.214-7.216-5.214-9.477C2.786,2.839,5.125,0.5,8,0.5   s5.214,2.339,5.214,5.214C13.214,7.976,9.753,12.922,8,15.191z"/>
	<g>
		<path style="fill:#C74343;" d="M8,1c2.599,0,4.714,2.115,4.714,4.714c0,1.805-2.636,5.898-4.714,8.655    c-2.079-2.756-4.714-6.848-4.714-8.655C3.286,3.115,5.401,1,8,1 M8,0C4.844,0,2.286,2.558,2.286,5.714C2.286,8.87,8,16,8,16    s5.714-7.13,5.714-10.286C13.714,2.558,11.156,0,8,0L8,0z"/>
	</g>
</g>
<path style="fill:#FFFFFF;" d="M6.791,8.401H5.8V4h0.991V8.401z"/>
<path style="fill:#FFFFFF;" d="M8.909,6.885v1.516H7.917V4H9.47c1.109,0,1.664,0.468,1.664,1.403c0,0.442-0.159,0.799-0.477,1.073  c-0.318,0.273-0.743,0.41-1.275,0.41H8.909z M8.909,4.761v1.372h0.39c0.528,0,0.792-0.231,0.792-0.694  c0-0.452-0.264-0.678-0.792-0.678H8.909z"/>
</svg>