<?xml version="1.0" encoding="iso-8859-1"?><!-- Generator: Adobe Illustrator 19.2.1, SVG Export Plug-In . SVG Version: 6.00 Build 0)  --><svg xmlns="http://www.w3.org/2000/svg" xmlns:xlink="http://www.w3.org/1999/xlink" version="1.1" id="Layer_1" x="0px" y="0px" viewBox="0 0 30 30" style="enable-background:new 0 0 30 30;" xml:space="preserve" width="30" height="30">
<g>
	<rect x="1.5" y="3.5" style="fill:#BAE0BD;" width="27" height="23"/>
	<g>
		<path style="fill:#5E9C76;" d="M28,4v22H2V4H28 M29,3H1v24h28V3L29,3z"/>
	</g>
</g>
<path style="fill:#FFFFFF;" d="M15,14.817l-2.569-4.281C11.234,8.54,12.672,6,15,6h0c2.328,0,3.766,2.54,2.569,4.536L15,14.817z"/>
<path style="fill:#FFFFFF;" d="M15,15.183l2.569,4.281C18.766,21.46,17.328,24,15,24h0c-2.328,0-3.766-2.54-2.569-4.536L15,15.183z"/>
<path style="fill:#FFFFFF;" d="M14.842,14.909L9.85,14.993c-2.328,0.039-3.809-2.476-2.644-4.493l0,0  c1.164-2.016,4.083-1.992,5.213,0.044L14.842,14.909z"/>
<path style="fill:#FFFFFF;" d="M15.158,15.091l4.992-0.084c2.328-0.039,3.809,2.476,2.644,4.493l0,0  c-1.164,2.016-4.083,1.992-5.213-0.044L15.158,15.091z"/>
<path style="fill:#FFFFFF;" d="M14.842,15.091l-2.423,4.365c-1.13,2.036-4.049,2.06-5.213,0.044l0,0  c-1.164-2.016,0.316-4.532,2.644-4.493L14.842,15.091z"/>
<path style="fill:#FFFFFF;" d="M15.158,14.909l2.423-4.365c1.13-2.036,4.049-2.06,5.213-0.044l0,0  c1.164,2.016-0.316,4.532-2.644,4.493L15.158,14.909z"/>
<circle style="fill:#FFEEA3;" cx="15" cy="15" r="3"/>
</svg>