<?xml version="1.0" encoding="iso-8859-1"?><!-- Generator: Adobe Illustrator 19.2.1, SVG Export Plug-In . SVG Version: 6.00 Build 0)  --><svg xmlns="http://www.w3.org/2000/svg" xmlns:xlink="http://www.w3.org/1999/xlink" version="1.1" id="Layer_1" x="0px" y="0px" viewBox="0 0 40 40" style="enable-background:new 0 0 40 40;" xml:space="preserve" width="40" height="40">
<g>
	<rect x="1.5" y="4.5" style="fill:#BAE0BD;" width="37" height="31"/>
	<g>
		<path style="fill:#5E9C76;" d="M38,5v30H2V5H38 M39,4H1v32h38V4L39,4z"/>
	</g>
</g>
<path style="fill:#FFFFFF;" d="M20,19.756l-3.425-5.708C14.978,11.387,16.896,8,20,8h0c3.104,0,5.022,3.387,3.425,6.049L20,19.756z"/>
<path style="fill:#FFFFFF;" d="M20,20.244l3.425,5.708C25.022,28.613,23.104,32,20,32h0c-3.104,0-5.022-3.387-3.425-6.049L20,20.244  z"/>
<path style="fill:#FFFFFF;" d="M19.789,19.878l-6.655,0.112C10.03,20.042,8.056,16.688,9.608,14l0,0  c1.552-2.688,5.444-2.656,6.951,0.058L19.789,19.878z"/>
<path style="fill:#FFFFFF;" d="M20.211,20.122l6.655-0.112c3.104-0.052,5.078,3.302,3.526,5.99l0,0  c-1.552,2.688-5.444,2.656-6.951-0.058L20.211,20.122z"/>
<path style="fill:#FFFFFF;" d="M19.789,20.122l-3.231,5.82C15.052,28.656,11.16,28.688,9.608,26l0,0  c-1.552-2.688,0.422-6.042,3.526-5.99L19.789,20.122z"/>
<path style="fill:#FFFFFF;" d="M20.211,19.878l3.231-5.82c1.507-2.714,5.398-2.747,6.951-0.058l0,0  c1.552,2.688-0.422,6.042-3.526,5.99L20.211,19.878z"/>
<circle style="fill:#FFEEA3;" cx="20" cy="20" r="4"/>
</svg>