<?xml version="1.0" encoding="iso-8859-1"?><!-- Generator: Adobe Illustrator 19.2.1, SVG Export Plug-In . SVG Version: 6.00 Build 0)  --><svg xmlns="http://www.w3.org/2000/svg" xmlns:xlink="http://www.w3.org/1999/xlink" version="1.1" id="Layer_1" x="0px" y="0px" viewBox="0 0 80 80" style="enable-background:new 0 0 80 80;" xml:space="preserve" width="80" height="80">
<g>
	<rect x="2.5" y="8.5" style="fill:#BAE0BD;" width="75" height="63"/>
	<g>
		<path style="fill:#5E9C76;" d="M77,9v62H3V9H77 M78,8H2v64h76V8L78,8z"/>
	</g>
</g>
<path style="fill:#FFFFFF;" d="M40,42l-6.849-13.903C29.956,22.773,33.791,16,40,16h0c6.209,0,10.044,6.773,6.849,12.097L40,42z"/>
<path style="fill:#FFFFFF;" d="M40,38l6.849,13.903C50.044,57.227,46.209,64,40,64h0c-6.209,0-10.044-6.773-6.849-12.097L40,38z"/>
<path style="fill:#FFFFFF;" d="M41,41l-14.733-1.02c-6.208,0.104-10.156-6.603-7.052-11.98l0,0  c3.104-5.377,10.888-5.311,13.901,0.117L41,41z"/>
<path style="fill:#FFFFFF;" d="M39,39l14.733,1.02c6.208-0.104,10.156,6.603,7.052,11.98l0,0  c-3.104,5.377-10.888,5.311-13.901-0.117L39,39z"/>
<path style="fill:#FFFFFF;" d="M42,39l-8.883,12.883C30.103,57.311,22.32,57.377,19.215,52l0,0  c-3.104-5.377,0.844-12.085,7.052-11.98L42,39z"/>
<path style="fill:#FFFFFF;" d="M39,41l7.883-12.883C49.897,22.689,57.68,22.623,60.785,28l0,0c3.104,5.377-0.844,12.085-7.052,11.98  L39,41z"/>
<circle style="fill:#FFEEA3;" cx="40" cy="40" r="8"/>
</svg>