<?xml version="1.0" encoding="iso-8859-1"?><!-- Generator: Adobe Illustrator 19.2.1, SVG Export Plug-In . SVG Version: 6.00 Build 0)  --><svg xmlns="http://www.w3.org/2000/svg" xmlns:xlink="http://www.w3.org/1999/xlink" version="1.1" x="0px" y="0px" viewBox="0 0 16 16" style="enable-background:new 0 0 16 16;" xml:space="preserve" width="16" height="16">
<g id="Layer_1">
	<g>
		<rect x="0.5" y="1.5" style="fill:#BAE0BD;" width="15" height="13"/>
		<g>
			<path style="fill:#5E9C76;" d="M15,2v12H1V2H15 M16,1H0v14h16V1L16,1z"/>
		</g>
	</g>
	<path style="fill:#FFFFFF;" d="M8,7.899L6.573,5.52C5.908,4.411,6.707,3,8,3h0c1.293,0,2.092,1.411,1.427,2.52L8,7.899z"/>
	<path style="fill:#FFFFFF;" d="M8,8.101l1.427,2.378C10.092,11.589,9.293,13,8,13h0c-1.293,0-2.092-1.411-1.427-2.52L8,8.101z"/>
	<path style="fill:#FFFFFF;" d="M7.912,7.949L5.139,7.996C3.846,8.018,3.023,6.62,3.67,5.5l0,0c0.647-1.12,2.268-1.107,2.896,0.024   L7.912,7.949z"/>
	<path style="fill:#FFFFFF;" d="M8.088,8.051l2.773-0.047c1.293-0.022,2.116,1.376,1.469,2.496l0,0   c-0.647,1.12-2.268,1.107-2.896-0.024L8.088,8.051z"/>
	<path style="fill:#FFFFFF;" d="M7.912,8.051l-1.346,2.425C5.938,11.607,4.317,11.62,3.67,10.5l0,0   C3.023,9.38,3.846,7.982,5.139,8.004L7.912,8.051z"/>
	<path style="fill:#FFFFFF;" d="M8.088,7.949l1.346-2.425C10.062,4.393,11.683,4.38,12.33,5.5l0,0   c0.647,1.12-0.176,2.518-1.469,2.496L8.088,7.949z"/>
	<circle style="fill:#FFEEA3;" cx="8" cy="8" r="2"/>
</g>
<g id="Layer_2">
</g>
</svg>