<?xml version="1.0" encoding="iso-8859-1"?><!-- Generator: Adobe Illustrator 19.2.1, SVG Export Plug-In . SVG Version: 6.00 Build 0)  --><svg xmlns="http://www.w3.org/2000/svg" xmlns:xlink="http://www.w3.org/1999/xlink" version="1.1" id="Layer_1" x="0px" y="0px" viewBox="0 0 16 16" style="enable-background:new 0 0 16 16;" xml:space="preserve" width="16" height="16">
<g>
	<rect x="1.5" y="1.5" style="fill:#8BB7F0;" width="13" height="13"/>
	<path style="fill:#4E7AB5;" d="M14,2v12H2V2H14 M15,1H1v14h14V1L15,1z"/>
</g>
<polygon style="fill:#FFFFFF;" points="3,7.036 5.075,7.036 5.075,11.159 5.075,13 3,13 "/>
<path style="fill:#FFFFFF;" d="M4.037,6L4.037,6C3.415,6,3,5.559,3,5.015s0.415-0.959,1.037-0.959S5.049,4.47,5.075,5.015  C5.075,5.559,4.686,6,4.037,6z"/>
<path style="fill:#FFFFFF;" d="M12,13H9.952c0,0,0-3.098,0-3.328S9.926,8.648,9.056,8.648c-0.768,0-0.896,0.742-0.896,1.024  s0,3.328,0,3.328H6.112V7.112H8.16v0.794c0,0,0.41-0.794,1.613-0.794c1.229,0,2.227,0.845,2.227,2.56V13z"/>
</svg>