<?xml version="1.0" encoding="iso-8859-1"?><!-- Generator: Adobe Illustrator 19.2.1, SVG Export Plug-In . SVG Version: 6.00 Build 0)  --><svg xmlns="http://www.w3.org/2000/svg" xmlns:xlink="http://www.w3.org/1999/xlink" version="1.1" id="Layer_1" x="0px" y="0px" viewBox="0 0 80 80" style="enable-background:new 0 0 80 80;" xml:space="preserve" width="80" height="80">
<g>
	<rect x="4.5" y="4.5" style="fill:#8BB7F0;" width="71" height="71"/>
	<path style="fill:#4E7AB5;" d="M75,5v70H5V5H75 M76,4H4v72h72V4L76,4z"/>
</g>
<polygon style="fill:#FFFFFF;" points="16,32.154 27.077,32.154 27.077,54.169 27.077,64 16,64 "/>
<path style="fill:#FFFFFF;" d="M21.538,28.923L21.538,28.923c-3.323,0-5.538-2.354-5.538-5.262s2.215-5.123,5.538-5.123  s5.4,2.215,5.538,5.123C27.077,26.569,25,28.923,21.538,28.923z"/>
<path style="fill:#FFFFFF;" d="M64.054,64H53.119c0,0,0-16.539,0-17.77s-0.137-5.468-4.784-5.468c-4.101,0-4.784,3.964-4.784,5.468  s0,17.77,0,17.77H32.615V32.561h10.935v4.237c0,0,2.187-4.237,8.611-4.237c6.561,0,11.892,4.511,11.892,13.669V64z"/>
</svg>