<?xml version="1.0" encoding="iso-8859-1"?><!-- Generator: Adobe Illustrator 19.2.1, SVG Export Plug-In . SVG Version: 6.00 Build 0)  --><svg xmlns="http://www.w3.org/2000/svg" xmlns:xlink="http://www.w3.org/1999/xlink" version="1.1" id="Layer_1" x="0px" y="0px" viewBox="0 0 30 30" style="enable-background:new 0 0 30 30;" xml:space="preserve" width="30" height="30">
<g>
	<rect x="2.5" y="2.5" style="fill:#8BB7F0;" width="25" height="25"/>
	<path style="fill:#4E7AB5;" d="M27,3v24H3V3H27 M28,2H2v26h26V2L28,2z"/>
</g>
<polygon style="fill:#FFFFFF;" points="6,12.5 10,12.5 10,20.45 10,24 6,24 "/>
<path style="fill:#FFFFFF;" d="M8,11L8,11c-1.2,0-2-0.85-2-1.9s0.8-1.85,2-1.85s1.95,0.8,2,1.85C10,10.15,9.25,11,8,11z"/>
<path style="fill:#FFFFFF;" d="M23.353,24h-3.949c0,0,0-5.973,0-6.417s-0.049-1.974-1.728-1.974c-1.481,0-1.728,1.431-1.728,1.974  s0,6.417,0,6.417H12V12.647h3.949v1.53c0,0,0.79-1.53,3.11-1.53c2.369,0,4.294,1.629,4.294,4.936V24z"/>
</svg>