<?xml version="1.0" encoding="iso-8859-1"?><!-- Generator: Adobe Illustrator 19.2.1, SVG Export Plug-In . SVG Version: 6.00 Build 0)  --><svg xmlns="http://www.w3.org/2000/svg" xmlns:xlink="http://www.w3.org/1999/xlink" version="1.1" id="Layer_1" x="0px" y="0px" viewBox="0 0 80 80" style="enable-background:new 0 0 80 80;" xml:space="preserve" width="80" height="80">
<g>
	<rect x="2.5" y="3.5" style="fill:#FFC49C;" width="21" height="21"/>
	<g>
		<path style="fill:#A16A4A;" d="M23,4v20H3V4H23 M24,3H2v22h22V3L24,3z"/>
	</g>
</g>
<g>
	<rect x="2.5" y="55.5" style="fill:#BAE0BD;" width="21" height="21"/>
	<g>
		<path style="fill:#5E9C76;" d="M23,56v20H3V56H23 M24,55H2v22h22V55L24,55z"/>
	</g>
</g>
<g>
	<rect x="2.5" y="29.5" style="fill:#8BB7F0;" width="21" height="21"/>
	<g>
		<path style="fill:#4E7AB5;" d="M23,30v20H3V30H23 M24,29H2v22h22V29L24,29z"/>
	</g>
</g>
<g>
	
		<rect x="8.05" y="35.05" transform="matrix(0.7071 -0.7071 0.7071 0.7071 -24.4767 20.9081)" style="fill:#FFEEA3;" width="9.899" height="9.899"/>
</g>
<g>
	<rect x="8" y="35" style="fill:#FFEEA3;" width="10" height="10"/>
</g>
<rect x="28" y="13" style="fill:#788B9C;" width="8" height="2"/>
<rect x="28" y="39" style="fill:#788B9C;" width="8" height="2"/>
<rect x="28" y="65" style="fill:#788B9C;" width="8" height="2"/>
<polygon style="fill:#A16A4A;" points="17,14 13,18 17,24 23,24 23,20 "/>
<circle style="fill:#FFFFFF;" cx="18" cy="9" r="2"/>
<polygon style="fill:#E09367;" points="20,24 3,24 3,20 10,13 "/>
<g>
	<rect x="44.5" y="55.5" style="fill:#FFC49C;" width="21" height="21"/>
	<g>
		<path style="fill:#A16A4A;" d="M65,56v20H45V56H65 M66,55H44v22h22V55L66,55z"/>
	</g>
</g>
<polygon style="fill:#A16A4A;" points="59,66 55,70 59,76 65,76 65,72 "/>
<circle style="fill:#FFFFFF;" cx="60" cy="61" r="2"/>
<polygon style="fill:#E09367;" points="62,76 45,76 45,72 52,65 "/>
<rect x="70" y="65" style="fill:#788B9C;" width="8" height="2"/>
<path style="fill:#FFFFFF;" d="M13,66l-2.236-3.399C9.722,61.016,10.973,59,13,59h0c2.027,0,3.278,2.016,2.236,3.601L13,66z"/>
<path style="fill:#FFFFFF;" d="M13,66l2.236,3.399C16.278,70.984,15.027,73,13,73h0c-2.027,0-3.278-2.016-2.236-3.601L13,66z"/>
<path style="fill:#FFFFFF;" d="M13,66l-4.345,0.067C6.629,66.098,5.34,64.101,6.353,62.5l0,0c1.013-1.601,3.554-1.581,4.537,0.035  L13,66z"/>
<path style="fill:#FFFFFF;" d="M13,66l4.345-0.067c2.026-0.031,3.315,1.966,2.302,3.567h0c-1.013,1.601-3.554,1.581-4.537-0.035  L13,66z"/>
<path style="fill:#FFFFFF;" d="M13,66l-2.109,3.465c-0.984,1.616-3.524,1.636-4.537,0.035h0c-1.013-1.601,0.275-3.598,2.302-3.567  L13,66z"/>
<path style="fill:#FFFFFF;" d="M13,66l2.109-3.465c0.984-1.616,3.524-1.636,4.537-0.035l0,0c1.013,1.601-0.275,3.598-2.302,3.567  L13,66z"/>
<circle style="fill:#FFEEA3;" cx="13" cy="66" r="3"/>
<g>
	<rect x="44.5" y="29.5" style="fill:#BAE0BD;" width="21" height="21"/>
	<g>
		<path style="fill:#5E9C76;" d="M65,30v20H45V30H65 M66,29H44v22h22V29L66,29z"/>
	</g>
</g>
<path style="fill:#FFFFFF;" d="M55,40l-2.236-3.399C51.722,35.016,52.973,33,55,33h0c2.027,0,3.278,2.016,2.236,3.601L55,40z"/>
<path style="fill:#FFFFFF;" d="M55,40l2.236,3.399C58.278,44.984,57.027,47,55,47h0c-2.027,0-3.278-2.016-2.236-3.601L55,40z"/>
<path style="fill:#FFFFFF;" d="M55,40l-4.345,0.067c-2.026,0.031-3.315-1.966-2.302-3.567l0,0c1.013-1.601,3.554-1.581,4.537,0.035  L55,40z"/>
<path style="fill:#FFFFFF;" d="M55,40l4.345-0.067c2.026-0.031,3.315,1.966,2.302,3.567l0,0c-1.013,1.601-3.554,1.581-4.537-0.035  L55,40z"/>
<path style="fill:#FFFFFF;" d="M55,40l-2.109,3.465c-0.984,1.616-3.524,1.636-4.537,0.035l0,0c-1.013-1.601,0.275-3.598,2.302-3.567  L55,40z"/>
<path style="fill:#FFFFFF;" d="M55,40l2.109-3.465c0.984-1.616,3.524-1.636,4.537-0.035l0,0c1.013,1.601-0.275,3.598-2.302,3.567  L55,40z"/>
<circle style="fill:#FFEEA3;" cx="55" cy="40" r="3"/>
<rect x="70" y="39" style="fill:#788B9C;" width="8" height="2"/>
<rect x="70" y="13" style="fill:#788B9C;" width="8" height="2"/>
<circle style="fill:#FFFFFF;" cx="13" cy="40" r="3"/>
<g>
	<rect x="44.5" y="3.5" style="fill:#C2E8FF;" width="21" height="21"/>
	<g>
		<path style="fill:#7496C4;" d="M65,4v20H45V4H65 M66,3H44v22h22V3L66,3z"/>
	</g>
</g>
<path style="fill:#FFFFFF;" d="M58.6,15.333c-0.056,0-0.103,0.027-0.158,0.031c-0.298-0.676-0.987-1.15-1.791-1.15  c-0.245,0-0.475,0.055-0.691,0.136C55.576,13.557,54.76,13,53.8,13c-1.326,0-2.4,1.045-2.4,2.333c-1.326,0-2.4,1.045-2.4,2.333  C49,18.955,50.074,20,51.4,20c1.326,0,5.969,0,7.2,0c1.326,0,2.4-1.045,2.4-2.333C61,16.378,59.926,15.333,58.6,15.333z"/>
<circle style="fill:#FFFFFF;" cx="60" cy="9" r="1.5"/>
</svg>