<?xml version="1.0" encoding="iso-8859-1"?><!-- Generator: Adobe Illustrator 19.2.1, SVG Export Plug-In . SVG Version: 6.00 Build 0)  --><svg xmlns="http://www.w3.org/2000/svg" xmlns:xlink="http://www.w3.org/1999/xlink" version="1.1" id="Layer_1" x="0px" y="0px" viewBox="0 0 40 40" style="enable-background:new 0 0 40 40;" xml:space="preserve" width="40" height="40">
<g>
	<rect x="1.5" y="1.5" style="fill:#FFC49C;" width="10" height="10"/>
	<g>
		<path style="fill:#A16A4A;" d="M11,2v9H2V2H11 M12,1H1v11h11V1L12,1z"/>
	</g>
</g>
<g>
	<rect x="1.5" y="27.5" style="fill:#BAE0BD;" width="10" height="10"/>
	<g>
		<path style="fill:#5E9C76;" d="M11,28v9H2v-9H11 M12,27H1v11h11V27L12,27z"/>
	</g>
</g>
<g>
	<rect x="1.5" y="14.5" style="fill:#8BB7F0;" width="10" height="10"/>
	<g>
		<path style="fill:#4E7AB5;" d="M11,15v9H2v-9H11 M12,14H1v11h11V14L12,14z"/>
	</g>
</g>
<g>
	
		<rect x="4.025" y="17.025" transform="matrix(0.7071 -0.7071 0.7071 0.7071 -11.8848 10.3076)" style="fill:#FFEEA3;" width="4.95" height="4.95"/>
</g>
<g>
	<rect x="4.025" y="17.025" style="fill:#FFEEA3;" width="4.95" height="4.95"/>
</g>
<rect x="14" y="6" style="fill:#788B9C;" width="4" height="1"/>
<rect x="14" y="19" style="fill:#788B9C;" width="4" height="1"/>
<rect x="14" y="32" style="fill:#788B9C;" width="4" height="1"/>
<polygon style="fill:#A16A4A;" points="8.363,6.432 6.5,8.161 9.062,11 11,11 11,8.886 "/>
<circle style="fill:#FFFFFF;" cx="9" cy="4" r="1"/>
<polygon style="fill:#E09367;" points="9.617,11 2,11 2,8.75 5,5.75 "/>
<g>
	<rect x="22.5" y="27.5" style="fill:#FFC49C;" width="10" height="10"/>
	<g>
		<path style="fill:#A16A4A;" d="M32,28v9h-9v-9H32 M33,27H22v11h11V27L33,27z"/>
	</g>
</g>
<rect x="35" y="32" style="fill:#788B9C;" width="4" height="1"/>
<polygon style="fill:#A16A4A;" points="29.363,32.432 27.5,34.161 30.062,37 32,37 32,34.886 "/>
<circle style="fill:#FFFFFF;" cx="30" cy="30" r="1"/>
<polygon style="fill:#E09367;" points="30.617,37 23,37 23,34.75 26,31.75 "/>
<path style="fill:#FFFFFF;" d="M6.5,32.5l-1.02-1.699C5.005,30.008,5.576,29,6.5,29h0c0.924,0,1.495,1.008,1.02,1.801L6.5,32.5z"/>
<path style="fill:#FFFFFF;" d="M6.5,32.5l1.02,1.699C7.995,34.992,7.424,36,6.5,36h0c-0.924,0-1.495-1.008-1.02-1.801L6.5,32.5z"/>
<path style="fill:#FFFFFF;" d="M6.5,32.5l-1.981,0.033c-0.924,0.016-1.512-0.983-1.05-1.783l0,0c0.462-0.8,1.621-0.791,2.069,0.017  L6.5,32.5z"/>
<path style="fill:#FFFFFF;" d="M6.5,32.5l1.981-0.033c0.924-0.016,1.512,0.983,1.05,1.783h0c-0.462,0.8-1.621,0.791-2.069-0.017  L6.5,32.5z"/>
<path style="fill:#FFFFFF;" d="M6.5,32.5l-0.962,1.733C5.09,35.041,3.931,35.05,3.469,34.25h0c-0.462-0.8,0.126-1.799,1.05-1.783  L6.5,32.5z"/>
<path style="fill:#FFFFFF;" d="M6.5,32.5l0.962-1.733c0.449-0.808,1.607-0.818,2.069-0.017l0,0c0.462,0.8-0.126,1.799-1.05,1.783  L6.5,32.5z"/>
<circle style="fill:#FFEEA3;" cx="6.5" cy="32.5" r="1.5"/>
<g>
	<rect x="22.5" y="14.5" style="fill:#BAE0BD;" width="10" height="10"/>
	<g>
		<path style="fill:#5E9C76;" d="M32,15v9h-9v-9H32 M33,14H22v11h11V14L33,14z"/>
	</g>
</g>
<rect x="35" y="19" style="fill:#788B9C;" width="4" height="1"/>
<rect x="35" y="6" style="fill:#788B9C;" width="4" height="1"/>
<path style="fill:#FFFFFF;" d="M27.5,19.5l-1.02-1.699C26.005,17.008,26.576,16,27.5,16h0c0.924,0,1.495,1.008,1.02,1.801L27.5,19.5  z"/>
<path style="fill:#FFFFFF;" d="M27.5,19.5l1.02,1.699C28.995,21.992,28.424,23,27.5,23h0c-0.924,0-1.495-1.008-1.02-1.801L27.5,19.5  z"/>
<path style="fill:#FFFFFF;" d="M27.5,19.5l-1.981,0.033c-0.924,0.016-1.512-0.983-1.05-1.783l0,0c0.462-0.8,1.621-0.791,2.069,0.017  L27.5,19.5z"/>
<path style="fill:#FFFFFF;" d="M27.5,19.5l1.981-0.033c0.924-0.016,1.512,0.983,1.05,1.783l0,0c-0.462,0.8-1.621,0.791-2.069-0.017  L27.5,19.5z"/>
<path style="fill:#FFFFFF;" d="M27.5,19.5l-0.962,1.733c-0.449,0.808-1.607,0.818-2.069,0.017l0,0  c-0.462-0.8,0.126-1.799,1.05-1.783L27.5,19.5z"/>
<path style="fill:#FFFFFF;" d="M27.5,19.5l0.962-1.733c0.449-0.808,1.607-0.818,2.069-0.017l0,0c0.462,0.8-0.126,1.799-1.05,1.783  L27.5,19.5z"/>
<circle style="fill:#FFEEA3;" cx="27.5" cy="19.5" r="1.5"/>
<circle style="fill:#FFFFFF;" cx="6.5" cy="19.5" r="1.5"/>
<g>
	<rect x="22.5" y="1.5" style="fill:#C2E8FF;" width="10" height="10"/>
	<g>
		<path style="fill:#7496C4;" d="M32,2v9h-9V2H32 M33,1H22v11h11V1L33,1z"/>
	</g>
</g>
<path style="fill:#FFFFFF;" d="M29.333,7.111c-0.029,0-0.053,0.014-0.081,0.016c-0.152-0.354-0.503-0.603-0.912-0.603  c-0.125,0-0.242,0.029-0.352,0.071c-0.195-0.415-0.61-0.707-1.1-0.707c-0.675,0-1.222,0.547-1.222,1.222  c-0.675,0-1.222,0.547-1.222,1.222c0,0.675,0.547,1.222,1.222,1.222c0.675,0,3.04,0,3.667,0c0.675,0,1.222-0.547,1.222-1.222  C30.556,7.658,30.008,7.111,29.333,7.111z"/>
<circle style="fill:#FFFFFF;" cx="29.944" cy="4.056" r="0.611"/>
</svg>