<?xml version="1.0" encoding="iso-8859-1"?><!-- Generator: Adobe Illustrator 19.2.1, SVG Export Plug-In . SVG Version: 6.00 Build 0)  --><svg xmlns="http://www.w3.org/2000/svg" xmlns:xlink="http://www.w3.org/1999/xlink" version="1.1" x="0px" y="0px" viewBox="0 0 16 16" style="enable-background:new 0 0 16 16;" xml:space="preserve" width="16" height="16">
<g id="Layer_1">
	<rect x="13" y="2" style="fill:#788B9C;" width="3" height="1"/>
	<g>
		<rect x="9.5" y="0.5" style="fill:#C2E8FF;" width="5" height="5"/>
		<g>
			<path style="fill:#7496C4;" d="M14,1v4h-4V1H14 M15,0H9v6h6V0L15,0z"/>
		</g>
	</g>
	<path style="fill:#FFFFFF;" d="M12.5,3c-0.057,0-0.11,0.015-0.161,0.032c-0.106-0.251-0.353-0.426-0.642-0.426   C11.312,2.606,11,2.918,11,3.303C11,3.688,11.312,4,11.697,4c0.168,0,0.656,0,0.803,0C12.776,4,13,3.776,13,3.5   C13,3.224,12.776,3,12.5,3z"/>
	<rect x="13" y="7" style="fill:#788B9C;" width="3" height="1"/>
	<rect x="13" y="12" style="fill:#788B9C;" width="3" height="1"/>
	<rect x="4" y="2" style="fill:#788B9C;" width="3" height="1"/>
	<rect x="4" y="7" style="fill:#788B9C;" width="3" height="1"/>
	<rect x="4" y="12" style="fill:#788B9C;" width="3" height="1"/>
	<g>
		<rect x="0.5" y="0.5" style="fill:#FFC49C;" width="5" height="5"/>
		<g>
			<path style="fill:#A16A4A;" d="M5,1v4H1V1H5 M6,0H0v6h6V0L6,0z"/>
		</g>
	</g>
	<polygon style="fill:#A16A4A;" points="3.828,2.97 3,3.738 4.139,5 5,5 5,4.061  "/>
	<polygon style="fill:#E09367;" points="4.385,5 1,5 1,4 2.333,2.667  "/>
	<g>
		<rect x="9.5" y="10.5" style="fill:#FFC49C;" width="5" height="5"/>
		<g>
			<path style="fill:#A16A4A;" d="M14,11v4h-4v-4H14 M15,10H9v6h6V10L15,10z"/>
		</g>
	</g>
	<polygon style="fill:#A16A4A;" points="12.828,12.97 12,13.738 13.139,15 14,15 14,14.061  "/>
	<polygon style="fill:#E09367;" points="13.385,15 10,15 10,14 11.333,12.667  "/>
	<g>
		<rect x="0.5" y="5.5" style="fill:#8BB7F0;" width="5" height="5"/>
		<g>
			<path style="fill:#4E7AB5;" d="M5,6v4H1V6H5 M6,5H0v6h6V5L6,5z"/>
		</g>
	</g>
	<g>
		
			<rect x="1.821" y="6.821" transform="matrix(0.7071 -0.7071 0.7071 0.7071 -4.7782 4.4645)" style="fill:#FFEEA3;" width="2.357" height="2.357"/>
	</g>
	<g>
		<rect x="1.821" y="6.821" style="fill:#FFEEA3;" width="2.357" height="2.357"/>
	</g>
	<circle style="fill:#FFFFFF;" cx="3" cy="8" r="0.667"/>
	<g>
		<rect x="9.5" y="5.5" style="fill:#BAE0BD;" width="5" height="5"/>
		<g>
			<path style="fill:#5E9C76;" d="M14,6v4h-4V6H14 M15,5H9v6h6V5L15,5z"/>
		</g>
	</g>
	<path style="fill:#FFFFFF;" d="M12,8l-0.524-0.874C11.231,6.719,11.525,6.2,12,6.2h0c0.475,0,0.769,0.519,0.524,0.926L12,8z"/>
	<path style="fill:#FFFFFF;" d="M12,8l0.524,0.874C12.769,9.281,12.475,9.8,12,9.8h0c-0.475,0-0.769-0.519-0.524-0.926L12,8z"/>
	<path style="fill:#FFFFFF;" d="M12,8l-1.019,0.017c-0.475,0.008-0.777-0.506-0.54-0.917l0,0c0.238-0.412,0.833-0.407,1.064,0.009   L12,8z"/>
	<path style="fill:#FFFFFF;" d="M12,8l1.019-0.017c0.475-0.008,0.777,0.506,0.54,0.917l0,0c-0.238,0.412-0.833,0.407-1.064-0.009   L12,8z"/>
	<path style="fill:#FFFFFF;" d="M12,8l-0.495,0.891c-0.231,0.416-0.827,0.421-1.064,0.009l0,0c-0.238-0.412,0.065-0.925,0.54-0.917   L12,8z"/>
	<path style="fill:#FFFFFF;" d="M12,8l0.495-0.891c0.231-0.416,0.827-0.421,1.064-0.009l0,0c0.238,0.412-0.065,0.925-0.54,0.917   L12,8z"/>
	<circle style="fill:#FFEEA3;" cx="12" cy="8" r="0.72"/>
	<g>
		<rect x="0.5" y="10.5" style="fill:#BAE0BD;" width="5" height="5"/>
		<g>
			<path style="fill:#5E9C76;" d="M5,11v4H1v-4H5 M6,10H0v6h6V10L6,10z"/>
		</g>
	</g>
	<path style="fill:#FFFFFF;" d="M3,13l-0.524-0.874C2.231,11.719,2.525,11.2,3,11.2h0c0.475,0,0.769,0.519,0.524,0.926L3,13z"/>
	<path style="fill:#FFFFFF;" d="M3,13l0.524,0.874C3.769,14.281,3.475,14.8,3,14.8h0c-0.475,0-0.769-0.519-0.524-0.926L3,13z"/>
	<path style="fill:#FFFFFF;" d="M3,13l-1.019,0.017c-0.475,0.008-0.777-0.506-0.54-0.917l0,0c0.238-0.412,0.833-0.407,1.064,0.009   L3,13z"/>
	<path style="fill:#FFFFFF;" d="M3,13l1.019-0.017c0.475-0.008,0.777,0.506,0.54,0.917l0,0c-0.238,0.412-0.833,0.407-1.064-0.009   L3,13z"/>
	<path style="fill:#FFFFFF;" d="M3,13l-0.495,0.891c-0.231,0.416-0.827,0.421-1.064,0.009l0,0c-0.238-0.412,0.065-0.925,0.54-0.917   L3,13z"/>
	<path style="fill:#FFFFFF;" d="M3,13l0.495-0.891c0.231-0.416,0.827-0.421,1.064-0.009l0,0c0.238,0.412-0.065,0.925-0.54,0.917   L3,13z"/>
	<circle style="fill:#FFEEA3;" cx="3" cy="13" r="0.72"/>
</g>
<g id="Layer_2">
</g>
</svg>