<?xml version="1.0" encoding="iso-8859-1"?><!-- Generator: Adobe Illustrator 19.2.1, SVG Export Plug-In . SVG Version: 6.00 Build 0)  --><svg xmlns="http://www.w3.org/2000/svg" xmlns:xlink="http://www.w3.org/1999/xlink" version="1.1" id="Layer_1" x="0px" y="0px" viewBox="0 0 30 30" style="enable-background:new 0 0 30 30;" xml:space="preserve" width="30" height="30">
<g>
	<rect x="1.5" y="1.5" style="fill:#FFC49C;" width="8" height="8"/>
	<g>
		<path style="fill:#A16A4A;" d="M9,2v7H2V2H9 M10,1H1v9h9V1L10,1z"/>
	</g>
</g>
<g>
	<rect x="1.5" y="21.5" style="fill:#BAE0BD;" width="8" height="8"/>
	<g>
		<path style="fill:#5E9C76;" d="M9,22v7H2v-7H9 M10,21H1v9h9V21L10,21z"/>
	</g>
</g>
<g>
	<rect x="1.5" y="11.5" style="fill:#8BB7F0;" width="8" height="8"/>
	<g>
		<path style="fill:#4E7AB5;" d="M9,12v7H2v-7H9 M10,11H1v9h9V11L10,11z"/>
	</g>
</g>
<g>
	
		<rect x="3.732" y="13.732" transform="matrix(0.7071 -0.7071 0.7071 0.7071 -9.3492 8.4289)" style="fill:#FFEEA3;" width="3.536" height="3.536"/>
</g>
<g>
	<rect x="3.732" y="13.732" style="fill:#FFEEA3;" width="3.536" height="3.536"/>
</g>
<rect x="11" y="5" style="fill:#788B9C;" width="3" height="1"/>
<rect x="11" y="15" style="fill:#788B9C;" width="3" height="1"/>
<rect x="11" y="25" style="fill:#788B9C;" width="3" height="1"/>
<polygon style="fill:#A16A4A;" points="6.949,5.447 5.5,6.792 7.492,9 9,9 9,7.356 "/>
<circle style="fill:#FFFFFF;" cx="7.5" cy="3.5" r="0.5"/>
<polygon style="fill:#E09367;" points="7.924,9 2,9 2,7.25 4.333,4.917 "/>
<path style="fill:#FFFFFF;" d="M5.5,25.5l-0.728-1.214C4.432,23.72,4.84,23,5.5,23h0c0.66,0,1.068,0.72,0.728,1.286L5.5,25.5z"/>
<path style="fill:#FFFFFF;" d="M5.5,25.5l0.728,1.214C6.568,27.28,6.16,28,5.5,28h0c-0.66,0-1.068-0.72-0.728-1.286L5.5,25.5z"/>
<path style="fill:#FFFFFF;" d="M5.5,25.5l-1.415,0.024c-0.66,0.011-1.08-0.702-0.75-1.274l0,0c0.33-0.572,1.158-0.565,1.478,0.012  L5.5,25.5z"/>
<path style="fill:#FFFFFF;" d="M5.5,25.5l1.415-0.024c0.66-0.011,1.08,0.702,0.75,1.274l0,0c-0.33,0.572-1.158,0.565-1.478-0.012  L5.5,25.5z"/>
<path style="fill:#FFFFFF;" d="M5.5,25.5l-0.687,1.238c-0.32,0.577-1.148,0.584-1.478,0.012l0,0c-0.33-0.572,0.09-1.285,0.75-1.274  L5.5,25.5z"/>
<path style="fill:#FFFFFF;" d="M5.5,25.5l0.687-1.238c0.32-0.577,1.148-0.584,1.478-0.012l0,0c0.33,0.572-0.09,1.285-0.75,1.274  L5.5,25.5z"/>
<circle style="fill:#FFEEA3;" cx="5.5" cy="25.5" r="1"/>
<circle style="fill:#FFFFFF;" cx="5.5" cy="15.5" r="1"/>
<g>
	<rect x="17.5" y="21.5" style="fill:#FFC49C;" width="8" height="8"/>
	<g>
		<path style="fill:#A16A4A;" d="M25,22v7h-7v-7H25 M26,21h-9v9h9V21L26,21z"/>
	</g>
</g>
<g>
	<rect x="17.5" y="11.5" style="fill:#BAE0BD;" width="8" height="8"/>
	<g>
		<path style="fill:#5E9C76;" d="M25,12v7h-7v-7H25 M26,11h-9v9h9V11L26,11z"/>
	</g>
</g>
<g>
	<rect x="17.5" y="1.5" style="fill:#C2E8FF;" width="8" height="8"/>
	<g>
		<path style="fill:#7496C4;" d="M25,2v7h-7V2H25 M26,1h-9v9h9V1L26,1z"/>
	</g>
</g>
<rect x="27" y="5" style="fill:#788B9C;" width="3" height="1"/>
<rect x="27" y="14" style="fill:#788B9C;" width="3" height="1"/>
<rect x="27" y="24" style="fill:#788B9C;" width="3" height="1"/>
<polygon style="fill:#A16A4A;" points="22.949,25.447 21.5,26.792 23.492,29 25,29 25,27.356 "/>
<circle style="fill:#FFFFFF;" cx="23.5" cy="23.5" r="0.5"/>
<polygon style="fill:#E09367;" points="23.924,29 18,29 18,27.25 20.333,24.917 "/>
<path style="fill:#FFFFFF;" d="M21.5,15.5l-0.728-1.214C20.432,13.72,20.84,13,21.5,13h0c0.66,0,1.068,0.72,0.728,1.286L21.5,15.5z"/>
<path style="fill:#FFFFFF;" d="M21.5,15.5l0.728,1.214C22.568,17.28,22.16,18,21.5,18h0c-0.66,0-1.068-0.72-0.728-1.286L21.5,15.5z"/>
<path style="fill:#FFFFFF;" d="M21.5,15.5l-1.415,0.024c-0.66,0.011-1.08-0.702-0.75-1.274l0,0c0.33-0.572,1.158-0.565,1.478,0.012  L21.5,15.5z"/>
<path style="fill:#FFFFFF;" d="M21.5,15.5l1.415-0.024c0.66-0.011,1.08,0.702,0.75,1.274l0,0c-0.33,0.572-1.158,0.565-1.478-0.012  L21.5,15.5z"/>
<path style="fill:#FFFFFF;" d="M21.5,15.5l-0.687,1.238c-0.32,0.577-1.148,0.584-1.478,0.012l0,0c-0.33-0.572,0.09-1.285,0.75-1.274  L21.5,15.5z"/>
<path style="fill:#FFFFFF;" d="M21.5,15.5l0.687-1.238c0.32-0.577,1.148-0.584,1.478-0.012l0,0c0.33,0.572-0.09,1.285-0.75,1.274  L21.5,15.5z"/>
<circle style="fill:#FFEEA3;" cx="21.5" cy="15.5" r="1"/>
<path style="fill:#FFFFFF;" d="M23,6c-0.023,0-0.043,0.012-0.066,0.013c-0.124-0.29-0.411-0.493-0.746-0.493  c-0.102,0-0.198,0.024-0.288,0.058C21.74,5.239,21.4,5,21,5c-0.552,0-1,0.448-1,1c-0.552,0-1,0.448-1,1c0,0.552,0.448,1,1,1  s2.487,0,3,0c0.552,0,1-0.448,1-1C24,6.448,23.552,6,23,6z"/>
<circle style="fill:#FFFFFF;" cx="23.5" cy="3.5" r="0.5"/>
</svg>