<?xml version="1.0" encoding="iso-8859-1"?><!-- Generator: Adobe Illustrator 19.2.1, SVG Export Plug-In . SVG Version: 6.00 Build 0)  --><svg xmlns="http://www.w3.org/2000/svg" xmlns:xlink="http://www.w3.org/1999/xlink" version="1.1" id="Layer_1" x="0px" y="0px" viewBox="0 0 30 30" style="enable-background:new 0 0 30 30;" xml:space="preserve" width="30" height="30">
<g>
	<rect x="2.5" y="2.5" style="fill:#FFC49C;" width="11" height="11"/>
	<g>
		<path style="fill:#A16A4A;" d="M13,3v10H3V3H13 M14,2H2v12h12V2L14,2z"/>
	</g>
</g>
<g>
	<rect x="16.5" y="16.5" style="fill:#BAE0BD;" width="11" height="11"/>
	<g>
		<path style="fill:#5E9C76;" d="M27,17v10H17V17H27 M28,16H16v12h12V16L28,16z"/>
	</g>
</g>
<g>
	<rect x="2.5" y="16.5" style="fill:#8BB7F0;" width="11" height="11"/>
	<g>
		<path style="fill:#4E7AB5;" d="M13,17v10H3V17H13 M14,16H2v12h12V16L14,16z"/>
	</g>
</g>
<g>
	
		<rect x="5.172" y="19.172" transform="matrix(0.7071 -0.7071 0.7071 0.7071 -13.2132 12.1005)" style="fill:#FFEEA3;" width="5.657" height="5.657"/>
</g>
<g>
	<rect x="5" y="19" style="fill:#FFEEA3;" width="6" height="6"/>
</g>
<polygon style="fill:#A16A4A;" points="10.069,7.924 8,9.846 10.846,13 13,13 13,10.652 "/>
<circle style="fill:#FFFFFF;" cx="11" cy="5" r="1"/>
<polygon style="fill:#E09367;" points="11.463,13 3,13 3,10.5 6.333,7.167 "/>
<path style="fill:#FFFFFF;" d="M22,22l-1.165-1.942C20.291,19.152,20.944,18,22,18h0c1.056,0,1.709,1.152,1.165,2.058L22,22z"/>
<path style="fill:#FFFFFF;" d="M22,22l1.165,1.942C23.709,24.848,23.056,26,22,26h0c-1.056,0-1.709-1.152-1.165-2.058L22,22z"/>
<path style="fill:#FFFFFF;" d="M22,22l-2.264,0.038c-1.056,0.018-1.728-1.123-1.2-2.038l0,0c0.528-0.915,1.852-0.904,2.365,0.02  L22,22z"/>
<path style="fill:#FFFFFF;" d="M22,22l2.264-0.038c1.056-0.018,1.728,1.123,1.2,2.038l0,0c-0.528,0.915-1.852,0.904-2.365-0.02  L22,22z"/>
<path style="fill:#FFFFFF;" d="M22,22l-1.099,1.98c-0.513,0.923-1.837,0.935-2.365,0.02l0,0c-0.528-0.915,0.144-2.056,1.2-2.038  L22,22z"/>
<path style="fill:#FFFFFF;" d="M22,22l1.099-1.98c0.513-0.923,1.837-0.935,2.365-0.02l0,0c0.528,0.915-0.144,2.056-1.2,2.038L22,22z  "/>
<circle style="fill:#FFEEA3;" cx="22" cy="22" r="2"/>
<circle style="fill:#FFFFFF;" cx="8" cy="22" r="2"/>
<g>
	<rect x="16.5" y="2.5" style="fill:#C2E8FF;" width="11" height="11"/>
	<g>
		<path style="fill:#7496C4;" d="M27,3v10H17V3H27 M28,2H16v12h12V2L28,2z"/>
	</g>
</g>
<path style="fill:#FFFFFF;" d="M24,8.667c-0.031,0-0.057,0.016-0.088,0.018c-0.165-0.386-0.548-0.657-0.995-0.657  c-0.136,0-0.264,0.032-0.384,0.078c-0.213-0.453-0.666-0.771-1.2-0.771C20.597,7.333,20,7.93,20,8.667  c-0.736,0-1.333,0.597-1.333,1.333c0,0.736,0.597,1.333,1.333,1.333s3.316,0,4,0c0.736,0,1.333-0.597,1.333-1.333  C25.333,9.264,24.736,8.667,24,8.667z"/>
<circle style="fill:#FFFFFF;" cx="25" cy="5" r="1"/>
</svg>