<?xml version="1.0" encoding="iso-8859-1"?><!-- Generator: Adobe Illustrator 19.2.1, SVG Export Plug-In . SVG Version: 6.00 Build 0)  --><svg xmlns="http://www.w3.org/2000/svg" xmlns:xlink="http://www.w3.org/1999/xlink" version="1.1" x="0px" y="0px" viewBox="0 0 16 16" style="enable-background:new 0 0 16 16;" xml:space="preserve" width="16" height="16">
<g id="Layer_1">
	<g>
		<rect x="1.5" y="1.5" style="fill:#FFC49C;" width="5" height="5"/>
		<g>
			<path style="fill:#A16A4A;" d="M6,2v4H2V2H6 M7,1H1v6h6V1L7,1z"/>
		</g>
	</g>
	<g>
		<rect x="9.5" y="9.5" style="fill:#BAE0BD;" width="5" height="5"/>
		<g>
			<path style="fill:#5E9C76;" d="M14,10v4h-4v-4H14 M15,9H9v6h6V9L15,9z"/>
		</g>
	</g>
	<g>
		<rect x="1.5" y="9.5" style="fill:#8BB7F0;" width="5" height="5"/>
		<g>
			<path style="fill:#4E7AB5;" d="M6,10v4H2v-4H6 M7,9H1v6h6V9L7,9z"/>
		</g>
	</g>
	<g>
		
			<rect x="2.586" y="10.586" transform="matrix(0.7071 -0.7071 0.7071 0.7071 -7.3137 6.3431)" style="fill:#FFEEA3;" width="2.828" height="2.828"/>
	</g>
	<g>
		<rect x="2.5" y="10.5" style="fill:#FFEEA3;" width="3" height="3"/>
	</g>
	<polygon style="fill:#A16A4A;" points="4.828,3.97 4,4.738 5.139,6 6,6 6,5.061  "/>
	<circle style="fill:#FFFFFF;" cx="5.5" cy="2.5" r="0.5"/>
	<polygon style="fill:#E09367;" points="5.385,6 2,6 2,5 3.333,3.667  "/>
	<path style="fill:#FFFFFF;" d="M12,12l-0.583-0.971C11.146,10.576,11.472,10,12,10h0c0.528,0,0.854,0.576,0.583,1.029L12,12z"/>
	<path style="fill:#FFFFFF;" d="M12,12l0.583,0.971C12.854,13.424,12.528,14,12,14h0c-0.528,0-0.854-0.576-0.583-1.029L12,12z"/>
	<path style="fill:#FFFFFF;" d="M12,12l-1.132,0.019c-0.528,0.009-0.864-0.562-0.6-1.019l0,0c0.264-0.457,0.926-0.452,1.182,0.01   L12,12z"/>
	<path style="fill:#FFFFFF;" d="M12,12l1.132-0.019c0.528-0.009,0.864,0.562,0.6,1.019l0,0c-0.264,0.457-0.926,0.452-1.182-0.01   L12,12z"/>
	<path style="fill:#FFFFFF;" d="M12,12l-0.55,0.99c-0.256,0.462-0.918,0.467-1.182,0.01l0,0c-0.264-0.457,0.072-1.028,0.6-1.019   L12,12z"/>
	<path style="fill:#FFFFFF;" d="M12,12l0.55-0.99c0.256-0.462,0.918-0.467,1.182-0.01l0,0c0.264,0.457-0.072,1.028-0.6,1.019L12,12z   "/>
	<circle style="fill:#FFEEA3;" cx="12" cy="12" r="1"/>
	<circle style="fill:#FFFFFF;" cx="4" cy="12" r="1"/>
	<g>
		<rect x="9.5" y="1.5" style="fill:#C2E8FF;" width="5" height="5"/>
		<g>
			<path style="fill:#7496C4;" d="M14,2v4h-4V2H14 M15,1H9v6h6V1L15,1z"/>
		</g>
	</g>
	<path style="fill:#FFFFFF;" d="M12.9,3.8c-0.014,0-0.026,0.007-0.04,0.008c-0.074-0.174-0.247-0.296-0.448-0.296   c-0.061,0-0.119,0.014-0.173,0.035C12.144,3.343,11.94,3.2,11.7,3.2c-0.331,0-0.6,0.269-0.6,0.6c-0.331,0-0.6,0.269-0.6,0.6   c0,0.331,0.269,0.6,0.6,0.6c0.331,0,1.492,0,1.8,0c0.331,0,0.6-0.269,0.6-0.6C13.5,4.069,13.231,3.8,12.9,3.8z"/>
</g>
<g id="Layer_2">
</g>
</svg>