<?xml version="1.0" encoding="iso-8859-1"?><!-- Generator: Adobe Illustrator 19.2.1, SVG Export Plug-In . SVG Version: 6.00 Build 0)  --><svg xmlns="http://www.w3.org/2000/svg" xmlns:xlink="http://www.w3.org/1999/xlink" version="1.1" id="Layer_1" x="0px" y="0px" viewBox="0 0 80 80" style="enable-background:new 0 0 80 80;" xml:space="preserve" width="80" height="80">
<g>
	<circle style="fill:#C2E8FF;" cx="40" cy="40" r="7.5"/>
	<path style="fill:#7496C4;" d="M40,33c3.86,0,7,3.14,7,7s-3.14,7-7,7s-7-3.14-7-7S36.14,33,40,33 M40,32c-4.418,0-8,3.582-8,8   s3.582,8,8,8s8-3.582,8-8S44.418,32,40,32L40,32z"/>
</g>
<g>
	<circle style="fill:#C2E8FF;" cx="40" cy="14" r="7.5"/>
	<path style="fill:#7496C4;" d="M40,7c3.86,0,7,3.14,7,7s-3.14,7-7,7s-7-3.14-7-7S36.14,7,40,7 M40,6c-4.418,0-8,3.582-8,8   s3.582,8,8,8s8-3.582,8-8S44.418,6,40,6L40,6z"/>
</g>
<g>
	<circle style="fill:#C2E8FF;" cx="40" cy="66" r="7.5"/>
	<path style="fill:#7496C4;" d="M40,59c3.86,0,7,3.14,7,7s-3.14,7-7,7s-7-3.14-7-7S36.14,59,40,59 M40,58c-4.418,0-8,3.582-8,8   s3.582,8,8,8s8-3.582,8-8S44.418,58,40,58L40,58z"/>
</g>
</svg>