<?xml version="1.0" encoding="iso-8859-1"?><!-- Generator: Adobe Illustrator 19.2.1, SVG Export Plug-In . SVG Version: 6.00 Build 0)  --><svg xmlns="http://www.w3.org/2000/svg" xmlns:xlink="http://www.w3.org/1999/xlink" version="1.1" id="Layer_1" x="0px" y="0px" viewBox="0 0 30 30" style="enable-background:new 0 0 30 30;" xml:space="preserve" width="30" height="30">
<g>
	<circle style="fill:#C2E8FF;" cx="15" cy="15" r="2.5"/>
	<path style="fill:#7496C4;" d="M15,13c1.103,0,2,0.897,2,2s-0.897,2-2,2s-2-0.897-2-2S13.897,13,15,13 M15,12c-1.657,0-3,1.343-3,3   s1.343,3,3,3s3-1.343,3-3S16.657,12,15,12L15,12z"/>
</g>
<g>
	<circle style="fill:#C2E8FF;" cx="15" cy="6" r="2.5"/>
	<path style="fill:#7496C4;" d="M15,4c1.103,0,2,0.897,2,2s-0.897,2-2,2s-2-0.897-2-2S13.897,4,15,4 M15,3c-1.657,0-3,1.343-3,3   s1.343,3,3,3s3-1.343,3-3S16.657,3,15,3L15,3z"/>
</g>
<g>
	<circle style="fill:#C2E8FF;" cx="15" cy="24" r="2.5"/>
	<path style="fill:#7496C4;" d="M15,22c1.103,0,2,0.897,2,2s-0.897,2-2,2s-2-0.897-2-2S13.897,22,15,22 M15,21c-1.657,0-3,1.343-3,3   s1.343,3,3,3s3-1.343,3-3S16.657,21,15,21L15,21z"/>
</g>
</svg>