<?xml version="1.0" encoding="iso-8859-1"?><!-- Generator: Adobe Illustrator 19.2.1, SVG Export Plug-In . SVG Version: 6.00 Build 0)  --><svg xmlns="http://www.w3.org/2000/svg" xmlns:xlink="http://www.w3.org/1999/xlink" version="1.1" id="Layer_1" x="0px" y="0px" viewBox="0 0 40 40" style="enable-background:new 0 0 40 40;" xml:space="preserve" width="40" height="40">
<g>
	<circle style="fill:#C2E8FF;" cx="20" cy="20" r="3.5"/>
	<path style="fill:#7496C4;" d="M20,17c1.654,0,3,1.346,3,3s-1.346,3-3,3s-3-1.346-3-3S18.346,17,20,17 M20,16c-2.209,0-4,1.791-4,4   s1.791,4,4,4s4-1.791,4-4S22.209,16,20,16L20,16z"/>
</g>
<g>
	<circle style="fill:#C2E8FF;" cx="20" cy="7" r="3.5"/>
	<path style="fill:#7496C4;" d="M20,4c1.654,0,3,1.346,3,3s-1.346,3-3,3s-3-1.346-3-3S18.346,4,20,4 M20,3c-2.209,0-4,1.791-4,4   s1.791,4,4,4s4-1.791,4-4S22.209,3,20,3L20,3z"/>
</g>
<g>
	<circle style="fill:#C2E8FF;" cx="20" cy="33" r="3.5"/>
	<path style="fill:#7496C4;" d="M20,30c1.654,0,3,1.346,3,3s-1.346,3-3,3s-3-1.346-3-3S18.346,30,20,30 M20,29c-2.209,0-4,1.791-4,4   s1.791,4,4,4s4-1.791,4-4S22.209,29,20,29L20,29z"/>
</g>
</svg>