<?xml version="1.0" encoding="iso-8859-1"?><!-- Generator: Adobe Illustrator 19.2.1, SVG Export Plug-In . SVG Version: 6.00 Build 0)  --><svg xmlns="http://www.w3.org/2000/svg" xmlns:xlink="http://www.w3.org/1999/xlink" version="1.1" x="0px" y="0px" viewBox="0 0 16 16" style="enable-background:new 0 0 16 16;" xml:space="preserve" width="16" height="16">
<g id="Layer_1">
	<g>
		<circle style="fill:#C2E8FF;" cx="8" cy="8" r="1.5"/>
		<path style="fill:#7496C4;" d="M8,7c0.551,0,1,0.449,1,1S8.551,9,8,9S7,8.551,7,8S7.449,7,8,7 M8,6C6.895,6,6,6.895,6,8    s0.895,2,2,2s2-0.895,2-2S9.105,6,8,6L8,6z"/>
	</g>
	<g>
		<circle style="fill:#C2E8FF;" cx="8" cy="3" r="1.5"/>
		<path style="fill:#7496C4;" d="M8,2c0.551,0,1,0.449,1,1S8.551,4,8,4S7,3.551,7,3S7.449,2,8,2 M8,1C6.895,1,6,1.895,6,3    s0.895,2,2,2s2-0.895,2-2S9.105,1,8,1L8,1z"/>
	</g>
	<g>
		<circle style="fill:#C2E8FF;" cx="8" cy="13" r="1.5"/>
		<path style="fill:#7496C4;" d="M8,12c0.551,0,1,0.449,1,1s-0.449,1-1,1s-1-0.449-1-1S7.449,12,8,12 M8,11c-1.105,0-2,0.895-2,2    s0.895,2,2,2s2-0.895,2-2S9.105,11,8,11L8,11z"/>
	</g>
</g>
<g id="Layer_2">
</g>
</svg>