<?xml version="1.0" encoding="iso-8859-1"?><!-- Generator: Adobe Illustrator 19.2.1, SVG Export Plug-In . SVG Version: 6.00 Build 0)  --><svg xmlns="http://www.w3.org/2000/svg" xmlns:xlink="http://www.w3.org/1999/xlink" version="1.1" id="Layer_1" x="0px" y="0px" viewBox="0 0 40 40" style="enable-background:new 0 0 40 40;" xml:space="preserve" width="40" height="40">
<g>
	<circle style="fill:#F78F8F;" cx="16" cy="7" r="6.5"/>
	<g>
		<path style="fill:#C74343;" d="M16,1c3.308,0,6,2.692,6,6s-2.692,6-6,6s-6-2.692-6-6S12.692,1,16,1 M16,0c-3.866,0-7,3.134-7,7    s3.134,7,7,7s7-3.134,7-7S19.866,0,16,0L16,0z"/>
	</g>
</g>
<g>
	<g>
		<path style="fill:#FFEEA3;" d="M19.929,38.5c-1.731,0-3.355-0.68-4.573-1.913l-0.37-0.374l-0.007,0.009l-9.6-9.601    C4.812,26.055,4.5,25.302,4.5,24.5s0.312-1.555,0.879-2.121S6.699,21.5,7.5,21.5s1.554,0.312,2.121,0.879l3.879,3.878V19.5h20V33    c0,3.032-2.467,5.5-5.5,5.5H19.929z"/>
	</g>
	<g>
		<path style="fill:#BA9B48;" d="M33,20v13c0,2.757-2.243,5-5,5h-8.071c-1.596,0-3.093-0.626-4.217-1.764l-0.713-0.711l-0.004,0.004    l-9.262-9.262C5.26,25.796,5,25.168,5,24.5c0-0.668,0.26-1.296,0.732-1.768C6.204,22.26,6.832,22,7.5,22s1.296,0.26,1.768,0.732    l3.025,3.025L14,27.464V25.05V20H33 M34,19H13v6.05l-3.025-3.025C9.291,21.342,8.396,21,7.5,21s-1.791,0.342-2.475,1.025    c-1.367,1.367-1.367,3.583,0,4.95l9.969,9.969L15,36.939C16.256,38.211,18,39,19.929,39H28c3.314,0,6-2.686,6-6V19L34,19z"/>
	</g>
</g>
<g>
	<path style="fill:#FFEEA3;" d="M18.5,20.5V18c0-1.379,1.122-2.5,2.5-2.5s2.5,1.121,2.5,2.5v2.5H18.5z"/>
	<path style="fill:#BA9B48;" d="M21,16c1.103,0,2,0.897,2,2v2h-4v-2C19,16.897,19.897,16,21,16 M21,15c-1.657,0-3,1.343-3,3v3h6v-3   C24,16.343,22.657,15,21,15L21,15z"/>
</g>
<g>
	<path style="fill:#FFEEA3;" d="M13.5,22.1V7c0-1.379,1.122-2.5,2.5-2.5s2.5,1.121,2.5,2.5v15.1H13.5z"/>
	<path style="fill:#BA9B48;" d="M16,5c1.103,0,2,0.897,2,2v14.6h-4V7C14,5.897,14.897,5,16,5 M16,4c-1.657,0-3,1.343-3,3v15.6h6V7   C19,5.343,17.657,4,16,4L16,4z"/>
</g>
<g>
	<path style="fill:#FFEEA3;" d="M23.5,20.5V18c0-1.379,1.122-2.5,2.5-2.5s2.5,1.121,2.5,2.5v2.5H23.5z"/>
	<path style="fill:#BA9B48;" d="M26,16c1.103,0,2,0.897,2,2v2h-4v-2C24,16.897,24.897,16,26,16 M26,15c-1.657,0-3,1.343-3,3v3h6v-3   C29,16.343,27.657,15,26,15L26,15z"/>
</g>
<g>
	<path style="fill:#FFEEA3;" d="M28.5,22.7V19c0-1.379,1.122-2.5,2.5-2.5s2.5,1.121,2.5,2.5v3.7H28.5z"/>
	<path style="fill:#BA9B48;" d="M31,17c1.103,0,2,0.897,2,2v3.2h-4V19C29,17.897,29.897,17,31,17 M31,16c-1.657,0-3,1.343-3,3v4.2h6   V19C34,17.343,32.657,16,31,16L31,16z"/>
</g>
<polygon style="fill:#FFEEA3;" points="32,20 32,19 14,19 14,24 33,24 33,20 "/>
</svg>