<?xml version="1.0" encoding="iso-8859-1"?><!-- Generator: Adobe Illustrator 19.2.1, SVG Export Plug-In . SVG Version: 6.00 Build 0)  --><svg xmlns="http://www.w3.org/2000/svg" xmlns:xlink="http://www.w3.org/1999/xlink" version="1.1" id="Layer_1" x="0px" y="0px" viewBox="0 0 80 80" style="enable-background:new 0 0 80 80;" xml:space="preserve" width="80" height="80">
<g>
	<path style="fill:#F78F8F;" d="M31,29.5c-7.444,0-13.5-6.056-13.5-13.5S23.556,2.5,31,2.5S44.5,8.556,44.5,16S38.444,29.5,31,29.5z   "/>
	<g>
		<path style="fill:#C74343;" d="M31,3c7.168,0,13,5.832,13,13s-5.832,13-13,13s-13-5.832-13-13S23.832,3,31,3 M31,2    c-7.732,0-14,6.268-14,14s6.268,14,14,14s14-6.268,14-14S38.732,2,31,2L31,2z"/>
	</g>
</g>
<g>
	<g>
		<path style="fill:#FFEEA3;" d="M40.625,77.5c-3.629,0-7.083-1.385-9.727-3.9l-0.351-0.334l-0.03,0.029L11.111,53.889    C10.072,52.85,9.5,51.469,9.5,50s0.572-2.85,1.611-3.889S13.531,44.5,15,44.5s2.85,0.572,3.889,1.611l7.611,7.61v-6.692    c0-3.968,3.228-7.196,7.196-7.196h25.607c3.968,0,7.196,3.229,7.196,7.196v17.274c0,7.276-5.92,13.196-13.196,13.196H40.625z"/>
	</g>
	<g>
		<path style="fill:#BA9B48;" d="M59.304,40.333c3.692,0,6.696,3.004,6.696,6.696v17.274C66,71.304,60.304,77,53.304,77H40.625    c-3.501,0-6.833-1.336-9.382-3.763l-0.707-0.672l-0.021,0.021l-19.05-19.05C10.52,52.591,10,51.336,10,50    c0-1.336,0.52-2.591,1.465-3.536C12.409,45.52,13.664,45,15,45s2.591,0.52,3.536,1.464l6.757,6.757L27,54.929v-2.414V47.03    c0-3.692,3.004-6.696,6.696-6.696H59.304 M59.304,39.333H33.696c-4.251,0-7.696,3.446-7.696,7.696v5.485l-6.757-6.757    C18.071,44.586,16.536,44,15,44s-3.071,0.586-4.243,1.757h0c-2.343,2.343-2.343,6.142,0,8.485L30.515,74l0.039-0.039    C33.177,76.458,36.717,78,40.625,78h12.679C60.868,78,67,71.868,67,64.304V47.03C67,42.779,63.554,39.333,59.304,39.333    L59.304,39.333z"/>
	</g>
</g>
<g>
	<path style="fill:#FFEEA3;" d="M36.5,43.1v-6.6c0-2.757,2.243-5,5-5s5,2.243,5,5v6.6H36.5z"/>
	<path style="fill:#BA9B48;" d="M41.5,32c2.481,0,4.5,2.019,4.5,4.5v6.1h-9v-6.1C37,34.019,39.019,32,41.5,32 M41.5,31L41.5,31   c-3.038,0-5.5,2.462-5.5,5.5v7.1h11v-7.1C47,33.462,44.538,31,41.5,31L41.5,31z"/>
</g>
<g>
	<path style="fill:#FFEEA3;" d="M26.5,46.3V14.5c0-2.757,2.243-5,5-5s5,2.243,5,5v31.8H26.5z"/>
	<path style="fill:#BA9B48;" d="M31.5,10c2.481,0,4.5,2.019,4.5,4.5v31.3h-9V14.5C27,12.019,29.019,10,31.5,10 M31.5,9L31.5,9   c-3.038,0-5.5,2.462-5.5,5.5v32.3h11V14.5C37,11.462,34.538,9,31.5,9L31.5,9z"/>
</g>
<g>
	<path style="fill:#FFEEA3;" d="M46.5,43.1v-6.6c0-2.757,2.243-5,5-5s5,2.243,5,5v6.6H46.5z"/>
	<path style="fill:#BA9B48;" d="M51.5,32c2.481,0,4.5,2.019,4.5,4.5v6.1h-9v-6.1C47,34.019,49.019,32,51.5,32 M51.5,31L51.5,31   c-3.038,0-5.5,2.462-5.5,5.5v7.1h11v-7.1C57,33.462,54.538,31,51.5,31L51.5,31z"/>
</g>
<g>
	<path style="fill:#FFEEA3;" d="M56.5,47.5v-9c0-2.757,2.243-5,5-5s5,2.243,5,5v9H56.5z"/>
	<path style="fill:#BA9B48;" d="M61.5,34c2.481,0,4.5,2.019,4.5,4.5V47h-9v-8.5C57,36.019,59.019,34,61.5,34 M61.5,33   c-3.038,0-5.5,2.462-5.5,5.5V48h11v-9.5C67,35.462,64.538,33,61.5,33L61.5,33z"/>
</g>
<polygon style="fill:#FFEEA3;" points="63.947,43 63.947,41 27,41 27,51 66,51 66,43 "/>
</svg>