<?xml version="1.0" encoding="iso-8859-1"?><!-- Generator: Adobe Illustrator 19.2.1, SVG Export Plug-In . SVG Version: 6.00 Build 0)  --><svg xmlns="http://www.w3.org/2000/svg" xmlns:xlink="http://www.w3.org/1999/xlink" version="1.1" id="Layer_1" x="0px" y="0px" viewBox="0 0 30 30" style="enable-background:new 0 0 30 30;" xml:space="preserve" width="30" height="30">
<g>
	<circle style="fill:#F78F8F;" cx="11.5" cy="5.5" r="5"/>
	<g>
		<path style="fill:#C74343;" d="M11.5,1C13.981,1,16,3.019,16,5.5S13.981,10,11.5,10S7,7.981,7,5.5S9.019,1,11.5,1 M11.5,0    C8.462,0,6,2.462,6,5.5S8.462,11,11.5,11S17,8.538,17,5.5S14.538,0,11.5,0L11.5,0z"/>
	</g>
</g>
<g>
	<path style="fill:#FFEEA3;" d="M15,28.5c-2.071,0-3.865-0.83-5.646-2.611l-6.121-6.121C2.76,19.295,2.5,18.667,2.5,18   c0-0.668,0.26-1.296,0.732-1.768C3.705,15.76,4.333,15.5,5,15.5c0.668,0,1.296,0.26,1.768,0.732L9.5,18.965V15.5h16V23   c0,3.032-2.467,5.5-5.5,5.5H15z"/>
	<path style="fill:#BA9B48;" d="M5,16c0.534,0,1.036,0.208,1.414,0.586l1.879,1.879L10,20.172v-2.414V16h15v7c0,2.757-2.243,5-5,5   h-5c-1.214,0-3.084-0.255-5.293-2.465l-6.121-6.121c-0.78-0.78-0.78-2.049,0-2.828C3.964,16.208,4.466,16,5,16 M5,15   c-0.768,0-1.536,0.293-2.121,0.879c-1.172,1.172-1.172,3.071,0,4.243c0,0,3.904,3.904,6.121,6.121C11.218,28.46,13.244,29,15,29   c0.974,0,5,0,5,0c3.314,0,6-2.686,6-6v-8H9v2.757l-1.879-1.879C6.536,15.293,5.768,15,5,15L5,15z"/>
</g>
<g>
	<path style="fill:#FFEEA3;" d="M13.5,15.5v-2c0-1.103,0.897-2,2-2s2,0.897,2,2v2H13.5z"/>
	<path style="fill:#BA9B48;" d="M15.5,12c0.827,0,1.5,0.673,1.5,1.5V15h-3v-1.5C14,12.673,14.673,12,15.5,12 M15.5,11   c-1.381,0-2.5,1.119-2.5,2.5V16h5v-2.5C18,12.119,16.881,11,15.5,11L15.5,11z"/>
</g>
<g>
	<path style="fill:#FFEEA3;" d="M9.5,15.5v-10c0-1.103,0.897-2,2-2s2,0.897,2,2v10H9.5z"/>
	<path style="fill:#BA9B48;" d="M11.5,4C12.327,4,13,4.673,13,5.5V15h-3V5.5C10,4.673,10.673,4,11.5,4 M11.5,3   C10.119,3,9,4.119,9,5.5V16h5V5.5C14,4.119,12.881,3,11.5,3L11.5,3z"/>
</g>
<g>
	<path style="fill:#FFEEA3;" d="M17.5,15.5v-2c0-1.103,0.897-2,2-2s2,0.897,2,2v2H17.5z"/>
	<path style="fill:#BA9B48;" d="M19.5,12c0.827,0,1.5,0.673,1.5,1.5V15h-3v-1.5C18,12.673,18.673,12,19.5,12 M19.5,11   c-1.381,0-2.5,1.119-2.5,2.5V16h5v-2.5C22,12.119,20.881,11,19.5,11L19.5,11z"/>
</g>
<g>
	<path style="fill:#FFEEA3;" d="M21.5,17.5v-3c0-1.103,0.897-2,2-2s2,0.897,2,2v3H21.5z"/>
	<path style="fill:#BA9B48;" d="M23.5,13c0.827,0,1.5,0.673,1.5,1.5V17h-3v-2.5C22,13.673,22.673,13,23.5,13 M23.5,12   c-1.381,0-2.5,1.119-2.5,2.5V18h5v-3.5C26,13.119,24.881,12,23.5,12L23.5,12z"/>
</g>
<polygon style="fill:#FFEEA3;" points="24,15 24,14 10,14 10,19 25,19 25,15 "/>
</svg>