<?xml version="1.0" encoding="iso-8859-1"?><!-- Generator: Adobe Illustrator 19.2.1, SVG Export Plug-In . SVG Version: 6.00 Build 0)  --><svg xmlns="http://www.w3.org/2000/svg" xmlns:xlink="http://www.w3.org/1999/xlink" version="1.1" id="Layer_1" x="0px" y="0px" viewBox="0 0 80 80" style="enable-background:new 0 0 80 80;" xml:space="preserve" width="80" height="80">
<g>
	<rect x="66.5" y="5.5" style="fill:#E1EBF2;" width="11" height="69"/>
	<g>
		<path style="fill:#A3B7CC;" d="M77,6v68H67V6H77 M78,5H66v70h12V5L78,5z"/>
	</g>
</g>
<g>
	<rect x="50.5" y="21.5" style="fill:#E1EBF2;" width="11" height="53"/>
	<g>
		<path style="fill:#A3B7CC;" d="M61,22v52H51V22H61 M62,21H50v54h12V21L62,21z"/>
	</g>
</g>
<g>
	<rect x="34.5" y="35.5" style="fill:#E1EBF2;" width="11" height="39"/>
	<g>
		<path style="fill:#A3B7CC;" d="M45,36v38H35V36H45 M46,35H34v40h12V35L46,35z"/>
	</g>
</g>
<g>
	<rect x="18.5" y="49.5" style="fill:#E1EBF2;" width="11" height="25"/>
	<g>
		<path style="fill:#A3B7CC;" d="M29,50v24H19V50H29 M30,49H18v26h12V49L30,49z"/>
	</g>
</g>
<g>
	<rect x="2.5" y="59.5" style="fill:#E1EBF2;" width="11" height="15"/>
	<g>
		<path style="fill:#A3B7CC;" d="M13,60v14H3V60H13 M14,59H2v16h12V59L14,59z"/>
	</g>
</g>
</svg>