<?xml version="1.0" encoding="iso-8859-1"?><!-- Generator: Adobe Illustrator 19.2.1, SVG Export Plug-In . SVG Version: 6.00 Build 0)  --><svg xmlns="http://www.w3.org/2000/svg" xmlns:xlink="http://www.w3.org/1999/xlink" version="1.1" id="Layer_1" x="0px" y="0px" viewBox="0 0 30 30" style="enable-background:new 0 0 30 30;" xml:space="preserve" width="30" height="30">
<g>
	<rect x="25.5" y="2.5" style="fill:#E1EBF2;" width="4" height="25"/>
	<g>
		<path style="fill:#A3B7CC;" d="M29,3v24h-3V3H29 M30,2h-5v26h5V2L30,2z"/>
	</g>
</g>
<g>
	<rect x="19.5" y="8.5" style="fill:#E1EBF2;" width="4" height="19"/>
	<g>
		<path style="fill:#A3B7CC;" d="M23,9v18h-3V9H23 M24,8h-5v20h5V8L24,8z"/>
	</g>
</g>
<g>
	<rect x="13.5" y="13.5" style="fill:#E1EBF2;" width="4" height="14"/>
	<g>
		<path style="fill:#A3B7CC;" d="M17,14v13h-3V14H17 M18,13h-5v15h5V13L18,13z"/>
	</g>
</g>
<g>
	<rect x="7.5" y="18.5" style="fill:#E1EBF2;" width="4" height="9"/>
	<g>
		<path style="fill:#A3B7CC;" d="M11,19v8H8v-8H11 M12,18H7v10h5V18L12,18z"/>
	</g>
</g>
<g>
	<rect x="1.5" y="22.5" style="fill:#E1EBF2;" width="4" height="5"/>
	<g>
		<path style="fill:#A3B7CC;" d="M5,23v4H2v-4H5 M6,22H1v6h5V22L6,22z"/>
	</g>
</g>
</svg>