<?xml version="1.0" encoding="iso-8859-1"?><!-- Generator: Adobe Illustrator 19.2.1, SVG Export Plug-In . SVG Version: 6.00 Build 0)  --><svg xmlns="http://www.w3.org/2000/svg" xmlns:xlink="http://www.w3.org/1999/xlink" version="1.1" id="Layer_1" x="0px" y="0px" viewBox="0 0 16 16" style="enable-background:new 0 0 16 16;" xml:space="preserve" width="16" height="16">
<g>
	<g>
		<path style="fill:#4E7AB5;" d="M2.088,0v4.126H1.283V1.125c0,0-0.518,0.175-0.932,0.175V0.621C0.861,0.495,1.402,0.216,1.6,0    H2.088z"/>
	</g>
</g>
<path style="fill:#4E7AB5;" d="M0.078,15.797v-0.774c0.27,0.197,0.586,0.296,0.947,0.296c0.227,0,0.404-0.049,0.531-0.147  c0.126-0.098,0.19-0.234,0.19-0.409c0-0.18-0.079-0.319-0.235-0.417C1.354,14.249,1.139,14.2,0.864,14.2H0.49v-0.682h0.347  c0.526,0,0.789-0.175,0.789-0.524c0-0.329-0.202-0.493-0.606-0.493c-0.27,0-0.533,0.087-0.789,0.262v-0.727  c0.284-0.143,0.614-0.214,0.992-0.214c0.413,0,0.735,0.093,0.965,0.279c0.23,0.187,0.345,0.428,0.345,0.724  c0,0.528-0.268,0.858-0.803,0.992v0.014c0.285,0.036,0.511,0.139,0.676,0.311c0.165,0.172,0.248,0.383,0.248,0.632  c0,0.378-0.138,0.676-0.414,0.896C1.963,15.89,1.582,16,1.095,16C0.678,16,0.339,15.932,0.078,15.797z"/>
<g>
	<g>
		<path style="fill:#4E7AB5;" d="M0.97,9.292h1.704v0.734H0V9.724c0-1.463,1.777-1.652,1.777-2.556c0-0.473-0.391-0.521-0.591-0.521    c-0.346,0-0.676,0.137-0.992,0.412V6.28c0.349-0.226,0.744-0.339,1.183-0.339c1.247,0,1.303,0.967,1.303,1.141    C2.679,8.391,0.97,8.739,0.97,9.292z"/>
	</g>
</g>
<rect x="5" y="2" style="fill:#36404D;" width="11" height="1"/>
<rect x="5" y="14" style="fill:#36404D;" width="11" height="1"/>
<rect x="5" y="8" style="fill:#36404D;" width="11" height="1"/>
</svg>