<?xml version="1.0" encoding="iso-8859-1"?><!-- Generator: Adobe Illustrator 19.2.1, SVG Export Plug-In . SVG Version: 6.00 Build 0)  --><svg xmlns="http://www.w3.org/2000/svg" xmlns:xlink="http://www.w3.org/1999/xlink" version="1.1" id="Layer_1" x="0px" y="0px" viewBox="0 0 30 30" style="enable-background:new 0 0 30 30;" xml:space="preserve" width="30" height="30">
<g>
	<g>
		<path style="fill:#4E7AB5;" d="M4.983,2.768v6.435H3.728v-4.68c0,0-0.807,0.273-1.454,0.273v-1.06    C3.07,3.54,3.913,3.105,4.222,2.768H4.983z"/>
	</g>
</g>
<rect x="9" y="6" style="fill:#36404D;" width="20" height="1"/>
<rect x="9" y="24" style="fill:#36404D;" width="20" height="1"/>
<rect x="9" y="15" style="fill:#36404D;" width="20" height="1"/>
<path style="fill:#4E7AB5;" d="M1.849,27.408V26.2c0.422,0.308,0.914,0.462,1.477,0.462c0.354,0,0.63-0.076,0.829-0.229  c0.197-0.152,0.296-0.365,0.296-0.638c0-0.281-0.123-0.498-0.367-0.65c-0.245-0.152-0.581-0.229-1.009-0.229H2.491v-1.063h0.541  c0.82,0,1.23-0.272,1.23-0.817c0-0.513-0.315-0.769-0.945-0.769c-0.422,0-0.832,0.136-1.23,0.408v-1.134  c0.442-0.223,0.958-0.334,1.547-0.334c0.645,0,1.146,0.146,1.505,0.435c0.358,0.291,0.538,0.667,0.538,1.13  c0,0.823-0.417,1.339-1.252,1.547v0.022c0.445,0.056,0.797,0.217,1.055,0.485c0.258,0.268,0.387,0.597,0.387,0.986  c0,0.589-0.215,1.055-0.646,1.397s-1.025,0.514-1.784,0.514C2.785,27.725,2.256,27.619,1.849,27.408z"/>
<g>
	<g>
		<path style="fill:#4E7AB5;" d="M3.239,17.262h2.658v1.145h-4.17v-0.472c0-2.282,2.771-2.576,2.771-3.986    c0-0.738-0.61-0.813-0.922-0.813c-0.539,0-1.055,0.214-1.547,0.643v-1.215c0.545-0.353,1.16-0.529,1.845-0.529    c1.946,0,2.033,1.508,2.033,1.779C5.906,15.857,3.239,16.399,3.239,17.262z"/>
	</g>
</g>
</svg>