<?xml version="1.0" encoding="iso-8859-1"?><!-- Generator: Adobe Illustrator 19.2.1, SVG Export Plug-In . SVG Version: 6.00 Build 0)  --><svg xmlns="http://www.w3.org/2000/svg" xmlns:xlink="http://www.w3.org/1999/xlink" version="1.1" id="Layer_1" x="0px" y="0px" viewBox="0 0 40 40" style="enable-background:new 0 0 40 40;" xml:space="preserve" width="40" height="40">
<g>
	<g>
		<path style="fill:#4E7AB5;" d="M6.177,3.618v8.794H4.462V6.016c0,0-1.103,0.374-1.988,0.374V4.941    c1.088-0.269,2.241-0.863,2.663-1.323H6.177z"/>
	</g>
</g>
<path style="fill:#4E7AB5;" d="M1.894,37.292v-1.651c0.577,0.42,1.249,0.631,2.018,0.631c0.484,0,0.862-0.104,1.132-0.312  c0.27-0.208,0.405-0.499,0.405-0.872c0-0.384-0.167-0.681-0.501-0.889c-0.335-0.208-0.794-0.312-1.379-0.312H2.771v-1.453h0.739  c1.121,0,1.682-0.372,1.682-1.117c0-0.701-0.43-1.05-1.291-1.05c-0.577,0-1.137,0.186-1.682,0.558v-1.55  c0.605-0.304,1.309-0.456,2.114-0.456c0.881,0,1.566,0.199,2.057,0.594c0.49,0.398,0.735,0.912,0.735,1.544  c0,1.125-0.571,1.83-1.712,2.114v0.031c0.609,0.076,1.089,0.296,1.441,0.663c0.352,0.366,0.529,0.815,0.529,1.348  c0,0.805-0.294,1.441-0.883,1.91s-1.401,0.702-2.438,0.702C3.173,37.725,2.45,37.58,1.894,37.292z"/>
<g>
	<g>
		<path style="fill:#4E7AB5;" d="M3.794,23.426h3.632v1.565H1.727v-0.645c0-3.119,3.787-3.521,3.787-5.448    c0-1.009-0.834-1.111-1.26-1.111c-0.737,0-1.442,0.293-2.115,0.878v-1.661c0.745-0.482,1.585-0.723,2.521-0.723    c2.659,0,2.778,2.061,2.778,2.431C7.438,21.505,3.794,22.247,3.794,23.426z"/>
	</g>
</g>
<rect x="12" y="8" style="fill:#36404D;" width="27" height="1"/>
<rect x="12" y="20" style="fill:#36404D;" width="27" height="1"/>
<rect x="12" y="32" style="fill:#36404D;" width="27" height="1"/>
</svg>