<?xml version="1.0" encoding="iso-8859-1"?><!-- Generator: Adobe Illustrator 19.2.1, SVG Export Plug-In . SVG Version: 6.00 Build 0)  --><svg xmlns="http://www.w3.org/2000/svg" xmlns:xlink="http://www.w3.org/1999/xlink" version="1.1" id="Layer_1" x="0px" y="0px" viewBox="0 0 80 80" style="enable-background:new 0 0 80 80;" xml:space="preserve" width="80" height="80">
<g>
	<g>
		<path style="fill:#4E7AB5;" d="M12.179,10v15.176H9.22V14.138c0,0-1.904,0.645-3.43,0.645v-2.499    c1.878-0.464,3.867-1.49,4.595-2.283H12.179z"/>
	</g>
</g>
<path style="fill:#4E7AB5;" d="M4.788,68.111v-2.849c0.995,0.725,2.156,1.089,3.482,1.089c0.836,0,1.487-0.18,1.954-0.539  c0.465-0.359,0.699-0.861,0.699-1.504c0-0.663-0.289-1.175-0.865-1.534c-0.578-0.359-1.37-0.539-2.379-0.539H6.301v-2.508h1.275  c1.935,0,2.902-0.643,2.902-1.928c0-1.209-0.743-1.813-2.228-1.813c-0.995,0-1.962,0.32-2.902,0.963v-2.674  c1.043-0.525,2.259-0.788,3.648-0.788c1.52,0,2.703,0.343,3.55,1.025c0.845,0.686,1.269,1.573,1.269,2.665  c0,1.942-0.985,3.158-2.954,3.648v0.053c1.05,0.131,1.879,0.511,2.487,1.145c0.608,0.631,0.912,1.407,0.912,2.326  c0,1.389-0.508,2.487-1.524,3.296c-1.016,0.808-2.418,1.211-4.208,1.211C6.995,68.857,5.748,68.608,4.788,68.111z"/>
<g>
	<g>
		<path style="fill:#4E7AB5;" d="M8.067,44.183h6.268v2.701H4.5V45.77c0-5.383,6.536-6.076,6.536-9.402    c0-1.741-1.44-1.917-2.175-1.917c-1.271,0-2.488,0.505-3.649,1.515v-2.866c1.285-0.832,2.735-1.247,4.35-1.247    c4.589,0,4.794,3.557,4.794,4.196C14.355,40.868,8.067,42.148,8.067,44.183z"/>
	</g>
</g>
<rect x="22" y="15" style="fill:#36404D;" width="56" height="1"/>
<rect x="22" y="39" style="fill:#36404D;" width="56" height="1"/>
<rect x="22" y="63" style="fill:#36404D;" width="56" height="1"/>
</svg>