<?xml version="1.0" encoding="iso-8859-1"?><!-- Generator: Adobe Illustrator 19.2.1, SVG Export Plug-In . SVG Version: 6.00 Build 0)  --><svg xmlns="http://www.w3.org/2000/svg" xmlns:xlink="http://www.w3.org/1999/xlink" version="1.1" id="Layer_1" x="0px" y="0px" viewBox="0 0 16 16" style="enable-background:new 0 0 16 16;" xml:space="preserve" width="16" height="16">
<g>
	<rect x="1.5" y="2.5" style="fill:#FFFFFF;" width="14" height="13"/>
	<g>
		<path style="fill:#788B9C;" d="M15,3v12H2V3H15 M16,2H1v14h15V2L16,2z"/>
	</g>
</g>
<rect x="2" y="14" style="fill:#E1EBF2;" width="13" height="1"/>
<rect x="6" y="7" style="fill:#C5D4DE;" width="1" height="1"/>
<rect x="8" y="7" style="fill:#C5D4DE;" width="1" height="1"/>
<rect x="10" y="7" style="fill:#C5D4DE;" width="1" height="1"/>
<rect x="12" y="7" style="fill:#C5D4DE;" width="1" height="1"/>
<rect x="4" y="9" style="fill:#C5D4DE;" width="1" height="1"/>
<rect x="6" y="9" style="fill:#C5D4DE;" width="1" height="1"/>
<rect x="8" y="9" style="fill:#C5D4DE;" width="1" height="1"/>
<rect x="10" y="9" style="fill:#C5D4DE;" width="1" height="1"/>
<rect x="12" y="9" style="fill:#C5D4DE;" width="1" height="1"/>
<rect x="4" y="11" style="fill:#C5D4DE;" width="1" height="1"/>
<rect x="6" y="11" style="fill:#C5D4DE;" width="1" height="1"/>
<rect x="8" y="11" style="fill:#C5D4DE;" width="1" height="1"/>
<rect x="10" y="11" style="fill:#C5D4DE;" width="1" height="1"/>
<g>
	<rect x="1.5" y="2.5" style="fill:#F78F8F;" width="14" height="2"/>
	<g>
		<path style="fill:#C74343;" d="M15,3v1H2V3H15 M16,2H1v3h15V2L16,2z"/>
	</g>
</g>
<g>
	<circle style="fill:#FFFFFF;" cx="4.5" cy="4.5" r="4"/>
	<g>
		<path style="fill:#4E7AB5;" d="M4.5,1C6.43,1,8,2.57,8,4.5S6.43,8,4.5,8S1,6.43,1,4.5S2.57,1,4.5,1 M4.5,0C2.015,0,0,2.015,0,4.5    S2.015,9,4.5,9S9,6.985,9,4.5S6.985,0,4.5,0L4.5,0z"/>
	</g>
</g>
<circle style="fill:#36404D;" cx="4.5" cy="4.5" r="0.562"/>
<polyline style="fill:none;stroke:#36404D;stroke-miterlimit:10;" points="5.786,6.107 4.5,4.5 5.464,1.929 "/>
</svg>