<?xml version="1.0" encoding="iso-8859-1"?><!-- Generator: Adobe Illustrator 19.2.1, SVG Export Plug-In . SVG Version: 6.00 Build 0)  --><svg xmlns="http://www.w3.org/2000/svg" xmlns:xlink="http://www.w3.org/1999/xlink" version="1.1" id="Layer_1" x="0px" y="0px" viewBox="0 0 40 40" style="enable-background:new 0 0 40 40;" xml:space="preserve" width="40" height="40">
<g>
	<path style="fill:#DCD5F2;" d="M11,38.5c-3.032,0-5.5-2.468-5.5-5.5V14.5h29V33c0,3.032-2.468,5.5-5.5,5.5H11z"/>
	<path style="fill:#8B75A1;" d="M34,15v18c0,2.757-2.243,5-5,5H11c-2.757,0-5-2.243-5-5V15H34 M35,14H5v19c0,3.314,2.686,6,6,6h18   c3.314,0,6-2.686,6-6V14L35,14z"/>
</g>
<g>
	<path style="fill:#F0EDF7;" d="M6,15h10v23h-5c-2.761,0-5-2.239-5-5V15z"/>
</g>
<path style="fill:none;stroke:#8B75A1;stroke-miterlimit:10;" d="M5.5,14.619V11.5c0-5.523,4.477-10,10-10h9c5.523,0,10,4.477,10,10  v3.119"/>
<g>
	<path style="fill:#DCD5F2;" d="M6,15.5c-0.827,0-1.5-0.673-1.5-1.5s0.673-1.5,1.5-1.5h28c0.827,0,1.5,0.673,1.5,1.5   s-0.673,1.5-1.5,1.5H6z"/>
	<path style="fill:#8B75A1;" d="M34,13c0.551,0,1,0.449,1,1s-0.449,1-1,1H6c-0.551,0-1-0.449-1-1s0.449-1,1-1H34 M34,12H6   c-1.105,0-2,0.895-2,2s0.895,2,2,2h28c1.105,0,2-0.895,2-2S35.105,12,34,12L34,12z"/>
</g>
<g>
	<path style="fill:#F78F8F;" d="M24.499,30.5c-0.068,0-0.138-0.003-0.207-0.01c-1.005-0.102-1.792-1.038-1.792-2.133V20.5   c0-1.103-0.897-2-2-2s-2,0.897-2,2V21c0,1.379-1.122,2.5-2.501,2.5l-0.134-0.003c-1.305-0.068-2.365-1.265-2.365-2.667V17   c0-1.858-0.926-3.504-2.341-4.5h17.682C27.426,13.496,26.5,15.142,26.5,17v11.5c0,0.534-0.208,1.036-0.586,1.414   S25.034,30.5,24.499,30.5C24.499,30.5,24.499,30.5,24.499,30.5z"/>
	<path style="fill:#C74343;" d="M27.532,13C26.58,14.062,26,15.465,26,17v2v9.5c0,0.827-0.673,1.5-1.5,1.5   c-0.052,0-0.105-0.003-0.158-0.008C23.589,29.917,23,29.199,23,28.357V20.5c0-1.379-1.121-2.5-2.5-2.5S18,19.121,18,20.5V21   c0,1.103-0.897,2-2,2c-0.036,0-0.073-0.001-0.109-0.003C14.848,22.943,14,21.97,14,20.83V19v-2c0-1.535-0.58-2.938-1.532-4H27.532    M32,12H8c2.761,0,5,2.239,5,5v2v1.83c0,1.624,1.216,3.081,2.839,3.165C15.893,23.999,15.947,24,16,24c1.657,0,3-1.343,3-3v-0.5   c0-0.828,0.672-1.5,1.5-1.5s1.5,0.672,1.5,1.5v7.857c0,1.308,0.941,2.499,2.242,2.63C24.329,30.996,24.415,31,24.5,31   c1.381,0,2.5-1.119,2.5-2.5V19v-2C27,14.239,29.239,12,32,12L32,12z"/>
</g>
</svg>