<?xml version="1.0" encoding="iso-8859-1"?><!-- Generator: Adobe Illustrator 19.2.1, SVG Export Plug-In . SVG Version: 6.00 Build 0)  --><svg xmlns="http://www.w3.org/2000/svg" xmlns:xlink="http://www.w3.org/1999/xlink" version="1.1" id="Layer_1" x="0px" y="0px" viewBox="0 0 30 30" style="enable-background:new 0 0 30 30;" xml:space="preserve" width="30" height="30">
<path style="fill:none;stroke:#8B75A1;stroke-miterlimit:10;" d="M4.5,11V8.5c0-3.866,3.134-7,7-7h7c3.866,0,7,3.134,7,7V11"/>
<g>
	<path style="fill:#DCD5F2;" d="M8,28.5c-1.93,0-3.5-1.57-3.5-3.5V11.5h21V25c0,1.93-1.57,3.5-3.5,3.5H8z"/>
	<path style="fill:#8B75A1;" d="M25,12v13c0,1.654-1.346,3-3,3H8c-1.654,0-3-1.346-3-3V12H25 M26,11H4v14c0,2.209,1.791,4,4,4h14   c2.209,0,4-1.791,4-4V11L26,11z"/>
</g>
<g>
	<path style="fill:#F0EDF7;" d="M5,11h8v17H8c-1.657,0-3-1.343-3-3V11z"/>
</g>
<g>
	<path style="fill:#DCD5F2;" d="M4.5,11.5c-0.552,0-1-0.448-1-1s0.448-1,1-1h21c0.552,0,1,0.448,1,1s-0.448,1-1,1H4.5z"/>
	<path style="fill:#8B75A1;" d="M25.5,10c0.276,0,0.5,0.224,0.5,0.5S25.776,11,25.5,11h-21C4.224,11,4,10.776,4,10.5   S4.224,10,4.5,10H25.5 M25.5,9h-21C3.672,9,3,9.672,3,10.5S3.672,12,4.5,12h21c0.828,0,1.5-0.672,1.5-1.5S26.328,9,25.5,9L25.5,9z"/>
</g>
<g>
	<path style="fill:#F78F8F;" d="M18,22.5c-0.084,0-0.169-0.007-0.256-0.021c-0.709-0.116-1.244-0.798-1.244-1.587V15   c0-0.827-0.673-1.5-1.5-1.5s-1.5,0.673-1.5,1.5v0.5c0,1.103-0.897,2-2.001,2c-0.068,0-0.138-0.003-0.207-0.01   C10.287,17.389,9.5,16.452,9.5,15.357V14c0-1.858-0.926-3.504-2.341-4.5h14.682C20.426,10.496,19.5,12.142,19.5,14v7   c0,0.4-0.156,0.777-0.439,1.061S18.401,22.5,18,22.5L18,22.5z"/>
	<path style="fill:#C74343;" d="M20.532,10C19.58,11.062,19,12.465,19,14v3v4c0,0.551-0.449,1-1,1c-0.057,0-0.116-0.005-0.175-0.014   C17.362,21.91,17,21.43,17,20.893V15c0-1.103-0.897-2-2-2s-2,0.897-2,2v0.5c0,0.827-0.673,1.5-1.5,1.5   c-0.052,0-0.105-0.003-0.158-0.008C10.589,16.917,10,16.199,10,15.357V14c0-1.535-0.58-2.938-1.532-4H20.532 M25,9H4   c2.761,0,5,2.239,5,5v1.357c0,1.308,0.941,2.499,2.242,2.63C11.329,17.996,11.415,18,11.5,18c1.381,0,2.5-1.119,2.5-2.5V15   c0-0.552,0.448-1,1-1s1,0.448,1,1v5.893c0,0.996,0.681,1.92,1.664,2.08C17.778,22.991,17.89,23,18,23c1.105,0,2-0.895,2-2v-4v-3   C20,11.239,22.239,9,25,9L25,9z"/>
</g>
</svg>