<?xml version="1.0" encoding="iso-8859-1"?><!-- Generator: Adobe Illustrator 19.2.1, SVG Export Plug-In . SVG Version: 6.00 Build 0)  --><svg xmlns="http://www.w3.org/2000/svg" xmlns:xlink="http://www.w3.org/1999/xlink" version="1.1" id="Layer_1" x="0px" y="0px" viewBox="0 0 16 16" style="enable-background:new 0 0 16 16;" xml:space="preserve" width="16" height="16">
<g>
	<path style="fill:#F5C276;" d="M7.934,15.5c-2.133,0-4.171-0.913-5.593-2.505c-1.442-1.613-2.102-3.697-1.856-5.869   c0.379-3.365,3.089-6.125,6.443-6.561C7.263,0.521,7.602,0.5,7.935,0.5c3.234,0,6.095,2.061,7.116,5.127   c0.103,0.306,0.405,1.354,0.015,1.996c-0.186,0.304-0.515,0.489-1.006,0.565c-0.213,0.032-0.607,0.082-1.064,0.138   c-0.866,0.104-1.657,0.567-2.169,1.274c-0.511,0.704-0.705,1.598-0.534,2.451l0.091,0.453c0.147,0.737-0.041,1.494-0.517,2.076   C9.39,15.163,8.686,15.498,7.934,15.5z M7,10.5c-0.827,0-1.5,0.673-1.5,1.5s0.673,1.5,1.5,1.5s1.5-0.673,1.5-1.5S7.827,10.5,7,10.5   z"/>
	<path style="fill:#C29653;" d="M7.934,1c3.019,0,5.689,1.923,6.643,4.785c0.22,0.659,0.244,1.278,0.061,1.578   c-0.038,0.063-0.155,0.254-0.655,0.331c-0.21,0.033-0.598,0.081-1.048,0.135c-1.004,0.12-1.92,0.658-2.513,1.477   C9.83,10.123,9.604,11.16,9.802,12.15l0.091,0.453c0.118,0.59-0.033,1.196-0.414,1.662C9.098,14.731,8.534,14.999,7.934,15   c-1.991,0-3.894-0.852-5.222-2.338c-1.346-1.506-1.961-3.452-1.732-5.48c0.354-3.14,2.882-5.714,6.011-6.121   C7.306,1.021,7.623,1,7.934,1 M7,14c1.103,0,2-0.897,2-2s-0.897-2-2-2s-2,0.897-2,2S5.897,14,7,14 M7.934,0   c-0.352,0-0.71,0.023-1.071,0.07c-3.593,0.466-6.47,3.4-6.876,7C-0.558,11.905,3.21,16,7.934,16   c1.893-0.005,3.31-1.737,2.939-3.593l-0.091-0.453c-0.301-1.507,0.746-2.949,2.272-3.131c0.464-0.056,0.865-0.106,1.082-0.14   c2.111-0.327,1.655-2.418,1.389-3.214C14.467,2.291,11.468,0,7.934,0L7.934,0z M7,13c-0.552,0-1-0.448-1-1c0-0.552,0.448-1,1-1   s1,0.448,1,1C8,12.552,7.552,13,7,13L7,13z"/>
</g>
<g>
	<circle style="fill:#4E7AB5;" cx="11.5" cy="5.5" r="1.5"/>
</g>
<g>
	<circle style="fill:#5E9C76;" cx="7.5" cy="3.5" r="1.5"/>
</g>
<g>
	<circle style="fill:#FFEEA3;" cx="3.5" cy="5.5" r="1.5"/>
</g>
<g>
	<circle style="fill:#C74343;" cx="3.5" cy="9.5" r="1.5"/>
</g>
</svg>