<?xml version="1.0" encoding="iso-8859-1"?><!-- Generator: Adobe Illustrator 19.2.1, SVG Export Plug-In . SVG Version: 6.00 Build 0)  --><svg xmlns="http://www.w3.org/2000/svg" xmlns:xlink="http://www.w3.org/1999/xlink" version="1.1" id="Layer_1" x="0px" y="0px" viewBox="0 0 16 16" style="enable-background:new 0 0 16 16;" xml:space="preserve" width="16" height="16">
<path style="fill:none;stroke:#8B75A1;stroke-miterlimit:10;" d="M1.5,5.5v-2c0-1.657,1.343-3,3-3h7c1.657,0,3,1.343,3,3v2"/>
<g>
	<path style="fill:#DCD5F2;" d="M4,15.5c-1.378,0-2.5-1.121-2.5-2.5V6.5h13V13c0,1.379-1.122,2.5-2.5,2.5H4z"/>
	<path style="fill:#8B75A1;" d="M14,7v6c0,1.103-0.897,2-2,2H4c-1.103,0-2-0.897-2-2V7H14 M15,6H1v7c0,1.657,1.343,3,3,3h8   c1.657,0,3-1.343,3-3V6L15,6z"/>
</g>
<g>
	<rect x="0.5" y="4.5" style="fill:#DCD5F2;" width="15" height="2"/>
	<g>
		<path style="fill:#8B75A1;" d="M15,5v1H1V5H15 M16,4H0v3h16V4L16,4z"/>
	</g>
</g>
<g>
	<path style="fill:#F78F8F;" d="M10.5,12.5c-0.552,0-1-0.448-1-1V9c0-0.827-0.673-1.5-1.5-1.5S6.5,8.173,6.5,9v0.5   c0,0.552-0.448,1-1,1s-1-0.448-1-1V6c0-0.562-0.187-1.082-0.501-1.5h8.002C11.687,4.918,11.5,5.438,11.5,6v5.5   C11.5,12.052,11.052,12.5,10.5,12.5z"/>
	<path style="fill:#C74343;" d="M11.171,5C11.06,5.313,11,5.65,11,6v5.5c0,0.276-0.224,0.5-0.5,0.5S10,11.776,10,11.5V9   c0-1.103-0.897-2-2-2S6,7.897,6,9v0.5C6,9.776,5.776,10,5.5,10S5,9.776,5,9.5V6c0-0.35-0.06-0.687-0.171-1H11.171 M14,4H2   c1.105,0,2,0.895,2,2v3.5C4,10.328,4.672,11,5.5,11S7,10.328,7,9.5V9c0-0.552,0.448-1,1-1s1,0.448,1,1v2.5   c0,0.828,0.672,1.5,1.5,1.5s1.5-0.672,1.5-1.5V6C12,4.895,12.895,4,14,4L14,4z"/>
</g>
</svg>