<?xml version="1.0" encoding="iso-8859-1"?><!-- Generator: Adobe Illustrator 19.2.1, SVG Export Plug-In . SVG Version: 6.00 Build 0)  --><svg xmlns="http://www.w3.org/2000/svg" xmlns:xlink="http://www.w3.org/1999/xlink" version="1.1" id="Layer_1" x="0px" y="0px" viewBox="0 0 80 80" style="enable-background:new 0 0 80 80;" xml:space="preserve" width="80" height="80">
<g>
	<path style="fill:#DCD5F2;" d="M22,77.5c-6.341,0-11.5-5.159-11.5-11.5V28.5h59V66c0,6.341-5.159,11.5-11.5,11.5H22z"/>
	<path style="fill:#8B75A1;" d="M69,29v37c0,6.065-4.935,11-11,11H22c-6.065,0-11-4.935-11-11V29H69 M70,28H10v38   c0,6.627,5.373,12,12,12h36c6.627,0,12-5.373,12-12V28L70,28z"/>
</g>
<g>
	<path style="fill:#F0EDF7;" d="M11,30h20v47h-9c-6.075,0-11-4.925-11-11V30z"/>
</g>
<path style="fill:none;stroke:#8B75A1;stroke-miterlimit:10;" d="M11,28.738V22.5c0-11.046,8.954-20,20-20h18  c11.046,0,20,8.954,20,20v6.238"/>
<g>
	<path style="fill:#DCD5F2;" d="M11,29.5c-1.378,0-2.5-1.121-2.5-2.5s1.122-2.5,2.5-2.5h58c1.378,0,2.5,1.121,2.5,2.5   s-1.122,2.5-2.5,2.5H11z"/>
	<path style="fill:#8B75A1;" d="M69,25c1.103,0,2,0.897,2,2s-0.897,2-2,2H11c-1.103,0-2-0.897-2-2s0.897-2,2-2H69 M69,24H11   c-1.657,0-3,1.343-3,3s1.343,3,3,3h58c1.657,0,3-1.343,3-3S70.657,24,69,24L69,24z"/>
</g>
<g>
	<path style="fill:#F78F8F;" d="M48.999,61.5c-0.153,0-0.309-0.007-0.465-0.022c-2.262-0.228-4.034-2.319-4.034-4.763V41   c0-1.93-1.57-3.5-3.5-3.5s-3.5,1.57-3.5,3.5v1c0,3.032-2.467,5.5-5.499,5.5c-0.099,0-0.197-0.003-0.297-0.008   c-2.87-0.15-5.204-2.767-5.204-5.832V34c0-4.191-2.469-7.817-6.029-9.5h39.059C55.969,26.183,53.5,29.809,53.5,34v23   c0,1.202-0.468,2.332-1.318,3.183C51.332,61.032,50.201,61.5,48.999,61.5L48.999,61.5z"/>
	<path style="fill:#C74343;" d="M57.682,25C54.852,26.992,53,30.284,53,34v4v19c0,2.206-1.794,4-4,4   c-0.137,0-0.276-0.007-0.416-0.021C46.574,60.778,45,58.905,45,56.715V41c0-2.206-1.794-4-4-4s-4,1.794-4,4v1c0,2.757-2.243,5-5,5   c-0.09,0-0.18-0.002-0.27-0.007C29.122,46.856,27,44.464,27,41.661V38v-4c0-3.716-1.852-7.008-4.682-9H57.682 M64,24H16   c5.523,0,10,4.477,10,10v4v3.661c0,3.249,2.433,6.161,5.677,6.331C31.786,47.997,31.893,48,32,48c3.314,0,6-2.686,6-6v-1   c0-1.657,1.343-3,3-3s3,1.343,3,3v15.715c0,2.615,1.882,4.999,4.484,5.259C48.658,61.992,48.83,62,49,62c2.762,0,5-2.239,5-5V38v-4   C54,28.477,58.477,24,64,24L64,24z"/>
</g>
</svg>