<?xml version="1.0" encoding="iso-8859-1"?><!-- Generator: Adobe Illustrator 19.2.1, SVG Export Plug-In . SVG Version: 6.00 Build 0)  --><svg xmlns="http://www.w3.org/2000/svg" xmlns:xlink="http://www.w3.org/1999/xlink" version="1.1" id="Layer_1" x="0px" y="0px" viewBox="0 0 30 30" style="enable-background:new 0 0 30 30;" xml:space="preserve" width="30" height="30">
<g>
	<path style="fill:#F5C276;" d="M14.999,28.5c-3.839,0-7.509-1.644-10.069-4.509c-2.595-2.904-3.781-6.655-3.341-10.562   C2.272,7.369,7.151,2.402,13.189,1.618C13.792,1.54,14.401,1.5,15,1.5c5.822,0,10.971,3.709,12.811,9.229   c0.246,0.736,0.736,2.581-0.012,3.807c-0.38,0.623-1.061,1.016-2.021,1.164c-0.378,0.06-1.071,0.147-1.876,0.243   c-1.413,0.169-2.701,0.926-3.535,2.076c-0.833,1.149-1.151,2.606-0.873,3.998l0.159,0.794c0.28,1.4-0.078,2.838-0.982,3.944   C17.766,27.86,16.428,28.496,14.999,28.5z M14,20.5c-1.379,0-2.5,1.121-2.5,2.5s1.121,2.5,2.5,2.5s2.5-1.121,2.5-2.5   S15.379,20.5,14,20.5z"/>
	<path style="fill:#C29653;" d="M15,2c5.607,0,10.564,3.571,12.336,8.886c0.174,0.523,0.692,2.313,0.036,3.388   c-0.304,0.499-0.851,0.804-1.672,0.931c-0.373,0.058-1.061,0.145-1.859,0.24c-1.55,0.186-2.964,1.017-3.88,2.28   c-0.914,1.262-1.263,2.861-0.958,4.389l0.159,0.794c0.251,1.254-0.07,2.54-0.879,3.53C17.474,27.428,16.276,27.997,15,28   c-3.697,0-7.232-1.582-9.697-4.341c-2.499-2.797-3.642-6.41-3.217-10.174C2.743,7.651,7.44,2.868,13.254,2.114   C13.835,2.038,14.422,2,15,2 M14,26c1.654,0,3-1.346,3-3s-1.346-3-3-3s-3,1.346-3,3S12.346,26,14,26 M15,1   c-0.617,0-1.242,0.04-1.875,0.122C6.837,1.938,1.802,7.072,1.092,13.373C0.138,21.833,6.732,29,15,29   c3.312-0.008,5.792-3.04,5.142-6.288l-0.159-0.794c-0.527-2.637,1.306-5.16,3.976-5.48c0.813-0.097,1.513-0.186,1.894-0.245   c3.694-0.573,2.895-4.231,2.431-5.624C26.431,5.009,21.183,1,15,1L15,1z M14,25c-1.105,0-2-0.895-2-2c0-1.105,0.895-2,2-2   s2,0.895,2,2C16,24.105,15.105,25,14,25L14,25z"/>
</g>
<g>
	<circle style="fill:#F78F8F;" cx="7.5" cy="17.5" r="2"/>
	<path style="fill:#C74343;" d="M7.5,16C8.327,16,9,16.673,9,17.5S8.327,19,7.5,19S6,18.327,6,17.5S6.673,16,7.5,16 M7.5,15   C6.119,15,5,16.119,5,17.5S6.119,20,7.5,20s2.5-1.119,2.5-2.5S8.881,15,7.5,15L7.5,15z"/>
</g>
<g>
	<circle style="fill:#FFEEA3;" cx="7.5" cy="10.5" r="2"/>
	<g>
		<path style="fill:#BA9B48;" d="M7.5,9C8.327,9,9,9.673,9,10.5S8.327,12,7.5,12S6,11.327,6,10.5S6.673,9,7.5,9 M7.5,8    C6.119,8,5,9.119,5,10.5S6.119,13,7.5,13s2.5-1.119,2.5-2.5S8.881,8,7.5,8L7.5,8z"/>
	</g>
</g>
<g>
	<circle style="fill:#BAE0BD;" cx="13.5" cy="6.5" r="2"/>
	<g>
		<path style="fill:#5E9C76;" d="M13.5,5C14.327,5,15,5.673,15,6.5S14.327,8,13.5,8S12,7.327,12,6.5S12.673,5,13.5,5 M13.5,4    C12.119,4,11,5.119,11,6.5S12.119,9,13.5,9S16,7.881,16,6.5S14.881,4,13.5,4L13.5,4z"/>
	</g>
</g>
<g>
	<circle style="fill:#8BB7F0;" cx="20.5" cy="8.5" r="2"/>
	<g>
		<path style="fill:#4E7AB5;" d="M20.5,7C21.327,7,22,7.673,22,8.5S21.327,10,20.5,10S19,9.327,19,8.5S19.673,7,20.5,7 M20.5,6    C19.119,6,18,7.119,18,8.5s1.119,2.5,2.5,2.5S23,9.881,23,8.5S21.881,6,20.5,6L20.5,6z"/>
	</g>
</g>
</svg>