<?xml version="1.0" encoding="iso-8859-1"?><!-- Generator: Adobe Illustrator 19.2.1, SVG Export Plug-In . SVG Version: 6.00 Build 0)  --><svg xmlns="http://www.w3.org/2000/svg" xmlns:xlink="http://www.w3.org/1999/xlink" version="1.1" id="Layer_1" x="0px" y="0px" viewBox="0 0 80 80" style="enable-background:new 0 0 80 80;" xml:space="preserve" width="80" height="80">
<g>
	<g>
		<path style="fill:#F78F8F;" d="M40,77.5C19.322,77.5,2.5,60.678,2.5,40S19.322,2.5,40,2.5S77.5,19.322,77.5,40    S60.678,77.5,40,77.5z M40,9.5C23.183,9.5,9.5,23.183,9.5,40S23.183,70.5,40,70.5S70.5,56.817,70.5,40S56.817,9.5,40,9.5z"/>
	</g>
	<g>
		<path style="fill:#C74343;" d="M40,3c20.402,0,37,16.598,37,37S60.402,77,40,77S3,60.402,3,40S19.598,3,40,3 M40,71    c17.093,0,31-13.907,31-31S57.093,9,40,9S9,22.907,9,40S22.907,71,40,71 M40,2C19.013,2,2,19.013,2,40s17.013,38,38,38    s38-17.013,38-38S60.987,2,40,2L40,2z M40,70c-16.569,0-30-13.432-30-30c0-16.569,13.431-30,30-30s30,13.431,30,30    C70,56.568,56.569,70,40,70L40,70z"/>
	</g>
</g>
<path style="fill:#FFFFFF;" d="M3.374,30c0.974-3.573,2.451-6.929,4.359-10h9.951C23.177,13.876,31.126,10,40,10  c16.569,0,30,13.431,30,30c0,16.568-13.431,30-30,30S10,56.568,10,40c0-3.512,0.635-6.868,1.744-10H3.374z"/>
<polyline style="fill:none;stroke:#66798F;stroke-width:2;stroke-linecap:round;stroke-miterlimit:10;" points="53.989,19.33 40,40   51.692,51.692 "/>
<g>
	<circle style="fill:#66798F;" cx="40" cy="40" r="3"/>
</g>
<g>
	<circle style="fill:#C5D4DE;" cx="40" cy="13" r="1"/>
</g>
<g>
	<circle style="fill:#C5D4DE;" cx="40" cy="67" r="1"/>
</g>
<g>
	<circle style="fill:#C5D4DE;" cx="13" cy="40" r="1"/>
</g>
<g>
	<circle style="fill:#C5D4DE;" cx="67" cy="40" r="1"/>
</g>
<g>
	<polygon style="fill:#F78F8F;" points="7.5,25.5 7.5,8.207 24.793,25.5  "/>
	<g>
		<path style="fill:#C74343;" d="M8,9.414L23.586,25H8V9.414 M7,7v19h19L7,7L7,7z"/>
	</g>
</g>
<path style="fill:none;stroke:#F78F8F;stroke-width:6;stroke-miterlimit:10;" d="M19.009,13.252  c-1.927,1.514-3.686,3.232-5.245,5.121"/>
</svg>