<?xml version="1.0" encoding="iso-8859-1"?><!-- Generator: Adobe Illustrator 19.2.1, SVG Export Plug-In . SVG Version: 6.00 Build 0)  --><svg xmlns="http://www.w3.org/2000/svg" xmlns:xlink="http://www.w3.org/1999/xlink" version="1.1" id="Layer_1" x="0px" y="0px" viewBox="0 0 30 30" style="enable-background:new 0 0 30 30;" xml:space="preserve" width="30" height="30">
<g>
	<g>
		<path style="fill:#F78F8F;" d="M15,28.5C7.556,28.5,1.5,22.444,1.5,15S7.556,1.5,15,1.5S28.5,7.556,28.5,15S22.444,28.5,15,28.5z     M15,3.5C8.659,3.5,3.5,8.659,3.5,15S8.659,26.5,15,26.5S26.5,21.341,26.5,15S21.341,3.5,15,3.5z"/>
	</g>
	<g>
		<path style="fill:#C74343;" d="M15,2c7.168,0,13,5.832,13,13s-5.832,13-13,13S2,22.168,2,15S7.832,2,15,2 M15,27    c6.617,0,12-5.383,12-12S21.617,3,15,3S3,8.383,3,15S8.383,27,15,27 M15,1C7.268,1,1,7.268,1,15s6.268,14,14,14s14-6.268,14-14    S22.732,1,15,1L15,1z M15,26C8.925,26,4,21.075,4,15S8.925,4,15,4s11,4.925,11,11S21.075,26,15,26L15,26z"/>
	</g>
</g>
<g>
	<path style="fill:#FFFFFF;" d="M1.587,11c0.482-1.618,1.247-3.113,2.238-4.428l2.032,2.313C7.831,5.94,11.188,4,15,4   c6.075,0,11,4.925,11,11s-4.925,11-11,11S4,21.075,4,15c0-1.413,0.276-2.759,0.761-4H1.587z"/>
</g>
<polyline style="fill:none;stroke:#66798F;stroke-linecap:round;stroke-miterlimit:10;" points="20,7 15,15 18,20 "/>
<g>
	<circle style="fill:#66798F;" cx="15" cy="15" r="1.5"/>
</g>
<g>
	<circle style="fill:#C5D4DE;" cx="15" cy="6" r="1"/>
</g>
<g>
	<circle style="fill:#C5D4DE;" cx="15" cy="24" r="1"/>
</g>
<g>
	<circle style="fill:#C5D4DE;" cx="6" cy="15" r="1"/>
</g>
<g>
	<circle style="fill:#C5D4DE;" cx="24" cy="15" r="1"/>
</g>
<g>
	<polygon style="fill:#F78F8F;" points="3.5,8.5 3.5,3.207 8.793,8.5  "/>
	<g>
		<path style="fill:#C74343;" d="M4,4.414L7.586,8H4V4.414 M3,2v7h7L3,2L3,2z"/>
	</g>
</g>
<path style="fill:none;stroke:#F78F8F;stroke-miterlimit:10;" d="M5.154,7.297C5.796,6.479,6.537,5.742,7.36,5.106"/>
</svg>