<?xml version="1.0" encoding="iso-8859-1"?><!-- Generator: Adobe Illustrator 19.2.1, SVG Export Plug-In . SVG Version: 6.00 Build 0)  --><svg xmlns="http://www.w3.org/2000/svg" xmlns:xlink="http://www.w3.org/1999/xlink" version="1.1" id="Layer_1" x="0px" y="0px" viewBox="0 0 80 80" style="enable-background:new 0 0 80 80;" xml:space="preserve" width="80" height="80">
<g>
	<path style="fill:#F5C276;" d="M34.926,32.791L60.611,7.106C62.292,5.426,64.473,4.5,66.752,4.5s4.46,0.926,6.141,2.606   c3.5,3.501,3.5,8.781,0,12.282L47.208,45.073L34.926,32.791z"/>
	<path style="fill:#C29653;" d="M66.752,5c2.146,0,4.201,0.874,5.788,2.46S75,11.102,75,13.248c0,2.146-0.874,4.201-2.46,5.788   L47.209,44.366L35.634,32.791L60.965,7.46C62.551,5.874,64.607,5,66.752,5 M66.752,4c-2.33,0-4.659,0.918-6.495,2.753   L34.219,32.791l12.989,12.989l26.038-26.038c3.671-3.671,3.671-9.318,0-12.989C71.411,4.918,69.082,4,66.752,4L66.752,4z"/>
</g>
<g>
	<g>
		<polygon style="fill:#DCD5F2;" points="8.755,47.469 27.323,40.394 36.888,30.83 49.17,43.112 39.605,52.676 32.532,71.245     4.594,75.406   "/>
	</g>
	<g>
		<path style="fill:#8B75A1;" d="M36.888,31.537l11.575,11.575l-9.135,9.135l-0.151,0.151l-0.076,0.2l-6.932,18.195L5.188,74.812    l4.018-26.981L27.402,40.9l0.2-0.076l0.151-0.151L36.888,31.537 M36.888,30.123l-9.842,9.842l-18.742,7.14L4,76l28.895-4.304    l7.14-18.742l9.842-9.842L36.888,30.123L36.888,30.123z"/>
	</g>
</g>
<circle style="fill:#8B75A1;" cx="23" cy="57" r="4.071"/>
<line style="fill:none;stroke:#8B75A1;stroke-miterlimit:10;" x1="5.844" y1="74.156" x2="22.699" y2="57.301"/>
</svg>