<?xml version="1.0" encoding="iso-8859-1"?><!-- Generator: Adobe Illustrator 19.2.1, SVG Export Plug-In . SVG Version: 6.00 Build 0)  --><svg xmlns="http://www.w3.org/2000/svg" xmlns:xlink="http://www.w3.org/1999/xlink" version="1.1" id="Layer_1" x="0px" y="0px" viewBox="0 0 16 16" style="enable-background:new 0 0 16 16;" xml:space="preserve" width="16" height="16">
<g>
	<path style="fill:#F5C276;" d="M6.341,7.241l6.225-6.226C12.898,0.684,13.328,0.5,13.775,0.5c0.447,0,0.876,0.184,1.209,0.516   c0.689,0.689,0.689,1.729,0,2.419L8.759,9.659L6.341,7.241z"/>
	<path style="fill:#C29653;" d="M13.775,1c0.313,0,0.617,0.131,0.856,0.37C14.869,1.608,15,1.912,15,2.225   c0,0.313-0.131,0.617-0.37,0.856L8.759,8.952L7.048,7.241l5.871-5.871C13.158,1.131,13.462,1,13.775,1 M13.775,0   c-0.561,0-1.121,0.221-1.563,0.662L5.634,7.241l3.125,3.125l6.579-6.579c0.883-0.883,0.883-2.242,0-3.125   C14.896,0.221,14.335,0,13.775,0L13.775,0z"/>
</g>
<g>
	<g>
		<polygon style="fill:#DCD5F2;" points="1.487,9.411 5.823,7.759 7.491,6.091 9.909,8.509 8.241,10.177 6.589,14.514 0.594,15.406       "/>
	</g>
	<g>
		<path style="fill:#8B75A1;" d="M7.491,6.798l1.711,1.711L7.963,9.748L7.812,9.899l-0.076,0.2l-1.51,3.962l-5.038,0.75l0.75-5.038    l3.962-1.51l0.2-0.076l0.151-0.151L7.491,6.798 M7.491,5.384L5.545,7.33L1.035,9.048L0,16l6.952-1.035l1.718-4.509l1.946-1.946    L7.491,5.384L7.491,5.384z"/>
	</g>
</g>
<circle style="fill:#8B75A1;" cx="4.571" cy="11.429" r="0.98"/>
<line style="fill:none;stroke:#8B75A1;stroke-miterlimit:10;" x1="0.444" y1="15.556" x2="4.499" y2="11.501"/>
</svg>