<?xml version="1.0" encoding="iso-8859-1"?><!-- Generator: Adobe Illustrator 19.2.1, SVG Export Plug-In . SVG Version: 6.00 Build 0)  --><svg xmlns="http://www.w3.org/2000/svg" xmlns:xlink="http://www.w3.org/1999/xlink" version="1.1" id="Layer_1" x="0px" y="0px" viewBox="0 0 30 30" style="enable-background:new 0 0 30 30;" xml:space="preserve" width="30" height="30">
<g>
	<path style="fill:#F5C276;" d="M12.84,13.081L23.554,2.368c0.56-0.56,1.284-0.868,2.04-0.868c0.755,0,1.479,0.309,2.039,0.868   c1.162,1.162,1.162,2.916,0,4.078L16.919,17.159L12.84,13.081z"/>
	<path style="fill:#C29653;" d="M25.593,2c0.622,0,1.22,0.256,1.686,0.721c0.961,0.961,0.961,2.41,0,3.371l-10.36,10.36   l-3.371-3.371l10.36-10.36C24.373,2.256,24.971,2,25.593,2 M25.593,1c-0.858,0-1.717,0.338-2.393,1.014L12.133,13.081l4.786,4.785   L27.986,6.8c1.352-1.352,1.352-3.433,0-4.786C27.309,1.338,26.451,1,25.593,1L25.593,1z"/>
</g>
<g>
	<g>
		<polygon style="fill:#DCD5F2;" points="3.037,18.718 9.768,16.152 13.116,12.805 17.195,16.884 13.847,20.231 11.282,26.963     1.594,28.406   "/>
	</g>
	<g>
		<path style="fill:#8B75A1;" d="M13.116,13.512l3.371,3.371l-2.919,2.919l-0.151,0.151l-0.076,0.2l-2.422,6.358l-8.731,1.3    l1.3-8.731l6.358-2.422l0.2-0.076l0.151-0.151L13.116,13.512 M13.116,12.098L9.49,15.724l-6.905,2.63L1,29l10.646-1.586    l2.63-6.905l3.626-3.626L13.116,12.098L13.116,12.098z"/>
	</g>
</g>
<circle style="fill:#8B75A1;" cx="8" cy="22" r="1.5"/>
<line style="fill:none;stroke:#8B75A1;stroke-miterlimit:10;" x1="1.68" y1="28.32" x2="7.889" y2="22.111"/>
</svg>