<?xml version="1.0" encoding="iso-8859-1"?><!-- Generator: Adobe Illustrator 19.2.1, SVG Export Plug-In . SVG Version: 6.00 Build 0)  --><svg xmlns="http://www.w3.org/2000/svg" xmlns:xlink="http://www.w3.org/1999/xlink" version="1.1" id="Layer_1" x="0px" y="0px" viewBox="0 0 30 30" style="enable-background:new 0 0 30 30;" xml:space="preserve" width="30" height="30">
<g>
	<path style="fill:#BAE0BD;" d="M15,28.5C7.556,28.5,1.5,22.444,1.5,15S7.556,1.5,15,1.5S28.5,7.556,28.5,15S22.444,28.5,15,28.5z"/>
	<path style="fill:#5E9C76;" d="M15,2c7.168,0,13,5.832,13,13s-5.832,13-13,13S2,22.168,2,15S7.832,2,15,2 M15,1   C7.268,1,1,7.268,1,15s6.268,14,14,14s14-6.268,14-14S22.732,1,15,1L15,1z"/>
</g>
<g>
	<path style="fill:#8BB7F0;" d="M15.5,14.793v-2.305l12.705-0.31C28.401,13.101,28.5,14.048,28.5,15   c0,3.438-1.277,6.682-3.607,9.186L15.5,14.793z"/>
	<g>
		<path style="fill:#4E7AB5;" d="M27.795,12.689C27.931,13.448,28,14.223,28,15c0,3.137-1.104,6.104-3.127,8.459L16,14.586v-1.61    L27.795,12.689 M28.601,11.669L15,12v3l9.899,9.899C27.433,22.366,29,18.866,29,15C29,13.852,28.862,12.737,28.601,11.669    L28.601,11.669z"/>
	</g>
</g>
<g>
	<path style="fill:#FFC49C;" d="M15.5,14.5V1.509C22.548,1.767,28.233,7.452,28.491,14.5H15.5z"/>
	<g>
		<path style="fill:#A16A4A;" d="M16,2.038C22.373,2.525,27.475,7.627,27.962,14H16V2.038 M15,1v14h14C29,7.268,22.732,1,15,1L15,1z    "/>
	</g>
</g>
</svg>