<?xml version="1.0" encoding="iso-8859-1"?><!-- Generator: Adobe Illustrator 19.2.1, SVG Export Plug-In . SVG Version: 6.00 Build 0)  --><svg xmlns="http://www.w3.org/2000/svg" xmlns:xlink="http://www.w3.org/1999/xlink" version="1.1" id="Layer_1" x="0px" y="0px" viewBox="0 0 16 16" style="enable-background:new 0 0 16 16;" xml:space="preserve" width="16" height="16">
<g>
	<circle style="fill:#BAE0BD;" cx="8" cy="8" r="7.5"/>
	<path style="fill:#5E9C76;" d="M8,1c3.86,0,7,3.14,7,7s-3.14,7-7,7s-7-3.14-7-7S4.14,1,8,1 M8,0C3.582,0,0,3.582,0,8s3.582,8,8,8   s8-3.582,8-8S12.418,0,8,0L8,0z"/>
</g>
<g>
	<path style="fill:#8BB7F0;" d="M8.5,7.793V6.774l6.871-0.168C15.457,7.064,15.5,7.532,15.5,8c0,1.835-0.655,3.57-1.854,4.938   L8.5,7.793z"/>
	<g>
		<path style="fill:#4E7AB5;" d="M14.945,7.117C14.982,7.409,15,7.704,15,8c0,1.532-0.489,2.989-1.393,4.193L9,7.586V7.262    L14.945,7.117 M15.772,6.097L8,6.286V8l5.657,5.657C15.105,12.209,16,10.209,16,8C16,7.344,15.921,6.707,15.772,6.097    L15.772,6.097z"/>
	</g>
</g>
<g>
	<path style="fill:#FFC49C;" d="M8.5,7.5V0.517c3.737,0.247,6.736,3.246,6.983,6.983H8.5z"/>
	<g>
		<path style="fill:#A16A4A;" d="M9,1.071c3.061,0.44,5.489,2.868,5.929,5.929H9V1.071 M8,0v8h8C16,3.582,12.418,0,8,0L8,0z"/>
	</g>
</g>
</svg>