<?xml version="1.0" encoding="iso-8859-1"?><!-- Generator: Adobe Illustrator 19.2.1, SVG Export Plug-In . SVG Version: 6.00 Build 0)  --><svg xmlns="http://www.w3.org/2000/svg" xmlns:xlink="http://www.w3.org/1999/xlink" version="1.1" id="Layer_1" x="0px" y="0px" viewBox="0 0 16 16" style="enable-background:new 0 0 16 16;" xml:space="preserve" width="16" height="16">
<g>
	<circle style="fill:#F78F8F;" cx="7.5" cy="7.5" r="7"/>
	<path style="fill:#C74343;" d="M7.5,1C11.084,1,14,3.916,14,7.5S11.084,14,7.5,14S1,11.084,1,7.5S3.916,1,7.5,1 M7.5,0   C3.358,0,0,3.358,0,7.5S3.358,15,7.5,15S15,11.642,15,7.5S11.642,0,7.5,0L7.5,0z"/>
</g>
<g>
	<g>
		<path style="fill:#FFFFFF;" d="M12,6.91C12,4.673,10.175,3,7.827,3C4.906,3,3.354,4.961,3.354,7.096    c0,0.993,0.529,2.229,1.374,2.622c0.128,0.06,0.197,0.033,0.226-0.09c0.022-0.094,0.137-0.554,0.188-0.768    c0.016-0.068,0.008-0.127-0.047-0.194c-0.28-0.339-0.504-0.963-0.504-1.545c0-1.493,1.131-2.938,3.057-2.938    c1.663,0,2.828,1.133,2.828,2.754c0,1.831-0.925,3.1-2.128,3.1c-0.665,0-1.162-0.55-1.002-1.223    C7.536,8.01,7.906,7.142,7.906,6.561c0-0.52-0.279-0.954-0.857-0.954c-0.679,0-1.225,0.703-1.225,1.644    c0,0.6,0.203,1.005,0.203,1.005s-0.671,2.837-0.794,3.365c-0.136,0.583-0.083,1.401-0.024,1.937    c0.153,0.06,0.305,0.12,0.463,0.169c0.276-0.45,0.688-1.187,0.841-1.774c0.082-0.317,0.422-1.609,0.422-1.609    c0.221,0.421,0.866,0.777,1.552,0.777C10.529,11.12,12,9.243,12,6.91z"/>
	</g>
</g>
</svg>