<?xml version="1.0" encoding="iso-8859-1"?><!-- Generator: Adobe Illustrator 19.2.1, SVG Export Plug-In . SVG Version: 6.00 Build 0)  --><svg xmlns="http://www.w3.org/2000/svg" xmlns:xlink="http://www.w3.org/1999/xlink" version="1.1" id="Layer_1" x="0px" y="0px" viewBox="0 0 30 30" style="enable-background:new 0 0 30 30;" xml:space="preserve" width="30" height="30">
<g>
	<path style="fill:#F78F8F;" d="M15,28.5C7.556,28.5,1.5,22.444,1.5,15S7.556,1.5,15,1.5S28.5,7.556,28.5,15S22.444,28.5,15,28.5z"/>
	<path style="fill:#C74343;" d="M15,2c7.168,0,13,5.832,13,13s-5.832,13-13,13S2,22.168,2,15S7.832,2,15,2 M15,1   C7.268,1,1,7.268,1,15s6.268,14,14,14s14-6.268,14-14S22.732,1,15,1L15,1z"/>
</g>
<g>
	<g>
		<path style="fill:#FFFFFF;" d="M23.302,14.329c0-4.295-3.505-7.508-8.014-7.508c-5.61,0-8.589,3.766-8.589,7.867    c0,1.907,1.015,4.28,2.639,5.036c0.246,0.115,0.378,0.064,0.435-0.174c0.043-0.181,0.262-1.064,0.361-1.475    c0.032-0.131,0.016-0.244-0.09-0.373c-0.537-0.651-0.967-1.849-0.967-2.967c0-2.867,2.171-5.642,5.87-5.642    c3.194,0,5.43,2.176,5.43,5.289c0,3.517-1.776,5.953-4.087,5.953c-1.276,0-2.231-1.055-1.925-2.349    c0.367-1.545,1.077-3.213,1.077-4.328c0-0.998-0.536-1.831-1.645-1.831c-1.305,0-2.352,1.349-2.352,3.157    c0,1.151,0.389,1.93,0.389,1.93s-1.288,5.448-1.524,6.462c-0.261,1.12-0.159,2.691-0.046,3.72c0.293,0.115,0.586,0.23,0.889,0.324    c0.53-0.864,1.322-2.279,1.616-3.408c0.158-0.608,0.81-3.09,0.81-3.09c0.424,0.808,1.662,1.493,2.98,1.493    C20.477,22.415,23.302,18.809,23.302,14.329z"/>
	</g>
</g>
</svg>