<?xml version="1.0" encoding="iso-8859-1"?><!-- Generator: Adobe Illustrator 19.2.1, SVG Export Plug-In . SVG Version: 6.00 Build 0)  --><svg xmlns="http://www.w3.org/2000/svg" xmlns:xlink="http://www.w3.org/1999/xlink" version="1.1" id="Layer_1" x="0px" y="0px" viewBox="0 0 40 40" style="enable-background:new 0 0 40 40;" xml:space="preserve" width="40" height="40">
<g>
	<path style="fill:#F78F8F;" d="M20,38.5C9.799,38.5,1.5,30.201,1.5,20S9.799,1.5,20,1.5S38.5,9.799,38.5,20S30.201,38.5,20,38.5z"/>
	<path style="fill:#C74343;" d="M20,2c9.925,0,18,8.075,18,18s-8.075,18-18,18S2,29.925,2,20S10.075,2,20,2 M20,1   C9.507,1,1,9.507,1,20s8.507,19,19,19s19-8.507,19-19S30.493,1,20,1L20,1z"/>
</g>
<g>
	<path style="fill:#FFFFFF;" d="M20.053,9C12.389,9,8.319,14.144,8.319,19.746c0,2.604,1.386,5.847,3.604,6.88   c0.336,0.156,0.516,0.088,0.594-0.237c0.059-0.247,0.358-1.453,0.493-2.014c0.043-0.179,0.022-0.333-0.123-0.509   c-0.734-0.89-1.322-2.526-1.322-4.052c0-3.917,2.966-7.706,8.018-7.706c4.363,0,7.418,2.973,7.418,7.225   c0,4.804-2.426,8.132-5.582,8.132c-1.743,0-3.048-1.442-2.63-3.209c0.501-2.111,1.471-4.389,1.471-5.912   c0-1.364-0.732-2.501-2.247-2.501c-1.782,0-3.213,1.843-3.213,4.313c0,1.573,0.531,2.636,0.531,2.636s-1.76,7.441-2.082,8.827   c-0.353,1.516-0.22,3.634-0.067,5.039c0.405,0.166,0.818,0.316,1.238,0.453c0.724-1.182,1.791-3.094,2.188-4.624   c0.216-0.831,1.106-4.221,1.106-4.221c0.579,1.104,2.271,2.039,4.07,2.039c5.356,0,9.215-4.925,9.215-11.046   C31,13.389,26.213,9,20.053,9z"/>
</g>
</svg>