<?xml version="1.0" encoding="iso-8859-1"?><!-- Generator: Adobe Illustrator 19.2.1, SVG Export Plug-In . SVG Version: 6.00 Build 0)  --><svg xmlns="http://www.w3.org/2000/svg" xmlns:xlink="http://www.w3.org/1999/xlink" version="1.1" id="Layer_1" x="0px" y="0px" viewBox="0 0 30 30" style="enable-background:new 0 0 30 30;" xml:space="preserve" width="30" height="30">
<g>
	<rect x="2.5" y="2.5" style="fill:#FFFFFF;" width="25" height="25"/>
	<g>
		<path style="fill:#788B9C;" d="M27,3v24H3V3H27 M28,2H2v26h26V2L28,2z"/>
	</g>
</g>
<g>
	<rect x="2.5" y="2.5" style="fill:#F78F8F;" width="25" height="5"/>
	<g>
		<path style="fill:#C74343;" d="M27,3v4H3V3H27 M28,2H2v6h26V2L28,2z"/>
	</g>
</g>
<g>
	<rect x="16" y="10" style="fill:#C5D4DE;" width="3" height="3"/>
</g>
<g>
	<rect x="21" y="10" style="fill:#C5D4DE;" width="3" height="3"/>
</g>
<g>
	<rect x="11" y="10" style="fill:#C5D4DE;" width="3" height="3"/>
</g>
<g>
	<rect x="16" y="15" style="fill:#C5D4DE;" width="3" height="3"/>
</g>
<g>
	<rect x="21" y="15" style="fill:#C5D4DE;" width="3" height="3"/>
</g>
<g>
	<rect x="6" y="15" style="fill:#C5D4DE;" width="3" height="3"/>
</g>
<g>
	<rect x="11" y="15" style="fill:#C5D4DE;" width="3" height="3"/>
</g>
<g>
	<rect x="16.5" y="20.5" style="fill:#F78F8F;" width="2" height="2"/>
	<g>
		<path style="fill:#C74343;" d="M18,21v1h-1v-1H18 M19,20h-3v3h3V20L19,20z"/>
	</g>
</g>
<g>
	<rect x="6" y="20" style="fill:#C5D4DE;" width="3" height="3"/>
</g>
<g>
	<rect x="11" y="20" style="fill:#C5D4DE;" width="3" height="3"/>
</g>
<rect x="3" y="25" style="fill:#E1EBF2;" width="24" height="2"/>
</svg>