<?xml version="1.0" encoding="iso-8859-1"?><!-- Generator: Adobe Illustrator 19.2.1, SVG Export Plug-In . SVG Version: 6.00 Build 0)  --><svg xmlns="http://www.w3.org/2000/svg" xmlns:xlink="http://www.w3.org/1999/xlink" version="1.1" id="Layer_1" x="0px" y="0px" viewBox="0 0 16 16" style="enable-background:new 0 0 16 16;" xml:space="preserve" width="16" height="16">
<g>
	<rect x="0.5" y="0.5" style="fill:#FFFFFF;" width="15" height="14"/>
	<g>
		<path style="fill:#788B9C;" d="M15,1v13H1V1H15 M16,0H0v15h16V0L16,0z"/>
	</g>
</g>
<g>
	<rect x="0.5" y="0.5" style="fill:#F78F8F;" width="15" height="3"/>
	<g>
		<path style="fill:#C74343;" d="M15,1v2H1V1H15 M16,0H0v4h16V0L16,0z"/>
	</g>
</g>
<rect x="12" y="7" style="fill:#C5D4DE;" width="2" height="2"/>
<rect x="9" y="7" style="fill:#C5D4DE;" width="2" height="2"/>
<rect x="6" y="7" style="fill:#C5D4DE;" width="2" height="2"/>
<rect x="9" y="10" style="fill:#C74343;" width="2" height="2"/>
<rect x="6" y="10" style="fill:#C5D4DE;" width="2" height="2"/>
<rect x="3" y="10" style="fill:#C5D4DE;" width="2" height="2"/>
</svg>