<?xml version="1.0" encoding="iso-8859-1"?><!-- Generator: Adobe Illustrator 19.2.1, SVG Export Plug-In . SVG Version: 6.00 Build 0)  --><svg xmlns="http://www.w3.org/2000/svg" xmlns:xlink="http://www.w3.org/1999/xlink" version="1.1" id="Layer_1" x="0px" y="0px" viewBox="0 0 16 16" style="enable-background:new 0 0 16 16;" xml:space="preserve" width="16" height="16">
<path style="fill:none;stroke:#4E7AB5;stroke-miterlimit:10;" d="M12.34,15.299c1.216-0.725,2.234-1.742,2.959-2.959"/>
<path style="fill:none;stroke:#4E7AB5;stroke-miterlimit:10;" d="M3.66,0.701C2.444,1.426,1.426,2.444,0.701,3.66"/>
<g>
	<circle style="fill:#FFFFFF;" cx="8" cy="8" r="6.5"/>
	<g>
		<path style="fill:#4E7AB5;" d="M8,2c3.308,0,6,2.692,6,6s-2.692,6-6,6s-6-2.692-6-6S4.692,2,8,2 M8,1C4.134,1,1,4.134,1,8    s3.134,7,7,7s7-3.134,7-7S11.866,1,8,1L8,1z"/>
	</g>
</g>
<circle style="fill:#66798F;" cx="8" cy="8" r="1"/>
<polyline style="fill:none;stroke:#66798F;stroke-miterlimit:10;" points="10.224,10.755 8,8 9.728,3.34 "/>
</svg>