<?xml version="1.0" encoding="iso-8859-1"?><!-- Generator: Adobe Illustrator 19.2.1, SVG Export Plug-In . SVG Version: 6.00 Build 0)  --><svg xmlns="http://www.w3.org/2000/svg" xmlns:xlink="http://www.w3.org/1999/xlink" version="1.1" id="Layer_1" x="0px" y="0px" viewBox="0 0 30 30" style="enable-background:new 0 0 30 30;" xml:space="preserve" width="30" height="30">
<g>
	<path style="fill:#8BB7F0;" d="M15,28.5C7.556,28.5,1.5,22.444,1.5,15S7.556,1.5,15,1.5S28.5,7.556,28.5,15S22.444,28.5,15,28.5z"/>
	<g>
		<path style="fill:#4E7AB5;" d="M15,2c7.168,0,13,5.832,13,13s-5.832,13-13,13S2,22.168,2,15S7.832,2,15,2 M15,1    C7.268,1,1,7.268,1,15s6.268,14,14,14s14-6.268,14-14S22.732,1,15,1L15,1z"/>
	</g>
</g>
<path style="fill:none;stroke:#4E7AB5;stroke-miterlimit:10;" d="M23.781,28.952c2.087-1.317,3.854-3.083,5.17-5.17"/>
<path style="fill:none;stroke:#4E7AB5;stroke-miterlimit:10;" d="M6.219,1.048c-2.087,1.316-3.854,3.083-5.17,5.17"/>
<g>
	<path style="fill:#FFFFFF;" d="M15,26.5C8.659,26.5,3.5,21.341,3.5,15S8.659,3.5,15,3.5S26.5,8.659,26.5,15S21.341,26.5,15,26.5z"/>
	<path style="fill:#4E7AB5;" d="M15,4c6.065,0,11,4.935,11,11s-4.935,11-11,11S4,21.065,4,15S8.935,4,15,4 M15,3   C8.373,3,3,8.373,3,15s5.373,12,12,12s12-5.373,12-12S21.627,3,15,3L15,3z"/>
</g>
<polyline style="fill:none;stroke:#66798F;stroke-linecap:round;stroke-miterlimit:10;" points="20.154,7.385 15,15 19.308,19.308   "/>
<g>
	<circle style="fill:#66798F;" cx="15" cy="15" r="1.5"/>
</g>
<g>
	<circle style="fill:#C5D4DE;" cx="15" cy="6" r="1"/>
</g>
<g>
	<circle style="fill:#C5D4DE;" cx="15" cy="24" r="1"/>
</g>
<g>
	<circle style="fill:#C5D4DE;" cx="24" cy="15" r="1"/>
</g>
<g>
	<circle style="fill:#C5D4DE;" cx="6" cy="15" r="1"/>
</g>
</svg>