<?xml version="1.0" encoding="iso-8859-1"?><!-- Generator: Adobe Illustrator 19.2.1, SVG Export Plug-In . SVG Version: 6.00 Build 0)  --><svg xmlns="http://www.w3.org/2000/svg" xmlns:xlink="http://www.w3.org/1999/xlink" version="1.1" id="Layer_1" x="0px" y="0px" viewBox="0 0 80 80" style="enable-background:new 0 0 80 80;" xml:space="preserve" width="80" height="80">
<path style="fill:none;stroke:#66798F;stroke-width:4;stroke-miterlimit:10;" d="M60,36c0,0,0-10.183,0-11c0-11.046-8.954-20-20-20  s-20,8.954-20,20c0,0.817,0,11,0,11"/>
<g>
	<path style="fill:#F5CE85;" d="M4.5,76.5V39c0-4.136,3.364-7.5,7.5-7.5h56c4.136,0,7.5,3.364,7.5,7.5v37.5H4.5z"/>
	<path style="fill:#967A44;" d="M68,32c3.86,0,7,3.14,7,7v37H5V39c0-3.86,3.14-7,7-7H68 M68,31H12c-4.418,0-8,3.582-8,8v38h72V39   C76,34.582,72.418,31,68,31L68,31z"/>
</g>
<rect x="5" y="64" style="fill:#FFEEA3;" width="70" height="6"/>
<rect x="5" y="52" style="fill:#FFEEA3;" width="70" height="6"/>
<rect x="5" y="40" style="fill:#FFEEA3;" width="70" height="6"/>
<g>
	<path style="fill:#C2E8FF;" d="M40,70.5c-8.547,0-15.5-6.953-15.5-15.5S31.453,39.5,40,39.5S55.5,46.453,55.5,55   S48.547,70.5,40,70.5z"/>
	<g>
		<path style="fill:#4E7AB5;" d="M40,40c8.271,0,15,6.729,15,15s-6.729,15-15,15s-15-6.729-15-15S31.729,40,40,40 M40,39    c-8.837,0-16,7.163-16,16s7.163,16,16,16s16-7.163,16-16S48.837,39,40,39L40,39z"/>
	</g>
</g>
<circle style="fill:#36404D;" cx="40" cy="55" r="6"/>
<circle style="fill:#FFFFFF;" cx="45" cy="50" r="3"/>
</svg>