<?xml version="1.0" encoding="iso-8859-1"?><!-- Generator: Adobe Illustrator 19.2.1, SVG Export Plug-In . SVG Version: 6.00 Build 0)  --><svg xmlns="http://www.w3.org/2000/svg" xmlns:xlink="http://www.w3.org/1999/xlink" version="1.1" id="Layer_1" x="0px" y="0px" viewBox="0 0 40 40" style="enable-background:new 0 0 40 40;" xml:space="preserve" width="40" height="40">
<path style="fill:none;stroke:#66798F;stroke-width:2;stroke-miterlimit:10;" d="M30,17.714c0,0,0-5.306,0-5.714  c0-5.523-4.477-10-10-10S10,6.477,10,12c0,0.408,0,5.714,0,5.714"/>
<g>
	<path style="fill:#F5CE85;" d="M2.5,37.5V19c0-1.93,1.57-3.5,3.5-3.5h28c1.93,0,3.5,1.57,3.5,3.5v18.5H2.5z"/>
	<path style="fill:#967A44;" d="M34,16c1.654,0,3,1.346,3,3v18H3V19c0-1.654,1.346-3,3-3H34 M34,15H6c-2.209,0-4,1.791-4,4v19h36V19   C38,16.791,36.209,15,34,15L34,15z"/>
</g>
<rect x="3" y="31" style="fill:#FFEEA3;" width="34" height="3"/>
<rect x="3" y="25" style="fill:#FFEEA3;" width="34" height="3"/>
<rect x="3" y="19" style="fill:#FFEEA3;" width="34" height="3"/>
<g>
	<circle style="fill:#C2E8FF;" cx="20" cy="27" r="7.5"/>
	<g>
		<path style="fill:#4E7AB5;" d="M20,20c3.86,0,7,3.14,7,7s-3.14,7-7,7s-7-3.14-7-7S16.14,20,20,20 M20,19c-4.418,0-8,3.582-8,8    s3.582,8,8,8s8-3.582,8-8S24.418,19,20,19L20,19z"/>
	</g>
</g>
<circle style="fill:#36404D;" cx="20" cy="27" r="3"/>
<circle style="fill:#FFFFFF;" cx="22.5" cy="24.5" r="1.5"/>
</svg>