<?xml version="1.0" encoding="iso-8859-1"?><!-- Generator: Adobe Illustrator 19.2.1, SVG Export Plug-In . SVG Version: 6.00 Build 0)  --><svg xmlns="http://www.w3.org/2000/svg" xmlns:xlink="http://www.w3.org/1999/xlink" version="1.1" id="Layer_1" x="0px" y="0px" viewBox="0 0 30 30" style="enable-background:new 0 0 30 30;" xml:space="preserve" width="30" height="30">
<path style="fill:none;stroke:#66798F;stroke-width:2;stroke-miterlimit:10;" d="M22,13c0,0,0-3.714,0-4c0-3.866-3.134-7-7-7  S8,5.134,8,9c0,0.286,0,4,0,4"/>
<g>
	<path style="fill:#F5CE85;" d="M2.5,27.5V15c0-1.378,1.121-2.5,2.5-2.5h20c1.379,0,2.5,1.122,2.5,2.5v12.5H2.5z"/>
	<path style="fill:#967A44;" d="M25,13c1.103,0,2,0.897,2,2v12H3V15c0-1.103,0.897-2,2-2H25 M25,12H5c-1.657,0-3,1.343-3,3v13h26V15   C28,13.343,26.657,12,25,12L25,12z"/>
</g>
<rect x="3" y="23" style="fill:#FFEEA3;" width="24" height="2"/>
<rect x="3" y="19" style="fill:#FFEEA3;" width="24" height="2"/>
<rect x="3" y="15" style="fill:#FFEEA3;" width="24" height="2"/>
<g>
	<circle style="fill:#C2E8FF;" cx="15" cy="20" r="5.5"/>
	<g>
		<path style="fill:#4E7AB5;" d="M15,15c2.757,0,5,2.243,5,5s-2.243,5-5,5s-5-2.243-5-5S12.243,15,15,15 M15,14    c-3.314,0-6,2.686-6,6s2.686,6,6,6s6-2.686,6-6S18.314,14,15,14L15,14z"/>
	</g>
</g>
<circle style="fill:#36404D;" cx="15" cy="20" r="2"/>
<circle style="fill:#FFFFFF;" cx="16.5" cy="18.5" r="1"/>
</svg>