<?xml version="1.0" encoding="iso-8859-1"?><!-- Generator: Adobe Illustrator 19.2.1, SVG Export Plug-In . SVG Version: 6.00 Build 0)  --><svg xmlns="http://www.w3.org/2000/svg" xmlns:xlink="http://www.w3.org/1999/xlink" version="1.1" id="Layer_1" x="0px" y="0px" viewBox="0 0 16 16" style="enable-background:new 0 0 16 16;" xml:space="preserve" width="16" height="16">
<g>
	<path style="fill:#66798F;" d="M8,1c2.206,0,4,1.794,4,4v4.179H4V5C4,2.794,5.794,1,8,1 M8,0C5.239,0,3,2.239,3,5   c0,0.204,0,5.179,0,5.179h10c0,0,0-4.974,0-5.179C13,2.239,10.761,0,8,0L8,0z"/>
</g>
<g>
	<path style="fill:#F5CE85;" d="M0.5,15.5V8c0-0.827,0.673-1.5,1.5-1.5h12c0.827,0,1.5,0.673,1.5,1.5v7.5H0.5z"/>
	<path style="fill:#967A44;" d="M14,7c0.551,0,1,0.449,1,1v7H1V8c0-0.551,0.449-1,1-1H14 M14,6H2C0.895,6,0,6.895,0,8v8h16V8   C16,6.895,15.105,6,14,6L14,6z"/>
</g>
<rect x="1" y="12" style="fill:#FFEEA3;" width="14" height="1"/>
<rect x="1" y="10" style="fill:#FFEEA3;" width="14" height="1"/>
<rect x="1" y="8" style="fill:#FFEEA3;" width="14" height="1"/>
<g>
	<circle style="fill:#C2E8FF;" cx="8" cy="11" r="3.5"/>
	<g>
		<path style="fill:#4E7AB5;" d="M8,8c1.654,0,3,1.346,3,3s-1.346,3-3,3s-3-1.346-3-3S6.346,8,8,8 M8,7c-2.209,0-4,1.791-4,4    s1.791,4,4,4s4-1.791,4-4S10.209,7,8,7L8,7z"/>
	</g>
</g>
<circle style="fill:#36404D;" cx="8" cy="11" r="1.5"/>
<circle style="fill:#FFFFFF;" cx="9" cy="10" r="1"/>
</svg>