<?xml version="1.0" encoding="iso-8859-1"?><!-- Generator: Adobe Illustrator 19.2.1, SVG Export Plug-In . SVG Version: 6.00 Build 0)  --><svg xmlns="http://www.w3.org/2000/svg" xmlns:xlink="http://www.w3.org/1999/xlink" version="1.1" id="Layer_1" x="0px" y="0px" viewBox="0 0 80 80" style="enable-background:new 0 0 80 80;" xml:space="preserve" width="80" height="80">
<g>
	<path style="fill:#F78F8F;" d="M40,77.5C19.322,77.5,2.5,60.678,2.5,40S19.322,2.5,40,2.5S77.5,19.322,77.5,40S60.678,77.5,40,77.5   z"/>
	<g>
		<path style="fill:#C74343;" d="M40,3c20.402,0,37,16.598,37,37S60.402,77,40,77S3,60.402,3,40S19.598,3,40,3 M40,2    C19.013,2,2,19.013,2,40s17.013,38,38,38s38-17.013,38-38S60.987,2,40,2L40,2z"/>
	</g>
</g>
<path style="fill:#FFFFFF;" d="M46,40h6V21c0-1.657-1.343-3-3-3h0c-1.657,0-3,1.343-3,3V40z"/>
<path style="fill:#FFFFFF;" d="M30,40h6V17c0-1.657-1.343-3-3-3h0c-1.657,0-3,1.343-3,3V40z"/>
<path style="fill:#FFFFFF;" d="M22,46h6V25c0-1.657-1.343-3-3-3h0c-1.657,0-3,1.343-3,3V46z"/>
<path style="fill:#FFFFFF;" d="M38,40h6V15c0-1.657-1.343-3-3-3h0c-1.657,0-3,1.343-3,3V40z"/>
<path style="fill:#FFFFFF;" d="M43.474,54.869l5.829,5.829l13.494-13.494c1.562-1.562,1.562-4.095,0-5.657l-0.172-0.172  c-1.562-1.562-4.095-1.562-5.657,0L43.474,54.869z"/>
<path style="fill:#FFFFFF;" d="M42,64H32c-5.523,0-10-4.477-10-10V36h30v18C52,59.523,47.523,64,42,64z"/>
</svg>