<?xml version="1.0" encoding="iso-8859-1"?><!-- Generator: Adobe Illustrator 19.2.1, SVG Export Plug-In . SVG Version: 6.00 Build 0)  --><svg xmlns="http://www.w3.org/2000/svg" xmlns:xlink="http://www.w3.org/1999/xlink" version="1.1" id="Layer_1" x="0px" y="0px" viewBox="0 0 30 30" style="enable-background:new 0 0 30 30;" xml:space="preserve" width="30" height="30">
<g>
	<path style="fill:#F78F8F;" d="M15,28.5C7.556,28.5,1.5,22.444,1.5,15S7.556,1.5,15,1.5S28.5,7.556,28.5,15S22.444,28.5,15,28.5z"/>
	<g>
		<path style="fill:#C74343;" d="M15,2c7.168,0,13,5.832,13,13s-5.832,13-13,13S2,22.168,2,15S7.832,2,15,2 M15,1    C7.268,1,1,7.268,1,15s6.268,14,14,14s14-6.268,14-14S22.732,1,15,1L15,1z"/>
	</g>
</g>
<path style="fill:#FFFFFF;" d="M18,17h2V8c0-0.552-0.448-1-1-1h0c-0.552,0-1,0.448-1,1V17z"/>
<path style="fill:#FFFFFF;" d="M15,17h2V6c0-0.552-0.448-1-1-1h0c-0.552,0-1,0.448-1,1V17z"/>
<path style="fill:#FFFFFF;" d="M16.969,20.909l2.121,2.121l5.47-5.47c0.586-0.586,0.586-1.536,0-2.121l0,0  c-0.586-0.586-1.536-0.586-2.121,0L16.969,20.909z"/>
<path style="fill:#FFFFFF;" d="M12,17h2V7c0-0.552-0.448-1-1-1h0c-0.552,0-1,0.448-1,1V17z"/>
<path style="fill:#FFFFFF;" d="M9,17h2V9c0-0.552-0.448-1-1-1h0C9.448,8,9,8.448,9,9V17z"/>
<path style="fill:#FFFFFF;" d="M16.788,24H13c-2.209,0-4-1.791-4-4v-6h11v6.788C20,22.562,18.562,24,16.788,24z"/>
</svg>