<?xml version="1.0" encoding="iso-8859-1"?><!-- Generator: Adobe Illustrator 19.2.1, SVG Export Plug-In . SVG Version: 6.00 Build 0)  --><svg xmlns="http://www.w3.org/2000/svg" xmlns:xlink="http://www.w3.org/1999/xlink" version="1.1" x="0px" y="0px" viewBox="0 0 16 16" style="enable-background:new 0 0 16 16;" xml:space="preserve" width="16" height="16">
<g id="Layer_1">
	<g>
		<circle style="fill:#F78F8F;" cx="7.5" cy="7.5" r="7"/>
		<g>
			<path style="fill:#C74343;" d="M7.5,1C11.084,1,14,3.916,14,7.5S11.084,14,7.5,14S1,11.084,1,7.5S3.916,1,7.5,1 M7.5,0     C3.358,0,0,3.358,0,7.5S3.358,15,7.5,15S15,11.642,15,7.5S11.642,0,7.5,0L7.5,0z"/>
		</g>
	</g>
	<path style="fill:#FFFFFF;" d="M8.543,13H6.457C5.1,13,4,11.9,4,10.543V7h7v3.543C11,11.9,9.9,13,8.543,13z"/>
	<rect x="10" y="3" style="fill:#FFFFFF;" width="1" height="6"/>
	<path style="fill:#FFFFFF;" d="M9.197,11.114l1.124,1.124l2.712-2.712c0.31-0.31,0.31-0.813,0-1.124l0,0   c-0.31-0.31-0.813-0.31-1.124,0L9.197,11.114z"/>
	<rect x="8" y="2" style="fill:#FFFFFF;" width="1" height="6"/>
	<rect x="6" y="3" style="fill:#FFFFFF;" width="1" height="6"/>
	<rect x="4" y="4" style="fill:#FFFFFF;" width="1" height="6"/>
</g>
<g id="Layer_2">
</g>
</svg>