<?xml version="1.0" encoding="iso-8859-1"?><!-- Generator: Adobe Illustrator 19.2.1, SVG Export Plug-In . SVG Version: 6.00 Build 0)  --><svg xmlns="http://www.w3.org/2000/svg" xmlns:xlink="http://www.w3.org/1999/xlink" version="1.1" id="Layer_1" x="0px" y="0px" viewBox="0 0 30 30" style="enable-background:new 0 0 30 30;" xml:space="preserve" width="30" height="30">
<g>
	<path style="fill:#FFEEA3;" d="M15,28.5C7.556,28.5,1.5,22.444,1.5,15S7.556,1.5,15,1.5S28.5,7.556,28.5,15S22.444,28.5,15,28.5z"/>
	<g>
		<path style="fill:#BA9B48;" d="M15,2c7.168,0,13,5.832,13,13s-5.832,13-13,13S2,22.168,2,15S7.832,2,15,2 M15,1    C7.268,1,1,7.268,1,15s6.268,14,14,14s14-6.268,14-14S22.732,1,15,1L15,1z"/>
	</g>
</g>
<path style="fill:none;stroke:#36404D;stroke-width:2;stroke-miterlimit:10;" d="M9,14c0,0,0.8-1.2,1.4-2.1c0.4-0.6,0.9-1,1.6-1.2  l2.1-0.6c1.2-0.3,2.4,0.3,2.8,1.4l0.6,1.3c0.3,0.8,0.9,1.3,1.7,1.6L21,15"/>
<circle style="fill:#36404D;" cx="16" cy="6" r="2"/>
<path style="fill:#36404D;" d="M13.6,10.1l-1,4.6c-0.2,0.7,0.1,1.4,0.5,1.9l3.4,3.7l-1-4.7l0.9-4.1l-0.7-1.4L13.6,10.1z"/>
<g>
	<path style="fill:#36404D;" d="M17.6,24h2.1c-0.4-1-1.4-3.5-1.8-4.7L15,15.1l-1.6,1.2l2.7,3.6L17.6,24z"/>
	<polygon style="fill:#36404D;" points="10.6,24 12.9,21.4 13.7,19 12.2,17.3 11.3,20.2 8.3,24  "/>
</g>
</svg>