<?xml version="1.0" encoding="iso-8859-1"?><!-- Generator: Adobe Illustrator 19.2.1, SVG Export Plug-In . SVG Version: 6.00 Build 0)  --><svg xmlns="http://www.w3.org/2000/svg" xmlns:xlink="http://www.w3.org/1999/xlink" version="1.1" x="0px" y="0px" viewBox="0 0 16 16" style="enable-background:new 0 0 16 16;" xml:space="preserve" width="16" height="16">
<g id="Layer_1">
	<g>
		<circle style="fill:#FFEEA3;" cx="7.5" cy="7.5" r="7"/>
		<g>
			<path style="fill:#BA9B48;" d="M7.5,1C11.084,1,14,3.916,14,7.5S11.084,14,7.5,14S1,11.084,1,7.5S3.916,1,7.5,1 M7.5,0     C3.358,0,0,3.358,0,7.5S3.358,15,7.5,15S15,11.642,15,7.5S11.642,0,7.5,0L7.5,0z"/>
		</g>
	</g>
	<path style="fill:none;stroke:#36404D;stroke-miterlimit:10;" d="M4.286,6.964c0,0,0.429-0.643,0.75-1.125   C5.25,5.518,5.518,5.304,5.893,5.196l1.125-0.321c0.643-0.161,1.286,0.161,1.5,0.75l0.321,0.696C9,6.75,9.321,7.018,9.75,7.179   L10.714,7.5"/>
	<circle style="fill:#36404D;" cx="8.036" cy="2.679" r="1.071"/>
	<path style="fill:#36404D;" d="M6.75,4.875L6.214,7.339c-0.107,0.375,0.054,0.75,0.268,1.018l1.821,1.982L7.768,7.821L8.25,5.625   l-0.375-0.75L6.75,4.875z"/>
	<g>
		<path style="fill:#36404D;" d="M8.893,12.321h1.125c-0.214-0.536-0.75-1.875-0.964-2.518L7.5,7.554L6.643,8.196l1.446,1.929    L8.893,12.321z"/>
		<polygon style="fill:#36404D;" points="5.143,12.321 6.375,10.929 6.804,9.643 6,8.732 5.518,10.286 3.911,12.321   "/>
	</g>
</g>
<g id="Layer_2">
</g>
</svg>