<?xml version="1.0" encoding="iso-8859-1"?><!-- Generator: Adobe Illustrator 19.2.1, SVG Export Plug-In . SVG Version: 6.00 Build 0)  --><svg xmlns="http://www.w3.org/2000/svg" xmlns:xlink="http://www.w3.org/1999/xlink" version="1.1" id="Layer_1" x="0px" y="0px" viewBox="0 0 40 40" style="enable-background:new 0 0 40 40;" xml:space="preserve" width="40" height="40">
<g>
	<path style="fill:#FFEEA3;" d="M20,38.5C9.799,38.5,1.5,30.201,1.5,20S9.799,1.5,20,1.5S38.5,9.799,38.5,20S30.201,38.5,20,38.5z"/>
	<g>
		<path style="fill:#BA9B48;" d="M20,2c9.925,0,18,8.075,18,18s-8.075,18-18,18S2,29.925,2,20S10.075,2,20,2 M20,1    C9.507,1,1,9.507,1,20s8.507,19,19,19s19-8.507,19-19S30.493,1,20,1L20,1z"/>
	</g>
</g>
<path style="fill:none;stroke:#36404D;stroke-width:2;stroke-miterlimit:10;" d="M13,18.845l1.762-3.525  c0.156-0.311,0.39-0.577,0.679-0.77l1.822-1.215c0.469-0.313,1.048-0.413,1.594-0.276l2.249,0.562  c0.566,0.142,1.043,0.524,1.304,1.046l1.177,2.354c0.261,0.522,0.737,0.904,1.304,1.046L28,18.845"/>
<circle style="fill:#36404D;" cx="21.5" cy="8.5" r="2.5"/>
<path style="fill:#36404D;" d="M18.1,13.35l-1.357,6.243c-0.271,0.95,0.136,1.9,0.679,2.579l4.614,5.021l-1.357-6.379L21.9,15.25  l-0.95-1.9L18.1,13.35z"/>
<g>
	<path style="fill:#36404D;" d="M23.529,32h2.85c-0.543-1.357-1.9-4.75-2.443-6.379L20,19.921l-2.171,1.629l3.664,4.886L23.529,32z"/>
	<polygon style="fill:#36404D;" points="14.029,32 17.15,28.471 18.236,25.214 16.2,22.907 14.979,26.843 10.907,32  "/>
</g>
</svg>