<?xml version="1.0" encoding="iso-8859-1"?><!-- Generator: Adobe Illustrator 19.2.1, SVG Export Plug-In . SVG Version: 6.00 Build 0)  --><svg xmlns="http://www.w3.org/2000/svg" xmlns:xlink="http://www.w3.org/1999/xlink" version="1.1" id="Layer_1" x="0px" y="0px" viewBox="0 0 30 30" style="enable-background:new 0 0 30 30;" xml:space="preserve" width="30" height="30">
<g>
	<circle style="fill:#FFFFFF;" cx="25.5" cy="13.5" r="3"/>
	<path style="fill:#788B9C;" d="M25.5,11c1.379,0,2.5,1.122,2.5,2.5S26.879,16,25.5,16S23,14.878,23,13.5S24.121,11,25.5,11    M25.5,10c-1.933,0-3.5,1.567-3.5,3.5s1.567,3.5,3.5,3.5s3.5-1.567,3.5-3.5S27.433,10,25.5,10L25.5,10z"/>
</g>
<g>
	<circle style="fill:#FFFFFF;" cx="4.5" cy="13.5" r="3"/>
	<path style="fill:#788B9C;" d="M4.5,11C5.879,11,7,12.122,7,13.5S5.879,16,4.5,16S2,14.878,2,13.5S3.121,11,4.5,11 M4.5,10   C2.567,10,1,11.567,1,13.5S2.567,17,4.5,17S8,15.433,8,13.5S6.433,10,4.5,10L4.5,10z"/>
</g>
<g>
	<g>
		<path style="fill:#FFFFFF;" d="M15,26.5c-6.893,0-12.5-3.813-12.5-8.5S8.107,9.5,15,9.5s12.5,3.813,12.5,8.5S21.893,26.5,15,26.5z    "/>
		<path style="fill:#788B9C;" d="M15,10c6.617,0,12,3.589,12,8s-5.383,8-12,8S3,22.411,3,18S8.383,10,15,10 M15,9    C7.777,9,2,13.05,2,18s5.777,9,13,9s13-4.05,13-9S22.223,9,15,9L15,9z"/>
	</g>
</g>
<g>
	<circle style="fill:#F78F8F;" cx="10" cy="16" r="1.5"/>
	<path style="fill:#C74343;" d="M10,15c0.551,0,1,0.449,1,1s-0.449,1-1,1s-1-0.449-1-1S9.449,15,10,15 M10,14c-1.105,0-2,0.895-2,2   s0.895,2,2,2s2-0.895,2-2S11.105,14,10,14L10,14z"/>
</g>
<g>
	<circle style="fill:#F78F8F;" cx="20" cy="16" r="1.5"/>
	<path style="fill:#C74343;" d="M20,15c0.551,0,1,0.449,1,1s-0.449,1-1,1s-1-0.449-1-1S19.449,15,20,15 M20,14c-1.105,0-2,0.895-2,2   s0.895,2,2,2s2-0.895,2-2S21.105,14,20,14L20,14z"/>
</g>
<path style="fill:none;stroke:#788B9C;stroke-linecap:round;stroke-miterlimit:10;" d="M10,21c0,0,1.68,2,5,2s5-2,5-2"/>
<g>
	<g>
		<circle style="fill:#B6C9D6;" cx="25.5" cy="4.5" r="2"/>
		<path style="fill:#788B9C;" d="M25.5,3C26.327,3,27,3.673,27,4.5S26.327,6,25.5,6S24,5.327,24,4.5S24.673,3,25.5,3 M25.5,2    C24.125,2,23,3.125,23,4.5S24.125,7,25.5,7S28,5.875,28,4.5S26.875,2,25.5,2L25.5,2z"/>
	</g>
</g>
<path style="fill:none;stroke:#788B9C;stroke-miterlimit:10;" d="M15.5,9.497V6.162c0-1.464,1.065-2.662,2.662-2.662s2.01,1,5.338,1  "/>
</svg>