<?xml version="1.0" encoding="iso-8859-1"?><!-- Generator: Adobe Illustrator 19.2.1, SVG Export Plug-In . SVG Version: 6.00 Build 0)  --><svg xmlns="http://www.w3.org/2000/svg" xmlns:xlink="http://www.w3.org/1999/xlink" version="1.1" id="Layer_1" x="0px" y="0px" viewBox="0 0 16 16" style="enable-background:new 0 0 16 16;" xml:space="preserve" width="16" height="16">
<g>
	<circle style="fill:#FFFFFF;" cx="14" cy="8" r="1.5"/>
	<path style="fill:#788B9C;" d="M14,7c0.551,0,1,0.449,1,1s-0.449,1-1,1s-1-0.449-1-1S13.449,7,14,7 M14,6c-1.105,0-2,0.895-2,2   s0.895,2,2,2s2-0.895,2-2S15.105,6,14,6L14,6z"/>
</g>
<g>
	<circle style="fill:#FFFFFF;" cx="2" cy="8" r="1.5"/>
	<path style="fill:#788B9C;" d="M2,7c0.551,0,1,0.449,1,1S2.551,9,2,9S1,8.551,1,8S1.449,7,2,7 M2,6C0.895,6,0,6.895,0,8   s0.895,2,2,2s2-0.895,2-2S3.105,6,2,6L2,6z"/>
</g>
<g>
	<g>
		<ellipse style="fill:#FFFFFF;" cx="8" cy="10" rx="6.5" ry="4.5"/>
		<path style="fill:#788B9C;" d="M8,6c3.252,0,6,1.832,6,4s-2.748,4-6,4s-6-1.832-6-4S4.748,6,8,6 M8,5c-3.889,0-7,2.25-7,5    s3.111,5,7,5s7-2.25,7-5S11.889,5,8,5L8,5z"/>
	</g>
</g>
<g>
	<circle style="fill:#F78F8F;" cx="11" cy="9" r="0.5"/>
	<path style="fill:#C74343;" d="M11,8c-0.552,0-1,0.448-1,1s0.448,1,1,1s1-0.448,1-1S11.552,8,11,8L11,8z"/>
</g>
<g>
	<circle style="fill:#F78F8F;" cx="5" cy="9" r="0.5"/>
	<path style="fill:#C74343;" d="M5,8C4.448,8,4,8.448,4,9s0.448,1,1,1s1-0.448,1-1S5.552,8,5,8L5,8z"/>
</g>
<path style="fill:none;stroke:#788B9C;stroke-linecap:round;stroke-miterlimit:10;" d="M5.143,11.357c0,0,0.96,1.143,2.857,1.143  s2.857-1.143,2.857-1.143"/>
<g>
	<g>
		<circle style="fill:#B6C9D6;" cx="13.5" cy="2.573" r="1"/>
		<path style="fill:#788B9C;" d="M13.5,2.073c0.271,0,0.5,0.229,0.5,0.5s-0.229,0.5-0.5,0.5S13,2.844,13,2.573    S13.229,2.073,13.5,2.073 M13.5,1.073c-0.825,0-1.5,0.675-1.5,1.5s0.675,1.5,1.5,1.5s1.5-0.675,1.5-1.5S14.325,1.073,13.5,1.073    L13.5,1.073z"/>
	</g>
</g>
<path style="fill:none;stroke:#788B9C;stroke-miterlimit:10;" d="M7.5,5.5V3.094c0-0.837,0.609-1.521,1.521-1.521  c0.913,0,1.577,1,3.479,1"/>
</svg>