<?xml version="1.0" encoding="iso-8859-1"?><!-- Generator: Adobe Illustrator 19.2.1, SVG Export Plug-In . SVG Version: 6.00 Build 0)  --><svg xmlns="http://www.w3.org/2000/svg" xmlns:xlink="http://www.w3.org/1999/xlink" version="1.1" id="Layer_1" x="0px" y="0px" viewBox="0 0 40 40" style="enable-background:new 0 0 40 40;" xml:space="preserve" width="40" height="40">
<g>
	<circle style="fill:#FFFFFF;" cx="34.5" cy="17.5" r="4"/>
	<path style="fill:#788B9C;" d="M34.5,14c1.93,0,3.5,1.57,3.5,3.5S36.43,21,34.5,21S31,19.43,31,17.5S32.57,14,34.5,14 M34.5,13   c-2.485,0-4.5,2.015-4.5,4.5s2.015,4.5,4.5,4.5s4.5-2.015,4.5-4.5S36.985,13,34.5,13L34.5,13z"/>
</g>
<g>
	<circle style="fill:#FFFFFF;" cx="5.5" cy="17.5" r="4"/>
	<path style="fill:#788B9C;" d="M5.5,14C7.43,14,9,15.57,9,17.5S7.43,21,5.5,21S2,19.43,2,17.5S3.57,14,5.5,14 M5.5,13   C3.015,13,1,15.015,1,17.5S3.015,22,5.5,22s4.5-2.015,4.5-4.5S7.985,13,5.5,13L5.5,13z"/>
</g>
<g>
	<g>
		<path style="fill:#FFFFFF;" d="M20,35.5c-9.649,0-17.5-5.383-17.5-12s7.851-12,17.5-12s17.5,5.383,17.5,12S29.649,35.5,20,35.5z"/>
		<path style="fill:#788B9C;" d="M20,12c9.374,0,17,5.159,17,11.5S29.374,35,20,35S3,29.841,3,23.5S10.626,12,20,12 M20,11    C10,11,2,16.625,2,23.5S10,36,20,36s18-5.625,18-12.5S30,11,20,11L20,11z"/>
	</g>
</g>
<g>
	<circle style="fill:#F78F8F;" cx="13.5" cy="21.5" r="2"/>
	<path style="fill:#C74343;" d="M13.5,20c0.827,0,1.5,0.673,1.5,1.5S14.327,23,13.5,23S12,22.327,12,21.5S12.673,20,13.5,20    M13.5,19c-1.381,0-2.5,1.119-2.5,2.5s1.119,2.5,2.5,2.5s2.5-1.119,2.5-2.5S14.881,19,13.5,19L13.5,19z"/>
</g>
<g>
	<circle style="fill:#F78F8F;" cx="26.5" cy="21.5" r="2"/>
	<path style="fill:#C74343;" d="M26.5,20c0.827,0,1.5,0.673,1.5,1.5S27.327,23,26.5,23S25,22.327,25,21.5S25.673,20,26.5,20    M26.5,19c-1.381,0-2.5,1.119-2.5,2.5s1.119,2.5,2.5,2.5s2.5-1.119,2.5-2.5S27.881,19,26.5,19L26.5,19z"/>
</g>
<path style="fill:none;stroke:#788B9C;stroke-linecap:round;stroke-miterlimit:10;" d="M13.5,27.9c0,0,2.184,2.6,6.5,2.6  s6.5-2.6,6.5-2.6"/>
<g>
	<g>
		<circle style="fill:#B6C9D6;" cx="34.5" cy="5.5" r="3"/>
		<path style="fill:#788B9C;" d="M34.5,3C35.878,3,37,4.122,37,5.5S35.878,8,34.5,8S32,6.878,32,5.5S33.122,3,34.5,3 M34.5,2    C32.575,2,31,3.575,31,5.5S32.575,9,34.5,9S38,7.425,38,5.5S36.425,2,34.5,2L34.5,2z"/>
	</g>
</g>
<path style="fill:none;stroke:#788B9C;stroke-miterlimit:10;" d="M20.5,12V8.113c0-1.987,1.445-3.613,3.613-3.613s2.871,1,7.387,1"/>
</svg>