<?xml version="1.0" encoding="iso-8859-1"?><!-- Generator: Adobe Illustrator 19.2.1, SVG Export Plug-In . SVG Version: 6.00 Build 0)  --><svg xmlns="http://www.w3.org/2000/svg" xmlns:xlink="http://www.w3.org/1999/xlink" version="1.1" id="Layer_1" x="0px" y="0px" viewBox="0 0 80 80" style="enable-background:new 0 0 80 80;" xml:space="preserve" width="80" height="80">
<g>
	<path style="fill:#FFFFFF;" d="M69,45.5c-4.687,0-8.5-3.813-8.5-8.5s3.813-8.5,8.5-8.5s8.5,3.813,8.5,8.5S73.687,45.5,69,45.5z"/>
	<path style="fill:#788B9C;" d="M69,29c4.411,0,8,3.589,8,8s-3.589,8-8,8s-8-3.589-8-8S64.589,29,69,29 M69,28c-4.971,0-9,4.029-9,9   s4.029,9,9,9s9-4.029,9-9S73.971,28,69,28L69,28z"/>
</g>
<g>
	<path style="fill:#FFFFFF;" d="M11,45.5c-4.687,0-8.5-3.813-8.5-8.5s3.813-8.5,8.5-8.5s8.5,3.813,8.5,8.5S15.687,45.5,11,45.5z"/>
	<path style="fill:#788B9C;" d="M11,29c4.411,0,8,3.589,8,8s-3.589,8-8,8s-8-3.589-8-8S6.589,29,11,29 M11,28c-4.971,0-9,4.029-9,9   s4.029,9,9,9s9-4.029,9-9S15.971,28,11,28L11,28z"/>
</g>
<g>
	<g>
		<path style="fill:#FFFFFF;" d="M40,73.5C20.425,73.5,4.5,62.509,4.5,49S20.425,24.5,40,24.5S75.5,35.491,75.5,49    S59.575,73.5,40,73.5z"/>
		<path style="fill:#788B9C;" d="M40,25c19.299,0,35,10.766,35,24S59.299,73,40,73S5,62.234,5,49S20.701,25,40,25 M40,24    C19.999,24,4,35.25,4,49s15.999,25,36,25s36-11.25,36-25S60.001,24,40,24L40,24z"/>
	</g>
</g>
<g>
	<circle style="fill:#F78F8F;" cx="27" cy="45" r="4.5"/>
	<path style="fill:#C74343;" d="M27,41c2.206,0,4,1.794,4,4s-1.794,4-4,4s-4-1.794-4-4S24.794,41,27,41 M27,40c-2.761,0-5,2.239-5,5   s2.239,5,5,5s5-2.239,5-5S29.761,40,27,40L27,40z"/>
</g>
<g>
	<circle style="fill:#F78F8F;" cx="53" cy="45" r="4.5"/>
	<path style="fill:#C74343;" d="M53,41c2.206,0,4,1.794,4,4s-1.794,4-4,4s-4-1.794-4-4S50.794,41,53,41 M53,40c-2.761,0-5,2.239-5,5   s2.239,5,5,5s5-2.239,5-5S55.761,40,53,40L53,40z"/>
</g>
<path style="fill:none;stroke:#788B9C;stroke-linecap:round;stroke-miterlimit:10;" d="M27,57.8c0,0,4.368,5.2,13,5.2s13-5.2,13-5.2  "/>
<g>
	<g>
		<circle style="fill:#B6C9D6;" cx="70.5" cy="11.5" r="5"/>
		<path style="fill:#788B9C;" d="M70.5,7c2.481,0,4.5,2.019,4.5,4.5S72.981,16,70.5,16S66,13.981,66,11.5S68.019,7,70.5,7 M70.5,6    C67.475,6,65,8.475,65,11.5s2.475,5.5,5.5,5.5s5.5-2.475,5.5-5.5S73.525,6,70.5,6L70.5,6z"/>
	</g>
</g>
<path style="fill:none;stroke:#788B9C;stroke-miterlimit:10;" d="M40.5,23.957v-8.232c0-3.974,2.891-7.225,7.225-7.225  s8.741,3,17.775,3"/>
</svg>