<?xml version="1.0" encoding="iso-8859-1"?><!-- Generator: Adobe Illustrator 19.2.1, SVG Export Plug-In . SVG Version: 6.00 Build 0)  --><svg xmlns="http://www.w3.org/2000/svg" xmlns:xlink="http://www.w3.org/1999/xlink" version="1.1" id="Layer_1" x="0px" y="0px" viewBox="0 0 80 80" style="enable-background:new 0 0 80 80;" xml:space="preserve" width="80" height="80">
<g>
	<path style="fill:#C2E8FF;" d="M2.506,73.5c0.272-11.625,10.034-21,21.994-21h15c11.96,0,21.722,9.375,21.994,21H2.506z"/>
	<g>
		<path style="fill:#7496C4;" d="M39.5,53c11.512,0,20.94,8.883,21.476,20H3.024C3.56,61.883,12.988,53,24.5,53H39.5 M39.5,52h-15    C12.074,52,2,61.85,2,74h60C62,61.85,51.926,52,39.5,52L39.5,52z"/>
	</g>
</g>
<g>
	<path style="fill:#E8D47B;" d="M32,59.5c-6.624,0-9.202-5.908-9.5-6.65v-11.53h19v11.532C41.192,53.641,38.685,59.5,32,59.5z"/>
	<path style="fill:#BA9B48;" d="M41,41.819v10.936C40.593,53.749,38.151,59,32,59c-6.154,0-8.596-5.257-9-6.245V41.819H41    M42,40.819H22v12.124c0,0,2.534,7.057,10,7.057s10-7.057,10-7.057V40.819L42,40.819z"/>
</g>
<g>
	<g>
		<path style="fill:#E8D47B;" d="M44.857,37.786c-2.561,0-4.644-2.083-4.644-4.644c0-2.56,2.083-4.643,4.644-4.643    c3.298,0,4.643,0.849,4.643,2.929C49.5,33.939,47.42,37.786,44.857,37.786z M19.143,37.786c-2.562,0-4.643-3.847-4.643-6.357    c0-2.08,1.345-2.929,4.643-2.929c2.561,0,4.644,2.083,4.644,4.643C23.786,35.703,21.703,37.786,19.143,37.786z"/>
	</g>
	<g>
		<path style="fill:#BA9B48;" d="M44.857,29C48.307,29,49,29.929,49,31.429c0,2.503-2.048,5.857-4.143,5.857    c-2.284,0-4.143-1.859-4.143-4.143S42.573,29,44.857,29 M19.143,29c2.284,0,4.143,1.858,4.143,4.143s-1.858,4.143-4.143,4.143    c-2.095,0-4.143-3.354-4.143-5.857C15,29.929,15.693,29,19.143,29 M44.857,28c-2.84,0-5.143,2.302-5.143,5.143    s2.303,5.143,5.143,5.143c2.84,0,5.143-4.017,5.143-6.857C50,28.588,47.697,28,44.857,28L44.857,28z M19.143,28    C16.303,28,14,28.588,14,31.429c0,2.84,2.303,6.857,5.143,6.857c2.84,0,5.143-2.303,5.143-5.143S21.983,28,19.143,28L19.143,28z"/>
	</g>
</g>
<g>
	<g>
		<path style="fill:#FFEEA3;" d="M32,51.5c-1.3,0-2.534-0.498-3.477-1.402l-0.091-0.087l-0.119-0.034    C22.535,48.339,18.5,43.002,18.5,37V20.728c0-3.403,2.769-6.172,6.172-6.172h14.656c3.403,0,6.172,2.769,6.172,6.172V37    c0,6.002-4.035,11.339-9.813,12.977l-0.119,0.034l-0.091,0.087C34.534,51.002,33.3,51.5,32,51.5z"/>
	</g>
	<g>
		<path style="fill:#BA9B48;" d="M39.328,15.056c3.128,0,5.672,2.545,5.672,5.672V37c0,5.779-3.886,10.918-9.449,12.496l-0.24,0.068    l-0.18,0.173C34.282,50.551,33.17,51,32,51s-2.282-0.449-3.131-1.263l-0.18-0.173l-0.24-0.068C22.886,47.918,19,42.779,19,37    V20.728c0-3.128,2.545-5.672,5.672-5.672H39.328 M39.328,14.056H24.672c-3.685,0-6.672,2.987-6.672,6.672V37    c0,6.405,4.306,11.793,10.177,13.458C29.17,51.411,30.515,52,32,52s2.83-0.589,3.823-1.542C41.694,48.793,46,43.405,46,37V20.728    C46,17.043,43.013,14.056,39.328,14.056L39.328,14.056z"/>
	</g>
</g>
<g>
	<path style="fill:#FFC49C;" d="M45.5,33.5V25c0-6.66-5.292-8.458-5.346-8.476l-0.326-0.106l-0.217,0.268   c-0.047,0.058-4.797,5.813-11.611,5.813c-0.521,0-1.062-0.017-1.608-0.033c-0.568-0.017-1.145-0.034-1.71-0.034   c-2.006,0-6.182,0-6.182,4.568v6.5h-0.218c-0.7-1.192-3.782-6.755-3.782-12.348C14.5,11.348,21.696,4.5,32,4.5   c6.472,0,9.527,5.675,9.557,5.731l0.119,0.227l0.253,0.037C47.095,11.235,49.5,14.891,49.5,22c0,5.077-3.073,10.358-3.776,11.5   H45.5z"/>
	<g>
		<path style="fill:#A16A4A;" d="M32,5c6.155,0,8.997,5.242,9.114,5.463l0.237,0.454l0.507,0.073C44.924,11.429,49,13.048,49,22    c0,3.895-1.872,7.936-3,10.018V25c0-3.644-1.526-5.878-2.807-7.111c-1.4-1.347-2.824-1.821-2.884-1.84l-0.654-0.213l-0.433,0.535    C39.177,16.427,34.592,22,28,22c-0.516,0-1.052-0.016-1.594-0.033c-0.574-0.017-1.155-0.035-1.725-0.035    c-1.999,0-6.681,0-6.681,5.068v4.945c-1.132-2.203-3-6.489-3-10.792C15,11.642,21.991,5,32,5 M32,4c-10.719,0-18,7.333-18,17.152    C14,27.656,18,34,18,34h1c0,0,0-5.211,0-7c0-3.582,2.701-4.068,5.681-4.068C25.79,22.932,26.938,23,28,23c7.146,0,12-6,12-6    s5,1.626,5,8c0,1.968,0,9,0,9h1c0,0,4-6.073,4-12c0-8.322-3.405-11.342-8-12C42,10,38.868,4,32,4L32,4z"/>
	</g>
</g>
<g>
	<path style="fill:#F78F8F;" d="M62,80.5c-9.649,0-17.5-7.851-17.5-17.5S52.351,45.5,62,45.5S79.5,53.351,79.5,63   S71.649,80.5,62,80.5z"/>
	<g>
		<path style="fill:#C74343;" d="M62,46c9.374,0,17,7.626,17,17s-7.626,17-17,17s-17-7.626-17-17S52.626,46,62,46 M62,45    c-9.941,0-18,8.059-18,18s8.059,18,18,18s18-8.059,18-18S71.941,45,62,45L62,45z"/>
	</g>
</g>
<line style="fill:none;stroke:#FFFFFF;stroke-width:4;stroke-miterlimit:10;" x1="55" y1="70" x2="69" y2="56"/>
<line style="fill:none;stroke:#FFFFFF;stroke-width:4;stroke-miterlimit:10;" x1="55" y1="56" x2="69" y2="70"/>
</svg>