<?xml version="1.0" encoding="iso-8859-1"?><!-- Generator: Adobe Illustrator 19.2.1, SVG Export Plug-In . SVG Version: 6.00 Build 0)  --><svg xmlns="http://www.w3.org/2000/svg" xmlns:xlink="http://www.w3.org/1999/xlink" version="1.1" id="Layer_1" x="0px" y="0px" viewBox="0 0 30 30" style="enable-background:new 0 0 30 30;" xml:space="preserve" width="30" height="30">
<g>
	<path style="fill:#C2E8FF;" d="M1.517,26.5c0.258-3.903,3.516-7,7.483-7h6c3.968,0,7.226,3.097,7.483,7H1.517z"/>
	<g>
		<path style="fill:#7496C4;" d="M15,20c3.52,0,6.442,2.612,6.929,6H2.071C2.558,22.612,5.48,20,9,20H15 M15,19H9    c-4.418,0-8,3.582-8,8h22C23,22.582,19.418,19,15,19L15,19z"/>
	</g>
</g>
<g>
	<path style="fill:#E8D47B;" d="M12,21.5c-2.282,0-3.054-1.279-3.214-1.605v-3.823h6.428v3.824C15.058,20.215,14.288,21.5,12,21.5z"/>
	<path style="fill:#BA9B48;" d="M14.714,16.571v3.201C14.519,20.102,13.818,21,12,21c-1.815,0-2.518-0.9-2.714-1.229v-3.199H14.714    M15.714,15.571H8.286V20c0,0,0.742,2,3.714,2s3.714-2,3.714-2V15.571L15.714,15.571z"/>
</g>
<g>
	<g>
		<path style="fill:#E8D47B;" d="M17,13.5c-0.827,0-1.5-0.609-1.5-1.357s0.673-1.357,1.5-1.357c1.5,0,1.5,0.444,1.5,0.738    C18.5,12.35,17.744,13.5,17,13.5z M7,13.5c-0.744,0-1.5-1.15-1.5-1.977c0-0.294,0-0.738,1.5-0.738c0.827,0,1.5,0.609,1.5,1.357    S7.827,13.5,7,13.5z"/>
	</g>
	<g>
		<path style="fill:#BA9B48;" d="M17,11.285c0.787,0,0.978,0.131,0.988,0.131c0,0,0,0,0,0C17.99,11.421,18,11.451,18,11.523    C18,12.131,17.411,13,17,13c-0.551,0-1-0.385-1-0.857S16.449,11.285,17,11.285 M7,11.285c0.551,0,1,0.385,1,0.857S7.551,13,7,13    c-0.411,0-1-0.869-1-1.476c0-0.056,0.006-0.087,0.004-0.093C6.042,11.404,6.251,11.285,7,11.285 M17,10.285    c-1.105,0-2,0.831-2,1.857S15.895,14,17,14s2-1.451,2-2.476C19,10.498,18.105,10.285,17,10.285L17,10.285z M7,10.285    c-1.105,0-2,0.212-2,1.238C5,12.549,5.895,14,7,14s2-0.831,2-1.857S8.105,10.285,7,10.285L7,10.285z"/>
	</g>
</g>
<g>
	<g>
		<path style="fill:#FFEEA3;" d="M12,18.5c-0.383,0-0.739-0.16-1.002-0.451l-0.11-0.122l-0.161-0.033    C8.277,17.398,6.5,15.222,6.5,12.718V6.553c0-1.244,1.012-2.256,2.256-2.256h6.488c1.244,0,2.256,1.012,2.256,2.256v6.165    c0,2.504-1.777,4.681-4.227,5.176l-0.161,0.033l-0.11,0.122C12.739,18.34,12.383,18.5,12,18.5z"/>
	</g>
	<g>
		<path style="fill:#BA9B48;" d="M15.245,4.797C16.212,4.797,17,5.585,17,6.553v6.165c0,2.266-1.609,4.237-3.826,4.686l-0.322,0.065    l-0.221,0.244C12.534,17.82,12.323,18,12,18s-0.534-0.18-0.631-0.287l-0.221-0.244l-0.322-0.065C8.609,16.955,7,14.984,7,12.718    V6.553c0-0.968,0.788-1.755,1.755-1.755H15.245 M15.245,3.797H8.755C7.234,3.797,6,5.031,6,6.553v6.165    c0,2.798,1.987,5.131,4.627,5.666C10.967,18.76,11.454,19,12,19s1.033-0.24,1.373-0.616C16.013,17.849,18,15.516,18,12.718V6.553    C18,5.031,16.766,3.797,15.245,3.797L15.245,3.797z"/>
	</g>
</g>
<g>
	<path style="fill:#FFC49C;" d="M17.5,12.499v-1.777c0-2.7-2.081-4.563-2.17-4.642l-0.344-0.304l-0.332,0.317   C14.642,6.105,13.113,7.5,9.9,7.5c-2.065,0-3.4,1.321-3.4,3.366v1.633H6.391C6.145,11.5,5.5,8.771,5.5,7.606   C5.5,3.896,8.052,1.5,12,1.5c1.714,0,2.89,1.494,2.901,1.509l0.15,0.194h0.245c1.107,0,3.203,0.857,3.203,4.103   c0,1.825-0.627,4.285-0.878,5.193H17.5z"/>
	<g>
		<path style="fill:#A16A4A;" d="M12,2c1.449,0,2.498,1.306,2.505,1.315l0.3,0.388h0.491C16.232,3.703,18,4.456,18,7.306    c0,0.612-0.074,1.302-0.181,1.978c-0.535-2.127-2.079-3.51-2.158-3.579l-0.689-0.607l-0.663,0.635C14.296,5.745,12.9,7,9.9,7    C8.093,7,6.745,7.932,6.23,9.427C6.096,8.697,6,8.027,6,7.606C6,4.201,8.355,2,12,2 M12,1C7.705,1,5,3.714,5,7.606    C5,9.12,6,13,6,13h1c0,0,0-1.417,0-2.133C7,8.901,8.334,8,9.9,8C13.385,8,15,6.455,15,6.455s2,1.761,2,4.267    C17,11.509,17,13,17,13h1c0,0,1-3.323,1-5.694c0-3.329-2.139-4.603-3.703-4.603C15.297,2.703,13.98,1,12,1L12,1z"/>
	</g>
</g>
<g>
	<circle style="fill:#F78F8F;" cx="23" cy="23" r="6.5"/>
	<g>
		<path style="fill:#C74343;" d="M23,17c3.308,0,6,2.692,6,6s-2.692,6-6,6s-6-2.692-6-6S19.692,17,23,17 M23,16    c-3.866,0-7,3.134-7,7s3.134,7,7,7s7-3.134,7-7S26.866,16,23,16L23,16z"/>
	</g>
</g>
<line style="fill:none;stroke:#FFFFFF;stroke-width:2;stroke-miterlimit:10;" x1="20.172" y1="25.828" x2="25.828" y2="20.172"/>
<line style="fill:none;stroke:#FFFFFF;stroke-width:2;stroke-miterlimit:10;" x1="20.172" y1="20.172" x2="25.828" y2="25.828"/>
</svg>