<?xml version="1.0" encoding="iso-8859-1"?><!-- Generator: Adobe Illustrator 19.2.1, SVG Export Plug-In . SVG Version: 6.00 Build 0)  --><svg xmlns="http://www.w3.org/2000/svg" xmlns:xlink="http://www.w3.org/1999/xlink" version="1.1" id="Layer_1" x="0px" y="0px" viewBox="0 0 30 30" style="enable-background:new 0 0 30 30;" xml:space="preserve" width="30" height="30">
<g>
	<path style="fill:#B53838;" d="M24.899,5.101C22.366,2.567,18.866,1,15,1v14L24.899,5.101z"/>
</g>
<g>
	<path style="fill:#B86E3E;" d="M29,15c0-3.583-1.367-7.166-4.1-9.899L15,15H29z"/>
</g>
<g>
	<path style="fill:#B88F28;" d="M24.899,24.899C27.433,22.366,29,18.866,29,15H15L24.899,24.899z"/>
</g>
<g>
	<path style="fill:#51966C;" d="M15,29c3.583,0,7.166-1.367,9.899-4.1L15,15V29z"/>
</g>
<g>
	<path style="fill:#5682BA;" d="M5.101,24.899C7.634,27.433,11.134,29,15,29V15L5.101,24.899z"/>
</g>
<g>
	<path style="fill:#4965A8;" d="M1,15c0,3.583,1.367,7.166,4.1,9.899L15,15H1z"/>
</g>
<g>
	<path style="fill:#7E5D9E;" d="M5.101,5.101C2.567,7.634,1,11.134,1,15h14L5.101,5.101z"/>
</g>
<g>
	<path style="fill:#914683;" d="M15,1c-3.583,0-7.166,1.367-9.899,4.1L15,15V1z"/>
</g>
<g>
	<path style="fill:#EB6060;" d="M24.192,5.808C21.84,3.455,18.59,2,15,2v13L24.192,5.808z"/>
</g>
<g>
	<path style="fill:#F08A48;" d="M28,15c0-3.327-1.269-6.654-3.808-9.192L15,15H28z"/>
</g>
<g>
	<path style="fill:#FFDF59;" d="M24.192,24.192C26.545,21.84,28,18.59,28,15H15L24.192,24.192z"/>
</g>
<g>
	<path style="fill:#76D67D;" d="M15,28c3.327,0,6.654-1.269,9.192-3.808L15,15V28z"/>
</g>
<g>
	<path style="fill:#669FED;" d="M5.808,24.192C8.16,26.545,11.41,28,15,28V15L5.808,24.192z"/>
</g>
<g>
	<path style="fill:#6F85E8;" d="M2,15c0,3.327,1.269,6.654,3.808,9.192L15,15H2z"/>
</g>
<g>
	<path style="fill:#B05DE3;" d="M5.808,5.808C3.455,8.16,2,11.41,2,15h13L5.808,5.808z"/>
</g>
<g>
	<path style="fill:#DC5DE3;" d="M15,2c-3.327,0-6.654,1.269-9.192,3.808L15,15V2z"/>
</g>
</svg>