<?xml version="1.0" encoding="iso-8859-1"?><!-- Generator: Adobe Illustrator 19.2.1, SVG Export Plug-In . SVG Version: 6.00 Build 0)  --><svg xmlns="http://www.w3.org/2000/svg" xmlns:xlink="http://www.w3.org/1999/xlink" version="1.1" id="Layer_1" x="0px" y="0px" viewBox="0 0 40 40" style="enable-background:new 0 0 40 40;" xml:space="preserve" width="40" height="40">
<g>
	<path style="fill:#B53838;" d="M33.435,6.565C29.997,3.127,25.247,1,20,1v19L33.435,6.565z"/>
</g>
<g>
	<path style="fill:#B86E3E;" d="M39,20c0-4.863-1.855-9.725-5.565-13.435L20,20H39z"/>
</g>
<g>
	<path style="fill:#B88F28;" d="M33.435,33.435C36.873,29.997,39,25.247,39,20H20L33.435,33.435z"/>
</g>
<g>
	<path style="fill:#51966C;" d="M20,39c4.863,0,9.725-1.855,13.435-5.565L20,20V39z"/>
</g>
<g>
	<path style="fill:#5682BA;" d="M6.565,33.435C10.003,36.873,14.753,39,20,39V20L6.565,33.435z"/>
</g>
<g>
	<path style="fill:#4965A8;" d="M1,20c0,4.863,1.855,9.725,5.565,13.435L20,20H1z"/>
</g>
<g>
	<path style="fill:#7E5D9E;" d="M6.565,6.565C3.127,10.003,1,14.753,1,20h19L6.565,6.565z"/>
</g>
<g>
	<path style="fill:#914683;" d="M20,1c-4.863,0-9.725,1.855-13.435,5.565L20,20V1z"/>
</g>
<g>
	<path style="fill:#EB6060;" d="M32.728,7.272C29.471,4.015,24.971,2,20,2v18L32.728,7.272z"/>
</g>
<g>
	<path style="fill:#F08A48;" d="M38,20c0-4.607-1.757-9.213-5.272-12.728L20,20H38z"/>
</g>
<g>
	<path style="fill:#FFDF59;" d="M32.728,32.728C35.985,29.471,38,24.971,38,20H20L32.728,32.728z"/>
</g>
<g>
	<path style="fill:#76D67D;" d="M20,38c4.607,0,9.213-1.757,12.728-5.272L20,20V38z"/>
</g>
<g>
	<path style="fill:#669FED;" d="M7.272,32.728C10.529,35.985,15.029,38,20,38V20L7.272,32.728z"/>
</g>
<g>
	<path style="fill:#6F85E8;" d="M2,20c0,4.607,1.757,9.213,5.272,12.728L20,20H2z"/>
</g>
<g>
	<path style="fill:#B05DE3;" d="M7.272,7.272C4.015,10.529,2,15.029,2,20h18L7.272,7.272z"/>
</g>
<g>
	<path style="fill:#DC5DE3;" d="M20,2c-4.607,0-9.213,1.757-12.728,5.272L20,20V2z"/>
</g>
</svg>