<?xml version="1.0" encoding="iso-8859-1"?><!-- Generator: Adobe Illustrator 19.2.1, SVG Export Plug-In . SVG Version: 6.00 Build 0)  --><svg xmlns="http://www.w3.org/2000/svg" xmlns:xlink="http://www.w3.org/1999/xlink" version="1.1" id="Layer_1" x="0px" y="0px" viewBox="0 0 16 16" style="enable-background:new 0 0 16 16;" xml:space="preserve" width="16" height="16">
<g>
	<path style="fill:#B53838;" d="M13.657,2.343C12.209,0.895,10.209,0,8,0v8L13.657,2.343z"/>
</g>
<g>
	<path style="fill:#B86E3E;" d="M16,8c0-2.047-0.781-4.095-2.343-5.657L8,8H16z"/>
</g>
<g>
	<path style="fill:#B88F28;" d="M13.657,13.657C15.105,12.209,16,10.209,16,8H8L13.657,13.657z"/>
</g>
<g>
	<path style="fill:#51966C;" d="M8,16c2.047,0,4.095-0.781,5.657-2.343L8,8V16z"/>
</g>
<g>
	<path style="fill:#5682BA;" d="M2.343,13.657C3.791,15.105,5.791,16,8,16V8L2.343,13.657z"/>
</g>
<g>
	<path style="fill:#4965A8;" d="M0,8c0,2.047,0.781,4.095,2.343,5.657L8,8H0z"/>
</g>
<g>
	<path style="fill:#7E5D9E;" d="M2.343,2.343C0.895,3.791,0,5.791,0,8h8L2.343,2.343z"/>
</g>
<g>
	<path style="fill:#914683;" d="M8,0C5.953,0,3.905,0.781,2.343,2.343L8,8V0z"/>
</g>
<g>
	<path style="fill:#EB6060;" d="M12.95,3.05C11.683,1.784,9.933,1,8,1v7L12.95,3.05z"/>
</g>
<g>
	<path style="fill:#F08A48;" d="M15,8c0-1.791-0.683-3.583-2.05-4.95L8,8H15z"/>
</g>
<g>
	<path style="fill:#FFDF59;" d="M12.95,12.95C14.216,11.683,15,9.933,15,8H8L12.95,12.95z"/>
</g>
<g>
	<path style="fill:#76D67D;" d="M8,15c1.791,0,3.583-0.683,4.95-2.05L8,8V15z"/>
</g>
<g>
	<path style="fill:#669FED;" d="M3.05,12.95C4.317,14.216,6.067,15,8,15V8L3.05,12.95z"/>
</g>
<g>
	<path style="fill:#6F85E8;" d="M1,8c0,1.791,0.683,3.583,2.05,4.95L8,8H1z"/>
</g>
<g>
	<path style="fill:#B05DE3;" d="M3.05,3.05C1.784,4.317,1,6.067,1,8h7L3.05,3.05z"/>
</g>
<g>
	<path style="fill:#DC5DE3;" d="M8,1C6.209,1,4.417,1.683,3.05,3.05L8,8V1z"/>
</g>
</svg>