<?xml version="1.0" encoding="iso-8859-1"?><!-- Generator: Adobe Illustrator 19.2.1, SVG Export Plug-In . SVG Version: 6.00 Build 0)  --><svg xmlns="http://www.w3.org/2000/svg" xmlns:xlink="http://www.w3.org/1999/xlink" version="1.1" id="Layer_1" x="0px" y="0px" viewBox="0 0 30 30" style="enable-background:new 0 0 30 30;" xml:space="preserve" width="30" height="30">
<path style="fill:none;stroke:#66798F;stroke-miterlimit:10;" d="M14.5,18.043v-1.735c0-0.472,0.329-0.879,0.79-0.978l11.629-2.492  c0.922-0.198,1.581-1.013,1.581-1.956V7.5c0-1.105-0.895-2-2-2H2"/>
<g>
	<rect x="3.5" y="1.5" style="fill:#F78F8F;" width="22" height="8"/>
	<path style="fill:#C74343;" d="M25,2v7H4V2H25 M26,1H3v9h23V1L26,1z"/>
</g>
<g>
	<path style="fill:#F5C276;" d="M14,28.5c-0.827,0-1.5-0.673-1.5-1.5v-9.5h4V27c0,0.827-0.673,1.5-1.5,1.5H14z"/>
	<path style="fill:#C29653;" d="M16,18v9c0,0.551-0.449,1-1,1h-1c-0.551,0-1-0.449-1-1v-9H16 M17,17h-5v10c0,1.105,0.895,2,2,2h1   c1.105,0,2-0.895,2-2V17L17,17z"/>
</g>
</svg>