<?xml version="1.0" encoding="iso-8859-1"?><!-- Generator: Adobe Illustrator 19.2.1, SVG Export Plug-In . SVG Version: 6.00 Build 0)  --><svg xmlns="http://www.w3.org/2000/svg" xmlns:xlink="http://www.w3.org/1999/xlink" version="1.1" id="Layer_1" x="0px" y="0px" viewBox="0 0 16 16" style="enable-background:new 0 0 16 16;" xml:space="preserve" width="16" height="16">
<path style="fill:none;stroke:#66798F;stroke-miterlimit:10;" d="M7.5,11.543V9.735c0-0.437,0.284-0.824,0.702-0.954l5.895-1.842  C14.932,6.678,15.5,5.904,15.5,5.03V4.5c0-1.105-0.895-2-2-2H0"/>
<g>
	<rect x="1.5" y="0.5" style="fill:#F78F8F;" width="12" height="4"/>
	<path style="fill:#C74343;" d="M13,1v3H2V1H13 M14,0H1v5h13V0L14,0z"/>
</g>
<g>
	<rect x="6.5" y="10.5" style="fill:#F5C276;" width="2" height="5"/>
	<path style="fill:#C29653;" d="M8,11v4H7v-4H8 M9,10H6v6h3V10L9,10z"/>
</g>
</svg>