<?xml version="1.0" encoding="iso-8859-1"?><!-- Generator: Adobe Illustrator 19.2.1, SVG Export Plug-In . SVG Version: 6.00 Build 0)  --><svg xmlns="http://www.w3.org/2000/svg" xmlns:xlink="http://www.w3.org/1999/xlink" version="1.1" id="Layer_1" x="0px" y="0px" viewBox="0 0 40 40" style="enable-background:new 0 0 40 40;" xml:space="preserve" width="40" height="40">
<path style="fill:none;stroke:#66798F;stroke-miterlimit:10;" d="M19.5,24.523v-1.835c0-0.943,0.659-1.758,1.581-1.956l15.838-3.394  c0.922-0.198,1.581-1.013,1.581-1.956V9.5c0-1.105-0.895-2-2-2H2"/>
<g>
	<rect x="3.5" y="1.5" style="fill:#F78F8F;" width="31" height="12"/>
	<path style="fill:#C74343;" d="M34,2v11H4V2H34 M35,1H3v13h32V1L35,1z"/>
</g>
<g>
	<path style="fill:#F5C276;" d="M18,38.5c-0.827,0-1.5-0.673-1.5-1.5V23.5h6V37c0,0.827-0.673,1.5-1.5,1.5H18z"/>
	<path style="fill:#C29653;" d="M22,24v13c0,0.551-0.449,1-1,1h-3c-0.551,0-1-0.449-1-1V24H22 M23,23h-7v14c0,1.105,0.895,2,2,2h3   c1.105,0,2-0.895,2-2V23L23,23z"/>
</g>
</svg>