<?xml version="1.0" encoding="iso-8859-1"?><!-- Generator: Adobe Illustrator 19.2.1, SVG Export Plug-In . SVG Version: 6.00 Build 0)  --><svg xmlns="http://www.w3.org/2000/svg" xmlns:xlink="http://www.w3.org/1999/xlink" version="1.1" id="Layer_1" x="0px" y="0px" viewBox="0 0 80 80" style="enable-background:new 0 0 80 80;" xml:space="preserve" width="80" height="80">
<path style="fill:none;stroke:#4E7AB5;stroke-miterlimit:10;" d="M67.014,15.453C60.337,8.11,50.707,3.5,40,3.5  C19.842,3.5,3.5,19.842,3.5,40"/>
<g>
	<g>
		<path style="fill:none;stroke:#4E7AB5;stroke-miterlimit:10;" d="M3.5,40c0,1.01,0.041,2.01,0.121,2.999"/>
		<path style="fill:none;stroke:#4E7AB5;stroke-miterlimit:10;stroke-dasharray:6.1583,2.0528;" d="M3.845,45.04    c2.274,16.463,15.528,29.42,32.131,31.241"/>
		<path style="fill:none;stroke:#4E7AB5;stroke-miterlimit:10;" d="M37.001,76.379C37.99,76.459,38.99,76.5,40,76.5"/>
	</g>
</g>
<g>
	<g>
		<path style="fill:none;stroke:#4E7AB5;stroke-miterlimit:10;" d="M40,76.5c0.502,0,1.003-0.01,1.5-0.03"/>
		<path style="fill:none;stroke:#4E7AB5;stroke-miterlimit:10;stroke-dasharray:3.1338,2.0892;" d="M43.585,76.326    c17.641-1.72,31.603-15.998,32.828-33.78"/>
		<path style="fill:none;stroke:#4E7AB5;stroke-miterlimit:10;" d="M76.47,41.5c0.02-0.498,0.03-0.998,0.03-1.5"/>
	</g>
</g>
<g>
	<polygon style="fill:#8BB7F0;" points="56.999,17.471 68.388,6.472 72.519,22.668  "/>
	<g>
		<path style="fill:#4E7AB5;" d="M68.117,7.429l3.691,14.474l-13.869-4.645L68.117,7.429 M68.66,5.514L56.059,17.683l17.171,5.751    L68.66,5.514L68.66,5.514z"/>
	</g>
</g>
</svg>