<?xml version="1.0" encoding="iso-8859-1"?><!-- Generator: Adobe Illustrator 19.2.1, SVG Export Plug-In . SVG Version: 6.00 Build 0)  --><svg xmlns="http://www.w3.org/2000/svg" xmlns:xlink="http://www.w3.org/1999/xlink" version="1.1" id="Layer_1" x="0px" y="0px" viewBox="0 0 30 30" style="enable-background:new 0 0 30 30;" xml:space="preserve" width="30" height="30">
<path style="fill:none;stroke:#4E7AB5;stroke-miterlimit:10;" d="M5.009,5.921C7.478,3.205,11.04,1.5,15,1.5  c7.456,0,13.5,6.044,13.5,13.5"/>
<g>
	<g>
		<path style="fill:none;stroke:#4E7AB5;stroke-miterlimit:10;" d="M28.5,15c0,1.024-0.114,2.021-0.33,2.979"/>
		<path style="fill:none;stroke:#4E7AB5;stroke-miterlimit:10;stroke-dasharray:5.0667,1.6889;" d="M27.696,19.6    c-1.458,4.023-4.774,7.156-8.911,8.362"/>
		<path style="fill:none;stroke:#4E7AB5;stroke-miterlimit:10;" d="M17.979,28.17C17.021,28.386,16.024,28.5,15,28.5"/>
	</g>
</g>
<g>
	<g>
		<path style="fill:none;stroke:#4E7AB5;stroke-miterlimit:10;" d="M15,28.5c-0.506,0-1.006-0.028-1.498-0.082"/>
		<path style="fill:none;stroke:#4E7AB5;stroke-miterlimit:10;stroke-dasharray:3.2118,2.1412;" d="M11.398,28.014    c-4.907-1.355-8.693-5.411-9.658-10.468"/>
		<path style="fill:none;stroke:#4E7AB5;stroke-miterlimit:10;" d="M1.582,16.498C1.528,16.006,1.5,15.506,1.5,15"/>
	</g>
</g>
<g>
	<polygon style="fill:#8BB7F0;" points="4.296,2.003 9.06,6.767 2.867,8.68  "/>
	<g>
		<path style="fill:#4E7AB5;" d="M4.593,3.007L8.12,6.534L3.534,7.95L4.593,3.007 M4,1L2.199,9.409L10,7L4,1L4,1z"/>
	</g>
</g>
</svg>