<?xml version="1.0" encoding="iso-8859-1"?><!-- Generator: Adobe Illustrator 19.2.1, SVG Export Plug-In . SVG Version: 6.00 Build 0)  --><svg xmlns="http://www.w3.org/2000/svg" xmlns:xlink="http://www.w3.org/1999/xlink" version="1.1" id="Layer_1" x="0px" y="0px" viewBox="0 0 30 30" style="enable-background:new 0 0 30 30;" xml:space="preserve" width="30" height="30">
<path style="fill:none;stroke:#4E7AB5;stroke-miterlimit:10;" d="M24.991,5.921C22.522,3.205,18.96,1.5,15,1.5  C7.544,1.5,1.5,7.544,1.5,15"/>
<g>
	<g>
		<path style="fill:none;stroke:#4E7AB5;stroke-miterlimit:10;" d="M1.5,15c0,1.024,0.114,2.021,0.33,2.979"/>
		<path style="fill:none;stroke:#4E7AB5;stroke-miterlimit:10;stroke-dasharray:5.0667,1.6889;" d="M2.304,19.6    c1.458,4.023,4.774,7.156,8.911,8.362"/>
		<path style="fill:none;stroke:#4E7AB5;stroke-miterlimit:10;" d="M12.021,28.17c0.958,0.216,1.955,0.33,2.979,0.33"/>
	</g>
</g>
<g>
	<g>
		<path style="fill:none;stroke:#4E7AB5;stroke-miterlimit:10;" d="M15,28.5c0.506,0,1.006-0.028,1.498-0.082"/>
		<path style="fill:none;stroke:#4E7AB5;stroke-miterlimit:10;stroke-dasharray:3.2118,2.1412;" d="M18.602,28.014    c4.907-1.355,8.693-5.411,9.658-10.468"/>
		<path style="fill:none;stroke:#4E7AB5;stroke-miterlimit:10;" d="M28.418,16.498C28.472,16.006,28.5,15.506,28.5,15"/>
	</g>
</g>
<g>
	<polygon style="fill:#8BB7F0;" points="20.94,6.767 25.704,2.003 27.133,8.68  "/>
	<g>
		<path style="fill:#4E7AB5;" d="M25.407,3.007l1.059,4.943L21.88,6.534L25.407,3.007 M26,1l-6,6l7.801,2.409L26,1L26,1z"/>
	</g>
</g>
</svg>