<?xml version="1.0" encoding="iso-8859-1"?><!-- Generator: Adobe Illustrator 19.2.1, SVG Export Plug-In . SVG Version: 6.00 Build 0)  --><svg xmlns="http://www.w3.org/2000/svg" xmlns:xlink="http://www.w3.org/1999/xlink" version="1.1" id="Layer_1" x="0px" y="0px" viewBox="0 0 80 80" style="enable-background:new 0 0 80 80;" xml:space="preserve" width="80" height="80">
<path style="fill:none;stroke:#4E7AB5;stroke-miterlimit:10;" d="M12.986,15.453C19.663,8.11,29.293,3.5,40,3.5  c20.158,0,36.5,16.342,36.5,36.5"/>
<g>
	<g>
		<path style="fill:none;stroke:#4E7AB5;stroke-miterlimit:10;" d="M76.5,40c0,1.01-0.041,2.01-0.121,2.999"/>
		<path style="fill:none;stroke:#4E7AB5;stroke-miterlimit:10;stroke-dasharray:6.1583,2.0528;" d="M76.155,45.04    c-2.274,16.463-15.528,29.42-32.131,31.241"/>
		<path style="fill:none;stroke:#4E7AB5;stroke-miterlimit:10;" d="M42.999,76.379C42.01,76.459,41.01,76.5,40,76.5"/>
	</g>
</g>
<g>
	<g>
		<path style="fill:none;stroke:#4E7AB5;stroke-miterlimit:10;" d="M40,76.5c-0.502,0-1.003-0.01-1.5-0.03"/>
		<path style="fill:none;stroke:#4E7AB5;stroke-miterlimit:10;stroke-dasharray:3.1338,2.0892;" d="M36.415,76.326    c-17.641-1.72-31.603-15.998-32.828-33.78"/>
		<path style="fill:none;stroke:#4E7AB5;stroke-miterlimit:10;" d="M3.53,41.5C3.51,41.003,3.5,40.502,3.5,40"/>
	</g>
</g>
<g>
	<polygon style="fill:#8BB7F0;" points="11.612,6.472 23.001,17.471 7.481,22.668  "/>
	<g>
		<path style="fill:#4E7AB5;" d="M11.883,7.429l10.178,9.829L8.193,21.903L11.883,7.429 M11.34,5.514L6.77,23.434l17.171-5.751    L11.34,5.514L11.34,5.514z"/>
	</g>
</g>
</svg>