<?xml version="1.0" encoding="iso-8859-1"?><!-- Generator: Adobe Illustrator 19.2.1, SVG Export Plug-In . SVG Version: 6.00 Build 0)  --><svg xmlns="http://www.w3.org/2000/svg" xmlns:xlink="http://www.w3.org/1999/xlink" version="1.1" id="Layer_1" x="0px" y="0px" viewBox="0 0 40 40" style="enable-background:new 0 0 40 40;" xml:space="preserve" width="40" height="40">
<g>
	
		<rect x="0.213" y="14.624" transform="matrix(0.7071 -0.7071 0.7071 0.7071 -8.2843 20)" style="fill:#8BB7F0;" width="39.573" height="10.753"/>
	<path style="fill:#4E7AB5;" d="M30.189,2.914l6.896,6.896L9.811,37.086l-6.896-6.896L30.189,2.914 M30.189,1.5L1.5,30.189   L9.811,38.5L38.5,9.811L30.189,1.5L30.189,1.5z"/>
</g>
<line style="fill:none;stroke:#4E7AB5;stroke-miterlimit:10;" x1="25.261" y1="7.399" x2="27.813" y2="9.951"/>
<line style="fill:none;stroke:#4E7AB5;stroke-miterlimit:10;" x1="22.71" y1="9.951" x2="24.144" y2="11.386"/>
<line style="fill:none;stroke:#4E7AB5;stroke-miterlimit:10;" x1="27.813" y1="4.848" x2="29.248" y2="6.282"/>
<line style="fill:none;stroke:#4E7AB5;stroke-miterlimit:10;" x1="20.158" y1="12.503" x2="22.71" y2="15.055"/>
<line style="fill:none;stroke:#4E7AB5;stroke-miterlimit:10;" x1="17.606" y1="15.055" x2="19.041" y2="16.489"/>
<line style="fill:none;stroke:#4E7AB5;stroke-miterlimit:10;" x1="12.503" y1="20.158" x2="13.937" y2="21.592"/>
<line style="fill:none;stroke:#4E7AB5;stroke-miterlimit:10;" x1="9.951" y1="22.71" x2="12.503" y2="25.261"/>
<line style="fill:none;stroke:#4E7AB5;stroke-miterlimit:10;" x1="15.055" y1="17.606" x2="17.606" y2="20.158"/>
<line style="fill:none;stroke:#4E7AB5;stroke-miterlimit:10;" x1="7.399" y1="25.261" x2="8.834" y2="26.696"/>
<line style="fill:none;stroke:#4E7AB5;stroke-miterlimit:10;" x1="4.848" y1="27.813" x2="7.399" y2="30.365"/>
</svg>