<?xml version="1.0" encoding="iso-8859-1"?><!-- Generator: Adobe Illustrator 19.2.1, SVG Export Plug-In . SVG Version: 6.00 Build 0)  --><svg xmlns="http://www.w3.org/2000/svg" xmlns:xlink="http://www.w3.org/1999/xlink" version="1.1" id="Layer_1" x="0px" y="0px" viewBox="0 0 80 80" style="enable-background:new 0 0 80 80;" xml:space="preserve" width="80" height="80">
<g>
	
		<rect x="-0.073" y="28.747" transform="matrix(0.7071 -0.7071 0.7071 0.7071 -16.5685 40)" style="fill:#8BB7F0;" width="80.146" height="22.506"/>
	<path style="fill:#4E7AB5;" d="M60.379,4.414l15.207,15.207L19.621,75.586L4.414,60.379L60.379,4.414 M60.379,3L3,60.379L19.621,77   L77,19.621L60.379,3L60.379,3z"/>
</g>
<line style="fill:none;stroke:#4E7AB5;stroke-miterlimit:10;" x1="50.523" y1="14.799" x2="55.626" y2="19.902"/>
<line style="fill:none;stroke:#4E7AB5;stroke-miterlimit:10;" x1="45.419" y1="19.902" x2="48.288" y2="22.771"/>
<line style="fill:none;stroke:#4E7AB5;stroke-miterlimit:10;" x1="55.626" y1="9.695" x2="58.495" y2="12.564"/>
<line style="fill:none;stroke:#4E7AB5;stroke-miterlimit:10;" x1="40.316" y1="25.006" x2="45.419" y2="30.109"/>
<line style="fill:none;stroke:#4E7AB5;stroke-miterlimit:10;" x1="35.213" y1="30.109" x2="38.082" y2="32.978"/>
<line style="fill:none;stroke:#4E7AB5;stroke-miterlimit:10;" x1="25.006" y1="40.316" x2="27.875" y2="43.185"/>
<line style="fill:none;stroke:#4E7AB5;stroke-miterlimit:10;" x1="19.902" y1="45.419" x2="25.006" y2="50.523"/>
<line style="fill:none;stroke:#4E7AB5;stroke-miterlimit:10;" x1="30.109" y1="35.213" x2="35.213" y2="40.316"/>
<line style="fill:none;stroke:#4E7AB5;stroke-miterlimit:10;" x1="14.799" y1="50.523" x2="17.668" y2="53.392"/>
<line style="fill:none;stroke:#4E7AB5;stroke-miterlimit:10;" x1="9.695" y1="55.626" x2="14.799" y2="60.73"/>
</svg>