<?xml version="1.0" encoding="iso-8859-1"?><!-- Generator: Adobe Illustrator 19.2.1, SVG Export Plug-In . SVG Version: 6.00 Build 0)  --><svg xmlns="http://www.w3.org/2000/svg" xmlns:xlink="http://www.w3.org/1999/xlink" version="1.1" id="Layer_1" x="0px" y="0px" viewBox="0 0 30 30" style="enable-background:new 0 0 30 30;" xml:space="preserve" width="30" height="30">
<g>
	
		<rect x="-0.4" y="10.894" transform="matrix(0.7071 -0.7071 0.7071 0.7071 -6.2132 15)" style="fill:#8BB7F0;" width="30.801" height="8.212"/>
	<path style="fill:#4E7AB5;" d="M22.986,1.914l5.099,5.099L7.014,28.086l-5.099-5.099L22.986,1.914 M22.986,0.5L0.5,22.986   L7.014,29.5L29.5,7.014L22.986,0.5L22.986,0.5z"/>
</g>
<line style="fill:none;stroke:#4E7AB5;stroke-miterlimit:10;" x1="19.124" y1="5.124" x2="21.124" y2="7.124"/>
<line style="fill:none;stroke:#4E7AB5;stroke-miterlimit:10;" x1="17.124" y1="7.124" x2="18.248" y2="8.248"/>
<line style="fill:none;stroke:#4E7AB5;stroke-miterlimit:10;" x1="21.124" y1="3.124" x2="22.248" y2="4.248"/>
<line style="fill:none;stroke:#4E7AB5;stroke-miterlimit:10;" x1="15.124" y1="9.124" x2="17.124" y2="11.124"/>
<line style="fill:none;stroke:#4E7AB5;stroke-miterlimit:10;" x1="13.124" y1="11.124" x2="14.248" y2="12.248"/>
<line style="fill:none;stroke:#4E7AB5;stroke-miterlimit:10;" x1="9.124" y1="15.124" x2="10.248" y2="16.248"/>
<line style="fill:none;stroke:#4E7AB5;stroke-miterlimit:10;" x1="7.124" y1="17.124" x2="9.124" y2="19.124"/>
<line style="fill:none;stroke:#4E7AB5;stroke-miterlimit:10;" x1="11.124" y1="13.124" x2="13.124" y2="15.124"/>
<line style="fill:none;stroke:#4E7AB5;stroke-miterlimit:10;" x1="5.124" y1="19.124" x2="6.248" y2="20.248"/>
<line style="fill:none;stroke:#4E7AB5;stroke-miterlimit:10;" x1="3.124" y1="21.124" x2="5.124" y2="23.124"/>
</svg>