<?xml version="1.0" encoding="iso-8859-1"?><!-- Generator: Adobe Illustrator 19.2.1, SVG Export Plug-In . SVG Version: 6.00 Build 0)  --><svg xmlns="http://www.w3.org/2000/svg" xmlns:xlink="http://www.w3.org/1999/xlink" version="1.1" id="Layer_1" x="0px" y="0px" viewBox="0 0 30 30" style="enable-background:new 0 0 30 30;" xml:space="preserve" width="30" height="30">
<g>
	<circle style="fill:#F78F8F;" cx="13.833" cy="4.5" r="3"/>
	<g>
		<path style="fill:#C74343;" d="M13.833,2c1.379,0,2.5,1.122,2.5,2.5S15.212,7,13.833,7s-2.5-1.122-2.5-2.5S12.455,2,13.833,2     M13.833,1c-1.933,0-3.5,1.567-3.5,3.5S11.9,8,13.833,8c1.933,0,3.5-1.567,3.5-3.5S15.766,1,13.833,1L13.833,1z"/>
	</g>
</g>
<g>
	<circle style="fill:#F79494;" cx="5.667" cy="8.583" r="2.417"/>
	<g>
		<path style="fill:#C74343;" d="M5.667,6.667c1.057,0,1.917,0.86,1.917,1.917S6.724,10.5,5.667,10.5    C4.61,10.5,3.75,9.64,3.75,8.583S4.61,6.667,5.667,6.667 M5.667,5.667c-1.611,0-2.917,1.306-2.917,2.917S4.056,11.5,5.667,11.5    c1.611,0,2.917-1.306,2.917-2.917S7.277,5.667,5.667,5.667L5.667,5.667z"/>
	</g>
</g>
<g>
	<circle style="fill:#F7B7B7;" cx="3.333" cy="16.167" r="1.833"/>
	<g>
		<path style="fill:#D46565;" d="M3.333,14.833c0.735,0,1.333,0.598,1.333,1.333c0,0.735-0.598,1.333-1.333,1.333S2,16.902,2,16.167    C2,15.431,2.598,14.833,3.333,14.833 M3.333,13.833C2.045,13.833,1,14.878,1,16.167C1,17.455,2.045,18.5,3.333,18.5    s2.333-1.045,2.333-2.333C5.667,14.878,4.622,13.833,3.333,13.833L3.333,13.833z"/>
	</g>
</g>
<g>
	<circle style="fill:#F7B7B7;" cx="5.667" cy="23.75" r="1.25"/>
	<g>
		<path style="fill:#DE7C7C;" d="M5.667,23c0.414,0,0.75,0.336,0.75,0.75S6.08,24.5,5.667,24.5c-0.414,0-0.75-0.336-0.75-0.75    S5.253,23,5.667,23 M5.667,22c-0.967,0-1.75,0.784-1.75,1.75S4.7,25.5,5.667,25.5s1.75-0.784,1.75-1.75S6.633,22,5.667,22    L5.667,22z"/>
	</g>
</g>
<g>
	<circle style="fill:#F7B7B7;" cx="12.083" cy="27.833" r="0.667"/>
	<g>
		<path style="fill:#F08D8D;" d="M12.083,27.667c0.092,0,0.167,0.075,0.167,0.167S12.175,28,12.083,28    c-0.092,0-0.167-0.075-0.167-0.167S11.991,27.667,12.083,27.667 M12.083,26.667c-0.644,0-1.167,0.522-1.167,1.167    S11.439,29,12.083,29c0.644,0,1.167-0.522,1.167-1.167S12.728,26.667,12.083,26.667L12.083,26.667z"/>
	</g>
</g>
<g>
	<circle style="fill:#F76D6D;" cx="23.75" cy="9.167" r="3.583"/>
	<g>
		<path style="fill:#BA3A3A;" d="M23.75,6.083c1.7,0,3.083,1.383,3.083,3.083S25.45,12.25,23.75,12.25s-3.083-1.383-3.083-3.083    S22.05,6.083,23.75,6.083 M23.75,5.083c-2.255,0-4.083,1.828-4.083,4.083s1.828,4.083,4.083,4.083s4.083-1.828,4.083-4.083    S26.005,5.083,23.75,5.083L23.75,5.083z"/>
	</g>
</g>
<g>
	<circle style="fill:#F75252;" cx="24.333" cy="20.833" r="4.167"/>
	<g>
		<path style="fill:#AB3434;" d="M24.333,17.167c2.022,0,3.667,1.645,3.667,3.667S26.355,24.5,24.333,24.5    c-2.022,0-3.667-1.645-3.667-3.667S22.312,17.167,24.333,17.167 M24.333,16.167c-2.577,0-4.667,2.089-4.667,4.667    s2.089,4.667,4.667,4.667S29,23.411,29,20.833S26.911,16.167,24.333,16.167L24.333,16.167z"/>
	</g>
</g>
</svg>