<?xml version="1.0" encoding="iso-8859-1"?><!-- Generator: Adobe Illustrator 19.2.1, SVG Export Plug-In . SVG Version: 6.00 Build 0)  --><svg xmlns="http://www.w3.org/2000/svg" xmlns:xlink="http://www.w3.org/1999/xlink" version="1.1" id="Layer_1" x="0px" y="0px" viewBox="0 0 80 80" style="enable-background:new 0 0 80 80;" xml:space="preserve" width="80" height="80">
<g>
	<path style="fill:#F78F8F;" d="M37,19.5c-4.687,0-8.5-3.813-8.5-8.5s3.813-8.5,8.5-8.5s8.5,3.813,8.5,8.5S41.687,19.5,37,19.5z"/>
	<g>
		<path style="fill:#C74343;" d="M37,3c4.411,0,8,3.589,8,8s-3.589,8-8,8s-8-3.589-8-8S32.589,3,37,3 M37,2c-4.971,0-9,4.029-9,9    s4.029,9,9,9s9-4.029,9-9S41.971,2,37,2L37,2z"/>
	</g>
</g>
<g>
	<circle style="fill:#F79494;" cx="14" cy="22" r="7.5"/>
	<g>
		<path style="fill:#C74343;" d="M14,15c3.86,0,7,3.14,7,7s-3.14,7-7,7s-7-3.14-7-7S10.14,15,14,15 M14,14c-4.418,0-8,3.582-8,8    s3.582,8,8,8s8-3.582,8-8S18.418,14,14,14L14,14z"/>
	</g>
</g>
<g>
	<circle style="fill:#F7B7B7;" cx="9" cy="43" r="6.5"/>
	<g>
		<path style="fill:#D46565;" d="M9,37c3.308,0,6,2.692,6,6s-2.692,6-6,6s-6-2.692-6-6S5.692,37,9,37 M9,36c-3.866,0-7,3.134-7,7    s3.134,7,7,7c3.866,0,7-3.134,7-7S12.866,36,9,36L9,36z"/>
	</g>
</g>
<g>
	<circle style="fill:#F7B7B7;" cx="15" cy="63" r="4.5"/>
	<g>
		<path style="fill:#DE7C7C;" d="M15,59c2.206,0,4,1.794,4,4c0,2.206-1.794,4-4,4s-4-1.794-4-4C11,60.794,12.794,59,15,59 M15,58    c-2.761,0-5,2.239-5,5s2.239,5,5,5s5-2.239,5-5S17.761,58,15,58L15,58z"/>
	</g>
</g>
<g>
	<circle style="fill:#F7B7B7;" cx="31" cy="75" r="2.5"/>
	<g>
		<path style="fill:#F08D8D;" d="M31,73c1.103,0,2,0.897,2,2s-0.897,2-2,2s-2-0.897-2-2S29.897,73,31,73 M31,72    c-1.657,0-3,1.343-3,3s1.343,3,3,3s3-1.343,3-3S32.657,72,31,72L31,72z"/>
	</g>
</g>
<g>
	<path style="fill:#F76D6D;" d="M65,33.5c-5.79,0-10.5-4.71-10.5-10.5S59.21,12.5,65,12.5S75.5,17.21,75.5,23S70.79,33.5,65,33.5z"/>
	<g>
		<path style="fill:#BA3A3A;" d="M65,13c5.514,0,10,4.486,10,10s-4.486,10-10,10s-10-4.486-10-10S59.486,13,65,13 M65,12    c-6.075,0-11,4.925-11,11s4.925,11,11,11s11-4.925,11-11S71.075,12,65,12L65,12z"/>
	</g>
</g>
<g>
	<path style="fill:#F75252;" d="M66,67.5c-6.341,0-11.5-5.159-11.5-11.5S59.659,44.5,66,44.5S77.5,49.659,77.5,56   S72.341,67.5,66,67.5z"/>
	<g>
		<path style="fill:#AB3434;" d="M66,45c6.065,0,11,4.935,11,11s-4.935,11-11,11s-11-4.935-11-11S59.935,45,66,45 M66,44    c-6.627,0-12,5.373-12,12s5.373,12,12,12s12-5.373,12-12S72.627,44,66,44L66,44z"/>
	</g>
</g>
</svg>