<?xml version="1.0" encoding="iso-8859-1"?><!-- Generator: Adobe Illustrator 19.2.1, SVG Export Plug-In . SVG Version: 6.00 Build 0)  --><svg xmlns="http://www.w3.org/2000/svg" xmlns:xlink="http://www.w3.org/1999/xlink" version="1.1" id="Layer_1" x="0px" y="0px" viewBox="0 0 16 16" style="enable-background:new 0 0 16 16;" xml:space="preserve" width="16" height="16">
<g>
	<circle style="fill:#F78F8F;" cx="7" cy="2" r="1.5"/>
	<g>
		<path style="fill:#C74343;" d="M7,1c0.551,0,1,0.449,1,1S7.551,3,7,3S6,2.551,6,2S6.449,1,7,1 M7,0C5.895,0,5,0.895,5,2    s0.895,2,2,2s2-0.895,2-2S8.105,0,7,0L7,0z"/>
	</g>
</g>
<g>
	<circle style="fill:#F79494;" cx="2.5" cy="4.5" r="1"/>
	<g>
		<path style="fill:#C74343;" d="M2.5,4C2.776,4,3,4.224,3,4.5S2.776,5,2.5,5S2,4.776,2,4.5S2.224,4,2.5,4 M2.5,3    C1.672,3,1,3.672,1,4.5S1.672,6,2.5,6S4,5.328,4,4.5S3.328,3,2.5,3L2.5,3z"/>
	</g>
</g>
<g>
	<circle style="fill:#F7B7B7;" cx="1.333" cy="8.667" r="0.833"/>
	<g>
		<path style="fill:#D46565;" d="M1.333,8.333c0.184,0,0.333,0.15,0.333,0.333S1.517,9,1.333,9C1.15,9,1,8.85,1,8.667    S1.15,8.333,1.333,8.333 M1.333,7.333C0.597,7.333,0,7.93,0,8.667S0.597,10,1.333,10c0.736,0,1.333-0.597,1.333-1.333    S2.07,7.333,1.333,7.333L1.333,7.333z"/>
	</g>
</g>
<g>
	<circle style="fill:#F7B7B7;" cx="3" cy="13" r="0.5"/>
	<path style="fill:#DE7C7C;" d="M3,12c-0.552,0-1,0.448-1,1s0.448,1,1,1s1-0.448,1-1S3.552,12,3,12L3,12z"/>
</g>
<g>
	<circle style="fill:#F7B7B7;" cx="6.333" cy="15.333" r="0.167"/>
	<path style="fill:#F08D8D;" d="M6.333,14.667c-0.368,0-0.667,0.298-0.667,0.667S5.965,16,6.333,16C6.702,16,7,15.702,7,15.333   S6.702,14.667,6.333,14.667L6.333,14.667z"/>
</g>
<g>
	<circle style="fill:#F76D6D;" cx="12.5" cy="4.5" r="2"/>
	<g>
		<path style="fill:#BA3A3A;" d="M12.5,3C13.327,3,14,3.673,14,4.5S13.327,6,12.5,6S11,5.327,11,4.5S11.673,3,12.5,3 M12.5,2    C11.119,2,10,3.119,10,4.5S11.119,7,12.5,7S15,5.881,15,4.5S13.881,2,12.5,2L12.5,2z"/>
	</g>
</g>
<g>
	<circle style="fill:#F75252;" cx="13" cy="12" r="2.5"/>
	<g>
		<path style="fill:#AB3434;" d="M13,10c1.103,0,2,0.897,2,2s-0.897,2-2,2s-2-0.897-2-2S11.897,10,13,10 M13,9c-1.657,0-3,1.343-3,3    s1.343,3,3,3s3-1.343,3-3S14.657,9,13,9L13,9z"/>
	</g>
</g>
</svg>