<?xml version="1.0" encoding="iso-8859-1"?><!-- Generator: Adobe Illustrator 19.2.1, SVG Export Plug-In . SVG Version: 6.00 Build 0)  --><svg xmlns="http://www.w3.org/2000/svg" xmlns:xlink="http://www.w3.org/1999/xlink" version="1.1" id="Layer_1" x="0px" y="0px" viewBox="0 0 40 40" style="enable-background:new 0 0 40 40;" xml:space="preserve" width="40" height="40">
<g>
	<circle style="fill:#F78F8F;" cx="18.5" cy="5.5" r="4"/>
	<g>
		<path style="fill:#C74343;" d="M18.5,2C20.43,2,22,3.57,22,5.5S20.43,9,18.5,9S15,7.43,15,5.5S16.57,2,18.5,2 M18.5,1    C16.015,1,14,3.015,14,5.5s2.015,4.5,4.5,4.5S23,7.985,23,5.5S20.985,1,18.5,1L18.5,1z"/>
	</g>
</g>
<g>
	<circle style="fill:#F79494;" cx="7" cy="11" r="3.5"/>
	<g>
		<path style="fill:#C74343;" d="M7,8c1.654,0,3,1.346,3,3s-1.346,3-3,3s-3-1.346-3-3S5.346,8,7,8 M7,7c-2.209,0-4,1.791-4,4    s1.791,4,4,4s4-1.791,4-4S9.209,7,7,7L7,7z"/>
	</g>
</g>
<g>
	<circle style="fill:#F7B7B7;" cx="4.5" cy="21.5" r="3"/>
	<g>
		<path style="fill:#D46565;" d="M4.5,19C5.879,19,7,20.122,7,21.5S5.879,24,4.5,24S2,22.878,2,21.5S3.121,19,4.5,19 M4.5,18    C2.567,18,1,19.567,1,21.5S2.567,25,4.5,25S8,23.433,8,21.5S6.433,18,4.5,18L4.5,18z"/>
	</g>
</g>
<g>
	<circle style="fill:#F7B7B7;" cx="7.5" cy="31.5" r="2"/>
	<g>
		<path style="fill:#DE7C7C;" d="M7.5,30C8.327,30,9,30.673,9,31.5C9,32.327,8.327,33,7.5,33S6,32.327,6,31.5    C6,30.673,6.673,30,7.5,30 M7.5,29C6.119,29,5,30.119,5,31.5S6.119,34,7.5,34s2.5-1.119,2.5-2.5S8.881,29,7.5,29L7.5,29z"/>
	</g>
</g>
<g>
	<circle style="fill:#F7B7B7;" cx="15.5" cy="37.5" r="1"/>
	<g>
		<path style="fill:#F08D8D;" d="M15.5,37c0.276,0,0.5,0.224,0.5,0.5S15.776,38,15.5,38S15,37.776,15,37.5S15.224,37,15.5,37     M15.5,36c-0.828,0-1.5,0.672-1.5,1.5s0.672,1.5,1.5,1.5s1.5-0.672,1.5-1.5S16.328,36,15.5,36L15.5,36z"/>
	</g>
</g>
<g>
	<circle style="fill:#F76D6D;" cx="32.5" cy="11.5" r="5"/>
	<g>
		<path style="fill:#BA3A3A;" d="M32.5,7c2.481,0,4.5,2.019,4.5,4.5S34.981,16,32.5,16S28,13.981,28,11.5S30.019,7,32.5,7 M32.5,6    C29.462,6,27,8.462,27,11.5s2.462,5.5,5.5,5.5s5.5-2.462,5.5-5.5S35.538,6,32.5,6L32.5,6z"/>
	</g>
</g>
<g>
	<circle style="fill:#F75252;" cx="33" cy="28" r="5.5"/>
	<g>
		<path style="fill:#AB3434;" d="M33,23c2.757,0,5,2.243,5,5s-2.243,5-5,5s-5-2.243-5-5S30.243,23,33,23 M33,22    c-3.314,0-6,2.686-6,6s2.686,6,6,6s6-2.686,6-6S36.314,22,33,22L33,22z"/>
	</g>
</g>
</svg>