<?xml version="1.0" encoding="iso-8859-1"?><!-- Generator: Adobe Illustrator 19.2.1, SVG Export Plug-In . SVG Version: 6.00 Build 0)  --><svg xmlns="http://www.w3.org/2000/svg" xmlns:xlink="http://www.w3.org/1999/xlink" version="1.1" x="0px" y="0px" viewBox="0 0 16 16" style="enable-background:new 0 0 16 16;" xml:space="preserve" width="16" height="16">
<g id="Layer_1">
	<g>
		<polygon style="fill:#DCD5F2;" points="1.5,14.5 1.5,1.5 11.793,1.5 14.5,4.207 14.5,14.5   "/>
		<path style="fill:#8B75A1;" d="M11.586,2L14,4.414V14H2V2H11.586 M12,1H1v14h14V4L12,1L12,1z"/>
	</g>
	<g>
		<rect x="4" y="8" style="fill:#FFFFFF;" width="8" height="6"/>
	</g>
	<g>
		<path style="fill:#8B75A1;" d="M11,1H4v4c0,0.552,0.448,1,1,1h6V1z"/>
	</g>
	<g>
		<path style="fill:#C8D1DB;" d="M6,5.5C5.724,5.5,5.5,5.275,5.5,5V2c0-0.275,0.224-0.5,0.5-0.5h5c0.276,0,0.5,0.225,0.5,0.5v3    c0,0.275-0.224,0.5-0.5,0.5H6z"/>
		<g>
			<path style="fill:#66798F;" d="M11,2v3H6V2H11 M11,1H6C5.448,1,5,1.448,5,2v3c0,0.552,0.448,1,1,1h5c0.552,0,1-0.448,1-1V2     C12,1.448,11.552,1,11,1L11,1z"/>
		</g>
	</g>
	<rect x="5" y="10" style="fill:#C2E8FF;" width="6" height="1"/>
	<rect x="5" y="12" style="fill:#C2E8FF;" width="6" height="1"/>
	<rect x="9" y="3" style="fill:#66798F;" width="1" height="3"/>
</g>
<g id="Layer_2">
</g>
</svg>