<?xml version="1.0" encoding="iso-8859-1"?><!-- Generator: Adobe Illustrator 19.2.1, SVG Export Plug-In . SVG Version: 6.00 Build 0)  --><svg xmlns="http://www.w3.org/2000/svg" xmlns:xlink="http://www.w3.org/1999/xlink" version="1.1" id="Layer_1" x="0px" y="0px" viewBox="0 0 40 40" style="enable-background:new 0 0 40 40;" xml:space="preserve" width="40" height="40">
<g>
	<polygon style="fill:#DCD5F2;" points="2.5,37.5 2.5,2.5 29.486,2.5 37.5,10.515 37.5,37.5  "/>
	<path style="fill:#8B75A1;" d="M29.279,3L37,10.722V37H3V3H29.279 M29.693,2H2v36h36V10.308L29.693,2L29.693,2z"/>
</g>
<g>
	<rect x="6.5" y="19.5" style="fill:#FFFFFF;" width="27" height="18"/>
	<path style="fill:#788B9C;" d="M33,20v17H7V20H33 M34,19H6v19h28V19L34,19z"/>
</g>
<g>
	<path style="fill:#8B75A1;" d="M27,2H9v10c0,1.105,0.895,2,2,2h16V2z"/>
</g>
<g>
	<path style="fill:#C8D1DB;" d="M14,13.5c-0.827,0-1.5-0.673-1.5-1.5V4c0-0.827,0.673-1.5,1.5-1.5h14c0.827,0,1.5,0.673,1.5,1.5v8   c0,0.827-0.673,1.5-1.5,1.5H14z"/>
	<g>
		<path style="fill:#66798F;" d="M28,3c0.551,0,1,0.449,1,1v8c0,0.551-0.449,1-1,1H14c-0.551,0-1-0.449-1-1V4c0-0.551,0.449-1,1-1    H28 M28,2H14c-1.105,0-2,0.895-2,2v8c0,1.105,0.895,2,2,2h14c1.105,0,2-0.895,2-2V4C30,2.895,29.105,2,28,2L28,2z"/>
	</g>
</g>
<rect x="10" y="24" style="fill:#C2E8FF;" width="20" height="1"/>
<rect x="10" y="28" style="fill:#C2E8FF;" width="20" height="1"/>
<rect x="10" y="32" style="fill:#C2E8FF;" width="20" height="1"/>
<rect x="23" y="5" style="fill:#66798F;" width="3" height="6"/>
<g>
	<polygon style="fill:#F5CE85;" points="22.383,25.374 24.164,23.593 27.642,26.621 25.644,28.619 19.951,31.05  "/>
	<path style="fill:#967A44;" d="M24.188,24.276l2.721,2.37l-1.55,1.55L20.902,30.1l1.903-4.441L24.188,24.276 M24.141,22.909   l-2.18,2.18L19,32l6.929-2.959l2.445-2.445L24.141,22.909L24.141,22.909z"/>
</g>
<g>
	<polygon style="fill:#36404D;" points="20.681,28.085 19.002,32.002 22.93,30.325  "/>
</g>
<g>
	<path style="fill:#F78F8F;" d="M35.63,12.116l0.943-0.942c0.435-0.435,1.012-0.674,1.626-0.674c0.615,0,1.192,0.239,1.626,0.674   c0.897,0.896,0.897,2.356,0,3.253l-0.943,0.942L35.63,12.116z"/>
	<g>
		<path style="fill:#C74343;" d="M38.2,11c0.481,0,0.933,0.187,1.273,0.527c0.702,0.702,0.702,1.844,0,2.546l-0.589,0.589    l-2.546-2.546l0.589-0.589C37.267,11.187,37.719,11,38.2,11 M38.2,10c-0.717,0-1.433,0.273-1.98,0.82l-1.296,1.296l3.96,3.96    l1.296-1.296c1.094-1.094,1.094-2.866,0-3.96C39.633,10.273,38.916,10,38.2,10L38.2,10z"/>
	</g>
</g>
<g>
	<path style="fill:#FFEEA3;" d="M26.217,28.046c-0.039-0.065-0.085-0.13-0.138-0.192c-0.23-0.27-0.546-0.441-0.944-0.513   c-0.18-0.837-0.842-1.273-1.451-1.427c-0.106-0.508-0.399-0.863-0.765-1.077l11.054-11.063l3.253,3.253L26.217,28.046z"/>
	<g>
		<path style="fill:#BA9B48;" d="M33.974,14.481l2.546,2.546L26.242,27.313c-0.174-0.147-0.403-0.288-0.702-0.384    c-0.261-0.741-0.846-1.188-1.442-1.408c-0.098-0.287-0.246-0.528-0.428-0.727L33.974,14.481 M33.974,13.066L21.961,25.089    c0,0,0.005,0,0.015,0c0.144,0,1.251,0.04,1.251,1.263c0,0,1.454,0.045,1.454,1.452c1.446,0,1.248,1.238,1.248,1.238l12.004-12.014    L33.974,13.066L33.974,13.066z"/>
	</g>
</g>
<g>
	
		<rect x="34.576" y="12.396" transform="matrix(0.7072 -0.707 0.707 0.7072 0.24 29.9716)" style="fill:#D9E7F5;" width="3.456" height="4.601"/>
	<g>
		<path style="fill:#788B9C;" d="M35.9,12.555l2.546,2.546l-1.737,1.737l-2.546-2.546L35.9,12.555 M35.9,11.14l-3.151,3.151    l3.96,3.96L39.86,15.1L35.9,11.14L35.9,11.14z"/>
	</g>
</g>
</svg>