<?xml version="1.0" encoding="iso-8859-1"?><!-- Generator: Adobe Illustrator 19.2.1, SVG Export Plug-In . SVG Version: 6.00 Build 0)  --><svg xmlns="http://www.w3.org/2000/svg" xmlns:xlink="http://www.w3.org/1999/xlink" version="1.1" id="Layer_1" x="0px" y="0px" viewBox="0 0 80 80" style="enable-background:new 0 0 80 80;" xml:space="preserve" width="80" height="80">
<g>
	<polygon style="fill:#DCD5F2;" points="4.5,75.5 4.5,4.5 59.793,4.5 75.5,20.207 75.5,75.5  "/>
	<path style="fill:#8B75A1;" d="M59.586,5L75,20.414V75H5V5H59.586 M60,4H4v72h72V20L60,4L60,4z"/>
</g>
<g>
	<rect x="12.5" y="38.5" style="fill:#FFFFFF;" width="55" height="37"/>
	<path style="fill:#788B9C;" d="M67,39v36H13V39H67 M68,38H12v38h56V38L68,38z"/>
</g>
<g>
	<path style="fill:#8B75A1;" d="M54,4H18v22c0,1.105,0.895,2,2,2h34V4z"/>
</g>
<g>
	<path style="fill:#C8D1DB;" d="M26,27.5c-0.827,0-1.5-0.673-1.5-1.5V6c0-0.827,0.673-1.5,1.5-1.5h32c0.827,0,1.5,0.673,1.5,1.5v20   c0,0.827-0.673,1.5-1.5,1.5H26z"/>
	<g>
		<path style="fill:#66798F;" d="M58,5c0.551,0,1,0.449,1,1v20c0,0.551-0.449,1-1,1H26c-0.551,0-1-0.449-1-1V6c0-0.551,0.449-1,1-1    H58 M58,4H26c-1.105,0-2,0.895-2,2v20c0,1.105,0.895,2,2,2h32c1.105,0,2-0.895,2-2V6C60,4.895,59.105,4,58,4L58,4z"/>
	</g>
</g>
<rect x="20" y="49" style="fill:#C2E8FF;" width="40" height="1"/>
<rect x="20" y="57" style="fill:#C2E8FF;" width="40" height="1"/>
<rect x="20" y="65" style="fill:#C2E8FF;" width="40" height="1"/>
<rect x="46" y="10" style="fill:#66798F;" width="6" height="12"/>
<g>
	<polygon style="fill:#F5CE85;" points="40.547,50.868 44.713,46.701 52.823,53.766 48.15,58.438 34.945,64.055  "/>
	<path style="fill:#967A44;" d="M44.737,47.385l7.354,6.405l-4.225,4.225L35.89,63.11l5.079-11.957L44.737,47.385 M44.69,46.018   l-4.565,4.565L34,65l14.435-6.14l5.12-5.12L44.69,46.018L44.69,46.018z"/>
</g>
<g>
	<polygon style="fill:#36404D;" points="37.456,56.867 34,65 42.141,61.536  "/>
</g>
<g>
	<path style="fill:#F78F8F;" d="M67.98,23.414l2.362-2.362c1.013-1.013,2.361-1.571,3.793-1.571c1.433,0,2.78,0.559,3.793,1.571   c2.092,2.092,2.092,5.496,0,7.587l-2.362,2.362L67.98,23.414z"/>
	<g>
		<path style="fill:#C74343;" d="M74.135,19.981c1.299,0,2.521,0.506,3.44,1.425S79,23.546,79,24.846    c0,1.299-0.506,2.521-1.425,3.44l-2.008,2.008l-6.88-6.88l2.008-2.008C71.614,20.487,72.836,19.981,74.135,19.981 M74.135,18.981    c-1.501,0-3.002,0.573-4.147,1.718l-2.715,2.715l8.294,8.294l2.715-2.715c2.29-2.29,2.29-6.004,0-8.294v0    C77.137,19.553,75.636,18.981,74.135,18.981L74.135,18.981z"/>
	</g>
</g>
<g>
	<path style="fill:#FFEEA3;" d="M48.85,57.738c-0.088-0.332-0.245-0.688-0.518-1.009c-0.465-0.545-1.148-0.86-2.036-0.941   c-0.223-2.042-1.869-2.829-3.043-3.017c-0.162-1.522-1.138-2.248-2.077-2.534L65.284,26.11l7.587,7.587L48.85,57.738z"/>
	<g>
		<path style="fill:#BA9B48;" d="M65.284,26.818l6.88,6.88L49.027,56.853c-0.087-0.152-0.191-0.302-0.314-0.447    c-0.48-0.563-1.143-0.919-1.977-1.064c-0.367-1.858-1.828-2.699-3.037-2.99c-0.222-1.166-0.887-1.88-1.64-2.29L65.284,26.818     M65.284,25.403l-25.159,25.18c0,0,0.011,0,0.032,0c0.301,0,2.62,0.083,2.62,2.644c0,0,3.045,0.095,3.045,3.04    c3.029,0,2.613,2.593,2.613,2.593l25.142-25.163L65.284,25.403L65.284,25.403z"/>
	</g>
</g>
<g>
	
		<rect x="66.101" y="23.701" transform="matrix(0.7071 -0.7071 0.7071 0.7071 -0.0764 57.9473)" style="fill:#D9E7F5;" width="7.627" height="10.73"/>
	<g>
		<path style="fill:#788B9C;" d="M68.818,23.283l6.88,6.88l-4.686,4.686l-6.88-6.88L68.818,23.283 M68.818,21.869l-6.1,6.1    l8.294,8.294l6.1-6.1L68.818,21.869L68.818,21.869z"/>
	</g>
</g>
</svg>