<?xml version="1.0" encoding="iso-8859-1"?><!-- Generator: Adobe Illustrator 19.2.1, SVG Export Plug-In . SVG Version: 6.00 Build 0)  --><svg xmlns="http://www.w3.org/2000/svg" xmlns:xlink="http://www.w3.org/1999/xlink" version="1.1" id="Layer_1" x="0px" y="0px" viewBox="0 0 30 30" style="enable-background:new 0 0 30 30;" xml:space="preserve" width="30" height="30">
<g>
	<polygon style="fill:#DCD5F2;" points="2.5,27.5 2.5,2.5 21.793,2.5 27.5,8.207 27.5,27.5  "/>
	<path style="fill:#8B75A1;" d="M21.586,3L27,8.414V27H3V3H21.586 M22,2H2v26h26V8L22,2L22,2z"/>
</g>
<g>
	<path style="fill:#FFFFFF;" d="M5.5,27.5V17c0-0.827,0.673-1.5,1.5-1.5h16c0.827,0,1.5,0.673,1.5,1.5v10.5H5.5z"/>
	<path style="fill:#788B9C;" d="M23,16c0.551,0,1,0.449,1,1v10H6V17c0-0.551,0.449-1,1-1H23 M23,15H7c-1.105,0-2,0.895-2,2v11h20V17   C25,15.895,24.105,15,23,15L23,15z"/>
</g>
<g>
	<path style="fill:#8B75A1;" d="M19,2H8C7.448,2,7,2.448,7,3v7c0,0.552,0.448,1,1,1h11c0.552,0,1-0.448,1-1V3   C20,2.448,19.552,2,19,2z"/>
</g>
<g>
	<path style="fill:#C8D1DB;" d="M10,10.5c-0.276,0-0.5-0.225-0.5-0.5V3c0-0.275,0.224-0.5,0.5-0.5h11c0.276,0,0.5,0.225,0.5,0.5v7   c0,0.275-0.224,0.5-0.5,0.5H10z"/>
	<g>
		<path style="fill:#66798F;" d="M21,3v7H10V3H21 M21,2H10C9.448,2,9,2.448,9,3v7c0,0.552,0.448,1,1,1h11c0.552,0,1-0.448,1-1V3    C22,2.448,21.552,2,21,2L21,2z"/>
	</g>
</g>
<rect x="8" y="21" style="fill:#C2E8FF;" width="14" height="1"/>
<rect x="8" y="18" style="fill:#C2E8FF;" width="14" height="1"/>
<rect x="8" y="24" style="fill:#C2E8FF;" width="14" height="1"/>
<rect x="17" y="4" style="fill:#66798F;" width="2" height="5"/>
<g>
	<polygon style="fill:#F5CE85;" points="16.576,21.257 17.762,20.07 20.085,22.094 18.754,23.424 14.951,25.048  "/>
	<path style="fill:#967A44;" d="M17.786,20.754l1.567,1.365l-0.884,0.884l-2.567,1.096l1.095-2.556L17.786,20.754 M17.739,19.387   l-1.585,1.585L14,25.998l5.039-2.152l1.778-1.778L17.739,19.387L17.739,19.387z"/>
</g>
<g>
	<polygon style="fill:#36404D;" points="15.222,23.151 14.002,26 16.858,24.78  "/>
</g>
<g>
	<path style="fill:#F78F8F;" d="M26.288,11.538l0.589-0.59c0.29-0.29,0.676-0.45,1.086-0.45c0.411,0,0.796,0.16,1.086,0.45   s0.45,0.677,0.45,1.087s-0.16,0.796-0.45,1.086l-0.589,0.59L26.288,11.538z"/>
	<g>
		<path style="fill:#C74343;" d="M27.964,10.998c0.277,0,0.537,0.108,0.733,0.304C28.892,11.498,29,11.758,29,12.035    s-0.108,0.537-0.304,0.733l-0.236,0.236l-1.466-1.466l0.236-0.236C27.426,11.106,27.687,10.998,27.964,10.998 M27.964,9.998    c-0.521,0-1.042,0.199-1.44,0.596l-0.943,0.943l2.88,2.88l0.943-0.943c0.795-0.795,0.795-2.085,0-2.88    C29.006,10.197,28.485,9.998,27.964,9.998L27.964,9.998z"/>
	</g>
</g>
<g>
	<path style="fill:#FFEEA3;" d="M19.252,22.896c-0.127-0.148-0.338-0.318-0.678-0.4c-0.157-0.578-0.612-0.899-1.052-1.032   c-0.081-0.304-0.247-0.534-0.457-0.696l7.825-7.831l2.173,2.173l-7.797,7.803C19.262,22.906,19.257,22.9,19.252,22.896z"/>
	<g>
		<path style="fill:#BA9B48;" d="M24.89,13.643l1.466,1.466l-7.118,7.124c-0.08-0.05-0.17-0.096-0.269-0.136    c-0.217-0.51-0.625-0.838-1.053-1.021c-0.045-0.105-0.099-0.202-0.16-0.292L24.89,13.643 M24.89,12.229l-8.736,8.743    c0,0,0.004,0,0.011,0c0.105,0,0.91,0.029,0.91,0.918c0,0,1.057,0.033,1.057,1.056c1.052,0,0.907,0.9,0.907,0.9l8.73-8.738    L24.89,12.229L24.89,12.229z"/>
	</g>
</g>
<g>
	
		<rect x="25.464" y="11.877" transform="matrix(0.7072 -0.707 0.707 0.7072 -1.6999 22.7228)" style="fill:#D9E7F5;" width="2.241" height="3.073"/>
	<g>
		<path style="fill:#788B9C;" d="M26.291,12.242l1.466,1.466l-0.878,0.878l-1.466-1.466L26.291,12.242 M26.291,10.828l-2.292,2.292    l2.88,2.88l2.292-2.292L26.291,10.828L26.291,10.828z"/>
	</g>
</g>
</svg>