<?xml version="1.0" encoding="iso-8859-1"?><!-- Generator: Adobe Illustrator 19.2.1, SVG Export Plug-In . SVG Version: 6.00 Build 0)  --><svg xmlns="http://www.w3.org/2000/svg" xmlns:xlink="http://www.w3.org/1999/xlink" version="1.1" id="Layer_1" x="0px" y="0px" viewBox="0 0 80 80" style="enable-background:new 0 0 80 80;" xml:space="preserve" width="80" height="80">
<g>
	<polygon style="fill:#DCD5F2;" points="4.5,75.5 4.5,4.5 59.793,4.5 75.5,20.207 75.5,75.5  "/>
	<path style="fill:#8B75A1;" d="M59.586,5L75,20.414V75H5V5H59.586 M60,4H4v72h72V20L60,4L60,4z"/>
</g>
<g>
	<rect x="12.5" y="38.5" style="fill:#FFFFFF;" width="55" height="37"/>
	<path style="fill:#788B9C;" d="M67,39v36H13V39H67 M68,38H12v38h56V38L68,38z"/>
</g>
<g>
	<path style="fill:#8B75A1;" d="M54,4H18v22c0,1.105,0.895,2,2,2h34V4z"/>
</g>
<g>
	<path style="fill:#C8D1DB;" d="M26,27.5c-0.827,0-1.5-0.673-1.5-1.5V6c0-0.827,0.673-1.5,1.5-1.5h32c0.827,0,1.5,0.673,1.5,1.5v20   c0,0.827-0.673,1.5-1.5,1.5H26z"/>
	<g>
		<path style="fill:#66798F;" d="M58,5c0.551,0,1,0.449,1,1v20c0,0.551-0.449,1-1,1H26c-0.551,0-1-0.449-1-1V6c0-0.551,0.449-1,1-1    H58 M58,4H26c-1.105,0-2,0.895-2,2v20c0,1.105,0.895,2,2,2h32c1.105,0,2-0.895,2-2V6C60,4.895,59.105,4,58,4L58,4z"/>
	</g>
</g>
<rect x="20" y="49" style="fill:#C2E8FF;" width="40" height="1"/>
<rect x="20" y="57" style="fill:#C2E8FF;" width="40" height="1"/>
<rect x="20" y="65" style="fill:#C2E8FF;" width="40" height="1"/>
<rect x="46" y="10" style="fill:#66798F;" width="6" height="12"/>
</svg>