<?xml version="1.0" encoding="iso-8859-1"?><!-- Generator: Adobe Illustrator 19.2.1, SVG Export Plug-In . SVG Version: 6.00 Build 0)  --><svg xmlns="http://www.w3.org/2000/svg" xmlns:xlink="http://www.w3.org/1999/xlink" version="1.1" id="Layer_1" x="0px" y="0px" viewBox="0 0 80 80" style="enable-background:new 0 0 80 80;" xml:space="preserve" width="80" height="80">
<g>
	<rect x="4.5" y="4.5" style="fill:#FFF9DE;" width="65" height="53"/>
	<g>
		<path style="fill:#BA9B48;" d="M69,5v52H5V5H69 M70,4H4v54h66V4L70,4z"/>
	</g>
</g>
<rect x="10" y="4" style="fill:#FFF9DE;" width="6" height="54"/>
<rect x="34" y="-20" transform="matrix(-1.836970e-16 1 -1 -1.836970e-16 50 -24)" style="fill:#FFF9DE;" width="6" height="66"/>
<rect x="34" y="-8" transform="matrix(-1.836970e-16 1 -1 -1.836970e-16 62 -12)" style="fill:#FFF9DE;" width="6" height="66"/>
<rect x="34" y="4" transform="matrix(-1.836970e-16 1 -1 -1.836970e-16 74 7.105427e-15)" style="fill:#FFF9DE;" width="6" height="66"/>
<rect x="34" y="16" transform="matrix(-1.836970e-16 1 -1 -1.836970e-16 86 12)" style="fill:#FFF9DE;" width="6" height="66"/>
<rect x="22" y="4" style="fill:#FFF9DE;" width="6" height="54"/>
<rect x="34" y="4" style="fill:#FFF9DE;" width="6" height="54"/>
<rect x="46" y="4" style="fill:#FFF9DE;" width="6" height="54"/>
<rect x="58" y="4" style="fill:#FFF9DE;" width="6" height="54"/>
<g>
	<g>
		<path style="fill:#B0C1D4;" d="M30,75.5c-1.93,0-3.5-1.57-3.5-3.5V44c0-1.93,1.57-3.5,3.5-3.5h8.25l4.5-6h16.5l4.5,6H72    c1.93,0,3.5,1.57,3.5,3.5v28c0,1.93-1.57,3.5-3.5,3.5H30z"/>
	</g>
	<g>
		<path style="fill:#66798F;" d="M59,35l4.2,5.6l0.3,0.4H64h8c1.654,0,3,1.346,3,3v28c0,1.654-1.346,3-3,3H30c-1.654,0-3-1.346-3-3    V44c0-1.654,1.346-3,3-3h8h0.5l0.3-0.4L43,35H59 M59.5,34h-17L38,40h-8c-2.209,0-4,1.791-4,4v28c0,2.209,1.791,4,4,4h42    c2.209,0,4-1.791,4-4V44c0-2.209-1.791-4-4-4h-8L59.5,34L59.5,34z"/>
	</g>
</g>
<g>
	<path style="fill:#C2E8FF;" d="M51,69.5c-6.893,0-12.5-5.607-12.5-12.5S44.107,44.5,51,44.5S63.5,50.107,63.5,57   S57.893,69.5,51,69.5z"/>
	<g>
		<path style="fill:#7496C4;" d="M51,45c6.617,0,12,5.383,12,12s-5.383,12-12,12s-12-5.383-12-12S44.383,45,51,45 M51,44    c-7.18,0-13,5.82-13,13s5.82,13,13,13s13-5.82,13-13S58.18,44,51,44L51,44z"/>
	</g>
</g>
<rect x="66" y="46" style="fill:#FFEEA3;" width="4" height="2"/>
</svg>