<?xml version="1.0" encoding="iso-8859-1"?><!-- Generator: Adobe Illustrator 19.2.1, SVG Export Plug-In . SVG Version: 6.00 Build 0)  --><svg xmlns="http://www.w3.org/2000/svg" xmlns:xlink="http://www.w3.org/1999/xlink" version="1.1" id="Layer_1" x="0px" y="0px" viewBox="0 0 16 16" style="enable-background:new 0 0 16 16;" xml:space="preserve" width="16" height="16">
<g>
	<rect x="0.375" y="0.375" style="fill:#FFF9DE;" width="13.25" height="13.25"/>
	<g>
		<path style="fill:#BA9B48;" d="M13.25,0.75v12.5H0.75V0.75H13.25 M14,0H0v14h14V0L14,0z"/>
	</g>
</g>
<rect x="-4.5" y="6.5" transform="matrix(-1.836970e-16 1 -1 -1.836970e-16 9.5 4.5)" style="fill:#FFF9DE;" width="14" height="1"/>
<rect x="-1.5" y="6.5" transform="matrix(-1.836970e-16 1 -1 -1.836970e-16 12.5 1.5)" style="fill:#FFF9DE;" width="14" height="1"/>
<rect x="1.5" y="6.5" transform="matrix(-1.836970e-16 1 -1 -1.836970e-16 15.5 -1.5)" style="fill:#FFF9DE;" width="14" height="1"/>
<rect x="4.5" y="6.5" transform="matrix(-1.836970e-16 1 -1 -1.836970e-16 18.5 -4.5)" style="fill:#FFF9DE;" width="14" height="1"/>
<rect x="0" y="2" transform="matrix(-1 -1.224647e-16 1.224647e-16 -1 14 5)" style="fill:#FFF9DE;" width="14" height="1"/>
<rect x="0" y="5" transform="matrix(-1 -1.224647e-16 1.224647e-16 -1 14 11)" style="fill:#FFF9DE;" width="14" height="1"/>
<rect x="0" y="8" transform="matrix(-1 -1.224647e-16 1.224647e-16 -1 14 17)" style="fill:#FFF9DE;" width="14" height="1"/>
<rect x="0" y="11" transform="matrix(-1 -1.224647e-16 1.224647e-16 -1 14 23)" style="fill:#FFF9DE;" width="14" height="1"/>
<g>
	<g>
		<polygon style="fill:#B0C1D4;" points="4.5,15.5 4.5,7.5 6.75,7.5 8.25,5.5 11.75,5.5 13.25,7.5 15.5,7.5 15.5,15.5   "/>
	</g>
	<g>
		<path style="fill:#66798F;" d="M11.5,6l1.2,1.6L13,8h0.5H15v7H5V8h1.5H7l0.3-0.4L8.5,6H11.5 M12,5H8L6.5,7H4v9h12V7h-2.5L12,5    L12,5z"/>
	</g>
</g>
<g>
	<circle style="fill:#C2E8FF;" cx="10" cy="11" r="2.5"/>
	<g>
		<path style="fill:#7496C4;" d="M10,9c1.103,0,2,0.897,2,2s-0.897,2-2,2s-2-0.897-2-2S8.897,9,10,9 M10,8c-1.657,0-3,1.343-3,3    s1.343,3,3,3s3-1.343,3-3S11.657,8,10,8L10,8z"/>
	</g>
</g>
</svg>