<?xml version="1.0" encoding="iso-8859-1"?><!-- Generator: Adobe Illustrator 19.2.1, SVG Export Plug-In . SVG Version: 6.00 Build 0)  --><svg xmlns="http://www.w3.org/2000/svg" xmlns:xlink="http://www.w3.org/1999/xlink" version="1.1" id="Layer_1" x="0px" y="0px" viewBox="0 0 30 30" style="enable-background:new 0 0 30 30;" xml:space="preserve" width="30" height="30">
<g>
	<rect x="2.5" y="2.5" style="fill:#FFF9DE;" width="25" height="21"/>
	<g>
		<path style="fill:#BA9B48;" d="M27,3v20H3V3H27 M28,2H2v22h26V2L28,2z"/>
	</g>
</g>
<rect x="4" y="2" style="fill:#FFF9DE;" width="2" height="22"/>
<rect x="8" y="2" style="fill:#FFF9DE;" width="2" height="22"/>
<rect x="12" y="2" style="fill:#FFF9DE;" width="2" height="22"/>
<rect x="16" y="2" style="fill:#FFF9DE;" width="2" height="22"/>
<rect x="20" y="2" style="fill:#FFF9DE;" width="2" height="22"/>
<rect x="24" y="2" style="fill:#FFF9DE;" width="2" height="22"/>
<rect x="2" y="4" style="fill:#FFF9DE;" width="26" height="2"/>
<rect x="2" y="8" style="fill:#FFF9DE;" width="26" height="2"/>
<rect x="2" y="12" style="fill:#FFF9DE;" width="26" height="2"/>
<rect x="2" y="16" style="fill:#FFF9DE;" width="26" height="2"/>
<rect x="2" y="20" style="fill:#FFF9DE;" width="26" height="2"/>
<g>
	<g>
		<path style="fill:#B0C1D4;" d="M12,27.5c-0.275,0-0.5-0.224-0.5-0.5V16c0-0.276,0.225-0.5,0.5-0.5h3.75l1.5-2h5.5l1.5,2H28    c0.275,0,0.5,0.224,0.5,0.5v11c0,0.276-0.225,0.5-0.5,0.5H12z"/>
	</g>
	<g>
		<path style="fill:#66798F;" d="M22.5,14l1.2,1.6L24,16h0.5H28v11H12V16h3.5H16l0.3-0.4l1.2-1.6H22.5 M23,13h-6l-1.5,2H12    c-0.552,0-1,0.448-1,1v11c0,0.552,0.448,1,1,1h16c0.552,0,1-0.448,1-1V16c0-0.552-0.448-1-1-1h-3.5L23,13L23,13z"/>
	</g>
</g>
<g>
	<circle style="fill:#C2E8FF;" cx="20" cy="21" r="4.5"/>
	<g>
		<path style="fill:#7496C4;" d="M20,17c2.206,0,4,1.794,4,4s-1.794,4-4,4s-4-1.794-4-4S17.794,17,20,17 M20,16    c-2.761,0-5,2.239-5,5s2.239,5,5,5s5-2.239,5-5S22.761,16,20,16L20,16z"/>
	</g>
</g>
<rect x="25" y="17" style="fill:#FFEEA3;" width="2" height="1"/>
</svg>