<?xml version="1.0" encoding="iso-8859-1"?><!-- Generator: Adobe Illustrator 19.2.1, SVG Export Plug-In . SVG Version: 6.00 Build 0)  --><svg xmlns="http://www.w3.org/2000/svg" xmlns:xlink="http://www.w3.org/1999/xlink" version="1.1" id="Layer_1" x="0px" y="0px" viewBox="0 0 40 40" style="enable-background:new 0 0 40 40;" xml:space="preserve" width="40" height="40">
<g>
	<rect x="3.5" y="3.5" style="fill:#FFF9DE;" width="32" height="26"/>
	<g>
		<path style="fill:#BA9B48;" d="M35,4v25H4V4H35 M36,3H3v27h33V3L36,3z"/>
	</g>
</g>
<rect x="6" y="3" style="fill:#FFF9DE;" width="3" height="27"/>
<rect x="18" y="-9" transform="matrix(-1.836970e-16 1 -1 -1.836970e-16 27 -12)" style="fill:#FFF9DE;" width="3" height="33"/>
<rect x="18" y="-3" transform="matrix(-1.836970e-16 1 -1 -1.836970e-16 33 -6)" style="fill:#FFF9DE;" width="3" height="33"/>
<rect x="18" y="3" transform="matrix(-1.836970e-16 1 -1 -1.836970e-16 39 3.552714e-15)" style="fill:#FFF9DE;" width="3" height="33"/>
<rect x="18" y="9" transform="matrix(-1.836970e-16 1 -1 -1.836970e-16 45 6)" style="fill:#FFF9DE;" width="3" height="33"/>
<rect x="12" y="3" style="fill:#FFF9DE;" width="3" height="27"/>
<rect x="18" y="3" style="fill:#FFF9DE;" width="3" height="27"/>
<rect x="24" y="3" style="fill:#FFF9DE;" width="3" height="27"/>
<rect x="30" y="3" style="fill:#FFF9DE;" width="3" height="27"/>
<g>
	<g>
		<path style="fill:#B0C1D4;" d="M16,38.5c-0.827,0-1.5-0.673-1.5-1.5V23c0-0.827,0.673-1.5,1.5-1.5h4.25l2.25-3h8l2.25,3H37    c0.827,0,1.5,0.673,1.5,1.5v14c0,0.827-0.673,1.5-1.5,1.5H16z"/>
	</g>
	<g>
		<path style="fill:#66798F;" d="M30.25,19l1.95,2.6l0.3,0.4H33h4c0.551,0,1,0.449,1,1v14c0,0.551-0.449,1-1,1H16    c-0.551,0-1-0.449-1-1V23c0-0.551,0.449-1,1-1h4h0.5l0.3-0.4l1.95-2.6H30.25 M30.75,18h-8.5L20,21h-4c-1.105,0-2,0.895-2,2v14    c0,1.105,0.895,2,2,2h21c1.105,0,2-0.895,2-2V23c0-1.105-0.895-2-2-2h-4L30.75,18L30.75,18z"/>
	</g>
</g>
<g>
	<circle style="fill:#C2E8FF;" cx="26.5" cy="29.5" r="6"/>
	<g>
		<path style="fill:#7496C4;" d="M26.5,24c3.033,0,5.5,2.467,5.5,5.5S29.533,35,26.5,35S21,32.533,21,29.5S23.467,24,26.5,24     M26.5,23c-3.59,0-6.5,2.91-6.5,6.5s2.91,6.5,6.5,6.5s6.5-2.91,6.5-6.5S30.09,23,26.5,23L26.5,23z"/>
	</g>
</g>
<rect x="34" y="24" style="fill:#FFEEA3;" width="2" height="1"/>
</svg>