<?xml version="1.0" encoding="iso-8859-1"?><!-- Generator: Adobe Illustrator 19.2.1, SVG Export Plug-In . SVG Version: 6.00 Build 0)  --><svg xmlns="http://www.w3.org/2000/svg" xmlns:xlink="http://www.w3.org/1999/xlink" version="1.1" id="Layer_1" x="0px" y="0px" viewBox="0 0 30 30" style="enable-background:new 0 0 30 30;" xml:space="preserve" width="30" height="30">
<g>
	<g>
		<path style="fill:#DCD5F2;" d="M13.391,28.5l-0.823-3.292l-0.284-0.076c-1.788-0.479-3.417-1.416-4.71-2.71l-0.208-0.208    l-3.251,0.93l-1.609-2.788l2.439-2.358l-0.076-0.284C4.624,16.801,4.5,15.888,4.5,15s0.124-1.801,0.367-2.713l0.076-0.284    L2.504,9.644l1.609-2.788l3.251,0.93l0.208-0.208c1.293-1.294,2.922-2.231,4.71-2.71l0.284-0.076L13.391,1.5h3.219l0.823,3.292    l0.284,0.076c1.789,0.479,3.417,1.416,4.71,2.71l0.208,0.208l3.251-0.93l1.61,2.788l-2.439,2.358l0.076,0.284    C25.376,13.199,25.5,14.112,25.5,15s-0.124,1.801-0.367,2.713l-0.076,0.284l2.439,2.358l-1.609,2.789l-3.251-0.93l-0.208,0.208    c-1.293,1.294-2.922,2.231-4.71,2.71l-0.284,0.076L16.609,28.5H13.391z M15,9c-3.309,0-6,2.691-6,6s2.691,6,6,6s6-2.691,6-6    S18.309,9,15,9z"/>
	</g>
	<g>
		<path style="fill:#8B75A1;" d="M16.219,2l0.657,2.628l0.143,0.571l0.569,0.152c1.703,0.456,3.254,1.348,4.485,2.58l0.416,0.417    l0.566-0.162l2.593-0.742l1.219,2.112l-1.947,1.883l-0.423,0.409l0.152,0.568C24.882,13.286,25,14.155,25,15    c0,0.845-0.118,1.714-0.35,2.584l-0.152,0.568l0.423,0.409l1.947,1.883l-1.219,2.112l-2.593-0.742l-0.566-0.162l-0.416,0.417    c-1.231,1.232-2.782,2.124-4.485,2.58l-0.569,0.152l-0.143,0.571L16.219,28h-2.439l-0.657-2.628l-0.143-0.571l-0.569-0.152    c-1.703-0.456-3.254-1.348-4.485-2.58l-0.416-0.417l-0.566,0.162l-2.593,0.742l-1.219-2.112l1.947-1.883l0.423-0.409L5.35,17.584    C5.118,16.714,5,15.845,5,15s0.118-1.714,0.35-2.584l0.152-0.568l-0.423-0.409L3.132,9.556l1.219-2.112l2.593,0.742l0.566,0.162    l0.416-0.417c1.231-1.232,2.782-2.124,4.485-2.58l0.569-0.152l0.143-0.571L13.781,2H16.219 M15,21.5c3.584,0,6.5-2.916,6.5-6.5    S18.584,8.5,15,8.5c-3.584,0-6.5,2.916-6.5,6.5S11.416,21.5,15,21.5 M17,1h-4l-0.846,3.385c-1.893,0.507-3.589,1.493-4.934,2.839    L3.876,6.268l-2,3.464l2.509,2.426C4.142,13.066,4,14.015,4,15s0.142,1.934,0.384,2.842l-2.509,2.426l2,3.464l3.344-0.956    c1.345,1.346,3.041,2.332,4.934,2.839L13,29h4l0.846-3.385c1.893-0.507,3.59-1.493,4.934-2.839l3.344,0.956l2-3.464l-2.509-2.426    C25.858,16.934,26,15.985,26,15s-0.142-1.934-0.384-2.842l2.509-2.426l-2-3.464l-3.344,0.957    c-1.345-1.346-3.041-2.332-4.934-2.839L17,1L17,1z M15,20.5c-3.038,0-5.5-2.462-5.5-5.5c0-3.038,2.462-5.5,5.5-5.5    s5.5,2.462,5.5,5.5C20.5,18.038,18.038,20.5,15,20.5L15,20.5z"/>
	</g>
</g>
<g>
	<g>
		<path style="fill:#EEEBF7;" d="M15,22.5c-4.136,0-7.5-3.364-7.5-7.5s3.364-7.5,7.5-7.5s7.5,3.364,7.5,7.5S19.136,22.5,15,22.5z     M15,11.5c-1.93,0-3.5,1.57-3.5,3.5s1.57,3.5,3.5,3.5s3.5-1.57,3.5-3.5S16.93,11.5,15,11.5z"/>
	</g>
	<g>
		<path style="fill:#8B75A1;" d="M15,8c3.86,0,7,3.14,7,7s-3.14,7-7,7s-7-3.14-7-7S11.14,8,15,8 M15,19c2.206,0,4-1.794,4-4    s-1.794-4-4-4s-4,1.794-4,4S12.794,19,15,19 M15,7c-4.418,0-8,3.582-8,8c0,4.418,3.582,8,8,8s8-3.582,8-8C23,10.582,19.418,7,15,7    L15,7z M15,18c-1.657,0-3-1.343-3-3c0-1.657,1.343-3,3-3s3,1.343,3,3C18,16.657,16.657,18,15,18L15,18z"/>
	</g>
</g>
</svg>