<?xml version="1.0" encoding="iso-8859-1"?><!-- Generator: Adobe Illustrator 19.2.1, SVG Export Plug-In . SVG Version: 6.00 Build 0)  --><svg xmlns="http://www.w3.org/2000/svg" xmlns:xlink="http://www.w3.org/1999/xlink" version="1.1" id="Layer_1" x="0px" y="0px" viewBox="0 0 40 40" style="enable-background:new 0 0 40 40;" xml:space="preserve" width="40" height="40">
<path style="fill:none;stroke:#4E7AB5;stroke-linecap:round;stroke-miterlimit:10;" d="M10,38.5c0,0-7.5-0.135-7.5-4.111  c0-2.628,4-3.972,4-5.889c0-2.913-5-3.937-5-8c-0.077-8.892,19-19,19-19"/>
<path style="fill:#36404D;" d="M13,36.247L11.753,35l-2.494,2.494c-0.344,0.344-0.344,0.903,0,1.247l0,0  c0.344,0.344,0.903,0.344,1.247,0L13,36.247z"/>
<path style="fill:none;stroke:#8B75A1;stroke-miterlimit:10;" d="M31.657,11.098l-0.633-0.633c-0.769-0.769-2.042-0.674-2.687,0.202  c-1.721,2.337-3.38,5.033-4.233,5.885c-1.601,1.601-4.025-0.269-4.025-0.269"/>
<g>
	<path style="fill:#DCD5F2;" d="M10.573,36.285c0.134-0.97,0.883-4.968,4.46-8.544l6.411-6.411l2.824,7.628l-4.009,4.009   c-3.848,3.847-7.635,4.395-8.533,4.472L10.573,36.285z"/>
	<g>
		<path style="fill:#8B75A1;" d="M21.246,22.234l2.442,6.597l-3.782,3.782c-3.467,3.467-6.87,4.165-7.993,4.303l-0.807-0.807    c0.205-1.218,1.057-4.793,4.28-8.016L21.246,22.234 M21.642,20.424l-6.963,6.963c-4.277,4.277-4.63,9.081-4.63,9.081l1.483,1.483    c0,0,4.48-0.03,9.081-4.63l4.236-4.236L21.642,20.424L21.642,20.424z"/>
	</g>
</g>
<g>
	<path style="fill:#DCD5F2;" d="M30.246,12.534l1.757-1.756C32.851,9.93,33.725,9.5,34.6,9.5c0.616,0,1.573,0.222,2.63,1.278   c0.976,0.976,2.273,2.953,0,5.227l-1.756,1.756L30.246,12.534z"/>
	<g>
		<path style="fill:#8B75A1;" d="M34.6,10L34.6,10c0.522,0,1.34,0.196,2.276,1.132c1.499,1.499,1.499,3.02,0,4.52l-1.402,1.402    l-4.52-4.52l1.402-1.402C33.107,10.381,33.862,10,34.6,10 M34.599,9c-0.875,0-1.884,0.358-2.95,1.425l-2.109,2.109l5.934,5.934    l2.109-2.109c2.949-2.949,0.452-5.482,0-5.934C37.293,10.135,36.158,9,34.599,9L34.599,9z"/>
	</g>
</g>
<g>
	
		<rect x="14.634" y="18.177" transform="matrix(0.7073 -0.7069 0.7069 0.7073 -7.8134 24.8764)" style="fill:#F78F8F;" width="22.994" height="7.391"/>
	<g>
		<path style="fill:#C74343;" d="M31.649,11.839l4.52,4.52L20.613,31.907l-4.52-4.52L31.649,11.839 M31.649,10.425l-16.97,16.962    l5.934,5.934l16.97-16.962L31.649,10.425L31.649,10.425z"/>
	</g>
</g>
<circle style="fill:#8B75A1;" cx="20.483" cy="15.979" r="1"/>
</svg>