<?xml version="1.0" encoding="iso-8859-1"?><!-- Generator: Adobe Illustrator 19.2.1, SVG Export Plug-In . SVG Version: 6.00 Build 0)  --><svg xmlns="http://www.w3.org/2000/svg" xmlns:xlink="http://www.w3.org/1999/xlink" version="1.1" id="Layer_1" x="0px" y="0px" viewBox="0 0 80 80" style="enable-background:new 0 0 80 80;" xml:space="preserve" width="80" height="80">
<path style="fill:none;stroke:#4E7AB5;stroke-linecap:round;stroke-miterlimit:10;" d="M20.5,77.5c0,0-15-0.27-15-8.222  c0-5.256,8-7.945,8-11.778c0-5.826-10-7.874-10-16c-0.153-17.785,38-38,38-38"/>
<path style="fill:#36404D;" d="M26,72.494L23.506,70l-4.989,4.989c-0.689,0.689-0.689,1.806,0,2.494l0,0  c0.689,0.689,1.806,0.689,2.494,0L26,72.494z"/>
<path style="fill:none;stroke:#8B75A1;stroke-miterlimit:10;" d="M63.315,22.196l-1.265-1.265c-1.539-1.539-4.084-1.348-5.374,0.404  c-3.442,4.673-6.761,10.066-8.465,11.77c-3.202,3.202-8.05-0.537-8.05-0.537"/>
<g>
	<path style="fill:#DCD5F2;" d="M20.619,72.75c0.175-1.477,1.491-10.021,9.093-17.623l13.374-13.374l6.031,16.29l-8.245,8.245   c-8.198,8.199-16.245,9.024-17.609,9.105L20.619,72.75z"/>
	<g>
		<path style="fill:#8B75A1;" d="M42.888,42.659l5.649,15.258l-8.018,8.018c-7.696,7.696-15.273,8.79-17.064,8.943l-2.308-2.308    c0.267-1.939,1.766-9.936,8.919-17.089L42.888,42.659 M43.284,40.848L29.359,54.774c-8.555,8.555-9.261,18.161-9.261,18.161    l2.967,2.967c0,0,8.961-0.06,18.161-9.261l8.471-8.471L43.284,40.848L43.284,40.848z"/>
	</g>
</g>
<g>
	<path style="fill:#DCD5F2;" d="M59.786,25.068l3.865-3.865c1.794-1.793,3.66-2.703,5.547-2.703c1.328,0,3.38,0.469,5.614,2.703   c2.083,2.084,4.854,6.306,0,11.16l-3.866,3.866L59.786,25.068z"/>
	<g>
		<path style="fill:#8B75A1;" d="M69.199,19L69.199,19c1.233,0,3.146,0.444,5.259,2.557c1.154,1.154,1.928,2.378,2.299,3.636    c0.683,2.315-0.091,4.608-2.299,6.817l-3.512,3.512L60.493,25.068l3.512-3.512C65.701,19.86,67.449,19,69.199,19 M69.199,18    c-1.75,0-3.767,0.716-5.901,2.849l-4.219,4.219l11.868,11.868l4.219-4.219c5.899-5.899,0.904-10.963,0-11.868    C74.587,20.27,72.316,18,69.199,18L69.199,18z"/>
	</g>
</g>
<g>
	
		<rect x="28.768" y="35.854" transform="matrix(0.7073 -0.7069 0.7069 0.7073 -15.6269 49.7521)" style="fill:#F78F8F;" width="46.988" height="15.783"/>
	<g>
		<path style="fill:#C74343;" d="M63.298,22.264l10.453,10.453L41.226,65.227L30.773,54.774L63.298,22.264 M63.298,20.849    l-33.94,33.925l11.867,11.868l33.94-33.925L63.298,20.849L63.298,20.849z"/>
	</g>
</g>
<circle style="fill:#8B75A1;" cx="40.965" cy="31.958" r="2"/>
</svg>