<?xml version="1.0" encoding="iso-8859-1"?><!-- Generator: Adobe Illustrator 19.2.1, SVG Export Plug-In . SVG Version: 6.00 Build 0)  --><svg xmlns="http://www.w3.org/2000/svg" xmlns:xlink="http://www.w3.org/1999/xlink" version="1.1" id="Layer_1" x="0px" y="0px" viewBox="0 0 30 30" style="enable-background:new 0 0 30 30;" xml:space="preserve" width="30" height="30">
<path style="fill:none;stroke:#4E7AB5;stroke-linecap:round;stroke-miterlimit:10;" d="M8,28.5c0,0-5.5-0.098-5.5-3  c0-1.918,3-2.601,3-4c0-2.126-4-3.035-4-6c-0.056-6.489,14-14,14-14"/>
<path style="fill:none;stroke:#8B75A1;stroke-miterlimit:10;" d="M23.615,8.538l-0.464-0.464c-0.564-0.564-1.497-0.494-1.971,0.148  c-1.262,1.714-2.479,3.691-3.104,4.316c-1.174,1.174-2.692,0-2.692,0"/>
<path style="fill:#36404D;" d="M10.489,26.599l-1.088-1.088l-2.176,2.176c-0.3,0.3-0.3,0.787,0,1.088l0,0c0.3,0.3,0.787,0.3,1.088,0  L10.489,26.599z"/>
<g>
	<path style="fill:#DCD5F2;" d="M8.296,26.962c0.118-0.793,0.701-3.603,3.223-6.125l4.554-4.555l1.97,5.319l-2.879,2.88   c-2.729,2.729-5.381,3.166-6.111,3.236L8.296,26.962z"/>
	<g>
		<path style="fill:#8B75A1;" d="M15.875,17.188l1.587,4.287l-2.653,2.653c-2.397,2.397-4.686,2.942-5.574,3.066l-0.406-0.406    c0.176-0.96,0.82-3.374,3.043-5.597L15.875,17.188 M16.271,15.378l-5.106,5.106c-3.137,3.137-3.396,6.659-3.396,6.659l1.088,1.088    c0,0,3.286-0.022,6.659-3.396l3.106-3.106L16.271,15.378L16.271,15.378z"/>
	</g>
</g>
<g>
	<path style="fill:#DCD5F2;" d="M22.77,9.592l1.193-1.193c0.596-0.596,1.205-0.898,1.81-0.898c0.427,0,1.092,0.156,1.835,0.898   c0.83,0.832,1.505,2.139,0,3.644l-1.193,1.194L22.77,9.592z"/>
	<g>
		<path style="fill:#8B75A1;" d="M25.773,8L25.773,8c0.332,0,0.859,0.13,1.48,0.752c1.316,1.316,0.63,2.307,0,2.937l-0.84,0.84    l-2.937-2.937l0.84-0.84C24.815,8.253,25.305,8,25.773,8 M25.773,7c-0.642,0-1.381,0.263-2.164,1.045l-1.547,1.547l4.351,4.351    l1.547-1.547c2.163-2.163,0.331-4.02,0-4.351C27.748,7.833,26.916,7,25.773,7L25.773,7z"/>
	</g>
</g>
<g>
	
		<rect x="11.265" y="13.863" transform="matrix(0.7073 -0.7069 0.7069 0.7073 -5.8955 18.6425)" style="fill:#F78F8F;" width="16.595" height="5.154"/>
	<g>
		<path style="fill:#C74343;" d="M23.609,9.459l2.937,2.937l-11.03,11.025l-2.937-2.937L23.609,9.459 M23.609,8.045L11.165,20.484    l4.351,4.351l12.444-12.439L23.609,8.045L23.609,8.045z"/>
	</g>
</g>
<circle style="fill:#8B75A1;" cx="15.385" cy="12.154" r="0.769"/>
</svg>