<?xml version="1.0" encoding="iso-8859-1"?><!-- Generator: Adobe Illustrator 19.2.1, SVG Export Plug-In . SVG Version: 6.00 Build 0)  --><svg xmlns="http://www.w3.org/2000/svg" xmlns:xlink="http://www.w3.org/1999/xlink" version="1.1" id="Layer_1" x="0px" y="0px" viewBox="0 0 16 16" style="enable-background:new 0 0 16 16;" xml:space="preserve" width="16" height="16">
<path style="fill:none;stroke:#4E7AB5;stroke-linecap:round;stroke-miterlimit:10;" d="M3.5,15.5c0,0-2-0.365-2-2  c0-1.081,1-1.212,1-2c0-1.198-2-2.329-2-4c-0.032-3.657,8-7,8-7"/>
<line style="fill:none;stroke:#36404D;stroke-linecap:round;stroke-miterlimit:10;" x1="3.5" y1="15.5" x2="5.113" y2="13.887"/>
<path style="fill:none;stroke:#8B75A1;stroke-miterlimit:10;" d="M12.526,3.993l-0.299-0.299c-0.364-0.364-0.966-0.319-1.271,0.096  c-0.814,1.106-2.355,2.709-2.745,3.148C7.486,7.752,6.7,7.083,6.7,7.083"/>
<g>
	<path style="fill:#DCD5F2;" d="M4.038,14.524c0.126-0.596,0.594-2.256,2.1-3.762l0.543-0.543l2.101,2.1l-0.544,0.543   c-1.616,1.616-3.196,2.016-3.751,2.11L4.038,14.524z"/>
	<g>
		<path style="fill:#8B75A1;" d="M6.681,10.926l1.393,1.393l-0.19,0.19c-1.336,1.336-2.607,1.779-3.23,1.924l-0.065-0.065    c0.18-0.678,0.67-2.02,1.902-3.252L6.681,10.926 M6.681,9.512l-0.897,0.897C3.76,12.433,3.5,14.694,3.5,14.694L4.306,15.5    c0,0,2.108-0.107,4.285-2.284l0.897-0.897L6.681,9.512L6.681,9.512z"/>
	</g>
</g>
<g>
	<path style="fill:#DCD5F2;" d="M11.986,4.917l0.89-0.89c0.35-0.35,0.7-0.527,1.042-0.527c0.351,0,0.707,0.177,1.058,0.527   c0.697,0.697,0.697,1.404,0,2.101l-0.889,0.89L11.986,4.917z"/>
	<g>
		<path style="fill:#8B75A1;" d="M13.918,4c0.147,0,0.389,0.066,0.704,0.381c0.578,0.578,0.418,0.975,0,1.393L14.086,6.31    l-1.393-1.393l0.536-0.536C13.482,4.128,13.714,4,13.918,4 M13.918,3c-0.414,0-0.891,0.169-1.396,0.674l-1.243,1.243l2.807,2.807    l1.243-1.243c1.395-1.395,0.214-2.594,0-2.807C15.193,3.537,14.655,3,13.918,3L13.918,3z"/>
	</g>
</g>
<g>
	
		<rect x="6.323" y="7.032" transform="matrix(0.7073 -0.7069 0.7069 0.7073 -2.9525 9.9048)" style="fill:#F78F8F;" width="8.322" height="2.97"/>
	<g>
		<path style="fill:#C74343;" d="M12.377,5.233l1.393,1.393l-5.179,5.176l-1.393-1.393L12.377,5.233 M12.377,3.819l-6.593,6.59    l2.807,2.807l6.593-6.59L12.377,3.819L12.377,3.819z"/>
	</g>
</g>
<circle style="fill:#8B75A1;" cx="6.806" cy="6.806" r="0.806"/>
</svg>