<?xml version="1.0" encoding="iso-8859-1"?><!-- Generator: Adobe Illustrator 19.2.1, SVG Export Plug-In . SVG Version: 6.00 Build 0)  --><svg xmlns="http://www.w3.org/2000/svg" xmlns:xlink="http://www.w3.org/1999/xlink" version="1.1" x="0px" y="0px" viewBox="0 0 16 16" style="enable-background:new 0 0 16 16;" xml:space="preserve" width="16" height="16">
<g id="Layer_1">
	<g>
		<rect x="1.5" y="1.5" style="fill:#FFC49C;" width="3" height="3"/>
		<g>
			<path style="fill:#A16A4A;" d="M4,2v2H2V2H4 M5,1H1v4h4V1L5,1z"/>
		</g>
	</g>
	<g>
		<rect x="1.5" y="6.5" style="fill:#BAE0BD;" width="3" height="3"/>
		<g>
			<path style="fill:#5E9C76;" d="M4,7v2H2V7H4 M5,6H1v4h4V6L5,6z"/>
		</g>
	</g>
	<polygon style="fill:#A16A4A;" points="3.414,2.985 3,3.369 3.569,4 4,4 4,3.53  "/>
	<polygon style="fill:#E09367;" points="3.693,4 2,4 2,3.5 2.667,2.833  "/>
	<g>
		<rect x="6.5" y="6.5" style="fill:#FFC49C;" width="3" height="3"/>
		<g>
			<path style="fill:#A16A4A;" d="M9,7v2H7V7H9 M10,6H6v4h4V6L10,6z"/>
		</g>
	</g>
	<polygon style="fill:#A16A4A;" points="8.414,7.985 8,8.369 8.569,9 9,9 9,8.53  "/>
	<polygon style="fill:#E09367;" points="8.693,9 7,9 7,8.5 7.667,7.833  "/>
	<path style="fill:#FFFFFF;" d="M3,8L2.709,7.514C2.573,7.288,2.736,7,3,7h0c0.264,0,0.427,0.288,0.291,0.514L3,8z"/>
	<path style="fill:#FFFFFF;" d="M3,8l0.291,0.486C3.427,8.712,3.264,9,3,9h0C2.736,9,2.573,8.712,2.709,8.486L3,8z"/>
	<path style="fill:#FFFFFF;" d="M3,8L2.434,8.01C2.17,8.014,2.002,7.729,2.134,7.5l0,0c0.132-0.229,0.463-0.226,0.591,0.005L3,8z"/>
	<path style="fill:#FFFFFF;" d="M3,8l0.566-0.01c0.264-0.004,0.432,0.281,0.3,0.51l0,0C3.734,8.729,3.403,8.726,3.275,8.495L3,8z"/>
	<path style="fill:#FFFFFF;" d="M3,8L2.725,8.495C2.597,8.726,2.266,8.729,2.134,8.5l0,0c-0.132-0.229,0.036-0.514,0.3-0.51L3,8z"/>
	<path style="fill:#FFFFFF;" d="M3,8l0.275-0.495C3.403,7.274,3.734,7.271,3.866,7.5l0,0c0.132,0.229-0.036,0.514-0.3,0.51L3,8z"/>
	<circle style="fill:#FFEEA3;" cx="3" cy="8" r="0.4"/>
	<g>
		<rect x="11.5" y="11.5" style="fill:#BAE0BD;" width="3" height="3"/>
		<g>
			<path style="fill:#5E9C76;" d="M14,12v2h-2v-2H14 M15,11h-4v4h4V11L15,11z"/>
		</g>
	</g>
	<path style="fill:#FFFFFF;" d="M13,13l-0.291-0.486C12.573,12.288,12.736,12,13,12h0c0.264,0,0.427,0.288,0.291,0.514L13,13z"/>
	<path style="fill:#FFFFFF;" d="M13,13l0.291,0.486C13.427,13.712,13.264,14,13,14h0c-0.264,0-0.427-0.288-0.291-0.514L13,13z"/>
	<path style="fill:#FFFFFF;" d="M13,13l-0.566,0.01c-0.264,0.004-0.432-0.281-0.3-0.51l0,0c0.132-0.229,0.463-0.226,0.591,0.005   L13,13z"/>
	<path style="fill:#FFFFFF;" d="M13,13l0.566-0.01c0.264-0.004,0.432,0.281,0.3,0.51l0,0c-0.132,0.229-0.463,0.226-0.591-0.005   L13,13z"/>
	<path style="fill:#FFFFFF;" d="M13,13l-0.275,0.495c-0.128,0.231-0.459,0.234-0.591,0.005l0,0c-0.132-0.229,0.036-0.514,0.3-0.51   L13,13z"/>
	<path style="fill:#FFFFFF;" d="M13,13l0.275-0.495c0.128-0.231,0.459-0.234,0.591-0.005l0,0c0.132,0.229-0.036,0.514-0.3,0.51   L13,13z"/>
	<circle style="fill:#FFEEA3;" cx="13" cy="13" r="0.4"/>
	<g>
		<rect x="6.5" y="1.5" style="fill:#8BB7F0;" width="3" height="3"/>
		<g>
			<path style="fill:#4E7AB5;" d="M9,2v2H7V2H9 M10,1H6v4h4V1L10,1z"/>
		</g>
	</g>
	<g>
		
			<rect x="7.293" y="2.293" transform="matrix(0.7071 -0.7071 0.7071 0.7071 0.2218 6.5355)" style="fill:#FFEEA3;" width="1.414" height="1.414"/>
	</g>
	<g>
		<rect x="7.293" y="2.293" style="fill:#FFEEA3;" width="1.414" height="1.414"/>
	</g>
	<circle style="fill:#FFFFFF;" cx="8" cy="3" r="0.4"/>
	<g>
		<rect x="11.5" y="6.5" style="fill:#8BB7F0;" width="3" height="3"/>
		<g>
			<path style="fill:#4E7AB5;" d="M14,7v2h-2V7H14 M15,6h-4v4h4V6L15,6z"/>
		</g>
	</g>
	<g>
		
			<rect x="12.293" y="7.293" transform="matrix(0.7071 -0.7071 0.7071 0.7071 -1.8492 11.5355)" style="fill:#FFEEA3;" width="1.414" height="1.414"/>
	</g>
	<g>
		<rect x="12.293" y="7.293" style="fill:#FFEEA3;" width="1.414" height="1.414"/>
	</g>
	<circle style="fill:#FFFFFF;" cx="13" cy="8" r="0.4"/>
	<g>
		<rect x="1.5" y="11.5" style="fill:#8BB7F0;" width="3" height="3"/>
		<g>
			<path style="fill:#4E7AB5;" d="M4,12v2H2v-2H4 M5,11H1v4h4V11L5,11z"/>
		</g>
	</g>
	<g>
		
			<rect x="2.293" y="12.293" transform="matrix(0.7071 -0.7071 0.7071 0.7071 -8.3137 5.9289)" style="fill:#FFEEA3;" width="1.414" height="1.414"/>
	</g>
	<g>
		<rect x="2.293" y="12.293" style="fill:#FFEEA3;" width="1.414" height="1.414"/>
	</g>
	<circle style="fill:#FFFFFF;" cx="3" cy="13" r="0.4"/>
	<g>
		<rect x="11.5" y="1.5" style="fill:#C2E8FF;" width="3" height="3"/>
		<g>
			<path style="fill:#7496C4;" d="M14,2v2h-2V2H14 M15,1h-4v4h4V1L15,1z"/>
		</g>
	</g>
	<path style="fill:#FFFFFF;" d="M13.6,3.2c-0.009,0-0.017,0.005-0.026,0.005c-0.05-0.116-0.164-0.197-0.299-0.197   c-0.041,0-0.079,0.009-0.115,0.023C13.096,2.896,12.96,2.8,12.8,2.8c-0.221,0-0.4,0.179-0.4,0.4c-0.221,0-0.4,0.179-0.4,0.4   C12,3.821,12.179,4,12.4,4c0.221,0,0.995,0,1.2,0C13.821,4,14,3.821,14,3.6C14,3.379,13.821,3.2,13.6,3.2z"/>
	<g>
		<rect x="6.5" y="11.5" style="fill:#C2E8FF;" width="3" height="3"/>
		<g>
			<path style="fill:#7496C4;" d="M9,12v2H7v-2H9 M10,11H6v4h4V11L10,11z"/>
		</g>
	</g>
	<path style="fill:#FFFFFF;" d="M8.6,13.2c-0.009,0-0.017,0.005-0.026,0.005c-0.05-0.116-0.164-0.197-0.299-0.197   c-0.041,0-0.079,0.009-0.115,0.023C8.096,12.896,7.96,12.8,7.8,12.8c-0.221,0-0.4,0.179-0.4,0.4c-0.221,0-0.4,0.179-0.4,0.4   C7,13.821,7.179,14,7.4,14s0.995,0,1.2,0C8.821,14,9,13.821,9,13.6C9,13.379,8.821,13.2,8.6,13.2z"/>
</g>
<g id="Layer_2">
</g>
</svg>