<?xml version="1.0" encoding="iso-8859-1"?><!-- Generator: Adobe Illustrator 19.2.1, SVG Export Plug-In . SVG Version: 6.00 Build 0)  --><svg xmlns="http://www.w3.org/2000/svg" xmlns:xlink="http://www.w3.org/1999/xlink" version="1.1" id="Layer_1" x="0px" y="0px" viewBox="0 0 40 40" style="enable-background:new 0 0 40 40;" xml:space="preserve" width="40" height="40">
<g>
	<rect x="28.5" y="1.5" style="fill:#C2E8FF;" width="10" height="10"/>
	<g>
		<path style="fill:#7496C4;" d="M38,2v9h-9V2H38 M39,1H28v11h11V1L39,1z"/>
	</g>
</g>
<circle style="fill:#FFFFFF;" cx="36" cy="4" r="1"/>
<g>
	<rect x="2.5" y="1.5" style="fill:#FFC49C;" width="10" height="10"/>
	<g>
		<path style="fill:#A16A4A;" d="M12,2v9H3V2H12 M13,1H2v11h11V1L13,1z"/>
	</g>
</g>
<g>
	<rect x="2.5" y="27.5" style="fill:#BAE0BD;" width="10" height="10"/>
	<g>
		<path style="fill:#5E9C76;" d="M12,28v9H3v-9H12 M13,27H2v11h11V27L13,27z"/>
	</g>
</g>
<g>
	<rect x="2.5" y="14.5" style="fill:#8BB7F0;" width="10" height="10"/>
	<g>
		<path style="fill:#4E7AB5;" d="M12,15v9H3v-9H12 M13,14H2v11h11V14L13,14z"/>
	</g>
</g>
<g>
	
		<rect x="5.025" y="17.025" transform="matrix(0.7071 -0.7071 0.7071 0.7071 -11.5919 11.0147)" style="fill:#FFEEA3;" width="4.95" height="4.95"/>
</g>
<g>
	<rect x="5.025" y="17.025" style="fill:#FFEEA3;" width="4.95" height="4.95"/>
</g>
<polygon style="fill:#A16A4A;" points="9.363,6.432 7.5,8.161 10.062,11 12,11 12,8.886 "/>
<circle style="fill:#FFFFFF;" cx="10" cy="4" r="1"/>
<polygon style="fill:#E09367;" points="10.617,11 3,11 3,8.75 6,5.75 "/>
<g>
	<rect x="15.5" y="14.5" style="fill:#FFC49C;" width="10" height="10"/>
	<g>
		<path style="fill:#A16A4A;" d="M25,15v9h-9v-9H25 M26,14H15v11h11V14L26,14z"/>
	</g>
</g>
<polygon style="fill:#A16A4A;" points="22.363,19.432 20.5,21.161 23.062,24 25,24 25,21.886 "/>
<circle style="fill:#FFFFFF;" cx="23" cy="17" r="1"/>
<polygon style="fill:#E09367;" points="23.617,24 16,24 16,21.75 19,18.75 "/>
<path style="fill:#FFFFFF;" d="M7.5,32.5l-1.02-1.699C6.005,30.008,6.576,29,7.5,29h0c0.924,0,1.495,1.008,1.02,1.801L7.5,32.5z"/>
<path style="fill:#FFFFFF;" d="M7.5,32.5l1.02,1.699C8.995,34.992,8.424,36,7.5,36h0c-0.924,0-1.495-1.008-1.02-1.801L7.5,32.5z"/>
<path style="fill:#FFFFFF;" d="M7.5,32.5l-1.981,0.033c-0.924,0.016-1.512-0.983-1.05-1.783l0,0c0.462-0.8,1.621-0.791,2.069,0.017  L7.5,32.5z"/>
<path style="fill:#FFFFFF;" d="M7.5,32.5l1.981-0.033c0.924-0.016,1.512,0.983,1.05,1.783h0c-0.462,0.8-1.621,0.791-2.069-0.017  L7.5,32.5z"/>
<path style="fill:#FFFFFF;" d="M7.5,32.5l-0.962,1.733C6.09,35.041,4.931,35.05,4.469,34.25h0c-0.462-0.8,0.126-1.799,1.05-1.783  L7.5,32.5z"/>
<path style="fill:#FFFFFF;" d="M7.5,32.5l0.962-1.733c0.449-0.808,1.607-0.818,2.069-0.017l0,0c0.462,0.8-0.126,1.799-1.05,1.783  L7.5,32.5z"/>
<circle style="fill:#FFEEA3;" cx="7.5" cy="32.5" r="1.5"/>
<g>
	<rect x="28.5" y="27.5" style="fill:#BAE0BD;" width="10" height="10"/>
	<g>
		<path style="fill:#5E9C76;" d="M38,28v9h-9v-9H38 M39,27H28v11h11V27L39,27z"/>
	</g>
</g>
<path style="fill:#FFFFFF;" d="M33.5,32.5l-1.02-1.699C32.005,30.008,32.576,29,33.5,29h0c0.924,0,1.495,1.008,1.02,1.801L33.5,32.5  z"/>
<path style="fill:#FFFFFF;" d="M33.5,32.5l1.02,1.699C34.995,34.992,34.424,36,33.5,36h0c-0.924,0-1.495-1.008-1.02-1.801L33.5,32.5  z"/>
<path style="fill:#FFFFFF;" d="M33.5,32.5l-1.981,0.033c-0.924,0.016-1.512-0.983-1.05-1.783l0,0c0.462-0.8,1.621-0.791,2.069,0.017  L33.5,32.5z"/>
<path style="fill:#FFFFFF;" d="M33.5,32.5l1.981-0.033c0.924-0.016,1.512,0.983,1.05,1.783h0c-0.462,0.8-1.621,0.791-2.069-0.017  L33.5,32.5z"/>
<path style="fill:#FFFFFF;" d="M33.5,32.5l-0.962,1.733c-0.449,0.808-1.607,0.818-2.069,0.017h0c-0.462-0.8,0.126-1.799,1.05-1.783  L33.5,32.5z"/>
<path style="fill:#FFFFFF;" d="M33.5,32.5l0.962-1.733c0.449-0.808,1.607-0.818,2.069-0.017l0,0c0.462,0.8-0.126,1.799-1.05,1.783  L33.5,32.5z"/>
<circle style="fill:#FFEEA3;" cx="33.5" cy="32.5" r="1.5"/>
<circle style="fill:#FFFFFF;" cx="7.5" cy="19.5" r="1.5"/>
<g>
	<rect x="28.5" y="14.5" style="fill:#8BB7F0;" width="10" height="10"/>
	<g>
		<path style="fill:#4E7AB5;" d="M38,15v9h-9v-9H38 M39,14H28v11h11V14L39,14z"/>
	</g>
</g>
<g>
	
		<rect x="31.025" y="17.025" transform="matrix(0.7071 -0.7071 0.7071 0.7071 -3.9767 29.3995)" style="fill:#FFEEA3;" width="4.95" height="4.95"/>
</g>
<g>
	<rect x="31.025" y="17.025" style="fill:#FFEEA3;" width="4.95" height="4.95"/>
</g>
<circle style="fill:#FFFFFF;" cx="33.5" cy="19.5" r="1.5"/>
<g>
	<rect x="15.5" y="1.5" style="fill:#8BB7F0;" width="10" height="10"/>
	<g>
		<path style="fill:#4E7AB5;" d="M25,2v9h-9V2H25 M26,1H15v11h11V1L26,1z"/>
	</g>
</g>
<g>
	
		<rect x="18.025" y="4.025" transform="matrix(0.7071 -0.7071 0.7071 0.7071 1.4081 16.3995)" style="fill:#FFEEA3;" width="4.95" height="4.95"/>
</g>
<g>
	<rect x="18.025" y="4.025" style="fill:#FFEEA3;" width="4.95" height="4.95"/>
</g>
<circle style="fill:#FFFFFF;" cx="20.5" cy="6.5" r="1.5"/>
<circle style="fill:#FFFFFF;" cx="36" cy="9" r="1"/>
<circle style="fill:#FFFFFF;" cx="31.5" cy="8.5" r="1.5"/>
<circle style="fill:#FFFFFF;" cx="32.5" cy="7.5" r="1.5"/>
<circle style="fill:#FFFFFF;" cx="34.5" cy="8.5" r="1.5"/>
<rect x="31.5" y="8" style="fill:#FFFFFF;" width="3" height="2"/>
<rect x="34.5" y="9" transform="matrix(-1 -1.224647e-16 1.224647e-16 -1 70.5 19)" style="fill:#FFFFFF;" width="1.5" height="1"/>
<g>
	<rect x="15.5" y="27.5" style="fill:#C2E8FF;" width="10" height="10"/>
	<g>
		<path style="fill:#7496C4;" d="M25,28v9h-9v-9H25 M26,27H15v11h11V27L26,27z"/>
	</g>
</g>
<circle style="fill:#FFFFFF;" cx="23" cy="30" r="1"/>
<circle style="fill:#FFFFFF;" cx="23" cy="35" r="1"/>
<circle style="fill:#FFFFFF;" cx="18.5" cy="34.5" r="1.5"/>
<circle style="fill:#FFFFFF;" cx="19.5" cy="33.5" r="1.5"/>
<circle style="fill:#FFFFFF;" cx="21.5" cy="34.5" r="1.5"/>
<rect x="18.5" y="34" style="fill:#FFFFFF;" width="3" height="2"/>
<rect x="21.5" y="35" transform="matrix(-1 -1.224647e-16 1.224647e-16 -1 44.5 71)" style="fill:#FFFFFF;" width="1.5" height="1"/>
</svg>