<?xml version="1.0" encoding="iso-8859-1"?><!-- Generator: Adobe Illustrator 19.2.1, SVG Export Plug-In . SVG Version: 6.00 Build 0)  --><svg xmlns="http://www.w3.org/2000/svg" xmlns:xlink="http://www.w3.org/1999/xlink" version="1.1" id="Layer_1" x="0px" y="0px" viewBox="0 0 80 80" style="enable-background:new 0 0 80 80;" xml:space="preserve" width="80" height="80">
<g>
	<rect x="3.5" y="3.5" style="fill:#FFC49C;" width="21" height="21"/>
	<g>
		<path style="fill:#A16A4A;" d="M24,4v20H4V4H24 M25,3H3v22h22V3L25,3z"/>
	</g>
</g>
<g>
	<rect x="3.5" y="55.5" style="fill:#BAE0BD;" width="21" height="21"/>
	<g>
		<path style="fill:#5E9C76;" d="M24,56v20H4V56H24 M25,55H3v22h22V55L25,55z"/>
	</g>
</g>
<g>
	<rect x="3.5" y="29.5" style="fill:#8BB7F0;" width="21" height="21"/>
	<g>
		<path style="fill:#4E7AB5;" d="M24,30v20H4V30H24 M25,29H3v22h22V29L25,29z"/>
	</g>
</g>
<g>
	
		<rect x="9.05" y="35.05" transform="matrix(0.7071 -0.7071 0.7071 0.7071 -24.1838 21.6152)" style="fill:#FFEEA3;" width="9.899" height="9.899"/>
</g>
<g>
	<rect x="9" y="35" style="fill:#FFEEA3;" width="10" height="10"/>
</g>
<polygon style="fill:#A16A4A;" points="18,14 14,18 18,24 24,24 24,20 "/>
<circle style="fill:#FFFFFF;" cx="19" cy="9" r="2"/>
<polygon style="fill:#E09367;" points="21,24 4,24 4,20 11,13 "/>
<g>
	<rect x="29.5" y="29.5" style="fill:#FFC49C;" width="21" height="21"/>
	<g>
		<path style="fill:#A16A4A;" d="M50,30v20H30V30H50 M51,29H29v22h22V29L51,29z"/>
	</g>
</g>
<polygon style="fill:#A16A4A;" points="44,40 40,44 45,50 50,50 50,46 "/>
<circle style="fill:#FFFFFF;" cx="45" cy="35" r="2"/>
<polygon style="fill:#E09367;" points="47,50 30,50 30,46 37,39 "/>
<path style="fill:#FFFFFF;" d="M14,66l-2.236-3.399C10.722,61.016,11.973,59,14,59h0c2.027,0,3.278,2.016,2.236,3.601L14,66z"/>
<path style="fill:#FFFFFF;" d="M14,66l2.236,3.399C17.278,70.984,16.027,73,14,73h0c-2.027,0-3.278-2.016-2.236-3.601L14,66z"/>
<path style="fill:#FFFFFF;" d="M14,66l-4.345,0.067C7.629,66.098,6.34,64.101,7.353,62.5l0,0c1.013-1.601,3.554-1.581,4.537,0.035  L14,66z"/>
<path style="fill:#FFFFFF;" d="M14,66l4.345-0.067c2.026-0.031,3.315,1.966,2.302,3.567h0c-1.013,1.601-3.554,1.581-4.537-0.035  L14,66z"/>
<path style="fill:#FFFFFF;" d="M14,66l-2.109,3.465c-0.984,1.616-3.524,1.636-4.537,0.035h0c-1.013-1.601,0.275-3.598,2.302-3.567  L14,66z"/>
<path style="fill:#FFFFFF;" d="M14,66l2.109-3.465c0.984-1.616,3.524-1.636,4.537-0.035l0,0c1.013,1.601-0.275,3.598-2.302,3.567  L14,66z"/>
<circle style="fill:#FFEEA3;" cx="14" cy="66" r="3"/>
<g>
	<rect x="55.5" y="55.5" style="fill:#BAE0BD;" width="21" height="21"/>
	<g>
		<path style="fill:#5E9C76;" d="M76,56v20H56V56H76 M77,55H55v22h22V55L77,55z"/>
	</g>
</g>
<path style="fill:#FFFFFF;" d="M66,66l-2.236-3.399C62.722,61.016,63.973,59,66,59h0c2.027,0,3.278,2.016,2.236,3.601L66,66z"/>
<path style="fill:#FFFFFF;" d="M66,66l2.236,3.399C69.278,70.984,68.027,73,66,73h0c-2.027,0-3.278-2.016-2.236-3.601L66,66z"/>
<path style="fill:#FFFFFF;" d="M66,66l-4.345,0.067c-2.026,0.031-3.315-1.966-2.302-3.567l0,0c1.013-1.601,3.554-1.581,4.537,0.035  L66,66z"/>
<path style="fill:#FFFFFF;" d="M66,66l4.345-0.067c2.026-0.031,3.315,1.966,2.302,3.567h0c-1.013,1.601-3.554,1.581-4.537-0.035  L66,66z"/>
<path style="fill:#FFFFFF;" d="M66,66l-2.109,3.465c-0.984,1.616-3.524,1.636-4.537,0.035h0c-1.013-1.601,0.275-3.598,2.302-3.567  L66,66z"/>
<path style="fill:#FFFFFF;" d="M66,66l2.109-3.465c0.984-1.616,3.524-1.636,4.537-0.035l0,0c1.013,1.601-0.275,3.598-2.302,3.567  L66,66z"/>
<circle style="fill:#FFEEA3;" cx="66" cy="66" r="3"/>
<circle style="fill:#FFFFFF;" cx="14" cy="40" r="3"/>
<g>
	<rect x="55.5" y="29.5" style="fill:#8BB7F0;" width="21" height="21"/>
	<g>
		<path style="fill:#4E7AB5;" d="M76,30v20H56V30H76 M77,29H55v22h22V29L77,29z"/>
	</g>
</g>
<g>
	
		<rect x="61.05" y="35.05" transform="matrix(0.7071 -0.7071 0.7071 0.7071 -8.9533 58.3848)" style="fill:#FFEEA3;" width="9.899" height="9.899"/>
</g>
<g>
	<rect x="61" y="35" style="fill:#FFEEA3;" width="10" height="10"/>
</g>
<circle style="fill:#FFFFFF;" cx="66" cy="40" r="3"/>
<g>
	<rect x="29.5" y="3.5" style="fill:#8BB7F0;" width="21" height="21"/>
	<g>
		<path style="fill:#4E7AB5;" d="M50,4v20H30V4H50 M51,3H29v22h22V3L51,3z"/>
	</g>
</g>
<g>
	
		<rect x="35.05" y="9.05" transform="matrix(0.7071 -0.7071 0.7071 0.7071 1.8162 32.3848)" style="fill:#FFEEA3;" width="9.899" height="9.899"/>
</g>
<g>
	<rect x="35" y="9" style="fill:#FFEEA3;" width="10" height="10"/>
</g>
<circle style="fill:#FFFFFF;" cx="40" cy="14" r="3"/>
<g>
	<rect x="55.5" y="3.5" style="fill:#C2E8FF;" width="21" height="21"/>
	<g>
		<path style="fill:#7496C4;" d="M76,4v20H56V4H76 M77,3H55v22h22V3L77,3z"/>
	</g>
</g>
<path style="fill:#FFFFFF;" d="M69.6,15.333c-0.056,0-0.103,0.027-0.158,0.031c-0.298-0.676-0.987-1.15-1.791-1.15  c-0.245,0-0.475,0.055-0.691,0.136C66.576,13.557,65.76,13,64.8,13c-1.326,0-2.4,1.045-2.4,2.333c-1.326,0-2.4,1.045-2.4,2.333  C60,18.955,61.074,20,62.4,20c1.326,0,5.969,0,7.2,0c1.326,0,2.4-1.045,2.4-2.333C72,16.378,70.926,15.333,69.6,15.333z"/>
<circle style="fill:#FFFFFF;" cx="73" cy="9" r="1.5"/>
<g>
	<rect x="29.5" y="55.5" style="fill:#C2E8FF;" width="21" height="21"/>
	<g>
		<path style="fill:#7496C4;" d="M50,56v20H30V56H50 M51,55H29v22h22V55L51,55z"/>
	</g>
</g>
<path style="fill:#FFFFFF;" d="M43.6,67.333c-0.056,0-0.103,0.027-0.158,0.031c-0.298-0.676-0.987-1.15-1.791-1.15  c-0.245,0-0.475,0.055-0.691,0.136C40.576,65.557,39.76,65,38.8,65c-1.326,0-2.4,1.045-2.4,2.333c-1.326,0-2.4,1.045-2.4,2.333  C34,70.955,35.074,72,36.4,72c1.326,0,5.969,0,7.2,0c1.326,0,2.4-1.045,2.4-2.333C46,68.378,44.926,67.333,43.6,67.333z"/>
<circle style="fill:#FFFFFF;" cx="45" cy="61" r="1.5"/>
</svg>