<?xml version="1.0" encoding="iso-8859-1"?><!-- Generator: Adobe Illustrator 19.2.1, SVG Export Plug-In . SVG Version: 6.00 Build 0)  --><svg xmlns="http://www.w3.org/2000/svg" xmlns:xlink="http://www.w3.org/1999/xlink" version="1.1" id="Layer_1" x="0px" y="0px" viewBox="0 0 16 16" style="enable-background:new 0 0 16 16;" xml:space="preserve" width="16" height="16">
<g>
	<g>
		<path style="fill:#C74343;" d="M8,0C6.422,0,5.143,1.279,5.143,2.857S8,8,8,8s2.857-3.565,2.857-5.143S9.578,0,8,0z M5.143,13.143    C5.143,14.721,6.422,16,8,16s2.857-1.279,2.857-2.857C10.857,11.565,8,8,8,8S5.143,11.565,5.143,13.143z"/>
	</g>
</g>
<g>
	<g>
		<path style="fill:#C74343;" d="M4.975,2.954C3.608,2.165,1.861,2.633,1.072,4C0.283,5.367,0.751,7.114,2.118,7.903    C3.484,8.692,8,8,8,8S6.341,3.743,4.975,2.954z M13.882,8.097C12.516,7.308,8,8,8,8s1.659,4.257,3.025,5.046    c1.367,0.789,3.114,0.321,3.903-1.046C15.717,10.633,15.249,8.886,13.882,8.097z"/>
	</g>
</g>
<g>
	<g>
		<path style="fill:#C74343;" d="M2.118,8.097C0.751,8.886,0.283,10.633,1.072,12c0.789,1.367,2.536,1.835,3.903,1.046    C6.341,12.257,8,8,8,8S3.484,7.308,2.118,8.097z M14.928,4c-0.789-1.367-2.536-1.835-3.903-1.046C9.659,3.743,8,8,8,8    s4.516,0.692,5.882-0.097C15.249,7.114,15.717,5.367,14.928,4z"/>
	</g>
</g>
<path style="fill:#F78F8F;" d="M8.571,4C8.571,4.316,8,6.286,8,6.286S7.429,4.316,7.429,4S7.684,3.429,8,3.429S8.571,3.684,8.571,4z  "/>
<path style="fill:#F78F8F;" d="M7.429,12C7.429,11.684,8,9.714,8,9.714S8.571,11.684,8.571,12S8.316,12.571,8,12.571  S7.429,12.316,7.429,12z"/>
<path style="fill:#F78F8F;" d="M4.822,5.505c0.273,0.158,1.694,1.638,1.694,1.638S4.523,6.653,4.25,6.495  C3.977,6.337,3.883,5.988,4.041,5.714C4.199,5.441,4.548,5.347,4.822,5.505z"/>
<path style="fill:#F78F8F;" d="M11.178,10.495c-0.273-0.158-1.694-1.638-1.694-1.638s1.992,0.49,2.265,0.648  s0.367,0.507,0.209,0.781S11.452,10.653,11.178,10.495z"/>
<path style="fill:#F78F8F;" d="M4.25,9.505c0.273-0.158,2.265-0.648,2.265-0.648s-1.42,1.48-1.694,1.638  c-0.273,0.158-0.623,0.064-0.781-0.209C3.883,10.012,3.977,9.663,4.25,9.505z"/>
<path style="fill:#F78F8F;" d="M11.75,6.495c-0.273,0.158-2.265,0.648-2.265,0.648s1.42-1.48,1.694-1.638  c0.273-0.158,0.623-0.064,0.781,0.209C12.117,5.988,12.023,6.337,11.75,6.495z"/>
<g>
	<circle style="fill:#FFEEA3;" cx="8" cy="8" r="2.286"/>
</g>
</svg>