<?xml version="1.0" encoding="iso-8859-1"?><!-- Generator: Adobe Illustrator 19.2.1, SVG Export Plug-In . SVG Version: 6.00 Build 0)  --><svg xmlns="http://www.w3.org/2000/svg" xmlns:xlink="http://www.w3.org/1999/xlink" version="1.1" id="Layer_1" x="0px" y="0px" viewBox="0 0 30 30" style="enable-background:new 0 0 30 30;" xml:space="preserve" width="30" height="30">
<g>
	<g>
		<path style="fill:#F78F8F;" d="M15,28.5c-2.481,0-4.5-2.019-4.5-4.5c0-1.941,2.956-6.183,4.5-8.189    c1.544,2.007,4.5,6.249,4.5,8.189C19.5,26.481,17.481,28.5,15,28.5z M15,14.189C13.456,12.183,10.5,7.94,10.5,6    c0-2.481,2.019-4.5,4.5-4.5s4.5,2.019,4.5,4.5C19.5,7.941,16.544,12.183,15,14.189z"/>
	</g>
	<g>
		<path style="fill:#C74343;" d="M15,2c2.206,0,4,1.794,4,4c0,1.522-2.208,4.972-4,7.365C13.208,10.972,11,7.522,11,6    C11,3.794,12.794,2,15,2 M15,16.635c1.792,2.393,4,5.843,4,7.365c0,2.206-1.794,4-4,4s-4-1.794-4-4    C11,22.478,13.208,19.028,15,16.635 M15,1c-2.761,0-5,2.239-5,5s5,9,5,9s5-6.239,5-9S17.761,1,15,1L15,1z M15,15c0,0-5,6.239-5,9    s2.239,5,5,5s5-2.239,5-5S15,15,15,15L15,15z"/>
	</g>
</g>
<g>
	<g>
		<path style="fill:#F78F8F;" d="M22.79,24.001c-0.785,0-1.562-0.209-2.246-0.604c-1.681-0.971-3.875-5.648-4.841-7.99    c1.07-0.14,3.34-0.398,5.448-0.398c2.367,0,3.423,0.323,3.893,0.594c1.041,0.602,1.786,1.572,2.097,2.732    c0.312,1.161,0.151,2.374-0.449,3.415C25.89,23.139,24.396,24.001,22.79,24.001L22.79,24.001z M8.849,14.991    c-2.367,0-3.423-0.323-3.893-0.594c-1.041-0.602-1.786-1.572-2.097-2.732C2.548,10.504,2.708,9.291,3.309,8.25    C4.11,6.861,5.604,5.999,7.21,5.999c0.785,0,1.562,0.209,2.246,0.604c1.681,0.971,3.875,5.648,4.842,7.99    C13.227,14.732,10.957,14.991,8.849,14.991C8.85,14.991,8.85,14.991,8.849,14.991z"/>
	</g>
	<g>
		<path style="fill:#C74343;" d="M7.21,6.499c0.697,0,1.387,0.186,1.995,0.537c1.317,0.76,3.199,4.394,4.376,7.141    c-1.181,0.139-3.013,0.314-4.733,0.314c-2.375,0-3.302-0.33-3.643-0.527c-0.925-0.534-1.587-1.397-1.864-2.429    c-0.277-1.032-0.135-2.11,0.4-3.035C4.454,7.266,5.783,6.499,7.21,6.499 M21.151,15.509c2.375,0,3.302,0.33,3.643,0.527    c1.91,1.103,2.567,3.554,1.464,5.464c-0.713,1.234-2.042,2.001-3.469,2.001c-0.697,0-1.387-0.186-1.995-0.537    c-1.317-0.76-3.199-4.394-4.376-7.141C17.599,15.684,19.431,15.509,21.151,15.509 M7.21,5.499C5.482,5.499,3.802,6.396,2.876,8    c-1.381,2.391-0.561,5.449,1.83,6.83c0.868,0.501,2.464,0.661,4.143,0.661C11.795,15.491,15,15,15,15s-2.903-7.449-5.294-8.83    C8.918,5.715,8.059,5.499,7.21,5.499L7.21,5.499z M21.151,14.509C18.206,14.509,15,15,15,15s2.903,7.449,5.294,8.83    c0.787,0.455,1.647,0.671,2.495,0.671c1.728,0,3.409-0.897,4.335-2.501c1.381-2.391,0.561-5.449-1.83-6.83    C24.426,14.669,22.831,14.509,21.151,14.509L21.151,14.509z"/>
	</g>
</g>
<g>
	<g>
		<path style="fill:#F78F8F;" d="M7.21,24.001c-1.605,0-3.1-0.862-3.901-2.251c-0.601-1.041-0.761-2.254-0.449-3.415    c0.311-1.16,1.056-2.131,2.097-2.732c0.47-0.271,1.525-0.594,3.893-0.594c2.11,0,4.378,0.259,5.448,0.398    c-0.966,2.342-3.161,7.021-4.841,7.99C8.771,23.792,7.995,24.001,7.21,24.001L7.21,24.001z M21.151,14.991    c-2.108,0-4.378-0.259-5.448-0.398c0.966-2.342,3.161-7.021,4.841-7.99c0.685-0.395,1.461-0.604,2.245-0.604    c1.605,0,3.101,0.862,3.902,2.251c0.601,1.041,0.761,2.254,0.449,3.415c-0.311,1.16-1.056,2.131-2.097,2.732    C24.574,14.668,23.518,14.991,21.151,14.991L21.151,14.991z"/>
	</g>
	<g>
		<path style="fill:#C74343;" d="M22.79,6.499c1.427,0,2.756,0.767,3.469,2.001c0.534,0.925,0.676,2.003,0.4,3.035    c-0.277,1.032-0.938,1.895-1.864,2.429c-0.341,0.197-1.268,0.527-3.643,0.527c-1.72,0-3.553-0.175-4.733-0.314    c1.176-2.747,3.058-6.38,4.376-7.141C21.402,6.685,22.092,6.499,22.79,6.499 M8.849,15.509c1.72,0,3.553,0.175,4.734,0.314    c-1.176,2.747-3.058,6.38-4.376,7.141c-0.608,0.351-1.298,0.537-1.995,0.537c-1.427,0-2.756-0.767-3.469-2.001    c-0.534-0.925-0.676-2.003-0.4-3.035c0.277-1.032,0.938-1.895,1.864-2.429C5.547,15.839,6.473,15.509,8.849,15.509 M22.79,5.499    c-0.848,0-1.708,0.216-2.495,0.671C17.903,7.551,15,15,15,15s3.206,0.491,6.151,0.491c1.68,0,3.275-0.16,4.143-0.661    c2.391-1.381,3.211-4.439,1.83-6.83C26.198,6.396,24.517,5.499,22.79,5.499L22.79,5.499z M8.849,14.509    c-1.68,0-3.275,0.16-4.143,0.661c-2.391,1.381-3.211,4.439-1.83,6.83c0.926,1.604,2.607,2.501,4.335,2.501    c0.848,0,1.708-0.216,2.495-0.671C12.097,22.449,15,15,15,15S11.794,14.509,8.849,14.509L8.849,14.509z"/>
	</g>
</g>
<path style="fill:#C74343;" d="M16,8c0,0.552-1,4-1,4s-1-3.448-1-4s0.448-1,1-1S16,7.448,16,8z"/>
<path style="fill:#C74343;" d="M14,22c0-0.552,1-4,1-4s1,3.448,1,4s-0.448,1-1,1S14,22.552,14,22z"/>
<path style="fill:#C74343;" d="M9.438,10.634c0.478,0.276,2.964,2.866,2.964,2.866s-3.486-0.858-3.964-1.134  C7.96,12.09,7.796,11.478,8.072,11C8.348,10.522,8.96,10.358,9.438,10.634z"/>
<path style="fill:#C74343;" d="M20.562,19.366c-0.478-0.276-2.964-2.866-2.964-2.866s3.486,0.858,3.964,1.134  s0.642,0.888,0.366,1.366C21.652,19.478,21.04,19.642,20.562,19.366z"/>
<path style="fill:#C74343;" d="M8.438,17.634c0.478-0.276,3.964-1.134,3.964-1.134s-2.486,2.59-2.964,2.866  C8.96,19.642,8.348,19.478,8.072,19C7.796,18.522,7.96,17.91,8.438,17.634z"/>
<path style="fill:#C74343;" d="M21.562,12.366c-0.478,0.276-3.964,1.134-3.964,1.134s2.486-2.59,2.964-2.866s1.09-0.112,1.366,0.366  C22.204,11.478,22.04,12.09,21.562,12.366z"/>
<g>
	<circle style="fill:#FFEEA3;" cx="15" cy="15" r="4"/>
</g>
</svg>