<?xml version="1.0" encoding="iso-8859-1"?><!-- Generator: Adobe Illustrator 19.2.1, SVG Export Plug-In . SVG Version: 6.00 Build 0)  --><svg xmlns="http://www.w3.org/2000/svg" xmlns:xlink="http://www.w3.org/1999/xlink" version="1.1" id="Layer_1" x="0px" y="0px" viewBox="0 0 16 16" style="enable-background:new 0 0 16 16;" xml:space="preserve" width="16" height="16">
<g>
	<g>
		<polygon style="fill:#FFEEA3;" points="6.124,12.666 2.638,13.362 3.334,9.876 0.833,8 3.334,6.124 2.638,2.638 6.124,3.334     8,0.833 9.876,3.334 13.362,2.638 12.666,6.124 15.167,8 12.666,9.876 13.362,13.362 9.876,12.666 8,15.167   "/>
	</g>
	<g>
		<path style="fill:#BA9B48;" d="M8,1.667l1.287,1.716l0.378,0.504l0.618-0.124l2.442-0.488l-0.488,2.442l-0.124,0.618l0.504,0.378    L14.333,8l-1.716,1.287l-0.504,0.378l0.124,0.618l0.488,2.442l-2.442-0.488l-0.618-0.124l-0.378,0.504L8,14.333l-1.287-1.716    l-0.378-0.504l-0.618,0.124l-2.442,0.488l0.488-2.442l0.124-0.618L3.383,9.287L1.667,8l1.716-1.287l0.504-0.378L3.763,5.717    L3.275,3.275l2.442,0.488l0.618,0.124l0.378-0.504L8,1.667 M8,0L5.913,2.783L2,2l0.783,3.913L0,8l2.783,2.087L2,14l3.913-0.783    L8,16l2.087-2.783L14,14l-0.783-3.913L16,8l-2.783-2.087L14,2l-3.913,0.783L8,0L8,0z"/>
	</g>
</g>
<circle style="fill:#F5CE85;" cx="8" cy="8" r="3"/>
</svg>