<?xml version="1.0" encoding="iso-8859-1"?><!-- Generator: Adobe Illustrator 19.2.1, SVG Export Plug-In . SVG Version: 6.00 Build 0)  --><svg xmlns="http://www.w3.org/2000/svg" xmlns:xlink="http://www.w3.org/1999/xlink" version="1.1" id="Layer_1" x="0px" y="0px" viewBox="0 0 30 30" style="enable-background:new 0 0 30 30;" xml:space="preserve" width="30" height="30">
<g>
	<g>
		<polygon style="fill:#FFEEA3;" points="12.772,26.197 9.579,28.089 8.618,24.338 4.924,25.076 5.695,21.217 1.834,20.454     3.93,17.323 0.833,15 3.803,12.772 1.911,9.579 5.662,8.618 4.924,4.924 8.783,5.695 9.546,1.834 12.677,3.93 15,0.833     17.228,3.803 20.421,1.911 21.382,5.662 25.076,4.924 24.305,8.783 28.166,9.546 26.07,12.677 29.167,15 26.197,17.228     28.089,20.421 24.338,21.382 25.076,25.076 21.217,24.305 20.454,28.166 17.323,26.07 15,29.167   "/>
	</g>
	<g>
		<path style="fill:#BA9B48;" d="M15,1.667l1.558,2.078l0.538,0.717l0.772-0.457l2.235-1.323l0.678,2.645l0.235,0.918l0.93-0.186    L24.44,5.56l-0.527,2.633l-0.197,0.983l0.983,0.194l2.634,0.521l-1.416,2.114l-0.527,0.788l0.758,0.569L28.333,15l-2.078,1.558    l-0.717,0.538l0.457,0.772l1.323,2.235l-2.645,0.678l-0.918,0.235l0.186,0.93l0.499,2.495l-2.633-0.527l-0.983-0.197l-0.194,0.983    l-0.521,2.634l-2.114-1.416l-0.788-0.527l-0.569,0.758L15,28.333l-1.558-2.078l-0.538-0.717l-0.772,0.457l-2.235,1.323    L9.22,24.673l-0.235-0.918l-0.93,0.186L5.56,24.44l0.527-2.633l0.197-0.983L5.301,20.63l-2.634-0.521l1.416-2.114l0.528-0.788    l-0.758-0.569L1.667,15l2.078-1.558l0.717-0.538l-0.457-0.772L2.682,9.898L5.327,9.22l0.918-0.235l-0.186-0.93L5.56,5.56    l2.633,0.527l0.983,0.197L9.37,5.301l0.521-2.634l2.114,1.416l0.788,0.527l0.569-0.758L15,1.667 M15,0l-2.438,3.251l-3.36-2.25    L8.389,5.106L4.286,4.286l0.793,3.965L1.142,9.26l2.003,3.382L0,15l3.251,2.438l-2.25,3.36l4.105,0.812l-0.821,4.104l3.965-0.793    l1.009,3.937l3.382-2.003L15,30l2.438-3.251l3.36,2.25l0.812-4.105l4.104,0.821l-0.793-3.965l3.937-1.009l-2.003-3.382L30,15    l-3.251-2.438l2.25-3.36l-4.105-0.812l0.821-4.104l-3.965,0.793L20.74,1.142l-3.382,2.003L15,0L15,0z"/>
	</g>
</g>
<circle style="fill:#F5CE85;" cx="15" cy="15" r="8"/>
</svg>