<?xml version="1.0" encoding="iso-8859-1"?><!-- Generator: Adobe Illustrator 19.2.1, SVG Export Plug-In . SVG Version: 6.00 Build 0)  --><svg xmlns="http://www.w3.org/2000/svg" xmlns:xlink="http://www.w3.org/1999/xlink" version="1.1" id="Layer_1" x="0px" y="0px" viewBox="0 0 30 30" style="enable-background:new 0 0 30 30;" xml:space="preserve" width="30" height="30">
<g>
	<path style="fill:#DCD5F2;" d="M6.061,28.5c-1.227,0-2.378-0.48-3.24-1.352c-0.857-0.866-1.326-2.013-1.32-3.231   c0.006-1.218,0.486-2.361,1.352-3.218L13.985,9.685l6.418,6.481L9.269,27.18C8.409,28.031,7.27,28.5,6.061,28.5L6.061,28.5z    M6,21.5c-1.371,0-2.493,1.116-2.5,2.488c-0.004,0.667,0.253,1.297,0.724,1.771c0.47,0.474,1.097,0.737,1.765,0.741   c1.383,0,2.505-1.116,2.512-2.488c0.004-0.667-0.253-1.297-0.724-1.771c-0.47-0.474-1.097-0.737-1.765-0.741H6z"/>
	<path style="fill:#8B75A1;" d="M13.982,10.392l5.713,5.77L8.917,26.825C8.151,27.583,7.137,28,6.06,28   c-1.092,0-2.117-0.427-2.885-1.203C1.6,25.206,1.613,22.63,3.203,21.055L13.982,10.392 M5.997,27H6c1.646,0,2.992-1.339,3-2.985   C9.008,22.361,7.669,21.008,6,21c-1.646,0-2.991,1.339-3,2.985C2.992,25.639,4.331,26.992,5.984,27L5.997,27 M13.989,8.978   L2.5,20.344c-1.986,1.966-2.002,5.17-0.035,7.156C3.454,28.499,4.757,29,6.06,29c1.287,0,2.574-0.488,3.56-1.464l11.49-11.366   L13.989,8.978L13.989,8.978z M6,26c-0.003,0-0.007,0-0.01,0C4.886,25.995,3.995,25.095,4,23.99C4.005,22.889,4.9,22,6,22   c0.003,0,0.007,0,0.01,0c1.105,0.005,1.996,0.905,1.99,2.01C7.995,25.111,7.1,26,6,26L6,26z"/>
</g>
<g>
	<path style="fill:#DCD5F2;" d="M21.645,17.532c-2.255,0-4.574-1.037-6.363-2.844c-1.572-1.587-2.547-3.571-2.745-5.586   c-0.194-1.977,0.385-3.745,1.632-4.979c1.396-1.381,3.829-2.31,6.056-2.31c0.833,0,1.598,0.123,2.284,0.367l-5.272,5.225   l1.37,3.984l3.973,1.411l5.272-5.224c0.973,2.813-0.191,6.523-2.016,8.329C24.761,16.97,23.312,17.532,21.645,17.532L21.645,17.532   z"/>
	<path style="fill:#8B75A1;" d="M20.224,2.314c0.463,0,0.903,0.041,1.317,0.121L17.106,6.83L16.66,7.272l0.204,0.594l1.19,3.46   l0.157,0.456l0.454,0.161l3.449,1.225l0.592,0.21l0.446-0.442l4.431-4.392c0.453,2.466-0.565,5.485-2.101,7.007   c-0.979,0.969-2.306,1.482-3.839,1.482c-2.122,0-4.311-0.983-6.008-2.696c-3.023-3.053-3.524-7.475-1.117-9.858   C15.828,3.184,18.12,2.314,20.224,2.314 M20.224,1.314c-2.42,0-4.951,1.011-6.408,2.454c-2.803,2.776-2.306,7.822,1.11,11.272   c1.949,1.969,4.428,2.992,6.718,2.992c1.723,0,3.339-0.579,4.543-1.771c2.129-2.109,3.35-6.527,1.837-9.561l-5.575,5.525L19,11   l-1.19-3.46l5.575-5.525C22.432,1.529,21.34,1.314,20.224,1.314L20.224,1.314z"/>
</g>
</svg>