<?xml version="1.0" encoding="iso-8859-1"?><!-- Generator: Adobe Illustrator 19.2.1, SVG Export Plug-In . SVG Version: 6.00 Build 0)  --><svg xmlns="http://www.w3.org/2000/svg" xmlns:xlink="http://www.w3.org/1999/xlink" version="1.1" id="Layer_1" x="0px" y="0px" viewBox="0 0 16 16" style="enable-background:new 0 0 16 16;" xml:space="preserve" width="16" height="16">
<g>
	<path style="fill:#DCD5F2;" d="M2.768,15.5c-0.61,0-1.183-0.239-1.611-0.672c-0.88-0.888-0.872-2.327,0.016-3.207l5.93-5.866   l3.191,3.223l-5.93,5.866C3.936,15.267,3.369,15.5,2.768,15.5L2.768,15.5z"/>
	<path style="fill:#8B75A1;" d="M7.098,6.462l2.488,2.512l-5.574,5.514C3.678,14.818,3.237,15,2.768,15   c-0.476,0-0.922-0.186-1.256-0.524c-0.686-0.693-0.68-1.814,0.012-2.5L7.098,6.462 M7.105,5.048L0.82,11.265   c-1.086,1.076-1.095,2.828-0.019,3.914C1.342,15.726,2.055,16,2.768,16c0.704,0,1.408-0.267,1.947-0.801L11,8.982L7.105,5.048   L7.105,5.048z"/>
</g>
<g>
	<path style="fill:#DCD5F2;" d="M11.775,9.5c-1.297,0-2.634-0.599-3.668-1.644C7.198,6.938,6.635,5.793,6.521,4.632   C6.41,3.51,6.736,2.508,7.439,1.812C8.24,1.02,9.642,0.487,10.926,0.487c0.352,0,0.681,0.039,0.985,0.114L9.538,2.948l0.894,2.597   l2.588,0.919l2.373-2.346c0.362,1.541-0.271,3.498-1.248,4.465C13.539,9.183,12.72,9.5,11.775,9.5L11.775,9.5z"/>
	<path style="fill:#8B75A1;" d="M10.808,0.989L9.41,2.371L8.963,2.813l0.204,0.594L9.88,5.48l0.157,0.456l0.454,0.161l2.066,0.734   l0.592,0.21l0.446-0.441l1.398-1.383c-0.044,1.144-0.538,2.356-1.2,3.012C13.149,8.866,12.341,9,11.776,9   c-1.164,0-2.372-0.545-3.313-1.496C7.635,6.668,7.122,5.63,7.018,4.583c-0.095-0.97,0.179-1.827,0.773-2.415   C8.469,1.496,9.695,1.02,10.808,0.989 M10.925-0.013c-1.449,0-2.965,0.606-3.838,1.47C5.409,3.119,5.706,6.142,7.752,8.208   C8.92,9.387,10.404,10,11.776,10c1.032,0,2-0.347,2.721-1.061c1.275-1.263,2.006-3.909,1.1-5.726l-2.705,2.675l-2.066-0.734   l-0.713-2.072l2.705-2.675C12.248,0.116,11.594-0.013,10.925-0.013L10.925-0.013z"/>
</g>
</svg>