<?xml version="1.0" encoding="iso-8859-1"?><!-- Generator: Adobe Illustrator 19.2.1, SVG Export Plug-In . SVG Version: 6.00 Build 0)  --><svg xmlns="http://www.w3.org/2000/svg" xmlns:xlink="http://www.w3.org/1999/xlink" version="1.1" id="Layer_1" x="0px" y="0px" viewBox="0 0 16 16" style="enable-background:new 0 0 16 16;" xml:space="preserve" width="16" height="16">
<g>
	<path style="fill:#C2E8FF;" d="M0.521,15.5c0.286-3.36,3.429-3.982,3.568-4.008L8,11.5c0.053,0.019,3.192,0.651,3.479,4H0.521z"/>
	<g>
		<path style="fill:#7496C4;" d="M7.898,12c0.44,0.101,2.525,0.697,3.004,3H1.097c0.471-2.295,2.519-2.89,3.005-3H7.898 M8,11H4    c0,0-4,0.717-4,5h12C12,11.732,8,11,8,11L8,11z"/>
	</g>
</g>
<g>
	<path style="fill:#E8D47B;" d="M6,12.5c-1.02,0-1.519-0.523-1.682-0.74V9.682h3.363v2.079C7.521,11.974,7.022,12.5,6,12.5z"/>
	<path style="fill:#BA9B48;" d="M7.182,10.182v1.393C7.006,11.749,6.642,12,6,12c-0.648,0-1.012-0.255-1.182-0.422v-1.396H7.182    M8.182,9.182H3.818v2.727C3.818,11.909,4.4,13,6,13s2.182-1.091,2.182-1.091V9.182L8.182,9.182z"/>
</g>
<g>
	<g>
		<path style="fill:#FFEEA3;" d="M6,10.5c-0.241,0-0.402-0.145-0.477-0.23l-0.096-0.11l-0.139-0.042    C4.381,9.847,3.713,9.104,3.546,8.182L3.481,7.824l-0.36-0.049C2.91,7.746,2.6,7.37,2.518,6.928L2.5,6.835V5.09L3.09,3.5h5.691    L9.5,5.106v1.762l-0.018,0.06C9.4,7.37,9.09,7.746,8.879,7.775l-0.36,0.049L8.454,8.182c-0.167,0.923-0.835,1.665-1.743,1.936    l-0.139,0.042l-0.096,0.11C6.402,10.355,6.241,10.5,6,10.5z"/>
	</g>
	<g>
		<path style="fill:#BA9B48;" d="M8.458,4L9,5.213v1.574L8.991,6.836c-0.038,0.206-0.163,0.39-0.233,0.45l-0.667,0.09L7.962,8.092    C7.829,8.829,7.295,9.421,6.568,9.639L6.289,9.722l-0.191,0.22C6.065,9.981,6.032,10,6,10S5.935,9.981,5.902,9.942l-0.191-0.22    L5.432,9.639c-0.727-0.217-1.261-0.81-1.394-1.546L3.909,7.376l-0.667-0.09c-0.07-0.06-0.194-0.244-0.233-0.45L3,6.799V5.18    L3.438,4H8.458 M9.106,3H2.743L2,5v2l0.026,0.019C2.13,7.578,2.546,8.202,3.054,8.27c0.202,1.117,1.021,2.007,2.092,2.327    C5.355,10.839,5.655,11,6,11s0.645-0.161,0.854-0.403c1.071-0.32,1.89-1.21,2.092-2.327C9.454,8.202,9.87,7.578,9.974,7.019L10,7    V5L9.106,3L9.106,3z"/>
	</g>
</g>
<g>
	<path style="fill:#B0C1D4;" d="M9.468,6.5C9.223,5.175,7.646,4.339,7.454,4.241L7.115,4.07l-0.257,0.28   C6.847,4.362,5.786,5.5,4.187,5.5c-1.147,0-1.523,0.55-1.639,1H2.5V4.452C2.5,3.025,3.419,1.5,6,1.5c1.06,0,1.559,0.739,1.58,0.771   l0.148,0.225L8,2.5c0.737,0,1.5,0.632,1.5,1.689V6.5H9.468z"/>
	<g>
		<path style="fill:#66798F;" d="M6,2c0.761,0,1.126,0.495,1.155,0.535L7.449,3H8c0.492,0,1,0.445,1,1.189v0.562    C8.429,4.19,7.803,3.858,7.679,3.796L6.997,3.45L6.485,4.017C6.476,4.027,5.56,5,4.187,5C3.701,5,3.31,5.088,3,5.237V4.452    C3,3.877,3.216,2,6,2 M6,1C3.15,1,2,2.766,2,4.452C2,5.668,2,7,2,7h1V6.886C3,6.423,3.245,6,4.187,6    c1.855,0,3.04-1.312,3.04-1.312S9,5.585,9,6.848c0,0.201,0,0.259,0,0.259V7h1c0,0,0-0.82,0-2.811C10,2.872,9.032,2,8,2    C8,2,7.367,1,6,1L6,1z"/>
	</g>
</g>
<g>
	<g>
		<path style="fill:#F78F8F;" d="M7.872,8.385c0.241-0.527,0.486-1.136,0.673-1.646l0.107-0.291L8.438,6.222    C7.824,5.576,7.5,4.808,7.5,4c0-1.93,1.794-3.5,4-3.5s4,1.57,4,3.5s-1.794,3.5-4,3.5c-0.306,0-0.624-0.04-1.001-0.125L10.3,7.329    l-0.174,0.107C9.527,7.807,8.667,8.196,7.872,8.385z"/>
	</g>
	<g>
		<path style="fill:#C74343;" d="M11.5,1C13.43,1,15,2.346,15,4s-1.57,3-3.5,3c-0.268,0-0.551-0.036-0.89-0.113l-0.399-0.091    L9.863,7.012C9.521,7.223,9.142,7.413,8.762,7.568C8.854,7.336,8.94,7.112,9.014,6.912l0.214-0.583L8.8,5.878    C8.435,5.494,8,4.856,8,4C8,2.346,9.57,1,11.5,1 M11.5,0C9.015,0,7,1.791,7,4c0,0.982,0.414,1.87,1.075,2.567    C7.788,7.348,7.331,8.445,7,9c1.04,0,2.451-0.558,3.389-1.138C10.746,7.944,11.114,8,11.5,8C13.985,8,16,6.209,16,4    C16,1.791,13.985,0,11.5,0L11.5,0z"/>
	</g>
</g>
</svg>