<?xml version="1.0" encoding="iso-8859-1"?><!-- Generator: Adobe Illustrator 19.2.1, SVG Export Plug-In . SVG Version: 6.00 Build 0)  --><svg xmlns="http://www.w3.org/2000/svg" xmlns:xlink="http://www.w3.org/1999/xlink" version="1.1" id="Layer_1" x="0px" y="0px" viewBox="0 0 30 30" style="enable-background:new 0 0 30 30;" xml:space="preserve" width="30" height="30">
<g>
	<path style="fill:#C2E8FF;" d="M1.517,28.5c0.258-3.903,3.516-7,7.483-7h6c3.967,0,7.225,3.097,7.483,7H1.517z"/>
	<g>
		<path style="fill:#7496C4;" d="M15,22c3.52,0,6.442,2.612,6.929,6H2.071C2.558,24.612,5.48,22,9,22H15 M15,21H9    c-4.418,0-8,3.582-8,8h22C23,24.582,19.418,21,15,21L15,21z"/>
	</g>
</g>
<g>
	<path style="fill:#E8D47B;" d="M12,23.5c-2.283,0-3.055-1.279-3.214-1.605v-3.823h6.429v3.824C15.058,22.215,14.288,23.5,12,23.5z"/>
	<path style="fill:#BA9B48;" d="M14.714,18.571v3.201C14.519,22.102,13.818,23,12,23c-1.815,0-2.518-0.9-2.714-1.229v-3.199H14.714    M15.714,17.571H8.286V22c0,0,0.742,2,3.714,2c2.973,0,3.714-2,3.714-2V17.571L15.714,17.571z"/>
</g>
<g>
	<g>
		<path style="fill:#E8D47B;" d="M17,15.5c-0.827,0-1.5-0.609-1.5-1.357s0.673-1.357,1.5-1.357c1.5,0,1.5,0.444,1.5,0.738    C18.5,14.35,17.744,15.5,17,15.5z M7,15.5c-0.744,0-1.5-1.15-1.5-1.977c0-0.294,0-0.738,1.5-0.738c0.827,0,1.5,0.609,1.5,1.357    S7.827,15.5,7,15.5z"/>
	</g>
	<g>
		<path style="fill:#BA9B48;" d="M17,13.285c0.787,0,0.978,0.131,0.988,0.131c0,0,0,0,0,0C17.99,13.421,18,13.451,18,13.523    C18,14.131,17.411,15,17,15c-0.551,0-1-0.385-1-0.857S16.449,13.285,17,13.285 M7,13.285c0.551,0,1,0.385,1,0.857S7.551,15,7,15    c-0.411,0-1-0.869-1-1.476c0-0.056,0.006-0.087,0.004-0.093C6.042,13.404,6.251,13.285,7,13.285 M17,12.285    c-1.105,0-2,0.831-2,1.857S15.895,16,17,16s2-1.451,2-2.476C19,12.498,18.105,12.285,17,12.285L17,12.285z M7,12.285    c-1.105,0-2,0.212-2,1.238C5,14.549,5.895,16,7,16s2-0.831,2-1.857S8.105,12.285,7,12.285L7,12.285z"/>
	</g>
</g>
<g>
	<g>
		<path style="fill:#FFEEA3;" d="M12,20.5c-0.383,0-0.738-0.16-1.001-0.451l-0.11-0.122l-0.162-0.033    C8.277,19.398,6.5,17.222,6.5,14.718V8.553c0-1.244,1.012-2.256,2.255-2.256h6.489c1.244,0,2.255,1.012,2.255,2.256v6.165    c0,2.504-1.777,4.681-4.227,5.176l-0.162,0.033l-0.11,0.122C12.738,20.34,12.383,20.5,12,20.5z"/>
	</g>
	<g>
		<path style="fill:#BA9B48;" d="M15.245,6.797C16.212,6.797,17,7.585,17,8.553v6.165c0,2.266-1.609,4.237-3.826,4.686l-0.322,0.065    l-0.221,0.244C12.534,19.82,12.323,20,12,20s-0.534-0.18-0.631-0.287l-0.221-0.244l-0.322-0.065C8.609,18.955,7,16.984,7,14.718    V8.553c0-0.968,0.788-1.755,1.755-1.755H15.245 M15.245,5.797H8.755C7.234,5.797,6,7.031,6,8.553v6.165    c0,2.798,1.987,5.131,4.627,5.666C10.967,20.76,11.454,21,12,21s1.033-0.24,1.373-0.616C16.013,19.849,18,17.516,18,14.718V8.553    C18,7.031,16.766,5.797,15.245,5.797L15.245,5.797z"/>
	</g>
</g>
<g>
	<path style="fill:#B0C1D4;" d="M17.5,14.499v-1.777c0-2.7-2.081-4.563-2.169-4.642l-0.345-0.304l-0.332,0.317   C14.641,8.106,13.114,9.5,9.9,9.5c-2.065,0-3.4,1.321-3.4,3.366v1.633H6.39C6.144,13.5,5.5,10.771,5.5,9.606   C5.5,5.896,8.051,3.5,12,3.5c1.715,0,2.889,1.494,2.901,1.509l0.15,0.194h0.246c1.108,0,3.204,0.857,3.204,4.103   c0,1.825-0.627,4.285-0.877,5.193H17.5z"/>
	<g>
		<path style="fill:#66798F;" d="M12,4c1.449,0,2.498,1.306,2.505,1.315l0.3,0.388h0.491C16.232,5.703,18,6.456,18,9.306    c0,0.612-0.074,1.302-0.181,1.978c-0.535-2.127-2.079-3.51-2.158-3.579L14.979,7.12l-0.662,0.605C14.26,7.777,12.886,9,9.9,9    c-1.807,0-3.155,0.932-3.67,2.428C6.096,10.697,6,10.027,6,9.606C6,6.201,8.355,4,12,4 M12,3C7.705,3,5,5.714,5,9.606    C5,11.12,6,15,6,15h1c0,0,0-1.417,0-2.133C7,10.901,8.334,10,9.9,10c3.485,0,5.1-1.545,5.1-1.545s2,1.761,2,4.267    C17,13.509,17,15,17,15h1c0,0,1-3.323,1-5.694c0-3.329-2.139-4.603-3.703-4.603C15.297,4.703,13.98,3,12,3L12,3z"/>
	</g>
</g>
<g>
	<g>
		<path style="fill:#F78F8F;" d="M15.87,15.019c0.447-0.915,0.927-2.085,1.258-2.968l0.113-0.3l-0.225-0.228    C16.039,10.534,15.5,9.283,15.5,8c0-3.032,2.916-5.5,6.5-5.5s6.5,2.468,6.5,5.5s-2.916,5.5-6.5,5.5    c-0.498,0-1.012-0.054-1.528-0.16l-0.19-0.039l-0.167,0.1C18.952,14.096,17.299,14.795,15.87,15.019z"/>
	</g>
	<g>
		<path style="fill:#C74343;" d="M22,3c3.308,0,6,2.243,6,5c0,2.757-2.692,5-6,5c-0.463,0-0.943-0.05-1.429-0.15l-0.38-0.078    l-0.333,0.199c-0.84,0.502-1.998,1.028-3.111,1.34c0.315-0.715,0.618-1.47,0.849-2.084l0.226-0.6l-0.451-0.456    C16.474,10.265,16,9.168,16,8C16,5.243,18.692,3,22,3 M22,2c-3.866,0-7,2.686-7,6c0,1.478,0.627,2.83,1.661,3.875    c-0.469,1.246-1.157,2.872-1.661,3.717c1.638,0,3.849-0.852,5.371-1.762C20.894,13.937,21.438,14,22,14c3.866,0,7-2.686,7-6    S25.866,2,22,2L22,2z"/>
	</g>
</g>
</svg>