<?xml version="1.0" encoding="iso-8859-1"?><!-- Generator: Adobe Illustrator 19.2.1, SVG Export Plug-In . SVG Version: 6.00 Build 0)  --><svg xmlns="http://www.w3.org/2000/svg" xmlns:xlink="http://www.w3.org/1999/xlink" version="1.1" id="Layer_1" x="0px" y="0px" viewBox="0 0 80 80" style="enable-background:new 0 0 80 80;" xml:space="preserve" width="80" height="80">
<g>
	<path style="fill:#C2E8FF;" d="M2.506,76.5c0.273-11.625,10.034-21,21.994-21h15c11.96,0,21.721,9.375,21.994,21H2.506z"/>
	<g>
		<path style="fill:#7496C4;" d="M39.5,56c11.512,0,20.94,8.883,21.476,20H3.024C3.56,64.883,12.988,56,24.5,56H39.5 M39.5,55h-15    C12.074,55,2,64.85,2,77h60C62,64.85,51.926,55,39.5,55L39.5,55z"/>
	</g>
</g>
<g>
	<path style="fill:#E8D47B;" d="M32,62.5c-6.624,0-9.203-5.908-9.5-6.65v-11.53h19v11.532C41.193,56.641,38.685,62.5,32,62.5z"/>
	<path style="fill:#BA9B48;" d="M41,44.819v10.936C40.593,56.748,38.151,62,32,62c-6.154,0-8.596-5.257-9-6.245V44.819H41    M42,43.819H22v12.124c0,0,2.534,7.057,10,7.057s10-7.057,10-7.057V43.819L42,43.819z"/>
</g>
<g>
	<g>
		<path style="fill:#E8D47B;" d="M44.857,40.786c-2.56,0-4.643-2.083-4.643-4.644c0-2.56,2.083-4.643,4.643-4.643    c3.298,0,4.643,0.849,4.643,2.929C49.5,36.939,47.42,40.786,44.857,40.786z M19.143,40.786c-2.563,0-4.643-3.847-4.643-6.357    c0-2.08,1.345-2.929,4.643-2.929c2.56,0,4.643,2.083,4.643,4.643C23.786,38.703,21.703,40.786,19.143,40.786z"/>
	</g>
	<g>
		<path style="fill:#BA9B48;" d="M44.857,32C48.307,32,49,32.929,49,34.429c0,2.503-2.048,5.857-4.143,5.857    c-2.284,0-4.143-1.859-4.143-4.143S42.573,32,44.857,32 M19.143,32c2.284,0,4.143,1.858,4.143,4.143s-1.858,4.143-4.143,4.143    c-2.095,0-4.143-3.354-4.143-5.857C15,32.929,15.693,32,19.143,32 M44.857,31c-2.84,0-5.143,2.302-5.143,5.143    s2.303,5.143,5.143,5.143c2.84,0,5.143-4.017,5.143-6.857C50,31.588,47.697,31,44.857,31L44.857,31z M19.143,31    C16.303,31,14,31.588,14,34.429c0,2.84,2.303,6.857,5.143,6.857c2.84,0,5.143-2.303,5.143-5.143S21.983,31,19.143,31L19.143,31z"/>
	</g>
</g>
<g>
	<g>
		<path style="fill:#FFEEA3;" d="M32,54.5c-1.3,0-2.535-0.498-3.477-1.402l-0.09-0.087l-0.12-0.034    C22.535,51.339,18.5,46.002,18.5,40V23.728c0-3.403,2.769-6.172,6.172-6.172h14.655c3.403,0,6.172,2.769,6.172,6.172V40    c0,6.002-4.035,11.339-9.813,12.977l-0.12,0.034l-0.09,0.087C34.535,54.002,33.3,54.5,32,54.5z"/>
	</g>
	<g>
		<path style="fill:#BA9B48;" d="M39.328,18.056c3.128,0,5.672,2.545,5.672,5.672V40c0,5.779-3.886,10.918-9.449,12.496l-0.24,0.068    l-0.18,0.173C34.282,53.551,33.17,54,32,54s-2.282-0.449-3.131-1.263l-0.18-0.173l-0.24-0.068C22.886,50.918,19,45.779,19,40    V23.728c0-3.128,2.545-5.672,5.672-5.672H39.328 M39.328,17.056H24.672c-3.685,0-6.672,2.987-6.672,6.672V40    c0,6.405,4.306,11.793,10.177,13.458C29.17,54.411,30.515,55,32,55s2.83-0.589,3.823-1.542C41.694,51.793,46,46.405,46,40V23.728    C46,20.043,43.013,17.056,39.328,17.056L39.328,17.056z"/>
	</g>
</g>
<g>
	<path style="fill:#B0C1D4;" d="M45.5,36.5V28c0-6.66-5.292-8.458-5.345-8.476l-0.327-0.106l-0.217,0.268   c-0.047,0.058-4.797,5.813-11.611,5.813c-0.52,0-1.061-0.017-1.608-0.033c-0.569-0.017-1.145-0.034-1.71-0.034   c-2.007,0-6.182,0-6.182,4.568v6.5h-0.217c-0.701-1.192-3.783-6.755-3.783-12.348C14.5,14.348,21.696,7.5,32,7.5   c6.49,0,9.527,5.674,9.557,5.731l0.119,0.228l0.254,0.036C47.094,14.235,49.5,17.891,49.5,25c0,5.077-3.073,10.358-3.776,11.5H45.5   z"/>
	<g>
		<path style="fill:#66798F;" d="M32,8c6.155,0,8.997,5.242,9.114,5.463l0.237,0.454l0.507,0.073C44.924,14.429,49,16.048,49,25    c0,3.895-1.871,7.936-3,10.018V28c0-3.644-1.526-5.878-2.807-7.111c-1.4-1.347-2.824-1.821-2.884-1.84l-0.654-0.213l-0.433,0.535    C39.177,19.427,34.592,25,28,25c-0.516,0-1.052-0.016-1.594-0.033c-0.574-0.017-1.155-0.035-1.725-0.035    c-1.999,0-6.681,0-6.681,5.068v4.945c-1.132-2.203-3-6.489-3-10.792C15,14.642,21.991,8,32,8 M32,7c-10.719,0-18,7.333-18,17.152    C14,30.656,18,37,18,37h1c0,0,0-5.211,0-7c0-3.582,2.701-4.068,5.681-4.068C25.79,25.932,26.938,26,28,26c7.146,0,12-6,12-6    s5,1.626,5,8c0,1.968,0,9,0,9h1c0,0,4-6.073,4-12c0-8.322-3.405-11.342-8-12C42,13,38.868,7,32,7L32,7z"/>
	</g>
</g>
<g>
	<g>
		<path style="fill:#F78F8F;" d="M40.873,38.472c1.018-1.883,2.333-4.831,3.624-8.136L44.628,30l-0.278-0.23    C40.578,26.637,38.5,22.456,38.5,18c0-9.098,8.748-16.5,19.5-16.5S77.5,8.902,77.5,18S68.752,34.5,58,34.5    c-1.346,0-2.708-0.121-4.048-0.36l-0.177-0.031l-0.156,0.088C50.328,36.054,45.148,38.201,40.873,38.472z"/>
	</g>
	<g>
		<path style="fill:#C74343;" d="M58,2c10.477,0,19,7.178,19,16s-8.523,16-19,16c-1.319,0-2.651-0.119-3.96-0.353l-0.354-0.063    l-0.313,0.177c-3.015,1.702-7.633,3.652-11.632,4.13c0.955-1.885,2.099-4.496,3.222-7.372l0.262-0.672l-0.555-0.461    C41.013,26.349,39,22.305,39,18C39,9.178,47.523,2,58,2 M58,1C46.954,1,38,8.611,38,18c0,4.766,2.314,9.068,6.031,12.154    C42.798,33.312,41.204,36.981,40,39c4.196,0,9.777-2.062,13.864-4.368C55.199,34.87,56.581,35,58,35c11.046,0,20-7.611,20-17    S69.046,1,58,1L58,1z"/>
	</g>
</g>
</svg>