<?xml version="1.0" encoding="iso-8859-1"?><!-- Generator: Adobe Illustrator 19.2.1, SVG Export Plug-In . SVG Version: 6.00 Build 0)  --><svg xmlns="http://www.w3.org/2000/svg" xmlns:xlink="http://www.w3.org/1999/xlink" version="1.1" id="Layer_1" x="0px" y="0px" viewBox="0 0 40 40" style="enable-background:new 0 0 40 40;" xml:space="preserve" width="40" height="40">
<g>
	<path style="fill:#C2E8FF;" d="M1.512,38.5c0.268-5.559,4.982-10,10.738-10h7.5c5.756,0,10.47,4.441,10.738,10H1.512z"/>
	<g>
		<path style="fill:#7496C4;" d="M19.75,29c5.306,0,9.683,3.954,10.199,9H2.051c0.516-5.046,4.893-9,10.199-9H19.75 M19.75,28h-7.5    C6.037,28,1,32.925,1,39h30C31,32.925,25.963,28,19.75,28L19.75,28z"/>
	</g>
</g>
<g>
	<path style="fill:#E8D47B;" d="M16,31.5c-3.076,0-4.296-2.625-4.5-3.122v-5.469h9v5.469C20.296,28.875,19.076,31.5,16,31.5z"/>
	<path style="fill:#BA9B48;" d="M20,23.41v4.865C19.737,28.865,18.607,31,16,31c-2.611,0-3.741-2.141-4-2.725V23.41H20 M21,22.41H11   v6.062c0,0,1.267,3.529,5,3.529c3.733,0,5-3.529,5-3.529V22.41L21,22.41z"/>
</g>
<g>
	<g>
		<path style="fill:#E8D47B;" d="M22.429,20.643c-1.143,0-2.072-0.929-2.072-2.071s0.929-2.071,2.072-2.071    c1.725,0,2.071,0.465,2.071,1.214C24.5,18.966,23.476,20.643,22.429,20.643z M9.571,20.643c-1.047,0-2.071-1.677-2.071-2.929    c0-0.749,0.347-1.214,2.071-1.214c1.143,0,2.072,0.929,2.072,2.071S10.714,20.643,9.571,20.643z"/>
	</g>
	<g>
		<path style="fill:#BA9B48;" d="M22.429,17C24,17,24,17.363,24,17.714c0,1.044-0.896,2.429-1.571,2.429    c-0.867,0-1.571-0.705-1.571-1.571S21.562,17,22.429,17 M9.571,17c0.867,0,1.571,0.705,1.571,1.571s-0.705,1.571-1.571,1.571    C8.896,20.143,8,18.758,8,17.714C8,17.363,8,17,9.571,17 M22.429,16c-1.42,0-2.571,1.151-2.571,2.571s1.151,2.571,2.571,2.571    c1.42,0,2.571-2.008,2.571-3.429S23.849,16,22.429,16L22.429,16z M9.571,16C8.151,16,7,16.294,7,17.714s1.151,3.429,2.571,3.429    c1.42,0,2.571-1.151,2.571-2.571S10.992,16,9.571,16L9.571,16z"/>
	</g>
</g>
<g>
	<g>
		<path style="fill:#FFEEA3;" d="M16,27.5c-0.581,0-1.134-0.224-1.56-0.631l-0.09-0.086l-0.12-0.034    C11.445,25.963,9.5,23.393,9.5,20.5v-8.136c0-1.564,1.272-2.837,2.836-2.837h7.328c1.564,0,2.836,1.272,2.836,2.837V20.5    c0,2.893-1.945,5.463-4.73,6.249l-0.12,0.034l-0.09,0.086C17.134,27.276,16.581,27.5,16,27.5z"/>
	</g>
	<g>
		<path style="fill:#BA9B48;" d="M19.664,10.028c1.288,0,2.336,1.048,2.336,2.336V20.5c0,2.67-1.796,5.042-4.367,5.768l-0.239,0.068    l-0.18,0.172C16.882,26.825,16.451,27,16,27s-0.882-0.175-1.215-0.492l-0.18-0.172l-0.239-0.068C11.796,25.542,10,23.17,10,20.5    v-8.136c0-1.288,1.048-2.336,2.336-2.336H19.664 M19.664,9.028h-7.328C10.494,9.028,9,10.521,9,12.364V20.5    c0,3.205,2.156,5.9,5.095,6.731C14.591,27.705,15.26,28,16,28s1.409-0.295,1.905-0.769C20.844,26.4,23,23.705,23,20.5v-8.136    C23,10.521,21.506,9.028,19.664,9.028L19.664,9.028z"/>
	</g>
</g>
<g>
	<path style="fill:#B0C1D4;" d="M22.5,18.5V15c0-3.484-2.217-4.425-2.312-4.463l-0.342-0.14l-0.234,0.287   C19.589,10.713,17.283,13.5,14,13.5c-0.264,0-0.53-0.009-0.791-0.017c-0.265-0.009-0.526-0.017-0.778-0.017   c-0.877,0-2.931,0-2.931,2.533v2.5H9.286C8.845,17.727,7.5,15.151,7.5,12.576C7.5,7.821,10.995,4.5,16,4.5   c3.078,0,4.499,2.621,4.557,2.732l0.119,0.226l0.253,0.037C22.462,7.715,24.5,8.524,24.5,13c0,2.334-1.337,4.763-1.778,5.5H22.5z"/>
	<g>
		<path style="fill:#66798F;" d="M16,5c2.762,0,4.062,2.367,4.114,2.463l0.237,0.454l0.507,0.073C22.321,8.199,24,8.958,24,13    c0,1.395-0.515,2.842-1,3.894V15c0-3.816-2.516-4.883-2.623-4.926l-0.685-0.275l-0.467,0.57C19.203,10.395,17.035,13,14,13    c-0.259,0-0.519-0.008-0.775-0.017c-0.27-0.009-0.537-0.017-0.794-0.017C11.582,12.966,9,12.966,9,16v0.801    c-0.486-1.124-1-2.679-1-4.225C8,8.115,11.29,5,16,5 M16,4c-5.36,0-9,3.667-9,8.576C7,15.828,9,19,9,19h1c0,0,0-2.105,0-3    c0-1.791,1.085-2.034,2.431-2.034C12.932,13.966,13.469,14,14,14c3.573,0,6-3,6-3s2,0.813,2,4c0,0.984,0,4,0,4h1c0,0,2-3.037,2-6    c0-4.161-1.703-5.671-4-6C21,7,19.434,4,16,4L16,4z"/>
	</g>
</g>
<g>
	<g>
		<path style="fill:#F78F8F;" d="M20.87,19.445c0.478-0.942,1.05-2.248,1.611-3.687l0.131-0.336l-0.278-0.23    C20.507,13.675,19.5,11.653,19.5,9.5c0-4.411,4.262-8,9.5-8s9.5,3.589,9.5,8s-4.262,8-9.5,8c-0.662,0-1.328-0.06-1.979-0.177    l-0.177-0.032l-0.157,0.089C25.179,18.231,22.871,19.206,20.87,19.445z"/>
	</g>
	<g>
		<path style="fill:#C74343;" d="M29,2c4.963,0,9,3.365,9,7.5S33.963,17,29,17c-0.63,0-1.267-0.057-1.892-0.169l-0.354-0.063    l-0.313,0.177c-1.541,0.87-3.236,1.525-4.698,1.843c0.538-1.165,1.02-2.375,1.204-2.847l0.262-0.672l-0.555-0.461    C20.943,13.386,20,11.501,20,9.5C20,5.365,24.037,2,29,2 M29,1c-5.523,0-10,3.806-10,8.5c0,2.383,1.157,4.534,3.015,6.077    C21.399,17.156,20.602,18.99,20,20c2.098,0,4.888-1.031,6.932-2.184C27.6,17.935,28.291,18,29,18c5.523,0,10-3.806,10-8.5    C39,4.806,34.523,1,29,1L29,1z"/>
	</g>
</g>
</svg>