<?xml version="1.0" encoding="iso-8859-1"?><!-- Generator: Adobe Illustrator 19.2.1, SVG Export Plug-In . SVG Version: 6.00 Build 0)  --><svg xmlns="http://www.w3.org/2000/svg" xmlns:xlink="http://www.w3.org/1999/xlink" version="1.1" id="Layer_1" x="0px" y="0px" viewBox="0 0 40 40" style="enable-background:new 0 0 40 40;" xml:space="preserve" width="40" height="40">
<g>
	<path style="fill:#66798F;" d="M35,5v30H5V5H35 M36,4H4v32h32V4L36,4z"/>
</g>
<g>
	<rect x="32.5" y="1.5" style="fill:#8BB7F0;" width="6" height="6"/>
	<g>
		<path style="fill:#4E7AB5;" d="M38,2v5h-5V2H38 M39,1h-7v7h7V1L39,1z"/>
	</g>
</g>
<g>
	<rect x="1.5" y="1.5" style="fill:#8BB7F0;" width="6" height="6"/>
	<g>
		<path style="fill:#4E7AB5;" d="M7,2v5H2V2H7 M8,1H1v7h7V1L8,1z"/>
	</g>
</g>
<g>
	<rect x="32.5" y="32.5" style="fill:#8BB7F0;" width="6" height="6"/>
	<g>
		<path style="fill:#4E7AB5;" d="M38,33v5h-5v-5H38 M39,32h-7v7h7V32L39,32z"/>
	</g>
</g>
<g>
	<rect x="1.5" y="32.5" style="fill:#8BB7F0;" width="6" height="6"/>
	<g>
		<path style="fill:#4E7AB5;" d="M7,33v5H2v-5H7 M8,32H1v7h7V32L8,32z"/>
	</g>
</g>
<g>
	<g>
		<polygon style="fill:#B0C1D4;" points="15.5,29.5 15.5,27.9 18.5,26.9 18.5,12.5 13.528,12.5 12.628,15.5 11.5,15.5 11.5,10.5     28.5,10.5 28.5,15.5 27.372,15.5 26.472,12.5 21.5,12.5 21.5,26.9 24.5,27.9 24.5,29.5   "/>
	</g>
	<g>
		<path style="fill:#66798F;" d="M28,11v2v2h-0.256l-0.686-2.287L26.844,12H26.1H22h-1v1v13.54v0.721l0.684,0.228L24,28.26V29h-2h-4    h-2v-0.74l2.316-0.772L19,27.26V26.54V13v-1h-1h-4.1h-0.744l-0.214,0.713L12.256,15H12v-2v-2H28 M29,10H11v1v2v3h2l0.9-3H18v13.54    l-3,1V30h3h4h3v-2.46l-3-1V13h4.1l0.9,3h2v-3v-2V10L29,10z"/>
	</g>
</g>
</svg>