<?xml version="1.0" encoding="iso-8859-1"?><!-- Generator: Adobe Illustrator 19.2.1, SVG Export Plug-In . SVG Version: 6.00 Build 0)  --><svg xmlns="http://www.w3.org/2000/svg" xmlns:xlink="http://www.w3.org/1999/xlink" version="1.1" id="Layer_1" x="0px" y="0px" viewBox="0 0 80 80" style="enable-background:new 0 0 80 80;" xml:space="preserve" width="80" height="80">
<g>
	<g>
		<polygon style="fill:#B0C1D4;" points="32.5,57.5 32.5,55.423 36.5,54.757 36.5,25.5 26.973,25.5 25.64,29.5 24.5,29.5 24.5,22.5     55.5,22.5 55.5,29.5 54.36,29.5 53.027,25.5 43.5,25.5 43.5,54.757 47.5,55.423 47.5,57.5   "/>
	</g>
	<g>
		<path style="fill:#66798F;" d="M55,23v1v2v3h-0.279l-1.105-3.316L53.387,25h-0.721H44h-1v1v28.333v0.847l0.836,0.139L47,55.847V57    h-3h-8h-3v-1.153l3.164-0.527L37,55.18v-0.847V26v-1h-1h-8.667h-0.721l-0.228,0.684L25.279,29H25v-3v-2v-1H55 M56,22H24v2v2v4h2    l1.333-4H36v28.333L32,55v3h4h8h4v-3l-4-0.667V26h8.667L54,30h2v-4v-2V22L56,22z"/>
	</g>
</g>
<g>
	<path style="fill:#66798F;" d="M73,7v66H7V7H73 M74,6H6v68h68V6L74,6z"/>
</g>
<g>
	<rect x="69.5" y="2.5" style="fill:#8BB7F0;" width="8" height="8"/>
	<g>
		<path style="fill:#4E7AB5;" d="M77,3v7h-7V3H77 M78,2h-9v9h9V2L78,2z"/>
	</g>
</g>
<g>
	<rect x="2.5" y="2.5" style="fill:#8BB7F0;" width="8" height="8"/>
	<g>
		<path style="fill:#4E7AB5;" d="M10,3v7H3V3H10 M11,2H2v9h9V2L11,2z"/>
	</g>
</g>
<g>
	<rect x="69.5" y="69.5" style="fill:#8BB7F0;" width="8" height="8"/>
	<g>
		<path style="fill:#4E7AB5;" d="M77,70v7h-7v-7H77 M78,69h-9v9h9V69L78,69z"/>
	</g>
</g>
<g>
	<rect x="2.5" y="69.5" style="fill:#8BB7F0;" width="8" height="8"/>
	<g>
		<path style="fill:#4E7AB5;" d="M10,70v7H3v-7H10 M11,69H2v9h9V69L11,69z"/>
	</g>
</g>
</svg>