<?xml version="1.0" encoding="iso-8859-1"?><!-- Generator: Adobe Illustrator 19.2.1, SVG Export Plug-In . SVG Version: 6.00 Build 0)  --><svg xmlns="http://www.w3.org/2000/svg" xmlns:xlink="http://www.w3.org/1999/xlink" version="1.1" id="Layer_1" x="0px" y="0px" viewBox="0 0 30 30" style="enable-background:new 0 0 30 30;" xml:space="preserve" width="30" height="30">
<g>
	<rect x="2.5" y="25.5" style="fill:#BAE0BD;" width="25" height="3"/>
	<g>
		<path style="fill:#5E9C76;" d="M27,26v2H3v-2H27 M28,25H2v4h26V25L28,25z"/>
	</g>
</g>
<g>
	<g>
		<path style="fill:#B0C1D4;" d="M20.627,22.5l-1.427-5h-8.4l-1.427,5H5.695l7.043-21h4.691l6.881,21H20.627z M11.656,14.5h6.687    L15.468,4.428h-0.938L11.656,14.5z"/>
	</g>
	<g>
		<path style="fill:#66798F;" d="M17.067,2l6.553,20h-2.616l-1.22-4.275L19.577,17h-0.754h-7.646h-0.755l-0.207,0.726L8.995,22H6.39    l6.707-20H17.067 M10.993,15h1.325h5.362h1.325l-0.364-1.274l-2.59-9.073l-0.207-0.726h-0.754h-0.183h-0.755l-0.207,0.726    l-2.589,9.073L10.993,15 M17.792,1h-5.413L5,23h4.75l1.427-5h7.646l1.427,5H25L17.792,1L17.792,1z M12.319,14l2.589-9.073h0.183    L17.681,14H12.319L12.319,14z"/>
	</g>
</g>
</svg>