<?xml version="1.0" encoding="iso-8859-1"?><!-- Generator: Adobe Illustrator 19.2.1, SVG Export Plug-In . SVG Version: 6.00 Build 0)  --><svg xmlns="http://www.w3.org/2000/svg" xmlns:xlink="http://www.w3.org/1999/xlink" version="1.1" id="Layer_1" x="0px" y="0px" viewBox="0 0 80 80" style="enable-background:new 0 0 80 80;" xml:space="preserve" width="80" height="80">
<g>
	<rect x="4.5" y="70.5" style="fill:#BAE0BD;" width="71" height="5"/>
	<g>
		<path style="fill:#5E9C76;" d="M75,71v4H5v-4H75 M76,70H4v6h72V70L76,70z"/>
	</g>
</g>
<g>
	<g>
		<path style="fill:#B0C1D4;" d="M54.696,63.5l-3.997-14H29.3l-3.996,14H13.422l19.787-59h14.042l19.332,59H54.696z M31.869,40.5    h16.26l-7.504-26.289h-1.253L31.869,40.5z"/>
	</g>
	<g>
		<path style="fill:#66798F;" d="M46.889,5l19.004,58h-10.82l-3.789-13.275L51.076,49h-0.754H29.678h-0.755l-0.207,0.726L24.927,63    h-10.81L33.569,5H46.889 M31.206,41h1.325h14.935h1.325l-0.364-1.275l-7.219-25.289l-0.207-0.725h-0.754h-0.498h-0.755    l-0.207,0.726L31.57,39.726L31.206,41 M47.613,4H32.849L12.727,64h12.955l3.996-14h20.644l3.997,14h12.955L47.613,4L47.613,4z     M32.532,40l7.218-25.289h0.498L47.467,40H32.532L32.532,40z"/>
	</g>
</g>
</svg>