<?xml version="1.0" encoding="iso-8859-1"?><!-- Generator: Adobe Illustrator 19.2.1, SVG Export Plug-In . SVG Version: 6.00 Build 0)  --><svg xmlns="http://www.w3.org/2000/svg" xmlns:xlink="http://www.w3.org/1999/xlink" version="1.1" id="Layer_1" x="0px" y="0px" viewBox="0 0 30 30" style="enable-background:new 0 0 30 30;" xml:space="preserve" width="30" height="30">
<g>
	<path style="fill:#66798F;" d="M26,4v22H4V4H26 M27,3H3v24h24V3L27,3z"/>
</g>
<g>
	<g>
		<polygon style="fill:#B0C1D4;" points="11.5,22.5 11.5,21.066 13.5,20.623 13.5,10.5 10.109,10.5 9.609,12.5 8.5,12.5 8.5,8.5     21.5,8.5 21.5,12.5 20.391,12.5 19.891,10.5 16.5,10.5 16.5,20.623 18.5,21.066 18.5,22.5   "/>
	</g>
	<g>
		<path style="fill:#66798F;" d="M21,9v2v1h-0.219l-0.311-1.243L20.281,10H19.5H17h-1v1v9.222v0.803l0.784,0.174L18,21.467V22h-1h-4    h-1v-0.533l1.216-0.27L14,21.024v-0.803V11v-1h-1h-2.5H9.719L9.53,10.757L9.219,12H9v-1V9H21 M22,8H8v1v2v2h2l0.5-2H13v9.222    l-2,0.443V23h2h4h2v-2.335l-2-0.443V11h2.5l0.5,2h2v-2V9V8L22,8z"/>
	</g>
</g>
<g>
	<rect x="24.5" y="1.5" style="fill:#8BB7F0;" width="4" height="4"/>
	<g>
		<path style="fill:#4E7AB5;" d="M28,2v3h-3V2H28 M29,1h-5v5h5V1L29,1z"/>
	</g>
</g>
<g>
	<rect x="1.5" y="1.5" style="fill:#8BB7F0;" width="4" height="4"/>
	<g>
		<path style="fill:#4E7AB5;" d="M5,2v3H2V2H5 M6,1H1v5h5V1L6,1z"/>
	</g>
</g>
<g>
	<rect x="24.5" y="24.5" style="fill:#8BB7F0;" width="4" height="4"/>
	<g>
		<path style="fill:#4E7AB5;" d="M28,25v3h-3v-3H28 M29,24h-5v5h5V24L29,24z"/>
	</g>
</g>
<g>
	<rect x="1.5" y="24.5" style="fill:#8BB7F0;" width="4" height="4"/>
	<g>
		<path style="fill:#4E7AB5;" d="M5,25v3H2v-3H5 M6,24H1v5h5V24L6,24z"/>
	</g>
</g>
</svg>