<?xml version="1.0" encoding="iso-8859-1"?><!-- Generator: Adobe Illustrator 19.2.1, SVG Export Plug-In . SVG Version: 6.00 Build 0)  --><svg xmlns="http://www.w3.org/2000/svg" xmlns:xlink="http://www.w3.org/1999/xlink" version="1.1" id="Layer_1" x="0px" y="0px" viewBox="0 0 40 40" style="enable-background:new 0 0 40 40;" xml:space="preserve" width="40" height="40">
<g>
	<rect x="2.5" y="34.5" style="fill:#BAE0BD;" width="35" height="3"/>
	<g>
		<path style="fill:#5E9C76;" d="M37,35v2H3v-2H37 M38,34H2v4h36V34L38,34z"/>
	</g>
</g>
<g>
	<g>
		<path style="fill:#B0C1D4;" d="M27.537,31.5l-1.999-7H14.461l-1.998,7H7.059l9.726-29h6.66l9.502,29H27.537z M15.603,20.5h8.793    L20.501,6.855h-1.004L15.603,20.5z"/>
	</g>
	<g>
		<path style="fill:#66798F;" d="M23.082,3l9.174,28h-4.343l-1.791-6.274L25.915,24h-0.754H14.839h-0.755l-0.207,0.726L12.086,31    H7.754l9.39-28H23.082 M14.941,21h1.325h7.468h1.325l-0.364-1.274l-3.61-12.644l-0.207-0.725h-0.754h-0.249H19.12l-0.207,0.726    l-3.609,12.644L14.941,21 M23.807,2h-7.382L6.364,32h6.477l1.998-7h10.322l1.998,7h6.477L23.807,2L23.807,2z M16.266,20    l3.609-12.644h0.249L23.733,20H16.266L16.266,20z"/>
	</g>
</g>
</svg>