<?xml version="1.0" encoding="iso-8859-1"?><!-- Generator: Adobe Illustrator 19.2.1, SVG Export Plug-In . SVG Version: 6.00 Build 0)  --><svg xmlns="http://www.w3.org/2000/svg" xmlns:xlink="http://www.w3.org/1999/xlink" version="1.1" id="Layer_1" x="0px" y="0px" viewBox="0 0 16 16" style="enable-background:new 0 0 16 16;" xml:space="preserve" width="16" height="16">
<g>
	<path style="fill:#66798F;" d="M14,2v12H2V2H14 M15,1H1v14h14V1L15,1z"/>
</g>
<g>
	<g>
		<polygon style="fill:#66798F;" points="11,4 10.5,4 5.5,4 5,4 4,4 4,6 5,6 5.25,5 7,5 7,10.667 6,11 6,12 10,12 10,11 9,10.667     9,5 10.75,5 11,6 12,6 12,4   "/>
	</g>
</g>
<g>
	<rect x="13" style="fill:#4E7AB5;" width="3" height="3"/>
</g>
<g>
	<rect style="fill:#4E7AB5;" width="3" height="3"/>
</g>
<g>
	<rect x="13" y="13" style="fill:#4E7AB5;" width="3" height="3"/>
</g>
<g>
	<rect y="13" style="fill:#4E7AB5;" width="3" height="3"/>
</g>
</svg>