<?xml version="1.0" encoding="iso-8859-1"?><!-- Generator: Adobe Illustrator 19.2.1, SVG Export Plug-In . SVG Version: 6.00 Build 0)  --><svg xmlns="http://www.w3.org/2000/svg" xmlns:xlink="http://www.w3.org/1999/xlink" version="1.1" x="0px" y="0px" viewBox="0 0 40 40" style="enable-background:new 0 0 40 40;" xml:space="preserve" width="40" height="40">
<g id="Layer_1">
	<g>
		<rect x="15.5" y="2.5" style="fill:#C2E8FF;" width="9" height="9"/>
		<g>
			<path style="fill:#7496C4;" d="M24,3v8h-8V3H24 M25,2H15v10h10V2L25,2z"/>
		</g>
	</g>
	<g>
		<rect x="28.5" y="2.5" style="fill:#C2E8FF;" width="9" height="9"/>
		<g>
			<path style="fill:#7496C4;" d="M37,3v8h-8V3H37 M38,2H28v10h10V2L38,2z"/>
		</g>
	</g>
	<g>
		<rect x="2.5" y="2.5" style="fill:#C2E8FF;" width="9" height="9"/>
		<g>
			<path style="fill:#7496C4;" d="M11,3v8H3V3H11 M12,2H2v10h10V2L12,2z"/>
		</g>
	</g>
	<g>
		<rect x="15.5" y="28.5" style="fill:#C2E8FF;" width="9" height="9"/>
		<g>
			<path style="fill:#7496C4;" d="M24,29v8h-8v-8H24 M25,28H15v10h10V28L25,28z"/>
		</g>
	</g>
	<g>
		<rect x="28.5" y="28.5" style="fill:#C2E8FF;" width="9" height="9"/>
		<g>
			<path style="fill:#7496C4;" d="M37,29v8h-8v-8H37 M38,28H28v10h10V28L38,28z"/>
		</g>
	</g>
	<g>
		<rect x="2.5" y="28.5" style="fill:#C2E8FF;" width="9" height="9"/>
		<g>
			<path style="fill:#7496C4;" d="M11,29v8H3v-8H11 M12,28H2v10h10V28L12,28z"/>
		</g>
	</g>
	<g>
		<rect x="15.5" y="15.5" style="fill:#C2E8FF;" width="9" height="9"/>
		<g>
			<path style="fill:#7496C4;" d="M24,16v8h-8v-8H24 M25,15H15v10h10V15L25,15z"/>
		</g>
	</g>
	<g>
		<rect x="28.5" y="15.5" style="fill:#C2E8FF;" width="9" height="9"/>
		<g>
			<path style="fill:#7496C4;" d="M37,16v8h-8v-8H37 M38,15H28v10h10V15L38,15z"/>
		</g>
	</g>
	<g>
		<rect x="2.5" y="15.5" style="fill:#C2E8FF;" width="9" height="9"/>
		<g>
			<path style="fill:#7496C4;" d="M11,16v8H3v-8H11 M12,15H2v10h10V15L12,15z"/>
		</g>
	</g>
</g>
<g id="Layer_2">
</g>
</svg>