<?xml version="1.0" encoding="iso-8859-1"?><!-- Generator: Adobe Illustrator 19.2.1, SVG Export Plug-In . SVG Version: 6.00 Build 0)  --><svg xmlns="http://www.w3.org/2000/svg" xmlns:xlink="http://www.w3.org/1999/xlink" version="1.1" id="Layer_1" x="0px" y="0px" viewBox="0 0 30 30" style="enable-background:new 0 0 30 30;" xml:space="preserve" width="30" height="30">
<g>
	<rect x="11.5" y="11.5" style="fill:#C2E8FF;" width="7" height="7"/>
	<g>
		<path style="fill:#7496C4;" d="M18,12v6h-6v-6H18 M19,11h-8v8h8V11L19,11z"/>
	</g>
</g>
<g>
	<rect x="20.5" y="11.5" style="fill:#C2E8FF;" width="7" height="7"/>
	<g>
		<path style="fill:#7496C4;" d="M27,12v6h-6v-6H27 M28,11h-8v8h8V11L28,11z"/>
	</g>
</g>
<g>
	<rect x="2.5" y="11.5" style="fill:#C2E8FF;" width="7" height="7"/>
	<g>
		<path style="fill:#7496C4;" d="M9,12v6H3v-6H9 M10,11H2v8h8V11L10,11z"/>
	</g>
</g>
<g>
	<rect x="11.5" y="2.5" style="fill:#C2E8FF;" width="7" height="7"/>
	<g>
		<path style="fill:#7496C4;" d="M18,3v6h-6V3H18 M19,2h-8v8h8V2L19,2z"/>
	</g>
</g>
<g>
	<rect x="20.5" y="2.5" style="fill:#C2E8FF;" width="7" height="7"/>
	<g>
		<path style="fill:#7496C4;" d="M27,3v6h-6V3H27 M28,2h-8v8h8V2L28,2z"/>
	</g>
</g>
<g>
	<rect x="2.5" y="2.5" style="fill:#C2E8FF;" width="7" height="7"/>
	<g>
		<path style="fill:#7496C4;" d="M9,3v6H3V3H9 M10,2H2v8h8V2L10,2z"/>
	</g>
</g>
<g>
	<rect x="11.5" y="20.5" style="fill:#C2E8FF;" width="7" height="7"/>
	<g>
		<path style="fill:#7496C4;" d="M18,21v6h-6v-6H18 M19,20h-8v8h8V20L19,20z"/>
	</g>
</g>
<g>
	<rect x="20.5" y="20.5" style="fill:#C2E8FF;" width="7" height="7"/>
	<g>
		<path style="fill:#7496C4;" d="M27,21v6h-6v-6H27 M28,20h-8v8h8V20L28,20z"/>
	</g>
</g>
<g>
	<rect x="2.5" y="20.5" style="fill:#C2E8FF;" width="7" height="7"/>
	<g>
		<path style="fill:#7496C4;" d="M9,21v6H3v-6H9 M10,20H2v8h8V20L10,20z"/>
	</g>
</g>
</svg>