<?xml version="1.0" encoding="iso-8859-1"?><!-- Generator: Adobe Illustrator 19.2.1, SVG Export Plug-In . SVG Version: 6.00 Build 0)  --><svg xmlns="http://www.w3.org/2000/svg" xmlns:xlink="http://www.w3.org/1999/xlink" version="1.1" id="Layer_1" x="0px" y="0px" viewBox="0 0 80 80" style="enable-background:new 0 0 80 80;" xml:space="preserve" width="80" height="80">
<rect x="42" y="16" style="fill:#788B9C;" width="36" height="2"/>
<rect x="42" y="22" style="fill:#788B9C;" width="26" height="2"/>
<rect x="42" y="56" style="fill:#788B9C;" width="36" height="2"/>
<rect x="42" y="62" style="fill:#788B9C;" width="26" height="2"/>
<g>
	<rect x="2.5" y="4.5" style="fill:#FFC49C;" width="31" height="31"/>
	<g>
		<path style="fill:#A16A4A;" d="M33,5v30H3V5H33 M34,4H2v32h32V4L34,4z"/>
	</g>
</g>
<g>
	<rect x="2.5" y="44.5" style="fill:#BAE0BD;" width="31" height="31"/>
	<g>
		<path style="fill:#5E9C76;" d="M33,45v30H3V45H33 M34,44H2v32h32V44L34,44z"/>
	</g>
</g>
<polygon style="fill:#A16A4A;" points="24,20 18,25 26,35 33,35 33,28 "/>
<circle style="fill:#FFFFFF;" cx="26" cy="12" r="3"/>
<polygon style="fill:#E09367;" points="29,35 3,35 3,28 13,18 "/>
<path style="fill:#FFFFFF;" d="M18,60l-2.913-4.855C13.728,52.881,15.359,50,18,50h0c2.641,0,4.272,2.881,2.913,5.145L18,60z"/>
<path style="fill:#FFFFFF;" d="M18,60l2.913,4.855C22.272,67.119,20.641,70,18,70h0c-2.641,0-4.272-2.881-2.913-5.145L18,60z"/>
<path style="fill:#FFFFFF;" d="M20,61l-7.54-1.001c-2.64,0.044-4.319-2.808-2.999-5.095l0,0c1.32-2.287,4.631-2.259,5.912,0.05  L20,61z"/>
<path style="fill:#FFFFFF;" d="M17,59l6.54,1.001c2.64-0.044,4.319,2.808,2.999,5.095l0,0c-1.32,2.287-4.631,2.259-5.912-0.05L17,59  z"/>
<path style="fill:#FFFFFF;" d="M20,59l-4.627,6.046c-1.282,2.309-4.592,2.337-5.912,0.05l0,0c-1.32-2.287,0.359-5.14,2.999-5.095  L20,59z"/>
<path style="fill:#FFFFFF;" d="M16,61l4.627-6.046c1.282-2.309,4.592-2.337,5.912-0.05l0,0c1.32,2.287-0.359,5.14-2.999,5.095L16,61  z"/>
<circle style="fill:#FFEEA3;" cx="18" cy="60" r="4"/>
</svg>