<?xml version="1.0" encoding="iso-8859-1"?><!-- Generator: Adobe Illustrator 19.2.1, SVG Export Plug-In . SVG Version: 6.00 Build 0)  --><svg xmlns="http://www.w3.org/2000/svg" xmlns:xlink="http://www.w3.org/1999/xlink" version="1.1" x="0px" y="0px" viewBox="0 0 40 40" style="enable-background:new 0 0 40 40;" xml:space="preserve" width="40" height="40">
<g id="Layer_1">
	<g>
		<rect x="1.5" y="2.5" style="fill:#FFC49C;" width="15" height="15"/>
		<g>
			<path style="fill:#A16A4A;" d="M16,3v14H2V3H16 M17,2H1v16h16V2L17,2z"/>
		</g>
	</g>
	<g>
		<rect x="1.5" y="22.5" style="fill:#BAE0BD;" width="15" height="15"/>
		<g>
			<path style="fill:#5E9C76;" d="M16,23v14H2V23H16 M17,22H1v16h16V22L17,22z"/>
		</g>
	</g>
	<rect x="21" y="8" style="fill:#788B9C;" width="18" height="1"/>
	<rect x="21" y="11" style="fill:#788B9C;" width="13" height="1"/>
	<rect x="21" y="28" style="fill:#788B9C;" width="18" height="1"/>
	<rect x="21" y="31" style="fill:#788B9C;" width="13" height="1"/>
	<polygon style="fill:#A16A4A;" points="11.897,9.894 9,12.584 12.985,17 16,17 16,13.712  "/>
	<circle style="fill:#FFFFFF;" cx="13" cy="6" r="1"/>
	<polygon style="fill:#E09367;" points="13.849,17 2,17 2,13.5 6.667,8.833  "/>
	<path style="fill:#FFFFFF;" d="M9,30l-1.457-2.428C6.864,26.44,7.68,25,9,25h0c1.32,0,2.136,1.44,1.457,2.572L9,30z"/>
	<path style="fill:#FFFFFF;" d="M9,30l1.457,2.428C11.136,33.56,10.32,35,9,35h0c-1.32,0-2.136-1.44-1.457-2.572L9,30z"/>
	<path style="fill:#FFFFFF;" d="M9,30l-2.831,0.048c-1.32,0.022-2.16-1.404-1.5-2.548l0,0c0.66-1.143,2.315-1.129,2.956,0.025L9,30z   "/>
	<path style="fill:#FFFFFF;" d="M9,30l2.831-0.048c1.32-0.022,2.16,1.404,1.5,2.548l0,0c-0.66,1.143-2.315,1.129-2.956-0.025L9,30z"/>
	<path style="fill:#FFFFFF;" d="M9,30l-1.374,2.475C6.985,33.629,5.33,33.643,4.67,32.5l0,0c-0.66-1.143,0.179-2.57,1.5-2.548L9,30z   "/>
	<path style="fill:#FFFFFF;" d="M9,30l1.374-2.475c0.641-1.154,2.296-1.168,2.956-0.025l0,0c0.66,1.143-0.179,2.57-1.5,2.548L9,30z"/>
	<circle style="fill:#FFEEA3;" cx="9" cy="30" r="2"/>
</g>
<g id="Layer_2">
</g>
</svg>