<?xml version="1.0" encoding="iso-8859-1"?><!-- Generator: Adobe Illustrator 19.2.1, SVG Export Plug-In . SVG Version: 6.00 Build 0)  --><svg xmlns="http://www.w3.org/2000/svg" xmlns:xlink="http://www.w3.org/1999/xlink" version="1.1" id="Layer_1" x="0px" y="0px" viewBox="0 0 30 30" style="enable-background:new 0 0 30 30;" xml:space="preserve" width="30" height="30">
<g>
	<g>
		<polygon style="fill:#FFEEA3;" points="9,21.903 1.5,24.314 1.5,3.936 9,1.525 17,4.097 24.5,1.686 24.5,22.064 17,24.475   "/>
	</g>
	<g>
		<path style="fill:#BA9B48;" d="M9,2.05l7.694,2.473L17,4.622l0.306-0.098L24,2.372V21.7l-7,2.25l-7.694-2.473L9,21.378    l-0.306,0.098L2,23.628V4.3L9,2.05 M25,1l-8,2.571L9,1L1,3.571V25l8-2.571L17,25l8-2.571V1L25,1z"/>
	</g>
</g>
<path style="fill:#FFFFFF;" d="M17,23.949L9,21.38V2.063l8,2.559V23.949z"/>
<g>
	<path style="fill:#8BB7F0;" d="M18,28.5c-5.79,0-10.5-4.71-10.5-10.5S12.21,7.5,18,7.5S28.5,12.21,28.5,18S23.79,28.5,18,28.5z"/>
	<g>
		<path style="fill:#4E7AB5;" d="M18,8c5.514,0,10,4.486,10,10s-4.486,10-10,10S8,23.514,8,18S12.486,8,18,8 M18,7    C11.925,7,7,11.925,7,18s4.925,11,11,11s11-4.925,11-11S24.075,7,18,7L18,7z"/>
	</g>
</g>
<g>
	<path style="fill:#FFFFFF;" d="M18,26.5c-4.687,0-8.5-3.813-8.5-8.5s3.813-8.5,8.5-8.5s8.5,3.813,8.5,8.5S22.687,26.5,18,26.5z"/>
	<g>
		<path style="fill:#4E7AB5;" d="M18,10c4.411,0,8,3.589,8,8s-3.589,8-8,8s-8-3.589-8-8S13.589,10,18,10 M18,9c-4.971,0-9,4.029-9,9    s4.029,9,9,9s9-4.029,9-9S22.971,9,18,9L18,9z"/>
	</g>
</g>
<polyline style="fill:none;stroke:#66798F;stroke-linecap:round;stroke-miterlimit:10;" points="21.865,12.288 18,18 21.231,21.231   "/>
<g>
	<circle style="fill:#66798F;" cx="18" cy="18" r="1"/>
</g>
</svg>