<?xml version="1.0" encoding="iso-8859-1"?><!-- Generator: Adobe Illustrator 19.2.1, SVG Export Plug-In . SVG Version: 6.00 Build 0)  --><svg xmlns="http://www.w3.org/2000/svg" xmlns:xlink="http://www.w3.org/1999/xlink" version="1.1" id="Layer_1" x="0px" y="0px" viewBox="0 0 40 40" style="enable-background:new 0 0 40 40;" xml:space="preserve" width="40" height="40">
<g>
	<g>
		<polygon style="fill:#FFEEA3;" points="12.008,29.045 1.5,32.32 1.5,4.796 11.992,1.526 21.992,4.955 32.5,1.68 32.5,29.204     22.008,32.474   "/>
	</g>
	<g>
		<path style="fill:#BA9B48;" d="M11.985,2.052l9.69,3.322l0.31,0.106l0.312-0.097L32,2.359v26.477l-9.985,3.112l-9.69-3.322    l-0.31-0.106l-0.312,0.097L2,31.641V5.164L11.985,2.052 M33,1L22,4.429L12,1L1,4.429V33l11-3.429L22,33l11-3.429V1L33,1z"/>
	</g>
</g>
<path style="fill:#FFFFFF;" d="M22,31.937l-10-3.438V2.055L22,5.48V31.937z"/>
<g>
	<path style="fill:#8BB7F0;" d="M24,38.5c-7.995,0-14.5-6.505-14.5-14.5S16.005,9.5,24,9.5S38.5,16.005,38.5,24S31.995,38.5,24,38.5   z"/>
	<g>
		<path style="fill:#4E7AB5;" d="M24,10c7.72,0,14,6.28,14,14s-6.28,14-14,14s-14-6.28-14-14S16.28,10,24,10 M24,9    C15.716,9,9,15.716,9,24s6.716,15,15,15s15-6.716,15-15S32.284,9,24,9L24,9z"/>
	</g>
</g>
<g>
	<path style="fill:#FFFFFF;" d="M24,35.5c-6.341,0-11.5-5.159-11.5-11.5S17.659,12.5,24,12.5S35.5,17.659,35.5,24   S30.341,35.5,24,35.5z"/>
	<g>
		<path style="fill:#4E7AB5;" d="M24,13c6.065,0,11,4.935,11,11s-4.935,11-11,11s-11-4.935-11-11S17.935,13,24,13 M24,12    c-6.627,0-12,5.373-12,12s5.373,12,12,12s12-5.373,12-12S30.627,12,24,12L24,12z"/>
	</g>
</g>
<polyline style="fill:none;stroke:#66798F;stroke-linecap:round;stroke-miterlimit:10;" points="29.271,16.212 24,24 28.406,28.406   "/>
<g>
	<circle style="fill:#66798F;" cx="24" cy="24" r="1.5"/>
</g>
</svg>