<?xml version="1.0" encoding="iso-8859-1"?><!-- Generator: Adobe Illustrator 19.2.1, SVG Export Plug-In . SVG Version: 6.00 Build 0)  --><svg xmlns="http://www.w3.org/2000/svg" xmlns:xlink="http://www.w3.org/1999/xlink" version="1.1" id="Layer_1" x="0px" y="0px" viewBox="0 0 16 16" style="enable-background:new 0 0 16 16;" xml:space="preserve" width="16" height="16">
<g>
	<circle style="fill:#FFFFFF;" cx="7.5" cy="7.5" r="7"/>
	<g>
		<path style="fill:#4E7AB5;" d="M7.5,1C11.084,1,14,3.916,14,7.5S11.084,14,7.5,14S1,11.084,1,7.5S3.916,1,7.5,1 M7.5,0    C3.358,0,0,3.358,0,7.5S3.358,15,7.5,15S15,11.642,15,7.5S11.642,0,7.5,0L7.5,0z"/>
	</g>
</g>
<g>
	<path style="fill:#FFC49C;" d="M7.5,7.5V1C5.836,1,4.173,1.635,2.904,2.904L7.5,7.5z"/>
</g>
<polyline style="fill:none;stroke:#66798F;stroke-linecap:round;stroke-miterlimit:10;" points="3.75,3.75 7.5,7.5 5.357,10.179 "/>
<g>
	<circle style="fill:#66798F;" cx="7.5" cy="7.5" r="1"/>
</g>
</svg>