<?xml version="1.0" encoding="iso-8859-1"?><!-- Generator: Adobe Illustrator 19.2.1, SVG Export Plug-In . SVG Version: 6.00 Build 0)  --><svg xmlns="http://www.w3.org/2000/svg" xmlns:xlink="http://www.w3.org/1999/xlink" version="1.1" id="Layer_1" x="0px" y="0px" viewBox="0 0 16 16" style="enable-background:new 0 0 16 16;" xml:space="preserve" width="16" height="16">
<g>
	<g>
		<polygon style="fill:#FFEEA3;" points="5.018,11.973 0.5,13.328 0.5,1.872 4.982,0.527 8.982,2.027 13.5,0.672 13.5,12.128     9.018,13.473   "/>
	</g>
	<g>
		<path style="fill:#BA9B48;" d="M4.964,1.055l3.684,1.382l0.316,0.118l0.323-0.097L13,1.344v10.412l-3.964,1.189l-3.684-1.382    l-0.316-0.118l-0.323,0.097L1,12.656V2.244L4.964,1.055 M14,0L9,1.5L5,0L0,1.5V14l5-1.5L9,14l5-1.5V0L14,0z"/>
	</g>
</g>
<path style="fill:#FFFFFF;" d="M9,12.928l-4-1.513V1.059l4,1.507V12.928z"/>
<g>
	<circle style="fill:#FFFFFF;" cx="9" cy="9" r="6.5"/>
	<g>
		<path style="fill:#4E7AB5;" d="M9,3c3.308,0,6,2.692,6,6s-2.692,6-6,6s-6-2.692-6-6S5.692,3,9,3 M9,2C5.134,2,2,5.134,2,9    c0,3.866,3.134,7,7,7s7-3.134,7-7C16,5.134,12.866,2,9,2L9,2z"/>
	</g>
</g>
<polyline style="fill:none;stroke:#66798F;stroke-linecap:round;stroke-miterlimit:10;" points="11.64,5.034 9,9 11.513,11.513 "/>
<g>
	<circle style="fill:#66798F;" cx="9" cy="9" r="1"/>
</g>
</svg>