<?xml version="1.0" encoding="iso-8859-1"?><!-- Generator: Adobe Illustrator 19.2.1, SVG Export Plug-In . SVG Version: 6.00 Build 0)  --><svg xmlns="http://www.w3.org/2000/svg" xmlns:xlink="http://www.w3.org/1999/xlink" version="1.1" id="Layer_1" x="0px" y="0px" viewBox="0 0 40 40" style="enable-background:new 0 0 40 40;" xml:space="preserve" width="40" height="40">
<g>
	<path style="fill:#8BB7F0;" d="M20,38.5C9.799,38.5,1.5,30.201,1.5,20S9.799,1.5,20,1.5S38.5,9.799,38.5,20S30.201,38.5,20,38.5z"/>
	<g>
		<path style="fill:#4E7AB5;" d="M20,2c9.925,0,18,8.075,18,18s-8.075,18-18,18S2,29.925,2,20S10.075,2,20,2 M20,1    C9.507,1,1,9.507,1,20s8.507,19,19,19s19-8.507,19-19S30.493,1,20,1L20,1z"/>
	</g>
</g>
<g>
	<path style="fill:#FFFFFF;" d="M20,35.5c-8.547,0-15.5-6.953-15.5-15.5S11.453,4.5,20,4.5S35.5,11.453,35.5,20S28.547,35.5,20,35.5   z"/>
	<g>
		<path style="fill:#4E7AB5;" d="M20,5c8.271,0,15,6.729,15,15s-6.729,15-15,15S5,28.271,5,20S11.729,5,20,5 M20,4    C11.163,4,4,11.163,4,20s7.163,16,16,16s16-7.163,16-16S28.837,4,20,4L20,4z"/>
	</g>
</g>
<g>
	<path style="fill:#FFC49C;" d="M20,20V5c-3.839,0-7.678,1.465-10.607,4.393L20,20z"/>
</g>
<polyline style="fill:none;stroke:#66798F;stroke-width:2;stroke-linecap:round;stroke-miterlimit:10;" points="10.5,10.5 20,20   14.571,26.786 "/>
<g>
	<circle style="fill:#66798F;" cx="20" cy="20" r="2"/>
</g>
</svg>