<?xml version="1.0" encoding="iso-8859-1"?><!-- Generator: Adobe Illustrator 19.2.1, SVG Export Plug-In . SVG Version: 6.00 Build 0)  --><svg xmlns="http://www.w3.org/2000/svg" xmlns:xlink="http://www.w3.org/1999/xlink" version="1.1" id="Layer_1" x="0px" y="0px" viewBox="0 0 30 30" style="enable-background:new 0 0 30 30;" xml:space="preserve" width="30" height="30">
<g>
	<path style="fill:#8BB7F0;" d="M8,22.5c-4.136,0-7.5-3.364-7.5-7.5S3.864,7.5,8,7.5h14c4.136,0,7.5,3.364,7.5,7.5   s-3.364,7.5-7.5,7.5H8z"/>
	<g>
		<path style="fill:#4E7AB5;" d="M22,8c3.86,0,7,3.14,7,7c0,3.86-3.14,7-7,7H8c-3.86,0-7-3.14-7-7s3.14-7,7-7H22 M22,7H8    c-4.418,0-8,3.582-8,8v0c0,4.418,3.582,8,8,8h14c4.418,0,8-3.582,8-8v0C30,10.582,26.418,7,22,7L22,7z"/>
	</g>
</g>
<circle style="fill:#FFFFFF;" cx="22" cy="15" r="6"/>
</svg>