<?xml version="1.0" encoding="iso-8859-1"?><!-- Generator: Adobe Illustrator 19.2.1, SVG Export Plug-In . SVG Version: 6.00 Build 0)  --><svg xmlns="http://www.w3.org/2000/svg" xmlns:xlink="http://www.w3.org/1999/xlink" version="1.1" id="Layer_1" x="0px" y="0px" viewBox="0 0 16 16" style="enable-background:new 0 0 16 16;" xml:space="preserve" width="16" height="16">
<g>
	<path style="fill:#8BB7F0;" d="M5,12.5c-2.481,0-4.5-2.019-4.5-4.5S2.519,3.5,5,3.5h6c2.481,0,4.5,2.019,4.5,4.5   s-2.019,4.5-4.5,4.5H5z"/>
	<g>
		<path style="fill:#4E7AB5;" d="M11,4c2.206,0,4,1.794,4,4s-1.794,4-4,4H5c-2.206,0-4-1.794-4-4s1.794-4,4-4H11 M11,3H5    C2.239,3,0,5.239,0,8s2.239,5,5,5h6c2.761,0,5-2.239,5-5S13.761,3,11,3L11,3z"/>
	</g>
</g>
<path style="fill:#FFFFFF;" d="M11,11L11,11c1.657,0,3-1.343,3-3v0c0-1.657-1.343-3-3-3h0C9.343,5,8,6.343,8,8v0  C8,9.657,9.343,11,11,11z"/>
</svg>