<?xml version="1.0" encoding="iso-8859-1"?><!-- Generator: Adobe Illustrator 19.2.1, SVG Export Plug-In . SVG Version: 6.00 Build 0)  --><svg xmlns="http://www.w3.org/2000/svg" xmlns:xlink="http://www.w3.org/1999/xlink" version="1.1" id="Layer_1" x="0px" y="0px" viewBox="0 0 80 80" style="enable-background:new 0 0 80 80;" xml:space="preserve" width="80" height="80">
<g>
	<path style="fill:#C2E8FF;" d="M10.506,71.5c0.273-11.625,10.034-21,21.994-21h15c11.96,0,21.721,9.375,21.994,21H10.506z"/>
	<g>
		<path style="fill:#7496C4;" d="M47.5,51c11.512,0,20.94,8.883,21.476,20H11.024C11.56,59.883,20.988,51,32.5,51H47.5 M47.5,50h-15    C20.074,50,10,59.85,10,72h60C70,59.85,59.926,50,47.5,50L47.5,50z"/>
	</g>
</g>
<g>
	<path style="fill:#E8D47B;" d="M40,57.5c-6.624,0-9.203-5.908-9.5-6.65v-11.53h19v11.532C49.193,51.641,46.685,57.5,40,57.5z"/>
	<path style="fill:#BA9B48;" d="M49,39.819v10.936C48.593,51.748,46.151,57,40,57c-6.155,0-8.596-5.257-9-6.245V39.819H49    M50,38.819H30v12.124c0,0,2.534,7.057,10,7.057s10-7.057,10-7.057V38.819L50,38.819z"/>
</g>
<g>
	<g>
		<path style="fill:#E8D47B;" d="M52.857,35.786c-2.56,0-4.643-2.083-4.643-4.644c0-2.56,2.083-4.643,4.643-4.643    c3.298,0,4.643,0.849,4.643,2.929C57.5,31.939,55.42,35.786,52.857,35.786z M27.143,35.786c-2.563,0-4.643-3.847-4.643-6.357    c0-2.08,1.345-2.929,4.643-2.929c2.56,0,4.643,2.083,4.643,4.643C31.786,33.703,29.703,35.786,27.143,35.786z"/>
	</g>
	<g>
		<path style="fill:#BA9B48;" d="M52.857,27C56.307,27,57,27.929,57,29.429c0,2.503-2.048,5.857-4.143,5.857    c-2.284,0-4.143-1.859-4.143-4.143S50.573,27,52.857,27 M27.143,27c2.284,0,4.143,1.858,4.143,4.143s-1.858,4.143-4.143,4.143    c-2.095,0-4.143-3.354-4.143-5.857C23,27.929,23.693,27,27.143,27 M52.857,26c-2.84,0-5.143,2.302-5.143,5.143    s2.303,5.143,5.143,5.143c2.84,0,5.143-4.017,5.143-6.857C58,26.588,55.697,26,52.857,26L52.857,26z M27.143,26    C24.303,26,22,26.588,22,29.429c0,2.84,2.303,6.857,5.143,6.857c2.84,0,5.143-2.303,5.143-5.143S29.983,26,27.143,26L27.143,26z"/>
	</g>
</g>
<g>
	<g>
		<path style="fill:#FFEEA3;" d="M40,49.5c-1.3,0-2.535-0.498-3.477-1.402l-0.09-0.087l-0.12-0.034    C30.535,46.339,26.5,41.002,26.5,35V18.728c0-3.403,2.769-6.172,6.172-6.172h14.655c3.403,0,6.172,2.769,6.172,6.172V35    c0,6.002-4.035,11.339-9.813,12.977l-0.12,0.034l-0.09,0.087C42.535,49.002,41.3,49.5,40,49.5z"/>
	</g>
	<g>
		<path style="fill:#BA9B48;" d="M47.328,13.056c3.128,0,5.672,2.545,5.672,5.672V35c0,5.779-3.886,10.918-9.449,12.496l-0.24,0.068    l-0.18,0.173C42.282,48.551,41.17,49,40,49s-2.282-0.449-3.131-1.263l-0.18-0.173l-0.24-0.068C30.886,45.918,27,40.779,27,35    V18.728c0-3.128,2.545-5.672,5.672-5.672H47.328 M47.328,12.056H32.672c-3.685,0-6.672,2.987-6.672,6.672V35    c0,6.405,4.306,11.793,10.177,13.458C37.17,49.411,38.515,50,40,50s2.83-0.589,3.823-1.542C49.694,46.793,54,41.405,54,35V18.728    C54,15.043,51.013,12.056,47.328,12.056L47.328,12.056z"/>
	</g>
</g>
<g>
	<path style="fill:#B0C1D4;" d="M52.5,31.5V24c0-6.634-4.136-8.392-4.312-8.463l-0.343-0.14l-0.234,0.288   c-0.047,0.058-4.797,5.813-11.611,5.813c-0.533,0-1.07-0.018-1.598-0.034c-0.524-0.017-1.041-0.033-1.539-0.033   c-2.785,0-5.363,0.554-5.363,4.568v5.5h-1.217c-0.701-1.192-3.783-6.755-3.783-12.348C22.5,9.348,29.696,2.5,40,2.5   c6.49,0,9.527,5.674,9.557,5.731l0.119,0.228l0.254,0.036C55.094,9.235,57.5,12.891,57.5,20c0,5.077-3.073,10.358-3.776,11.5H52.5z   "/>
	<g>
		<path style="fill:#66798F;" d="M40,3c6.155,0,8.997,5.242,9.114,5.463l0.237,0.454l0.507,0.073C52.924,9.429,57,11.048,57,20    c0,4.657-2.676,9.523-3.558,11H53v-7c0-6.967-4.435-8.85-4.623-8.926l-0.687-0.279l-0.467,0.577C47.177,15.427,42.592,21,36,21    c-0.528,0-1.059-0.017-1.583-0.034c-0.529-0.017-1.051-0.033-1.555-0.033c-1.754,0-5.862,0-5.862,5.068v5h-0.43    C25.689,29.455,23,24.316,23,19.152C23,9.642,29.991,3,40,3 M40,2C29.281,2,22,9.333,22,19.152C22,25.656,26,32,26,32h2    c0,0,0-4.211,0-6c0-3.582,2.17-4.068,4.862-4.068C33.864,21.932,34.938,22,36,22c7.146,0,12-6,12-6s4,1.626,4,8c0,1.968,0,8,0,8h2    c0,0,4-6.073,4-12c0-8.322-3.405-11.342-8-12C50,8,46.868,2,40,2L40,2z"/>
	</g>
</g>
<rect x="26" y="67.143" style="fill:#C2E8FF;" width="28" height="4.857"/>
<path style="fill:#36404D;" d="M50,78H30c-1.105,0-2-0.895-2-2V64c0-1.105,0.895-2,2-2h20c1.105,0,2,0.895,2,2v12  C52,77.105,51.105,78,50,78z"/>
<polygon style="fill:#36404D;" points="47,68 33,68 34.75,60 45.25,60 "/>
<g>
	<circle style="fill:#DCD5F2;" cx="40" cy="70" r="5"/>
</g>
</svg>