<?xml version="1.0" encoding="iso-8859-1"?><!-- Generator: Adobe Illustrator 19.2.1, SVG Export Plug-In . SVG Version: 6.00 Build 0)  --><svg xmlns="http://www.w3.org/2000/svg" xmlns:xlink="http://www.w3.org/1999/xlink" version="1.1" id="Layer_1" x="0px" y="0px" viewBox="0 0 30 30" style="enable-background:new 0 0 30 30;" xml:space="preserve" width="30" height="30">
<g>
	<path style="fill:#C2E8FF;" d="M4.517,26.5c0.258-3.903,3.516-7,7.483-7h6c3.967,0,7.225,3.097,7.483,7H4.517z"/>
	<g>
		<path style="fill:#7496C4;" d="M18,20c3.52,0,6.442,2.612,6.929,6H5.071C5.558,22.612,8.48,20,12,20H18 M18,19h-6    c-4.418,0-8,3.582-8,8h22C26,22.582,22.418,19,18,19L18,19z"/>
	</g>
</g>
<g>
	<path style="fill:#E8D47B;" d="M15,20.5c-2.283,0-3.055-1.279-3.214-1.605v-3.823h6.429v3.824C18.058,19.215,17.288,20.5,15,20.5z"/>
	<path style="fill:#BA9B48;" d="M17.714,15.571v3.201C17.519,19.102,16.818,20,15,20c-1.815,0-2.518-0.9-2.714-1.229v-3.199H17.714    M18.714,14.571h-7.429V19c0,0,0.742,2,3.714,2c2.973,0,3.714-2,3.714-2V14.571L18.714,14.571z"/>
</g>
<g>
	<g>
		<path style="fill:#E8D47B;" d="M20,13.5c-0.827,0-1.5-0.609-1.5-1.357s0.673-1.357,1.5-1.357c1.5,0,1.5,0.444,1.5,0.738    C21.5,12.35,20.744,13.5,20,13.5z M10,13.5c-0.744,0-1.5-1.15-1.5-1.977c0-0.294,0-0.738,1.5-0.738c0.827,0,1.5,0.609,1.5,1.357    S10.827,13.5,10,13.5z"/>
	</g>
	<g>
		<path style="fill:#BA9B48;" d="M20,11.285c0.787,0,0.978,0.131,0.988,0.131c0,0,0,0,0,0C20.99,11.421,21,11.451,21,11.523    C21,12.131,20.411,13,20,13c-0.551,0-1-0.385-1-0.857S19.449,11.285,20,11.285 M10,11.285c0.551,0,1,0.385,1,0.857    S10.551,13,10,13c-0.411,0-1-0.869-1-1.476c0-0.056,0.006-0.087,0.004-0.093C9.042,11.404,9.251,11.285,10,11.285 M20,10.285    c-1.105,0-2,0.831-2,1.857S18.895,14,20,14s2-1.451,2-2.476C22,10.498,21.105,10.285,20,10.285L20,10.285z M10,10.285    c-1.105,0-2,0.212-2,1.238C8,12.549,8.895,14,10,14s2-0.831,2-1.857S11.105,10.285,10,10.285L10,10.285z"/>
	</g>
</g>
<g>
	<g>
		<path style="fill:#FFEEA3;" d="M15,18.5c-0.383,0-0.738-0.16-1.001-0.451l-0.11-0.122l-0.162-0.033    C11.277,17.398,9.5,15.222,9.5,12.718V6.553c0-1.244,1.012-2.256,2.255-2.256h6.489c1.244,0,2.255,1.012,2.255,2.256v6.165    c0,2.504-1.777,4.681-4.227,5.176l-0.162,0.033l-0.11,0.122C15.738,18.34,15.383,18.5,15,18.5z"/>
	</g>
	<g>
		<path style="fill:#BA9B48;" d="M18.245,4.797C19.212,4.797,20,5.585,20,6.553v6.165c0,2.266-1.609,4.237-3.826,4.686l-0.322,0.065    l-0.221,0.244C15.534,17.82,15.323,18,15,18s-0.534-0.18-0.631-0.287l-0.221-0.244l-0.322-0.065    C11.609,16.955,10,14.984,10,12.718V6.553c0-0.968,0.788-1.755,1.755-1.755H18.245 M18.245,3.797h-6.489    C10.234,3.797,9,5.031,9,6.553v6.165c0,2.798,1.987,5.131,4.627,5.666C13.967,18.76,14.454,19,15,19s1.033-0.24,1.373-0.616    C19.013,17.849,21,15.516,21,12.718V6.553C21,5.031,19.766,3.797,18.245,3.797L18.245,3.797z"/>
	</g>
</g>
<g>
	<path style="fill:#B0C1D4;" d="M20.5,12.499v-1.777c0-2.7-2.081-4.563-2.169-4.642l-0.345-0.304l-0.332,0.317   C17.641,6.106,16.114,7.5,12.9,7.5c-2.065,0-3.4,1.321-3.4,3.366v1.633H9.39C9.144,11.5,8.5,8.771,8.5,7.606   C8.5,3.896,11.051,1.5,15,1.5c1.715,0,2.889,1.494,2.901,1.509l0.15,0.194h0.246c1.108,0,3.204,0.857,3.204,4.103   c0,1.825-0.627,4.285-0.877,5.193H20.5z"/>
	<g>
		<path style="fill:#66798F;" d="M15,2c1.449,0,2.498,1.306,2.505,1.315l0.3,0.388h0.491C19.232,3.703,21,4.456,21,7.306    c0,0.612-0.074,1.302-0.181,1.978c-0.535-2.127-2.079-3.51-2.158-3.579L17.979,5.12l-0.662,0.605C17.26,5.777,15.886,7,12.9,7    c-1.807,0-3.155,0.932-3.67,2.428C9.096,8.697,9,8.027,9,7.606C9,4.201,11.355,2,15,2 M15,1c-4.295,0-7,2.714-7,6.606    C8,9.12,9,13,9,13h1c0,0,0-1.417,0-2.133C10,8.901,11.334,8,12.9,8C16.385,8,18,6.455,18,6.455s2,1.761,2,4.267    C20,11.509,20,13,20,13h1c0,0,1-3.323,1-5.694c0-3.329-2.139-4.603-3.703-4.603C18.297,2.703,16.98,1,15,1L15,1z"/>
	</g>
</g>
<rect x="9" y="25" style="fill:#C2E8FF;" width="12" height="2"/>
<path style="fill:#36404D;" d="M19,29h-8c-0.552,0-1-0.448-1-1v-4c0-0.552,0.448-1,1-1h8c0.552,0,1,0.448,1,1v4  C20,28.552,19.552,29,19,29z"/>
<polygon style="fill:#36404D;" points="18,25 12,25 13,22 17,22 "/>
<g>
	<circle style="fill:#DCD5F2;" cx="15" cy="26" r="2"/>
</g>
</svg>