<?xml version="1.0" encoding="iso-8859-1"?><!-- Generator: Adobe Illustrator 19.2.1, SVG Export Plug-In . SVG Version: 6.00 Build 0)  --><svg xmlns="http://www.w3.org/2000/svg" xmlns:xlink="http://www.w3.org/1999/xlink" version="1.1" id="Layer_1" x="0px" y="0px" viewBox="0 0 40 40" style="enable-background:new 0 0 40 40;" xml:space="preserve" width="40" height="40">
<g>
	<path style="fill:#C2E8FF;" d="M5.512,35.5c0.268-5.559,4.982-10,10.738-10h7.5c5.756,0,10.47,4.441,10.738,10H5.512z"/>
	<g>
		<path style="fill:#7496C4;" d="M23.75,26c5.306,0,9.683,3.954,10.199,9H6.051c0.516-5.046,4.893-9,10.199-9H23.75 M23.75,25h-7.5    C10.037,25,5,29.925,5,36h30C35,29.925,29.963,25,23.75,25L23.75,25z"/>
	</g>
</g>
<g>
	<path style="fill:#E8D47B;" d="M20,28.5c-3.076,0-4.296-2.625-4.5-3.122v-5.469h9v5.469C24.296,25.875,23.076,28.5,20,28.5z"/>
	<path style="fill:#BA9B48;" d="M24,20.41v4.865C23.737,25.865,22.607,28,20,28c-2.611,0-3.741-2.141-4-2.725V20.41H24 M25,19.41H15   v6.062c0,0,1.267,3.529,5,3.529c3.733,0,5-3.529,5-3.529V19.41L25,19.41z"/>
</g>
<g>
	<g>
		<path style="fill:#E8D47B;" d="M26.429,17.643c-1.143,0-2.072-0.929-2.072-2.071s0.929-2.071,2.072-2.071    c1.725,0,2.071,0.465,2.071,1.214C28.5,15.966,27.476,17.643,26.429,17.643z M13.571,17.643c-1.047,0-2.071-1.677-2.071-2.929    c0-0.749,0.347-1.214,2.071-1.214c1.143,0,2.072,0.929,2.072,2.071S14.714,17.643,13.571,17.643z"/>
	</g>
	<g>
		<path style="fill:#BA9B48;" d="M26.429,14C28,14,28,14.363,28,14.714c0,1.044-0.896,2.429-1.571,2.429    c-0.867,0-1.571-0.705-1.571-1.571S25.562,14,26.429,14 M13.571,14c0.867,0,1.571,0.705,1.571,1.571s-0.705,1.571-1.571,1.571    c-0.676,0-1.571-1.384-1.571-2.429C12,14.363,12,14,13.571,14 M26.429,13c-1.42,0-2.571,1.151-2.571,2.571    s1.151,2.571,2.571,2.571c1.42,0,2.571-2.008,2.571-3.429S27.849,13,26.429,13L26.429,13z M13.571,13    C12.151,13,11,13.294,11,14.714s1.151,3.429,2.571,3.429c1.42,0,2.571-1.151,2.571-2.571S14.992,13,13.571,13L13.571,13z"/>
	</g>
</g>
<g>
	<g>
		<path style="fill:#FFEEA3;" d="M20,24.5c-0.581,0-1.134-0.224-1.56-0.631l-0.09-0.086l-0.12-0.034    c-2.785-0.786-4.73-3.356-4.73-6.249V9.364c0-1.564,1.272-2.837,2.836-2.837h7.328c1.564,0,2.836,1.272,2.836,2.837V17.5    c0,2.893-1.945,5.463-4.73,6.249l-0.12,0.034l-0.09,0.086C21.134,24.276,20.581,24.5,20,24.5z"/>
	</g>
	<g>
		<path style="fill:#BA9B48;" d="M23.664,7.028C24.952,7.028,26,8.076,26,9.364V17.5c0,2.67-1.796,5.042-4.367,5.768l-0.239,0.068    l-0.18,0.172C20.882,23.825,20.451,24,20,24s-0.882-0.175-1.215-0.492l-0.18-0.172l-0.239-0.068C15.796,22.542,14,20.17,14,17.5    V9.364c0-1.288,1.048-2.336,2.336-2.336H23.664 M23.664,6.028h-7.328C14.494,6.028,13,7.521,13,9.364V17.5    c0,3.205,2.156,5.9,5.095,6.731C18.591,24.705,19.26,25,20,25s1.409-0.295,1.905-0.769C24.844,23.4,27,20.705,27,17.5V9.364    C27,7.521,25.506,6.028,23.664,6.028L23.664,6.028z"/>
	</g>
</g>
<g>
	<path style="fill:#B0C1D4;" d="M26.5,15.5V12c0-3.484-2.217-4.425-2.312-4.463l-0.342-0.14l-0.234,0.287   C23.589,7.713,21.283,10.5,18,10.5c-0.264,0-0.53-0.009-0.791-0.017c-0.265-0.009-0.526-0.017-0.778-0.017   c-0.877,0-2.931,0-2.931,2.533v2.5h-0.214c-0.44-0.773-1.786-3.349-1.786-5.924C11.5,4.821,14.995,1.5,20,1.5   c3.078,0,4.499,2.621,4.557,2.732l0.119,0.226l0.253,0.037C26.462,4.715,28.5,5.524,28.5,10c0,2.334-1.337,4.763-1.778,5.5H26.5z"/>
	<g>
		<path style="fill:#66798F;" d="M20,2c2.762,0,4.062,2.367,4.114,2.463l0.237,0.454l0.507,0.073C26.321,5.199,28,5.958,28,10    c0,1.395-0.515,2.842-1,3.894V12c0-3.816-2.516-4.883-2.623-4.926l-0.685-0.275l-0.467,0.57C23.203,7.395,21.035,10,18,10    c-0.259,0-0.519-0.008-0.775-0.017c-0.27-0.009-0.537-0.017-0.794-0.017C15.582,9.966,13,9.966,13,13v0.801    c-0.486-1.124-1-2.679-1-4.225C12,5.115,15.29,2,20,2 M20,1c-5.36,0-9,3.667-9,8.576C11,12.828,13,16,13,16h1c0,0,0-2.105,0-3    c0-1.791,1.085-2.034,2.431-2.034C16.932,10.966,17.469,11,18,11c3.573,0,6-3,6-3s2,0.813,2,4c0,0.984,0,4,0,4h1c0,0,2-3.037,2-6    c0-4.161-1.703-5.671-4-6C25,4,23.434,1,20,1L20,1z"/>
	</g>
</g>
<rect x="13" y="33.571" style="fill:#C2E8FF;" width="14" height="2.429"/>
<path style="fill:#36404D;" d="M25,39H15c-0.552,0-1-0.448-1-1v-6c0-0.552,0.448-1,1-1h10c0.552,0,1,0.448,1,1v6  C26,38.552,25.552,39,25,39z"/>
<polygon style="fill:#36404D;" points="23.5,34 16.5,34 17.375,30 22.625,30 "/>
<g>
	<circle style="fill:#DCD5F2;" cx="20" cy="35" r="2.5"/>
</g>
</svg>