<?xml version="1.0" encoding="iso-8859-1"?><!-- Generator: Adobe Illustrator 19.2.1, SVG Export Plug-In . SVG Version: 6.00 Build 0)  --><svg xmlns="http://www.w3.org/2000/svg" xmlns:xlink="http://www.w3.org/1999/xlink" version="1.1" id="Layer_1" x="0px" y="0px" viewBox="0 0 16 16" style="enable-background:new 0 0 16 16;" xml:space="preserve" width="16" height="16">
<g>
	<path style="fill:#C2E8FF;" d="M2.521,14.5c0.286-3.36,3.429-3.982,3.568-4.008L10,10.5c0.053,0.019,3.192,0.651,3.479,4H2.521z"/>
	<g>
		<path style="fill:#7496C4;" d="M9.898,11c0.44,0.101,2.525,0.697,3.004,3H3.097c0.471-2.295,2.519-2.89,3.005-3H9.898 M10,10H6    c0,0-4,0.717-4,5h12C14,10.732,10,10,10,10L10,10z"/>
	</g>
</g>
<g>
	<path style="fill:#E8D47B;" d="M8,11.5c-1.02,0-1.519-0.523-1.682-0.74V8.682h3.363v2.079C9.521,10.974,9.022,11.5,8,11.5z"/>
	<path style="fill:#BA9B48;" d="M9.182,9.182v1.393C9.006,10.749,8.642,11,8,11c-0.648,0-1.012-0.255-1.182-0.422V9.182H9.182    M10.182,8.182H5.818v2.727C5.818,10.909,6.4,12,8,12s2.182-1.091,2.182-1.091V8.182L10.182,8.182z"/>
</g>
<g>
	<g>
		<path style="fill:#FFEEA3;" d="M8,9.5c-0.241,0-0.402-0.145-0.477-0.23l-0.096-0.11L7.289,9.117    C6.381,8.847,5.713,8.104,5.546,7.182L5.481,6.824l-0.36-0.049C4.91,6.746,4.6,6.37,4.518,5.928L4.5,5.835V4.09L5.09,2.5h5.691    L11.5,4.106v1.762l-0.018,0.06C11.4,6.37,11.09,6.746,10.879,6.775l-0.36,0.049l-0.065,0.357    c-0.167,0.923-0.835,1.665-1.743,1.936L8.572,9.159L8.477,9.27C8.402,9.355,8.241,9.5,8,9.5z"/>
	</g>
	<g>
		<path style="fill:#BA9B48;" d="M10.458,3L11,4.213v1.574l-0.009,0.049c-0.038,0.206-0.163,0.39-0.233,0.45l-0.667,0.09    L9.962,7.092C9.829,7.829,9.295,8.421,8.568,8.639L8.289,8.722l-0.191,0.22C8.065,8.981,8.032,9,8,9S7.935,8.981,7.902,8.942    l-0.191-0.22L7.432,8.639c-0.727-0.217-1.261-0.81-1.394-1.546L5.909,6.376l-0.667-0.09c-0.07-0.06-0.194-0.244-0.233-0.45    L5,5.799V4.18L5.438,3H10.458 M11.106,2H4.743L4,4v2l0.026,0.019C4.13,6.578,4.546,7.202,5.054,7.27    c0.202,1.117,1.021,2.007,2.092,2.327C7.355,9.839,7.655,10,8,10s0.645-0.161,0.854-0.403c1.071-0.32,1.89-1.21,2.092-2.327    c0.508-0.069,0.924-0.693,1.028-1.251L12,6V4L11.106,2L11.106,2z"/>
	</g>
</g>
<g>
	<path style="fill:#B0C1D4;" d="M11.468,5.5c-0.245-1.325-1.821-2.161-2.014-2.259L9.115,3.07l-0.257,0.28   C8.847,3.362,7.786,4.5,6.187,4.5c-1.147,0-1.523,0.55-1.639,1H4.5V3.452C4.5,2.025,5.419,0.5,8,0.5c1.06,0,1.559,0.739,1.58,0.771   l0.148,0.225L10,1.5c0.737,0,1.5,0.632,1.5,1.689V5.5H11.468z"/>
	<g>
		<path style="fill:#66798F;" d="M8,1c0.761,0,1.126,0.495,1.155,0.535L9.449,2H10c0.492,0,1,0.445,1,1.189v0.562    C10.429,3.19,9.803,2.858,9.679,2.796L8.997,2.45L8.485,3.017C8.476,3.027,7.56,4,6.187,4C5.701,4,5.31,4.088,5,4.237V3.452    C5,2.877,5.216,1,8,1 M8,0C5.15,0,4,1.766,4,3.452C4,4.668,4,6,4,6h1V5.886C5,5.423,5.245,5,6.187,5    c1.855,0,3.04-1.312,3.04-1.312S11,4.585,11,5.848c0,0.201,0,0.259,0,0.259V6h1c0,0,0-0.82,0-2.811C12,1.872,11.032,1,10,1    C10,1,9.367,0,8,0L8,0z"/>
	</g>
</g>
<rect x="4" y="13" style="fill:#C2E8FF;" width="8" height="2"/>
<path style="fill:#36404D;" d="M10,16H6c-0.552,0-1-0.448-1-1v-2c0-0.552,0.448-1,1-1h4c0.552,0,1,0.448,1,1v2  C11,15.552,10.552,16,10,16z"/>
<polygon style="fill:#36404D;" points="9.2,11.57 9.8,13.37 6.2,13.37 6.8,11.57 "/>
<g>
	<circle style="fill:#DCD5F2;" cx="8" cy="14" r="1.2"/>
</g>
</svg>