<?xml version="1.0" encoding="iso-8859-1"?><!-- Generator: Adobe Illustrator 19.2.1, SVG Export Plug-In . SVG Version: 6.00 Build 0)  --><svg xmlns="http://www.w3.org/2000/svg" xmlns:xlink="http://www.w3.org/1999/xlink" version="1.1" id="Layer_1" x="0px" y="0px" viewBox="0 0 40 40" style="enable-background:new 0 0 40 40;" xml:space="preserve" width="40" height="40">
<g>
	<g>
		<rect x="1.5" y="1.5" style="fill:#F2FAFF;" width="25" height="25"/>
	</g>
	<g>
		<path style="fill:#788B9C;" d="M26,2v24H2V2H26 M27,1H1v26h26V1L27,1z"/>
	</g>
</g>
<g>
	<polygon style="fill:#8BB7F0;" points="13.5,38.5 13.5,26.207 26.207,13.5 38.5,13.5 38.5,38.5  "/>
	<g>
		<path style="fill:#4E7AB5;" d="M38,14v24H14V26.414L26.414,14H38 M39,13H26L13,26v13h26V13L39,13z"/>
	</g>
</g>
<g>
	<rect x="22.679" y="28" style="fill:#FFFFFF;" width="7.5" height="3"/>
</g>
<g>
	<polygon style="fill:#FFFFFF;" points="28.383,20 24.593,20 19.429,34 22.754,34 26.364,22.671 26.492,22.671 30.104,34 33.429,34     "/>
</g>
<line style="fill:none;stroke:#788B9C;stroke-width:2;stroke-miterlimit:10;" x1="7" y1="10" x2="21" y2="10"/>
<line style="fill:none;stroke:#788B9C;stroke-width:2;stroke-miterlimit:10;" x1="14" y1="6" x2="14" y2="10"/>
<path style="fill:none;stroke:#788B9C;stroke-width:2;stroke-miterlimit:10;" d="M19,10c0,0-2.376,10-12,10"/>
<path style="fill:none;stroke:#788B9C;stroke-width:2;stroke-miterlimit:10;" d="M9,13c0,0,3.451,5,9,5"/>
</svg>