<?xml version="1.0" encoding="iso-8859-1"?><!-- Generator: Adobe Illustrator 19.2.1, SVG Export Plug-In . SVG Version: 6.00 Build 0)  --><svg xmlns="http://www.w3.org/2000/svg" xmlns:xlink="http://www.w3.org/1999/xlink" version="1.1" id="Layer_1" x="0px" y="0px" viewBox="0 0 30 30" style="enable-background:new 0 0 30 30;" xml:space="preserve" width="30" height="30">
<g>
	<rect x="1.5" y="1.5" style="fill:#F2FAFF;" width="19" height="19"/>
	<g>
		<path style="fill:#788B9C;" d="M20,2v18H2V2H20 M21,1H1v20h20V1L21,1z"/>
	</g>
</g>
<g>
	<polygon style="fill:#8BB7F0;" points="9.5,28.5 9.5,20.207 20.207,9.5 28.5,9.5 28.5,28.5  "/>
	<g>
		<path style="fill:#4E7AB5;" d="M28,10v18H10v-7.586L20.414,10H28 M29,9h-9L9,20v9h20V9L29,9z"/>
	</g>
</g>
<g>
	<rect x="16.5" y="20" style="fill:#FFFFFF;" width="5" height="2"/>
</g>
<g>
	<polygon style="fill:#FFFFFF;" points="20.396,14 17.689,14 14,24 16.375,24 18.954,15.908 19.045,15.908 21.625,24 24,24  "/>
</g>
<line style="fill:none;stroke:#788B9C;stroke-width:2;stroke-miterlimit:10;" x1="6" y1="7" x2="16" y2="7"/>
<line style="fill:none;stroke:#788B9C;stroke-width:2;stroke-miterlimit:10;" x1="11" y1="4" x2="11" y2="7"/>
<path style="fill:none;stroke:#788B9C;stroke-width:2;stroke-miterlimit:10;" d="M14,7c0,0-1.586,7-8,7"/>
<path style="fill:none;stroke:#788B9C;stroke-width:2;stroke-miterlimit:10;" d="M7,10c0,0,3.748,3,7,3"/>
</svg>