<?xml version="1.0" encoding="iso-8859-1"?><!-- Generator: Adobe Illustrator 19.2.1, SVG Export Plug-In . SVG Version: 6.00 Build 0)  --><svg xmlns="http://www.w3.org/2000/svg" xmlns:xlink="http://www.w3.org/1999/xlink" version="1.1" id="Layer_1" x="0px" y="0px" viewBox="0 0 30 30" style="enable-background:new 0 0 30 30;" xml:space="preserve" width="30" height="30">
<g>
	<polygon style="fill:#C2E8FF;" points="6.5,25.5 6.5,25 3.494,4.926 3.497,4.5 26.5,4.5 26.5,5 23.506,24.926 23.503,25.5  "/>
	<path style="fill:#788B9C;" d="M25.989,5l-2.978,19.852L23,24.925V25H7v-0.075l-0.011-0.074L4.011,5H25.989 M27,4H3v1l3,20v1h18v-1   l3-20V4L27,4z"/>
</g>
<g>
	<path style="fill:#DCD5F2;" d="M3,4.5C2.725,4.5,2.5,4.276,2.5,4V2c0-0.276,0.225-0.5,0.5-0.5h24c0.275,0,0.5,0.224,0.5,0.5v2   c0,0.276-0.225,0.5-0.5,0.5H3z"/>
	<g>
		<path style="fill:#8B75A1;" d="M27,2v2H3V2H27 M27,1H3C2.448,1,2,1.448,2,2v2c0,0.552,0.448,1,1,1h24c0.552,0,1-0.448,1-1V2    C28,1.448,27.552,1,27,1L27,1z"/>
	</g>
</g>
<g>
	<path style="fill:#DCD5F2;" d="M8,28.5c-0.827,0-1.5-0.673-1.5-1.5v-1.5h17V27c0,0.827-0.673,1.5-1.5,1.5H8z"/>
	<g>
		<path style="fill:#8B75A1;" d="M23,26v1c0,0.551-0.449,1-1,1H8c-0.551,0-1-0.449-1-1v-1H23 M24,25H6v2c0,1.105,0.895,2,2,2h14    c1.105,0,2-0.895,2-2V25L24,25z"/>
	</g>
</g>
<g>
	<path style="fill:#4E7AB5;" d="M20.187,15.981l-0.805-1.359l-0.503,1.106l-1.217-0.086L18.467,17h-2.31l-0.966,1l0.966,1h2.314   c0.834,0,1.51-0.355,1.854-0.975C20.666,17.411,20.611,16.658,20.187,15.981z"/>
	<path style="fill:#4E7AB5;" d="M18.277,12.663l-1.524-2.588C16.327,9.392,15.697,9,15.024,9c-0.672,0-1.302,0.392-1.739,1.093   l-0.956,1.61l1.187-0.023l0.532,1.045l0.945-1.591c0.011-0.019,0.022-0.035,0.032-0.05c0.006,0.009,0.012,0.018,0.018,0.027   l1.51,2.566l1.37,0.347L18.277,12.663z"/>
	<path style="fill:#4E7AB5;" d="M11.54,16.989l1.358-2.365l-0.353-1.306l-1.381,0.31l-1.354,2.356   c-0.423,0.72-0.47,1.476-0.128,2.074C10.025,18.657,10.698,19,11.528,19h2.466l-0.714-1l0.714-1h-2.461   C11.535,16.996,11.538,16.993,11.54,16.989z"/>
</g>
</svg>