<?xml version="1.0" encoding="iso-8859-1"?><!-- Generator: Adobe Illustrator 19.2.1, SVG Export Plug-In . SVG Version: 6.00 Build 0)  --><svg xmlns="http://www.w3.org/2000/svg" xmlns:xlink="http://www.w3.org/1999/xlink" version="1.1" id="Layer_1" x="0px" y="0px" viewBox="0 0 16 16" style="enable-background:new 0 0 16 16;" xml:space="preserve" width="16" height="16">
<g>
	<polygon style="fill:#C2E8FF;" points="3.5,12.5 3.5,12 2.497,2.945 2.498,2.5 13.5,2.5 13.5,3 12.503,11.945 12.501,12.5  "/>
	<path style="fill:#788B9C;" d="M12.994,3l-0.988,8.89L12,11.945V12H4v-0.055L3.994,11.89L3.006,3H12.994 M14,2H2v1l1,9v1h10v-1l1-9   V2L14,2z"/>
</g>
<g>
	<rect x="1.5" y="0.5" style="fill:#DCD5F2;" width="13" height="2"/>
	<g>
		<path style="fill:#8B75A1;" d="M14,1v1H2V1H14 M15,0H1v3h14V0L15,0z"/>
	</g>
</g>
<g>
	<rect x="3.5" y="12.5" style="fill:#DCD5F2;" width="9" height="2"/>
	<g>
		<path style="fill:#8B75A1;" d="M12,13v1H4v-1H12 M13,12H3v3h10V12L13,12z"/>
	</g>
</g>
<g>
	<path style="fill:#4E7AB5;" d="M11.128,8.189l-0.485-0.815l-0.304,0.664L9.605,7.985L10.091,8.8H8.698L8.115,9.4L8.698,10h1.396   c0.503,0,0.911-0.213,1.118-0.585C11.417,9.046,11.384,8.595,11.128,8.189z"/>
	<path style="fill:#4E7AB5;" d="M9.976,6.198L9.057,4.645C8.8,4.235,8.42,4,8.015,4C7.609,4,7.23,4.235,6.966,4.656L6.389,5.622   l0.716-0.014l0.321,0.627l0.57-0.954c0.006-0.011,0.014-0.021,0.019-0.03c0.004,0.005,0.007,0.011,0.011,0.016l0.911,1.54   l0.826,0.208L9.976,6.198z"/>
	<path style="fill:#4E7AB5;" d="M5.913,8.793l0.819-1.419L6.519,6.591L5.687,6.777L4.87,8.19C4.615,8.622,4.587,9.076,4.793,9.435   C5,9.794,5.406,10,5.906,10h1.487l-0.43-0.6l0.43-0.6H5.909C5.91,8.798,5.912,8.796,5.913,8.793z"/>
</g>
</svg>