<?xml version="1.0" encoding="iso-8859-1"?><!-- Generator: Adobe Illustrator 19.2.1, SVG Export Plug-In . SVG Version: 6.00 Build 0)  --><svg xmlns="http://www.w3.org/2000/svg" xmlns:xlink="http://www.w3.org/1999/xlink" version="1.1" id="Layer_1" x="0px" y="0px" viewBox="0 0 40 40" style="enable-background:new 0 0 40 40;" xml:space="preserve" width="40" height="40">
<g>
	<polygon style="fill:#C2E8FF;" points="7.5,34.5 7.5,34 3.495,5.929 3.497,5.5 36.5,5.5 36.5,6 32.505,33.929 32.502,34.5  "/>
	<path style="fill:#788B9C;" d="M35.99,6l-3.98,27.859L32,33.929V34H8v-0.071l-0.01-0.07L4.01,6H35.99 M37,5H3v1l4,28v1h26v-1l4-28   V5L37,5z"/>
</g>
<g>
	<path style="fill:#DCD5F2;" d="M3,5.5C2.725,5.5,2.5,5.276,2.5,5V2c0-0.276,0.225-0.5,0.5-0.5h34c0.275,0,0.5,0.224,0.5,0.5v3   c0,0.276-0.225,0.5-0.5,0.5H3z"/>
	<g>
		<path style="fill:#8B75A1;" d="M37,2v3H3V2H37 M37,1H3C2.448,1,2,1.448,2,2v3c0,0.552,0.448,1,1,1h34c0.552,0,1-0.448,1-1V2    C38,1.448,37.552,1,37,1L37,1z"/>
	</g>
</g>
<g>
	<path style="fill:#DCD5F2;" d="M10,38.5c-1.379,0-2.5-1.122-2.5-2.5v-1.5h25V36c0,1.378-1.121,2.5-2.5,2.5H10z"/>
	<g>
		<path style="fill:#8B75A1;" d="M32,35v1c0,1.103-0.897,2-2,2H10c-1.103,0-2-0.897-2-2v-1H32 M33,34H7v2c0,1.657,1.343,3,3,3h20    c1.657,0,3-1.343,3-3V34L33,34z"/>
	</g>
</g>
<g>
	<path style="fill:#4E7AB5;" d="M27.262,21.773l-1.127-1.902l-0.705,1.548l-1.704-0.121l1.127,1.902H21.62l-1.352,1.4L21.62,26h3.24   c1.168,0,2.114-0.498,2.595-1.364C27.932,23.775,27.856,22.721,27.262,21.773z"/>
	<path style="fill:#4E7AB5;" d="M24.588,17.128l-2.134-3.624C21.858,12.548,20.976,12,20.034,12c-0.941,0-1.822,0.548-2.435,1.531   l-1.338,2.254l1.661-0.033l0.745,1.463l1.323-2.227c0.015-0.026,0.031-0.049,0.045-0.07c0.008,0.012,0.016,0.025,0.025,0.038   l2.114,3.592l1.918,0.486L24.588,17.128z"/>
	<path style="fill:#4E7AB5;" d="M15.156,23.184l1.902-3.311l-0.495-1.829l-1.933,0.434l-1.895,3.298   c-0.592,1.008-0.658,2.067-0.179,2.904C13.035,25.519,13.977,26,15.14,26h3.452l-0.999-1.4l0.999-1.4h-3.445   C15.149,23.195,15.153,23.19,15.156,23.184z"/>
</g>
</svg>