<?xml version="1.0" encoding="iso-8859-1"?><!-- Generator: Adobe Illustrator 19.2.1, SVG Export Plug-In . SVG Version: 6.00 Build 0)  --><svg xmlns="http://www.w3.org/2000/svg" xmlns:xlink="http://www.w3.org/1999/xlink" version="1.1" id="Layer_1" x="0px" y="0px" viewBox="0 0 30 30" style="enable-background:new 0 0 30 30;" xml:space="preserve" width="30" height="30">
<g>
	<path style="fill:#8BB7F0;" d="M16.023,28.5c-5.702,0-5.867-6.455-5.867-7.19v-9.198H6.854V9.249   c0.742-0.323,5.719-2.686,5.813-7.749h3.211v6.938h6.08v3.937h-6.08v8.802c0,1.102,0.666,3.187,3.185,3.187   c1.869,0,3.468-0.752,4.082-1.084v3.382C22.786,26.946,20.62,28.5,16.023,28.5z"/>
	<path style="fill:#4E7AB5;" d="M15.378,2v5.938v1h1h5.08v2.936h-5.08h-1v1v8.302c0,1.482,0.981,3.687,3.685,3.687   c1.452,0,2.742-0.423,3.582-0.787v2.328C21.992,26.844,19.902,28,16.023,28c-2.196,0-3.698-0.968-4.592-2.959   c-0.738-1.645-0.776-3.397-0.776-3.731v-8.698v-1h-1H7.354V9.567C8.696,8.914,12.784,6.561,13.143,2H15.378 M16.023,1h-3.501   c-0.196,0-0.354,0.158-0.354,0.354c0,5.223-5.533,7.447-5.589,7.468C6.443,8.875,6.354,9.008,6.354,9.154v3.104   c0,0.196,0.158,0.354,0.354,0.354h2.948v8.698c0,0.787,0.179,7.69,6.367,7.69c5.162,0,7.409-1.924,7.504-2.006   c0.077-0.069,0.119-0.165,0.119-0.267h-0.001v-3.699c0-0.13-0.069-0.248-0.181-0.311c-0.054-0.03-0.114-0.045-0.173-0.045   c-0.065,0-0.13,0.018-0.185,0.055c-0.02,0.011-1.856,1.137-4.043,1.137c-2.642,0-2.685-2.579-2.685-2.687v-8.302h5.725   c0.196,0,0.356-0.158,0.356-0.354V8.293c0-0.196-0.16-0.354-0.356-0.354h-5.725V1.354C16.378,1.158,16.219,1,16.023,1L16.023,1z"/>
</g>
</svg>