<?xml version="1.0" encoding="iso-8859-1"?><!-- Generator: Adobe Illustrator 19.2.1, SVG Export Plug-In . SVG Version: 6.00 Build 0)  --><svg xmlns="http://www.w3.org/2000/svg" xmlns:xlink="http://www.w3.org/1999/xlink" version="1.1" id="Layer_1" x="0px" y="0px" viewBox="0 0 16 16" style="enable-background:new 0 0 16 16;" xml:space="preserve" width="16" height="16">
<g>
	<path style="fill:#8BB7F0;" d="M8.585,15.5c-2.862,0-3.085-2.981-3.085-3.895V6.5h-2V4.733c0.88-0.4,3.198-1.688,3.371-4.233H8.5v4   h3v2h-3v5.03c-0.045,0.603,0.118,1.144,0.458,1.509c0.324,0.349,0.783,0.526,1.363,0.526c0.874,0,1.651-0.277,2.119-0.49v1.481   C12.104,14.795,10.911,15.5,8.585,15.5z"/>
	<path style="fill:#4E7AB5;" d="M8,1v3v1h1h2v1H9H8v1v4.498c-0.05,0.75,0.16,1.418,0.592,1.882c0.291,0.313,0.827,0.685,1.729,0.685   c0.603,0,1.161-0.117,1.619-0.262l0,0.474C11.471,14.541,10.395,15,8.585,15C7.808,15,6,14.669,6,11.606V7V6H5H4V5.045   C5.033,4.518,6.94,3.257,7.316,1L8,1 M9,0L6.384,0C6.38,0,6.377,0.004,6.377,0.008C6.519,3.132,3,4.4,3,4.4V7h2v4.606   C5,12.055,5.049,16,8.585,16c2.95,0,4.234-1.099,4.288-1.146c0.044-0.039,0.068-0.094,0.068-0.153H12.94v-2.114   c0-0.074-0.039-0.142-0.103-0.178c-0.031-0.017-0.065-0.026-0.099-0.026c-0.037,0-0.074,0.01-0.106,0.031   c-0.011,0.006-1.061,0.65-2.31,0.65C8.812,13.065,9,11.591,9,11.53V7h3V4H9V0L9,0z"/>
</g>
</svg>