<?xml version="1.0" encoding="iso-8859-1"?><!-- Generator: Adobe Illustrator 19.2.1, SVG Export Plug-In . SVG Version: 6.00 Build 0)  --><svg xmlns="http://www.w3.org/2000/svg" xmlns:xlink="http://www.w3.org/1999/xlink" version="1.1" id="Layer_1" x="0px" y="0px" viewBox="0 0 80 80" style="enable-background:new 0 0 80 80;" xml:space="preserve" width="80" height="80">
<g>
	<path style="fill:#8BB7F0;" d="M42.777,77.5c-6.814,0-11.599-3.134-14.22-9.315C27.23,65.057,26.5,61.131,26.5,57.133V33.5H17   c-0.275,0-0.5-0.224-0.5-0.5v-8.367c0-0.199,0.103-0.366,0.274-0.447c10.063-4.717,15.348-11.843,15.707-21.182   c0.011-0.282,0.218-0.496,0.481-0.496C35.2,2.504,40.738,2.501,43.007,2.5c0.133,0,0.256,0.051,0.349,0.145   C43.448,2.739,43.5,2.865,43.5,3v17.5H59c0.275,0,0.5,0.224,0.5,0.5v12c0,0.276-0.225,0.5-0.5,0.5H43.5v23.266   c-0.005,0.851,0.138,3.739,2.15,5.762c1.302,1.309,3.11,1.972,5.377,1.972c4.364,0,9.258-1.731,11.785-2.763   c0.063-0.026,0.128-0.039,0.192-0.039c0.238,0,0.495,0.192,0.495,0.501v9.695c0,0.17-0.076,0.318-0.208,0.407   C61.467,73.521,54.594,77.5,42.777,77.5z"/>
	<path style="fill:#4E7AB5;" d="M43,3L43,3v17v1h1h15v12H44h-1v1l0,22.777c-0.005,0.886,0.147,3.943,2.295,6.103   c1.399,1.407,3.328,2.12,5.732,2.12c4.451,0,9.413-1.755,11.972-2.8l0.014,9.687C61.218,73.086,54.449,77,42.778,77   c-6.595,0-11.225-3.032-13.76-9.01C27.716,64.921,27,61.066,27,57.126V34v-1h-1l-9,0l-0.013-8.361   c10.246-4.802,15.627-12.074,15.977-21.631C35.198,3.004,40.726,3.001,43,3 M43.007,2L43.007,2   C40.738,2.001,35.2,2.004,32.962,2.007c-0.539,0.001-0.96,0.438-0.98,0.977C31.455,16.67,19.906,22.166,16.562,23.733   C16.211,23.898,16,24.245,16,24.632V33c0,0.552,0.448,1,1,1h9v23.127C26,59.262,25.982,78,42.778,78   c12.031,0,19.049-4.118,20.792-5.282C63.845,72.534,64,72.226,64,71.895V62.2c0-0.576-0.468-1.002-0.996-1.002   c-0.125,0-0.254,0.024-0.38,0.076C60.284,62.229,55.362,64,51.028,64C43.857,64,44,57.058,44,56.765V34h15c0.552,0,1-0.448,1-1V21   c0-0.552-0.448-1-1-1H44V3C44,2.448,43.56,2,43.007,2L43.007,2z"/>
</g>
</svg>