<?xml version="1.0" encoding="iso-8859-1"?><!-- Generator: Adobe Illustrator 19.2.1, SVG Export Plug-In . SVG Version: 6.00 Build 0)  --><svg xmlns="http://www.w3.org/2000/svg" xmlns:xlink="http://www.w3.org/1999/xlink" version="1.1" id="Layer_1" x="0px" y="0px" viewBox="0 0 30 30" style="enable-background:new 0 0 30 30;" xml:space="preserve" width="30" height="30">
<g>
	<path style="fill:#C2E8FF;" d="M9.806,25.878c-2.353,0-4.657-0.521-6.764-1.518c2.478-0.134,4.807-1.008,6.771-2.548l1.106-0.867   l-1.405-0.026c-1.973-0.037-3.732-1.171-4.595-2.896c0.1,0.005,0.2,0.008,0.3,0.008c0.562,0,1.115-0.073,1.646-0.219l2.037-0.558   l-2.07-0.415c-2.194-0.44-3.847-2.236-4.155-4.407c0.649,0.248,1.339,0.389,2.034,0.411l1.748,0.056l-1.454-0.972   c-1.461-0.976-2.333-2.608-2.333-4.365c0-0.685,0.133-1.36,0.389-1.987c2.993,3.346,7.216,5.376,11.704,5.6l0.661,0.033   l-0.149-0.645c-0.09-0.389-0.136-0.791-0.136-1.196c0-2.892,2.353-5.244,5.245-5.244c1.446,0,2.841,0.604,3.828,1.655l0.189,0.202   l0.272-0.054c0.86-0.169,1.693-0.43,2.492-0.779c-0.42,0.662-0.979,1.209-1.657,1.615L25.111,7l0.365,0.73l0.36-0.022   c0.582-0.071,1.147-0.183,1.702-0.336c-0.512,0.56-1.08,1.065-1.698,1.513l-0.219,0.158l0.012,0.269   c0.01,0.239,0.016,0.48,0.016,0.722C25.65,17.821,19.724,25.878,9.806,25.878z"/>
	<path style="fill:#7496C4;" d="M20.385,4.623c1.308,0,2.57,0.546,3.464,1.498l0.379,0.404l0.543-0.107   c0.18-0.035,0.359-0.075,0.536-0.118c-0.018,0.011-0.037,0.023-0.055,0.034L24.46,6.835l0.427,0.833l0.318,0.621l0.693-0.085   c0.006-0.001,0.011-0.001,0.017-0.002c-0.12,0.095-0.243,0.187-0.367,0.277l-0.436,0.315l0.023,0.538   c0.01,0.232,0.015,0.466,0.015,0.701c0,3.728-1.443,7.503-3.96,10.358c-2.005,2.275-5.608,4.987-11.384,4.987   c-1.644,0-3.264-0.263-4.806-0.772c1.856-0.392,3.595-1.203,5.122-2.4l2.213-1.735l-2.811-0.052   c-1.499-0.028-2.862-0.756-3.722-1.912c0.406-0.035,0.806-0.106,1.196-0.212l4.073-1.114l-4.14-0.831   c-1.707-0.342-3.051-1.592-3.572-3.185c0.438,0.104,0.886,0.164,1.336,0.179l3.495,0.113l-2.908-1.943   c-1.322-0.883-2.111-2.36-2.111-3.95c0-0.345,0.038-0.688,0.111-1.022c3.033,3.068,7.125,4.918,11.457,5.135l1.322,0.066   l-0.297-1.29c-0.081-0.353-0.123-0.718-0.123-1.084C15.641,6.751,17.769,4.623,20.385,4.623 M20.385,3.623   c-3.172,0-5.745,2.572-5.745,5.745c0,0.45,0.051,0.889,0.148,1.309c-4.774-0.239-9.007-2.527-11.84-6.002   C2.455,5.522,2.171,6.509,2.171,7.562c0,1.993,1.014,3.751,2.555,4.781c-0.941-0.03-1.827-0.288-2.602-0.719   c0,0.025,0,0.048,0,0.072c0,2.784,1.98,5.105,4.608,5.633c-0.482,0.132-0.989,0.202-1.514,0.202c-0.37,0-0.73-0.036-1.08-0.103   c0.732,2.282,2.852,3.943,5.367,3.99c-1.966,1.541-4.443,2.459-7.134,2.459c-0.463,0-0.921-0.027-1.371-0.081   c2.542,1.63,5.562,2.581,8.806,2.581c10.566,0,16.344-8.754,16.344-16.345c0-0.249-0.006-0.497-0.016-0.743   C27.256,8.479,28.23,7.468,29,6.316c-1.021,0.453-2.073,0.755-3.224,0.895l-0.01-0.02c1.187-0.71,2.031-1.807,2.46-3.149   c-1.109,0.658-2.339,1.136-3.648,1.394C23.531,4.32,22.037,3.623,20.385,3.623L20.385,3.623z"/>
</g>
<path style="fill:none;stroke:#7496C4;stroke-miterlimit:10;" d="M24.329,5.882c0.424,0.447,1.188,1.447,1.303,3.346"/>
</svg>