<?xml version="1.0" encoding="iso-8859-1"?><!-- Generator: Adobe Illustrator 19.2.1, SVG Export Plug-In . SVG Version: 6.00 Build 0)  --><svg xmlns="http://www.w3.org/2000/svg" xmlns:xlink="http://www.w3.org/1999/xlink" version="1.1" id="Layer_1" x="0px" y="0px" viewBox="0 0 30 30" style="enable-background:new 0 0 30 30;" xml:space="preserve" width="30" height="30">
<g>
	<path style="fill:#C2E8FF;" d="M4,27.5c-0.827,0-1.5-0.673-1.5-1.5V4c0-0.827,0.673-1.5,1.5-1.5h22c0.827,0,1.5,0.673,1.5,1.5v22   c0,0.827-0.673,1.5-1.5,1.5H4z"/>
	<g>
		<path style="fill:#7496C4;" d="M26,3c0.551,0,1,0.449,1,1v22c0,0.551-0.449,1-1,1H4c-0.551,0-1-0.449-1-1V4c0-0.551,0.449-1,1-1    H26 M26,2H4C2.895,2,2,2.895,2,4v22c0,1.105,0.895,2,2,2h22c1.105,0,2-0.895,2-2V4C28,2.895,27.105,2,26,2L26,2z"/>
	</g>
</g>
</svg>