<?xml version="1.0" encoding="iso-8859-1"?><!-- Generator: Adobe Illustrator 19.2.1, SVG Export Plug-In . SVG Version: 6.00 Build 0)  --><svg xmlns="http://www.w3.org/2000/svg" xmlns:xlink="http://www.w3.org/1999/xlink" version="1.1" x="0px" y="0px" viewBox="0 0 40 40" style="enable-background:new 0 0 40 40;" xml:space="preserve" width="40" height="40">
<g id="Layer_1">
	<g>
		<polygon style="fill:#BAE0BD;" points="17.5,30.5 17.5,11.5 10.241,11.5 20,1.708 29.759,11.5 22.5,11.5 22.5,30.5   "/>
		<g>
			<path style="fill:#5E9C76;" d="M20,2.417L28.554,11H23h-1v1v18h-4V12v-1h-1h-5.555L20,2.417 M20,1L9.037,12H17v19h6V12h7.963     L20,1L20,1z"/>
		</g>
	</g>
	<g>
		<rect x="1.5" y="34.5" style="fill:#BAE0BD;" width="37" height="4"/>
		<g>
			<path style="fill:#5E9C76;" d="M38,35v3H2v-3H38 M39,34H1v5h38V34L39,34z"/>
		</g>
	</g>
</g>
<g id="Layer_2">
</g>
</svg>