<?xml version="1.0" encoding="iso-8859-1"?><!-- Generator: Adobe Illustrator 19.2.1, SVG Export Plug-In . SVG Version: 6.00 Build 0)  --><svg xmlns="http://www.w3.org/2000/svg" xmlns:xlink="http://www.w3.org/1999/xlink" version="1.1" id="Layer_1" x="0px" y="0px" viewBox="0 0 30 30" style="enable-background:new 0 0 30 30;" xml:space="preserve" width="30" height="30">
<g>
	<polygon style="fill:#BAE0BD;" points="13.5,22.5 13.5,8.5 8.207,8.5 15,1.707 21.793,8.5 16.5,8.5 16.5,22.5  "/>
	<path style="fill:#5E9C76;" d="M15,2.414L20.586,8H17h-1v1v13h-2V9V8h-1H9.414L15,2.414 M15,1L7,9h6v14h4V9h6L15,1L15,1z"/>
</g>
<g>
	<rect x="1.5" y="25.5" style="fill:#BAE0BD;" width="27" height="3"/>
	<g>
		<path style="fill:#5E9C76;" d="M28,26v2H2v-2H28 M29,25H1v4h28V25L29,25z"/>
	</g>
</g>
</svg>