<?xml version="1.0" encoding="iso-8859-1"?><!-- Generator: Adobe Illustrator 19.2.1, SVG Export Plug-In . SVG Version: 6.00 Build 0)  --><svg xmlns="http://www.w3.org/2000/svg" xmlns:xlink="http://www.w3.org/1999/xlink" version="1.1" id="Layer_1" x="0px" y="0px" viewBox="0 0 80 80" style="enable-background:new 0 0 80 80;" xml:space="preserve" width="80" height="80">
<g>
	<g>
		<path style="fill:#FFEEA3;" d="M38,77.5c-2.254,0-4.368-1.001-5.8-2.747l-0.096-0.116l-0.144-0.044    C23.311,71.93,17.5,64.057,17.5,55V27.092c0-5.243,4.266-9.509,9.508-9.509h21.983c5.243,0,9.508,4.266,9.508,9.509V55    c0,9.057-5.811,16.93-14.46,19.593l-0.144,0.044L43.8,74.753C42.368,76.499,40.254,77.5,38,77.5z"/>
	</g>
	<g>
		<path style="fill:#BA9B48;" d="M48.992,18.083c4.967,0,9.008,4.041,9.008,9.008V55c0,8.835-5.669,16.517-14.107,19.115    l-0.288,0.089l-0.191,0.233C42.077,76.066,40.104,77,38,77s-4.077-0.935-5.414-2.564l-0.191-0.233l-0.288-0.089    C23.669,71.517,18,63.835,18,55V27.091c0-4.967,4.041-9.008,9.008-9.008H48.992 M48.992,17.083H27.008    C21.481,17.083,17,21.564,17,27.091V55c0,9.444,6.235,17.43,14.813,20.071C33.28,76.859,35.506,78,38,78    c2.494,0,4.72-1.142,6.187-2.93C52.765,72.429,59,64.444,59,55V27.091C59,21.564,54.519,17.083,48.992,17.083L48.992,17.083z"/>
	</g>
</g>
<g>
	<path style="fill:#FFC49C;" d="M62,75.5c-6.303,0-12.045-1.804-14.163-2.555c2.58-1.953,10.663-8.909,10.663-19.374V39.763   c0-7.265-7.91-11.997-8.247-12.194l-0.446-0.263l-0.247,0.456c-0.053,0.098-5.487,9.858-19.128,11.743   C24.203,40.365,17.5,44.77,17.5,52.407v1.164c0,10.607,8.886,17.819,11.812,19.905C26.965,74.095,21.064,75.5,16,75.5   c-8.462,0-12.449-4.322-13.369-5.485c1.25-1.566,6.654-8.634,6.654-13.729c0-2.631-0.615-5.697-1.266-8.944   C7.272,43.619,6.5,39.77,6.5,35.999C6.5,15.03,21.463,2.5,35.929,2.5c10.937,0,15.595,7.675,15.641,7.753l0.145,0.245L52,10.499   c9.417,0,19.5,9.443,19.5,23.5c0,4.483-0.977,8.604-1.921,12.59C68.768,50.016,68,53.252,68,56.286   c0,6.437,7.084,12.181,9.163,13.728C75.376,71.336,69.181,75.5,62,75.5z"/>
	<g>
		<path style="fill:#A16A4A;" d="M35.928,3c4.457,0,8.367,1.257,11.62,3.737c2.44,1.86,3.579,3.752,3.589,3.769l0.29,0.494H52    c4.446,0,9.233,2.346,12.805,6.276C68.8,21.671,71,27.61,71,33.999c0,4.424-0.97,8.516-1.907,12.473    c-0.819,3.456-1.592,6.721-1.592,9.813c0,6.177,6.223,11.683,8.825,13.716C74.081,71.574,68.449,75,62,75    c-5.489,0-10.559-1.39-13.11-2.224C52.08,70.218,59,63.524,59,53.572V39.763c0-7.548-8.147-12.422-8.493-12.625l-0.892-0.522    l-0.494,0.908c-0.013,0.024-1.348,2.445-4.322,5.058c-2.732,2.4-7.454,5.464-14.436,6.428C23.927,39.898,17,44.47,17,52.408v0.119    v1.045c0,10.065,7.562,16.977,11.146,19.687C25.4,73.935,20.381,75,16,75c-7.731,0-11.533-3.576-12.732-4.986    c1.613-2.068,6.517-8.762,6.517-13.728c0-2.681-0.62-5.771-1.276-9.042C7.767,43.545,7,39.72,7,36C7,15.344,21.708,3,35.928,3     M35.928,2C21.06,2,6,14.942,6,36c0,7.172,2.785,14.763,2.785,20.286C8.785,61.809,2,70,2,70s3.85,6,14,6    c6.607,0,14.491-2.327,14.491-2.327S18,66.069,18,53.572c0-0.888,0-1.045,0-1.045v0.046c0,0,0-0.035,0-0.165    C18,45.052,24.483,40.831,30.5,40c14.076-1.944,19.5-12,19.5-12s8,4.7,8,11.763c0,3.053,0,8.794,0,13.809    c0,12.26-11.214,19.515-11.214,19.515S53.89,76,62,76c8.784,0,16-6,16-6s-9.5-6.509-9.5-13.714c0-6.402,3.5-13.801,3.5-22.286    c0-14.392-10.548-24-20-24C52,9.999,47.305,2,35.928,2L35.928,2z"/>
	</g>
</g>
<circle style="fill:#36404D;" cx="48.5" cy="50.5" r="2.5"/>
<circle style="fill:#36404D;" cx="27.5" cy="50.5" r="2.5"/>
</svg>