<?xml version="1.0" encoding="iso-8859-1"?><!-- Generator: Adobe Illustrator 19.2.1, SVG Export Plug-In . SVG Version: 6.00 Build 0)  --><svg xmlns="http://www.w3.org/2000/svg" xmlns:xlink="http://www.w3.org/1999/xlink" version="1.1" id="Layer_1" x="0px" y="0px" viewBox="0 0 80 80" style="enable-background:new 0 0 80 80;" xml:space="preserve" width="80" height="80">
<path style="fill:#788B9C;" d="M53.045,53c1.068,0.582,2.149,1.245,3.214,2H78v-2H53.045z"/>
<path style="fill:#788B9C;" d="M51.136,43c-0.234,0.682-0.491,1.348-0.767,2H78v-2H51.136z"/>
<rect x="56" y="33" style="fill:#788B9C;" width="22" height="2"/>
<g>
	<path style="fill:#C2E8FF;" d="M3.559,74.5c0.267-11.683,9.854-21.105,21.6-21.105h14.736c11.746,0,21.333,9.422,21.6,21.105H3.559   z"/>
	<g>
		<path style="fill:#7496C4;" d="M39.895,53.895c11.302,0,20.558,8.93,21.082,20.105L4.076,74    c0.524-11.175,9.78-20.105,21.082-20.105H39.895 M39.895,52.895H25.158C12.949,52.895,3.053,62.792,3.053,75v0H62v0    C62,62.792,52.103,52.895,39.895,52.895L39.895,52.895z"/>
	</g>
</g>
<g>
	<path style="fill:#E8D47B;" d="M32.526,59.5c-5.729,0-8.3-4.058-8.711-4.778V44.184h17.422v10.538   C40.826,55.442,38.256,59.5,32.526,59.5z"/>
	<path style="fill:#BA9B48;" d="M40.737,44.684v9.9C40.201,55.456,37.705,59,32.526,59c-5.207,0-7.673-3.527-8.211-4.414v-9.902   H40.737 M41.737,43.684H23.316v11.167c0,0,2.658,5.149,9.211,5.149s9.211-5.149,9.211-5.149V43.684L41.737,43.684z"/>
</g>
<g>
	<g>
		<path style="fill:#E8D47B;" d="M45.384,38.786c-2.561,0-4.644-2.083-4.644-4.643s2.083-4.643,4.644-4.643    c3.298,0,4.643,0.849,4.643,2.929C50.026,34.939,47.946,38.786,45.384,38.786z M19.669,38.786c-2.562,0-4.643-3.847-4.643-6.357    c0-2.08,1.345-2.929,4.643-2.929c2.561,0,4.644,2.083,4.644,4.643S22.229,38.786,19.669,38.786z"/>
	</g>
	<g>
		<path style="fill:#BA9B48;" d="M45.383,30c3.45,0,4.143,0.929,4.143,2.429c0,2.503-2.048,5.857-4.143,5.857    c-2.284,0-4.143-1.858-4.143-4.143C41.241,31.858,43.099,30,45.383,30 M19.669,30c2.284,0,4.143,1.858,4.143,4.143    c0,2.284-1.858,4.143-4.143,4.143c-2.095,0-4.143-3.354-4.143-5.857C15.526,30.929,16.219,30,19.669,30 M45.383,29    c-2.84,0-5.143,2.302-5.143,5.143s2.303,5.143,5.143,5.143c2.84,0,5.143-4.017,5.143-6.857C50.526,29.588,48.224,29,45.383,29    L45.383,29z M19.669,29c-2.84,0-5.143,0.588-5.143,3.429c0,2.84,2.303,6.857,5.143,6.857c2.84,0,5.143-2.303,5.143-5.143    S22.509,29,19.669,29L19.669,29z"/>
	</g>
</g>
<g>
	<g>
		<path style="fill:#FFEEA3;" d="M32.526,52.5c-1.296,0-2.528-0.496-3.47-1.396l-0.094-0.089l-0.125-0.033    c-6.365-1.673-10.812-7.434-10.812-14.008V19.539c0-3.666,2.982-6.649,6.648-6.649h15.703c3.666,0,6.648,2.983,6.648,6.649v17.435    c0,6.575-4.446,12.335-10.812,14.008l-0.125,0.033l-0.094,0.089C35.055,52.004,33.822,52.5,32.526,52.5z"/>
	</g>
	<g>
		<path style="fill:#BA9B48;" d="M40.378,13.39c3.39,0,6.149,2.758,6.149,6.149v17.435c0,6.348-4.293,11.909-10.439,13.524    l-0.25,0.066l-0.187,0.179C34.803,51.553,33.693,52,32.526,52c-1.167,0-2.276-0.447-3.124-1.258l-0.187-0.179l-0.25-0.066    c-6.146-1.615-10.439-7.176-10.439-13.524V19.539c0-3.39,2.758-6.149,6.149-6.149H40.378 M40.378,12.39H24.675    c-3.948,0-7.149,3.201-7.149,7.149v17.435c0,6.963,4.752,12.801,11.185,14.492C29.703,52.414,31.045,53,32.526,53    c1.481,0,2.823-0.586,3.815-1.535c6.433-1.69,11.185-7.528,11.185-14.492V19.539C47.526,15.591,44.326,12.39,40.378,12.39    L40.378,12.39z"/>
	</g>
</g>
<g>
	<path style="fill:#FFC49C;" d="M47.026,35.5v-6.553c0-6.493-6.492-9.951-6.769-10.095l-0.386-0.201l-0.253,0.355   c-0.04,0.055-4.011,5.494-12.343,5.494c-7.646,0-9.25,3.42-9.25,6.29v4.71h-0.176c-0.618-1.413-3.245-7.748-3.245-13.348   c0-9.96,6.832-16.652,17-16.652c7.404,0,9.648,5.167,9.671,5.219l0.128,0.307h0.333c3.235,0,8.71,2.229,8.71,10.58   c0,5.13-2.655,12.318-3.262,13.894H47.026z"/>
	<g>
		<path style="fill:#A16A4A;" d="M31.605,6c7.015,0,9.125,4.716,9.209,4.912l0.257,0.615h0.666c3.788,0,8.211,2.64,8.211,10.08    c0,3.718-1.43,8.564-2.421,11.476v-4.135c0-6.793-6.75-10.389-7.038-10.539l-0.774-0.403l-0.504,0.712    c-0.037,0.053-3.832,5.282-11.934,5.282c-8.058,0-9.75,3.692-9.75,6.79v2.579c-0.985-2.61-2.421-7.117-2.421-11.216    C15.105,12.491,21.736,6,31.605,6 M31.605,5c-10.719,0-17.5,7.333-17.5,17.152c0,6.504,3.421,13.848,3.421,13.848h1    c0,0,0-3.421,0-5.211c0-4.915,4.834-5.79,8.75-5.79c8.713,0,12.75-5.704,12.75-5.704s6.5,3.387,6.5,9.652c0,1.968,0,7.053,0,7.053    h1c0,0,3.421-8.467,3.421-14.393c0-8.322-5.299-11.08-9.211-11.08C41.737,10.526,39.429,5,31.605,5L31.605,5z"/>
	</g>
</g>
</svg>