<?xml version="1.0" encoding="iso-8859-1"?><!-- Generator: Adobe Illustrator 19.2.1, SVG Export Plug-In . SVG Version: 6.00 Build 0)  --><svg xmlns="http://www.w3.org/2000/svg" xmlns:xlink="http://www.w3.org/1999/xlink" version="1.1" id="Layer_1" x="0px" y="0px" viewBox="0 0 40 40" style="enable-background:new 0 0 40 40;" xml:space="preserve" width="40" height="40">
<g>
	<g>
		<path style="fill:#FFEEA3;" d="M19,38.5c-1.268,0-2.446-0.526-3.316-1.483L15.6,36.925l-0.118-0.042    C11.306,35.396,8.5,31.424,8.5,27V12.381c0-2.615,2.127-4.742,4.742-4.742h11.516c2.615,0,4.742,2.127,4.742,4.742V27    c0,4.424-2.806,8.396-6.982,9.883L22.4,36.925l-0.084,0.092C21.446,37.974,20.268,38.5,19,38.5z"/>
	</g>
	<g>
		<path style="fill:#BA9B48;" d="M24.758,8.139c2.339,0,4.242,1.903,4.242,4.242V27c0,4.213-2.672,7.995-6.65,9.412l-0.236,0.084    l-0.168,0.185C21.172,37.532,20.125,38,19,38s-2.172-0.469-2.946-1.32l-0.168-0.185l-0.236-0.084C11.672,34.995,9,31.213,9,27    V12.381c0-2.339,1.903-4.242,4.242-4.242H24.758 M24.758,7.139H13.242C10.347,7.139,8,9.486,8,12.381V27    c0,4.78,3.055,8.837,7.314,10.354C16.229,38.358,17.534,39,19,39s2.771-0.642,3.686-1.647C26.945,35.837,30,31.78,30,27V12.381    C30,9.486,27.653,7.139,24.758,7.139L24.758,7.139z"/>
	</g>
</g>
<circle style="fill:#36404D;" cx="24.75" cy="25.429" r="1.357"/>
<circle style="fill:#36404D;" cx="13.893" cy="25.429" r="1.357"/>
<g>
	<path style="fill:#FFC49C;" d="M31,37.5c-2.786,0-5.358-0.999-6.593-1.566c1.599-1.12,5.093-4.142,5.093-9.147v-6.904   c0-3.774-4.073-6.211-4.247-6.312l-0.446-0.263l-0.247,0.455c-0.026,0.048-2.695,4.82-9.379,5.743   C11.963,19.95,8.5,22.236,8.5,26.204l1,0.083l-1-0.023v0.522c0,5.072,3.832,8.21,5.622,9.399C12.783,36.679,10.221,37.5,8,37.5   c-3.864,0-5.765-1.786-6.366-2.493c0.807-1.034,3.258-4.381,3.258-6.863c0-1.341-0.31-2.886-0.638-4.521   C3.884,21.772,3.5,19.86,3.5,18c0-10.328,7.354-16.5,14.464-16.5c5.34,0,7.583,3.716,7.604,3.753L25.714,5.5H26   c4.605,0,9.5,3.68,9.5,10.5c0,2.219-0.486,4.549-0.957,6.803c-0.408,1.955-0.793,3.801-0.793,5.341c0,3.088,3.11,5.84,4.412,6.857   C37.038,35.786,34.216,37.5,31,37.5z"/>
	<g>
		<path style="fill:#A16A4A;" d="M17.964,2c5.008,0,7.09,3.367,7.173,3.506L25.427,6H26c4.363,0,9,3.505,9,10    c0,2.167-0.481,4.472-0.946,6.7c-0.413,1.981-0.804,3.852-0.804,5.443c0,2.921,2.545,5.52,4.071,6.816    C36.021,35.78,33.643,37,31,37c-2.202,0-4.273-0.65-5.606-1.186C27.211,34.353,30,31.364,30,26.786v-6.904    c0-4.057-4.31-6.636-4.493-6.744l-0.894-0.525l-0.492,0.913c-0.025,0.046-2.546,4.592-9.007,5.484    C11.687,19.483,8,21.936,8,26.204v0.06v0.522c0,4.629,3.035,7.71,5.048,9.245C11.671,36.484,9.722,37,8,37    c-3.192,0-4.955-1.279-5.71-2.023c1.022-1.354,3.103-4.407,3.103-6.834c0-1.39-0.315-2.959-0.648-4.619    C4.379,21.698,4,19.811,4,18C4,7.985,11.1,2,17.964,2 M17.964,1C10.53,1,3,7.471,3,18c0,3.586,1.393,7.382,1.393,10.143S1,35,1,35    s1.925,3,7,3c3.303,0,7.246-1.719,7.246-1.719S9,33.035,9,26.786c0-0.444,0-0.522,0-0.522v0.023c0,0,0-0.017,0-0.083    c0-3.678,3.242-5.788,6.25-6.204c7.038-0.972,9.75-6,9.75-6s4,2.35,4,5.882c0,1.527,0,4.397,0,6.904    c0,6.13-5.607,9.202-5.607,9.202S26.945,38,31,38c4.392,0,8-3,8-3s-4.75-3.254-4.75-6.857c0-3.201,1.75-7.9,1.75-12.143    c0-7.196-5.274-11-10-11C26,5,23.652,1,17.964,1L17.964,1z"/>
	</g>
</g>
</svg>