<?xml version="1.0" encoding="iso-8859-1"?><!-- Generator: Adobe Illustrator 19.2.1, SVG Export Plug-In . SVG Version: 6.00 Build 0)  --><svg xmlns="http://www.w3.org/2000/svg" xmlns:xlink="http://www.w3.org/1999/xlink" version="1.1" id="Layer_1" x="0px" y="0px" viewBox="0 0 30 30" style="enable-background:new 0 0 30 30;" xml:space="preserve" width="30" height="30">
<g>
	<path style="fill:#E8D47B;" d="M22,20.5c-1.379,0-2.5-1.121-2.5-2.5s1.121-2.5,2.5-2.5c2.075,0,2.5,0.6,2.5,1.5   C24.5,18.496,23.264,20.5,22,20.5z"/>
	<g>
		<path style="fill:#BA9B48;" d="M22,16c2,0,2,0.531,2,1c0,1.239-1.034,3-2,3c-1.103,0-2-0.897-2-2S20.897,16,22,16 M22,15    c-1.657,0-3,1.343-3,3s1.343,3,3,3s3-2.343,3-4S23.657,15,22,15L22,15z"/>
	</g>
</g>
<g>
	<path style="fill:#E8D47B;" d="M8,20.5c-1.264,0-2.5-2.004-2.5-3.5c0-0.9,0.425-1.5,2.5-1.5c1.379,0,2.5,1.121,2.5,2.5   S9.379,20.5,8,20.5z"/>
	<g>
		<path style="fill:#BA9B48;" d="M8,16c1.103,0,2,0.897,2,2s-0.897,2-2,2c-0.966,0-2-1.761-2-3C6,16.531,6,16,8,16 M8,15    c-1.657,0-3,0.343-3,2s1.343,4,3,4s3-1.343,3-3S9.657,15,8,15L8,15z"/>
	</g>
</g>
<g>
	<g>
		<path style="fill:#FFEEA3;" d="M15,28.5c-1.132,0-2.199-0.557-2.856-1.49l-0.079-0.112l-0.126-0.056    C9.242,25.633,7.5,22.947,7.5,20V9.368c0-1.826,1.486-3.312,3.312-3.312h8.375c1.826,0,3.313,1.486,3.313,3.312V20    c0,2.947-1.742,5.633-4.438,6.842l-0.126,0.056l-0.079,0.112C17.199,27.943,16.132,28.5,15,28.5z"/>
	</g>
	<g>
		<path style="fill:#BA9B48;" d="M19.187,6.556C20.738,6.556,22,7.817,22,9.368V20c0,2.751-1.626,5.257-4.143,6.386l-0.25,0.112    l-0.158,0.224C16.884,27.522,15.969,28,15,28s-1.884-0.478-2.449-1.278l-0.158-0.224l-0.25-0.112C9.626,25.257,8,22.751,8,20    V9.368c0-1.551,1.262-2.813,2.813-2.813H19.187 M19.187,5.556h-8.375C8.707,5.556,7,7.263,7,9.368V20    c0,3.254,1.946,6.048,4.734,7.298C12.458,28.325,13.648,29,15,29s2.542-0.675,3.266-1.702C21.054,26.048,23,23.254,23,20V9.368    C23,7.263,21.293,5.556,19.187,5.556L19.187,5.556z"/>
	</g>
</g>
<circle style="fill:#36404D;" cx="19" cy="18" r="1"/>
<circle style="fill:#36404D;" cx="11" cy="18" r="1"/>
<g>
	<path style="fill:#B0C1D4;" d="M22.5,17.5v-5.588c0-2.652-3.139-4.289-3.272-4.357l-0.385-0.196l-0.251,0.354   C18.511,7.825,16.556,10.5,12,10.5c-3.72,0-4.5,2.214-4.5,4.071V17.5H7.332C6.9,16.443,5.5,12.78,5.5,9.749   C5.5,5.776,8.16,1.5,14,1.5c4.128,0,5.325,2.183,5.374,2.275l0.141,0.267l0.304,0.004c0.479,0,4.682,0.167,4.682,5.963   c0,2.76-1.402,6.427-1.834,7.491H22.5z"/>
	<g>
		<path style="fill:#66798F;" d="M14,2c3.785,0,4.888,1.929,4.926,1.998l0.278,0.548h0.614c0.698,0,4.182,0.263,4.182,5.463    c0,1.621-0.507,3.583-1,5.107v-3.203c0-2.955-3.4-4.729-3.544-4.803l-0.775-0.397l-0.5,0.713C18.163,7.452,16.327,10,12,10    c-3.178,0-5,1.666-5,4.571v0.539c-0.492-1.546-1-3.573-1-5.361C6,6.017,8.503,2,14,2 M14,1C7.864,1,5,5.517,5,9.749    C5,13.465,7,18,7,18h1c0,0,0-2.406,0-3.429C8,11.861,9.762,11,12,11c4.897,0,7-3,7-3s3,1.535,3,3.913C22,13.037,22,18,22,18h1    c0,0,2-4.604,2-7.991c0-5.349-3.425-6.463-5.182-6.463C19.818,3.546,18.527,1,14,1L14,1z"/>
	</g>
</g>
</svg>