<?xml version="1.0" encoding="iso-8859-1"?><!-- Generator: Adobe Illustrator 19.2.1, SVG Export Plug-In . SVG Version: 6.00 Build 0)  --><svg xmlns="http://www.w3.org/2000/svg" xmlns:xlink="http://www.w3.org/1999/xlink" version="1.1" id="Layer_1" x="0px" y="0px" viewBox="0 0 30 30" style="enable-background:new 0 0 30 30;" xml:space="preserve" width="30" height="30">
<g>
	<path style="fill:#788B9C;" d="M20.467,20H29v-1h-9.765C19.664,19.297,20.079,19.628,20.467,20z"/>
	<rect x="19" y="11" style="fill:#788B9C;" width="10" height="1"/>
	<path style="fill:#788B9C;" d="M17.46,16H29v-1H18.387C18.144,15.386,17.837,15.729,17.46,16z"/>
</g>
<g>
	<path style="fill:#C2E8FF;" d="M1.52,25.5c0.268-3.352,3.194-6,6.753-6h5.455c3.559,0,6.485,2.648,6.753,6H1.52z"/>
	<g>
		<path style="fill:#7496C4;" d="M13.727,20c3.103,0,5.686,2.166,6.186,5H2.087c0.499-2.834,3.083-5,6.186-5H13.727 M13.727,19    H8.273C4.256,19,1,22.134,1,26h20C21,22.134,17.744,19,13.727,19L13.727,19z"/>
	</g>
</g>
<g>
	<path style="fill:#E8D47B;" d="M11,21.5c-1.746,0-2.359-0.95-2.5-1.223v-2.969h5v2.97C13.363,20.544,12.752,21.5,11,21.5z"/>
	<path style="fill:#BA9B48;" d="M13,17.808v2.337C12.824,20.418,12.298,21,11,21c-1.31,0-1.834-0.593-2-0.851v-2.342H13 M14,16.808   H8v3.577c0,0,0.599,1.615,3,1.615s3-1.615,3-1.615V16.808L14,16.808z"/>
</g>
<g>
	<g>
		<path style="fill:#E8D47B;" d="M15.286,13.684c-0.67,0-1.215-0.49-1.215-1.092s0.545-1.092,1.215-1.092    c1.214,0,1.214,0.324,1.214,0.561C16.5,12.74,15.889,13.684,15.286,13.684z M6.714,13.684c-0.603,0-1.214-0.944-1.214-1.623    c0-0.237,0-0.561,1.214-0.561c0.67,0,1.215,0.49,1.215,1.092S7.384,13.684,6.714,13.684z"/>
	</g>
	<g>
		<path style="fill:#BA9B48;" d="M15.286,12c0.424,0,0.626,0.044,0.714,0.074c-0.008,0.492-0.486,1.11-0.714,1.11    c-0.394,0-0.714-0.266-0.714-0.592S14.892,12,15.286,12 M6.714,12c0.394,0,0.714,0.266,0.714,0.592s-0.32,0.592-0.714,0.592    c-0.228,0-0.706-0.618-0.714-1.11C6.088,12.044,6.291,12,6.714,12 M15.286,11c-0.947,0-1.714,0.713-1.714,1.592    s0.768,1.592,1.714,1.592S17,12.94,17,12.061S16.232,11,15.286,11L15.286,11z M6.714,11C5.768,11,5,11.182,5,12.061    s0.768,2.122,1.714,2.122s1.714-0.713,1.714-1.592S7.661,11,6.714,11L6.714,11z"/>
	</g>
</g>
<g>
	<g>
		<path style="fill:#FFEEA3;" d="M11,18.5c-0.433,0-0.848-0.195-1.137-0.535l-0.098-0.114l-0.144-0.042    C7.783,17.276,6.5,15.579,6.5,13.682V8.544c0-0.99,0.806-1.796,1.796-1.796h5.408c0.99,0,1.796,0.806,1.796,1.796v5.138    c0,1.897-1.283,3.594-3.122,4.127l-0.144,0.042l-0.098,0.114C11.848,18.305,11.433,18.5,11,18.5z"/>
	</g>
	<g>
		<path style="fill:#BA9B48;" d="M13.704,7.248C14.418,7.248,15,7.829,15,8.544v5.138c0,1.675-1.135,3.175-2.761,3.647l-0.289,0.084    l-0.195,0.229C11.642,17.775,11.392,18,11,18s-0.642-0.225-0.756-0.359l-0.195-0.229l-0.289-0.084C8.135,16.857,7,15.357,7,13.682    V8.544c0-0.715,0.582-1.296,1.296-1.296H13.704 M13.704,6.248H8.296C7.028,6.248,6,7.276,6,8.544v5.138    c0,2.194,1.476,4.025,3.482,4.607C9.849,18.72,10.389,19,11,19s1.151-0.28,1.518-0.711C14.524,17.707,16,15.876,16,13.682V8.544    C16,7.276,14.972,6.248,13.704,6.248L13.704,6.248z"/>
	</g>
</g>
<g>
	<path style="fill:#FFC49C;" d="M15.5,12.5v-1.769c0-2.024-1.468-3.242-1.53-3.293L13.652,7.18l-0.315,0.26   C13.326,7.448,11.979,8.5,9.143,8.5C7.488,8.5,6.5,9.707,6.5,11.728V12.5H6.357C6.043,11.559,5.5,9.747,5.5,8.844   C5.5,5.548,7.607,3.5,11,3.5c1.477,0,2.511,1.3,2.521,1.313l0.15,0.192l0.244,0.001c1.286,0,2.584,1.104,2.584,3.572   c0,1.539-0.582,3.243-0.84,3.922H15.5z"/>
	<g>
		<path style="fill:#A16A4A;" d="M11,4c1.223,0,2.12,1.112,2.125,1.118l0.3,0.388h0.491c1.037,0,2.084,0.95,2.084,3.072    c0,0.389-0.04,0.791-0.103,1.184c-0.362-1.676-1.553-2.664-1.612-2.712l-0.634-0.516l-0.632,0.519C13.007,7.062,11.793,8,9.142,8    C7.951,8,6.696,8.602,6.21,10.188C6.085,9.655,6,9.169,6,8.844C6,5.811,7.869,4,11,4 M11,3C7.201,3,5,5.401,5,8.844    C5,10.183,6,13,6,13h1c0,0,0-0.639,0-1.272C7,9.989,7.757,9,9.142,9c3.083,0,4.512-1.175,4.512-1.175S15,8.921,15,10.731    C15,11.428,15,13,15,13h1c0,0,1-2.325,1-4.422c0-2.944-1.7-4.072-3.084-4.072C13.916,4.507,12.751,3,11,3L11,3z"/>
	</g>
</g>
</svg>