<?xml version="1.0" encoding="iso-8859-1"?><!-- Generator: Adobe Illustrator 19.2.1, SVG Export Plug-In . SVG Version: 6.00 Build 0)  --><svg xmlns="http://www.w3.org/2000/svg" xmlns:xlink="http://www.w3.org/1999/xlink" version="1.1" id="Layer_1" x="0px" y="0px" viewBox="0 0 30 30" style="enable-background:new 0 0 30 30;" xml:space="preserve" width="30" height="30">
<g>
	<g>
		<path style="fill:#FFEEA3;" d="M15,28.5c-1.001,0-1.933-0.498-2.492-1.331l-0.087-0.13l-0.146-0.058    C9.374,25.848,7.5,23.107,7.5,20V9.368c0-1.826,1.486-3.312,3.312-3.312h8.375c1.826,0,3.313,1.486,3.313,3.312V20    c0,3.107-1.874,5.848-4.774,6.981l-0.146,0.058l-0.087,0.13C16.933,28.002,16.001,28.5,15,28.5z"/>
	</g>
	<g>
		<path style="fill:#BA9B48;" d="M19.187,6.556C20.738,6.556,22,7.817,22,9.368V20c0,2.9-1.749,5.457-4.456,6.515l-0.292,0.114    l-0.175,0.26C16.611,27.585,15.834,28,15,28s-1.611-0.415-2.077-1.11l-0.175-0.26l-0.292-0.114C9.749,25.457,8,22.9,8,20V9.368    c0-1.551,1.262-2.813,2.813-2.813H19.187 M19.187,5.556h-8.375C8.707,5.556,7,7.263,7,9.368V20c0,3.391,2.114,6.283,5.092,7.447    C12.72,28.383,13.788,29,15,29s2.28-0.617,2.908-1.553C20.886,26.283,23,23.391,23,20V9.368C23,7.263,21.293,5.556,19.187,5.556    L19.187,5.556z"/>
	</g>
</g>
<circle style="fill:#36404D;" cx="19" cy="19" r="1"/>
<circle style="fill:#36404D;" cx="11" cy="19" r="1"/>
<g>
	<path style="fill:#FFC49C;" d="M23,27.5c-1.825,0-3.275-0.679-4.054-1.143C20.178,25.563,22.5,23.593,22.5,20v-5.088   c0-2.652-3.139-4.289-3.272-4.357L18.8,10.336l-0.237,0.421c-0.07,0.125-1.78,3.078-6.631,3.748C9.24,14.876,7.5,16.864,7.5,19.571   V20c0,3.593,2.238,5.529,3.487,6.33c-0.885,0.473-2.44,1.17-3.933,1.17c-2.021,0-4.146-1.006-5.166-1.562   C2.823,25.132,4.5,23.355,4.5,21c0-1.005-0.225-2.045-0.462-3.146C3.773,16.629,3.5,15.363,3.5,14.009C3.5,6.179,8.839,1.5,14,1.5   c3.84,0,5.504,2.646,5.573,2.76l0.146,0.239L20,4.5c3.13,0,6.5,2.35,6.5,7.509c0,1.633-0.278,3.361-0.546,5.032   C25.72,18.492,25.5,19.864,25.5,21c0,2.163,1.706,3.521,2.664,4.112C27.276,25.913,25.234,27.5,23,27.5z"/>
	<g>
		<path style="fill:#A16A4A;" d="M14,2c3.539,0,5.083,2.419,5.144,2.516L19.435,5H20c2.89,0,6,2.193,6,7.009    c0,1.593-0.275,3.301-0.54,4.953C25.223,18.434,25,19.824,25,21c0,2.013,1.309,3.386,2.348,4.159C26.299,25.998,24.653,27,23,27    c-1.267,0-2.342-0.351-3.108-0.708C21.235,25.236,23,23.232,23,20v-5.087c0-2.955-3.4-4.729-3.544-4.803l-0.853-0.428    l-0.474,0.829c-0.067,0.117-1.688,2.867-6.265,3.499C8.909,14.417,7,16.601,7,19.571v0.226V20c0,3.218,1.688,5.192,3.021,6.25    C9.189,26.626,8.099,27,7.054,27c-1.568,0-3.225-0.653-4.307-1.182C3.742,24.82,5,23.136,5,21c0-1.058-0.23-2.124-0.474-3.252    C4.268,16.549,4,15.31,4,14.009C4,8.106,7.74,2,14,2 M14,1C8.305,1,3,6.14,3,14.009C3,16.651,4,18.965,4,21c0,2.968-3,5-3,5    s3.096,2,6.054,2c2.434,0,4.943-1.683,4.943-1.683S8,24.604,8,20c0-0.152,0-0.203,0-0.203v0.194c0,0,0-0.095,0-0.42    c0-2.71,1.783-4.265,4-4.571c5.186-0.716,7-4,7-4s3,1.535,3,3.913c0,1.125,0,3.24,0,5.087c0,4.517-4,6.317-4,6.317    S20.012,28,23,28c3.236,0,6-3,6-3s-3-1.346-3-4c0-2.358,1-5.865,1-8.991C27,6.707,23.482,4,20,4C20,4,18.191,1,14,1L14,1z"/>
	</g>
</g>
</svg>