<?xml version="1.0" encoding="iso-8859-1"?><!-- Generator: Adobe Illustrator 19.2.1, SVG Export Plug-In . SVG Version: 6.00 Build 0)  --><svg xmlns="http://www.w3.org/2000/svg" xmlns:xlink="http://www.w3.org/1999/xlink" version="1.1" id="Layer_1" x="0px" y="0px" viewBox="0 0 30 30" style="enable-background:new 0 0 30 30;" xml:space="preserve" width="30" height="30">
<g>
	<path style="fill:#8BB7F0;" d="M15,27.5c-0.534,0-1.017-0.281-1.291-0.751L13.564,26.5H2c-0.275,0-0.5-0.224-0.5-0.5V7   c0-0.276,0.225-0.5,0.5-0.5h26c0.275,0,0.5,0.224,0.5,0.5v19c0,0.276-0.225,0.5-0.5,0.5H16.436l-0.145,0.249   C16.017,27.219,15.534,27.5,15,27.5z"/>
	<g>
		<path style="fill:#4E7AB5;" d="M28,7v19H16.723h-0.575l-0.289,0.497C15.675,26.812,15.354,27,15,27s-0.675-0.188-0.858-0.503    L13.852,26h-0.575H2V7H28 M28,6H2C1.448,6,1,6.448,1,7v19c0,0.552,0.448,1,1,1h11.277c0.346,0.595,0.984,1,1.723,1    s1.376-0.405,1.723-1H28c0.552,0,1-0.448,1-1V7C29,6.448,28.552,6,28,6L28,6z"/>
	</g>
</g>
<g>
	<path style="fill:#FFFFFF;" d="M15.007,25.368C14.223,24.795,12.055,23.5,8.5,23.5c-2.963,0-4.962,0.899-6,1.531V4.239   C3.064,3.814,5.088,2.5,8.5,2.5c4.049,0,6.143,1.851,6.163,1.87l0.334,0.302l0.338-0.301C15.356,4.353,17.468,2.5,21.5,2.5   c3.397,0,5.431,1.314,6,1.74v20.81c-1.055-0.629-3.095-1.55-6-1.55C18.045,23.5,15.813,24.802,15.007,25.368z"/>
	<g>
		<path style="fill:#788B9C;" d="M21.5,3c2.966,0,4.797,1.011,5.5,1.493v19.723C25.786,23.625,23.928,23,21.5,23    c-3.229,0-5.45,1.106-6.488,1.766C13.993,24.098,11.814,23,8.5,23c-2.464,0-4.301,0.607-5.5,1.193V4.491    C3.703,4.008,5.525,3,8.5,3c3.83,0,5.749,1.671,5.824,1.737l0.669,0.604l0.675-0.596C15.748,4.673,17.685,3,21.5,3 M21.5,2    C17.199,2,15,4,15,4s-2.18-2-6.5-2S2,4,2,4v22c0,0,2.176-2,6.5-2s6.5,2,6.5,2s2.317-2,6.5-2s6.5,2,6.5,2V4C28,4,25.801,2,21.5,2    L21.5,2z"/>
	</g>
</g>
<path style="fill:#E1EBF2;" d="M27,24.216C25.786,23.625,23.928,23,21.5,23c-2.428,0-4.278,0.498-6.5,1.754V5.328  C16.625,3.805,18.537,3,21.5,3c2.966,0,4.797,1.011,5.5,1.493V24.216z"/>
<rect x="20" y="12" style="fill:#36404D;" width="2" height="7"/>
<circle style="fill:#36404D;" cx="21" cy="9" r="1"/>
<rect x="19" y="12" style="fill:#36404D;" width="3" height="1"/>
<rect x="19" y="18" style="fill:#36404D;" width="4" height="1"/>
</svg>