<?xml version="1.0" encoding="iso-8859-1"?><!-- Generator: Adobe Illustrator 19.2.1, SVG Export Plug-In . SVG Version: 6.00 Build 0)  --><svg xmlns="http://www.w3.org/2000/svg" xmlns:xlink="http://www.w3.org/1999/xlink" version="1.1" x="0px" y="0px" viewBox="0 0 40 40" style="enable-background:new 0 0 40 40;" xml:space="preserve" width="40" height="40">
<g id="Layer_1">
</g>
<g id="Layer_2">
	<g>
		<path style="fill:#8BB7F0;" d="M13.516,30.5c0.283-4.455,4.316-8,9.234-8h6.5c4.918,0,8.951,3.545,9.234,8H13.516z"/>
		<g>
			<path style="fill:#4E7AB5;" d="M29.25,23c4.454,0,8.142,3.059,8.682,7H14.068c0.54-3.941,4.228-7,8.682-7H29.25 M29.25,22h-6.5     C17.365,22,13,26.029,13,31h26C39,26.029,34.635,22,29.25,22L29.25,22z"/>
		</g>
	</g>
	<g>
		<path style="fill:#E8D47B;" d="M26,24.5c-2.362,0-3.322-1.994-3.5-2.418v-4.254h7v4.254C29.322,22.506,28.362,24.5,26,24.5z"/>
		<path style="fill:#BA9B48;" d="M29,18.328v3.649C28.775,22.463,27.913,24,26,24c-1.917,0-2.779-1.543-3-2.023v-3.649H29     M30,17.328h-8v4.849c0,0,1.014,2.823,4,2.823s4-2.823,4-2.823V17.328L30,17.328z"/>
	</g>
	<g>
		<g>
			<path style="fill:#E8D47B;" d="M31.357,15.786c-0.906,0-1.644-0.737-1.644-1.643s0.737-1.643,1.644-1.643     c1.517,0,1.643,0.439,1.643,0.929C33,14.415,32.172,15.786,31.357,15.786z M20.643,15.786c-0.814,0-1.643-1.371-1.643-2.357     c0-0.489,0.126-0.929,1.643-0.929c0.906,0,1.644,0.737,1.644,1.643S21.549,15.786,20.643,15.786z"/>
		</g>
		<g>
			<path style="fill:#BA9B48;" d="M31.357,13c1.143,0,1.143,0.218,1.143,0.429c0,0.82-0.709,1.857-1.143,1.857     c-0.63,0-1.143-0.513-1.143-1.143C30.214,13.513,30.727,13,31.357,13 M20.643,13c0.63,0,1.143,0.513,1.143,1.143     c0,0.63-0.513,1.143-1.143,1.143c-0.434,0-1.143-1.038-1.143-1.857C19.5,13.218,19.5,13,20.643,13 M31.357,12     c-1.183,0-2.143,0.959-2.143,2.143s0.959,2.143,2.143,2.143s2.143-1.674,2.143-2.857C33.5,12.245,32.541,12,31.357,12L31.357,12z      M20.643,12c-1.183,0-2.143,0.245-2.143,1.429c0,1.183,0.959,2.857,2.143,2.857s2.143-0.959,2.143-2.143S21.826,12,20.643,12     L20.643,12z"/>
		</g>
	</g>
	<g>
		<g>
			<path style="fill:#FFEEA3;" d="M26,21.5c-0.518,0-1-0.211-1.359-0.596l-0.093-0.098l-0.129-0.039     C22.111,20.075,20.5,17.909,20.5,15.5V8.526c0-1.301,1.059-2.36,2.359-2.36h6.281c1.301,0,2.359,1.059,2.359,2.36V15.5     c0,2.409-1.611,4.575-3.919,5.267l-0.129,0.039l-0.093,0.098C27,21.289,26.518,21.5,26,21.5z"/>
		</g>
		<g>
			<path style="fill:#BA9B48;" d="M29.141,6.667c1.025,0,1.859,0.834,1.859,1.86V15.5c0,2.19-1.465,4.159-3.562,4.788l-0.258,0.078     l-0.184,0.197C26.731,20.845,26.377,21,26,21s-0.731-0.155-0.995-0.438l-0.184-0.197l-0.258-0.078     C22.465,19.659,21,17.69,21,15.5V8.526c0-1.025,0.834-1.86,1.859-1.86H29.141 M29.141,5.667h-6.281     C21.28,5.667,20,6.947,20,8.526V15.5c0,2.714,1.803,5.004,4.275,5.745C24.707,21.707,25.318,22,26,22s1.293-0.293,1.725-0.755     C30.197,20.504,32,18.214,32,15.5V8.526C32,6.947,30.72,5.667,29.141,5.667L29.141,5.667z"/>
		</g>
	</g>
	<g>
		<path style="fill:#C8D1DB;" d="M31.5,13.5v-2.722c0-3.106-1.65-3.968-1.721-4.003l-0.358-0.179l-0.254,0.312    c-0.02,0.025-2.054,2.481-4.944,2.481c-0.238,0-0.473-0.008-0.698-0.016c-0.221-0.007-0.434-0.014-0.637-0.014    c-1.181,0-2.388,0.274-2.388,2.308V13.5h-0.205C19.939,12.826,19,10.833,19,8.624C19,4.296,21.748,1.5,26,1.5    c2.718,0,3.988,2.374,4.001,2.398l0.119,0.227l0.253,0.037C32.116,4.412,33,6.04,33,9c0,2.001-0.932,3.863-1.287,4.5H31.5z"/>
		<g>
			<path style="fill:#66798F;" d="M26,2c2.386,0,3.514,2.048,3.558,2.129l0.237,0.454l0.507,0.073C31.761,4.865,32.5,6.327,32.5,9     c0,0.955-0.23,1.885-0.5,2.646v-0.868c0-3.354-1.793-4.348-1.997-4.45l-0.719-0.36l-0.506,0.625     c-0.019,0.023-1.888,2.295-4.556,2.295c-0.233,0-0.461-0.008-0.681-0.015c-0.227-0.008-0.445-0.015-0.654-0.015     c-0.702,0-2.817,0-2.886,2.671C19.731,10.708,19.5,9.694,19.5,8.623C19.5,4.6,22.051,2,26,2 M26,1c-4.764,0-7.5,3.259-7.5,7.623     C18.5,11.514,20,14,20,14h1c0,0,0-1.538,0-2.333c0-1.592,0.787-1.808,1.888-1.808c0.41,0,0.862,0.03,1.334,0.03     c3.176,0,5.333-2.666,5.333-2.666S31,7.945,31,10.778C31,11.653,31,14,31,14h1c0,0,1.5-2.366,1.5-5     c0-3.148-1.013-5.041-3.056-5.333C30.444,3.667,29.052,1,26,1L26,1z"/>
		</g>
	</g>
	<g>
		<path style="fill:#C2E8FF;" d="M1.512,38.5c0.269-5.559,4.982-10,10.738-10h7.5c5.756,0,10.47,4.441,10.738,10H1.512z"/>
		<g>
			<path style="fill:#7496C4;" d="M19.75,29c5.306,0,9.683,3.954,10.199,9L2.051,38c0.516-5.046,4.893-9,10.199-9H19.75 M19.75,28     h-7.5C6.037,28,1,32.925,1,39v0h30v0C31,32.925,25.963,28,19.75,28L19.75,28z"/>
		</g>
	</g>
	<g>
		<path style="fill:#E8D47B;" d="M16,31.5c-3.075,0-4.297-2.625-4.5-3.123V22.91h9v5.468C20.297,28.875,19.075,31.5,16,31.5z"/>
		<path style="fill:#BA9B48;" d="M20,23.41v4.865C19.737,28.865,18.607,31,16,31c-2.611,0-3.741-2.141-4-2.725V23.41H20 M21,22.41    H11v6.062c0,0,1.267,3.529,5,3.529s5-3.529,5-3.529V22.41L21,22.41z"/>
	</g>
	<g>
		<g>
			<path style="fill:#E8D47B;" d="M22.429,20.643c-1.143,0-2.071-0.929-2.071-2.071s0.929-2.071,2.071-2.071     c1.725,0,2.071,0.465,2.071,1.214C24.5,18.966,23.476,20.643,22.429,20.643z M9.571,20.643c-1.047,0-2.071-1.677-2.071-2.928     c0-0.75,0.347-1.214,2.071-1.214c1.143,0,2.071,0.929,2.071,2.071S10.714,20.643,9.571,20.643z"/>
		</g>
		<g>
			<path style="fill:#BA9B48;" d="M22.429,17C24,17,24,17.363,24,17.714c0,1.044-0.896,2.429-1.571,2.429     c-0.867,0-1.571-0.705-1.571-1.571S21.562,17,22.429,17 M9.571,17c0.867,0,1.571,0.705,1.571,1.571s-0.705,1.571-1.571,1.571     C8.896,20.143,8,18.758,8,17.714C8,17.363,8,17,9.571,17 M22.429,16c-1.42,0-2.571,1.151-2.571,2.571s1.151,2.571,2.571,2.571     S25,19.134,25,17.714S23.849,16,22.429,16L22.429,16z M9.571,16C8.151,16,7,16.294,7,17.714s1.151,3.429,2.571,3.429     s2.571-1.151,2.571-2.571S10.992,16,9.571,16L9.571,16z"/>
		</g>
	</g>
	<g>
		<g>
			<path style="fill:#FFEEA3;" d="M16,27.5c-0.58,0-1.134-0.224-1.56-0.631l-0.09-0.086l-0.12-0.034     c-2.785-0.788-4.73-3.357-4.73-6.25v-8.136c0-1.564,1.272-2.836,2.836-2.836h7.328c1.563,0,2.836,1.272,2.836,2.836V20.5     c0,2.892-1.945,5.462-4.73,6.25l-0.12,0.034l-0.09,0.086C17.134,27.276,16.58,27.5,16,27.5z"/>
		</g>
		<g>
			<path style="fill:#BA9B48;" d="M19.664,10.028c1.288,0,2.336,1.048,2.336,2.336V20.5c0,2.67-1.796,5.042-4.367,5.768     l-0.239,0.068l-0.18,0.172C16.882,26.825,16.451,27,16,27s-0.882-0.175-1.215-0.492l-0.18-0.172l-0.239-0.068     C11.796,25.542,10,23.17,10,20.5v-8.136c0-1.288,1.048-2.336,2.336-2.336H19.664 M19.664,9.028h-7.328     C10.494,9.028,9,10.521,9,12.364V20.5c0,3.205,2.156,5.9,5.095,6.731C14.591,27.705,15.26,28,16,28s1.409-0.295,1.905-0.769     C20.844,26.4,23,23.705,23,20.5v-8.136C23,10.521,21.506,9.028,19.664,9.028L19.664,9.028z"/>
		</g>
	</g>
	<g>
		<path style="fill:#FFC49C;" d="M22.5,18.5V15c0-3.483-2.218-4.425-2.312-4.463l-0.343-0.139l-0.234,0.288    C19.589,10.713,17.283,13.5,14,13.5c-0.264,0-0.529-0.009-0.791-0.017c-0.265-0.008-0.525-0.017-0.777-0.017    c-0.878,0-2.932,0-2.932,2.534v2.5H9.285C8.845,17.727,7.5,15.151,7.5,12.576C7.5,7.821,10.995,4.5,16,4.5    c3.095,0,4.543,2.704,4.557,2.731l0.119,0.227l0.253,0.037C22.462,7.714,24.5,8.524,24.5,13c0,2.329-1.338,4.761-1.778,5.5H22.5z"/>
		<g>
			<path style="fill:#A16A4A;" d="M16,5c2.762,0,4.062,2.367,4.113,2.463l0.237,0.454l0.507,0.073C22.321,8.199,24,8.958,24,13     c0,1.395-0.515,2.842-1,3.894V15c0-3.816-2.516-4.883-2.623-4.926l-0.687-0.279l-0.467,0.577C19.201,10.397,17.06,13,14,13     c-0.259,0-0.519-0.008-0.775-0.017c-0.27-0.009-0.536-0.017-0.794-0.017C11.582,12.966,9,12.966,9,16v0.807     c-0.486-1.122-1-2.676-1-4.23C8,8.115,11.29,5,16,5 M16,4c-5.36,0-9,3.667-9,8.576C7,15.828,9,19,9,19h1c0,0,0-2.105,0-3     c0-1.791,1.085-2.034,2.431-2.034C12.932,13.966,13.469,14,14,14c3.573,0,6-3,6-3s2,0.813,2,4c0,0.984,0,4,0,4h1c0,0,2-3.037,2-6     c0-4.161-1.703-5.671-4-6C21,7,19.434,4,16,4L16,4z"/>
		</g>
	</g>
</g>
</svg>