<?xml version="1.0" encoding="iso-8859-1"?><!-- Generator: Adobe Illustrator 19.2.1, SVG Export Plug-In . SVG Version: 6.00 Build 0)  --><svg xmlns="http://www.w3.org/2000/svg" xmlns:xlink="http://www.w3.org/1999/xlink" version="1.1" x="0px" y="0px" viewBox="0 0 40 40" style="enable-background:new 0 0 40 40;" xml:space="preserve" width="40" height="40">
<g id="Layer_1">
	<g>
		<g>
			<path style="fill:#8BB7F0;" d="M20,38.5c-1.049,0-1.991-0.67-2.346-1.667L17.536,36.5H3c-0.827,0-1.5-0.673-1.5-1.5V10     c0-0.827,0.673-1.5,1.5-1.5h34c0.827,0,1.5,0.673,1.5,1.5v25c0,0.827-0.673,1.5-1.5,1.5H22.464l-0.118,0.333     C21.991,37.83,21.049,38.5,20,38.5z"/>
		</g>
		<g>
			<path style="fill:#4E7AB5;" d="M37,9c0.551,0,1,0.449,1,1v25c0,0.551-0.449,1-1,1H22.816H22.11l-0.236,0.665     C21.59,37.464,20.837,38,20,38s-1.59-0.536-1.874-1.335L17.89,36h-0.706H3c-0.551,0-1-0.449-1-1V10c0-0.551,0.449-1,1-1H37 M37,8     H3c-1.105,0-2,0.895-2,2v25c0,1.105,0.895,2,2,2h14.184c0.413,1.163,1.512,2,2.816,2s2.403-0.837,2.816-2H37c1.105,0,2-0.895,2-2     V10C39,8.895,38.105,8,37,8L37,8z"/>
		</g>
	</g>
	<g>
		<path style="fill:#FFFFFF;" d="M20,34.451c-0.93-0.41-4.68-1.951-8.5-1.951c-3.323,0-6.594,1.167-8,1.74V6.293    C4.323,5.859,7.238,4.5,11.5,4.5c5.047,0,8.206,1.906,8.237,1.926l0.262,0.161l0.264-0.161C20.294,6.406,23.453,4.5,28.5,4.5    c4.262,0,7.177,1.359,8,1.793V34.24c-1.406-0.573-4.677-1.74-8-1.74C24.68,32.5,20.93,34.042,20,34.451z"/>
		<path style="fill:#788B9C;" d="M28.5,5c3.777,0,6.462,1.095,7.5,1.601v26.908C34.336,32.888,31.44,32,28.5,32    c-3.677,0-7.284,1.389-8.5,1.907C18.784,33.389,15.177,32,11.5,32c-2.94,0-5.836,0.888-7.5,1.509V6.601C5.04,6.094,7.724,5,11.5,5    c4.887,0,7.946,1.833,7.974,1.85l0.525,0.322l0.525-0.32C20.554,6.833,23.613,5,28.5,5 M28.5,4C23.232,4,20,6,20,6s-3.232-2-8.5-2    S3,6,3,6v29c0,0,4.25-2,8.5-2s8.5,2,8.5,2s4.25-2,8.5-2s8.5,2,8.5,2V6C37,6,33.768,4,28.5,4L28.5,4z"/>
	</g>
	<path style="fill:#E1EBF2;" d="M36,33.509C34.336,32.888,31.44,32,28.5,32c-3.677,0-7.284,1.389-8.5,1.907L19.999,7.172l0.525-0.32   C20.554,6.833,23.613,5,28.5,5c3.777,0,6.463,1.095,7.5,1.601V33.509z"/>
	<circle style="fill:#36404D;" cx="28.5" cy="12.5" r="1.5"/>
	<g>
		<polygon style="fill:#36404D;" points="30,25 30,16 26,16 26,17 27,17 27,25 26,25 26,26 31,26 31,25   "/>
	</g>
</g>
<g id="Layer_2">
</g>
</svg>