<?xml version="1.0" encoding="iso-8859-1"?><!-- Generator: Adobe Illustrator 19.2.1, SVG Export Plug-In . SVG Version: 6.00 Build 0)  --><svg xmlns="http://www.w3.org/2000/svg" xmlns:xlink="http://www.w3.org/1999/xlink" version="1.1" id="Layer_1" x="0px" y="0px" viewBox="0 0 16 16" style="enable-background:new 0 0 16 16;" xml:space="preserve" width="16" height="16">
<g>
	<path style="fill:#4E7AB5;" d="M15,3H1C0.448,3,0,3.448,0,4v10c0,0.552,0.448,1,1,1h14c0.552,0,1-0.448,1-1V4   C16,3.448,15.552,3,15,3z"/>
</g>
<circle style="fill:#4E7AB5;" cx="8" cy="14" r="2"/>
<g>
	<path style="fill:#FFFFFF;" d="M8.006,13.395C7.479,13.068,6.306,12.5,4.5,12.5c-1.361,0-2.363,0.323-3,0.622V2.324   C1.872,2.068,2.882,1.5,4.5,1.5c2.079,0,3.153,0.938,3.164,0.948L8,2.748l0.336-0.301C8.345,2.44,9.43,1.5,11.5,1.5   c1.629,0,2.629,0.565,3,0.822v10.811c-0.645-0.301-1.659-0.633-3-0.633C9.741,12.5,8.543,13.072,8.006,13.395z"/>
	<g>
		<path style="fill:#788B9C;" d="M11.5,2c1.244,0,2.077,0.355,2.5,0.597v9.796C13.349,12.175,12.512,12,11.5,12    c-1.639,0-2.82,0.459-3.491,0.817C7.346,12.455,6.177,12,4.5,12c-1.022,0-1.855,0.169-2.5,0.383V2.597C2.425,2.353,3.254,2,4.5,2    c1.863,0,2.795,0.789,2.824,0.814l0.673,0.617l0.676-0.614C8.682,2.809,9.623,2,11.5,2 M11.5,1C9.184,1,8,2.077,8,2.077    S6.826,1,4.5,1S1,2.077,1,2.077V14c0,0,1.172-1,3.5-1S8,14,8,14s1.248-1,3.5-1s3.5,1,3.5,1V2.077C15,2.077,13.816,1,11.5,1L11.5,1    z"/>
	</g>
</g>
<path style="fill:#E1EBF2;" d="M14,12.393C13.349,12.175,12.512,12,11.5,12c-1.639,0-2.82,0.459-3.491,0.817L7.997,3.431  l0.676-0.615C8.682,2.809,9.623,2,11.5,2c1.244,0,2.077,0.355,2.5,0.597V12.393z"/>
<rect x="11" y="6" style="fill:#36404D;" width="1" height="4"/>
<circle style="fill:#36404D;" cx="11.5" cy="4.5" r="0.857"/>
<rect x="10.5" y="9" style="fill:#36404D;" width="2" height="1"/>
<rect x="10.5" y="6" style="fill:#36404D;" width="1.5" height="1"/>
</svg>