<?xml version="1.0" encoding="iso-8859-1"?><!-- Generator: Adobe Illustrator 19.2.1, SVG Export Plug-In . SVG Version: 6.00 Build 0)  --><svg xmlns="http://www.w3.org/2000/svg" xmlns:xlink="http://www.w3.org/1999/xlink" version="1.1" id="Layer_1" x="0px" y="0px" viewBox="0 0 30 30" style="enable-background:new 0 0 30 30;" xml:space="preserve" width="30" height="30">
<g>
	<path style="fill:#8BB7F0;" d="M9.52,23.5c0.268-3.352,3.194-6,6.753-6h5.455c3.559,0,6.485,2.648,6.753,6H9.52z"/>
	<g>
		<path style="fill:#4E7AB5;" d="M21.727,18c3.103,0,5.686,2.166,6.186,5H10.087c0.499-2.834,3.083-5,6.186-5H21.727 M21.727,17    h-5.455C12.256,17,9,20.134,9,24h20C29,20.134,25.744,17,21.727,17L21.727,17z"/>
	</g>
</g>
<g>
	<path style="fill:#E8D47B;" d="M19,19.5c-1.746,0-2.359-0.95-2.5-1.223v-2.969h5v2.97C21.363,18.544,20.752,19.5,19,19.5z"/>
	<path style="fill:#BA9B48;" d="M21,15.808v2.337C20.824,18.418,20.298,19,19,19c-1.31,0-1.834-0.593-2-0.851v-2.342H21 M22,14.808   h-6v3.577c0,0,0.599,1.615,3,1.615s3-1.615,3-1.615V14.808L22,14.808z"/>
</g>
<g>
	<g>
		<path style="fill:#E8D47B;" d="M23.286,11.684c-0.67,0-1.215-0.49-1.215-1.092S22.616,9.5,23.286,9.5    c1.214,0,1.214,0.324,1.214,0.561C24.5,10.74,23.889,11.684,23.286,11.684z M14.714,11.684c-0.603,0-1.214-0.944-1.214-1.623    c0-0.237,0-0.561,1.214-0.561c0.67,0,1.215,0.49,1.215,1.092S15.384,11.684,14.714,11.684z"/>
	</g>
	<g>
		<path style="fill:#BA9B48;" d="M23.286,10c0.424,0,0.626,0.044,0.714,0.074c-0.008,0.492-0.486,1.11-0.714,1.11    c-0.394,0-0.714-0.266-0.714-0.592S22.892,10,23.286,10 M14.714,10c0.394,0,0.714,0.266,0.714,0.592s-0.32,0.592-0.714,0.592    c-0.228,0-0.706-0.618-0.714-1.11C14.088,10.044,14.291,10,14.714,10 M23.286,9c-0.947,0-1.714,0.713-1.714,1.592    s0.768,1.592,1.714,1.592S25,10.94,25,10.061S24.232,9,23.286,9L23.286,9z M14.714,9C13.768,9,13,9.182,13,10.061    s0.768,2.122,1.714,2.122s1.714-0.713,1.714-1.592S15.661,9,14.714,9L14.714,9z"/>
	</g>
</g>
<g>
	<g>
		<path style="fill:#FFEEA3;" d="M19,16.5c-0.433,0-0.848-0.195-1.137-0.535l-0.098-0.114l-0.144-0.042    c-1.839-0.533-3.122-2.23-3.122-4.127V6.544c0-0.99,0.806-1.796,1.796-1.796h5.408c0.99,0,1.796,0.806,1.796,1.796v5.138    c0,1.897-1.283,3.594-3.122,4.127l-0.144,0.042l-0.098,0.114C19.848,16.305,19.433,16.5,19,16.5z"/>
	</g>
	<g>
		<path style="fill:#BA9B48;" d="M21.704,5.248C22.418,5.248,23,5.829,23,6.544v5.138c0,1.675-1.135,3.175-2.761,3.647l-0.289,0.084    l-0.195,0.229C19.642,15.775,19.392,16,19,16s-0.642-0.225-0.756-0.359l-0.195-0.229l-0.289-0.084    C16.135,14.857,15,13.357,15,11.682V6.544c0-0.715,0.582-1.296,1.296-1.296H21.704 M21.704,4.248h-5.407    C15.028,4.248,14,5.276,14,6.544v5.138c0,2.194,1.476,4.025,3.482,4.607C17.849,16.72,18.389,17,19,17s1.151-0.28,1.518-0.711    C22.524,15.707,24,13.876,24,11.682V6.544C24,5.276,22.972,4.248,21.704,4.248L21.704,4.248z"/>
	</g>
</g>
<g>
	<path style="fill:#C8D1DB;" d="M23.5,10.5V8.731c0-2.024-1.468-3.242-1.53-3.293L21.652,5.18l-0.315,0.26   C21.326,5.448,19.979,6.5,17.143,6.5c-1.654,0-2.643,1.207-2.643,3.228V10.5h-0.143C14.043,9.559,13.5,7.747,13.5,6.844   C13.5,3.548,15.607,1.5,19,1.5c1.477,0,2.511,1.3,2.521,1.313l0.15,0.192l0.244,0.001c1.286,0,2.584,1.104,2.584,3.572   c0,1.539-0.582,3.243-0.84,3.922H23.5z"/>
	<g>
		<path style="fill:#66798F;" d="M19,2c1.223,0,2.12,1.112,2.125,1.118l0.3,0.388h0.491c1.037,0,2.084,0.95,2.084,3.072    c0,0.389-0.04,0.791-0.103,1.184c-0.362-1.676-1.553-2.664-1.612-2.712l-0.634-0.516l-0.632,0.519C21.007,5.062,19.793,6,17.142,6    c-1.191,0-2.446,0.602-2.933,2.188C14.085,7.655,14,7.169,14,6.844C14,3.811,15.869,2,19,2 M19,1c-3.799,0-6,2.401-6,5.844    C13,8.183,14,11,14,11h1c0,0,0-0.639,0-1.272C15,7.989,15.757,7,17.142,7c3.083,0,4.512-1.175,4.512-1.175S23,6.921,23,8.731    C23,9.428,23,11,23,11h1c0,0,1-2.325,1-4.422c0-2.944-1.7-4.072-3.084-4.072C21.916,2.507,20.751,1,19,1L19,1z"/>
	</g>
</g>
<g>
	<path style="fill:#C2E8FF;" d="M1.517,28.5c0.258-3.903,3.516-7,7.483-7h6c3.968,0,7.226,3.097,7.483,7H1.517z"/>
	<g>
		<path style="fill:#7496C4;" d="M15,22c3.52,0,6.442,2.612,6.929,6L2.071,28C2.558,24.612,5.48,22,9,22H15 M15,21H9    c-4.418,0-8,3.582-8,8v0h22v0C23,24.582,19.418,21,15,21L15,21z"/>
	</g>
</g>
<g>
	<path style="fill:#E8D47B;" d="M12,23.5c-2.282,0-3.054-1.279-3.214-1.605v-3.824h6.428v3.824C15.058,22.215,14.288,23.5,12,23.5z"/>
	<path style="fill:#BA9B48;" d="M14.714,18.571v3.201C14.519,22.102,13.818,23,12,23c-1.815,0-2.518-0.9-2.714-1.229v-3.199H14.714    M15.714,17.571H8.286V22c0,0,0.742,2,3.714,2s3.714-2,3.714-2V17.571L15.714,17.571z"/>
</g>
<g>
	<g>
		<path style="fill:#E8D47B;" d="M17,15.5c-0.827,0-1.5-0.609-1.5-1.357s0.673-1.357,1.5-1.357c1.5,0,1.5,0.444,1.5,0.738    C18.5,14.35,17.744,15.5,17,15.5z M7,15.5c-0.744,0-1.5-1.15-1.5-1.977c0-0.294,0-0.738,1.5-0.738c0.827,0,1.5,0.609,1.5,1.357    S7.827,15.5,7,15.5z"/>
	</g>
	<g>
		<path style="fill:#BA9B48;" d="M17,13.285c0.787,0,0.978,0.131,0.988,0.131l0,0C17.99,13.421,18,13.451,18,13.523    C18,14.131,17.411,15,17,15c-0.551,0-1-0.385-1-0.857S16.449,13.285,17,13.285 M7,13.285c0.551,0,1,0.385,1,0.857S7.551,15,7,15    c-0.411,0-1-0.869-1-1.476c0-0.056,0.006-0.087,0.004-0.093C6.042,13.404,6.251,13.285,7,13.285 M17,12.285    c-1.105,0-2,0.831-2,1.857S15.895,16,17,16s2-1.451,2-2.476C19,12.498,18.105,12.285,17,12.285L17,12.285z M7,12.285    c-1.105,0-2,0.212-2,1.238C5,14.549,5.895,16,7,16s2-0.831,2-1.857S8.105,12.285,7,12.285L7,12.285z"/>
	</g>
</g>
<g>
	<g>
		<path style="fill:#FFEEA3;" d="M12,20.5c-0.383,0-0.739-0.16-1.002-0.451l-0.11-0.122l-0.161-0.033    C8.277,19.398,6.5,17.221,6.5,14.718V8.553c0-1.244,1.012-2.255,2.256-2.255h6.488c1.244,0,2.256,1.012,2.256,2.255v6.166    c0,2.503-1.777,4.68-4.227,5.176l-0.161,0.033l-0.11,0.122C12.739,20.34,12.383,20.5,12,20.5z"/>
	</g>
	<g>
		<path style="fill:#BA9B48;" d="M15.245,6.797C16.212,6.797,17,7.585,17,8.553v6.165c0,2.266-1.609,4.237-3.826,4.686l-0.322,0.065    l-0.221,0.244C12.534,19.82,12.323,20,12,20s-0.534-0.18-0.631-0.287l-0.221-0.244l-0.322-0.065C8.609,18.955,7,16.984,7,14.718    V8.553c0-0.968,0.788-1.755,1.755-1.755H15.245 M15.245,5.797H8.755C7.234,5.797,6,7.031,6,8.553v6.165    c0,2.798,1.987,5.131,4.627,5.666C10.967,20.76,11.454,21,12,21s1.033-0.24,1.373-0.616C16.013,19.849,18,17.516,18,14.718V8.553    C18,7.031,16.766,5.797,15.245,5.797L15.245,5.797z"/>
	</g>
</g>
<g>
	<path style="fill:#FFC49C;" d="M17.5,14.5v-1.777c0-2.701-2.081-4.564-2.17-4.642l-0.344-0.304l-0.332,0.317   C14.642,8.106,13.113,9.5,9.9,9.5c-2.065,0-3.4,1.322-3.4,3.367V14.5H6.391C6.145,13.5,5.5,10.771,5.5,9.606   C5.5,5.897,8.052,3.5,12,3.5c1.714,0,2.89,1.494,2.901,1.509l0.15,0.194h0.245c1.107,0,3.203,0.857,3.203,4.103   c0,1.827-0.627,4.286-0.878,5.193H17.5z"/>
	<g>
		<path style="fill:#A16A4A;" d="M12,4c1.449,0,2.498,1.306,2.505,1.315l0.3,0.388h0.491C16.232,5.703,18,6.456,18,9.306    c0,0.612-0.074,1.302-0.181,1.978c-0.535-2.127-2.079-3.51-2.158-3.579L14.979,7.12l-0.662,0.605C14.26,7.777,12.886,9,9.9,9    c-1.807,0-3.154,0.932-3.67,2.427C6.096,10.697,6,10.026,6,9.606C6,6.201,8.355,4,12,4 M12,3C7.705,3,5,5.714,5,9.606    C5,11.12,6,15,6,15h1c0,0,0-1.417,0-2.133C7,10.901,8.334,10,9.9,10c3.485,0,5.1-1.545,5.1-1.545s2,1.761,2,4.267    C17,13.51,17,15,17,15h1c0,0,1-3.323,1-5.694c0-3.329-2.139-4.603-3.703-4.603C15.297,4.703,13.98,3,12,3L12,3z"/>
	</g>
</g>
</svg>