<?xml version="1.0" encoding="iso-8859-1"?><!-- Generator: Adobe Illustrator 19.2.1, SVG Export Plug-In . SVG Version: 6.00 Build 0)  --><svg xmlns="http://www.w3.org/2000/svg" xmlns:xlink="http://www.w3.org/1999/xlink" version="1.1" id="Layer_1" x="0px" y="0px" viewBox="0 0 16 16" style="enable-background:new 0 0 16 16;" xml:space="preserve" width="16" height="16">
<g>
	<path style="fill:#E8D47B;" d="M3.5,10.5c-0.482,0-1-0.881-1-1.5c0-0.234,0-0.5,1-0.5c0.552,0,1,0.448,1,1S4.052,10.5,3.5,10.5z"/>
	<g>
		<path style="fill:#BA9B48;" d="M3.5,9C3.776,9,4,9.224,4,9.5S3.776,10,3.524,10.003C3.352,9.949,3.043,9.475,3.007,9.04    C3.091,9.021,3.242,9,3.5,9 M3.5,8C2.672,8,2,8.171,2,9s0.672,2,1.5,2S5,10.328,5,9.5S4.328,8,3.5,8L3.5,8z"/>
	</g>
</g>
<g>
	<path style="fill:#E8D47B;" d="M12.5,10.5c-0.552,0-1-0.448-1-1s0.448-1,1-1c1,0,1,0.266,1,0.5C13.5,9.619,12.982,10.5,12.5,10.5z"/>
	<g>
		<path style="fill:#BA9B48;" d="M12.5,9c0.264,0,0.416,0.022,0.499,0.041C12.978,9.443,12.654,9.947,12.5,10    C12.224,10,12,9.776,12,9.5S12.224,9,12.5,9 M12.5,8C11.672,8,11,8.671,11,9.5s0.672,1.5,1.5,1.5S14,9.828,14,9S13.328,8,12.5,8    L12.5,8z"/>
	</g>
</g>
<g>
	<g>
		<path style="fill:#FFEEA3;" d="M8,15.5c-0.459,0-0.888-0.213-1.177-0.584L6.73,14.797l-0.144-0.048    C4.74,14.134,3.5,12.427,3.5,10.5V4.855c0-1.038,0.845-1.883,1.883-1.883h5.234c1.038,0,1.883,0.845,1.883,1.883V10.5    c0,1.927-1.24,3.634-3.087,4.249L9.27,14.797l-0.093,0.119C8.888,15.287,8.459,15.5,8,15.5z"/>
	</g>
	<g>
		<path style="fill:#BA9B48;" d="M10.617,3.472C11.38,3.472,12,4.093,12,4.855V10.5c0,1.711-1.103,3.228-2.744,3.775L8.969,14.37    l-0.186,0.238C8.589,14.857,8.304,15,8,15s-0.589-0.143-0.783-0.392L7.031,14.37l-0.287-0.096C5.103,13.728,4,12.211,4,10.5V4.855    c0-0.763,0.62-1.383,1.383-1.383H10.617 M10.617,2.472H5.383C4.067,2.472,3,3.539,3,4.855V10.5c0,2.209,1.442,4.062,3.428,4.723    C6.794,15.693,7.359,16,8,16s1.206-0.307,1.572-0.777C11.558,14.562,13,12.709,13,10.5V4.855C13,3.539,11.933,2.472,10.617,2.472    L10.617,2.472z"/>
	</g>
</g>
<g>
	<path style="fill:#B0C1D4;" d="M12.5,9.5V7.235c0-2.512-1.978-3.288-2.062-3.32l-0.303-0.114L9.907,4.03   C9.893,4.045,8.416,5.5,6.286,5.5C4.672,5.5,3.5,6.552,3.5,8v1.5H3.349C3.093,8.771,2.5,6.879,2.5,4.999   C2.5,2.875,4.744,0.5,7.748,0.5c1.888,0,2.814,1.184,2.853,1.234l0.15,0.196L11,1.933c0.929,0,2.5,0.646,2.5,3.067   c0,1.465-0.615,3.659-0.868,4.5H12.5z"/>
	<g>
		<path style="fill:#66798F;" d="M7.748,1c1.62,0,2.424,0.998,2.45,1.031l0.3,0.402H11c0.205,0,2,0.072,2,2.568    c0,0.367-0.041,0.785-0.107,1.216c-0.453-2.054-2.193-2.737-2.278-2.769L10.01,3.224L9.554,3.676C9.54,3.69,8.196,5,6.286,5    c-1.49,0-2.661,0.773-3.099,1.942C3.077,6.331,3,5.665,3,4.999C3,3.111,5.031,1,7.748,1 M7.748,0C4.471,0,2,2.581,2,4.999    C2,7.516,3,10,3,10h1c0,0,0-1.416,0-2c0-1.22,1.007-2,2.286-2c2.379,0,3.976-1.617,3.976-1.617S12,5.04,12,7.236    C12,7.878,12,10,12,10h1c0,0,1-3.065,1-5c0-2.754-1.86-3.568-3-3.568C11,1.432,9.931,0,7.748,0L7.748,0z"/>
	</g>
</g>
<circle style="fill:#36404D;" cx="10.25" cy="9.75" r="0.75"/>
<circle style="fill:#36404D;" cx="5.75" cy="9.75" r="0.75"/>
</svg>