<?xml version="1.0" encoding="iso-8859-1"?><!-- Generator: Adobe Illustrator 19.2.1, SVG Export Plug-In . SVG Version: 6.00 Build 0)  --><svg xmlns="http://www.w3.org/2000/svg" xmlns:xlink="http://www.w3.org/1999/xlink" version="1.1" id="Layer_1" x="0px" y="0px" viewBox="0 0 16 16" style="enable-background:new 0 0 16 16;" xml:space="preserve" width="16" height="16">
<g>
	<path style="fill:#8BB7F0;" d="M4.521,13.5c0.286-3.361,3.429-3.982,3.569-4.008L12,9.5c0.053,0.019,3.192,0.651,3.479,4H4.521z"/>
	<g>
		<path style="fill:#4E7AB5;" d="M11.898,10c0.44,0.101,2.525,0.697,3.004,3H5.097c0.471-2.295,2.519-2.89,3.005-3H11.898 M12,9H8    c0,0-4,0.717-4,5h12C16,9.732,12,9,12,9L12,9z"/>
	</g>
</g>
<g>
	<path style="fill:#E8D47B;" d="M10,11.5c-1.02,0-1.519-0.523-1.682-0.74V8.682h3.363v2.079C11.521,10.974,11.022,11.5,10,11.5z"/>
	<path style="fill:#BA9B48;" d="M11.182,9.182v1.397C11.013,10.745,10.648,11,10,11c-0.648,0-1.012-0.255-1.182-0.422V9.182H11.182    M12.182,8.182H7.818v2.727C7.818,10.909,8.4,12,10,12s2.182-1.091,2.182-1.091V8.182L12.182,8.182z"/>
</g>
<g>
	<g>
		<path style="fill:#FFEEA3;" d="M10,9.5c-0.24,0-0.402-0.145-0.477-0.231l-0.096-0.11L9.289,9.118    C8.381,8.846,7.713,8.104,7.546,7.181L7.48,6.823L7.12,6.774C6.909,6.746,6.6,6.37,6.518,5.928L6.5,5.831V4.09L7.091,2.5h5.691    L13.5,4.106v1.76l-0.018,0.062C13.4,6.37,13.091,6.746,12.88,6.774l-0.36,0.049l-0.065,0.358    c-0.167,0.923-0.835,1.665-1.743,1.937l-0.139,0.042l-0.096,0.11C10.402,9.355,10.24,9.5,10,9.5z"/>
	</g>
	<g>
		<path style="fill:#BA9B48;" d="M12.458,3L13,4.213v1.574l-0.009,0.049c-0.038,0.206-0.163,0.39-0.233,0.45l-0.667,0.09    l-0.129,0.716c-0.133,0.737-0.667,1.329-1.394,1.546l-0.279,0.083l-0.191,0.22C10.065,8.981,10.032,9,10,9    S9.935,8.981,9.902,8.942l-0.191-0.22L9.432,8.639c-0.727-0.217-1.261-0.81-1.394-1.546L7.909,6.376l-0.667-0.09    c-0.07-0.06-0.194-0.244-0.233-0.45L7,5.799V4.18L7.438,3H12.458 M13.106,2H6.743L6,4v2l0.026,0.019    C6.13,6.578,6.546,7.202,7.054,7.27c0.202,1.117,1.021,2.007,2.092,2.327C9.355,9.839,9.655,10,10,10s0.645-0.161,0.854-0.403    c1.071-0.32,1.89-1.21,2.092-2.327c0.508-0.069,0.924-0.693,1.028-1.251L14,6V4L13.106,2L13.106,2z"/>
	</g>
</g>
<g>
	<path style="fill:#B0C1D4;" d="M13.468,5.5c-0.245-1.325-1.821-2.161-2.015-2.258L11.115,3.07l-0.258,0.281   C10.848,3.362,9.785,4.5,8.187,4.5c-1.147,0-1.523,0.55-1.64,1H6.5V3.452C6.5,2.025,7.42,0.5,10,0.5c1.06,0,1.56,0.74,1.58,0.771   l0.148,0.225L12,1.5c0.737,0,1.5,0.632,1.5,1.689V5.5H13.468z"/>
	<g>
		<path style="fill:#66798F;" d="M10,1c0.761,0,1.126,0.495,1.155,0.535L11.449,2H12c0.492,0,1,0.445,1,1.189v0.562    c-0.571-0.562-1.197-0.893-1.321-0.956l-0.676-0.334l-0.513,0.55C10.481,3.022,9.553,4,8.187,4C7.701,4,7.31,4.088,7,4.237V3.452    C7,2.877,7.216,1,10,1 M10,0C7.15,0,6,1.766,6,3.452C6,4.668,6,6,6,6h1V5.886C7,5.423,7.245,5,8.187,5    c1.855,0,3.04-1.312,3.04-1.312S13,4.585,13,5.848c0,0.201,0,0.259,0,0.259V6h1c0,0,0-0.82,0-2.811C14,1.872,13.032,1,12,1    C12,1,11.367,0,10,0L10,0z"/>
	</g>
</g>
<g>
	<path style="fill:#C2E8FF;" d="M0.521,15.5c0.286-3.361,3.429-3.982,3.569-4.008L8,11.5c0.053,0.019,3.192,0.651,3.479,4H0.521z"/>
	<g>
		<path style="fill:#7496C4;" d="M7.898,12c0.44,0.101,2.525,0.697,3.004,3H1.097c0.471-2.295,2.519-2.89,3.005-3H7.898 M8,11H4    c0,0-4,0.717-4,5h12C12,11.732,8,11,8,11L8,11z"/>
	</g>
</g>
<g>
	<path style="fill:#E8D47B;" d="M6,13.5c-1.02,0-1.519-0.523-1.682-0.74v-2.078h3.363v2.079C7.521,12.974,7.022,13.5,6,13.5z"/>
	<path style="fill:#BA9B48;" d="M7.182,11.182v1.397C7.013,12.745,6.648,13,6,13c-0.648,0-1.012-0.255-1.182-0.422v-1.396H7.182    M8.182,10.182H3.818v2.727C3.818,12.909,4.4,14,6,14s2.182-1.091,2.182-1.091V10.182L8.182,10.182z"/>
</g>
<g>
	<g>
		<path style="fill:#FFEEA3;" d="M6,11.5c-0.24,0-0.402-0.145-0.477-0.231l-0.096-0.11l-0.139-0.042    c-0.908-0.271-1.576-1.014-1.743-1.937L3.48,8.823L3.12,8.774C2.909,8.746,2.6,8.37,2.518,7.928L2.5,7.831V6.09L3.091,4.5h5.691    L9.5,6.106v1.76L9.482,7.928C9.4,8.37,9.091,8.746,8.88,8.774L8.52,8.823L8.454,9.181c-0.167,0.923-0.835,1.665-1.743,1.937    l-0.139,0.042l-0.096,0.11C6.402,11.355,6.24,11.5,6,11.5z"/>
	</g>
	<g>
		<path style="fill:#BA9B48;" d="M8.458,5L9,6.213v1.574L8.991,7.836c-0.038,0.206-0.163,0.39-0.233,0.45l-0.667,0.09L7.962,9.092    c-0.133,0.737-0.667,1.329-1.394,1.546l-0.279,0.083l-0.191,0.22C6.065,10.981,6.032,11,6,11s-0.065-0.019-0.098-0.058    l-0.191-0.22l-0.279-0.083c-0.727-0.217-1.261-0.81-1.394-1.546L3.909,8.376l-0.667-0.09c-0.07-0.06-0.194-0.244-0.233-0.45    L3,7.799V6.18L3.438,5H8.458 M9.106,4H2.743L2,6v2l0.026,0.019C2.13,8.578,2.546,9.202,3.054,9.27    c0.202,1.117,1.021,2.007,2.092,2.327C5.355,11.839,5.655,12,6,12s0.645-0.161,0.854-0.403c1.071-0.32,1.89-1.21,2.092-2.327    C9.454,9.202,9.87,8.578,9.974,8.019L10,8V6L9.106,4L9.106,4z"/>
	</g>
</g>
<g>
	<path style="fill:#FFC49C;" d="M9.468,7.5C9.223,6.175,7.646,5.339,7.453,5.242L7.115,5.07L6.857,5.351   C6.848,5.362,5.785,6.5,4.187,6.5c-1.147,0-1.523,0.55-1.64,1H2.5V5.452C2.5,4.025,3.42,2.5,6,2.5c1.06,0,1.56,0.74,1.58,0.771   l0.148,0.225L8,3.5c0.737,0,1.5,0.632,1.5,1.689V7.5H9.468z"/>
	<g>
		<path style="fill:#A16A4A;" d="M6,3c0.761,0,1.126,0.495,1.155,0.535L7.449,4H8c0.492,0,1,0.445,1,1.189v0.562    C8.429,5.19,7.803,4.858,7.679,4.796L7.003,4.462L6.49,5.012C6.481,5.022,5.553,6,4.187,6C3.701,6,3.31,6.088,3,6.237V5.452    C3,4.877,3.216,3,6,3 M6,2C3.15,2,2,3.766,2,5.452C2,6.668,2,8,2,8h1V7.886C3,7.423,3.245,7,4.187,7    c1.855,0,3.04-1.312,3.04-1.312S9,6.585,9,7.848c0,0.201,0,0.259,0,0.259V8h1c0,0,0-0.82,0-2.811C10,3.872,9.032,3,8,3    C8,3,7.367,2,6,2L6,2z"/>
	</g>
</g>
</svg>