<?xml version="1.0" encoding="iso-8859-1"?><!-- Generator: Adobe Illustrator 19.2.1, SVG Export Plug-In . SVG Version: 6.00 Build 0)  --><svg xmlns="http://www.w3.org/2000/svg" xmlns:xlink="http://www.w3.org/1999/xlink" version="1.1" id="Layer_1" x="0px" y="0px" viewBox="0 0 16 16" style="enable-background:new 0 0 16 16;" xml:space="preserve" width="16" height="16">
<g>
	<g>
		<path style="fill:#FFEEA3;" d="M8,15.5c-0.459,0-0.888-0.213-1.177-0.584L6.73,14.797l-0.144-0.048    C4.74,14.134,3.5,12.427,3.5,10.5V4.855c0-1.038,0.845-1.883,1.883-1.883h5.234c1.038,0,1.883,0.845,1.883,1.883V10.5    c0,1.927-1.24,3.634-3.087,4.249L9.27,14.797l-0.093,0.119C8.888,15.287,8.459,15.5,8,15.5z"/>
	</g>
	<g>
		<path style="fill:#BA9B48;" d="M10.617,3.472C11.38,3.472,12,4.093,12,4.855V10.5c0,1.711-1.103,3.228-2.744,3.775L8.969,14.37    l-0.186,0.238C8.589,14.857,8.304,15,8,15s-0.589-0.143-0.783-0.392L7.031,14.37l-0.287-0.096C5.103,13.728,4,12.211,4,10.5V4.855    c0-0.763,0.62-1.383,1.383-1.383H10.617 M10.617,2.472H5.383C4.067,2.472,3,3.539,3,4.855V10.5c0,2.209,1.442,4.062,3.428,4.723    C6.794,15.693,7.359,16,8,16s1.206-0.307,1.572-0.777C11.558,14.562,13,12.709,13,10.5V4.855C13,3.539,11.933,2.472,10.617,2.472    L10.617,2.472z"/>
	</g>
</g>
<g>
	<path style="fill:#FFC49C;" d="M13,14.5c-0.896,0-1.758-0.284-2.325-0.524c0.654-0.641,1.539-1.893,1.539-3.976   c0-2.448-1.76-4.523-1.835-4.611L9.99,4.937L9.612,5.398C9.596,5.42,7.871,7.5,6,7.5c-1.519,0-2.5,1.222-2.5,3.112   c0,1.653,0.967,2.765,1.696,3.367C4.579,14.222,3.713,14.5,3,14.5c-0.936,0-1.747-0.344-2.229-0.606C1.263,13.298,2,12.202,2,11   c0-0.607-0.119-1.263-0.245-1.957C1.63,8.354,1.5,7.643,1.5,7c0-4.466,2.925-6.5,5.643-6.5c2.909,0,3.88,1.67,3.919,1.741   l0.144,0.255L11.5,2.5c1.822,0,3,1.767,3,4.5c0,0.904-0.135,1.559-0.266,2.19C14.113,9.772,14,10.322,14,11   c0,1.182,0.759,2.305,1.248,2.905C14.798,14.162,14.013,14.5,13,14.5z"/>
	<g>
		<path style="fill:#A16A4A;" d="M7.143,1c2.584,0,3.45,1.428,3.478,1.475L10.904,3H11.5C13.019,3,14,4.57,14,7    c0,0.854-0.13,1.482-0.256,2.09C13.624,9.671,13.5,10.271,13.5,11c0,1.052,0.505,2.031,0.982,2.722C14.097,13.873,13.595,14,13,14    c-0.522,0-1.035-0.108-1.473-0.243c0.602-0.791,1.187-2.009,1.187-3.757c0-2.631-1.876-4.844-1.956-4.937l-0.777-0.9L9.226,5.081    C8.787,5.615,7.352,7,6,7c-1.794,0-3,1.452-3,3.612c0,1.397,0.615,2.445,1.264,3.163C3.832,13.904,3.381,14,3,14    c-0.546,0-1.051-0.137-1.455-0.297C2.015,13.021,2.5,12.061,2.5,11c0-0.652-0.129-1.361-0.253-2.046C2.125,8.287,2,7.598,2,7    C2,4.11,3.609,1,7.143,1 M7.143,0C3.888,0,1,2.503,1,7c0,1.331,0.5,2.837,0.5,4c0,1.57-1.5,3-1.5,3s1.31,1,3,1    c1.391,0,3.22-0.922,3.22-0.922S4,12.937,4,10.613C4,9.064,4.721,8,6,8c2.139,0,4-2.286,4-2.286S11.714,7.709,11.714,10    c0,2.977-1.968,4.078-1.968,4.078S11.293,15,13,15c1.849,0,3-1,3-1s-1.5-1.483-1.5-3c0-1.348,0.5-2.214,0.5-4    c0-3.392-1.661-5-3.5-5C11.5,2,10.419,0,7.143,0L7.143,0z"/>
	</g>
</g>
<circle style="fill:#36404D;" cx="10.25" cy="9.75" r="0.75"/>
<circle style="fill:#36404D;" cx="5.75" cy="9.75" r="0.75"/>
</svg>