<?xml version="1.0" encoding="iso-8859-1"?><!-- Generator: Adobe Illustrator 19.2.1, SVG Export Plug-In . SVG Version: 6.00 Build 0)  --><svg xmlns="http://www.w3.org/2000/svg" xmlns:xlink="http://www.w3.org/1999/xlink" version="1.1" id="Layer_1" x="0px" y="0px" viewBox="0 0 16 16" style="enable-background:new 0 0 16 16;" xml:space="preserve" width="16" height="16">
<g>
	<circle style="fill:#FFEEA3;" cx="12" cy="4" r="2.5"/>
	<g>
		<path style="fill:#BA9B48;" d="M12,2c1.103,0,2,0.897,2,2s-0.897,2-2,2s-2-0.897-2-2S10.897,2,12,2 M12,1c-1.657,0-3,1.343-3,3    s1.343,3,3,3s3-1.343,3-3S13.657,1,12,1L12,1z"/>
	</g>
</g>
<g>
	<circle style="fill:#F78F8F;" cx="4" cy="4" r="2.5"/>
	<g>
		<path style="fill:#C74343;" d="M4,2c1.103,0,2,0.897,2,2S5.103,6,4,6S2,5.103,2,4S2.897,2,4,2 M4,1C2.343,1,1,2.343,1,4    s1.343,3,3,3s3-1.343,3-3S5.657,1,4,1L4,1z"/>
	</g>
</g>
<g>
	<circle style="fill:#BAE0BD;" cx="12" cy="12" r="2.5"/>
	<g>
		<path style="fill:#5E9C76;" d="M12,10c1.103,0,2,0.897,2,2s-0.897,2-2,2s-2-0.897-2-2S10.897,10,12,10 M12,9c-1.657,0-3,1.343-3,3    s1.343,3,3,3s3-1.343,3-3S13.657,9,12,9L12,9z"/>
	</g>
</g>
<g>
	<circle style="fill:#8BB7F0;" cx="4" cy="12" r="2.5"/>
	<path style="fill:#4E7AB5;" d="M4,10c1.103,0,2,0.897,2,2s-0.897,2-2,2s-2-0.897-2-2S2.897,10,4,10 M4,9c-1.657,0-3,1.343-3,3   s1.343,3,3,3s3-1.343,3-3S5.657,9,4,9L4,9z"/>
</g>
</svg>