<?xml version="1.0" encoding="iso-8859-1"?><!-- Generator: Adobe Illustrator 19.2.1, SVG Export Plug-In . SVG Version: 6.00 Build 0)  --><svg xmlns="http://www.w3.org/2000/svg" xmlns:xlink="http://www.w3.org/1999/xlink" version="1.1" x="0px" y="0px" viewBox="0 0 40 40" style="enable-background:new 0 0 40 40;" xml:space="preserve" width="40" height="40">
<g id="Layer_1">
	<g>
		<circle style="fill:#FFEEA3;" cx="30" cy="10" r="7.5"/>
		<g>
			<path style="fill:#BA9B48;" d="M30,3c3.86,0,7,3.14,7,7s-3.14,7-7,7s-7-3.14-7-7S26.14,3,30,3 M30,2c-4.418,0-8,3.582-8,8     s3.582,8,8,8s8-3.582,8-8S34.418,2,30,2L30,2z"/>
		</g>
	</g>
	<g>
		<circle style="fill:#F78F8F;" cx="10" cy="10" r="7.5"/>
		<g>
			<path style="fill:#C74343;" d="M10,3c3.86,0,7,3.14,7,7s-3.14,7-7,7s-7-3.14-7-7S6.14,3,10,3 M10,2c-4.418,0-8,3.582-8,8     s3.582,8,8,8s8-3.582,8-8S14.418,2,10,2L10,2z"/>
		</g>
	</g>
	<g>
		<circle style="fill:#BAE0BD;" cx="30" cy="30" r="7.5"/>
		<g>
			<path style="fill:#5E9C76;" d="M30,23c3.86,0,7,3.14,7,7s-3.14,7-7,7s-7-3.14-7-7S26.14,23,30,23 M30,22c-4.418,0-8,3.582-8,8     s3.582,8,8,8s8-3.582,8-8S34.418,22,30,22L30,22z"/>
		</g>
	</g>
	<g>
		<circle style="fill:#8BB7F0;" cx="10" cy="30" r="7.5"/>
		<path style="fill:#4E7AB5;" d="M10,23c3.86,0,7,3.14,7,7s-3.14,7-7,7s-7-3.14-7-7S6.14,23,10,23 M10,22c-4.418,0-8,3.582-8,8    s3.582,8,8,8s8-3.582,8-8S14.418,22,10,22L10,22z"/>
	</g>
</g>
<g id="Layer_2">
</g>
</svg>