<?xml version="1.0" encoding="iso-8859-1"?><!-- Generator: Adobe Illustrator 19.2.1, SVG Export Plug-In . SVG Version: 6.00 Build 0)  --><svg xmlns="http://www.w3.org/2000/svg" xmlns:xlink="http://www.w3.org/1999/xlink" version="1.1" id="Layer_1" x="0px" y="0px" viewBox="0 0 30 30" style="enable-background:new 0 0 30 30;" xml:space="preserve" width="30" height="30">
<g>
	<circle style="fill:#FFEEA3;" cx="22" cy="8" r="5.5"/>
	<g>
		<path style="fill:#BA9B48;" d="M22,3c2.757,0,5,2.243,5,5s-2.243,5-5,5s-5-2.243-5-5S19.243,3,22,3 M22,2c-3.314,0-6,2.686-6,6    s2.686,6,6,6s6-2.686,6-6S25.314,2,22,2L22,2z"/>
	</g>
</g>
<g>
	<circle style="fill:#F78F8F;" cx="8" cy="8" r="5.5"/>
	<g>
		<path style="fill:#C74343;" d="M8,3c2.757,0,5,2.243,5,5s-2.243,5-5,5s-5-2.243-5-5S5.243,3,8,3 M8,2C4.686,2,2,4.686,2,8    s2.686,6,6,6s6-2.686,6-6S11.314,2,8,2L8,2z"/>
	</g>
</g>
<g>
	<circle style="fill:#BAE0BD;" cx="22" cy="22" r="5.5"/>
	<g>
		<path style="fill:#5E9C76;" d="M22,17c2.757,0,5,2.243,5,5s-2.243,5-5,5s-5-2.243-5-5S19.243,17,22,17 M22,16    c-3.314,0-6,2.686-6,6s2.686,6,6,6s6-2.686,6-6S25.314,16,22,16L22,16z"/>
	</g>
</g>
<g>
	<circle style="fill:#8BB7F0;" cx="8" cy="22" r="5.5"/>
	<path style="fill:#4E7AB5;" d="M8,17c2.757,0,5,2.243,5,5s-2.243,5-5,5s-5-2.243-5-5S5.243,17,8,17 M8,16c-3.314,0-6,2.686-6,6   s2.686,6,6,6s6-2.686,6-6S11.314,16,8,16L8,16z"/>
</g>
</svg>