<?xml version="1.0" encoding="iso-8859-1"?><!-- Generator: Adobe Illustrator 19.2.1, SVG Export Plug-In . SVG Version: 6.00 Build 0)  --><svg xmlns="http://www.w3.org/2000/svg" xmlns:xlink="http://www.w3.org/1999/xlink" version="1.1" id="Layer_1" x="0px" y="0px" viewBox="0 0 30 30" style="enable-background:new 0 0 30 30;" xml:space="preserve" width="30" height="30">
<path style="fill:none;stroke:#66798F;stroke-miterlimit:10;" d="M3.5,21.5V20C3.5,13.649,8.649,8.5,15,8.5h0  c6.351,0,11.5,5.149,11.5,11.5v1.5"/>
<line style="fill:none;stroke:#66798F;stroke-miterlimit:10;" x1="2.5" y1="8.5" x2="27.5" y2="8.5"/>
<g>
	<rect x="12.5" y="6.5" style="fill:#8BB7F0;" width="5" height="5"/>
	<path style="fill:#4E7AB5;" d="M17,7v4h-4V7H17 M18,6h-6v6h6V6L18,6z"/>
</g>
<g>
	<rect x="24.5" y="19.5" style="fill:#8BB7F0;" width="4" height="4"/>
	<path style="fill:#4E7AB5;" d="M28,20v3h-3v-3H28 M29,19h-5v5h5V19L29,19z"/>
</g>
<g>
	<rect x="1.5" y="19.5" style="fill:#8BB7F0;" width="4" height="4"/>
	<path style="fill:#4E7AB5;" d="M5,20v3H2v-3H5 M6,19H1v5h5V19L6,19z"/>
</g>
<g>
	<circle style="fill:#F78F8F;" cx="27.5" cy="8.5" r="1"/>
	<g>
		<path style="fill:#C74343;" d="M27.5,8C27.776,8,28,8.224,28,8.5S27.776,9,27.5,9S27,8.776,27,8.5S27.224,8,27.5,8 M27.5,7    C26.672,7,26,7.672,26,8.5s0.672,1.5,1.5,1.5S29,9.328,29,8.5S28.328,7,27.5,7L27.5,7z"/>
	</g>
</g>
<g>
	<circle style="fill:#F78F8F;" cx="2.5" cy="8.5" r="1"/>
	<g>
		<path style="fill:#C74343;" d="M2.5,8C2.776,8,3,8.224,3,8.5S2.776,9,2.5,9S2,8.776,2,8.5S2.224,8,2.5,8 M2.5,7    C1.672,7,1,7.672,1,8.5S1.672,10,2.5,10S4,9.328,4,8.5S3.328,7,2.5,7L2.5,7z"/>
	</g>
</g>
</svg>