<?xml version="1.0" encoding="iso-8859-1"?><!-- Generator: Adobe Illustrator 19.2.1, SVG Export Plug-In . SVG Version: 6.00 Build 0)  --><svg xmlns="http://www.w3.org/2000/svg" xmlns:xlink="http://www.w3.org/1999/xlink" version="1.1" id="Layer_1" x="0px" y="0px" viewBox="0 0 40 40" style="enable-background:new 0 0 40 40;" xml:space="preserve" width="40" height="40">
<path style="fill:none;stroke:#66798F;stroke-miterlimit:10;" d="M4.5,28.022V26c0-8.56,6.94-15.5,15.5-15.5h0  c8.56,0,15.5,6.94,15.5,15.5v2.022"/>
<line style="fill:none;stroke:#66798F;stroke-miterlimit:10;" x1="3" y1="10.5" x2="37" y2="10.5"/>
<g>
	<rect x="16.5" y="7.5" style="fill:#8BB7F0;" width="7" height="7"/>
	<path style="fill:#4E7AB5;" d="M23,8v6h-6V8H23 M24,7h-8v8h8V7L24,7z"/>
</g>
<g>
	<rect x="32.5" y="25.5" style="fill:#8BB7F0;" width="6" height="6"/>
	<path style="fill:#4E7AB5;" d="M38,26v5h-5v-5H38 M39,25h-7v7h7V25L39,25z"/>
</g>
<g>
	<rect x="1.5" y="25.5" style="fill:#8BB7F0;" width="6" height="6"/>
	<path style="fill:#4E7AB5;" d="M7,26v5H2v-5H7 M8,25H1v7h7V25L8,25z"/>
</g>
<g>
	<circle style="fill:#F78F8F;" cx="36.5" cy="10.5" r="2"/>
	<g>
		<path style="fill:#C74343;" d="M36.5,9c0.827,0,1.5,0.673,1.5,1.5S37.327,12,36.5,12S35,11.327,35,10.5S35.673,9,36.5,9 M36.5,8    C35.119,8,34,9.119,34,10.5s1.119,2.5,2.5,2.5s2.5-1.119,2.5-2.5S37.881,8,36.5,8L36.5,8z"/>
	</g>
</g>
<g>
	<circle style="fill:#F78F8F;" cx="3.5" cy="10.5" r="2"/>
	<g>
		<path style="fill:#C74343;" d="M3.5,9C4.327,9,5,9.673,5,10.5S4.327,12,3.5,12S2,11.327,2,10.5S2.673,9,3.5,9 M3.5,8    C2.119,8,1,9.119,1,10.5S2.119,13,3.5,13S6,11.881,6,10.5S4.881,8,3.5,8L3.5,8z"/>
	</g>
</g>
</svg>