<?xml version="1.0" encoding="iso-8859-1"?><!-- Generator: Adobe Illustrator 19.2.1, SVG Export Plug-In . SVG Version: 6.00 Build 0)  --><svg xmlns="http://www.w3.org/2000/svg" xmlns:xlink="http://www.w3.org/1999/xlink" version="1.1" id="Layer_1" x="0px" y="0px" viewBox="0 0 80 80" style="enable-background:new 0 0 80 80;" xml:space="preserve" width="80" height="80">
<path style="fill:none;stroke:#66798F;stroke-miterlimit:10;" d="M9,57.043V53c0-17.121,13.879-31,31-31h0c17.121,0,31,13.879,31,31  v4.044"/>
<line style="fill:none;stroke:#66798F;stroke-miterlimit:10;" x1="6" y1="22.5" x2="74" y2="22.5"/>
<g>
	<rect x="32.5" y="15.5" style="fill:#8BB7F0;" width="15" height="15"/>
	<path style="fill:#4E7AB5;" d="M47,16v14H33V16H47 M48,15H32v16h16V15L48,15z"/>
</g>
<g>
	<rect x="64.5" y="51.5" style="fill:#8BB7F0;" width="13" height="13"/>
	<path style="fill:#4E7AB5;" d="M77,52v12H65V52H77 M78,51H64v14h14V51L78,51z"/>
</g>
<g>
	<rect x="2.5" y="51.5" style="fill:#8BB7F0;" width="13" height="13"/>
	<path style="fill:#4E7AB5;" d="M15,52v12H3V52H15 M16,51H2v14h14V51L16,51z"/>
</g>
<g>
	<circle style="fill:#F78F8F;" cx="73.5" cy="22.5" r="4"/>
	<g>
		<path style="fill:#C74343;" d="M73.5,19c1.93,0,3.5,1.57,3.5,3.5S75.43,26,73.5,26S70,24.43,70,22.5S71.57,19,73.5,19 M73.5,18    c-2.485,0-4.5,2.015-4.5,4.5s2.015,4.5,4.5,4.5s4.5-2.015,4.5-4.5S75.985,18,73.5,18L73.5,18z"/>
	</g>
</g>
<g>
	<circle style="fill:#F78F8F;" cx="6.5" cy="22.5" r="4"/>
	<g>
		<path style="fill:#C74343;" d="M6.5,19c1.93,0,3.5,1.57,3.5,3.5S8.43,26,6.5,26S3,24.43,3,22.5S4.57,19,6.5,19 M6.5,18    C4.015,18,2,20.015,2,22.5S4.015,27,6.5,27s4.5-2.015,4.5-4.5S8.985,18,6.5,18L6.5,18z"/>
	</g>
</g>
</svg>