<?xml version="1.0" encoding="iso-8859-1"?><!-- Generator: Adobe Illustrator 19.2.1, SVG Export Plug-In . SVG Version: 6.00 Build 0)  --><svg xmlns="http://www.w3.org/2000/svg" xmlns:xlink="http://www.w3.org/1999/xlink" version="1.1" id="Layer_1" x="0px" y="0px" viewBox="0 0 40 40" style="enable-background:new 0 0 40 40;" xml:space="preserve" width="40" height="40">
<g>
	<path style="fill:#FFEEA3;" d="M35.5,23.5v-7H38c0.276,0,0.5,0.224,0.5,0.5v6c0,0.276-0.224,0.5-0.5,0.5H35.5z"/>
	<path style="fill:#BA9B48;" d="M38,17v6h-2v-6H38 M38,16h-3v8h3c0.552,0,1-0.448,1-1v-6C39,16.448,38.552,16,38,16L38,16z"/>
</g>
<g>
	<rect x="10.5" y="1.5" style="fill:#8BB7F0;" width="19" height="37"/>
	<g>
		<path style="fill:#4E7AB5;" d="M29,2v36H11V2H29 M30,1H10v38h20V1L30,1z"/>
	</g>
</g>
<g>
	<rect x="11" y="1" style="fill:#8BB7F0;" width="18" height="38"/>
</g>
<g>
	<path style="fill:#FFEEA3;" d="M20,35.5c-8.547,0-15.5-6.953-15.5-15.5S11.453,4.5,20,4.5S35.5,11.453,35.5,20S28.547,35.5,20,35.5   z"/>
	<g>
		<path style="fill:#BA9B48;" d="M20,5c8.271,0,15,6.729,15,15s-6.729,15-15,15S5,28.271,5,20S11.729,5,20,5 M20,4    C11.163,4,4,11.163,4,20s7.163,16,16,16s16-7.163,16-16S28.837,4,20,4L20,4z"/>
	</g>
</g>
<g>
	<path style="fill:#FFFFFF;" d="M20,33.5c-7.444,0-13.5-6.056-13.5-13.5S12.556,6.5,20,6.5S33.5,12.556,33.5,20S27.444,33.5,20,33.5   z"/>
	<g>
		<path style="fill:#BA9B48;" d="M20,7c7.168,0,13,5.832,13,13s-5.832,13-13,13S7,27.168,7,20S12.832,7,20,7 M20,6    C12.268,6,6,12.268,6,20s6.268,14,14,14s14-6.268,14-14S27.732,6,20,6L20,6z"/>
	</g>
</g>
<polyline style="fill:none;stroke:#66798F;stroke-linecap:round;stroke-miterlimit:10;" points="25.412,12.004 20,20 24.523,24.523   "/>
<g>
	<circle style="fill:#66798F;" cx="20" cy="20" r="1.5"/>
</g>
</svg>