<?xml version="1.0" encoding="iso-8859-1"?><!-- Generator: Adobe Illustrator 19.2.1, SVG Export Plug-In . SVG Version: 6.00 Build 0)  --><svg xmlns="http://www.w3.org/2000/svg" xmlns:xlink="http://www.w3.org/1999/xlink" version="1.1" id="Layer_1" x="0px" y="0px" viewBox="0 0 30 30" style="enable-background:new 0 0 30 30;" xml:space="preserve" width="30" height="30">
<g>
	<rect x="7.5" y="1.5" style="fill:#8BB7F0;" width="15" height="27"/>
	<g>
		<path style="fill:#4E7AB5;" d="M22,2v26H8V2H22 M23,1H7v28h16V1L23,1z"/>
	</g>
</g>
<g>
	<rect x="8" y="1" style="fill:#8BB7F0;" width="14" height="28"/>
</g>
<g>
	<path style="fill:#FFEEA3;" d="M15,26.5C8.659,26.5,3.5,21.341,3.5,15S8.659,3.5,15,3.5S26.5,8.659,26.5,15S21.341,26.5,15,26.5z"/>
	<g>
		<path style="fill:#BA9B48;" d="M15,4c6.065,0,11,4.935,11,11s-4.935,11-11,11S4,21.065,4,15S8.935,4,15,4 M15,3    C8.373,3,3,8.373,3,15s5.373,12,12,12s12-5.373,12-12S21.627,3,15,3L15,3z"/>
	</g>
</g>
<g>
	<path style="fill:#FFFFFF;" d="M15,24.5c-5.238,0-9.5-4.262-9.5-9.5S9.762,5.5,15,5.5s9.5,4.262,9.5,9.5S20.238,24.5,15,24.5z"/>
	<g>
		<path style="fill:#BA9B48;" d="M15,6c4.963,0,9,4.037,9,9s-4.037,9-9,9s-9-4.037-9-9S10.037,6,15,6 M15,5C9.477,5,5,9.477,5,15    s4.477,10,10,10s10-4.477,10-10S20.523,5,15,5L15,5z"/>
	</g>
</g>
<g>
	<path style="fill:#FFEEA3;" d="M26.5,17.5v-5H28c0.276,0,0.5,0.224,0.5,0.5v4c0,0.276-0.224,0.5-0.5,0.5H26.5z"/>
	<path style="fill:#BA9B48;" d="M28,13v4h-1v-4H28 M28,12h-2v6h2c0.552,0,1-0.448,1-1v-4C29,12.448,28.552,12,28,12L28,12z"/>
</g>
<polyline style="fill:none;stroke:#66798F;stroke-linecap:round;stroke-miterlimit:10;" points="18.865,9.288 15,15 18.231,18.231   "/>
<g>
	<circle style="fill:#66798F;" cx="15" cy="15" r="1"/>
</g>
</svg>