<?xml version="1.0" encoding="iso-8859-1"?><!-- Generator: Adobe Illustrator 19.2.1, SVG Export Plug-In . SVG Version: 6.00 Build 0)  --><svg xmlns="http://www.w3.org/2000/svg" xmlns:xlink="http://www.w3.org/1999/xlink" version="1.1" id="Layer_1" x="0px" y="0px" viewBox="0 0 80 80" style="enable-background:new 0 0 80 80;" xml:space="preserve" width="80" height="80">
<circle style="fill:#36404D;" cx="68" cy="39" r="3"/>
<path style="fill:none;stroke:#36404D;stroke-width:4;stroke-miterlimit:10;" d="M62,18v-1.182C62,12.652,65.234,10,69,10l0,0  c4.696,0,7,3.234,7,7l0,0c0,6.326-8,6.411-8,14"/>
<g>
	<path style="fill:#C2E8FF;" d="M2.505,77.5c0.267-12.729,10.704-23,23.495-23h16c12.791,0,23.228,10.271,23.495,23H2.505z"/>
	<g>
		<path style="fill:#7496C4;" d="M42,55c12.347,0,22.453,9.78,22.979,22L3.021,77C3.547,64.78,13.653,55,26,55H42 M42,54H26    C12.745,54,2,64.745,2,78v0h64v0C66,64.745,55.255,54,42,54L42,54z"/>
	</g>
</g>
<g>
	<path style="fill:#E8D47B;" d="M34,61.5c-6.231,0-9.092-4.758-9.5-5.5V44.5h19v11.501C43.084,56.776,40.289,61.5,34,61.5z"/>
	<path style="fill:#BA9B48;" d="M43,45v10.872C42.451,56.84,39.757,61,34,61c-5.76,0-8.454-4.165-9-5.127V45H43 M44,44H24v12.124   c0,0,2.886,5.876,10,5.876s10-5.876,10-5.876V44L44,44z"/>
</g>
<g>
	<g>
		<path style="fill:#E8D47B;" d="M48.286,38.929c-2.875,0-5.214-2.339-5.214-5.214s2.339-5.214,5.214-5.214    c3.704,0,5.214,0.959,5.214,3.31C53.5,34.621,51.164,38.929,48.286,38.929z M19.714,38.929c-2.878,0-5.214-4.308-5.214-7.119    c0-2.351,1.511-3.31,5.214-3.31c2.875,0,5.214,2.339,5.214,5.214S22.589,38.929,19.714,38.929z"/>
	</g>
	<g>
		<path style="fill:#BA9B48;" d="M48.286,29C52.211,29,53,30.075,53,31.81c0,2.829-2.331,6.619-4.714,6.619    c-2.599,0-4.714-2.115-4.714-4.714C43.571,31.115,45.686,29,48.286,29 M19.714,29c2.599,0,4.714,2.115,4.714,4.714    c0,2.599-2.115,4.714-4.714,4.714c-2.384,0-4.714-3.79-4.714-6.619C15,30.075,15.789,29,19.714,29 M48.286,28    c-3.156,0-5.714,2.558-5.714,5.714c0,3.156,2.558,5.714,5.714,5.714c3.156,0,5.714-4.463,5.714-7.619S51.442,28,48.286,28    L48.286,28z M19.714,28C16.558,28,14,28.654,14,31.81s2.558,7.619,5.714,7.619c3.156,0,5.714-2.558,5.714-5.714    C25.429,30.558,22.87,28,19.714,28L19.714,28z"/>
	</g>
</g>
<g>
	<g>
		<path style="fill:#FFEEA3;" d="M34,53.5c-1.343,0-2.639-0.495-3.648-1.393l-0.091-0.081l-0.118-0.03    C23.288,50.237,18.5,44.071,18.5,37V18.403c0-3.929,3.196-7.125,7.125-7.125h16.749c3.929,0,7.125,3.196,7.125,7.125V37    c0,7.071-4.788,13.237-11.643,14.996l-0.118,0.03l-0.091,0.081C36.639,53.005,35.343,53.5,34,53.5z"/>
	</g>
	<g>
		<path style="fill:#BA9B48;" d="M42.375,11.778c3.653,0,6.625,2.972,6.625,6.625V37c0,6.842-4.633,12.81-11.268,14.512l-0.235,0.06    l-0.181,0.161C36.398,52.55,35.22,53,34,53c-1.22,0-2.398-0.45-3.316-1.267l-0.181-0.161l-0.235-0.06    C23.633,49.81,19,43.842,19,37V18.403c0-3.653,2.972-6.625,6.625-6.625H42.375 M42.375,10.778H25.625    c-4.211,0-7.625,3.414-7.625,7.625V37c0,7.46,5.112,13.708,12.019,15.48C31.079,53.423,32.47,54,34,54s2.921-0.577,3.981-1.52    C44.888,50.708,50,44.46,50,37V18.403C50,14.192,46.586,10.778,42.375,10.778L42.375,10.778z"/>
	</g>
</g>
<g>
	<path style="fill:#FFC49C;" d="M49.5,35.5V28c0-7.02-6.83-10.764-7.121-10.92l-0.388-0.208l-0.256,0.359   c-0.042,0.06-4.365,5.983-13.436,5.983c-6.502,0-9.8,2.283-9.8,6.786v5.5h-0.181c-0.686-1.507-3.819-8.734-3.819-14.877   C14.5,9.783,21.935,2.5,33,2.5c8.037,0,10.441,5.461,10.539,5.694l0.129,0.305L44,8.5c3.528,0,9.5,2.428,9.5,11.53   c0,5.623-3.163,13.793-3.836,15.47H49.5z"/>
	<g>
		<path style="fill:#A16A4A;" d="M33,3c7.678,0,9.985,5.17,10.077,5.385L43.334,9H44c0.921,0,9,0.31,9,11.03    c0,4.238-1.84,9.983-3,13.181V28c0-7.316-7.083-11.199-7.384-11.361l-0.779-0.418l-0.51,0.721    c-0.041,0.058-4.187,5.771-13.027,5.771C23.601,22.714,18,23.978,18,30v3.475c-1.152-2.865-3-8.188-3-12.852    C15,10.082,22.234,3,33,3 M33,2C21.362,2,14,9.962,14,20.623C14,27.684,18,36,18,36h1c0,0,0-4.057,0-6    c0-5.336,5.048-6.286,9.3-6.286c9.46,0,13.843-6.193,13.843-6.193S49,21.198,49,28c0,2.137,0,8,0,8h1c0,0,4-9.535,4-15.97    C54,10.995,48.247,8,44,8C44,8,41.494,2,33,2L33,2z"/>
	</g>
</g>
</svg>