<?xml version="1.0" encoding="iso-8859-1"?><!-- Generator: Adobe Illustrator 19.2.1, SVG Export Plug-In . SVG Version: 6.00 Build 0)  --><svg xmlns="http://www.w3.org/2000/svg" xmlns:xlink="http://www.w3.org/1999/xlink" version="1.1" x="0px" y="0px" viewBox="0 0 40 40" style="enable-background:new 0 0 40 40;" xml:space="preserve" width="40" height="40">
<g id="Layer_1">
	<circle style="fill:#36404D;" cx="35" cy="20.964" r="2.036"/>
	<path style="fill:none;stroke:#36404D;stroke-width:2;stroke-miterlimit:10;" d="M35,17v-2c0-2.143,4-3.499,4-7   c0-2.214-1.791-4-4-4h0c-2.209,0-4,1.791-4,4v1"/>
</g>
<g id="Layer_2">
	<g>
		<path style="fill:#C2E8FF;" d="M1.511,38.5c0.263-6.11,5.316-11,11.489-11h8c6.173,0,11.227,4.89,11.489,11H1.511z"/>
		<g>
			<path style="fill:#7496C4;" d="M21,28c5.729,0,10.448,4.401,10.955,10H2.045C2.552,32.401,7.271,28,13,28H21 M21,27h-8     C6.373,27,1,32.373,1,39h32C33,32.373,27.627,27,21,27L21,27z"/>
		</g>
	</g>
	<g>
		<path style="fill:#E8D47B;" d="M17,30.5c-3.219,0-4.309-2.101-4.5-2.536V22.5h9v5.464C21.312,28.394,20.222,30.5,17,30.5z"/>
		<path style="fill:#BA9B48;" d="M21,23v4.854C20.759,28.343,19.738,30,17,30c-2.73,0-3.756-1.657-4-2.147V23H21 M22,22H12v6.062    c0,0,1.066,2.938,5,2.938s5-2.938,5-2.938V22L22,22z"/>
	</g>
	<g>
		<g>
			<path style="fill:#E8D47B;" d="M24.143,19.214c-1.3,0-2.357-1.058-2.357-2.357s1.058-2.357,2.357-2.357     c1.963,0,2.357,0.538,2.357,1.405C26.5,17.319,25.335,19.214,24.143,19.214z M9.857,19.214c-1.192,0-2.357-1.895-2.357-3.31     c0-0.867,0.394-1.405,2.357-1.405c1.3,0,2.357,1.057,2.357,2.357S11.157,19.214,9.857,19.214z"/>
		</g>
		<g>
			<path style="fill:#BA9B48;" d="M24.143,15C26,15,26,15.481,26,15.905c0,1.234-1.041,2.81-1.857,2.81     c-1.024,0-1.857-0.833-1.857-1.857C22.286,15.833,23.119,15,24.143,15 M9.857,15c1.024,0,1.857,0.833,1.857,1.857     c0,1.024-0.833,1.857-1.857,1.857C9.041,18.714,8,17.139,8,15.905C8,15.481,8,15,9.857,15 M24.143,14     c-1.578,0-2.857,1.279-2.857,2.857s1.279,2.857,2.857,2.857c1.578,0,2.857-2.232,2.857-3.81C27,14.327,25.721,14,24.143,14     L24.143,14z M9.857,14C8.279,14,7,14.327,7,15.905c0,1.578,1.279,3.81,2.857,3.81c1.578,0,2.857-1.279,2.857-2.857     S11.435,14,9.857,14L9.857,14z"/>
		</g>
	</g>
	<g>
		<g>
			<path style="fill:#FFEEA3;" d="M17,26.5c-0.604,0-1.172-0.218-1.641-0.63l-0.09-0.08l-0.117-0.03     C11.824,24.916,9.5,21.93,9.5,18.5V9.202c0-1.827,1.486-3.313,3.312-3.313h8.375c1.827,0,3.312,1.486,3.312,3.313V18.5     c0,3.43-2.324,6.416-5.652,7.26l-0.117,0.03l-0.09,0.08C18.172,26.282,17.604,26.5,17,26.5z"/>
		</g>
		<g>
			<path style="fill:#BA9B48;" d="M21.187,6.389C22.738,6.389,24,7.651,24,9.202V18.5c0,3.201-2.169,5.987-5.275,6.776l-0.233,0.059     l-0.181,0.159C18.048,25.725,17.608,26,17,26s-1.048-0.275-1.311-0.506l-0.181-0.159l-0.233-0.059     C12.169,24.487,10,21.701,10,18.5V9.202c0-1.551,1.262-2.813,2.813-2.813H21.187 M21.187,5.389h-8.375     C10.707,5.389,9,7.096,9,9.202V18.5c0,3.737,2.566,6.866,6.029,7.745C15.557,26.709,16.242,27,17,27s1.443-0.291,1.971-0.755     C22.434,25.366,25,22.237,25,18.5V9.202C25,7.096,23.293,5.389,21.187,5.389L21.187,5.389z"/>
		</g>
	</g>
	<g>
		<path style="fill:#FFC49C;" d="M24.5,17.5V14c0-3.636-3.034-5.582-3.163-5.663l-0.398-0.25L20.664,8.47    c-0.084,0.118-2.119,2.887-6.514,2.887c-1.15,0-4.65,0-4.65,3.643v2.5H9.321C8.886,16.518,7.5,13.168,7.5,10.312    c0-5.271,3.617-8.812,9-8.812c3.839,0,4.992,2.585,5.04,2.695l0.13,0.303L22,4.5c2.076,0,4.5,1.444,4.5,5.515    c0,2.623-1.407,6.393-1.837,7.485H24.5z"/>
		<g>
			<path style="fill:#A16A4A;" d="M16.5,2c3.483,0,4.538,2.297,4.577,2.385L21.334,5H22c1.845,0,4,1.313,4,5.015     c0,1.536-0.507,3.498-1,5.043V14c0-3.909-3.258-5.999-3.397-6.087L20.802,7.41l-0.547,0.772     c-0.019,0.027-1.941,2.674-6.105,2.674C10.733,10.857,9,12.251,9,15v0.314c-0.491-1.422-1-3.305-1-5.003C8,5.34,11.416,2,16.5,2      M16.5,1C10.681,1,7,4.981,7,10.311C7,13.842,9,18,9,18h1c0,0,0-2.029,0-3c0-2.668,2.024-3.143,4.15-3.143     c4.73,0,6.922-3.097,6.922-3.097S24,10.599,24,14c0,1.069,0,4,0,4h1c0,0,2-4.768,2-7.985C27,5.498,24.123,4,22,4     C22,4,20.747,1,16.5,1L16.5,1z"/>
		</g>
	</g>
</g>
</svg>