<?xml version="1.0" encoding="iso-8859-1"?><!-- Generator: Adobe Illustrator 19.2.1, SVG Export Plug-In . SVG Version: 6.00 Build 0)  --><svg xmlns="http://www.w3.org/2000/svg" xmlns:xlink="http://www.w3.org/1999/xlink" version="1.1" id="Layer_1" x="0px" y="0px" viewBox="0 0 16 16" style="enable-background:new 0 0 16 16;" xml:space="preserve" width="16" height="16">
<g>
	<g>
		<path style="fill:#4E7AB5;" d="M8,6.771c-2.083,0-3.968,0.844-5.333,2.209l1.524,1.524C5.165,9.529,6.512,8.926,8,8.926    s2.835,0.603,3.81,1.578l1.524-1.524C11.968,7.615,10.083,6.771,8,6.771z"/>
	</g>
	<g>
		<path style="fill:#4E7AB5;" d="M5.333,11.647L8,14.314l2.667-2.667C9.984,10.965,9.041,10.542,8,10.542S6.016,10.965,5.333,11.647    z"/>
	</g>
	<g>
		<path style="fill:#4E7AB5;" d="M0,6.314l1.524,1.524C3.181,6.18,5.471,5.155,8,5.155s4.819,1.025,6.476,2.682L16,6.314    C13.953,4.266,11.124,3,8,3S2.047,4.266,0,6.314z"/>
	</g>
</g>
</svg>