<?xml version="1.0" encoding="iso-8859-1"?><!-- Generator: Adobe Illustrator 19.2.1, SVG Export Plug-In . SVG Version: 6.00 Build 0)  --><svg xmlns="http://www.w3.org/2000/svg" xmlns:xlink="http://www.w3.org/1999/xlink" version="1.1" id="Layer_1" x="0px" y="0px" viewBox="0 0 30 30" style="enable-background:new 0 0 30 30;" xml:space="preserve" width="30" height="30">
<g>
	<g>
		<path style="fill:#8BB7F0;" d="M22.063,18.229C20.127,16.466,17.638,15.5,15,15.5s-5.127,0.966-7.063,2.729l-2.122-2.122    C8.318,13.777,11.562,12.5,15,12.5s6.682,1.277,9.186,3.607L22.063,18.229z"/>
		<path style="fill:#4E7AB5;" d="M15,13c3.137,0,6.104,1.104,8.459,3.127l-1.419,1.419C20.067,15.898,17.602,15,15,15    s-5.067,0.898-7.04,2.546l-1.419-1.419C8.896,14.104,11.863,13,15,13 M15,12c-3.866,0-7.366,1.567-9.899,4.1l2.828,2.828    C9.739,17.119,12.239,16,15,16s5.261,1.119,7.071,2.929l2.828-2.828C22.366,13.567,18.866,12,15,12L15,12z"/>
	</g>
	<g>
		<path style="fill:#8BB7F0;" d="M10.771,21.063C11.948,20.052,13.432,19.5,15,19.5s3.052,0.552,4.229,1.563L15,25.293    L10.771,21.063z"/>
		<path style="fill:#4E7AB5;" d="M15,20c1.264,0,2.469,0.388,3.477,1.109L15,24.586l-3.477-3.477C12.531,20.388,13.736,20,15,20     M15,19c-1.933,0-3.683,0.783-4.95,2.05L15,26l4.95-4.95C18.683,19.784,16.933,19,15,19L15,19z"/>
	</g>
	<g>
		<path style="fill:#8BB7F0;" d="M27.016,13.277C23.755,10.192,19.508,8.5,15,8.5s-8.755,1.692-12.016,4.777l-2.123-2.123    C4.69,7.504,9.691,5.5,15,5.5s10.31,2.004,14.139,5.654L27.016,13.277z"/>
		<path style="fill:#4E7AB5;" d="M15,6c5.008,0,9.734,1.828,13.418,5.168l-1.416,1.416C23.697,9.621,19.473,8,15,8    S6.303,9.621,2.998,12.584l-1.416-1.416C5.266,7.828,9.992,6,15,6 M15,5C9.201,5,3.951,7.351,0.151,11.151l2.828,2.828    C6.056,10.903,10.306,9,15,9s8.944,1.903,12.021,4.979l2.828-2.828C26.049,7.351,20.799,5,15,5L15,5z"/>
	</g>
</g>
</svg>