<?xml version="1.0" encoding="iso-8859-1"?><!-- Generator: Adobe Illustrator 19.2.1, SVG Export Plug-In . SVG Version: 6.00 Build 0)  --><svg xmlns="http://www.w3.org/2000/svg" xmlns:xlink="http://www.w3.org/1999/xlink" version="1.1" id="Layer_1" x="0px" y="0px" viewBox="0 0 40 40" style="enable-background:new 0 0 40 40;" xml:space="preserve" width="40" height="40">
<line style="fill:none;stroke:#4E7AB5;stroke-miterlimit:10;" x1="20.5" y1="39" x2="20.5" y2="0"/>
<polyline style="fill:none;stroke:#4E7AB5;stroke-miterlimit:10;" points="24.586,3.137 20.5,7.222 16.414,3.137 "/>
<polyline style="fill:none;stroke:#4E7AB5;stroke-miterlimit:10;" points="16.414,35.863 20.5,31.778 24.586,35.863 "/>
<line style="fill:none;stroke:#4E7AB5;stroke-miterlimit:10;" x1="37.387" y1="29.25" x2="3.613" y2="9.75"/>
<polyline style="fill:none;stroke:#4E7AB5;stroke-miterlimit:10;" points="8.372,7.78 9.867,13.361 4.286,14.857 "/>
<polyline style="fill:none;stroke:#4E7AB5;stroke-miterlimit:10;" points="32.628,31.22 31.133,25.639 36.714,24.143 "/>
<line style="fill:none;stroke:#4E7AB5;stroke-miterlimit:10;" x1="37.387" y1="9.75" x2="3.613" y2="29.25"/>
<line style="fill:none;stroke:#4E7AB5;stroke-miterlimit:10;" x1="26.216" y1="29.4" x2="14.784" y2="9.6"/>
<line style="fill:none;stroke:#4E7AB5;stroke-miterlimit:10;" x1="31.931" y1="19.5" x2="9.069" y2="19.5"/>
<line style="fill:none;stroke:#4E7AB5;stroke-miterlimit:10;" x1="26.216" y1="9.6" x2="14.784" y2="29.4"/>
<polyline style="fill:none;stroke:#4E7AB5;stroke-miterlimit:10;" points="4.286,24.143 9.867,25.639 8.372,31.22 "/>
<polyline style="fill:none;stroke:#4E7AB5;stroke-miterlimit:10;" points="36.714,14.857 31.133,13.361 32.628,7.78 "/>
</svg>