<?xml version="1.0" encoding="iso-8859-1"?><!-- Generator: Adobe Illustrator 19.2.1, SVG Export Plug-In . SVG Version: 6.00 Build 0)  --><svg xmlns="http://www.w3.org/2000/svg" xmlns:xlink="http://www.w3.org/1999/xlink" version="1.1" id="Layer_1" x="0px" y="0px" viewBox="0 0 30 30" style="enable-background:new 0 0 30 30;" xml:space="preserve" width="30" height="30">
<line style="fill:none;stroke:#4E7AB5;stroke-miterlimit:10;" x1="15.5" y1="29" x2="15.5" y2="0"/>
<polyline style="fill:none;stroke:#4E7AB5;stroke-miterlimit:10;" points="18.538,2.332 15.5,5.37 12.462,2.332 "/>
<polyline style="fill:none;stroke:#4E7AB5;stroke-miterlimit:10;" points="12.462,26.668 15.5,23.63 18.538,26.668 "/>
<line style="fill:none;stroke:#4E7AB5;stroke-miterlimit:10;" x1="28.057" y1="21.75" x2="2.943" y2="7.25"/>
<polyline style="fill:none;stroke:#4E7AB5;stroke-miterlimit:10;" points="6.482,5.785 7.594,9.935 3.444,11.047 "/>
<polyline style="fill:none;stroke:#4E7AB5;stroke-miterlimit:10;" points="24.518,23.215 23.406,19.065 27.556,17.953 "/>
<line style="fill:none;stroke:#4E7AB5;stroke-miterlimit:10;" x1="28.057" y1="7.25" x2="2.943" y2="21.75"/>
<line style="fill:none;stroke:#4E7AB5;stroke-miterlimit:10;" x1="19.75" y1="21.861" x2="11.25" y2="7.139"/>
<line style="fill:none;stroke:#4E7AB5;stroke-miterlimit:10;" x1="24" y1="14.5" x2="7" y2="14.5"/>
<line style="fill:none;stroke:#4E7AB5;stroke-miterlimit:10;" x1="19.75" y1="7.139" x2="11.25" y2="21.861"/>
<polyline style="fill:none;stroke:#4E7AB5;stroke-miterlimit:10;" points="3.444,17.953 7.594,19.065 6.482,23.215 "/>
<polyline style="fill:none;stroke:#4E7AB5;stroke-miterlimit:10;" points="27.556,11.047 23.406,9.935 24.518,5.785 "/>
</svg>