<?xml version="1.0" encoding="iso-8859-1"?><!-- Generator: Adobe Illustrator 19.2.1, SVG Export Plug-In . SVG Version: 6.00 Build 0)  --><svg xmlns="http://www.w3.org/2000/svg" xmlns:xlink="http://www.w3.org/1999/xlink" version="1.1" id="Layer_1" x="0px" y="0px" viewBox="0 0 16 16" style="enable-background:new 0 0 16 16;" xml:space="preserve" width="16" height="16">
<line style="fill:none;stroke:#4E7AB5;stroke-miterlimit:10;" x1="7.5" y1="15" x2="7.5" y2="0"/>
<polyline style="fill:none;stroke:#4E7AB5;stroke-miterlimit:10;" points="9.071,1.206 7.5,2.778 5.929,1.206 "/>
<polyline style="fill:none;stroke:#4E7AB5;stroke-miterlimit:10;" points="5.929,13.794 7.5,12.222 9.071,13.794 "/>
<line style="fill:none;stroke:#4E7AB5;stroke-miterlimit:10;" x1="13.995" y1="11.25" x2="1.005" y2="3.75"/>
<polyline style="fill:none;stroke:#4E7AB5;stroke-miterlimit:10;" points="2.835,2.992 3.41,5.139 1.264,5.714 "/>
<polyline style="fill:none;stroke:#4E7AB5;stroke-miterlimit:10;" points="12.165,12.008 11.59,9.861 13.736,9.286 "/>
<line style="fill:none;stroke:#4E7AB5;stroke-miterlimit:10;" x1="13.995" y1="3.75" x2="1.005" y2="11.25"/>
<line style="fill:none;stroke:#4E7AB5;stroke-miterlimit:10;" x1="9.698" y1="11.308" x2="5.302" y2="3.692"/>
<line style="fill:none;stroke:#4E7AB5;stroke-miterlimit:10;" x1="11.897" y1="7.5" x2="3.103" y2="7.5"/>
<line style="fill:none;stroke:#4E7AB5;stroke-miterlimit:10;" x1="9.698" y1="3.692" x2="5.302" y2="11.308"/>
<polyline style="fill:none;stroke:#4E7AB5;stroke-miterlimit:10;" points="1.264,9.286 3.41,9.861 2.835,12.008 "/>
<polyline style="fill:none;stroke:#4E7AB5;stroke-miterlimit:10;" points="13.736,5.714 11.59,5.139 12.165,2.992 "/>
</svg>